<svg xmlns="http://www.w3.org/2000/svg" width="193.94" height="87.32" viewBox="0 0 193.94 87.32"><defs><style>.cls-1{isolation:isolate;}.cls-2{fill:#264c29;stroke-width:0.58px;}.cls-2,.cls-3,.cls-4,.cls-7,.cls-8{stroke:#000;stroke-miterlimit:10;}.cls-3,.cls-5,.cls-6{fill:#4d8a62;}.cls-3{stroke-width:0.87px;}.cls-4{fill:#e5ae13;}.cls-5{mix-blend-mode:screen;opacity:0.45;}.cls-6{mix-blend-mode:overlay;}.cls-7,.cls-8{fill:none;}.cls-7{stroke-width:0.29px;}.cls-8{stroke-width:0.3px;}</style></defs><g class="cls-1"><g id="DICS"><ellipse class="cls-2" cx="96.97" cy="46.45" rx="95.73" ry="40.58"/><ellipse class="cls-3" cx="96.97" cy="41.19" rx="96.54" ry="40.75"/><ellipse class="cls-4" cx="96.97" cy="34.66" rx="38.43" ry="16.22"/><path class="cls-5" d="M81.2,1.45C35.67,4.56.91,21.12.91,41.09.91,58.89,28.52,74,66.76,79.26-36.3,42.34,24.46,8.25,81.2,1.45Z"/><path class="cls-6" d="M193.19,45C196,21.53,158,5.22,116.67,1.61,139.19,4.12,183.53,13.53,193.19,45Z"/><ellipse class="cls-7" cx="96.97" cy="37.48" rx="80.13" ry="33.83"/><ellipse class="cls-7" cx="96.97" cy="37.98" rx="82.39" ry="35.18"/><ellipse class="cls-7" cx="96.97" cy="38.4" rx="85.23" ry="36.39"/><ellipse class="cls-8" cx="96.97" cy="38.88" rx="88.31" ry="37.7"/></g></g></svg>