<svg xmlns="http://www.w3.org/2000/svg" width="193.94" height="87.32" viewBox="0 0 193.94 87.32"><defs><style>.cls-1{isolation:isolate;}.cls-2{fill:#264c29;stroke-width:0.58px;}.cls-2,.cls-3,.cls-5,.cls-6,.cls-7{stroke:#000;stroke-miterlimit:10;}.cls-3,.cls-4,.cls-8{fill:#4d8a62;}.cls-3{stroke-width:0.87px;}.cls-4{mix-blend-mode:screen;opacity:0.45;}.cls-5{fill:#f9061d;stroke-width:1.16px;}.cls-6,.cls-7{fill:none;}.cls-6{stroke-width:0.29px;}.cls-7{stroke-width:0.3px;}.cls-8{mix-blend-mode:overlay;}</style></defs><g class="cls-1"><g id="DICS"><ellipse class="cls-2" cx="96.97" cy="46.45" rx="95.73" ry="40.58"/><ellipse class="cls-3" cx="96.97" cy="41.19" rx="96.54" ry="40.75"/><path class="cls-4" d="M81.18,1.51C35.65,4.61.89,21.18.89,41.15.89,59,28.5,74,66.74,79.31-36.32,42.39,24.44,8.31,81.18,1.51Z"/><ellipse class="cls-5" cx="96.97" cy="34.66" rx="38.43" ry="16.22"/><ellipse class="cls-6" cx="96.97" cy="37.48" rx="80.13" ry="33.83"/><ellipse class="cls-6" cx="96.97" cy="37.98" rx="82.39" ry="35.18"/><ellipse class="cls-6" cx="96.97" cy="38.4" rx="85.23" ry="36.39"/><ellipse class="cls-7" cx="96.97" cy="38.88" rx="88.31" ry="37.7"/><path class="cls-8" d="M193.16,44.65C196,21.2,157.94,4.89,116.64,1.28,139.16,3.8,183.51,13.2,193.16,44.65Z"/></g></g></svg>