<svg xmlns="http://www.w3.org/2000/svg" width="440.64" height="513.63" viewBox="0 0 440.64 513.63"><defs><style>.cls-1{fill:#fff;}.cls-2{fill:#ccc;}.cls-3{fill:#aaa;}.cls-4{fill:#7a7a7a;}.cls-5{fill:#eee;}.cls-6{fill:#b2b2b2;}</style></defs><g id="Happy"><path class="cls-1" d="M112,400,55.66,438.33c9.44,6.95,12.47,17.92,8.59,25.17a15.11,15.11,0,0,1-12.73,7.79c-8.15.06-13.62-8-15.34-13.45a16.63,16.63,0,0,1-.77-4c-.47-5.72-2.94-15.31-11.31-32.37L88,381.32"/><path class="cls-2" d="M36.28,457,25.56,421.47,88,382.66l2.66,3.57-58,38.13s8.14,18.28,7.76,31.71c0,.88,1.58,7.48,11.29,11.27,10.88,2.56,4,2.55,4,2.55l-8.69.39C43,467.28,39,464.05,36.28,457Z"/><polygon class="cls-3" points="86.1 409.6 85.31 416.79 51.33 438.25 86.1 409.6"/><path class="cls-4" d="M50,473.73c-9.25-.87-14.62-10.11-16.22-15.13a19.74,19.74,0,0,1-.87-4.47c-.58-7.15-4.3-17.74-11.06-31.52l-1-2,65.79-41.38,2.67,4.23-62,39c6.5,13.54,10,23.78,10.57,31.25a14.5,14.5,0,0,0,.66,3.41c1.5,4.73,6.19,11.75,12.94,11.7A12.6,12.6,0,0,0,62,462.32c3.06-5.71,1-15.49-7.86-22l-2.85-2.09L110.58,398l2.81,4.13L59.82,438.53c8,7.43,10.9,18.19,6.63,26.15a17.54,17.54,0,0,1-14.92,9.11A15.21,15.21,0,0,1,50,473.73Z"/><path class="cls-1" d="M228.65,417.13l3.54,85.48c18.95,1.43,28.47,4.16,33.64,6.66a17.4,17.4,0,0,0,3.8,1.35c5.54,1.26,15.29.64,19.37-6.41a15.13,15.13,0,0,0-.26-14.92c-4.29-7-24.33-8.32-35.1-3.7l-.83-70"/><path class="cls-2" d="M232.75,481.59v20.18s25.24,2.07,32.34,6.46,18.3,0,18.3,0-11.45,0-15.19-4.12-30.13-6.22-30.13-6.22l-.76-11.27Z"/><path class="cls-4" d="M274.6,513.63a25.12,25.12,0,0,1-5.52-.58,19.7,19.7,0,0,1-4.32-1.51c-6.44-3.12-17.46-5.28-32.76-6.44l-2.22-.17-3.63-87.7,5-.2,3.44,83.26c15,1.26,25.57,3.47,32.32,6.73a14.47,14.47,0,0,0,3.28,1.16c4.84,1.1,13.27.62,16.65-5.22a12.6,12.6,0,0,0-.24-12.37c-3.33-5.47-21.87-7-32-2.71l-3.44,1.48-.87-73.79,5-.06.78,66.56c12.07-3.49,30.19-1.62,34.78,5.91a17.55,17.55,0,0,1,.29,17.48C287.45,511.88,280.3,513.63,274.6,513.63Z"/><path class="cls-1" d="M329.81,311.44c-6.79,5.15-17.22,11.42-30.63,13-19.46,2.34-34.95-6.35-40.6-9.19-39.83-20-115.64-12.57-152.49,17.58a75.56,75.56,0,0,0-6.08,5.56L13.77,319c-12.67-3-15.88,7.2-2.85,9.83l80.94,20c-2.47,4.06-18.37,31.38-7.83,53.45a34.63,34.63,0,0,0,3.74,6.13l-8.71,85.1c18.55,4.13,27.58,8.2,32.34,11.41a16.71,16.71,0,0,0,3.57,1.87c5.3,2,15,2.82,20.09-3.57a15.14,15.14,0,0,0,1.87-14.81c-3.24-7.57-13.7-12.05-25-9l5.27-67.92a123.79,123.79,0,0,0,34.68,19c67.42,23.69,131.69-22,138.89-27.32,34.12-25.06,50.49-57.42,58-76.08"/><path class="cls-2" d="M95.77,347.2s-9.21,26.88-8,40.1,5.49,17.36,5.49,17.36l-7.16,81.4s25.08,9.45,29.25,15.07,19.06,0,19.06,0l-2.34,4.76-13.15,1-14.85-5.7-24.25-8.55,8-85.2S80,397.13,80.54,385s10.13-33.79,10.13-33.79Z"/><path class="cls-5" d="M117.68,412.41c2.34,3,25.84,13.9,25.84,13.9l23.91,7.58,18,3.15,28.94-2L230,431.17c20.89-6.68,25.3-8.54,25.19-8.94a.86.86,0,0,0-.46-.31,1.72,1.72,0,0,0-1.37.42c-.89.65-31.42,11.12-69.92,5.08A154.13,154.13,0,0,1,124,404.7L113,398.45C112.63,398.36,115.21,409.21,117.68,412.41Z"/><path class="cls-2" d="M226.24,385.64l14.67,32.76s2,4,0,5.11l-9.73,5.32L228.94,430l9.39-1.87,8.83-3.64.25-5.09L233.52,396Z"/><path class="cls-2" d="M5.06,320.69C10,326,57.73,335.75,89.24,344.82c1.42.49,3.28,1.36,6,2.53L6.51,326.48l-3.75-2.81Z"/><path class="cls-4" d="M123.26,510.73a26.77,26.77,0,0,1-9.19-1.64,19.24,19.24,0,0,1-4-2.11c-5.94-4-16.54-7.72-31.52-11.06l-2.17-.48,8.85-86.35a37.81,37.81,0,0,1-3.42-5.76c-9.56-20,1.27-43.76,6.26-52.89l-77.66-19.2C4.73,330.1,1.12,327.86.18,325c-.52-1.61.14-5.55,1.31-6.81,2.23-2.4,7-3,12.86-1.61l84.84,19.15c1.65-1.63,3.44-3.23,5.32-4.77C141.11,301,218,292.11,259.7,313l1.13.57c6.14,3.14,20.53,10.47,38.05,8.37,10.15-1.21,20.05-5.43,29.43-12.53l3,4c-10.09,7.64-20.8,12.18-31.85,13.51-19,2.28-34.36-5.54-40.91-8.88l-1.1-.56c-18.8-9.43-46.49-13-76-9.76-29.91,3.27-56.81,13.13-73.81,27a71,71,0,0,0-5.88,5.36l-.94,1-87.58-19.7c-4.55-1.09-7.57-1.14-7.9-.05-.65,2.19,1.88,4.14,6,5l.1,0L95.77,347.2,94,350.11c-3,4.93-17.5,30.56-7.71,51.06a32.82,32.82,0,0,0,3.48,5.7l.6.78-8.59,83.89c14.64,3.38,24.81,7.08,31,11.28a14.45,14.45,0,0,0,3.07,1.61c4.63,1.78,13,2.51,17.22-2.79a12.58,12.58,0,0,0,1.54-12.28c-2.55-5.95-11.5-10.42-22.08-7.59l-3.41.91,5.91-76.05,3.66,2.84a121,121,0,0,0,34,18.59c27.72,9.74,58.12,8.81,90.35-2.78a190.92,190.92,0,0,0,46.23-24.19c31.72-23.3,48.57-53.65,57.12-75L351,328c-8.79,21.95-26.13,53.17-58.8,77.17A196.34,196.34,0,0,1,244.73,430c-33.34,12-64.87,12.93-93.7,2.8a125.22,125.22,0,0,1-31.71-16.62l-4.66,60.07c10.82-1.62,21,2.86,24.57,11.16A17.58,17.58,0,0,1,137,504.73C133.4,509.32,128.1,510.73,123.26,510.73Z"/><g id="LEG"><path class="cls-1" d="M228.68,384.89l19.64,33.38s2.35,5.87-2,8.58S211.45,450,211.45,450c4,6.85,22.2,29.67,23.93,32.08,1.89,2.63,1.76,4.2,2.77,5.9,2.35,3.93,10.55,8.14,16.31,5.94,6.7-2.56,8.36-10.5,7.6-15.55-1.16-7.65-8.26-20.18-18.25-21.62l38-25.42s4.13-3.73.39-9.14S262.6,388.3,262.6,388.3"/><path class="cls-2" d="M231,384c6.73,8.13,13.3,19.37,21.67,31.88,0,0,5.81,8.91-1.05,13.42-5.36,3.58-31.51,22.58-31.51,22.58l19.79,26.87c1,1.21,1,3.29,2.71,7s6.79,6.08,6.59,5.85l-.94.77-9.15-4.51-4.46-10.09-20.56-27.23,24.06-18.92,10.75-8.74-.28-3.65-19-34.52Z"/><path class="cls-4" d="M251,497.29c-6.29,0-12.91-4.06-15.21-7.92a12.45,12.45,0,0,1-1.12-2.58,10.18,10.18,0,0,0-1.52-3.12c-.4-.55-1.9-2.47-3.79-4.91-6.43-8.26-17.18-22.07-20.28-27.38l-1.34-2.28,2.2-1.46c1.25-.84,30.61-20.46,34.94-23.16,2-1.27,1.19-4.26.94-5l-19.52-33.15a2.8,2.8,0,0,1,4.83-2.84L250.85,417l.07.2c1.12,2.78,1.9,8.87-3.11,12-3.57,2.23-25.36,16.76-32.52,21.54,4.13,6.15,13.25,17.87,18.45,24.55,2.08,2.68,3.46,4.44,3.92,5.09a15.54,15.54,0,0,1,2.28,4.59,6.92,6.92,0,0,0,.62,1.5c1.77,3,8.68,6.37,12.9,4.76,5.32-2,6.4-8.75,5.83-12.51-1.1-7.25-7.67-18.09-15.88-19.27l-7.24-1,43.9-29.33c.58-.62,1.86-2.5-.13-5.37-3.77-5.46-19.14-32.91-19.79-34.08a2.8,2.8,0,1,1,4.89-2.73c.16.28,15.88,28.39,19.51,33.62,4.06,5.88,1.24,11-.82,12.82l-.32.25L250.06,455.9c8.16,4.39,13.65,14.65,14.77,22,.86,5.71-.93,15.36-9.37,18.59A12.73,12.73,0,0,1,251,497.29Z"/></g><path class="cls-2" d="M159.49,328.09c4,.92,7.75,4.68,7.08,8.77-.93,5.66-8.76,7.56-10.9,12.89-1.24,3.1-.25,6.72-1.24,9.91-1.5,4.83-6.81,7.18-11.53,8.95-3.44,1.28-7.48,2.52-10.59.57-2.31-1.45-3.35-4.23-4.23-6.82l-4.67-13.64c-1-3.05-2.09-6.25-1.52-9.41.87-4.77,5.34-8.22,10-9.39S155.45,327.18,159.49,328.09Z"/><path class="cls-6" d="M157.56,327.65c3.8.86,7.29,4.39,6.66,8.23C163.35,341.21,156,343,154,348c-1.17,2.92-.24,6.32-1.17,9.33-1.41,4.53-6.4,6.74-10.85,8.4-3.23,1.21-7,2.37-9.94.54-2.18-1.36-3.16-4-4-6.4L123.65,347c-1-2.86-2-5.87-1.43-8.84.81-4.48,5-7.73,9.44-8.82S153.77,326.78,157.56,327.65Z"/><path class="cls-2" d="M180.67,378.53c3.37-1.73,5.8-2.39,8.47-2.37,4.35,0,9.11,2.16,10.29,6.34.66,2.35.14,4.94,1,7.21,1.91,5,8.81,5.45,12.75,9a9.69,9.69,0,0,1-8.74,16.56c-2.7-.64-5.12-2.44-7.89-2.57-3.55-.16-6.54,2.41-9.53,4.33s-7.26,3.17-9.85.74c-3.29-3.09-.79-9-3.17-12.87s-7.89-3.64-11.21-6.51c-3.94-3.4-3.44-9.54-2.61-14.68a22.82,22.82,0,0,1,2.1-7.42c3.48-6.2,10.79-5.34,13.06.75C176.27,379.38,178.22,380,180.67,378.53Z"/><path class="cls-6" d="M182,377.17c3.38-1.74,5.8-2.39,8.47-2.37,4.35,0,9.11,2.16,10.29,6.34.66,2.35.14,4.94,1,7.21,1.91,5,8.8,5.45,12.74,9a9.69,9.69,0,0,1-8.74,16.57c-2.7-.64-5.11-2.44-7.89-2.57-3.55-.16-6.54,2.41-9.53,4.33s-7.26,3.17-9.85.74c-3.29-3.09-.79-9-3.17-12.87s-7.89-3.64-11.21-6.51c-3.94-3.4-3.44-9.54-2.61-14.68a22.75,22.75,0,0,1,2.1-7.42c3.48-6.2,10.8-5.34,13.06.75C177.63,378,179.58,378.59,182,377.17Z"/><path class="cls-2" d="M249.34,333c10.35-8.9,27.53-6,34,6.13,2.51,5.66,4,11.75,6,17.59.4,1.24.79,2.64.17,3.78-1.67,2.68-5.22,1.08-7.67.65-7.26-.94-12.28,6.68-19.06,7.75s-12.74-4.2-19.46-5c-3.55-.42-7.27.41-10.66-.73a9.63,9.63,0,0,1-4.07-15.46c1.42-1.57,3.37-2.69,4.4-4.54.93-1.66,1-3.67,1.8-5.4a8.58,8.58,0,0,1,6.24-4.57C243.31,332.82,247.13,334.47,249.34,333Z"/><path class="cls-6" d="M251.25,331.92c10.17-8.75,27.07-5.92,33.41,6,2.47,5.56,3.89,11.56,5.9,17.3.39,1.21.77,2.59.17,3.71-1.65,2.64-5.14,1.07-7.55.64-7.13-.92-12.07,6.57-18.74,7.62s-12.52-4.13-19.13-4.92c-3.49-.41-7.15.41-10.48-.71a9.46,9.46,0,0,1-4-15.2c1.39-1.55,3.31-2.65,4.33-4.46.91-1.63,1-3.62,1.77-5.31a8.4,8.4,0,0,1,6.13-4.5C245.31,331.73,249.07,333.35,251.25,331.92Z"/><path class="cls-4" d="M126.73,507.45a1.87,1.87,0,0,1-1.81-1.44,12.19,12.19,0,0,0-4.18-6.76,1.86,1.86,0,1,1,2.12-3.05,15.72,15.72,0,0,1,5.68,9,1.86,1.86,0,0,1-1.39,2.23A1.51,1.51,0,0,1,126.73,507.45Z"/><path class="cls-4" d="M133.67,504.33a1.93,1.93,0,0,1-1.87-1.48,12.71,12.71,0,0,0-4.32-7,1.92,1.92,0,1,1,2.19-3.15,16.27,16.27,0,0,1,5.87,9.28,1.91,1.91,0,0,1-1.44,2.3A1.58,1.58,0,0,1,133.67,504.33Z"/><path class="cls-4" d="M42.81,466.67a1.87,1.87,0,0,1,.12-2.31A12.18,12.18,0,0,0,46,457,1.86,1.86,0,0,1,49.7,457a15.71,15.71,0,0,1-4,9.86,1.86,1.86,0,0,1-2.62.17A2.15,2.15,0,0,1,42.81,466.67Z"/><path class="cls-4" d="M49.39,470.49a1.91,1.91,0,0,1,.12-2.38,12.53,12.53,0,0,0,3.16-7.59,1.92,1.92,0,0,1,3.84-.06,16.17,16.17,0,0,1-4.11,10.18,1.92,1.92,0,0,1-2.71.18A1.87,1.87,0,0,1,49.39,470.49Z"/><path class="cls-4" d="M243.12,491.38a1.84,1.84,0,0,1-.23-2.29,12.24,12.24,0,0,0,2-7.71,1.86,1.86,0,1,1,3.66-.61A15.66,15.66,0,0,1,246,491.1a1.85,1.85,0,0,1-2.57.55A1.39,1.39,0,0,1,243.12,491.38Z"/><path class="cls-4" d="M250.18,494.2a1.94,1.94,0,0,1-.23-2.38,12.69,12.69,0,0,0,2-8,1.92,1.92,0,1,1,3.78-.63,16.19,16.19,0,0,1-2.57,10.68,1.92,1.92,0,0,1-2.66.57A2.24,2.24,0,0,1,250.18,494.2Z"/><path class="cls-4" d="M279,510.18a1.85,1.85,0,0,1-1.8-1.44A12.3,12.3,0,0,0,273,502a1.85,1.85,0,0,1,2.11-3.05,15.66,15.66,0,0,1,5.68,9,1.85,1.85,0,0,1-1.38,2.23A2.18,2.18,0,0,1,279,510.18Z"/><path class="cls-4" d="M285.93,507.06a1.93,1.93,0,0,1-1.87-1.49,12.54,12.54,0,0,0-4.32-7,1.92,1.92,0,0,1,2.19-3.16,16.26,16.26,0,0,1,5.87,9.28,1.92,1.92,0,0,1-1.43,2.31A2.2,2.2,0,0,1,285.93,507.06Z"/><path class="cls-1" d="M286.63,117.9a41.3,41.3,0,0,0,.78-9.32c-.16-5.1-1.24-9.21-4.23-17.61-4.73-13.3-5.36-12.43-7-18.62-1.91-7-2.25-12.5-2.65-19-.62-10.15-1-15.73.78-23,1.6-6.62,3.7-15.34,11.6-20.83,7-4.86,14.64-4.48,17.3-4.34,15.95.32,23.95,9.25,19.74,25.71-2,9.39-6.3,10.49-10.92,23.64-1.51,4.3-2.7,7.71-3.11,12.58-.36,4.24.11,6.89,2.7,19.76,2.73,13.61,3.14,15.29,3.75,19.22A156.71,156.71,0,0,1,317,123.44"/><path class="cls-5" d="M314.37,109.38c-3.34-13.64-5.9-23.22-8-30.44a36.8,36.8,0,0,1-1.62-8.89,41.23,41.23,0,0,1,3-16.94c.57-1.55.57-1.31,7.46-15.06,2.77-5.53,4.17-8.36,4.48-11.59.11-1.17.62-6.47-2-11.1-3.55-6.27-11.89-9.58-21-8.6l12.35-.18L317.7,10l6.24,7.17-.35,10.65-2.84,9.29-4.9,9-3.61,7.7-3.68,15.44,6.55,39v1.32Z"/><path class="cls-2" d="M289.43,103.66c0-.57,2.37-1.22,1.71-7.39A64.84,64.84,0,0,0,287.31,84a141.13,141.13,0,0,1-5.79-16.42C278,55,280.62,44.22,281,40.49c.54-5.86,2.24-13.93,7.79-20,9.45-10.38,28.4-6.61,32-6.68l-7.59-6.9L295.74,5.73l-10.32,4.72-7.21,9.74-2.63,8-1.71,16.64,1.29,17.76,2.68,11.93L282.54,88l5.2,16Z"/><path class="cls-4" d="M286.07,117.79A41.47,41.47,0,0,0,285,101.64c-1.49-5.19-3.61-10.39-5.59-15.54-1.46-3.93-3.51-7.71-4.74-11.77-2.13-6.81-2.85-14-3.26-21.06-.33-5.56-.87-11.2-.33-17.05a52.27,52.27,0,0,1,1.59-8.53c1.37-5.64,3.44-11.45,7.42-15.95,7.43-8.52,18.37-9.95,29-8.25,13.05,2.27,18.94,11.92,16.63,24.69-.15.67-.52,2.49-.69,3.2-.81,4.23-3.13,8.58-5.39,12a65.16,65.16,0,0,0-6.74,14.75A39,39,0,0,0,311,65.84a26.22,26.22,0,0,0,.06,7.81c.77,5.38,2,10.89,2.91,16.36l1.48,8.24a125.53,125.53,0,0,1,2.07,25.16l-1.07,0q-.84-8.29-2.36-16.48c-1.58-8.1-3.7-16.3-5.33-24.46-.82-4.18-1.87-8.37-2-12.73-.09-7.4,2.48-14.23,5.22-21,2-5.11,5.83-9.73,7.71-14.68,4-12.17,3.08-23.63-11.4-26.22C296,6,284.71,8.8,279.39,21.15a60.73,60.73,0,0,0-4,15.5c-.55,5.27-.11,10.8.17,16.37.42,8.27,1.1,16.31,4.2,23.94,2.21,5.1,4.17,10.48,5.86,15.79a78.88,78.88,0,0,1,2.24,8.22,36.57,36.57,0,0,1-.63,17l-1.13-.22Z"/><path class="cls-4" d="M299.68,99a141.67,141.67,0,0,1-8.24-67.82,7.4,7.4,0,1,1,14.7,1.73,140.2,140.2,0,0,0-5.42,32.61,136.17,136.17,0,0,0,2.63,32.42A1.92,1.92,0,0,1,299.68,99Z"/><g id="HEAD"><path class="cls-1" d="M301.85,332.46c-4.6-21.41-21.37-36.38-24.43-39.42-41-40.72-35.88-115.17-35.68-125.66.63-32,10.51-45.55,15-50.76,21.06-24.55,52.18-23.07,67-16.6,10.51,4,20,11.15,34.82,31.24,21.72,29.53,37.66,51.2,41,84.61,3.05,30.55-6.12,53.91-12,69-15.37,39.13-46.74,69.68-62.26,82.5"/></g><path class="cls-2" d="M276.36,109.05s-26.23,15-26.23,82.42c.68,25.47,1.52,53.75,22.81,94.59,0,0-20.42-25.68-25-54.1s-6.48-35.37-6.48-35.37V160.8l5.46-23.44,7.49-15.67,12.25-12.4Z"/><path class="cls-2" d="M308.65,98.4c17.28,13,65.34,73.55,95,97.29,23.45,16.24,31.86,39.42,20.9,71,0,0,22.73-9.19,6.51-59.36,0,0-17.4-7.28-39.7-16-1.62-15.81-12.72-34.23-30.47-54.46C356.35,132.72,334.71,97.92,308.65,98.4Z"/><path class="cls-4" d="M325.27,370.64a2.48,2.48,0,0,1-1.68-.65,2.62,2.62,0,0,1,.24-3.9c10.08-8.35,44.72-39,61.37-81.36,5.92-15.09,14.88-37.88,11.88-67.83-3.27-32.72-18.9-54-40.53-83.37-14.89-20.24-23.93-26.64-33.7-30.39l-.1,0c-14.21-6.19-44.18-7.34-64.14,15.93-9.1,10.65-13.94,27.2-14.37,49.19-.48,24.41-1.37,87.75,34.94,123.83,2.5,2.48,22.14,22.31,27.05,45a2.56,2.56,0,0,1-1,2.64,2.51,2.51,0,0,1-3.91-1.51c-4.56-21.2-23.45-40.34-25.69-42.56C238,258.16,238.75,193.18,239.24,168.12c.46-23.17,5.69-40.78,15.57-52.34,21.85-25.47,53.74-24.29,69.88-17.29,10.31,4,20.36,11,35.89,32.07,22.1,30.05,38.07,51.76,41.47,85.84,3.12,31.15-6.1,54.62-12.2,70.16-17.17,43.72-52.85,75.13-63,83.51A2.5,2.5,0,0,1,325.27,370.64Z"/><path class="cls-1" d="M330.54,139.16c8.18,30.14,26.44,46.21,41.95,47.8,10.87,1.11,20.66,3.11,20.66,3.11,8.32.07,10.17-1.36,15-.62,11.82,1.82,19.28,13.29,21.92,17.36,13.58,20.88,5.41,44.93,5,46.07C428.91,270,414.79,278,412.59,280.59c-33.06,39.15-110.37-8.39-112-28.31-1.05-13,.67-24.67,2.61-28.48C330.62,221.86,343.51,179.12,330.54,139.16Z"/><path class="cls-1" d="M331.17,139c8.18,30.14,26.44,46.22,41.95,47.81C384,188,393.78,190,393.78,190c8.32.06,10.17-1.36,15-.62,11.82,1.81,19.28,13.29,21.92,17.36,13.58,20.88,5.41,44.92,5,46.07-6.13,17.16-20.25,25.11-22.45,27.7-33.06,39.15-108-7.51-109.57-27.43-1.06-13-1.75-25.54.19-29.35C331.25,221.74,344.14,179,331.17,139Z"/><path class="cls-2" d="M431,207.59c17,42.9-8.78,63.15-8.78,63.15,10.95-31.57,4.82-58.53-18.63-74.78Z"/><path class="cls-5" d="M380.76,293.85s-84.51,6.25-79.05-68.77l3.49-2.67C301.87,287.47,373.59,296.34,380.76,293.85Z"/><path class="cls-5" d="M367.26,196.49s-4.08,6-3.43,20.77S376.31,230,376.31,230s17-2.53,28.81,2.93,12.8-6.2,12.8-6.2"/><path class="cls-5" d="M307.69,220.1s17.64,27.49,33.42,39.07,27.63,20.59,27.63,20.59,7.33,5.5,16.46,5c13.05,0,26.32-18.05,26.32-18.05l-.59,4.91a32.73,32.73,0,0,1-1.71,3.32c-4.16,7.06-11.36,13-18.46,14.9-7.55,2-14.87-.49-23.32-5-11.79-6.33-37.73-17.69-53.37-47.07a98.17,98.17,0,0,1-6.89-16.34Z"/><path class="cls-4" d="M385.78,294.2c-14.8,0-32-13.59-42.82-22.18L341,270.49c-16-12.6-28.75-29.07-37.83-49a2.5,2.5,0,0,1,4.55-2.08c8.74,19.15,21,35,36.37,47.1l1.94,1.54c11,8.69,31.42,24.87,44.86,20.3,7.33-2.49,12.66-9,14.94-11.75,5.81-7,6.06-16.49,6.19-21,0-.92,0-1.6.1-2.13-1.2-11.64-3.1-18.8-6.85-30.33-2.65-8.13-5.4-16.55-12.5-23.76a26.39,26.39,0,0,0-11-6.89l-.72-.25a62.63,62.63,0,0,0-8.42-2.81c-9.79,1.51-28.38-3.05-44.49-49.48a2.5,2.5,0,1,1,4.72-1.64c15.59,44.93,32.59,47.24,39.18,46.15.72-.12,1.82-.3,10.78,3.11l.54.18a30.91,30.91,0,0,1,13,8.12c7.93,8,10.86,17,13.69,25.73,3.9,12,5.86,19.38,7.1,31.65l0,.33-.05.33c0,.25-.07,1.09-.09,1.82-.12,4.7-.42,15.69-7.3,24.05-2.35,2.85-8.54,10.37-17.21,13.32A20.78,20.78,0,0,1,385.78,294.2ZM372.56,189.45h0Z"/><path class="cls-4" d="M294,228.44a2.5,2.5,0,0,1-.46-5c11.55-2.16,13.81-11.2,13.9-11.58a2.51,2.51,0,0,1,3-1.87,2.48,2.48,0,0,1,1.88,3c-.11.51-3,12.61-17.86,15.4A2.45,2.45,0,0,1,294,228.44Z"/><path class="cls-6" d="M261.91,150.58c10.26-19.24,35.41-27.93,50.69-15.53,3.71,2.83,5.94,6.43,10.24,13.5,3.53,5.79,6.34,10.45,9,17.34,2.16,5.67,3.42,9.06,3.45,13.93-.18,9.37-2.12,17.08-16.4,23.57-25.92,12.74-56.13,7.47-60.65-28.19C257.65,171,256.5,160.92,261.91,150.58Z"/><path class="cls-1" d="M293.9,193.26c-15.27-3.79-24.83-31.25-9.61-46.2,9.35-8.65,20.36-5.92,27.57,3.09,5.78,6.63,6.5,14.18,7,19.13.64,6.59,1.22,12.61-2.72,17.44s-10.54,6-13.4,6.49A22,22,0,0,1,293.9,193.26Z"/><path class="cls-4" d="M297.85,196.2a19.42,19.42,0,0,1-4.53-.51h0c-8.08-2-15.13-10-17.95-20.3-3.11-11.38-.42-22.64,7.18-30.12,4.65-4.29,9.93-6.32,15.35-5.92,5.85.44,11.49,3.71,15.9,9.2,6.27,7.23,7.07,15.52,7.55,20.48.65,6.71,1.32,13.64-3.27,19.27s-11.83,6.85-14.92,7.37A30.45,30.45,0,0,1,297.85,196.2Zm-3.36-5.37a19.56,19.56,0,0,0,7.81-.09c2.76-.47,8.49-1.44,11.88-5.6s2.77-9.4,2.17-15.62c-.45-4.66-1.13-11.7-6.38-17.73l-.06-.08c-3.54-4.42-7.94-7-12.4-7.37-4-.31-8,1.27-11.53,4.55-6.24,6.14-8.43,15.57-5.8,25.19C282.52,182.67,288.14,189.25,294.49,190.83Z"/><path class="cls-1" d="M337.31,140.31c2.72-6,10.09-12.48,20.93-8.66,4,1.66,6.07,4.53,8.9,8.48A41.22,41.22,0,0,1,373,152.41c1.7,5.83,3,10.38,1.24,15.66-.43,1.28-2.32,6.62-7.62,9.42C351.26,186.45,330.35,156.39,337.31,140.31Z"/><path class="cls-4" d="M360.61,181.53c-4.46,0-9.19-2-13.69-6-9.59-8.49-16.63-25-11.82-36.16v0c3.47-7.63,12.44-14,23.94-9.93l.11,0c4.66,1.92,7,5.18,9.94,9.31a44,44,0,0,1,6.17,13c1.74,6,3.25,11.11,1.22,17.11a19,19,0,0,1-8.74,10.76A14.1,14.1,0,0,1,360.61,181.53Zm-21.1-40.24c-3.89,9.05,2.46,23.39,10.61,30.61,3.16,2.79,9.33,7,15.24,3.51l.1-.06a14.11,14.11,0,0,0,6.46-8c1.54-4.56.36-8.61-1.28-14.21a38.53,38.53,0,0,0-5.47-11.55c-2.68-3.76-4.45-6.24-7.79-7.63C347.51,130.46,341.51,136.91,339.51,141.29Z"/><path d="M292.93,192.25c-11.88-2.95-19.33-24.32-7.48-35.95a14.61,14.61,0,0,1,9.69-4.11c6.12,0,10.14,4.65,11.77,6.51,4.49,5.17,5.06,11,5.43,14.89.49,5.13,1,9.81-2.12,13.57s-8.2,4.67-10.43,5.05A17.13,17.13,0,0,1,292.93,192.25Z"/><path class="cls-4" d="M375.73,298.88c-9.4,0-17.24-2.36-25.45-4.83-14.12-4.24-30.14-9.06-41.13-24.15-12.66-17.39-10.76-38.42-9.35-46.65l4.93.84c-1.3,7.61-3.08,27,8.46,42.86,10,13.74,25.16,18.3,38.53,22.32,10,3,18.63,5.59,30.14,4.25,19.94-2.34,38.61-15.63,47.58-33.86,5.78-11.75,7.56-24.17,5.16-35.92-2.57-12.55-8.38-20.09-12.79-24.21-2.29-2.13-7.06-6.57-14.05-7.6-1.84-.29-6.11-.05-10.63.2-8.92.49-20,1.11-27.19-1-16.43-4.52-36.23-20.7-42.41-52.57l4.91-.95c5.74,29.62,23.84,44.58,38.86,48.71,6.38,1.84,17.46,1.22,25.56.78,5.19-.29,9.3-.52,11.64-.16,8.52,1.26,14.27,6.61,16.72,8.89,4.95,4.62,11.44,13,14.27,26.86,2.63,12.85.71,26.39-5.56,39.14-9.7,19.71-29.91,34.09-51.49,36.61A56.06,56.06,0,0,1,375.73,298.88Z"/><path class="cls-1" d="M290.71,157.52c-.06,1.84.82,3.25,1.91,4.74,5.87,8,12.51,11.13,14.43,10.59,5.5-1.59,3.86-6.78,1.48-10.72-.66-1.2-3.92-6.8-10.35-8.86C293.52,151.42,291,153.88,290.71,157.52Z"/><path class="cls-4" d="M297.2,194.5a16.1,16.1,0,0,1-4.72-.36h0c-6.29-1.56-11.77-7.76-14-15.79-2.42-8.86-.33-17.63,5.59-23.44,3.47-3.13,7.17-4.68,11.06-4.66,7,0,11.52,5.22,13.22,7.17,4.91,5.64,5.53,12.11,5.9,16,.51,5.22,1,10.61-2.54,15s-9.2,5.33-11.61,5.74A28.85,28.85,0,0,1,297.2,194.5Zm-3.82-4.14a15.17,15.17,0,0,0,6.09-.07c2.14-.36,6.6-1.12,9.24-4.36s2.16-7.32,1.69-12.16c-.35-3.62-.88-9.09-5-13.79-1.52-1.74-5.07-5.82-10.31-5.84a12.39,12.39,0,0,0-8.38,3.6c-4.84,4.76-6.55,12.1-4.5,19.58C284.08,184,288.45,189.13,293.38,190.36Z"/><path d="M339,148.28a13.51,13.51,0,0,1,6.36-6.56,13.3,13.3,0,0,1,10.14-.26c3.17,1.3,4.79,3.57,7,6.69a31.94,31.94,0,0,1,4.59,9.67c1.34,4.6,2.39,8.19,1,12.35a13.19,13.19,0,0,1-6,7.42,12.76,12.76,0,0,1-5.34,1.32C347,178.85,333.9,159.57,339,148.28Z"/><path d="M365.54,196.78c5.07-15.45,18.31-22.91,19.21-23.4,13.15-7.15,25.68-4.4,30-3.45,4.66,1,10.38,2.36,15.31,7.37a24,24,0,0,1,6.66,13.39c.72,5.44-.81,9.44-2.82,14.68-2.71,7.1-6.13,11.11-12.14,18.18-4.26,5-6.83,7.07-9.94,7.11a9.41,9.41,0,0,1-4.88-1.56c-10.52-5.54-25.61-5.18-30-5.07-2.81.07-5.2.31-7.59-1.22-.61-.4-3.34-2.26-4.81-8.56A32.86,32.86,0,0,1,365.54,196.78Z"/><path class="cls-1" d="M345.85,146.1c-.07,1.84.81,3.26,1.9,4.74,5.87,8,12.51,11.14,14.43,10.59,5.51-1.59,3.87-6.77,1.49-10.71-.67-1.21-3.93-6.81-10.35-8.87C348.65,140,346.11,142.46,345.85,146.1Z"/><path class="cls-4" d="M357.48,180.79c-.26,0-.51,0-.77,0-6.17,0-12.15-5.95-15.69-11.47-3.87-6-6.89-14.92-3.77-21.84h0a15.42,15.42,0,0,1,7.28-7.5,15.08,15.08,0,0,1,11.68-.3c3.67,1.51,5.5,4.08,7.83,7.34a34.63,34.63,0,0,1,4.87,10.25c1.37,4.7,2.56,8.76,1,13.49a13.81,13.81,0,0,1-12.39,10Zm-16.77-31.73c-2.49,5.54.18,13,3.51,18.23,3.72,5.79,8.75,9.7,12.51,9.72a10,10,0,0,0,9.54-7.45c1.21-3.59.28-6.78-1-11.2a30.81,30.81,0,0,0-4.31-9.11c-2.13-3-3.53-4.94-6.19-6a11.31,11.31,0,0,0-8.62.22,11.6,11.6,0,0,0-5.43,5.62Z"/><path class="cls-1" d="M298.63,173.94c-1.43.17-3.39-1.45-3.65-3.09-.07-.44,0-.81-.28-1-.44-.32-1.44,0-1.92.59-.94,1.15-.08,3.56,1.12,5a5.59,5.59,0,0,0,3.75,1.94,3.67,3.67,0,0,0,2.85-.87,2.34,2.34,0,0,0,.72-2.05,1.54,1.54,0,0,0-.83-1C299.75,173.23,299.43,173.85,298.63,173.94Z"/><path class="cls-1" d="M353.77,162.52c-1.43.17-3.39-1.44-3.66-3.09-.07-.44,0-.8-.27-1-.44-.33-1.45,0-1.93.59-.93,1.15-.08,3.55,1.13,5a5.57,5.57,0,0,0,3.75,1.93,3.63,3.63,0,0,0,2.84-.86,2.28,2.28,0,0,0,.72-2.05,1.45,1.45,0,0,0-.83-1C354.89,161.81,354.56,162.43,353.77,162.52Z"/><path d="M272.56,136.27c3.49-9.84,18.21-16.08,27-9.49a.58.58,0,0,1-.16,1c-9,3.87-16.29,8.44-26.23,9.28A.61.61,0,0,1,272.56,136.27Z"/><path d="M327.65,123.94c3.92-11.65,23-14.49,28.9-3a.62.62,0,0,1-.45.89c-4.77,1-9.25,1.16-13.89,1.47s-8.78.92-13.88,1.43a.59.59,0,0,1-.68-.74Z"/><path class="cls-5" d="M364.48,310.84c-1.47,9.75-23.43,10.71-23-1C348.24,313.65,355.77,314.5,364.48,310.84Z"/><path class="cls-4" d="M351.63,314.72c-7.47,0-10.46-4.31-10.63-4.57a2,2,0,0,1,3.39-2.29c.22.31,4.66,6.12,18.08,0a2,2,0,0,1,1.71,3.72A30.45,30.45,0,0,1,351.63,314.72Z"/><path class="cls-1" d="M387.86,186.62H418.5c3.38,0,3-4.08,0-6.26,0,0-3.84-3.71-14.22-4-10.47,0-14.73,2.4-16.42,3.62C384.76,182.32,384,186.62,387.86,186.62Z"/><path class="cls-1" d="M402.23,191.47H393c-1,0-.76,1.21,0,1.87,0,0,1.15,1.19,4.26,1.19a10.35,10.35,0,0,0,4.93-1.08C403.1,192.79,403.4,191.47,402.23,191.47Z"/><g id="EAR_1" data-name="EAR 1"><path class="cls-1" d="M272.62,122.67c.14-1.22-.41-3.15-1.72-7.11-1.72-5.22-4.1-9.13-9.76-16.89-9-12.27-9.35-11.17-13-17C244,74.94,242,69.41,239.6,62.77c-3.76-10.28-5.82-15.93-6.24-23.92-.38-7.31-.88-17,5.59-25,5.73-7.16,13.73-9.1,16.52-9.78C272-.54,283,6.23,283.73,24.5c.81,10.3-3.28,12.76-4,27.75-.24,4.9-.43,8.78.64,13.93.93,4.49,2.23,7.08,8.84,19.57,7,13.21,7.93,14.82,9.77,18.69,1.22,2.59,3.72,8.36,4.59,10.65"/><path class="cls-2" d="M273.18,123c1.38-.37,5.35-7.33-11.3-32.21-10.39-12.93-15-27.91-16.84-34.25-3.5-11-6.45-23-1.18-34.88,6.85-14.25,28.15-16,28.15-16l-6.14-2.49L247.48,8.34l-8,6.45-4.69,11.74L235.33,44l2.45,10.18,5.6,14.88,5.49,11.87L254,88l5.92,6.75,3.38,6.09,3.89,6.32,3.29,6.34Z"/><path class="cls-4" d="M271.82,122.58a13.27,13.27,0,0,0-1-3.86,44.05,44.05,0,0,0-5.55-11.39,251.76,251.76,0,0,0-16-20.39c-5.55-7.07-9-15.57-12-23.8-2-5.43-4.17-10.9-5.42-16.88-2-11.84-2.53-25.77,6.09-35.3,7.38-8.53,23.87-13.46,34.83-9.66,11.54,4,14.35,17.67,13.6,28.5-.4,4.44-2.1,8.87-2.91,13-1.41,8-2.26,16.75-.25,24.69,1.53,5.15,4.61,10.34,7,15.3,2,3.86,5.8,11.72,7.66,15.63a139.62,139.62,0,0,1,6.24,16.42.67.67,0,0,1-1.23.53c-2.82-5.08-5.17-10.33-8.18-15.29-2.2-3.75-6.52-11.3-8.63-15.1-2.77-5.27-6-10.35-7.73-16.14-2.34-8.79-1.57-18.21-.08-27.09,1-5.37,3-10,2.79-15.39-.16-7.67-2-17.2-10.16-20-5-1.76-10.34-.94-15.52.41a26.54,26.54,0,0,0-13.62,7.62c-5.68,6.07-6.59,14.6-6.12,22.64.05,8.62,2.92,16.35,5.88,24.54s5.93,16,11,22.8c3.58,4.4,7.26,9.21,10.48,14,4.26,6,8.16,12.49,9.74,19.78a13.26,13.26,0,0,1,.62,4.64.8.8,0,0,1-.9.68.81.81,0,0,1-.69-.87Z"/></g><path class="cls-4" d="M275.91,98.83a152.6,152.6,0,0,1-26.62-68.58,8,8,0,1,1,15.8-2.09c-.22,11.79.41,23.69,3,35.46a145.83,145.83,0,0,0,11.36,33.12,2.07,2.07,0,0,1-3.55,2.09Z"/></g></svg>