<svg xmlns="http://www.w3.org/2000/svg" width="355.55" height="492.38" viewBox="0 0 355.55 492.38"><defs><style>.cls-1{isolation:isolate;}.cls-2{fill:#fff;}.cls-3{fill:#eee;}.cls-4{fill:#7a7a7a;}.cls-5{fill:#ccc;}.cls-6{fill:#929899;}.cls-7{mix-blend-mode:darken;}.cls-10,.cls-11,.cls-8{fill:#e5ae13;}.cls-11,.cls-14,.cls-15,.cls-16,.cls-9{mix-blend-mode:multiply;}.cls-9{opacity:0.3;}.cls-10,.cls-13{mix-blend-mode:screen;}.cls-12,.cls-13,.cls-14{fill:#4d8a62;}.cls-16{opacity:0.39;}.cls-17{opacity:0.3;}</style></defs><g class="cls-1"><g id="Layer_2" data-name="Layer 2"><g id="Holding_Ducks" data-name="Holding Ducks"><path class="cls-2" d="M141.81,333l2.81.13-3.45,22.21-2,7.28L138,380.84l.88,9.67,2.37,4.32,5.13,2.28,12.22,2.63,38.46,2.42,22.13-8.28,10.43-13.16,2.23-16.41-3-16.66-.64-13,14.9,7.49,15.06-.26,19.41-11.14,17.61-14.3,3.66-.09,14-9.53,3.06-21.11-5.36-11.91-10.47-2-8.76,5.44,8.44-12.71-8-7.26-3.5,7.84-7.82,6-6.44,6.77-23.75,23.92s-34.89-18.13-55.72-19.66c-6.07-1.36-22.58-1.36-39.94,2.51"/><path class="cls-2" d="M155.91,282.15c-18.6,9.52-43.69,39.79-43.69,39.79L81,310.78l-9-2.85-6.1-4.57-9.59-4.82-3.06,7.61,11.59,9.13-10.19-1.61-8.85,5.95-.31,13.06,11,18.26L73,354.29l3.41-1.35,21.79,6.32L120.44,362l14-5.62,10.81-12.7s22.19-24.76,37.08-25.92"/><path class="cls-2" d="M185.94,399.91l-8.26,75.66,2,2.89,16.17,3.06L208.06,486l8.77,2.3,8.68.59,6-2.55,4.09-5.11-.43-5.36L231,470l-7.49-5.11-9.7-1.53,4.68-31.66,2.81-24.08,1-16.85C212.45,395.78,199.94,398.5,185.94,399.91Z"/><polygon class="cls-3" points="218.58 395.1 210.91 460.8 214.37 460.23 222.28 392.5 218.58 395.1"/><path class="cls-3" d="M205.62,465.67s19.12.6,22.83,7.43,2.88,10.14,2.88,10.14l-.11,1.41,3.65-.23-.27-12.66-10.32-7.39C217,464.49,210.07,464.74,205.62,465.67Z"/><path class="cls-3" d="M186.08,399.3l-7.77,76.21,2.51,2.49,24.31,6.73,7.12,3.33,7-1.2s-14.59-7.42-25.14-8.82-11.57-2.66-11.57-2.66c-2-2.06,6-65.95,5.58-76.13Z"/><path class="cls-3" d="M146,326.65s3.36,16.05,1.28,24.6-4.91,23.37-4.91,23.37-1.84,11.22,3.06,17.59,21.92-.71,23-1.34c8-4.22,26.23-2.68,33.95-1.06,0,0,18,1.27,28.23-14.56,0,0,.61,4.7-2.3,7.79s-11.12,8.43-11.12,8.43-17.09,6.81-23.47,5.64-27.41-1.31-27.41-1.31-14.32,2.82-22.5.77-5.45-20.25-5.45-20.25l6.94-48.62"/><path class="cls-4" d="M224.36,492.37h-.15c-1.52,0-15-.51-20.21-4.46-3.13-2.37-15.14-4.29-20.27-5.11-2.25-.35-3.45-.55-4.1-.72-3.28-.88-5.3-4.23-5.52-4.61l-.4-.71,8.08-77.18a2.5,2.5,0,1,1,5,.52l-7.9,75.47a4.7,4.7,0,0,0,2.07,1.68c.43.11,2,.36,3.59.62,8.89,1.42,18.69,3.17,22.5,6.05,2.94,2.23,12,3.29,17.17,3.45,5.12-.52,9.29-3.35,10.17-6.9,1-4.09-2.62-8-4-9.44-7.39-7.89-20.33-5.87-22.85-5.38a2.5,2.5,0,1,1-1-4.91c3-.58,18.27-2.94,27.45,6.87,1.69,1.82,6.86,7.34,5.19,14.06-1.41,5.71-7.32,10-14.7,10.69Z"/><path class="cls-2" d="M179.38,399.87l-6.08,80.86L171,483.39l-16.41,1.25-12.67,3L133,489l-8.69-.38-5.72-3.2-3.49-5.53,1-5.28,4.89-5.37,8-4.24,9.81-.44-1.14-32-.51-23,.86-16.86C147.21,398.85,165.49,399.61,179.38,399.87Z"/><path class="cls-4" d="M215.47,463.85a2.06,2.06,0,0,1-.35,0A2.51,2.51,0,0,1,213,461c.08-.53,7.63-53.77,7.47-68.9a2.49,2.49,0,0,1,2.47-2.52,2.51,2.51,0,0,1,2.53,2.47c.17,15.5-7.2,67.45-7.52,69.66A2.49,2.49,0,0,1,215.47,463.85Z"/><path class="cls-3" d="M179.25,399l-6.53,81.54-2.84,2.11-25,3.12L137.32,488l-6.38-.3s15.19-7.12,25.82-7,11.83-.95,11.83-.95c2.32-1.75,7.69-70.81,9.62-80.81Z"/><path class="cls-4" d="M184.39,400.92a115.64,115.64,0,0,1-18.58-1.59,2.5,2.5,0,1,1,.89-4.92c.22,0,22.07,3.91,34.73-.94a2.5,2.5,0,0,1,1.79,4.67C197.66,400.27,190.75,400.92,184.39,400.92Z"/><path class="cls-4" d="M221.34,491.34a2.5,2.5,0,0,1-2.5-2.45c-.06-2.83-2-6.16-2.69-7.2a2.5,2.5,0,0,1,4.08-2.88c.15.2,3.51,5,3.61,10a2.5,2.5,0,0,1-2.45,2.55Z"/><path class="cls-2" d="M220,67s1.47-10.33,15.1-20.41c0,0,1,19.65,2.48,24.16s1.86,9.52,6.11,14.26,19.44,2,19.44,2,15.14-4.45,19.48-16.19a49.62,49.62,0,0,0,3.22-21.11S282.93,34,279.05,30.1,275.88,21,264.24,13.24A65.32,65.32,0,0,0,241,3.65a28.12,28.12,0,0,0-18.94,3.4c-9.58,5.59-10.39,7.59-14.45,13.64s-6,24.12-6,24.12"/><path class="cls-5" d="M276.38,79.63c-3.08,6.68-15.38,8.49-25.53,8.91s-13.79-13.77-13.79-13.77l-.38-16s-1-15.19-5.87-25.54a29.11,29.11,0,0,0-13.92-14s13-2.72,19.53,17.58c0,0,7,16.91,7.35,30.82.61,8.53,3.42,11.58,5.93,12.91s18.14,6.76,32.18-8Z"/><path class="cls-5" d="M212.81,52.91c-6.43-8.45.74-30.55,3.38-31.4,9.92,6,14.7,15.18,16.15,26.3l-10.47,12.7-7.4-4.28Z"/><path class="cls-4" d="M255.93,91.1c-5.77,0-11.66-1.52-15.82-5.72-4.83-4.87-6.15-11.92-6.78-15.32a38.07,38.07,0,0,1-.61-8v-.38c.07-6.48-.71-22.64-9.38-32.8A31,31,0,0,0,210.08,20a1.51,1.51,0,0,1-.29-.13c-6.31,9.49-6.17,20.1-5.92,23.54a2.57,2.57,0,1,1-5.13.37c-.33-4.62-.49-20.63,11.56-32.58A39.28,39.28,0,0,1,231.52.49C253.25-3,274.34,13,283.15,29.78c3,5.64,11.84,25.43,2.17,43.34-4.48,8.3-10.65,13.76-18.33,16.23A37,37,0,0,1,255.93,91.1Zm-42.8-75.45a35.66,35.66,0,0,1,14.13,9.86C236.7,36.58,238,52.94,237.87,61.7v.4a33.41,33.41,0,0,0,.53,7c.54,2.89,1.66,8.89,5.37,12.63,5.36,5.41,15,4.83,21.65,2.7,9.62-3.09,14-11.13,15.38-13.77,8.69-16.08-.31-34.9-2.2-38.51-8-15.23-26.9-29.73-46.25-26.6a34.16,34.16,0,0,0-18.42,9.27Z"/><path class="cls-4" d="M220.4,77.91h-.21a2.57,2.57,0,0,1-2.36-2.77c1-12.91,5.51-22.32,12.9-27.22.43-.28.87-.56,1.32-.81a2.57,2.57,0,0,1,2.55,4.47c-.35.2-.69.4-1,.62C226,57.25,223.6,67.68,223,75.54A2.58,2.58,0,0,1,220.4,77.91Z"/><path class="cls-4" d="M260.29,30.47a2.57,2.57,0,0,1-2.52-2.09c-3.06-16-15.53-22.5-18.46-23.24a2.57,2.57,0,0,1,1.27-5c5.85,1.49,19,10.12,22.24,27.27a2.56,2.56,0,0,1-2,3A2.09,2.09,0,0,1,260.29,30.47Z"/><path class="cls-4" d="M230.47,489.36h-.08a2.49,2.49,0,0,1-2.42-2.57c.07-2.51-2-5.4-2.74-6.31a2.5,2.5,0,1,1,3.75-3.3c.43.48,4.13,4.84,4,9.76A2.51,2.51,0,0,1,230.47,489.36Z"/><line class="cls-3" x1="150.73" y1="284.39" x2="152.52" y2="285.13"/><polygon class="cls-3" points="141.23 398.7 141.23 462.28 137.86 461.35 137.86 395.8 141.23 398.7"/><path class="cls-3" d="M145.66,467.11s-19.09-1.22-23.43,5.23-3.83,9.82-3.83,9.82l0,1.41-3.62-.57,1.47-12.58,11-6.38Z"/><path class="cls-5" d="M228,322.72S234.13,340,265.85,338c0,0-7.53,7.85-25.6,3.19S228,329.11,228,329.11Z"/><line class="cls-5" x1="142.08" y1="332.7" x2="141.62" y2="327.72"/><path class="cls-3" d="M200.43,286.79s46.21,18.63,48.63,20.42,9.58-4.59,9.58-4.59,17.07-18.46,18.76-20.81c2.91-4,8.17-12.85,7.41-11.4L272.55,280l-11.61,10.47-8.18,7.92-3.61,1.82-45.62-18Z"/><path class="cls-4" d="M131.5,492.38c-3.17,0-5.7-.2-6.31-.25l-.3,0c-7.25-1.51-12.65-6.44-13.42-12.27-.91-6.86,4.84-11.77,6.72-13.39,10.22-8.73,25.16-4.68,28.05-3.78a2.5,2.5,0,0,1-1.49,4.77c-2.45-.76-15.09-4.21-23.3,2.81-1.53,1.31-5.58,4.77-5,8.94.48,3.63,4.31,6.9,9.34,8,5.13.41,14.28.37,17.45-1.52,4.1-2.44,14-3.09,23-3.52,1.64-.07,3.2-.15,3.63-.21a4.93,4.93,0,0,0,2.32-1.52L179,399.62a2.5,2.5,0,1,1,5,.42l-7,82.27-.42.57c-.26.36-2.64,3.46-6,4-.66.1-1.87.16-4.15.27-5.18.24-17.33.82-20.71,2.82S136.23,492.38,131.5,492.38Z"/><path class="cls-4" d="M137.32,464.78a2.49,2.49,0,0,1-2.49-2.4c-.09-2.17-2-53.41-.13-68.8a2.5,2.5,0,1,1,5,.61c-1.84,15,.14,67.47.16,68a2.49,2.49,0,0,1-2.4,2.59Z"/><path class="cls-4" d="M128.44,491.45l-.33,0a2.49,2.49,0,0,1-2.15-2.81c.65-4.92,4.52-9.34,4.69-9.52a2.5,2.5,0,0,1,3.74,3.31c-.84,1-3.11,4.06-3.48,6.87A2.5,2.5,0,0,1,128.44,491.45Z"/><path class="cls-4" d="M119.59,488.47h-.21a2.5,2.5,0,0,1-2.29-2.69c.4-4.91,4.57-8.83,5-9.26a2.5,2.5,0,1,1,3.37,3.7c-.88.81-3.22,3.46-3.42,6A2.5,2.5,0,0,1,119.59,488.47Z"/><path class="cls-3" d="M165.32,346s42.7-3.27,51.81-.71C211.72,336.71,172.93,336.78,165.32,346Z"/><path class="cls-5" d="M142,355.78c1.85.34,3.35,1.71,5.24,1.85,4.14.32,7.46-4.94,11.56-6.74,7.77-3.07,12.81,5.95,7.22,13-1.6,1.89-3.85,3.13-5.14,5.28-1.66,2.74-1.25,6-1.27,9.1s-1.05,6.89-3.79,8c-3.5,1.46-6.36-2.69-9.95-2.23s-5.86,4.88-9.22,6.45"/><path class="cls-6" d="M141.66,354.21c1.84.34,3.34,1.7,5.24,1.85,4.13.31,7.46-4.95,11.55-6.74,7.78-3.08,12.82,5.94,7.23,13-1.61,1.9-3.86,3.14-5.15,5.28-1.65,2.74-1.24,6-1.27,9.11s-1,6.89-3.79,8c-3.49,1.47-6.35-2.69-9.95-2.22s-5.86,4.88-9.21,6.44"/><path class="cls-4" d="M143.25,400.18a2.49,2.49,0,0,1-1.09-.26,14,14,0,0,1-4-2.95,14.82,14.82,0,0,1-3.39-6.11c-1.29-4.33-.85-8-.46-11.3l.07-.6a52.52,52.52,0,0,0,.46-8.65,30.83,30.83,0,0,1,.59-7.34,71.81,71.81,0,0,1,2.38-9.3c.46-1.5.94-3.05,1.4-4.83a70.14,70.14,0,0,0,2-21.2A2.5,2.5,0,0,1,143.5,325a2.47,2.47,0,0,1,2.63,2.36A74.92,74.92,0,0,1,144,350.08c-.48,1.9-1,3.51-1.47,5.07a67.42,67.42,0,0,0-2.23,8.72,25.72,25.72,0,0,0-.51,6.32,57.64,57.64,0,0,1-.49,9.35l-.07.61c-.35,2.92-.71,6,.28,9.28a9.63,9.63,0,0,0,2.23,4.1,9,9,0,0,0,2.6,1.9,2.5,2.5,0,0,1-1.1,4.75Z"/><path class="cls-5" d="M231.06,382.73c-3.24,1.19-7.05,2.35-10,.5-2.18-1.37-3.15-4-4-6.43l-4.35-12.88c-1-2.86-1.94-5.89-1.4-8.86.83-4.49,5.06-7.73,9.49-8.81a66.42,66.42,0,0,1,6.93-1"/><path class="cls-6" d="M230.19,380c-3.05,1.12-6.63,2.21-9.37.47-2-1.29-3-3.76-3.73-6.05L213,362.34c-.91-2.7-1.83-5.54-1.31-8.34.78-4.21,4.75-7.26,8.92-8.27a62.35,62.35,0,0,1,7.08-1C233.47,358.47,234.19,370.18,230.19,380Z"/><path class="cls-4" d="M217.13,394.71a2.51,2.51,0,0,1-.79-4.88,20.84,20.84,0,0,0,11.07-8.05c3-4.65,3-9.51,2.92-16.23A65.6,65.6,0,0,0,228,349.67c-.6-2.38-1.09-3.89-1.57-5.35a47.65,47.65,0,0,1-1.65-6.14,56.1,56.1,0,0,1-.94-14.3,2.5,2.5,0,1,1,5,.31,51.09,51.09,0,0,0,.86,13,39.93,39.93,0,0,0,1.5,5.56c.48,1.47,1,3.14,1.66,5.68a70,70,0,0,1,2.5,17.05c.07,7,.12,13.09-3.72,19a25.83,25.83,0,0,1-13.69,10.08A2.47,2.47,0,0,1,217.13,394.71Z"/><path class="cls-4" d="M250,346.59a34.66,34.66,0,0,1-24.18-9.86,2.5,2.5,0,1,1,3.49-3.58,30.2,30.2,0,0,0,15,7.88,29.79,29.79,0,0,0,15.63-1.12,49,49,0,0,0,6.86-3.67,62.35,62.35,0,0,0,13-9.74c1.84-1.68,4.12-3.77,7.28-6.47a26.46,26.46,0,0,0,3.15-4.64,7.37,7.37,0,0,1,1.66-2.33l1.21-.95,1.42.65a2.35,2.35,0,0,1,1.07.95,3.56,3.56,0,0,1,1.77.63l.3.23.05,0c.37,0,1.85-.29,6-2.81,3.6-2.18,5.77-3.5,6.47-4.3,2.23-2.55,2.71-5.39,3.5-11.06.82-5.89,1.31-9.45-.2-13.62-.73-2-2.25-6.21-6.37-8.3-.22-.11-5.42-2.7-8.76-.47a9,9,0,0,0-3.27,4.23c-.05,2.3-1.31,3-2.06,3.2-2.27.62-3.42-1.63-3.91-2.59l-.75-1.48,1.07-1.27a29,29,0,0,0,3.46-5l.24-.38c.42-.57.82-1.09,1.18-1.56,1.88-2.45,2.65-3.49,2.71-4.48l0-.25a3.3,3.3,0,0,0-1.5-3.63,4.68,4.68,0,0,0-2.69-1.08,3.17,3.17,0,0,0-2.19.69c-.58.6-.62,1.75-.6,3.09,0,4.26-4.94,10-16.15,18.55l-.83.64c-8.05,8.67-12.53,13.48-18.1,18.12l-.09.12a5.92,5.92,0,0,1-6.71,2.53,8.7,8.7,0,0,1-3-1.31c-1.29-.88-7-2.94-11.51-4.59-1.34-.49-3.37-1.44-5.93-2.65-8-3.77-21.37-10.07-33.6-11.66a2.5,2.5,0,0,1,.64-5c13,1.69,26.83,8.2,35.09,12.09,2.45,1.16,4.38,2.07,5.49,2.47,6.75,2.45,11,4,12.63,5.17a3.76,3.76,0,0,0,1.26.56,2.2,2.2,0,0,0,.8.1c.29-.07.64-.52.88-.83a5.21,5.21,0,0,1,.72-.79c5.18-4.3,9.21-8.58,17.83-17.87a12.17,12.17,0,0,1,1.37-1.11c13.19-10.09,14.19-13.68,14.19-14.54,0-1.68-.05-4.5,2-6.62a7.85,7.85,0,0,1,5.82-2.2,9.65,9.65,0,0,1,5.53,2,8.35,8.35,0,0,1,3.55,8.43,7.63,7.63,0,0,1-.91,3,17.94,17.94,0,0,1,8.28,1.9c5.88,3,7.94,8.64,8.81,11.06,1.94,5.33,1.31,9.81.45,16-.79,5.73-1.37,9.87-4.68,13.66-1.21,1.39-3.23,2.61-7.65,5.28-5.39,3.27-8.33,4.18-10.65,3.11a3.3,3.3,0,0,1-2,.31,24.41,24.41,0,0,1-3,4.08l-.19.18c-3.15,2.7-5.44,4.78-7.27,6.45a66.85,66.85,0,0,1-13.89,10.36,49.65,49.65,0,0,1-7.67,4.05A34.23,34.23,0,0,1,250,346.59Z"/><g id="HEAD"><path class="cls-2" d="M152.91,284.63c-4.6-21.41-15.13-58.79-18.18-61.82C93.74,182.08,98.1,105.08,98.3,94.59c.63-32.05,10.52-45.55,15-50.76,21.06-24.55,52.18-23.07,67-16.6,10.51,4,20,11.15,34.82,31.24,21.72,29.53,37.66,51.2,41,84.61,3.06,30.55-6.12,53.91-12,69-15.37,39.13-28.89,59.51-44.41,72.33"/></g><path class="cls-5" d="M104.85,90.7c-.53,7.54.52,19.3.52,29.06.81,27.2,6.39,58.71,31.77,102.3-9.31-6.68-24.44-25-30.8-57-5.84-29.37-8-38-6.76-38.49l-.34-41Z"/><path class="cls-5" d="M165.21,24.83c25.59,9.27,68,72.33,95,97.29,23.45,16.24,31.86,39.41,20.91,71,0,0,22.72-9.19,6.51-59.36,0,0-17.41-7.28-39.71-16-1.62-15.82-12.72-34.23-30.46-54.46C212.91,59.15,191.27,24.34,165.21,24.83Z"/><path class="cls-4" d="M199.68,286.9a2.48,2.48,0,0,1-1.68-.65,2.61,2.61,0,0,1,.23-3.9c10.09-8.35,26.88-28.79,43.53-71.2,5.93-15.08,14.88-37.87,11.88-67.82-3.27-32.73-18.9-54-40.52-83.37-14.89-20.25-23.94-26.64-33.71-30.39l-.1-.05c-14.2-6.18-44.18-7.33-64.14,15.94-9.1,10.65-13.94,27.2-14.37,49.18-.48,24.42-.62,90.31,35.69,126.39,2.49,2.48,15.89,44.72,20.8,67.39a2.54,2.54,0,0,1-1,2.64,2.52,2.52,0,0,1-3.91-1.52c-4.55-21.19-17.2-62.73-19.44-65-37.69-37.44-37.66-105-37.17-130,.46-23.17,5.7-40.78,15.57-52.34,21.85-25.46,53.74-24.29,69.89-17.28,10.3,4,20.35,10.95,35.88,32.07,22.1,30.05,38.07,51.75,41.48,85.84,3.11,31.15-6.1,54.62-12.2,70.15-17.18,43.73-35,65-45.15,73.35A2.5,2.5,0,0,1,199.68,286.9Z"/><path class="cls-2" d="M187.1,65.58c8.18,30.14,26.45,46.22,42,47.8,10.88,1.12,20.67,3.12,20.67,3.12,8.31.06,10.16-1.36,15-.62,11.81,1.81,19.27,13.29,21.92,17.36,13.57,20.88,5.4,44.92,5,46.07-6.13,17.16-20.25,25.11-22.44,27.7-33.07,39.15-110.38-8.38-112-28.3-1-13,.67-24.67,2.61-28.48C187.18,148.29,200.07,105.55,187.1,65.58Z"/><path class="cls-2" d="M187.73,65.46c8.18,30.14,26.45,46.22,42,47.8,10.88,1.11,20.67,3.11,20.67,3.11,8.31.07,10.16-1.35,15-.61,11.81,1.81,19.27,13.29,21.92,17.35,13.57,20.89,5.4,44.93,5,46.08-6.13,17.16-20.25,25.1-22.44,27.7-33.07,39.15-108-7.51-109.58-27.43-1.05-13-1.75-25.55.19-29.36C187.81,148.16,200.7,105.43,187.73,65.46Z"/><path class="cls-5" d="M287.6,134c17,42.89-8.79,63.15-8.79,63.15,10.95-31.58,4.82-58.54-18.63-74.78Z"/><path class="cls-3" d="M237.32,220.28s-84.51,6.25-79-68.78l3.49-2.66C158.43,213.89,230.16,222.76,237.32,220.28Z"/><path class="cls-3" d="M223.82,122.91s-4.07,6-3.43,20.78,12.48,12.71,12.48,12.71,17-2.53,28.81,2.94,12.8-6.2,12.8-6.2"/><path class="cls-3" d="M164.25,146.53S181.89,174,197.67,185.6s27.63,20.59,27.63,20.59,7.33,5.5,16.46,5c13.05,0,26.32-18,26.32-18l-.59,4.91a32.28,32.28,0,0,1-1.7,3.32c-4.16,7-11.37,13-18.47,14.89-7.54,2-14.87-.48-23.32-5-11.78-6.32-37.73-17.69-53.36-47.06a100,100,0,0,1-6.9-16.34Z"/><path class="cls-4" d="M242.35,220.63c-14.81,0-32-13.6-42.83-22.19l-1.93-1.52c-16-12.6-28.75-29.07-37.83-48.95a2.5,2.5,0,1,1,4.55-2.08c8.75,19.15,21,35,36.37,47.1l1.95,1.53c11,8.7,31.41,24.88,44.85,20.31,7.33-2.5,12.67-9,15-11.75,5.8-7.06,6.06-16.49,6.18-21,0-.92,0-1.59.1-2.12-1.2-11.65-3.09-18.8-6.85-30.33-2.65-8.14-5.39-16.55-12.5-23.77a26.1,26.1,0,0,0-11-6.88l-.72-.25a61,61,0,0,0-8.42-2.81c-9.79,1.51-28.38-3.06-44.49-49.49a2.5,2.5,0,1,1,4.72-1.63c15.6,44.93,32.6,47.24,39.18,46.15.72-.12,1.82-.3,10.78,3.1l.54.19a30.91,30.91,0,0,1,13,8.12c7.93,8,10.86,17,13.69,25.72,3.91,12,5.86,19.39,7.1,31.66l0,.33-.06.33c0,.25-.06,1.08-.08,1.82-.13,4.69-.43,15.69-7.31,24.05-2.34,2.85-8.53,10.37-17.21,13.32A20.72,20.72,0,0,1,242.35,220.63ZM229.13,115.87Z"/><path class="cls-4" d="M150.53,154.87a2.5,2.5,0,0,1-.46-5c11.56-2.17,13.81-11.2,13.91-11.59a2.5,2.5,0,0,1,4.87,1.11c-.11.51-3,12.6-17.86,15.39A2.4,2.4,0,0,1,150.53,154.87Z"/><path class="cls-6" d="M118.48,77c10.25-19.24,35.4-27.92,50.68-15.52,3.71,2.83,5.94,6.43,10.25,13.5,3.52,5.79,6.33,10.45,9,17.33,2.16,5.68,3.42,9.07,3.45,13.94-.18,9.37-2.12,17.08-16.4,23.56-25.92,12.75-56.13,7.47-60.65-28.18C114.22,97.38,113.06,87.35,118.48,77Z"/><path class="cls-2" d="M150.46,119.69c-15.27-3.79-24.83-31.26-9.61-46.21,9.35-8.65,20.36-5.92,27.57,3.1,5.78,6.63,6.51,14.18,7,19.12.64,6.59,1.22,12.62-2.72,17.45s-10.53,6-13.4,6.48A21.94,21.94,0,0,1,150.46,119.69Z"/><path class="cls-4" d="M154.41,122.62a19.79,19.79,0,0,1-4.52-.5h0c-8.08-2-15.13-10-18-20.29-3.11-11.39-.42-22.65,7.19-30.12,4.64-4.3,9.93-6.33,15.35-5.92,5.84.44,11.49,3.7,15.89,9.2,6.27,7.22,7.07,15.52,7.55,20.48.65,6.71,1.32,13.64-3.27,19.27s-11.83,6.84-14.92,7.37A30.61,30.61,0,0,1,154.41,122.62Zm-3.36-5.36a19.74,19.74,0,0,0,7.81-.09c2.76-.47,8.49-1.44,11.89-5.6s2.77-9.41,2.17-15.63c-.45-4.65-1.13-11.69-6.38-17.72l-.07-.08c-3.53-4.42-7.94-7-12.4-7.37-4-.3-8,1.27-11.52,4.55-6.25,6.13-8.44,15.57-5.81,25.18C139.09,109.1,144.7,115.67,151.05,117.26Z"/><path class="cls-2" d="M193.87,66.73c2.72-6,10.1-12.48,20.94-8.65,4,1.65,6.06,4.53,8.89,8.48a41.25,41.25,0,0,1,5.82,12.27c1.7,5.83,3,10.39,1.25,15.67-.43,1.27-2.33,6.62-7.63,9.41C207.82,112.88,186.91,82.82,193.87,66.73Z"/><path class="cls-4" d="M217.17,108c-4.45,0-9.19-2-13.69-6-9.59-8.49-16.63-25-11.82-36.15l0,0c3.46-7.63,12.43-14,23.93-9.93l.11,0c4.66,1.92,7,5.18,9.94,9.31a43.87,43.87,0,0,1,6.17,13c1.74,6,3.25,11.11,1.22,17.11A18.89,18.89,0,0,1,224.31,106,14,14,0,0,1,217.17,108ZM196.08,67.71c-3.9,9.06,2.45,23.4,10.6,30.61,3.16,2.8,9.34,7,15.25,3.51l.09,0a14.14,14.14,0,0,0,6.46-8c1.54-4.57.36-8.62-1.28-14.22A39.08,39.08,0,0,0,221.74,68c-2.68-3.75-4.46-6.23-7.8-7.63C204.07,56.88,198.08,63.33,196.08,67.71Z"/><path d="M149.49,118.68c-11.88-3-19.32-24.32-7.48-36a14.62,14.62,0,0,1,9.69-4.1c6.12,0,10.14,4.64,11.77,6.51,4.49,5.16,5.06,11,5.43,14.88.5,5.13.95,9.82-2.12,13.58s-8.2,4.67-10.42,5A17.18,17.18,0,0,1,149.49,118.68Z"/><path class="cls-4" d="M232.29,225.31c-9.4,0-17.23-2.36-25.44-4.83-14.13-4.25-30.14-9.06-41.14-24.16-12.66-17.39-10.76-38.41-9.35-46.65l4.93.85c-1.3,7.6-3.08,27,8.47,42.86,10,13.73,25.15,18.29,38.52,22.31,10,3,18.63,5.6,30.14,4.25,19.94-2.33,38.62-15.62,47.58-33.85,5.78-11.75,7.56-24.17,5.16-35.93-2.57-12.55-8.37-20.09-12.79-24.2-2.29-2.14-7.06-6.58-14.05-7.61-1.84-.28-6.11,0-10.62.21-8.93.49-20,1.1-27.2-1-16.43-4.51-36.23-20.7-42.41-52.56l4.91-1c5.74,29.62,23.84,44.58,38.86,48.7,6.38,1.84,17.47,1.23,25.56.78,5.19-.28,9.3-.51,11.64-.15,8.52,1.25,14.27,6.6,16.72,8.89,5,4.61,11.44,13,14.28,26.86,2.63,12.85.7,26.38-5.57,39.14-9.7,19.71-29.9,34.08-51.48,36.61A58.52,58.52,0,0,1,232.29,225.31Z"/><path class="cls-2" d="M147.28,83.94c-.07,1.85.81,3.26,1.9,4.74,5.87,8,12.51,11.14,14.43,10.59,5.5-1.59,3.87-6.77,1.49-10.71-.67-1.21-3.93-6.81-10.36-8.87C150.08,77.84,147.54,80.3,147.28,83.94Z"/><path class="cls-4" d="M153.76,120.92a16.07,16.07,0,0,1-4.72-.35h0c-6.29-1.56-11.77-7.75-14-15.79-2.42-8.86-.33-17.62,5.59-23.44,3.47-3.13,7.18-4.67,11.06-4.66,7,0,11.52,5.22,13.22,7.18,4.91,5.64,5.53,12.11,5.91,16,.5,5.21,1,10.61-2.55,15s-9.2,5.33-11.61,5.73A24,24,0,0,1,153.76,120.92ZM150,116.79a15.5,15.5,0,0,0,6.08-.07c2.14-.37,6.6-1.12,9.25-4.36S167.43,105,167,100.2c-.35-3.62-.87-9.1-5-13.79-1.52-1.75-5.07-5.83-10.3-5.85a12.41,12.41,0,0,0-8.39,3.61c-4.84,4.75-6.54,12.1-4.5,19.58C140.64,110.44,145,115.55,150,116.79Z"/><path d="M195.54,74.71a13.47,13.47,0,0,1,6.36-6.56,13.22,13.22,0,0,1,10.15-.26c3.16,1.3,4.78,3.56,7,6.68a32.51,32.51,0,0,1,4.58,9.68c1.35,4.59,2.4,8.18,1,12.35a13.17,13.17,0,0,1-6,7.42,12.76,12.76,0,0,1-5.34,1.32C203.56,105.28,190.46,86,195.54,74.71Z"/><path d="M222.1,123.21c5.07-15.46,18.31-22.91,19.21-23.4,13.15-7.15,25.68-4.4,30-3.46,4.67,1,10.39,2.37,15.31,7.38a24,24,0,0,1,6.66,13.39c.72,5.44-.81,9.43-2.81,14.68-2.72,7.1-6.13,11.11-12.14,18.17-4.26,5-6.84,7.07-9.95,7.12a9.6,9.6,0,0,1-4.88-1.56c-10.51-5.55-25.61-5.18-30-5.08-2.81.07-5.2.32-7.58-1.22-.62-.39-3.34-2.26-4.82-8.56A32.83,32.83,0,0,1,222.1,123.21Z"/><path class="cls-2" d="M202.41,72.53c-.07,1.84.82,3.25,1.9,4.74,5.87,8,12.51,11.14,14.43,10.59,5.51-1.59,3.87-6.78,1.49-10.72-.66-1.2-3.92-6.8-10.35-8.86C205.22,66.43,202.68,68.89,202.41,72.53Z"/><path class="cls-4" d="M214,107.22l-.77,0c-6.16,0-12.15-5.95-15.69-11.47-3.87-6-6.89-14.92-3.77-21.84h0a15.38,15.38,0,0,1,7.28-7.5,15,15,0,0,1,11.68-.3c3.67,1.51,5.51,4.08,7.83,7.34a34.63,34.63,0,0,1,4.87,10.25c1.37,4.7,2.56,8.76,1,13.49a14.91,14.91,0,0,1-6.92,8.49A15.12,15.12,0,0,1,214,107.22ZM197.28,75.49c-2.49,5.53.17,13,3.5,18.22,3.72,5.8,8.75,9.7,12.51,9.73A10,10,0,0,0,222.83,96c1.21-3.6.28-6.79-1-11.2a30.81,30.81,0,0,0-4.31-9.11c-2.12-3-3.53-4.94-6.19-6a11.31,11.31,0,0,0-8.61.23,11.51,11.51,0,0,0-5.43,5.62Z"/><path class="cls-2" d="M155.19,100.36c-1.42.17-3.39-1.44-3.65-3.09-.07-.44,0-.8-.28-1-.43-.33-1.44,0-1.92.59-.94,1.15-.08,3.55,1.13,5a5.54,5.54,0,0,0,3.75,1.93,3.65,3.65,0,0,0,2.84-.86,2.31,2.31,0,0,0,.72-2,1.5,1.5,0,0,0-.83-1C156.32,99.66,156,100.27,155.19,100.36Z"/><path class="cls-2" d="M210.33,89c-1.43.17-3.39-1.45-3.65-3.09-.08-.44,0-.81-.28-1-.44-.32-1.45,0-1.93.59-.93,1.15-.07,3.56,1.13,5a5.52,5.52,0,0,0,3.75,1.94,3.64,3.64,0,0,0,2.84-.87,2.31,2.31,0,0,0,.73-2,1.54,1.54,0,0,0-.83-1C211.45,88.24,211.13,88.86,210.33,89Z"/><path d="M129.12,62.69c3.49-9.83,18.21-16.07,27-9.48a.59.59,0,0,1-.15,1c-9,3.87-16.29,8.44-26.24,9.27A.61.61,0,0,1,129.12,62.69Z"/><path d="M184.21,50.37c3.93-11.65,22.95-14.49,28.9-3a.62.62,0,0,1-.45.89c-4.77,1-9.25,1.16-13.89,1.47s-8.77.91-13.88,1.43a.6.6,0,0,1-.68-.74Z"/><path class="cls-3" d="M221,237.27c-1.47,9.75-23.42,10.71-23-1C204.8,240.08,212.33,240.93,221,237.27Z"/><path class="cls-4" d="M208.2,241.15c-7.48,0-10.46-4.32-10.64-4.58a2,2,0,0,1,3.39-2.28c.22.3,4.66,6.12,18.09,0a2,2,0,1,1,1.7,3.71A30.29,30.29,0,0,1,208.2,241.15Z"/><path class="cls-2" d="M114.27,56.93S108,40.44,102.62,35.78s-6.59-6.34-17-9.19A27.35,27.35,0,0,0,67,28.12,63.38,63.38,0,0,0,47.6,42.93c-9,10.17-7,14.93-9.71,19.53s-1.4,20.17-1.4,20.17a48.23,48.23,0,0,0,8.3,19C51.8,111.6,67.13,112,67.13,112s14.93-1.27,17.74-6.78S86.79,94.89,87,90.29,83.34,67,83.34,67c15.32,6.06,19.28,15.39,19.28,15.39"/><path class="cls-6" d="M35.52,64.68a21.18,21.18,0,0,0,8.15,8.14c2.1,1.54,1.88,5.63,3,7.6a8.42,8.42,0,0,0,6.36,4.19c1.86.16,3.74-.48,5.59-.19,2.06.32,3.76,1.74,5.69,2.5a9.46,9.46,0,0,0,12.86-9c-.11-3.51-2.16-6.65-3-10.07-1.56-6.47,1.22-13.85-2-19.65S60.12,40.25,58.5,33.25C48.9,38.82,41.32,49.5,35.52,64.68Z"/><g class="cls-7"><path class="cls-3" d="M47.32,45.54s-17.53,54.1,22.13,64.65a13,13,0,0,1-3.13,1.32c-9.83,2.64-22.67-7.2-28.41-17.81C28,75.4,39.38,55.07,40.59,53a44.12,44.12,0,0,1,5.3-7.28Z"/></g><path class="cls-5" d="M106.28,89.2S95.36,70.12,84.41,67.09c-.41-.11,0-.18,0-.18l3.31-19C101.62,52.15,107.2,80.56,106.28,89.2Z"/><path class="cls-5" d="M84.83,47.62s-7.46,4.66-6,18.57c1.34,11.52,4.46,26.31,4.29,28.6-.34,4.52-1,9-3.62,12.25-2.76,3.44,4-1.91,4-1.91l4.15-10.22L84.86,70.15Z"/><path class="cls-4" d="M65.77,115.13c-.59,0-1.18,0-1.75,0-7.83-.4-15-4-21.27-10.65C29.2,90,32.6,69.22,34,63.19c4.07-18,19.89-38.28,41.16-40.41a38.35,38.35,0,0,1,22.61,4.75c14.3,8.22,18.15,23.29,19,27.71a2.5,2.5,0,0,1-4.92.93c-.62-3.29-3.13-13.29-11.43-20.62l-.24.19A30.35,30.35,0,0,0,89.89,47.37c-5.59,11.71-2.29,27.08-.61,33.15l.1.35a37.74,37.74,0,0,1,1.43,7.7c.26,3.35.78,10.3-2.54,16.07C83.79,112.44,73.74,115.13,65.77,115.13ZM78.9,27.6c-1.26,0-2.36.07-3.27.16C56.68,29.65,42.53,48,38.84,64.29,38,68.15,34.22,88.07,46.4,101c2,2.13,8.08,8.59,17.88,9.09,6.77.34,16-1.52,19.66-7.94C86.49,97.71,86,91.79,85.83,89a32.84,32.84,0,0,0-1.26-6.73l-.11-.37c-2.27-8.21-5.18-23.88.92-36.64A34.6,34.6,0,0,1,96.19,32.43l-1-.57A32.78,32.78,0,0,0,78.9,27.6Z"/><path class="cls-4" d="M104.28,92.79a2.5,2.5,0,0,1-2.36-1.66C99.36,83.9,94.53,74.7,86.11,71.85q-.54-.18-1.11-.33a2.5,2.5,0,0,1,1.27-4.84c.49.13,1,.27,1.45.43,8.16,2.76,14.7,10.49,18.91,22.34a2.51,2.51,0,0,1-1.52,3.2A2.68,2.68,0,0,1,104.28,92.79Z"/><path class="cls-4" d="M55,58.21a2.51,2.51,0,0,1-2.49-2.32c-1.21-16.93,9-28.3,14.08-31.16A2.5,2.5,0,1,1,69,29.09c-2.56,1.43-12.66,10.63-11.53,26.44a2.5,2.5,0,0,1-2.31,2.67Z"/><path class="cls-2" d="M244.42,113h30.64c3.39,0,3-4.07,0-6.25,0,0-3.84-3.71-14.21-4-10.48,0-14.74,2.39-16.43,3.62C241.32,108.75,240.52,113,244.42,113Z"/><path class="cls-2" d="M258.79,117.89H249.6c-1,0-.76,1.22,0,1.88,0,0,1.15,1.19,4.26,1.19a10.22,10.22,0,0,0,4.93-1.09C259.67,119.22,260,117.89,258.79,117.89Z"/><path class="cls-4" d="M283,295.4a2.5,2.5,0,0,1-.68-4.91c.23-.07,6.11-1.88,6.75-7.7.37-3.28,0-3.76-.37-4.23a6.22,6.22,0,0,1-1.36-2.9,2.5,2.5,0,1,1,4.91-.93,1.32,1.32,0,0,0,.4.76c1.31,1.69,1.89,3.37,1.39,7.85-1,9.2-10,11.85-10.35,12A2.35,2.35,0,0,1,283,295.4Z"/><path class="cls-5" d="M141.14,327.38s-2.51,23.41-30.76,34.34c0,0,9.51,4.16,23.4-7.36S140.5,342,140.5,342C141.36,339.07,141.48,334.57,141.14,327.38Z"/><path class="cls-3" d="M151.63,285.89s-37,38.24-38.41,40.85-10-.36-10-.36S81.36,316.33,79,314.85c-4-2.53-12-8.48-10.75-7.47l14.28,3.89,14,4.92,10.09,4,3.83.22,40-39.11Z"/><path class="cls-4" d="M115.5,366a62.85,62.85,0,0,1-7.13-.67,60.38,60.38,0,0,1-16-3.92c-2.23-.8-5-1.79-8.76-3l-.25-.09a23.11,23.11,0,0,1-4.08-2.49,3.08,3.08,0,0,1-1.81.51c-1.62,1.91-4.53,2.25-10.5,1.42-4.87-.68-7.09-1-8.68-1.78-4.33-2.15-6.4-5.71-9.27-10.63-3.09-5.32-5.33-9.16-5.67-14.78-.16-2.54-.53-8.5,3.41-13.55a17.15,17.15,0,0,1,6.61-5.14,7.51,7.51,0,0,1-2.08-2.5,8.43,8.43,0,0,1-.13-9,9.29,9.29,0,0,1,4.05-4.07,7.38,7.38,0,0,1,6-.33c2.62,1.12,3.67,3.7,4.29,5.25.32.79,2.55,3.68,17.79,7.61a12,12,0,0,1,1.64.48c11,5,16.1,7.35,22.22,9.2a4.94,4.94,0,0,1,1,.45c.27.15.76.43,1,.39a1.8,1.8,0,0,0,.56-.36,3.66,3.66,0,0,0,.91-1c1-1.75,4.08-4.87,9-9.82.81-.81,2.14-2.43,3.83-4.47,5.67-6.88,15.18-18.39,25.82-25.17a2.43,2.43,0,1,1,2.61,4.1c-10,6.37-19.19,17.51-24.68,24.17-1.77,2.14-3.16,3.83-4.13,4.8-3.32,3.35-7.46,7.51-8.23,8.83a8.73,8.73,0,0,1-2.06,2.38,6.39,6.39,0,0,1-2.74,1.36,6.21,6.21,0,0,1-4.24-.95l-.11-.07c-6.61-2-12.31-4.63-22.57-9.33l-1-.25c-13-3.35-19.5-6.59-21.08-10.5-.48-1.19-1-2.29-1.69-2.59a2.65,2.65,0,0,0-2,.24,4.53,4.53,0,0,0-1.9,2,3.65,3.65,0,0,0,.07,4.12l.11.21c.44.88,1.38,1.46,4.05,3l1.62.95.37.26a26.8,26.8,0,0,0,4.89,3.22l1.39.72-.08,1.57c-.06,1.06-.19,3.54-2.44,3.88-.76.12-2.19,0-3.1-2.1a8.26,8.26,0,0,0-4.41-2.56c-3.63-.68-7.13,3.74-7.28,3.93-2.81,3.6-2.53,8.1-2.4,10.26.28,4.47,2.07,7.54,5,12.63,2.84,4.88,4.33,7.29,7.22,8.72.89.45,3.26.78,7.19,1.32,4.45.63,5.83.31,6.17.18l0-.05.18-.33a3.38,3.38,0,0,1,1.3-1.3,2.36,2.36,0,0,1,.62-1.35l1-1.11,1.47.38a7.17,7.17,0,0,1,2.36,1.49,25.6,25.6,0,0,0,4.46,3c3.77,1.21,6.54,2.2,8.77,3a56.37,56.37,0,0,0,15,3.67,43.22,43.22,0,0,0,7.3.61,26.92,26.92,0,0,0,13.9-5.23,30,30,0,0,0,10-13.25,2.44,2.44,0,1,1,4.55,1.75,34.6,34.6,0,0,1-11.65,15.42,31.93,31.93,0,0,1-16.46,6.16C116.23,366,115.87,366,115.5,366Zm-9.76-42.77h0Z"/><path class="cls-4" d="M77.17,329.75a13.33,13.33,0,0,1-12.08-6.9c-2.31-4.22-2.18-5.89-1.77-7.62a1.66,1.66,0,0,0,.06-1,2.43,2.43,0,0,1,4.75-1,6.45,6.45,0,0,1-.07,3.11c-.15.61-.3,1.24,1.29,4.16,2.8,5.11,8.61,4.33,8.67,4.33a2.43,2.43,0,1,1,.69,4.81A11.91,11.91,0,0,1,77.17,329.75Z"/><path class="cls-4" d="M65.11,356.94a26.36,26.36,0,0,1-4.51-.41l-.22,0c-4.49-1.21-9.84-7.66-13.32-16.06-3.86-9.3-2.49-16.75-2.43-17.07,1.21-6.42,6.77-9.82,11.74-10.34,4.64-.49,8.6,1.51,10.08,5.07l10.28,24.79a10.71,10.71,0,0,1-1.6,10C73.56,354.86,70.6,356.94,65.11,356.94Zm-3.56-5.18c3.36.55,7.73.66,9.77-1.9a5.88,5.88,0,0,0,.92-5.12L62,320c-.78-1.86-3.14-2.31-5.08-2.1-3.18.33-6.72,2.44-7.47,6.41a27.85,27.85,0,0,0,2.14,14.29C54.85,346.51,59.42,351.09,61.55,351.76Z"/><path class="cls-4" d="M48.25,337.48A2.43,2.43,0,0,1,47,333l17.39-10.84a2.43,2.43,0,0,1,2.58,4.12l-17.4,10.85A2.44,2.44,0,0,1,48.25,337.48Z"/><path class="cls-4" d="M54.49,349.55a2.43,2.43,0,0,1-1.31-4.48L69,334.94a2.43,2.43,0,1,1,2.62,4.1L55.8,349.17A2.4,2.4,0,0,1,54.49,349.55Z"/><g id="tlo"><path class="cls-2" d="M87.6,340.79c-.4,1.31-6.09,22.71-7.5,25.29,9.58,8.39,50.68,49.66,1.64,40.74,0,0-22.71,25.75-11.7,67.43,0,0-16.63-13.35-20.14-24.35,0,0-24.58-5.27-24-43.08,0,0-3.86,12.41-3.86,15.22v10.18s-4.1-.7-5.62.7-5.39-.46-5.39-.46a6.22,6.22,0,0,0-4.44-2,3.13,3.13,0,0,1-3.17-2.35s-1.87-3-3.16-1.52S2,413,18.17,405.3L24,402.14s-2.87-31.91,28.39-52.8c0,0,8.43-9,10.89-16.33,0,0-6.5-31.09,6.84-42,0,0,9.35-4.2,22.31-1.06,0,0,13,2.64,13,18.09S92.28,332,92.28,332A28.93,28.93,0,0,0,87.6,340.79Z"/></g><path d="M45,413.73c-.45,24.4,21.59,63.5,25.09,60.52-11-41.68,11.7-67.43,11.7-67.43Z"/><path class="cls-8" d="M25.9,406.82S22,419.23,22,422v10.18s-4.1-.7-5.62.7-5.39-.46-5.39-.46a6.22,6.22,0,0,0-4.44-2,3.13,3.13,0,0,1-3.17-2.35s-1.87-3-3.16-1.52S2,413,18.17,405.3L24,402.14"/><path class="cls-8" d="M67.73,293.36,69,240.46s24,5.62,28.44,51.5"/><path class="cls-10" d="M84.1,252C91.8,261.77,96,276.6,97.46,292l-4,.19A87.34,87.34,0,0,0,84.1,252Z"/><path class="cls-11" d="M82.07,292.68l-14.34.68L69,240.76C77.1,259.07,81.17,286.11,82.07,292.68Z"/><path class="cls-12" d="M94.56,290.61s14.55,3.88,13.5,21.47S91.5,338.36,91.5,338.36a33.13,33.13,0,0,0-5.92,9.74l-27-10.51s-5.24-35.81,10.63-47.3l25.36.32s14.55,3.88,13.5,21.47S91.5,338.36,91.5,338.36"/><path class="cls-2" d="M82.73,316.1c-7-.42-12.31-5.53-12-11.41C72.26,290.6,96.18,292,96,306.2,95.62,312.09,89.69,316.52,82.73,316.1Z"/><ellipse cx="84.1" cy="304.8" rx="3.53" ry="5.02" transform="translate(-225.19 370.5) rotate(-86.57)"/><path class="cls-13" d="M83,347.11l6-11.2s19-10.69,17-35.42a22.82,22.82,0,0,1,2,11.59C107,329.67,91.5,338.36,91.5,338.36a33.13,33.13,0,0,0-5.92,9.74Z"/><path class="cls-14" d="M63,339.32l-4.44-1.73s-5.24-35.81,10.63-47.3h.66C59,308.56,62.72,337.21,63,339.32Z"/><path d="M81.74,406.8c9.61,11.17-4.33,39.31,1.4,70.22,1.21-4,55.71-71.29-3-110.94,33.4,34.73,7.75,76.1,4.77,92.95C82.27,440.5,93.13,412.2,81.74,406.8Z"/><path d="M60.64,338.55c-.59,1-1.22,1.94-1.86,2.86a77.14,77.14,0,0,1-6.36,7.93C63.92,358,69,360.14,80.1,366.08c.67-1.23,4-12.76,5.58-18.34"/><g class="cls-15"><path class="cls-8" d="M18.29,423.15c-.06.17-1.37,9.43-1.37,9.43l-2.2.86Z"/></g><g class="cls-15"><path class="cls-8" d="M14.72,422l-4.49,9.7a5.25,5.25,0,0,0-1.81-1C7.51,430.52,14.72,422,14.72,422Z"/></g><g class="cls-15"><path class="cls-8" d="M4.38,429.32s-.54-1.14-.89-1.3,7.87-10.48,7.87-10.48Z"/></g><path class="cls-2" d="M80.1,366.08C113.8,399,88.16,440.63,84.87,459c-3.26-13.83,7.52-43.67-3.13-52.23"/><g class="cls-16"><path d="M45,413.72C63,407.81,110,358.44,84.87,459c-5.43-16,9-39.88-3.13-52.21C74.68,410.91,60,412,45,413.72Z"/></g><path d="M85.15,295c2.55,6.06,3,14.92.79,21.14C98.11,316.29,101.6,296.53,85.15,295Z"/><g id="tlo-2" data-name="tlo"><path class="cls-2" d="M277.16,310.58c.36,1.17,5.45,20.33,6.7,22.63-8.57,7.52-45.34,44.45-1.46,36.46,0,0,20.32,23.05,10.48,60.35,0,0,14.87-11.94,18-21.79,0,0,22-4.72,21.47-38.56,0,0,3.46,11.11,3.46,13.62v9.12s3.67-.63,5,.63,4.82-.42,4.82-.42a5.56,5.56,0,0,1,4-1.78,2.79,2.79,0,0,0,2.83-2.1s1.67-2.72,2.83-1.36-1.57-12.15-16-19.07l-5.24-2.83s2.57-28.55-25.41-47.25c0,0-7.54-8-9.74-14.61,0,0,5.81-27.82-6.13-37.56,0,0-8.36-3.75-20-.94,0,0-11.63,2.35-11.63,16.18S273,302.67,273,302.67A25.94,25.94,0,0,1,277.16,310.58Z"/></g><path d="M315.32,375.86c.41,21.83-19.31,56.83-22.44,54.16,9.84-37.3-10.48-60.35-10.48-60.35Z"/><path class="cls-8" d="M332.37,369.67s3.46,11.11,3.46,13.62v9.12s3.67-.63,5,.63,4.82-.42,4.82-.42a5.56,5.56,0,0,1,4-1.78,2.79,2.79,0,0,0,2.83-2.1s1.67-2.72,2.83-1.36-1.57-12.15-16-19.07l-5.24-2.83"/><path class="cls-8" d="M294.94,268.14l-1.16-47.35s-21.47,5-25.45,46.09"/><path class="cls-10" d="M280.29,231.14c-6.89,8.72-10.63,22-12,35.74l3.63.17A78.19,78.19,0,0,1,280.29,231.14Z"/><path class="cls-11" d="M282.11,267.53l12.83.61-1.15-47.07C286.55,237.45,282.92,261.65,282.11,267.53Z"/><path class="cls-12" d="M270.93,265.68s-13,3.47-12.08,19.21,14.82,23.52,14.82,23.52a29.62,29.62,0,0,1,5.29,8.72l24.18-9.41s4.69-32.05-9.52-42.33l-22.69.29s-13,3.47-12.08,19.21,14.82,23.52,14.82,23.52"/><path class="cls-2" d="M281.51,288.49c6.23-.37,11-4.95,10.71-10.21-1.34-12.61-22.74-11.33-22.56,1.35C270,284.9,275.28,288.86,281.51,288.49Z"/><ellipse cx="280.29" cy="278.37" rx="4.5" ry="3.16" transform="translate(-16.16 17.28) rotate(-3.43)"/><path class="cls-13" d="M281.26,316.24l-5.36-10s-17-9.57-15.22-31.71a20.54,20.54,0,0,0-1.83,10.38c.94,15.74,14.82,23.52,14.82,23.52a29.62,29.62,0,0,1,5.29,8.72Z"/><path class="cls-14" d="M299.16,309.27l4-1.55s4.69-32.05-9.52-42.33H293C302.78,281.74,299.43,307.38,299.16,309.27Z"/><path d="M282.4,369.66c-8.59,10,3.88,35.17-1.25,62.84-1.08-3.55-49.86-63.8,2.71-99.29-29.88,31.09-6.92,68.11-4.26,83.19C281.93,399.82,272.21,374.49,282.4,369.66Z"/><path d="M301.29,308.58c.52.88,1.09,1.74,1.66,2.56a69.61,69.61,0,0,0,5.69,7.09c-10.29,7.78-14.85,9.67-24.78,15-.6-1.1-3.57-11.42-5-16.41"/><g class="cls-15"><path class="cls-8" d="M339.18,384.29c.06.16,1.23,8.44,1.23,8.44l2,.77Z"/></g><g class="cls-15"><path class="cls-8" d="M342.38,383.29l4,8.68a4.84,4.84,0,0,1,1.62-.88C348.83,390.88,342.38,383.29,342.38,383.29Z"/></g><g class="cls-15"><path class="cls-8" d="M351.63,389.82s.48-1,.8-1.17-7-9.38-7-9.38Z"/></g><path class="cls-2" d="M283.86,333.21c-30.15,29.49-7.2,66.73-4.26,83.19,2.92-12.38-6.73-39.08,2.8-46.74"/><g class="cls-16"><path d="M315.32,375.86c-16.16-5.3-58.24-49.48-35.72,40.54,4.86-14.31-8.08-35.69,2.8-46.73C288.72,373.34,301.84,374.31,315.32,375.86Z"/></g><path d="M279.35,269.59a29.09,29.09,0,0,0-.71,18.92C267.75,288.65,264.63,271,279.35,269.59Z"/><path class="cls-17" d="M319.85,327.8c5.9,15.44,15.39,45.3,4.77,60.55-18.23,20.8-17.62,23.45-18.23,28.3a38.72,38.72,0,0,0,4.51-8.42s21.91-3.52,21.38-38.38l1.72-4.31S335.53,345.66,319.85,327.8Z"/><path class="cls-11" d="M335,366.06l-.37.92c12.38,6.46,16.66,16.3,18.1,21.41.35-.52,1.69-2.29,2.64-1.16,1.1,1.31-1.46-11.7-15.34-18.42Z"/><path class="cls-2" d="M293.39,279.34v27.07c0,3,4.26,12.08,17.2,3.74C313.31,308,316,301,316,291.77c0-9.53-4.08-15.32-4.08-15.32C306.67,268.88,293.39,272.45,293.39,279.34Z"/><path class="cls-4" d="M301.15,316.08a10.1,10.1,0,0,1-4.95-1.22,10.47,10.47,0,0,1-5.31-8.45V279.34c0-3.94,3.05-7.44,7.77-8.92,5-1.56,11.62-.74,15.34,4.6.18.25,4.53,6.54,4.53,16.75,0,9-2.63,17.4-6.4,20.35l-.19.13C307.5,315.12,303.93,316.08,301.15,316.08Zm2.14-41.37a10.4,10.4,0,0,0-3.13.48c-2,.61-4.27,2.07-4.27,4.15v27.07a5.49,5.49,0,0,0,2.7,4.06c2.42,1.32,6.06.51,10.53-2.35,1.86-1.56,4.41-7.57,4.41-16.35a26.3,26.3,0,0,0-3.63-13.89A7.81,7.81,0,0,0,303.29,274.71Z"/><path class="cls-4" d="M315.27,289.76l-.3,0-21.19-2.55a2.5,2.5,0,1,1,.59-5l21.2,2.56a2.5,2.5,0,0,1-.3,5Z"/><path class="cls-4" d="M314.08,303.46l-.33,0-19.41-2.55a2.5,2.5,0,0,1,.66-5l19.4,2.55a2.5,2.5,0,0,1-.32,5Z"/><path class="cls-2" d="M65.21,318.6l9.72,25.25c1.07,2.78.37,12.81-14.7,9.67-3.3-1-8.38-6.62-11.68-15.2-3.43-8.89-1.69-15.76-1.69-15.76C49.06,313.59,62.73,312.16,65.21,318.6Z"/><path class="cls-4" d="M65.47,356.62a28.48,28.48,0,0,1-5.75-.65l-.22-.05c-4.58-1.4-10-8.27-13.29-16.7-3.66-9.53-1.86-17-1.78-17.27,1.55-6.31,7.48-9.47,12.66-9.79,4.94-.31,9,1.86,10.45,5.54L77.26,343a10.45,10.45,0,0,1-1.91,9.79C73.73,354.66,70.78,356.62,65.47,356.62Zm-4.6-5.52c5.2,1.06,8.89.52,10.67-1.58a5.5,5.5,0,0,0,1.06-4.77l-9.72-25.26c-.75-1.94-3.41-2.48-5.48-2.34-3.35.21-7.17,2.15-8.12,6a26.33,26.33,0,0,0,1.6,14.27C54,345.62,58.58,350.32,60.87,351.1Z"/><path class="cls-4" d="M47.64,336.34a2.5,2.5,0,0,1-1.17-4.71l18.86-10a2.5,2.5,0,1,1,2.34,4.41l-18.86,10A2.44,2.44,0,0,1,47.64,336.34Z"/><path class="cls-4" d="M53.68,348.7a2.5,2.5,0,0,1-1.2-4.7l17.19-9.35A2.5,2.5,0,1,1,72.06,339l-17.19,9.35A2.46,2.46,0,0,1,53.68,348.7Z"/><path class="cls-17" d="M39.89,360c-6.58,17.25-17.2,50.61-5.32,67.66,20.37,23.24,19.69,26.19,20.37,31.61a42.57,42.57,0,0,1-5-9.4S25.41,446,26,407l-1.93-4.83S22.37,380,39.89,360Z"/><path class="cls-11" d="M23,402.78l.41,1C9.59,411,4.81,422,3.2,427.73c-.4-.58-1.89-2.56-2.95-1.3C-1,427.9,1.88,413.36,17.39,405.85Z"/></g></g></g></svg>