<svg xmlns="http://www.w3.org/2000/svg" width="277.94" height="500.68" viewBox="0 0 277.94 500.68"><defs><style>.cls-1{isolation:isolate;}.cls-2{fill:#8e6131;}.cls-3,.cls-4{fill:#c79a54;}.cls-4{mix-blend-mode:multiply;}.cls-5{fill:#eee;}.cls-10,.cls-14,.cls-16,.cls-6{fill:#fff;}.cls-7{fill:#7a7a7a;}.cls-8{fill:#ccc;}.cls-9{fill:#b2b2b2;}.cls-10,.cls-11,.cls-14,.cls-15,.cls-16,.cls-17{stroke:#000;stroke-miterlimit:10;}.cls-10,.cls-11,.cls-15,.cls-16,.cls-17{stroke-linecap:round;}.cls-10,.cls-11{stroke-width:1.05px;}.cls-11,.cls-15,.cls-17{fill:none;}.cls-12{opacity:0.2;}.cls-13{mix-blend-mode:darken;}.cls-16{stroke-width:1.04px;}.cls-17{stroke-width:1px;}</style></defs><g class="cls-1"><g id="Layer_2" data-name="Layer 2"><g id="Layer_23" data-name="Layer 23"><polygon class="cls-2" points="63.05 490.33 74.31 490.33 72.32 500.68 64.84 500.68 63.05 490.33"/><rect class="cls-3" x="55.8" y="395.79" width="25.84" height="7.63"/><path class="cls-4" d="M81.64,403c-9.5-.34-18.32-.7-25.84-3v3.4H78.37l3.27-.07Z"/><path class="cls-3" d="M68.39,500.09h-.12a3.82,3.82,0,0,1-3.7-3.72c0-1.15,0-2.49.06-4-.45-14.66-6.86-54.45-13.08-93-1.88-11.66-3.83-23.72-5.58-34.92l7.55-1.18c1.74,11.18,3.69,23.23,5.56,34.88,3.54,21.94,7,43.29,9.46,60.69,2.82-19,6.81-42.57,10.92-66.84,1.78-10.52,3.56-21,5.23-31.14l7.53,1.25c-1.67,10.12-3.46,20.64-5.24,31.16-6.88,40.63-14,82.55-14.72,99.38a37.57,37.57,0,0,1-.07,4A3.83,3.83,0,0,1,68.39,500.09Z"/><path class="cls-4" d="M51.81,363.5c4.37,30.17,10.69,62.69,16.71,95.13C66,441.26,62.61,420,59.08,398.11c-1.87-11.65-3.82-23.7-5.56-34.88Z"/><path class="cls-4" d="M92.22,362.07,90,361.69c-3,12.67-19,84.31-18.54,136.9a3.76,3.76,0,0,0,.78-2,37.57,37.57,0,0,0,.07-4C73,475.78,80.1,433.86,87,393.23,88.76,382.71,90.55,372.19,92.22,362.07Z"/><path class="cls-2" d="M94.83,369.8H41.56a6.2,6.2,0,1,1,0-12.39H94.83a6.2,6.2,0,0,1,0,12.39Z"/><polygon class="cls-2" points="235.05 481.93 247.76 481.93 245.51 493.62 237.07 493.62 235.05 481.93"/><rect class="cls-3" x="226.85" y="375.15" width="29.19" height="8.62"/><path class="cls-4" d="M256,383.33c-10.73-.38-20.69-.8-29.19-3.4v3.84h25.51l3.68-.08Z"/><path class="cls-3" d="M241.07,493H241a4.32,4.32,0,0,1-4.19-4.2c0-1.3,0-2.81.07-4.52-.51-16.56-7.75-61.5-14.78-105.09-2.12-13.17-4.32-26.79-6.29-39.44l8.52-1.33c2,12.63,4.16,26.24,6.29,39.4,4,24.78,7.88,48.89,10.68,68.55,3.18-21.47,7.68-48.09,12.33-75.51,2-11.87,4-23.75,5.91-35.17l8.51,1.41c-1.9,11.43-3.91,23.32-5.92,35.2-7.77,45.9-15.79,93.24-16.64,112.26a41.85,41.85,0,0,1-.07,4.49A4.31,4.31,0,0,1,241.07,493Z"/><path class="cls-4" d="M222.35,338.67c4.93,34.08,12.07,70.81,18.87,107.46-2.8-19.62-6.67-43.66-10.65-68.36-2.13-13.16-4.32-26.77-6.29-39.4Z"/><path class="cls-4" d="M268,337.05l-2.57-.43c-3.33,14.31-21.48,95.24-20.94,154.64a4.25,4.25,0,0,0,.88-2.26,41.85,41.85,0,0,0,.07-4.49c.85-19,8.87-66.36,16.64-112.26C264.09,360.37,266.1,348.48,268,337.05Z"/><path class="cls-2" d="M270.94,345.78H210.77a7,7,0,1,1,0-14h60.17a7,7,0,1,1,0,14Z"/><path class="cls-5" d="M251.88,342.08s9,19.86-1,25.7l.8,3.2s12.66-8.33,3.59-26.27l-.84-3.27Z"/><path class="cls-6" d="M153.37,399.91l-8.25,75.66,1.95,2.89,16.17,3.06L175.5,486l8.77,2.3,8.68.59,6-2.55,4.08-5.11-.42-5.36L198.39,470l-7.49-5.11-9.7-1.53,4.68-31.66,2.81-24.08,1-16.85C179.89,395.78,167.38,398.5,153.37,399.91Z"/><path class="cls-6" d="M189.56,289.34c-9.44-3.55-19.6-6.63-27.66-7.22-6.06-1.36-22.57-1.36-39.93,2.51-7.14,0-68.43,23.87-70.62,50.77-7.64,24.8,2.3,27.19,2.3,27.19s-9,16.34,5.68,24.89,16.15,6,25.85,4,7.34-21.06,7.34-21.06c11.49,5.27,7.31-5.79,7.31-5.79l-12.5-14.81.94-6.21,21-10.6,2.81.13-3.44,22.21-2,7.28-1.1,18.25.88,9.67,2.36,4.32,5.14,2.28,12.21,2.63,38.47,2.42,22.13-8.28,10.42-13.16,2.24-16.41-3-16.66-.64-13Z"/><polygon class="cls-5" points="186.02 395.1 178.34 460.8 181.8 460.23 189.72 392.5 186.02 395.1"/><path class="cls-5" d="M173.06,465.67s19.11.6,22.82,7.43,2.89,10.14,2.89,10.14l-.12,1.41,3.66-.23L202,471.76l-10.33-7.39C184.4,464.49,177.51,464.74,173.06,465.67Z"/><path class="cls-5" d="M153.52,399.3l-7.77,76.21,2.5,2.49,24.31,6.73,7.13,3.33,7-1.2s-14.6-7.42-25.15-8.82-11.56-2.66-11.56-2.66c-2-2.06,6-65.95,5.58-76.13Z"/><path class="cls-5" d="M113.38,326.65s3.37,16.05,1.28,24.6-4.91,23.37-4.91,23.37-1.83,11.22,3.07,17.58,21.91-.7,23-1.33c8-4.22,26.23-2.68,34-1.06,0,0,18,1.27,28.23-14.56,0,0,.6,4.7-2.3,7.79s-11.13,8.43-11.13,8.43-17.08,6.81-23.47,5.64-27.4-1.31-27.4-1.31-14.32,2.82-22.5.77-5.46-20.25-5.46-20.25l7-48.62"/><path class="cls-7" d="M191.79,492.37h-.15c-1.52,0-15-.52-20.2-4.46-3.13-2.37-15.14-4.29-20.27-5.1-2.25-.36-3.45-.56-4.1-.73-3.28-.88-5.3-4.23-5.52-4.61l-.41-.71,8.08-77.18a2.5,2.5,0,0,1,5,.52l-7.91,75.46a4.8,4.8,0,0,0,2.08,1.69c.42.11,2,.36,3.59.62,8.89,1.42,18.69,3.17,22.49,6.05,2.94,2.23,12,3.29,17.18,3.45,5.11-.52,9.29-3.35,10.17-6.91,1-4.08-2.63-8-4-9.43-7.38-7.9-20.33-5.87-22.85-5.38a2.5,2.5,0,1,1-.95-4.91c3-.58,18.27-2.94,27.45,6.87,1.7,1.82,6.86,7.34,5.2,14.06-1.42,5.7-7.32,10-14.71,10.69Z"/><path class="cls-6" d="M146.82,399.87l-6.09,80.86-2.26,2.66-16.41,1.25-12.67,3-9,1.31-8.7-.38L86,485.4l-3.49-5.52,1-5.29,4.88-5.36,8-4.24,9.81-.45-1.13-32-.51-23,.85-16.86C114.65,398.85,132.92,399.61,146.82,399.87Z"/><path class="cls-7" d="M182.91,463.85a2.17,2.17,0,0,1-.36,0,2.5,2.5,0,0,1-2.12-2.83c.07-.54,7.63-53.77,7.46-68.9a2.5,2.5,0,0,1,5-.05c.17,15.5-7.2,67.45-7.51,69.66A2.5,2.5,0,0,1,182.91,463.85Z"/><path class="cls-5" d="M146.69,399l-6.53,81.54-2.84,2.11-25,3.11L104.75,488l-6.38-.3s15.19-7.12,25.83-7,11.83-.95,11.83-.95c2.32-1.75,7.68-70.81,9.62-80.81Z"/><path class="cls-7" d="M151.82,400.92a113.73,113.73,0,0,1-18.58-1.6,2.5,2.5,0,0,1,.89-4.92c.22,0,22.08,3.92,34.73-.93a2.5,2.5,0,0,1,1.79,4.67C165.1,400.27,158.19,400.92,151.82,400.92Z"/><path class="cls-7" d="M188.77,491.34a2.49,2.49,0,0,1-2.49-2.45c-.06-2.83-2-6.16-2.7-7.21a2.5,2.5,0,0,1,4.09-2.87c.14.2,3.51,5,3.61,10a2.5,2.5,0,0,1-2.45,2.55Z"/><path class="cls-7" d="M197.9,489.36h-.07a2.5,2.5,0,0,1-2.43-2.57c.08-2.51-2-5.41-2.74-6.31a2.5,2.5,0,0,1,3.76-3.3c.42.48,4.13,4.84,4,9.76A2.5,2.5,0,0,1,197.9,489.36Z"/><path class="cls-5" d="M120,285.13s-49,28.14-54.8,35.29c-13.54,16.73-10.75,39.37-9.9,38.45l-3.74,1.49s-4.62-16.7.74-27.3,4.86-10.27,4.86-10.27L64,314.93l24-14.87,30.22-15.67Z"/><path class="cls-5" d="M56.16,362.87s-4,21.45,7.15,24.7v3.3s-14.3-5-9.83-24.62l0-3.38Z"/><polygon class="cls-5" points="108.67 398.7 108.67 462.28 105.3 461.35 105.3 395.8 108.67 398.7"/><path class="cls-5" d="M113.09,467.11S94,465.89,89.67,472.34s-3.83,9.82-3.83,9.82l0,1.41L82.2,483l1.47-12.58,11-6.38Z"/><polygon class="cls-8" points="109.05 327.72 91.18 338.19 91.56 341.04 109.52 332.7 109.05 327.72"/><path class="cls-7" d="M98.93,492.38c-3.17,0-5.69-.2-6.3-.25l-.3,0c-7.26-1.51-12.65-6.44-13.43-12.27-.9-6.86,4.84-11.77,6.73-13.39,10.21-8.73,25.15-4.68,28-3.78a2.5,2.5,0,1,1-1.48,4.77c-2.45-.76-15.1-4.21-23.31,2.81-1.52,1.31-5.57,4.77-5,8.94.48,3.63,4.31,6.9,9.34,8,5.14.41,14.28.37,17.45-1.52,4.11-2.44,14-3.09,23-3.52,1.65-.07,3.2-.15,3.64-.21a4.9,4.9,0,0,0,2.31-1.52l6.85-80.77a2.5,2.5,0,1,1,5,.42l-7,82.27-.42.57c-.26.36-2.64,3.46-6,4-.66.1-1.88.16-4.15.27-5.19.24-17.34.82-20.71,2.82S103.67,492.38,98.93,492.38Z"/><path class="cls-7" d="M104.76,464.78a2.49,2.49,0,0,1-2.5-2.4c-.08-2.17-2-53.41-.13-68.8a2.5,2.5,0,1,1,5,.61c-1.85,15,.14,67.47.16,68a2.49,2.49,0,0,1-2.4,2.59Z"/><path class="cls-7" d="M95.87,491.45l-.33,0a2.5,2.5,0,0,1-2.15-2.81c.65-4.92,4.53-9.34,4.69-9.52a2.5,2.5,0,0,1,3.75,3.31c-.85,1-3.11,4.06-3.48,6.87A2.51,2.51,0,0,1,95.87,491.45Z"/><path class="cls-7" d="M87,488.47h-.2a2.5,2.5,0,0,1-2.29-2.69c.4-4.91,4.57-8.83,5-9.26a2.5,2.5,0,0,1,3.37,3.7c-.89.81-3.23,3.46-3.43,6A2.5,2.5,0,0,1,87,488.47Z"/><path class="cls-5" d="M132.75,346s42.7-3.28,51.81-.71C179.15,336.71,140.37,336.78,132.75,346Z"/><path class="cls-8" d="M109.41,355.78c1.84.34,3.34,1.71,5.24,1.85,4.13.32,7.46-4.95,11.55-6.74,7.78-3.07,12.82,5.95,7.23,13-1.61,1.89-3.86,3.13-5.15,5.28-1.65,2.74-1.25,6-1.27,9.1s-1,6.89-3.79,8c-3.49,1.46-6.35-2.69-10-2.23s-5.86,4.88-9.21,6.45"/><path class="cls-9" d="M109.09,354.2c1.85.35,3.35,1.71,5.24,1.86,4.14.31,7.46-4.95,11.56-6.74,7.78-3.08,12.81,5.94,7.22,13-1.6,1.9-3.85,3.14-5.14,5.28-1.65,2.74-1.25,6-1.27,9.11s-1,6.88-3.79,8c-3.5,1.47-6.36-2.69-10-2.22s-5.86,4.88-9.22,6.44"/><path class="cls-7" d="M110.69,400.17a2.56,2.56,0,0,1-1.1-.25,14.12,14.12,0,0,1-4-2.95,14.82,14.82,0,0,1-3.39-6.11c-1.28-4.33-.84-8-.45-11.3l.07-.6a53.71,53.71,0,0,0,.46-8.65,30.69,30.69,0,0,1,.58-7.34,71.84,71.84,0,0,1,2.39-9.31c.46-1.49.94-3,1.4-4.82a70.14,70.14,0,0,0,2-21.2,2.5,2.5,0,0,1,5-.27,75.23,75.23,0,0,1-2.12,22.71c-.49,1.9-1,3.51-1.47,5.06a67.9,67.9,0,0,0-2.24,8.73,26.11,26.11,0,0,0-.5,6.32,58.88,58.88,0,0,1-.49,9.35l-.08.62c-.34,2.92-.7,5.94.29,9.27a10,10,0,0,0,2.22,4.1,9.13,9.13,0,0,0,2.6,1.9,2.49,2.49,0,0,1-1.09,4.74Z"/><path class="cls-8" d="M198.49,382.73c-3.24,1.19-7.05,2.35-10,.5-2.17-1.37-3.14-4-4-6.43l-4.35-12.88c-1-2.86-2-5.89-1.4-8.86.83-4.49,5.05-7.73,9.49-8.81a65.58,65.58,0,0,1,6.93-1"/><path class="cls-9" d="M197.63,380c-3,1.12-6.63,2.21-9.38.47-2-1.29-2.95-3.76-3.73-6.05l-4.08-12.1c-.91-2.7-1.84-5.54-1.32-8.34.78-4.22,4.75-7.26,8.92-8.27a64.84,64.84,0,0,1,7.09-1C200.91,358.47,201.62,370.18,197.63,380Z"/><path class="cls-7" d="M184.56,394.71a2.51,2.51,0,0,1-.79-4.88,20.9,20.9,0,0,0,11.08-8.05c3-4.65,3-9.51,2.92-16.23a66.19,66.19,0,0,0-2.35-15.88c-.6-2.38-1.09-3.89-1.57-5.35a46.07,46.07,0,0,1-1.65-6.14,55.68,55.68,0,0,1-.94-14.3,2.5,2.5,0,0,1,5,.31,50.63,50.63,0,0,0,.85,13,42.93,42.93,0,0,0,1.5,5.56c.48,1.47,1,3.14,1.66,5.67a70.09,70.09,0,0,1,2.51,17.06c.06,7,.12,13.09-3.73,19a25.76,25.76,0,0,1-13.69,10.08A2.72,2.72,0,0,1,184.56,394.71Z"/><path class="cls-7" d="M89.9,346.07a2.5,2.5,0,0,1-1.05-4.77l19.85-9.19a2.5,2.5,0,1,1,2.1,4.53L91,345.84A2.58,2.58,0,0,1,89.9,346.07Z"/><path class="cls-7" d="M76.87,397.35a35.55,35.55,0,0,1-16.71-4.23L60,393a21.18,21.18,0,0,1-5.42-3.94c-5.41-5.61-6.26-13.13-6-18.46a28,28,0,0,1,1.12-6.93c-3.3-2.2-5.26-11.35-2.86-23.68,1.31-6.7,2.66-13.64,7.92-20.9,2.3-3.17,6.29-7.6,16.94-13.8l3.18-1.88c10.92-6.48,36.5-21.67,49.76-25.1a2.5,2.5,0,1,1,1.25,4.84c-12.57,3.26-38.65,18.74-48.46,24.56l-3.21,1.9c-9.84,5.73-13.4,9.65-15.41,12.42-4.61,6.36-5.8,12.46-7.06,18.92-2.24,11.49-.11,17.28.65,18.46a4.14,4.14,0,0,1,2.18,2.49,4.07,4.07,0,0,1-.27,3.65c-.73,2.47-2.43,13.48,3.89,20a16.12,16.12,0,0,0,4.23,3l.16.09c8.43,4.66,22.17,5.13,26.19-1,1.72-2.61,2.43-7.28,1.65-10.86-.1-.45-.25-1.05-.41-1.67-.85-3.32-1.42-5.52.95-6.38.72-.26,2.1-.44,3.31,1.33l.07.11a3.63,3.63,0,0,0,2.09.83,3.26,3.26,0,0,0,2.45-.62c1.37-1.16.88-3.6.43-4.59a4.26,4.26,0,0,0-1.1-1.43c-2.75-2.35-6.66-6.56-11.95-12.87l-1-1.23.7-1.46c1.9-4,1.07-16.34.09-23.2a2.51,2.51,0,0,1,5-.71c.25,1.84,2.3,17,0,24.5a108.57,108.57,0,0,0,10.43,11.17,9.13,9.13,0,0,1,2.4,3.16c1.42,3.13,1.48,7.73-1.74,10.47a8.15,8.15,0,0,1-6.29,1.78l-.49-.07c1,4.88,0,10.81-2.39,14.49C89.84,395.23,83.62,397.34,76.87,397.35ZM53.75,366.21h0Zm-3.3-3.76a1.79,1.79,0,0,0-.4.5A1.91,1.91,0,0,1,50.45,362.45Z"/><path class="cls-7" d="M65.64,393.37a2.51,2.51,0,0,1-2.49-2.21l-1.69-14.55a2.5,2.5,0,1,1,5-.58l1.69,14.55a2.51,2.51,0,0,1-2.19,2.78Z"/><path class="cls-7" d="M81.31,395.1A2.49,2.49,0,0,1,78.84,393l-2.47-16.29a2.5,2.5,0,0,1,4.94-.75l2.47,16.29a2.49,2.49,0,0,1-2.09,2.84Z"/><path class="cls-7" d="M53.48,364.18a2.5,2.5,0,0,1-.88-4.84l10.47-3.92a2.5,2.5,0,0,1,1.75,4.69L54.35,364A2.43,2.43,0,0,1,53.48,364.18Z"/><path class="cls-6" d="M169.12,282.05c6.93-1.73,72.17,6.64,80.79,32.21,13.41,22.23,4.34,26.94,4.34,26.94s12.68,13.68.5,25.53-14.22,9.72-24.13,10.08-12.21-18.67-12.21-18.67c-9.87,7.9-8.49-3.85-8.49-3.85l8.55-17.39-2.41-5.8-22.91-5.21-2.7.8"/><path class="cls-5" d="M171.2,282.05s54.35,15.47,61.7,21c17.18,13,19.93,35.61,18.88,34.92l4,.54s.44-17.32-7.32-26.31-7.19-8.8-7.19-8.8l-8.52-6-26.88-8.63-33.12-7.91Z"/><polygon class="cls-8" points="192.07 320.75 211.94 326.59 212.25 329.45 192.81 325.69 192.07 320.75"/><path class="cls-7" d="M215.08,333.92A2.5,2.5,0,0,0,215,329l-21.49-4.12a2.5,2.5,0,0,0-.94,4.91L214,334A2.45,2.45,0,0,0,215.08,333.92Z"/><path class="cls-7" d="M240.11,380.54a35.57,35.57,0,0,0,15.19-8.14l.13-.13a20.67,20.67,0,0,0,4.3-5.13c3.9-6.75,2.91-14.25,1.39-19.36a28,28,0,0,0-2.76-6.46c2.67-2.93,2.36-12.28-3-23.66-2.88-6.2-5.87-12.6-12.73-18.38-3-2.51-7.94-5.85-19.77-9.29l-3.53-1.06c-12.17-3.65-40.66-12.21-54.36-12.34a2.5,2.5,0,0,0-.05,5c13,.12,42,8.85,53,12.13l3.57,1.07c10.93,3.18,15.33,6.12,18,8.32,6,5.06,8.64,10.7,11.42,16.66,5,10.61,4.28,16.75,3.83,18.07a4.52,4.52,0,0,0-.37,6.42c1.3,2.22,5.62,12.49,1.06,20.38a16.06,16.06,0,0,1-3.37,4l-.13.12c-7.05,6.56-20.28,10.33-25.65,5.38C224,372,222.14,367.64,222,364c0-.45,0-1.07,0-1.71,0-3.43,0-5.7-2.47-6-.75-.08-2.14.09-2.88,2.1l0,.12a3.58,3.58,0,0,1-1.82,1.31,3.31,3.31,0,0,1-2.53,0c-1.61-.81-1.72-3.29-1.52-4.36a4,4,0,0,1,.72-1.65c2.1-2.95,4.87-8,8.48-15.38l.71-1.44-1-1.25c-2.8-3.39-5-15.59-5.7-22.49a2.5,2.5,0,1,0-5,.51c.19,1.84,1.87,17.09,5.86,23.79a110.3,110.3,0,0,1-7.42,13.36,9,9,0,0,0-1.57,3.65c-.62,3.37.44,7.85,4.22,9.73a8.12,8.12,0,0,0,6.53.21l.46-.19c.2,5,2.58,10.5,5.82,13.48C227,381.62,233.56,382.17,240.11,380.54ZM255,344.74h0Zm2.29-4.45a1.91,1.91,0,0,1,.51.39A2.17,2.17,0,0,0,257.32,340.29Z"/><path class="cls-7" d="M250.05,374a2.52,2.52,0,0,0,1.88-2.75l-1.88-14.53a2.5,2.5,0,0,0-5,.64L247,371.86a2.49,2.49,0,0,0,2.8,2.16Z"/><path class="cls-7" d="M235.26,379.43a2.51,2.51,0,0,0,1.89-2.66l-1.54-16.4a2.5,2.5,0,0,0-5,.47l1.54,16.4a2.51,2.51,0,0,0,2.72,2.26Z"/><path class="cls-7" d="M254.8,342.7a2.5,2.5,0,0,0-.32-4.91l-11.1-1.27a2.5,2.5,0,0,0-.57,5l11.1,1.27A2.39,2.39,0,0,0,254.8,342.7Z"/><path class="cls-10" d="M172.11,271.61l19.65,61.07,17.86,3.78.44,3.52,50.4,5.54s7.74-14.76-13.5-46.6A477.89,477.89,0,0,0,172.11,271.61Z"/><path class="cls-10" d="M209.83,338.13s26.59-1.35,51.58,4.21"/><path class="cls-10" d="M210.22,336.34s37.25-5.39,51.61,1"/><path class="cls-10" d="M209.39,335.94s33.44-9.94,51.7-5.83"/><path class="cls-11" d="M208.68,336.26s29.63-14.18,50.14-13.78"/><path class="cls-11" d="M209.62,336.46s17-17.32,45-23.14"/><path class="cls-11" d="M209.42,336.11s9.75-18.36,42.34-29.44"/><path class="cls-11" d="M210,336s8.4-29.11,38.89-33.1"/><path class="cls-11" d="M246.17,298.85s-29,5.81-36.73,36.73"/><path class="cls-11" d="M176.14,272.71s15.83,28.68,18.14,60.5"/><path class="cls-11" d="M180.7,273.69s15.84,26.45,16.81,60.2"/><path class="cls-11" d="M184.17,275s21.51,37.94,16.25,59.47"/><path class="cls-11" d="M188,280.59s21.52,22.14,14.68,54.39"/><path class="cls-11" d="M193.09,277.83S212,307.68,205.6,334.66"/><path class="cls-11" d="M199.49,279.62A78.46,78.46,0,0,1,207.1,335"/><path class="cls-11" d="M206.71,282.48a84.78,84.78,0,0,1,1.19,53.62"/><path class="cls-11" d="M208.58,335.75c10.87-27.41,3.94-51.15,3.94-51.15"/><path class="cls-11" d="M218.4,286.83S218,318.39,209,335.67"/><path class="cls-11" d="M239,295.32s-28,16.88-29.78,40"/><path class="cls-10" d="M117.88,278.26,110.74,342,94,349.26l.27,3.54L46,368.22s-10.51-12.93,4-48.35A477.6,477.6,0,0,1,117.88,278.26Z"/><path class="cls-10" d="M94.11,350.93s-26.33,4-49.72,14.36"/><path class="cls-10" d="M93.37,349.26S55.8,351.36,43,360.5"/><path class="cls-10" d="M94.11,348.7s-34.75-3.11-51.84,4.55"/><path class="cls-11" d="M94.86,348.88S63,340.86,43,345.31"/><path class="cls-11" d="M94,349.26S73.9,335.64,45.25,335.51"/><path class="cls-11" d="M94.11,348.88s-13.2-16.06-47.34-20.46"/><path class="cls-11" d="M93.55,348.88s-14-26.87-44.68-24.73"/><path class="cls-11" d="M50.7,319.65s29.56-.06,43.28,28.71"/><path class="cls-11" d="M114.15,280.13s-9.83,31.25-5.78,62.9"/><path class="cls-11" d="M109.88,282s-10.28,29.06-4.53,62.34"/><path class="cls-11" d="M106.74,284s-13.55,41.45-4.13,61.51"/><path class="cls-11" d="M104.14,290.2s-16.7,26-3.6,56.22"/><path class="cls-11" d="M98.56,288.51s-12.64,33-1,58.18"/><path class="cls-11" d="M92.64,291.53a78.5,78.5,0,0,0,3.52,55.82"/><path class="cls-11" d="M86.13,295.77a84.72,84.72,0,0,0,9.47,52.79"/><path class="cls-11" d="M94.86,348.36c-16.09-24.72-14-49.36-14-49.36"/><path class="cls-11" d="M75.53,302.35s6.69,30.85,18.92,46"/><path class="cls-11" d="M57,314.77s30.83,11,37.12,33.3"/><path class="cls-12" d="M172.11,271.61l2.28,7.08c30.79,5.58,69.88,24.27,69.88,24.27,10.67,21.28,12,35.15,11.71,42.07l4.48.49s7.74-14.76-13.5-46.6A477.89,477.89,0,0,0,172.11,271.61Z"/><path class="cls-12" d="M118.05,278.08l-.79,7.39c-29,11.73-63.48,38-63.48,38-6.12,23-4.61,36.85-2.9,43.57l-4.29,1.39S36,355.54,50.33,320A478.09,478.09,0,0,1,118.05,278.08Z"/><path class="cls-6" d="M187.39,67s1.46-10.33,15.1-20.41c0,0,1,19.65,2.48,24.16s1.85,9.52,6.1,14.26,19.45,2,19.45,2S245.65,82.64,250,70.9a49.82,49.82,0,0,0,3.22-21.11S250.37,34,246.49,30.1,243.31,21,231.67,13.24a65.31,65.31,0,0,0-23.21-9.59,28.11,28.11,0,0,0-18.94,3.4c-9.58,5.58-10.39,7.59-14.46,13.63s-6,24.13-6,24.13"/><path class="cls-8" d="M243.81,79.63c-3.07,6.68-15.38,8.49-25.52,8.91S204.5,74.77,204.5,74.77l-.38-16s-1-15.2-5.88-25.54a29.11,29.11,0,0,0-13.91-14s13-2.72,19.53,17.58c0,0,7,16.91,7.35,30.82.61,8.53,3.42,11.58,5.93,12.91s18.13,6.76,32.17-8Z"/><path class="cls-8" d="M180.24,52.91c-6.43-8.45.74-30.55,3.39-31.4,9.92,6,14.69,15.18,16.14,26.3l-10.46,12.7-7.41-4.28Z"/><path class="cls-7" d="M223.37,91.1c-5.78,0-11.66-1.52-15.83-5.72-4.83-4.87-6.14-11.92-6.77-15.32a38.3,38.3,0,0,1-.62-8v-.37c.07-6.48-.71-22.64-9.38-32.8A31.15,31.15,0,0,0,177.52,20l-.29-.13c-6.32,9.49-6.17,20.1-5.92,23.54a2.57,2.57,0,0,1-5.13.37c-.34-4.62-.5-20.62,11.55-32.58A39.33,39.33,0,0,1,199,.49C220.68-3,241.77,13,250.59,29.78c2.95,5.64,11.84,25.43,2.16,43.34-4.47,8.3-10.64,13.76-18.33,16.23A37,37,0,0,1,223.37,91.1Zm-42.8-75.45a35.81,35.81,0,0,1,14.13,9.86c9.44,11.07,10.69,27.43,10.6,36.19v.39a33.34,33.34,0,0,0,.52,7c.54,2.89,1.66,8.89,5.37,12.63,5.37,5.41,15,4.83,21.66,2.7,9.61-3.09,14-11.13,15.38-13.77,8.68-16.08-.31-34.9-2.2-38.51-8-15.23-26.91-29.73-46.25-26.6a34.13,34.13,0,0,0-18.42,9.27C181.09,15.11,180.82,15.38,180.57,15.65Z"/><path class="cls-7" d="M187.83,77.91h-.21a2.57,2.57,0,0,1-2.35-2.77c1-12.91,5.51-22.32,12.9-27.22.43-.29.86-.56,1.32-.82A2.57,2.57,0,1,1,202,51.57c-.35.2-.69.41-1,.62-7.61,5.06-10,15.49-10.62,23.35A2.57,2.57,0,0,1,187.83,77.91Z"/><path class="cls-7" d="M227.73,30.47a2.59,2.59,0,0,1-2.53-2.09c-3-16-15.53-22.5-18.45-23.24a2.57,2.57,0,0,1,1.27-5c5.84,1.49,19,10.11,22.24,27.26a2.57,2.57,0,0,1-2,3A2.61,2.61,0,0,1,227.73,30.47Z"/><path class="cls-6" d="M128.68,263.06c-4.6-21.4-21.3-42.53-24.36-45.57C63.34,176.77,64.74,105,65,94.49c.63-32.06,10.51-45.55,15-50.77C101,19.18,132.09,20.65,147,27.13c10.51,4,20,11.14,34.82,31.24,21.73,29.53,37.66,51.2,41,84.6,3.05,30.55-6.12,53.92-12,69-15.37,39.14-45.47,69-61,81.82"/><path class="cls-6" d="M124.28,291.52c-4.61-21.41-16.89-71-20-74C63.35,176.77,64.75,105,65,94.49c.63-32.06,10.51-45.55,15-50.77C101,19.18,132.1,20.65,147,27.13c10.51,4,20,11.14,34.82,31.24,21.72,29.53,37.66,51.2,41,84.6,3.06,30.55-6.12,53.92-12,69-15.37,39.14-37.67,69-53.19,81.82"/><path class="cls-8" d="M73.81,58.75C69.08,79.4,68.57,170.34,97.29,208.4c0,0-20.42-25.36-25-53.45S65.79,120,65.79,120V84.66L71.25,61.5,78.74,46,80,47.62Z"/><path class="cls-7" d="M157.7,296.28a2.5,2.5,0,0,1-1.59-4.43c9.9-8.18,35.56-38.19,52.3-80.8,5.92-15.09,14.87-37.88,11.88-67.83-3.28-32.72-18.9-54-40.53-83.37-14.89-20.24-23.93-26.64-33.7-30.39l-.1,0c-14.21-6.19-44.18-7.34-64.14,15.93C72.71,56,67.88,72.55,67.45,94.54,67,119,69.78,179.64,106.09,215.72c2.49,2.48,13.25,50.43,18.13,73.13a2.5,2.5,0,1,1-4.89,1c-4.56-21.19-14.53-68.41-16.77-70.63C64.88,181.83,62,119.5,62.45,94.44,62.9,71.27,68.14,53.66,78,42.1c21.85-25.47,53.74-24.29,69.88-17.29,10.3,4,20.36,11,35.89,32.07,22.1,30.05,38.06,51.76,41.47,85.84,3.12,31.15-6.1,54.62-12.2,70.16-17.17,43.73-43.63,74.45-53.77,82.83A2.5,2.5,0,0,1,157.7,296.28Z"/><path class="cls-6" d="M153.75,65.48c8.18,30.14,26.44,46.21,41.95,47.8,10.87,1.11,20.66,3.11,20.66,3.11,8.32.07,10.17-1.36,15-.62,11.82,1.82,19.28,13.29,21.92,17.36,13.57,20.88,5.41,44.93,5,46.07-6.14,17.16-20.1,26.77-44,30.85-27.68,33.33-80-13.67-88.47-34a31.21,31.21,0,0,1,.61-25.92C153.83,148.18,166.72,105.44,153.75,65.48Z"/><path class="cls-5" d="M152.24,210.68s22.07-24.29,59.06-.51l-4,4.35C188.38,204.25,170,203,152.24,210.68Z"/><path class="cls-8" d="M132.4,26c17.28,13,65.34,73.55,95,97.29,23.45,16.24,31.86,39.42,20.9,71,0,0,22.73-9.19,6.52-59.36,0,0-17.41-7.28-39.71-16-1.62-15.81-12.72-34.23-30.46-54.46C180.1,60.31,158.46,25.51,132.4,26Z"/><path class="cls-6" d="M160.52,68.53c2.54-5.7,9.43-11.88,19.58-8.22,3.76,1.58,5.69,4.32,8.33,8.09a39.63,39.63,0,0,1,5.47,11.7c1.6,5.55,2.85,9.89,1.18,14.92-.4,1.22-2.17,6.31-7.12,9C173.62,112.51,154,83.85,160.52,68.53Z"/><path class="cls-7" d="M182.39,107.81c-4.07,0-8.38-1.84-12.49-5.43-9.24-8.06-16.05-23.94-11.48-34.73l0,0c3.24-7.27,11.64-13.33,22.43-9.44l.11,0c4.37,1.83,6.55,4.94,9.32,8.88a42.35,42.35,0,0,1,5.78,12.38c1.64,5.67,3,10.57,1.16,16.27A17.94,17.94,0,0,1,189.08,106,13,13,0,0,1,182.39,107.81ZM162.61,69.44C158.88,78.29,165,92.09,172.89,99c2.89,2.52,8.53,6.27,13.9,3.08l.09,0a13.47,13.47,0,0,0,6-7.67c1.44-4.36.33-8.23-1.21-13.58a37.68,37.68,0,0,0-5.14-11c-2.51-3.58-4.17-5.95-7.3-7.28C170.06,59.15,164.47,65.28,162.61,69.44Z"/><path d="M162.19,74.6A13.48,13.48,0,0,1,168.54,68a13.32,13.32,0,0,1,10.15-.26c3.17,1.3,4.79,3.57,7,6.69a32.19,32.19,0,0,1,4.59,9.67c1.34,4.6,2.39,8.19,1,12.35a13.1,13.1,0,0,1-6,7.42,12.69,12.69,0,0,1-5.33,1.32C170.21,105.17,157.11,85.89,162.19,74.6Z"/><path class="cls-6" d="M175.92,74.27c-.95,1.58-.87,3.24-.64,5.06,1.23,9.87,5.51,15.82,7.46,16.28,5.58,1.29,6.67-4,6.51-8.64,0-1.38-.12-7.86-4.73-12.78C181.34,70.3,177.92,71.22,175.92,74.27Z"/><path class="cls-7" d="M180.69,107.11a6.6,6.6,0,0,1-.77,0c-6.17,0-12.15-5.95-15.69-11.47-3.87-6-6.89-14.92-3.77-21.84h0a15.42,15.42,0,0,1,7.28-7.5,15.11,15.11,0,0,1,11.67-.3c3.68,1.51,5.51,4.08,7.84,7.34a34.89,34.89,0,0,1,4.87,10.25c1.37,4.7,2.55,8.76.95,13.49a14.91,14.91,0,0,1-6.92,8.5A15.35,15.35,0,0,1,180.69,107.11ZM163.92,75.38c-2.49,5.54.18,13,3.51,18.23,3.71,5.79,8.74,9.7,12.51,9.72a10,10,0,0,0,9.53-7.45c1.22-3.59.29-6.78-1-11.2a30.51,30.51,0,0,0-4.32-9.11c-2.12-3-3.52-4.94-6.18-6a11.31,11.31,0,0,0-8.62.22,11.52,11.52,0,0,0-5.43,5.63Z"/><path class="cls-7" d="M160.37,71.54c1.46,7,26.48.15,25.06-7.88l-5.77-4.58-7-.75-9.54,5.3Z"/><path class="cls-5" d="M149,208s27.57-37.71,91.14-10.64c0,0,12-11.66-2.55-52.34-7.15-12.09,5.83,34.14,2.81,45.19C188.58,171.45,156.36,185.47,149,208Z"/><path id="jou" class="cls-5" d="M152.27,65s11.11,46.37,49.41,53.94v8.73C169.64,122.52,147.67,93.73,152.27,65Z"/><path class="cls-7" d="M206.88,218.79l-1.53-.75c-22.35-11-34.92-14.62-53.54-.83a2.5,2.5,0,1,1-3-4c21-15.54,36.47-10.44,57.22-.37,6.62-5.48,14.29-7.95,21.73-10.34,10-3.21,19.47-6.25,24.89-16.56,6.42-12.22,8.16-24.25,5.15-35.73l-.24-1c-1.13-4.54-3.78-15.18-12.57-23.38-2.29-2.13-7.06-6.57-14.05-7.6-1.85-.28-6.11,0-10.63.2-8.92.49-20,1.1-27.19-1-16.44-4.52-36.23-20.7-42.41-52.57a2.5,2.5,0,1,1,4.9-1c5.75,29.62,23.85,44.58,38.86,48.71,6.39,1.84,17.47,1.22,25.56.78,5.2-.29,9.31-.52,11.65-.16,8.52,1.26,14.26,6.61,16.72,8.89,9.87,9.21,12.88,21.29,14,25.84.08.34.15.64.22.89,3.33,12.73,1.46,26-5.57,39.33-6.36,12.12-17.25,15.61-27.78,19-7.42,2.39-15.09,4.85-21.18,10.4Z"/><path class="cls-7" d="M149.68,214.21a2.61,2.61,0,0,1-1.08-.24,2.51,2.51,0,0,1-1.17-3.34c6.11-12.8,18.09-21.27,34.65-24.51,22.4-4.38,46.82,2.07,58.13,10.85,3.2-3.44,4.7-11.19,4-21-1.46-19.42-11.34-42.75-27.39-49.73l-.3-.16a54.05,54.05,0,0,0-18.73-6.79l-.35-.08-1.31-.43c-11.16-3.59-29.83-9.6-44.71-52.51a2.5,2.5,0,1,1,4.72-1.64c14.07,40.55,30.59,45.87,41.52,49.39l1.17.38a59,59,0,0,1,20.14,7.32c17.77,7.85,28.65,33,30.22,53.88,1,13.3-1.78,23-7.64,26.71l-3-.27c-9.55-8.7-34.12-15.22-55.47-11-10.42,2-24.28,7.46-31.1,21.76A2.5,2.5,0,0,1,149.68,214.21Z"/><path class="cls-5" d="M189.26,125.08s-4,6-3.41,20.68,12.42,12.66,12.42,12.66,16.9-2.52,28.69,2.92,12.73-6.17,12.73-6.17"/><path d="M188.75,123.1c5.07-15.45,18.31-22.91,19.21-23.4,13.15-7.15,25.68-4.4,30-3.45,4.66,1,10.38,2.36,15.31,7.37A24,24,0,0,1,259.89,117c.73,5.44-.8,9.44-2.81,14.68-2.71,7.1-6.13,11.11-12.14,18.18-4.26,5-6.83,7.07-9.95,7.11a9.4,9.4,0,0,1-4.87-1.56c-10.52-5.54-25.61-5.18-30-5.07-2.81.07-5.2.31-7.59-1.22-.61-.4-3.34-2.26-4.81-8.56A32.87,32.87,0,0,1,188.75,123.1Z"/><path class="cls-9" d="M85.12,76.9C95.38,57.66,120.53,49,135.81,61.37c3.71,2.83,5.94,6.43,10.24,13.5,3.53,5.79,6.33,10.45,9,17.34,2.16,5.67,3.42,9.06,3.45,13.93-.18,9.37-2.12,17.08-16.4,23.57-13.51,6.64-28.17,8.39-39.77,3.5-10.66-4.5-18.72-14.61-20.88-31.69C80.86,97.27,79.71,87.24,85.12,76.9Z"/><path class="cls-6" d="M117.11,119.58c-15.27-3.79-24.84-31.25-9.62-46.2,9.35-8.65,20.37-5.92,27.58,3.09,5.77,6.63,6.5,14.18,7,19.13.64,6.59,1.22,12.61-2.72,17.44s-10.54,6-13.4,6.49A22,22,0,0,1,117.11,119.58Z"/><path class="cls-7" d="M121.06,122.52a19.36,19.36,0,0,1-4.53-.51h0c-8.08-2-15.12-10-17.94-20.3-3.11-11.38-.43-22.64,7.18-30.12,4.65-4.29,10-6.32,15.35-5.92,5.85.44,11.49,3.71,15.9,9.2,6.27,7.23,7.07,15.53,7.55,20.49.64,6.7,1.31,13.63-3.27,19.26s-11.83,6.85-14.93,7.37A30.2,30.2,0,0,1,121.06,122.52Zm-3.37-5.37a19.61,19.61,0,0,0,7.82-.09c2.75-.47,8.48-1.43,11.88-5.6s2.77-9.4,2.17-15.62c-.45-4.66-1.13-11.7-6.38-17.73l-.06-.08c-3.54-4.42-7.94-7-12.4-7.37-4-.31-8,1.27-11.53,4.55-6.24,6.14-8.43,15.57-5.81,25.19C105.73,109,111.35,115.57,117.69,117.15Z"/><path d="M116.14,118.57c-11.88-2.95-19.33-24.32-7.48-35.95a14.61,14.61,0,0,1,9.69-4.11c6.11,0,10.14,4.65,11.76,6.51,4.5,5.17,5.06,11,5.44,14.89.49,5.13.94,9.81-2.12,13.57s-8.2,4.67-10.43,5A17.13,17.13,0,0,1,116.14,118.57Z"/><path class="cls-6" d="M122.72,83.67c-1.21,1.39-1.42,3-1.51,4.88-.51,9.93,2.68,16.53,4.51,17.32,5.28,2.24,7.28-2.82,7.92-7.38.24-1.35,1.24-7.75-2.44-13.41C128.75,80.71,125.22,81,122.72,83.67Z"/><path class="cls-7" d="M120.41,120.82a16.1,16.1,0,0,1-4.72-.36h0c-6.29-1.56-11.77-7.76-14-15.79-2.42-8.86-.33-17.63,5.59-23.44,3.48-3.13,7.18-4.68,11.07-4.66,7,0,11.52,5.22,13.22,7.17,4.91,5.64,5.53,12.11,5.9,16,.51,5.22,1,10.61-2.54,15s-9.21,5.33-11.61,5.74C122.6,120.57,121.59,120.74,120.41,120.82Zm-3.82-4.14a15.17,15.17,0,0,0,6.09-.07c2.14-.36,6.6-1.12,9.24-4.36s2.16-7.32,1.69-12.16c-.35-3.62-.88-9.09-5-13.79-1.52-1.74-5.08-5.82-10.31-5.84a12.39,12.39,0,0,0-8.38,3.6c-4.84,4.76-6.55,12.1-4.5,19.58C107.28,110.33,111.66,115.45,116.59,116.68Z"/><path class="cls-7" d="M102.72,78.47c13.39,6.7,24.71,5.62,33.88-3.45l-5.26-7.31-6-1.82-7.71.22-8.14,2-5.08,2.13A6.55,6.55,0,0,0,102.72,78.47Z"/><path class="cls-9" d="M140.37,69.83s-19,12.46-42.17,6.6L101.52,68l17.12-7Z"/><path d="M187.29,52.73c-2.91,12.45-24.56,18.82-33.06,8.39a.61.61,0,0,1,.4-1c6.18-.51,26.78-5,31.77-8,.47-.17,1,.18.89.62Z"/><path class="cls-7" d="M184.06,247.63a2.49,2.49,0,0,1-2.37-1.72c-.16-.43-3.51-9.3-19.84-5.84a2.5,2.5,0,1,1-1-4.89c21-4.45,25.44,8.62,25.62,9.18a2.51,2.51,0,0,1-2.38,3.27Z"/><path class="cls-7" d="M151.31,230.49H151a2.51,2.51,0,0,1-2.22-2.76c1.75-16.23-9.78-23.3-10.27-23.59a2.5,2.5,0,0,1,2.54-4.31c.6.35,14.81,8.91,12.7,28.44A2.49,2.49,0,0,1,151.31,230.49Z"/><path class="cls-5" d="M154.74,247.31S178,242.69,180,254.63C174.88,250.26,165.85,248.18,154.74,247.31Z"/><path class="cls-6" d="M212.92,113.54h30.63c3.39,0,3-4.07,0-6.25,0,0-3.83-3.71-14.21-4-10.48,0-14.74,2.4-16.42,3.62C209.81,109.25,209,113.54,212.92,113.54Z"/><path class="cls-6" d="M227.28,118.4h-9.19c-1,0-.75,1.21,0,1.87,0,0,1.15,1.19,4.26,1.19a10.22,10.22,0,0,0,4.93-1.09C228.16,119.72,228.45,118.4,227.28,118.4Z"/><path class="cls-6" d="M81.71,56.93S75.38,40.44,70.05,35.78s-6.59-6.34-17-9.19a27.32,27.32,0,0,0-18.63,1.53A63.48,63.48,0,0,0,15,42.93C6,53.1,8,57.86,5.33,62.46S3.92,82.63,3.92,82.63a48.41,48.41,0,0,0,8.3,19c7,9.94,22.34,10.34,22.34,10.34s14.94-1.27,17.75-6.78,1.91-10.32,2.17-14.92S50.78,67,50.78,67C66.1,73,70.05,82.38,70.05,82.38"/><path class="cls-9" d="M3,64.68a21.18,21.18,0,0,0,8.15,8.14c2.1,1.54,1.89,5.63,3,7.6a8.42,8.42,0,0,0,6.35,4.19c1.87.16,3.75-.48,5.59-.19,2.06.32,3.76,1.74,5.7,2.5a9.45,9.45,0,0,0,12.85-9c-.11-3.51-2.15-6.65-3-10.07-1.56-6.47,1.22-13.85-2-19.65s-12-7.91-13.66-14.91C16.34,38.82,8.76,49.5,3,64.68Z"/><g class="cls-13"><path class="cls-5" d="M14.75,45.54s-17.53,54.1,22.13,64.65a12.64,12.64,0,0,1-3.13,1.32c-9.83,2.63-22.66-7.2-28.4-17.81C-4.55,75.4,6.82,55.07,8,53a44.12,44.12,0,0,1,5.3-7.28Z"/></g><path class="cls-8" d="M73.71,89.2S62.8,70.12,51.84,67.09s0-.18,0-.18l3.31-19C69.05,52.15,74.63,80.56,73.71,89.2Z"/><path class="cls-8" d="M52.26,47.62s-7.46,4.66-6,18.57c1.34,11.52,4.46,26.31,4.29,28.6-.34,4.52-1.05,9-3.62,12.25-2.77,3.44,4-1.91,4-1.91l4.15-10.22L52.3,70.15Z"/><path class="cls-7" d="M33.21,115.13c-.6,0-1.18,0-1.75,0-7.84-.4-15-4-21.27-10.65C-3.37,90,0,69.22,1.4,63.18c4.08-18,19.89-38.27,41.17-40.4a38.32,38.32,0,0,1,22.6,4.75c14.31,8.22,18.15,23.29,19,27.71a2.5,2.5,0,0,1-4.91.93c-.62-3.29-3.14-13.29-11.44-20.62a1.55,1.55,0,0,1-.24.19A30.32,30.32,0,0,0,57.33,47.37c-5.6,11.71-2.29,27.08-.61,33.15l.1.35a37.74,37.74,0,0,1,1.43,7.7c.25,3.34.78,10.3-2.54,16.07C51.23,112.44,41.17,115.13,33.21,115.13ZM46.34,27.6c-1.26,0-2.37.07-3.27.16C24.12,29.65,10,48,6.28,64.29,5.4,68.15,1.66,88.07,13.83,101c2,2.13,8.08,8.59,17.88,9.09,6.77.35,16-1.52,19.66-7.94,2.56-4.44,2.11-10.36,1.89-13.2A32.17,32.17,0,0,0,52,82.22l-.1-.37c-2.28-8.21-5.18-23.88.92-36.64a34.66,34.66,0,0,1,10.8-12.78c-.3-.2-.62-.38-.94-.57A32.8,32.8,0,0,0,46.34,27.6Z"/><path class="cls-7" d="M71.71,92.79a2.49,2.49,0,0,1-2.35-1.66C66.79,83.9,62,74.69,53.55,71.85q-.54-.18-1.11-.33a2.5,2.5,0,0,1,1.27-4.84c.49.13,1,.27,1.44.43,8.17,2.76,14.71,10.49,18.92,22.34a2.51,2.51,0,0,1-1.52,3.2A2.74,2.74,0,0,1,71.71,92.79Z"/><path class="cls-7" d="M22.39,58.21a2.5,2.5,0,0,1-2.49-2.33C18.69,39,28.86,27.59,34,24.73a2.5,2.5,0,1,1,2.44,4.36c-2.57,1.43-12.66,10.63-11.53,26.44a2.5,2.5,0,0,1-2.32,2.67Z"/><path class="cls-14" d="M60.39,103.26S130.3,50.77,184.33,52.07C135.9-17.53,48.65,24.41,60.39,103.26Z"/><path class="cls-15" d="M60.39,95.8S123,44.68,180.57,47.62"/><path class="cls-15" d="M60.39,86.06s54.05-40,98.77-38.13"/><path class="cls-15" d="M124.23,52.79s37.46-13.85,50.9-12.16"/><path class="cls-15" d="M60.56,74.34S113,42.89,151.67,43.4"/><path class="cls-15" d="M65.79,56.81s48.54-20.61,93.45-15.06"/><path class="cls-15" d="M75,42.13s45.15-12.62,91.13-1.33"/><path class="cls-15" d="M89.71,27.6c.56.49,44.6-3.22,82.26,10.44"/><path class="cls-15" d="M104.06,20.3s21.47-1.55,51.71,4.9"/><path d="M135.5,66.15c-6.53,12.22-25,16.92-33.4,6a.86.86,0,0,1,.44-1.28A121,121,0,0,0,135,65C135.46,64.81,135.76,65.65,135.5,66.15Z"/><path class="cls-16" d="M194.87,391.06c-11.45,6-53.74,10.69-53.74,10.69L143.55,484c20.62,10.15,44.79,11.63,44.79,11.63,32.43,2.17,34.79-32.92,2.35-35.1Z"/><path class="cls-17" d="M210.78,470.75a52.65,52.65,0,0,0-7.24,22"/><path class="cls-17" d="M207.32,466.34s-11.08,15.59-8.87,28.15"/><path class="cls-17" d="M202.92,464.33s-10.77,9.63-9.31,30.74"/><path class="cls-17" d="M198.12,461.87s-13,15.76-8.54,33.26"/><path class="cls-17" d="M192.61,461.09s-11.85,15.67-9.07,33.64"/><path class="cls-17" d="M190.38,460.94S174,470.51,177.54,494"/><path class="cls-17" d="M189.83,460.33s-17.91,2.85-19.79,32.25"/><path class="cls-17" d="M158.54,489.6s-4.46-33.17,31.91-29.81"/><path class="cls-17" d="M152.44,487.83S145,453.1,190.69,460.55c0,0-27.24.22-26.57,30.43"/><path class="cls-17" d="M143.93,479.69s5.27-.13,7.87,1.9"/><path class="cls-17" d="M143.58,475.13s5.64-.76,8.76,1.49"/><path class="cls-17" d="M143.53,471.11a13.82,13.82,0,0,1,9.86,1.35"/><path class="cls-17" d="M143.31,465.51a21.79,21.79,0,0,1,12.25,2.81"/><path class="cls-17" d="M143.27,461.11s8.18-2.68,18.4,2"/><path class="cls-17" d="M143.57,456.62A58.14,58.14,0,0,1,170.26,460"/><path class="cls-17" d="M142.87,452.7S163.93,449,179.56,459"/><path class="cls-17" d="M143.05,448.12s27.66-2.9,41.18,10.36"/><path class="cls-17" d="M142.5,443.33s29.63-5.52,45.66,15.9"/><path class="cls-17" d="M142.76,439.47s32.7-6.94,47.87,17.64"/><path class="cls-17" d="M183.09,447.63s6.72.55,8,2.82"/><path class="cls-17" d="M177.89,444.35s5.44-3.66,13.53,1.11"/><path class="cls-17" d="M142.39,434.89s31.19-4.11,48.8,5.26"/><path class="cls-17" d="M142,430.07s33.33-5,50.06,6.25"/><path class="cls-17" d="M141.83,425.59s34-5.38,50.54,5.72"/><path class="cls-17" d="M141.69,420.7s22.85-4.32,51,5.5"/><path class="cls-17" d="M141.9,415.74s20.47-4,51.41,5.77"/><path class="cls-17" d="M141.42,411.67s33.22-4.48,52.2,5.31"/><path class="cls-17" d="M141.71,407.39s36.55-3.43,51.47,3.11"/><path class="cls-17" d="M141.19,403.78s43.47.19,52.9,1.82"/><path class="cls-10" d="M160.29,399.18s24.2,4.61,33.8,2.18"/><path class="cls-10" d="M175.83,396s10,3.32,18.26,1.35"/><path class="cls-10" d="M100.1,392.23c10.78,6.94,51.62,9.93,51.62,9.93L144,486.64c-20.76,9-44.42,8.87-44.42,8.87-31.77,0-31.77-36.28,0-36.28Z"/><path class="cls-15" d="M79.29,468.34a56.52,56.52,0,0,1,5.62,23.11"/><path class="cls-15" d="M83,464s9.79,16.81,6.81,29.58"/><path class="cls-15" d="M87.38,462.28s9.87,10.66,7.06,32.27"/><path class="cls-15" d="M92.22,460.09s11.61,17.1,6.15,34.8"/><path class="cls-15" d="M97.65,459.66s10.52,16.94,6.63,35.23"/><path class="cls-15" d="M99.83,459.66s15.38,11,10.36,34.89"/><path class="cls-15" d="M100.4,459.06s17.28,4.17,17.19,34.56"/><path class="cls-15" d="M129,491.34s6.52-33.81-29.17-32.87"/><path class="cls-15" d="M135.06,489.94s9.51-35.22-35.51-30.71c0,0,26.55,2.12,23.91,33.15"/><path class="cls-15" d="M143.89,482.16s-5.13-.5-7.8,1.41"/><path class="cls-15" d="M144.53,477.49s-5.45-1.17-8.63.93"/><path class="cls-15" d="M144.85,473.36a12.87,12.87,0,0,0-9.71.7"/><path class="cls-15" d="M145.42,467.62a20.26,20.26,0,0,0-12.13,2"/><path class="cls-15" d="M145.75,463.09s-7.8-3.32-18.07.76"/><path class="cls-15" d="M145.75,458.45a53.83,53.83,0,0,0-26.24,1.64"/><path class="cls-15" d="M146.69,454.47s-20.29-5.32-36.18,4"/><path class="cls-15" d="M146.82,449.75s-26.79-4.9-40.83,7.8"/><path class="cls-15" d="M147.66,444.85s-28.53-7.73-45.55,13.2"/><path class="cls-15" d="M147.66,440.86s-31.43-9.4-47.83,14.84"/><path class="cls-15" d="M107.8,446.47s-6.58.1-8,2.35"/><path class="cls-15" d="M113.09,443.46s-5.06-4.15-13.26.2"/><path class="cls-15" d="M148.32,436.17s-30.13-6.38-47.92,2"/><path class="cls-15" d="M149.06,431.24s-32.18-7.41-49.23,3"/><path class="cls-15" d="M149.48,426.65s-32.77-7.89-49.65,2.39"/><path class="cls-15" d="M149.94,421.63s-22-6-50.11,2.13"/><path class="cls-15" d="M150.06,416.51s-19.7-5.53-50.51,2.38"/><path class="cls-15" d="M150.79,412.35s-32.09-6.9-51.24,1.86"/><path class="cls-15" d="M150.79,407.93s-35.41-6.06-50.39-.36"/><path class="cls-15" d="M151.53,404.25s-42.39-2.8-51.7-1.78"/><path class="cls-10" d="M100.05,398.55s10.35.86,14.61-1.44"/><polygon class="cls-2" points="63.05 490.33 74.31 490.33 72.32 500.68 64.84 500.68 63.05 490.33"/><path class="cls-12" d="M142.39,401.31l-4.63,79.1C133,488,120.53,492,106,494.89c15.92-1.2,29.91-4.23,38-8.25.82-.62-.4-1.7.22-2.41,20.62,10.16,44.15,11.42,44.15,11.42a33.91,33.91,0,0,0,19-4.31c-18.95-.68-51.21-7.88-54.39-15.38s6-56.8,6.08-76.71c-2.74.37-8.61,1.76-13.89,2C140.18,401.51,142.39,401.31,142.39,401.31Z"/><path class="cls-12" d="M112.74,17.35C80,23.8,53.6,57.07,60.39,102.69c0,0,1.88-1.42,5.26-3.77C68,82.51,77.44,39.62,112.74,17.35Z"/></g></g></g></svg>