<svg xmlns="http://www.w3.org/2000/svg" width="440.28" height="524.95" viewBox="0 0 440.28 524.95"><defs><style>.cls-1{fill:#fff;}.cls-2{fill:#ccc;}.cls-3{fill:#aaa;}.cls-4{fill:#7a7a7a;}.cls-5{fill:#eee;}.cls-6{fill:#b2b2b2;}</style></defs><g id="Layer_11" data-name="Layer 11"><path class="cls-1" d="M112,411.34,55.66,449.65c9.44,7,12.47,17.92,8.59,25.17a15.11,15.11,0,0,1-12.73,7.79c-8.15.06-13.62-8-15.34-13.45a16.63,16.63,0,0,1-.77-4c-.47-5.72-2.94-15.31-11.31-32.37L88,392.64"/><path class="cls-2" d="M36.28,468.31,25.56,432.79,88,394l2.66,3.57-58,38.13s8.14,18.28,7.76,31.71c0,.88,1.58,7.48,11.29,11.27,10.88,2.56,4,2.55,4,2.55l-8.69.39C43,478.6,39,475.37,36.28,468.31Z"/><polygon class="cls-3" points="86.1 420.92 85.31 428.11 51.33 449.57 86.1 420.92"/><path class="cls-4" d="M50,485.05c-9.25-.87-14.62-10.11-16.22-15.13a19.74,19.74,0,0,1-.87-4.47c-.58-7.15-4.3-17.74-11.06-31.52l-1-2,65.79-41.38,2.67,4.23-62,39c6.5,13.54,10,23.78,10.57,31.25a14.5,14.5,0,0,0,.66,3.41c1.5,4.73,6.19,11.75,12.94,11.7A12.6,12.6,0,0,0,62,473.64c3.06-5.71,1-15.49-7.86-22l-2.85-2.09,59.25-40.3,2.81,4.13L59.82,449.85c8,7.43,10.9,18.19,6.63,26.15a17.54,17.54,0,0,1-14.92,9.11A15.21,15.21,0,0,1,50,485.05Z"/><path class="cls-1" d="M228.65,428.45l3.54,85.48c18.95,1.43,28.47,4.16,33.64,6.66a17.4,17.4,0,0,0,3.8,1.35c5.54,1.26,15.29.64,19.37-6.41a15.13,15.13,0,0,0-.26-14.92c-4.29-7-24.33-8.32-35.1-3.7l-.83-70.05"/><path class="cls-2" d="M232.75,492.91v20.17s25.24,2.08,32.34,6.47,18.3,0,18.3,0-11.45,0-15.19-4.12-30.13-6.22-30.13-6.22l-.76-11.27Z"/><path class="cls-4" d="M274.6,525a25.12,25.12,0,0,1-5.52-.58,19.7,19.7,0,0,1-4.32-1.51c-6.44-3.12-17.46-5.28-32.76-6.44l-2.22-.17-3.63-87.7,5-.2,3.44,83.26c15,1.26,25.57,3.47,32.32,6.73a14.47,14.47,0,0,0,3.28,1.16c4.84,1.1,13.27.62,16.65-5.22a12.6,12.6,0,0,0-.24-12.37c-3.33-5.47-21.87-7-32-2.71l-3.44,1.48-.87-73.79,5-.06.78,66.56c12.07-3.49,30.19-1.62,34.78,5.91a17.55,17.55,0,0,1,.29,17.48C287.45,523.2,280.3,525,274.6,525Z"/><path class="cls-1" d="M329.81,322.76c-6.79,5.15-17.22,11.42-30.63,13-19.46,2.34-34.95-6.35-40.6-9.19-39.83-20-115.64-12.57-152.49,17.58a75.56,75.56,0,0,0-6.08,5.56L13.77,330.29c-12.67-3-15.88,7.2-2.85,9.83l80.94,20c-2.47,4.05-18.37,31.38-7.83,53.45a34.63,34.63,0,0,0,3.74,6.13l-8.71,85.1c18.55,4.13,27.58,8.2,32.34,11.41a16.71,16.71,0,0,0,3.57,1.87c5.3,2,15,2.82,20.09-3.57a15.14,15.14,0,0,0,1.87-14.81c-3.24-7.57-13.7-12.05-25-9l5.27-67.92a123.79,123.79,0,0,0,34.68,19c67.42,23.69,131.69-22,138.89-27.32,34.12-25.06,50.49-57.42,58-76.08"/><path class="cls-2" d="M95.77,358.52s-9.21,26.88-8,40.1S93.26,416,93.26,416l-7.16,81.4s25.08,9.45,29.25,15.07,19.06,0,19.06,0l-2.34,4.76-13.15,1-14.85-5.7-24.25-8.55,8-85.2S80,408.45,80.54,396.28s10.13-33.79,10.13-33.79Z"/><path class="cls-5" d="M117.68,423.73c2.34,3,25.84,13.9,25.84,13.9l23.91,7.58,18,3.15,28.94-2L230,442.49c20.89-6.68,25.3-8.54,25.19-8.94a.86.86,0,0,0-.46-.31,1.72,1.72,0,0,0-1.37.42c-.89.65-31.42,11.12-69.92,5.08A154.13,154.13,0,0,1,124,416L113,409.77C112.63,409.68,115.21,420.53,117.68,423.73Z"/><path class="cls-2" d="M226.24,397l14.67,32.76s2,4,0,5.11l-9.73,5.32-2.24,1.17,9.39-1.87,8.83-3.64.25-5.09L233.52,407.3Z"/><path class="cls-2" d="M5.06,332c4.93,5.26,52.67,15.06,84.18,24.13,1.42.49,3.28,1.36,6,2.53L6.51,337.8,2.76,335Z"/><path class="cls-4" d="M123.26,522.05a26.77,26.77,0,0,1-9.19-1.64,19.24,19.24,0,0,1-4-2.11c-5.94-4-16.54-7.72-31.52-11.06l-2.17-.48,8.85-86.35a37.81,37.81,0,0,1-3.42-5.76c-9.56-20,1.27-43.77,6.26-52.89l-77.66-19.2c-5.64-1.14-9.25-3.38-10.19-6.28-.52-1.61.14-5.55,1.31-6.81,2.23-2.4,7-3,12.86-1.61L99.19,347c1.65-1.63,3.44-3.23,5.32-4.77,36.6-30,113.47-38.81,155.19-17.88l1.13.57c6.14,3.14,20.53,10.47,38.05,8.37,10.15-1.21,20.05-5.43,29.43-12.53l3,4c-10.09,7.64-20.8,12.18-31.85,13.51-19,2.28-34.36-5.54-40.91-8.88l-1.1-.56c-18.8-9.43-46.49-13-76-9.76-29.91,3.27-56.81,13.13-73.81,27a71,71,0,0,0-5.88,5.36l-.94,1-87.58-19.7c-4.55-1.09-7.57-1.14-7.9-.05-.65,2.19,1.88,4.14,6,5l.1,0,84.25,20.82L94,361.43c-3,4.93-17.5,30.56-7.71,51.06a32.82,32.82,0,0,0,3.48,5.7l.6.78-8.59,83.89c14.64,3.38,24.81,7.08,31,11.28a14.45,14.45,0,0,0,3.07,1.61c4.63,1.78,13,2.51,17.22-2.79a12.58,12.58,0,0,0,1.54-12.28c-2.55-5.95-11.5-10.42-22.08-7.59l-3.41.91L115.05,418l3.66,2.84a121,121,0,0,0,34,18.59c27.72,9.74,58.12,8.81,90.35-2.78a191.29,191.29,0,0,0,46.23-24.19c31.72-23.3,48.57-53.65,57.12-75l4.64,1.86c-8.79,22-26.13,53.17-58.8,77.17a196.34,196.34,0,0,1-47.5,24.86c-33.34,12-64.87,12.93-93.7,2.8a125.22,125.22,0,0,1-31.71-16.62l-4.66,60.07c10.82-1.62,21,2.86,24.57,11.16A17.58,17.58,0,0,1,137,516.05C133.4,520.64,128.1,522.05,123.26,522.05Z"/><g id="LEG"><path class="cls-1" d="M228.68,396.21l19.64,33.38s2.35,5.87-2,8.58-34.88,23.11-34.88,23.11c4,6.85,22.2,29.67,23.93,32.08,1.89,2.63,1.76,4.2,2.77,5.9,2.35,3.93,10.55,8.14,16.31,5.94,6.7-2.56,8.36-10.5,7.6-15.55C260.9,482,253.8,469.47,243.81,468l38-25.42s4.13-3.73.39-9.14-19.64-33.85-19.64-33.85"/><path class="cls-2" d="M231,395.27c6.73,8.13,13.3,19.37,21.67,31.88,0,0,5.81,8.91-1.05,13.42-5.36,3.58-31.51,22.58-31.51,22.58L239.88,490c1,1.21,1,3.29,2.71,7s6.79,6.07,6.59,5.85l-.94.77-9.15-4.52L234.63,489l-20.56-27.23,24.06-18.92,10.75-8.74-.28-3.65-19-34.52Z"/><path class="cls-4" d="M251,508.61c-6.29,0-12.91-4.06-15.21-7.92a12.45,12.45,0,0,1-1.12-2.58,10.18,10.18,0,0,0-1.52-3.12c-.4-.55-1.9-2.47-3.79-4.91C222.89,481.82,212.14,468,209,462.7l-1.34-2.28,2.2-1.46c1.25-.84,30.61-20.46,34.94-23.16,2-1.27,1.19-4.26.94-5l-19.52-33.15a2.8,2.8,0,0,1,4.83-2.84l19.76,33.56.07.2c1.12,2.78,1.9,8.87-3.11,12-3.57,2.23-25.36,16.76-32.52,21.54,4.13,6.15,13.25,17.87,18.45,24.55,2.08,2.68,3.46,4.44,3.92,5.09a15.54,15.54,0,0,1,2.28,4.59,6.92,6.92,0,0,0,.62,1.5c1.77,3,8.68,6.37,12.9,4.76,5.32-2,6.4-8.75,5.83-12.51-1.1-7.25-7.67-18.09-15.88-19.27l-7.24-1,43.9-29.33c.58-.62,1.86-2.5-.13-5.37-3.77-5.46-19.14-32.91-19.79-34.08a2.8,2.8,0,1,1,4.89-2.73c.16.28,15.88,28.39,19.51,33.62,4.06,5.88,1.24,11-.82,12.82l-.32.25-33.35,22.28c8.16,4.39,13.65,14.65,14.77,22,.86,5.71-.93,15.36-9.37,18.59A12.73,12.73,0,0,1,251,508.61Z"/></g><path class="cls-2" d="M159.49,339.41c4,.92,7.75,4.68,7.08,8.77-.93,5.66-8.76,7.56-10.9,12.89-1.24,3.1-.25,6.72-1.24,9.91-1.5,4.83-6.81,7.18-11.53,8.95-3.44,1.28-7.48,2.52-10.59.57-2.31-1.45-3.35-4.23-4.23-6.82L123.41,360c-1-3.05-2.09-6.25-1.52-9.41.87-4.77,5.34-8.22,10-9.39S155.45,338.5,159.49,339.41Z"/><path class="cls-6" d="M157.56,339c3.8.87,7.29,4.4,6.66,8.24-.87,5.33-8.23,7.11-10.24,12.12-1.17,2.92-.24,6.32-1.17,9.33-1.41,4.53-6.4,6.74-10.85,8.4-3.23,1.21-7,2.37-9.94.54-2.18-1.36-3.16-4-4-6.4l-4.38-12.84c-1-2.86-2-5.87-1.43-8.84.81-4.48,5-7.73,9.44-8.82S153.77,338.1,157.56,339Z"/><path class="cls-2" d="M180.67,389.85c3.37-1.73,5.8-2.39,8.47-2.37,4.35,0,9.11,2.16,10.29,6.34.66,2.35.14,4.94,1,7.21,1.91,5,8.81,5.45,12.75,9a9.69,9.69,0,0,1-8.74,16.56c-2.7-.64-5.12-2.44-7.89-2.57-3.55-.16-6.54,2.41-9.53,4.33s-7.26,3.17-9.85.74c-3.29-3.09-.79-9-3.17-12.87s-7.89-3.64-11.21-6.51c-3.94-3.4-3.44-9.54-2.61-14.68a22.82,22.82,0,0,1,2.1-7.42c3.48-6.2,10.79-5.34,13.06.75C176.27,390.7,178.22,391.27,180.67,389.85Z"/><path class="cls-6" d="M182,388.49c3.38-1.74,5.8-2.39,8.47-2.37,4.35,0,9.11,2.16,10.29,6.34.66,2.35.14,4.94,1,7.21,1.91,5,8.8,5.45,12.74,9a9.69,9.69,0,0,1-8.74,16.57c-2.7-.64-5.11-2.44-7.89-2.57-3.55-.16-6.54,2.41-9.53,4.33s-7.26,3.17-9.85.74c-3.29-3.09-.79-9-3.17-12.87s-7.89-3.64-11.21-6.51c-3.94-3.4-3.44-9.54-2.61-14.68a22.75,22.75,0,0,1,2.1-7.42c3.48-6.2,10.8-5.34,13.06.75C177.63,389.34,179.58,389.91,182,388.49Z"/><path class="cls-2" d="M249.34,344.34c10.35-8.9,27.53-6,34,6.13,2.51,5.66,4,11.75,6,17.59.4,1.24.79,2.64.17,3.78-1.67,2.68-5.22,1.08-7.67.65-7.26-.94-12.28,6.68-19.06,7.75s-12.74-4.2-19.46-5c-3.55-.42-7.27.41-10.66-.73a9.63,9.63,0,0,1-4.07-15.46c1.42-1.57,3.37-2.69,4.4-4.54.93-1.66,1-3.67,1.8-5.4a8.58,8.58,0,0,1,6.24-4.57C243.31,344.14,247.13,345.79,249.34,344.34Z"/><path class="cls-6" d="M251.25,343.24c10.17-8.75,27.07-5.92,33.41,6,2.47,5.56,3.89,11.56,5.9,17.3.39,1.21.77,2.59.17,3.71-1.65,2.64-5.14,1.07-7.55.64-7.13-.92-12.07,6.57-18.74,7.62s-12.52-4.13-19.13-4.92c-3.49-.41-7.15.41-10.48-.71a9.46,9.46,0,0,1-4-15.2c1.39-1.55,3.31-2.65,4.33-4.46.91-1.63,1-3.62,1.77-5.31a8.4,8.4,0,0,1,6.13-4.5C245.31,343.05,249.07,344.67,251.25,343.24Z"/><path class="cls-4" d="M126.73,518.77a1.87,1.87,0,0,1-1.81-1.44,12.19,12.19,0,0,0-4.18-6.76,1.86,1.86,0,1,1,2.12-3.05,15.72,15.72,0,0,1,5.68,9,1.86,1.86,0,0,1-1.39,2.23A1.51,1.51,0,0,1,126.73,518.77Z"/><path class="cls-4" d="M133.67,515.65a1.93,1.93,0,0,1-1.87-1.48,12.71,12.71,0,0,0-4.32-7,1.92,1.92,0,1,1,2.19-3.15,16.27,16.27,0,0,1,5.87,9.28,1.91,1.91,0,0,1-1.44,2.3A1.58,1.58,0,0,1,133.67,515.65Z"/><path class="cls-4" d="M42.81,478a1.87,1.87,0,0,1,.12-2.31A12.18,12.18,0,0,0,46,468.35a1.86,1.86,0,0,1,3.71-.07,15.71,15.71,0,0,1-4,9.86,1.86,1.86,0,0,1-2.62.17A2.15,2.15,0,0,1,42.81,478Z"/><path class="cls-4" d="M49.39,481.81a1.91,1.91,0,0,1,.12-2.38,12.53,12.53,0,0,0,3.16-7.59,1.92,1.92,0,0,1,3.84-.06A16.17,16.17,0,0,1,52.4,482a1.92,1.92,0,0,1-2.71.18A1.87,1.87,0,0,1,49.39,481.81Z"/><path class="cls-4" d="M243.12,502.7a1.84,1.84,0,0,1-.23-2.29,12.24,12.24,0,0,0,2-7.71,1.86,1.86,0,1,1,3.66-.61A15.66,15.66,0,0,1,246,502.42a1.85,1.85,0,0,1-2.57.55A1.39,1.39,0,0,1,243.12,502.7Z"/><path class="cls-4" d="M250.18,505.52a1.94,1.94,0,0,1-.23-2.38,12.69,12.69,0,0,0,2-8,1.92,1.92,0,1,1,3.78-.63,16.19,16.19,0,0,1-2.57,10.68,1.92,1.92,0,0,1-2.66.57A2.24,2.24,0,0,1,250.18,505.52Z"/><path class="cls-4" d="M279,521.5a1.85,1.85,0,0,1-1.8-1.44,12.3,12.3,0,0,0-4.18-6.77,1.85,1.85,0,0,1,2.11-3,15.66,15.66,0,0,1,5.68,9,1.85,1.85,0,0,1-1.38,2.23A2.18,2.18,0,0,1,279,521.5Z"/><path class="cls-4" d="M285.93,518.38a1.93,1.93,0,0,1-1.87-1.49,12.54,12.54,0,0,0-4.32-7,1.92,1.92,0,0,1,2.19-3.16A16.26,16.26,0,0,1,287.8,516a1.92,1.92,0,0,1-1.43,2.31A2.2,2.2,0,0,1,285.93,518.38Z"/><path class="cls-1" d="M287.38,119.84a41.3,41.3,0,0,0,.78-9.32c-.16-5.1-1.24-9.21-4.23-17.61-4.73-13.31-5.36-12.43-7-18.62-1.91-7-2.25-12.5-2.65-19.05-.62-10.14-1-15.72.78-23,1.6-6.61,3.7-15.33,11.6-20.82,7-4.86,14.64-4.48,17.3-4.34,15.95.32,23.95,9.25,19.74,25.71-2,9.38-6.3,10.49-10.91,23.64-1.52,4.3-2.71,7.71-3.12,12.58-.36,4.24.11,6.89,2.7,19.76,2.73,13.61,3.14,15.29,3.75,19.22a156.58,156.58,0,0,1,1.69,17.33"/><path class="cls-5" d="M315.12,111.32c-3.34-13.64-5.9-23.22-8-30.44a36.8,36.8,0,0,1-1.62-8.9,41.21,41.21,0,0,1,3-16.93c.57-1.55.57-1.31,7.46-15.07,2.77-5.52,4.17-8.35,4.48-11.58.11-1.18.62-6.48-2-11.1-3.55-6.27-11.89-9.58-21-8.6l12.35-.18,8.65,3.42,6.24,7.16-.35,10.66-2.84,9.29-4.9,9L313,55.79l-3.68,15.43,6.55,39v1.32Z"/><path class="cls-2" d="M290.18,105.6c0-.57,2.37-1.22,1.71-7.39A64.84,64.84,0,0,0,288.06,86a140.44,140.44,0,0,1-5.78-16.42c-3.5-12.6-.91-23.38-.57-27.12.54-5.85,2.24-13.92,7.79-20,9.45-10.38,28.4-6.62,32-6.69L313.9,8.82,296.49,7.67l-10.32,4.72L279,22.13l-2.63,8-1.71,16.64,1.29,17.76,2.68,11.92,4.71,13.54,5.19,16Z"/><path class="cls-4" d="M286.82,119.73a41.46,41.46,0,0,0-1.05-16.15c-1.49-5.2-3.61-10.4-5.59-15.55-1.46-3.93-3.51-7.7-4.74-11.76-2.13-6.81-2.85-14-3.25-21.06-.34-5.56-.88-11.2-.34-17.05a52.27,52.27,0,0,1,1.59-8.53c1.37-5.65,3.44-11.45,7.42-15.95,7.43-8.52,18.37-10,29-8.25,13.06,2.27,18.94,11.92,16.63,24.69-.15.67-.52,2.49-.69,3.19-.81,4.24-3.13,8.59-5.39,12a65.16,65.16,0,0,0-6.74,14.75,39,39,0,0,0-1.89,7.72,26.22,26.22,0,0,0,.06,7.81c.77,5.38,2,10.88,2.91,16.36l1.48,8.24a125.53,125.53,0,0,1,2.07,25.16l-1.07.05q-.84-8.3-2.36-16.48c-1.58-8.1-3.7-16.3-5.33-24.46-.82-4.18-1.87-8.37-2-12.73-.09-7.4,2.48-14.24,5.22-21,2-5.1,5.83-9.72,7.71-14.67,4-12.17,3.08-23.63-11.4-26.22-12.36-1.92-23.62.89-28.94,13.24a60.76,60.76,0,0,0-4,15.49c-.55,5.27-.11,10.81.17,16.37.42,8.28,1.1,16.32,4.2,24,2.21,5.1,4.17,10.48,5.86,15.79a78.21,78.21,0,0,1,2.24,8.22,36.57,36.57,0,0,1-.63,17l-1.13-.22Z"/><path class="cls-4" d="M300.43,100.94a141.7,141.7,0,0,1-8.24-67.83,7.4,7.4,0,1,1,14.7,1.74,140.2,140.2,0,0,0-5.42,32.61,136.17,136.17,0,0,0,2.63,32.42,1.92,1.92,0,0,1-3.67,1.06Z"/><path class="cls-1" d="M304.69,348.81c-4.6-21.41-21.3-42.53-24.35-45.57-41-40.72-39.59-112.51-39.38-123,.63-32,10.51-45.54,15-50.76,21.06-24.55,52.18-23.07,67-16.6,10.51,4,20,11.15,34.82,31.24,21.73,29.54,37.66,51.2,41,84.61,3,30.55-6.12,53.91-12,69-15.37,39.13-45.47,69-61,81.82"/><path class="cls-1" d="M304.7,348.81c-4.6-21.41-21.3-42.53-24.36-45.57-41-40.72-39.58-112.51-39.37-123,.63-32,10.51-45.54,15-50.76,21.06-24.55,52.17-23.07,67-16.6,10.51,4,20,11.15,34.82,31.24,21.72,29.54,37.66,51.2,41,84.61,3.06,30.55-6.12,53.91-12,69-15.37,39.13-45.47,69-61,81.82"/><path class="cls-2" d="M276.73,119.28S250.5,134.15,250.5,200.7c.68,25.17,1.52,53.11,22.8,93.45,0,0-20.42-25.36-25-53.45s-6.48-34.94-6.48-34.94V170.4l5.46-23.15,7.49-15.48L267,119.51Z"/><path class="cls-4" d="M325.76,382a2.5,2.5,0,0,1-1.59-4.43c9.9-8.18,43.51-38.19,60.25-80.81,5.92-15.08,14.87-37.87,11.88-67.82-3.27-32.72-18.9-54-40.53-83.37-14.89-20.25-23.93-26.64-33.7-30.39l-.1,0c-14.21-6.19-44.18-7.34-64.14,15.93-9.1,10.65-13.94,27.2-14.37,49.18-.48,24.42,2.33,85.11,38.64,121.19,2.49,2.48,20.15,24.11,25,46.81a2.5,2.5,0,1,1-4.88,1.05c-4.56-21.2-21.43-42.09-23.68-44.32-37.68-37.43-40.6-99.76-40.11-124.83.45-23.17,5.69-40.78,15.57-52.33,21.85-25.47,53.74-24.3,69.88-17.29,10.3,4,20.36,11,35.89,32.07,22.1,30.05,38.06,51.76,41.47,85.84,3.12,31.15-6.1,54.62-12.2,70.15-17.17,43.73-51.58,74.46-61.72,82.83A2.48,2.48,0,0,1,325.76,382Z"/><path class="cls-1" d="M329.76,151.23c8.18,30.13,26.44,46.21,41.95,47.8,10.87,1.11,20.66,3.11,20.66,3.11,8.32.07,10.17-1.36,15-.62,11.82,1.82,19.28,13.29,21.92,17.36,13.57,20.88,5.41,44.93,5,46.07-6.14,17.16-20.1,26.76-44,30.85-27.68,33.33-80-13.67-88.47-34a31.21,31.21,0,0,1,.61-25.92C329.84,233.93,342.73,191.19,329.76,151.23Z"/><path class="cls-5" d="M328.25,296.42s22.07-24.29,59.06-.5l-4,4.35C364.39,290,346.05,288.79,328.25,296.42Z"/><path class="cls-2" d="M308.41,111.74c17.28,13,65.34,73.54,95,97.29,23.45,16.24,31.86,39.41,20.9,71,0,0,22.73-9.19,6.52-59.36,0,0-17.41-7.28-39.71-16-1.62-15.82-12.72-34.23-30.46-54.46C356.11,146.06,334.47,111.26,308.41,111.74Z"/><g id="right_EYE" data-name="right EYE"><path class="cls-1" d="M336.53,154.28c2.54-5.7,9.43-11.88,19.58-8.22,3.76,1.58,5.69,4.32,8.34,8.09a40,40,0,0,1,5.46,11.7c1.6,5.55,2.85,9.89,1.18,14.92-.4,1.22-2.17,6.31-7.12,9C349.63,198.26,330,169.6,336.53,154.28Z"/><path class="cls-4" d="M358.4,193.55c-4.07,0-8.38-1.83-12.49-5.42-9.24-8.06-16.05-23.94-11.48-34.74l0,0c3.24-7.28,11.64-13.33,22.43-9.44l.11,0c4.37,1.83,6.55,4.94,9.32,8.88a42.21,42.21,0,0,1,5.78,12.38c1.64,5.67,3.05,10.57,1.16,16.27a17.94,17.94,0,0,1-8.16,10.23A13,13,0,0,1,358.4,193.55Zm-19.78-38.36C334.89,164,341,177.84,348.9,184.7c2.89,2.52,8.53,6.27,13.9,3.08l.09-.05a13.47,13.47,0,0,0,6-7.67c1.44-4.36.33-8.23-1.21-13.58a37.41,37.41,0,0,0-5.14-11c-2.51-3.58-4.17-6-7.3-7.28C346.07,144.9,340.48,151,338.62,155.19Z"/><path d="M338.2,160.35a13.42,13.42,0,0,1,6.36-6.56,13.25,13.25,0,0,1,10.14-.26c3.17,1.3,4.79,3.57,7,6.68a32.44,32.44,0,0,1,4.59,9.68c1.34,4.59,2.39,8.18,1,12.35a13.2,13.2,0,0,1-6,7.42,12.69,12.69,0,0,1-5.33,1.32C346.22,190.92,333.12,171.64,338.2,160.35Z"/><path class="cls-1" d="M351.93,160c-.95,1.57-.87,3.24-.64,5.06,1.23,9.87,5.51,15.82,7.46,16.27,5.58,1.29,6.67-4,6.51-8.63,0-1.38-.12-7.86-4.73-12.79C357.35,156.05,353.93,157,351.93,160Z"/><path class="cls-4" d="M356.7,192.86l-.77,0c-6.17,0-12.15-5.95-15.69-11.47-3.87-6-6.89-14.92-3.77-21.84h0a15.38,15.38,0,0,1,7.28-7.5,15,15,0,0,1,11.68-.3c3.67,1.51,5.5,4.08,7.83,7.34a34.89,34.89,0,0,1,4.87,10.25c1.37,4.7,2.55,8.76,1,13.49a13.81,13.81,0,0,1-12.39,10Zm-16.77-31.73c-2.49,5.53.18,13,3.51,18.22,3.71,5.8,8.74,9.7,12.51,9.73a10,10,0,0,0,9.53-7.45c1.22-3.6.29-6.79-1-11.2a30.81,30.81,0,0,0-4.31-9.11c-2.13-3-3.53-4.94-6.19-6a11.31,11.31,0,0,0-8.62.22,11.55,11.55,0,0,0-5.43,5.62Z"/></g><path class="cls-4" d="M336.38,157.29c1.46,7,26.49.15,25.06-7.88l-5.77-4.58-7.05-.75-9.54,5.3Z"/><path class="cls-5" d="M325,293.72s27.57-37.7,91.14-10.64c0,0,12-11.65-2.55-52.34-7.15-12.08,5.83,34.15,2.81,45.2C364.59,257.2,332.37,271.21,325,293.72Z"/><path id="jou" class="cls-5" d="M328.28,150.72s11.11,46.36,49.41,53.94v8.72C345.65,208.26,323.68,179.47,328.28,150.72Z"/><path class="cls-4" d="M382.89,304.53l-1.53-.75c-22.35-10.95-34.92-14.61-53.54-.82a2.5,2.5,0,1,1-3-4c21-15.55,36.47-10.45,57.22-.37,6.62-5.48,14.29-7.95,21.73-10.34,10-3.22,19.47-6.25,24.89-16.56,6.43-12.22,8.16-24.25,5.16-35.74-.08-.27-.16-.59-.25-1-1.13-4.54-3.78-15.19-12.57-23.38-2.29-2.13-7.06-6.58-14-7.61-1.85-.28-6.11,0-10.63.21-8.92.49-20,1.1-27.19-1-16.44-4.52-36.23-20.71-42.41-52.57a2.5,2.5,0,1,1,4.9-.95c5.75,29.62,23.85,44.58,38.87,48.7,6.38,1.84,17.46,1.23,25.55.78,5.2-.28,9.31-.51,11.65-.15,8.52,1.25,14.26,6.61,16.72,8.89,9.87,9.21,12.88,21.29,14,25.83.08.34.16.64.22.9,3.33,12.73,1.46,26-5.57,39.33-6.36,12.11-17.25,15.61-27.78,19-7.42,2.38-15.09,4.85-21.18,10.4Z"/><path class="cls-4" d="M325.69,300a2.5,2.5,0,0,1-2.25-3.58c6.11-12.8,18.09-21.28,34.65-24.51,22.4-4.38,46.82,2.06,58.13,10.85,3.2-3.45,4.7-11.2,4-21C418.73,242.32,408.85,219,392.8,212l-.3-.15a54.05,54.05,0,0,0-18.73-6.79l-.35-.09-1.31-.42C361,201,342.29,195,327.4,152a2.5,2.5,0,1,1,4.72-1.63c14.07,40.55,30.59,45.87,41.52,49.39l1.17.38A58.77,58.77,0,0,1,395,207.5c17.77,7.85,28.65,33,30.22,53.88,1,13.3-1.78,23-7.64,26.71l-3-.27c-9.55-8.71-34.12-15.22-55.47-11.05-10.42,2-24.27,7.47-31.1,21.77A2.52,2.52,0,0,1,325.69,300Z"/><path class="cls-5" d="M365.27,210.83s-4,6-3.41,20.68,12.42,12.66,12.42,12.66,16.9-2.52,28.69,2.91,12.73-6.16,12.73-6.16"/><path d="M364.76,208.85c5.07-15.45,18.31-22.91,19.21-23.4,13.15-7.15,25.68-4.4,30-3.46,4.66,1,10.38,2.37,15.31,7.38a24.08,24.08,0,0,1,6.66,13.39c.72,5.44-.81,9.43-2.82,14.68-2.71,7.1-6.13,11.11-12.14,18.17-4.26,5-6.83,7.08-9.95,7.12a9.59,9.59,0,0,1-4.87-1.56c-10.52-5.54-25.61-5.18-30-5.07-2.81.06-5.2.31-7.59-1.22-.61-.4-3.34-2.26-4.81-8.57A32.83,32.83,0,0,1,364.76,208.85Z"/><path class="cls-6" d="M261.13,162.64c10.26-19.24,35.41-27.92,50.69-15.52,3.71,2.83,5.94,6.43,10.24,13.5,3.53,5.79,6.33,10.45,9,17.34,2.16,5.67,3.42,9.06,3.45,13.93-.18,9.37-2.12,17.08-16.4,23.57-13.51,6.64-28.17,8.38-39.77,3.49-10.66-4.49-18.72-14.6-20.88-31.68C256.87,183,255.72,173,261.13,162.64Z"/><path class="cls-1" d="M293.12,205.33c-15.27-3.79-24.84-31.26-9.62-46.21,9.35-8.64,20.37-5.92,27.58,3.1,5.77,6.63,6.5,14.18,7,19.12.64,6.59,1.22,12.62-2.72,17.45s-10.54,6-13.4,6.48A21.77,21.77,0,0,1,293.12,205.33Z"/><path class="cls-4" d="M297.07,208.26a19.87,19.87,0,0,1-4.53-.5h0c-8.08-2-15.12-10-17.94-20.29-3.11-11.39-.43-22.65,7.18-30.12,4.65-4.3,9.95-6.32,15.35-5.92,5.85.44,11.49,3.71,15.9,9.2,6.27,7.23,7.07,15.52,7.55,20.48.64,6.71,1.31,13.64-3.27,19.27s-11.83,6.84-14.92,7.37A30.61,30.61,0,0,1,297.07,208.26Zm-3.37-5.36a19.61,19.61,0,0,0,7.82-.09c2.75-.47,8.48-1.44,11.88-5.6s2.77-9.41,2.17-15.63c-.45-4.65-1.13-11.69-6.38-17.72l-.06-.08c-3.54-4.42-7.94-7-12.4-7.37-4-.31-8,1.27-11.53,4.55-6.24,6.13-8.43,15.57-5.81,25.18C281.74,194.74,287.36,201.31,293.7,202.9Z"/><path d="M292.15,204.32c-11.88-2.95-19.33-24.32-7.48-36a14.62,14.62,0,0,1,9.69-4.1c6.12,0,10.14,4.64,11.76,6.51,4.5,5.16,5.07,11,5.44,14.88.49,5.13.94,9.82-2.12,13.58s-8.2,4.67-10.43,5.05A17.13,17.13,0,0,1,292.15,204.32Z"/><path class="cls-1" d="M298.73,169.42c-1.21,1.39-1.42,3-1.51,4.88-.51,9.92,2.68,16.53,4.51,17.32,5.28,2.24,7.28-2.82,7.92-7.38.24-1.35,1.24-7.75-2.44-13.41C304.76,166.45,301.23,166.76,298.73,169.42Z"/><path class="cls-4" d="M296.42,206.56a16.07,16.07,0,0,1-4.72-.35h0c-6.29-1.56-11.77-7.76-14-15.79-2.42-8.87-.33-17.63,5.59-23.45,3.48-3.12,7.18-4.67,11.07-4.66,7,0,11.52,5.23,13.22,7.18,4.91,5.64,5.53,12.11,5.9,16,.51,5.21,1,10.61-2.54,15s-9.21,5.33-11.61,5.73A24.59,24.59,0,0,1,296.42,206.56Zm-3.82-4.13a15.55,15.55,0,0,0,6.09-.07c2.14-.36,6.6-1.12,9.24-4.36s2.16-7.32,1.69-12.16c-.35-3.62-.88-9.1-5-13.79-1.52-1.75-5.08-5.82-10.31-5.85a12.41,12.41,0,0,0-8.38,3.61c-4.84,4.75-6.55,12.1-4.5,19.58C283.29,196.08,287.67,201.2,292.6,202.43Z"/><path class="cls-4" d="M278.73,164.22c13.39,6.7,24.71,5.62,33.88-3.45l-5.26-7.31-6-1.82-7.71.21-8.14,2L280.46,156A6.55,6.55,0,0,0,278.73,164.22Z"/><path class="cls-6" d="M316.38,155.58s-19,12.46-42.17,6.6l3.32-8.44,17.12-7Z"/><path d="M309.91,147.17c-6.53,12.21-25,16.91-33.4,6a.85.85,0,0,1,.44-1.27A121.35,121.35,0,0,0,309.39,146C309.87,145.83,310.17,146.67,309.91,147.17Z"/><path d="M363.3,138.47c-2.91,12.46-24.56,18.83-33.06,8.4a.61.61,0,0,1,.4-1c6.18-.51,26.78-4.95,31.77-8,.47-.17,1,.17.89.61Z"/><path class="cls-4" d="M360.07,333.37a2.48,2.48,0,0,1-2.37-1.71c-.16-.44-3.5-9.3-19.84-5.84a2.5,2.5,0,0,1-1-4.89c21-4.45,25.44,8.62,25.62,9.18a2.48,2.48,0,0,1-2.38,3.26Z"/><path class="cls-4" d="M327.32,316.24l-.27,0a2.5,2.5,0,0,1-2.22-2.75c1.75-16.23-9.78-23.3-10.27-23.6a2.5,2.5,0,0,1,2.54-4.31c.6.36,14.81,8.91,12.7,28.45A2.49,2.49,0,0,1,327.32,316.24Z"/><path class="cls-5" d="M330.75,333.06S354,328.44,356,340.38C350.89,336,341.86,333.93,330.75,333.06Z"/><path class="cls-1" d="M388.93,199.29h30.63c3.39,0,3-4.07,0-6.25,0,0-3.83-3.71-14.21-4-10.48,0-14.74,2.39-16.42,3.62C385.83,195,385,199.29,388.93,199.29Z"/><path class="cls-1" d="M403.29,204.14H394.1c-1,0-.75,1.22,0,1.88,0,0,1.15,1.19,4.26,1.19a10.22,10.22,0,0,0,4.93-1.09C404.17,205.47,404.46,204.14,403.29,204.14Z"/><g id="EAR_1" data-name="EAR 1"><path class="cls-1" d="M271.48,122.67c.14-1.22-.4-3.15-1.71-7.11-1.73-5.22-4.1-9.13-9.76-16.89-9-12.27-9.35-11.17-13-17-4.13-6.68-6.15-12.21-8.57-18.85-3.75-10.28-5.82-15.93-6.23-23.92-.38-7.31-.88-17,5.59-25,5.73-7.16,13.73-9.1,16.52-9.78C270.9-.54,281.9,6.23,282.6,24.5c.81,10.3-3.29,12.76-4,27.75-.24,4.9-.43,8.78.64,13.93.93,4.49,2.23,7.08,8.84,19.57,7,13.21,7.93,14.82,9.76,18.69,1.23,2.59,3.73,8.36,4.59,10.65"/><path class="cls-2" d="M272.05,123c1.38-.37,5.34-7.33-11.3-32.21-10.4-12.93-15-27.91-16.84-34.25-3.5-11-6.46-23-1.19-34.88,6.86-14.25,28.15-16,28.15-16l-6.13-2.49L246.35,8.34l-8,6.45-4.68,11.74L234.2,44l2.44,10.18,5.61,14.88,5.48,11.87,5.1,7,5.91,6.75,3.39,6.09,3.89,6.32,3.29,6.34Z"/><path class="cls-4" d="M270.69,122.58a13.94,13.94,0,0,0-1-3.86,44.41,44.41,0,0,0-5.56-11.39,251.63,251.63,0,0,0-16-20.39c-5.56-7.07-9-15.57-12-23.8-2-5.43-4.17-10.9-5.42-16.88-2-11.84-2.53-25.77,6.1-35.3,7.37-8.53,23.86-13.46,34.83-9.66C283.23,5.31,286,19,285.28,29.8c-.4,4.44-2.09,8.87-2.91,13-1.41,8-2.26,16.75-.25,24.69,1.54,5.15,4.61,10.34,7,15.3,1.94,3.86,5.8,11.72,7.66,15.63A139.57,139.57,0,0,1,303,114.85a.67.67,0,0,1-.42.85.69.69,0,0,1-.81-.32c-2.82-5.08-5.16-10.33-8.17-15.29-2.21-3.75-6.53-11.3-8.64-15.1-2.76-5.27-6-10.35-7.73-16.14-2.33-8.79-1.56-18.21-.07-27.09,1-5.37,3-10,2.78-15.39-.15-7.67-2-17.2-10.15-20-5-1.76-10.35-.94-15.53.41a26.48,26.48,0,0,0-13.61,7.62C235,20.48,234.1,29,234.56,37.05c.05,8.62,2.93,16.35,5.88,24.54s5.94,16,11,22.8c3.58,4.4,7.27,9.21,10.49,14,4.26,6,8.16,12.49,9.73,19.78a13,13,0,0,1,.63,4.64.8.8,0,0,1-1.59-.19Z"/></g><path class="cls-4" d="M274.77,98.83a152.72,152.72,0,0,1-26.62-68.58A8,8,0,1,1,264,28.16a150.14,150.14,0,0,0,3,35.46,145.83,145.83,0,0,0,11.36,33.12,2.07,2.07,0,0,1-3.56,2.09Z"/></g></svg>