<svg xmlns="http://www.w3.org/2000/svg" width="298.14" height="492.44" viewBox="0 0 298.14 492.44"><defs><style>.cls-1{isolation:isolate;}.cls-2,.cls-5{fill:#9c9c9c;}.cls-3,.cls-6{mix-blend-mode:multiply;}.cls-4,.cls-6{fill:#d28c37;}.cls-5{mix-blend-mode:overlay;}.cls-7{fill:#fff;}.cls-8{fill:#eee;}.cls-9{fill:#7a7a7a;}.cls-10{fill:#ccc;}.cls-11{fill:#929899;}.cls-12{fill:#8e6131;}.cls-13{fill:#5a5958;}.cls-14{mix-blend-mode:screen;}.cls-15{fill:#b2b2b2;}.cls-16{mix-blend-mode:darken;}.cls-17{fill:#513f37;}.cls-18{fill:#3f2c25;}.cls-19{fill:#937b70;}.cls-20{fill:#8e8e8e;}.cls-21{fill:#ababab;}.cls-22{fill:#facc59;}.cls-23{fill:#d4a241;}.cls-24{fill:#e3e3e3;}</style></defs><g class="cls-1"><g id="Layer_17" data-name="Layer 17"><path class="cls-2" d="M257.53,271.89l-7.16,16.87a3.11,3.11,0,0,0,1.74,4l14.16,6a3.11,3.11,0,0,0,4.1-1.56l7.15-16.87Z"/><path d="M266.11,299.18l-14.16-6a3.52,3.52,0,0,1-2-4.57l7.32-17.26,20.76,8.81-7.32,17.25A3.52,3.52,0,0,1,266.11,299.18Zm-8.36-26.75-7,16.49a2.69,2.69,0,0,0,1.51,3.49l14.16,6a2.7,2.7,0,0,0,3.56-1.34l7-16.5Z"/><path class="cls-2" d="M280,281.41l7.4,3.13a3.12,3.12,0,0,0,4.08-1.7l6-14.16a3.14,3.14,0,0,0-1.61-4.13l-7.4-3.14-2.17-.92-1.24,2.92-6,14.16-1.23,2.92Z"/><path d="M287.22,284.92l-10-4.22,8.8-20.75,9.95,4.22a3.55,3.55,0,0,1,1.83,4.67l-6,14.16A3.53,3.53,0,0,1,287.22,284.92Zm-8.87-4.65,9.19,3.89a2.72,2.72,0,0,0,3.54-1.48l6-14.17a2.72,2.72,0,0,0-1.4-3.58L286.51,261Z"/><rect class="cls-2" x="264.11" y="265.69" width="11.3" height="10.48" transform="translate(-85 413.49) rotate(-67.02)"/><path d="M272.6,278.72l-10.42-4.41,4.74-11.16,10.41,4.41Zm-9.33-4.85,8.89,3.77,4.08-9.64-8.88-3.77Z"/><circle class="cls-2" cx="260.71" cy="268.81" r="3.81"/><path d="M259.06,272.7a4.22,4.22,0,1,1,5.53-2.24A4.23,4.23,0,0,1,259.06,272.7Zm3-7a3.39,3.39,0,1,0,1.8,4.45A3.39,3.39,0,0,0,262,265.69Z"/><g class="cls-3"><circle class="cls-2" cx="260.71" cy="268.81" r="2.28"/><path d="M259.65,271.29a2.7,2.7,0,1,1,3.54-1.43A2.7,2.7,0,0,1,259.65,271.29Zm1.79-4.2a1.87,1.87,0,1,0,1,2.45A1.87,1.87,0,0,0,261.44,267.09Z"/></g><path class="cls-2" d="M273.73,278.32l3.84,1.63,1-2.35C278.43,274.62,275.06,275.18,273.73,278.32Z"/><path d="M277.78,280.49l-4.59-1.95.16-.38c.81-1.92,2.51-3.16,3.95-2.9a2.2,2.2,0,0,1,1.67,2.33v.09Zm-3.49-2.38,3.06,1.29.79-1.87c-.06-.84-.41-1.35-1-1.46C276.3,275.92,275.05,276.64,274.29,278.11Z"/><path class="cls-2" d="M265.41,267.13l-2.26,5.33-2.34-1C259,268.77,262.27,265.8,265.41,267.13Z"/><path d="M263.37,273l-2.84-1.2-.07-.1a3.14,3.14,0,0,1,.18-3.86,4.27,4.27,0,0,1,4.93-1.09l.38.16Zm-2.28-1.86,1.84.78,1.93-4.55a3.4,3.4,0,0,0-3.58,1A2.3,2.3,0,0,0,261.09,271.14Z"/><circle cx="269.44" cy="267.21" r="0.88"/><circle cx="272.48" cy="268.5" r="0.88"/><circle cx="269.79" cy="270.78" r="0.88"/><circle cx="272.86" cy="272.09" r="0.88"/><circle cx="266.6" cy="269.43" r="0.88"/><circle cx="266.97" cy="273.05" r="0.88"/><circle cx="270" cy="274.33" r="0.88"/><path class="cls-4" d="M272,265.57c-9.67-4.1-.12-9.68-1-12,2.12.84,1.63,2.83,0,4.85.68.28,1.08-.57,1.68-1.7,1.1.8.3,2.64.21,3.37,1.27-1.42,0-3.83.54-5.4.67-2.16,2-1.29,2.34-3.52,1.43,1-.6,4-.42,4.9.44-.88.79-2.73,1.55-3.45a4.27,4.27,0,0,0,.8-3.87c1.34.08,2.41,1.95.69,4.6-.81,1.1.18,3-.84,4.9.95,0,.17-4,2.62-3.56-1.41,1.43.83,5.29-2.2,6.53,1.07-1.4,2.45-2,3-1.44C279.52,262.26,280,269,272,265.57Z"/><path d="M271.84,266c-2.57-1.1-4-2.38-4.48-3.92-.59-2.09.86-4.13,2-5.78.7-1,1.44-2,1.25-2.53l-.32-.87.86.34a2.43,2.43,0,0,1,1.6,1.62,2.68,2.68,0,0,1-.06,1.45l.2.14h0a4.84,4.84,0,0,1,.1-1.83,3.27,3.27,0,0,1,1.39-1.9,1.94,1.94,0,0,0,.94-1.56l.11-.65.54.38a1.63,1.63,0,0,1,.68,1.38,3.83,3.83,0,0,0,.63-3.31l-.24-.6.65,0a2,2,0,0,1,1.68,1.15c.55,1.09.31,2.58-.67,4.09a2.23,2.23,0,0,0-.29,1.35,1.7,1.7,0,0,1,1.79-.65l.79.13-.56.57c-.45.46-.42,1.36-.39,2.32a9.28,9.28,0,0,1-.07,1.89,1.87,1.87,0,0,1,.32,0,1.16,1.16,0,0,1,.95.35l.21.22-.16.27a10.72,10.72,0,0,0-.75,2c-.54,1.74-1.14,3.71-2.94,4.55C276.22,267.2,274.32,267,271.84,266Zm-.39-11.68a7.85,7.85,0,0,1-1.39,2.46c-1.12,1.58-2.39,3.37-1.9,5.07.36,1.27,1.71,2.41,4,3.38s3.94,1.16,5.13.6c1.46-.68,2-2.47,2.5-4a14.33,14.33,0,0,1,.62-1.76h0a1.75,1.75,0,0,0-.68.23,2.91,2.91,0,0,1-1.58,1.4l-1.41.57.93-1.2a5.75,5.75,0,0,1,1.41-1.35,6.07,6.07,0,0,0,.2-2.3,6.35,6.35,0,0,1,.17-2.16c-.45.22-.65.84-.86,1.9-.16.81-.31,1.58-1,1.6l-.73,0,.35-.63a5,5,0,0,0,.45-2.67,3.5,3.5,0,0,1,.43-2.27c1.14-1.76.81-2.86.61-3.24a1.23,1.23,0,0,0-.4-.49,4.93,4.93,0,0,1-1,3.49l0,.05a5.71,5.71,0,0,0-1,2.1,10.24,10.24,0,0,1-.48,1.23l-.53,1.06-.24-1.16a3.76,3.76,0,0,1,.39-1.72,7.2,7.2,0,0,0,.54-2.16,2.66,2.66,0,0,1-1,1.06,2.4,2.4,0,0,0-1.08,1.48,5.51,5.51,0,0,0,0,2c.13,1.19.27,2.54-.6,3.51l-.9,1,.18-1.33a5.72,5.72,0,0,1,.13-.61,3.5,3.5,0,0,0,.14-2c-.51.94-1,1.71-1.9,1.34h0l-.51-.22.36-.43c1-1.25,1.49-2.37,1.29-3.14A1.27,1.27,0,0,0,271.45,254.28Z"/><path class="cls-5" d="M259.67,272.79l-2.14-.9-7.16,16.87a3.11,3.11,0,0,0,1.74,4l3.25,1.38a11.13,11.13,0,0,1-2.56-2.86c-.69-1.64.66-3.86.66-3.86Z"/><path class="cls-5" d="M295.86,264.55l-7.4-3.14-2.17-.92-.69,1.62,8.9,3.77c1.66.7,1.89,2,2,4.82l.84-1.66A3.37,3.37,0,0,0,295.86,264.55Z"/><path class="cls-6" d="M268.75,261c.11-2.22,1.76-3.68,2.11-4.2a3.44,3.44,0,0,0,.5-3,2,2,0,0,0-.33-.15c.85,2.3-8.7,7.88,1,12h0C270.67,264.75,268.67,263.13,268.75,261Z"/><path class="cls-6" d="M277.67,265.06a13.35,13.35,0,0,0,1.68-3.1c.11-.52.06-.74,1.12-2l.14.06c-.77.61-.28,8.69-7.91,5.45h0C274.08,265.81,276.4,266.2,277.67,265.06Z"/><g class="cls-3"><path class="cls-4" d="M275.11,253.69a3.75,3.75,0,0,0,1-2.14,1.1,1.1,0,0,0-.32-.36,3.27,3.27,0,0,1-.27.92Z"/><path class="cls-4" d="M273.89,258.69l-.23.95A2,2,0,0,0,273.89,258.69Z"/><path class="cls-4" d="M273.89,258.69c-.25-2-1-5.16,1.44-5.88.17,0-.27.59,0,.67a6.32,6.32,0,0,1-.75.7C274,254.79,274,257.27,273.89,258.69Z"/></g><path class="cls-6" d="M275.22,257.24c-.28-.28,1.2-4,1.55-4l1.27-2.2.24-1.68s1.27,1.36-1,4.7Z"/><path class="cls-6" d="M279.52,255a3.53,3.53,0,0,0-.65,2.53c.22,1.45-1.37,3.72-1.37,3.72l2-1.43L280,255Z"/><path class="cls-7" d="M153.06,399.92q-4,37.86-8,75.73c.68,1,1.26,1.94,2,2.89,4.84,1,11.25,1.94,15.75,3.07s8.58,3.2,12.25,4.23,5.88,1.73,9.07,2.33,5.71.29,8.8.71c2-.9,4-1.73,6-2.59l4.07-5.11c-.14-1.78-.29-3.57-.44-5.35q-2.13-2.94-4.28-5.86l-7.52-5.09c-3.23-.57-6.49-.88-9.68-1.66,1.31-9.47,3.31-22,4.45-30.85s2-16.78,2.78-24.09.58-11,1.15-17.65C177.67,395.89,165.76,398.25,153.06,399.92Z"/><path class="cls-8" d="M185.76,395.14l-7.56,65.7,3.46-.57q3.92-33.87,7.79-67.73Z"/><path class="cls-8" d="M173.09,465.88c6.74-1.11,17.58,2.76,21.7,6.48s3.11,7.16,3.79,10-.39.53.06,2.42a18.93,18.93,0,0,1,3.62-.4q-.15-6.32-.31-12.64c-3.46-2.46-6.92-4.9-10.38-7.37C185.38,464.6,179.07,464.62,173.09,465.88Z"/><path class="cls-8" d="M153.21,399.28q-3.79,38.18-7.57,76.31a32.4,32.4,0,0,0,2.73,2.54c6.41,1.85,17.56,4.71,22.85,6.36s4.48,2.22,8.61,3.66a48.3,48.3,0,0,1,6.65-1.11C179,481.48,170,482.51,162,477.73s-7.57,10.9-12.23-5.93,4.55-51.79,5.4-71.72C154.55,398.54,154.1,399.68,153.21,399.28Z"/><path class="cls-9" d="M191.76,492.38a2.89,2.89,0,0,1-.76-.1c-6.78-.35-13.38-1-19.58-4.28-4.53-2.42-13.27-3.95-19-5-1.46-.25-2.76-.48-3.84-.69-3.09-.61-4.71-1.26-5.52-3.32a.76.76,0,0,0,0-.11,3.74,3.74,0,0,0-.72-.44l-1.52-.8.2-1.71c1.78-15,3.31-30.33,4.79-45.15,1-10.24,2.08-20.84,3.21-31.25a2.5,2.5,0,1,1,5,.54c-1.13,10.39-2.19,21-3.21,31.21-1.43,14.33-2.9,29.13-4.61,43.7a5,5,0,0,1,1.49,1.94,13.19,13.19,0,0,0,1.92.48c1.05.21,2.32.43,3.74.68,6.45,1.13,15.29,2.67,20.53,5.47,5.4,2.88,11.52,3.4,17.83,3.71h0c3.79.21,7.14-2.16,10-7,1.6-2.7-2-7.19-3.21-8.21-7.76-6.81-13.51-6.71-23.06-6.54h-1a2.5,2.5,0,1,1-.08-5l1,0c10-.17,17.22-.3,26.44,7.78,2.19,1.92,7.66,8.71,4.21,14.52-3.59,6.06-8.25,9.3-13.53,9.43A2.46,2.46,0,0,1,191.76,492.38Z"/><path class="cls-7" d="M146.48,399.87q-2.91,40.47-5.82,80.95c-.79.88-1.46,1.79-2.33,2.65-4.92.5-11.39.7-16,1.33s-8.86,2.26-12.62,2.88-6,1.08-9.25,1.34-5.7-.31-8.82-.23c-1.86-1.1-3.81-2.14-5.7-3.21-1.18-1.84-2.34-3.67-3.51-5.51q.5-2.64,1-5.28,2.43-2.67,4.86-5.37l8-4.26c3.27-.23,6.54-.18,9.79-.62-.32-9.48-.95-22.35-1.22-31.09s-.58-16-.62-23.25.56-11.05.66-17.68C118.4,398.72,131.9,399.42,146.48,399.87Z"/><path class="cls-9" d="M182.77,463.9l-.36,0a2.49,2.49,0,0,1-2.12-2.82l.39-2.8c3-21.64,6.2-44,6.95-66.21a2.49,2.49,0,0,1,2.58-2.42,2.52,2.52,0,0,1,2.42,2.59c-.76,22.47-3.93,45-7,66.73l-.39,2.8A2.51,2.51,0,0,1,182.77,463.9Z"/><path class="cls-8" d="M146.35,399q-3.14,40.84-6.27,81.65a31.1,31.1,0,0,1-3,2.12c-6.61.9-18,2.14-23.5,3s-4.74,1.56-9,2.4a43.58,43.58,0,0,0-6.09-.13c8.07-5.41,16.39-3.72,25.23-7.65s5.1,12.76,13.08-4.24,6.07-55.2,8.42-76.29C145.78,398.27,145.69,399.47,146.35,399Z"/><path class="cls-9" d="M188.72,491.37a2.51,2.51,0,0,1-2.47-2.14,18.93,18.93,0,0,0-2.82-7.6,2.5,2.5,0,1,1,4.23-2.67,23.88,23.88,0,0,1,3.54,9.54,2.5,2.5,0,0,1-2.11,2.84A2.31,2.31,0,0,1,188.72,491.37Z"/><path class="cls-9" d="M197.85,489.37a2.5,2.5,0,0,1-2.47-2.18,13.26,13.26,0,0,0-2.89-6.8,2.5,2.5,0,1,1,3.95-3.07,18.32,18.32,0,0,1,3.89,9.22,2.49,2.49,0,0,1-2.15,2.8A1.84,1.84,0,0,1,197.85,489.37Z"/><path class="cls-8" d="M108.2,398.65q.18,31.89.34,63.77l-3.37-.92q-.14-32.88-.36-65.77Z"/><path class="cls-8" d="M112.8,467.37c-6.6-1.73-17.73,1.13-22.15,4.48S86.92,478.7,86,481.5s.34.56-.27,2.41a19.22,19.22,0,0,0-3.56-.73q.7-6.27,1.42-12.55c3.66-2.14,7.31-4.27,11-6.42C100.61,465.27,106.89,466.09,112.8,467.37Z"/><path class="cls-9" d="M99.11,492.44c-2,0-3.91-.08-5.89-.19a2.53,2.53,0,0,1-1.35-.12c-5.23-.68-9.52-4.4-12.46-10.81-2.81-6.13,3.34-12.3,5.71-14,10-7.07,17.15-6.16,27.05-4.92l1,.14a2.5,2.5,0,1,1-.63,5l-1-.13c-9.43-1.2-15.12-1.92-23.53,4-1.27.9-5.35,5-4.05,7.82,2.33,5.09,5.42,7.78,9.19,8h0c6.29.36,12.41.48,18-1.79s14.48-2.79,21-3.21c1.41-.09,2.69-.17,3.74-.26a13.89,13.89,0,0,0,2-.26,4.88,4.88,0,0,1,1.79-1.84c1.07-16,2.42-32.14,3.73-47.8.88-10.63,1.8-21.63,2.62-32.44a2.5,2.5,0,0,1,5,.38c-.82,10.83-1.74,21.83-2.63,32.47-1.35,16.11-2.74,32.77-3.81,49.15l-.11,1.58-1.47.58a3.14,3.14,0,0,0-.79.4s0,0,0,.06c-1,2-2.69,2.44-5.84,2.7-1.08.1-2.39.18-3.85.27-5.85.38-14.7.94-19.47,2.86A36.81,36.81,0,0,1,99.11,492.44Z"/><path class="cls-9" d="M104.63,464.93a2.49,2.49,0,0,1-2.49-2.4l-.19-4.45c-.88-21.09-1.79-42.9-.33-64.45a2.5,2.5,0,0,1,5,.34c-1.45,21.27-.54,42.94.34,63.9l.18,4.46a2.5,2.5,0,0,1-2.39,2.6Z"/><path class="cls-9" d="M95.84,491.6a2.15,2.15,0,0,1-.62-.08,2.49,2.49,0,0,1-1.8-3,23.75,23.75,0,0,1,4.52-9.12,2.5,2.5,0,1,1,3.92,3.1,19,19,0,0,0-3.6,7.26A2.5,2.5,0,0,1,95.84,491.6Z"/><path class="cls-9" d="M87,488.64a2.32,2.32,0,0,1-.59-.07,2.5,2.5,0,0,1-1.85-3,18.31,18.31,0,0,1,4.84-8.76,2.5,2.5,0,1,1,3.6,3.47,13.19,13.19,0,0,0-3.58,6.46A2.5,2.5,0,0,1,87,488.64Z"/><path class="cls-7" d="M121.84,284.49c-26.47,5.1-62.45,22.51-71,50.77C48.58,342.8,44,356.49,53,362.17c-4.19,9.43-2.73,18.6,5.63,24.36s16.11,7.21,25.3,4.06,7.83-12.47,8-20.38c5.66,1.43,8.81.62,7.27-5.84L86.8,349.51c.33-2.07.65-4.13,1-6.2,7-3.51,14-7,21-10.51a10.83,10.83,0,0,1,2.78.31c-1,6-2.54,15.85-3.39,21s-1.6,4.3-2.15,8.87-1,12.67-1,17.16.69,6.4.8,10.39a21.81,21.81,0,0,1,2.2,4.23c3.45.81,1.89,1.57,6.29,2.4s5.75,1.9,13.53,2.65,26.29,1.68,36,2.38c7.89-2.63,15-5.49,22.53-8.24,3.51-4.45,7-8.87,10.58-13.3.41-5.32,2-10.91,1.66-16.2s-3-10.7-3.63-15.54-.35-8.32-.44-12.93c4.17,3.79,8.19,7.61,12.28,11.43a125.89,125.89,0,0,0,13.86,2.91c6.85-3.33,13.87-6,20.35-10.11s12.14-9.43,18.23-14.08c1.19-.09,2.4-.11,3.6-.18q6.92-5,13.8-10c1-7,1.81-14,2.59-21-1.89-3.83-3.79-7.65-5.56-11.54-3.57-.68-7.14-1.36-10.7-2.09-3.17,1.66-6.35,3.27-9.6,4.77-.82-7-.4-14-.63-21-2.06-1.83-4.14-3.65-6.23-5.44-1.31,1.45-2.64,2.92-4,4.32-.77,3.67-1.4,6.92-2.36,10.65a76.93,76.93,0,0,0-2.39,11.92C230.89,294.4,223.68,302,216,309,199,296.62,182.8,286.26,162,282.46,147.88,279.9,135.53,282.65,121.84,284.49Z"/><path class="cls-8" d="M113,326.52c1.32,8,2.32,16.54,1,24.41s-3.7,15.81-4.72,23.2.14,11.68,3.36,18,19,.19,20.94-.48c14.39-4.87,22.65-3.1,36-1.85,12.2-.5,20.24-5.64,28.39-14.69-1.11,3.62.57,5.09-3,8.15s-5.77,5.94-11.66,8.44-14.86,6-22.86,5.24-18.69-.83-26.86-1.16-15.12,4.8-22.7-.3-6.87-10-5.41-21.46,4.81-32.84,6.74-46.07A3.88,3.88,0,0,1,113,326.52Z"/><path class="cls-9" d="M149.43,400.57a115.81,115.81,0,0,1-16.49-1.25,2.5,2.5,0,1,1,.7-4.95c13,1.86,24.23,1.55,35.3-1a2.5,2.5,0,1,1,1.11,4.87A91.34,91.34,0,0,1,149.43,400.57Z"/><path class="cls-8" d="M118.87,285.83c-13.22,5.24-43.09,23.58-50.13,31.12-16.48,17.63-12.86,22.87-14.56,41.87-.77-.28-2.16,1-3.2.83-3-7.11-1.62-19.3.35-25.4s4.68-6.66,5.24-12c4.51-3.2,2.56-4.4,8.44-8.35s15.19-9.69,23.42-14.32,20.54-10.47,29.51-15.26C118.53,285,120.09,284,118.87,285.83Z"/><path class="cls-8" d="M55.51,362.45c-1.35,9.88-1.27,18.05,7,24.68,0,1.1,0,2.19,0,3.29-9.78-5.72-10.61-14-9.69-24.59.1-1.21,0-2.22.06-3.4Z"/><path class="cls-10" d="M194.64,324.92c7.33,15,17.66,20.66,33.87,22.31-7.25,5.28-16.78,2.7-23.35-1.27s-11.92-7.74-10.72-15.25C194.7,328.81,194.55,326.85,194.64,324.92Z"/><path class="cls-10" d="M108.66,327.56,90.71,338c.13.95.25,1.9.37,2.85l18-8.26C109,330.88,108.81,329.22,108.66,327.56Z"/><path class="cls-8" d="M168.19,287.33c14.22,4.59,33.7,18.85,44.19,25.3s5.35.12,11.6-2.64,13.13-13.63,15.76-18.1c4.53-7.67,1.68-12.38,2.19-19.74a66.62,66.62,0,0,0-5.38,16.7c-2.88,3-7.31,7-10.07,9.55s-5.37,5.39-7.49,7.09-2.15.69-3.93,1.89c-14.31-9.34-28.42-18-44.14-24.88C170.06,284.18,168.46,285.25,168.19,287.33Z"/><path class="cls-8" d="M132.25,346c17.25-1.21,34.22-2.35,51.45-.35C167.07,335.54,149.06,336.91,132.25,346Z"/><path class="cls-10" d="M108.83,355.63c2,.37,3.17,1.72,5.37,1.73,4.81,0,7.12-5.31,11.72-6.2,8.61-1.68,10.72,5.84,6.79,12.66-1.09,1.89-3.82,3.18-4.92,5.34-1.41,2.75-1.2,6-1.32,9s-.78,6.56-3.73,7.79c-3.75,1.56-6.3-2.41-10-1.74s-6,4.36-9.18,6.17C105.24,378.82,107.06,367.19,108.83,355.63Z"/><path class="cls-11" d="M108.52,354.06c2,.36,3.17,1.71,5.37,1.73,4.82,0,7.12-5.31,11.72-6.21,8.61-1.67,10.72,5.84,6.78,12.67-1.09,1.88-3.82,3.18-4.92,5.33-1.41,2.75-1.2,6-1.32,9s-.78,6.55-3.73,7.78c-3.75,1.56-6.31-2.41-10-1.74s-6,4.36-9.18,6.16C104.91,377.24,106.75,365.62,108.52,354.06Z"/><path class="cls-9" d="M110.26,400.17a2.5,2.5,0,0,1-1.4-.43l-.89-.58a13.73,13.73,0,0,1-3-2.44,18.26,18.26,0,0,1-3.26-5.94c-1.3-3.82-.55-11.26-.54-11.33.28-2.66.35-5,.41-7.17a66.45,66.45,0,0,1,.79-9.54,65.12,65.12,0,0,1,2.08-8.19c.6-1.95,1.21-4,1.79-6.43a84.58,84.58,0,0,0,2-20.44,2.5,2.5,0,1,1,5-.26,88,88,0,0,1-2.09,21.84c-.61,2.62-1.25,4.72-1.86,6.74a58.75,58.75,0,0,0-1.94,7.58,60.67,60.67,0,0,0-.72,8.85c-.07,2.31-.14,4.69-.44,7.53-.27,2.58-.36,7.28.3,9.21a13.27,13.27,0,0,0,2.17,4.11,9,9,0,0,0,2.09,1.66l1,.66a2.5,2.5,0,0,1,.67,3.47A2.48,2.48,0,0,1,110.26,400.17Z"/><path class="cls-10" d="M198.32,382.68c-3.33,1-6.7,2.33-9.95.48-2.41-1.38-3.05-4-3.9-6.39-1.48-4.3-3.1-8.48-4.58-12.78-1-2.88-2.42-5.55-1.6-8.73,1.24-4.8,4.4-7.09,9.27-8.57a26.6,26.6,0,0,1,6.21-.43C195.39,358.44,197.4,370.4,198.32,382.68Z"/><path class="cls-11" d="M197.49,380c-3.13.95-6.28,2.18-9.32.43-2.26-1.3-2.9-3.69-3.71-6-1.43-4-3-7.93-4.41-12-.93-2.7-2.29-5.22-1.48-8.21,1.21-4.52,4.12-6.68,8.76-8.08a27.85,27.85,0,0,1,6.35-.39C198.26,357.75,200.88,367.23,197.49,380Z"/><path class="cls-9" d="M184.32,394.79a2.5,2.5,0,0,1-1-4.76c5.3-2.47,8.68-4.56,11.38-8.53s2.91-10.81,2.75-15.51-2-10.78-3.05-14.08l-.71-2.31a54.61,54.61,0,0,1-2.51-10.27,75.4,75.4,0,0,1-.52-10.14c0-1.12,0-2.28,0-3.53a2.5,2.5,0,1,1,5-.09c0,1.28,0,2.46,0,3.61a70.63,70.63,0,0,0,.48,9.52,50.72,50.72,0,0,0,2.32,9.42l.72,2.32c1.16,3.77,3.1,10.09,3.27,15.38.2,5.86,0,13.25-3.62,18.5-3.68,5.4-8.44,7.93-13.4,10.24A2.47,2.47,0,0,1,184.32,394.79Z"/><path class="cls-9" d="M89.41,345.82a2.5,2.5,0,0,1-1-4.78l7.49-3.42,12.42-5.68a2.5,2.5,0,0,1,2.08,4.55l-12.42,5.68-7.49,3.42A2.57,2.57,0,0,1,89.41,345.82Z"/><path class="cls-9" d="M217.9,353.86a23.3,23.3,0,0,1-12.1-3.08A51.93,51.93,0,0,1,192,337.65a2.5,2.5,0,0,1,4.08-2.89,46.45,46.45,0,0,0,12.36,11.77c3.89,2.42,9.57,2.73,13.47,2a16.52,16.52,0,0,0,5.93-2.19c.51-.28,1.07-.59,1.71-.92,8.21-4.23,15-10.1,21.62-15.77A10.71,10.71,0,0,0,253,327a13.89,13.89,0,0,1,2.82-3.87,2.67,2.67,0,0,1,3-.42,2.43,2.43,0,0,1,.95.86,8.28,8.28,0,0,1,1.52.39c.87.26,4.34-.77,6.17-2.55a18.47,18.47,0,0,1,3-2.06,18,18,0,0,0,3.11-2.18,22,22,0,0,0,3.71-11.65c.06-.92.14-1.78.22-2.61.37-3.93.63-6.77-1.12-11.21-.9-2.27-3-6.3-6.94-7.7-2.75-1-7-1.56-7.81-.84a9.84,9.84,0,0,1-2.29,2.07c-.59.43-2.16,1.57-2.18,2a3.18,3.18,0,0,1-2.28,3c-1.07.29-2.58.11-3.65-2.4-1.65-2.51-1.7-7.91-1.59-8.73a43.42,43.42,0,0,1,1.18-5.39,27.68,27.68,0,0,0,.84-3.83,8.8,8.8,0,0,0-1.88-6.52c-.67-.92-.67-.92-1.4-1.18a15.25,15.25,0,0,1-1.63-.62,4.14,4.14,0,0,0-1.48.15,6.78,6.78,0,0,0-1.46,3c-.25,1.36-.52,2.71-.78,4.06a117.73,117.73,0,0,0-2,12.7,31.17,31.17,0,0,1-1.05,5.31,17.15,17.15,0,0,1-2.3,4.18,155.84,155.84,0,0,1-17.1,17.59l-.23.22a6.33,6.33,0,0,1-3.46,2.09,7,7,0,0,1-3.09-.53,9.27,9.27,0,0,1-2-1.2l-.32-.25c-4-2.93-5-3.56-7.64-5.24-1.31-.83-3-1.91-5.64-3.63-11-7.17-26.21-15.21-36-16.3a2.5,2.5,0,0,1,.56-5c13.37,1.49,32.57,13.45,38.14,17.08,2.61,1.7,4.29,2.77,5.59,3.6,2.75,1.74,3.78,2.4,7.91,5.43.16.11.29.22.42.32a4.31,4.31,0,0,0,.94.59l.32.08c.24-.2.56-.51.72-.66l.42-.4a149.68,149.68,0,0,0,16.57-17.05,13.61,13.61,0,0,0,1.37-2.5,27.17,27.17,0,0,0,.82-4.2,124.36,124.36,0,0,1,2.11-13.23c.26-1.33.53-2.66.78-4a11.82,11.82,0,0,1,2.85-5.62c1.9-2,5.71-1.76,6.85-1.24a11.22,11.22,0,0,0,1.39.54,6.62,6.62,0,0,1,3.84,3,13.68,13.68,0,0,1,2.81,9.84,28.16,28.16,0,0,1-1,4.72,39.67,39.67,0,0,0-1.05,4.76,14.62,14.62,0,0,0,.16,2.62c.55-.47,1.11-.89,1.62-1.26a10.22,10.22,0,0,0,1.2-1c3.09-4.39,11.82-1.56,13.53-.95,5.81,2.07,8.71,7.51,9.92,10.57,2.19,5.55,1.85,9.24,1.45,13.51-.08.8-.15,1.63-.22,2.51a27,27,0,0,1-4.47,14c-.83,1.31-2.4,2.34-4.72,3.75A22.33,22.33,0,0,0,271,325c-2.65,2.57-7.87,4.67-11.05,3.76a3.63,3.63,0,0,1-2.2.41l-.2,0c0,.1-.11.2-.17.3a14.36,14.36,0,0,1-2.92,4c-6.81,5.86-13.85,11.92-22.58,16.42-.61.32-1.13.6-1.61.87a21.66,21.66,0,0,1-7.38,2.71A26.22,26.22,0,0,1,217.9,353.86Zm41.19-25.37ZM215.89,306Zm31-44.39Zm-.35-.12Z"/><path d="M103.48,284.62,123,277s9.76,16,18.94,14.49c-2.66,32.92,1.13,71.52,8.16,113a31.7,31.7,0,0,1-12.25,3c-5.7.2-7.09-1.4-14.3-1.53-6.14-.11-7.11,1-12.63.94a42.19,42.19,0,0,1-14.18-2.71c1.24.81,8.07-42.81,9.14-79.94C106.36,308.91,105.84,293.46,103.48,284.62Z"/><path d="M194.62,288.6l-20-7.85s-8,9.69-16.66,10.77c2.65,32.92,8,69.48.93,110.94a31.79,31.79,0,0,0,12.26,3c5.7.2,7.09-1.4,14.29-1.53,6.15-.11,6-.26,11.54-.33,4.51-.85,5.7-6.22,11-8.51-3.25-14.13-6.76-28-6.95-53.34C197.62,333.14,189,302.86,194.62,288.6Z"/><circle class="cls-7" cx="135.59" cy="335.63" r="1.95"/><circle class="cls-7" cx="136.25" cy="351.87" r="1.95"/><circle class="cls-7" cx="136.92" cy="367.65" r="1.95"/><path class="cls-12" d="M206.93,383.7c-.62,7.15-5.87,11.29-13.23,11.47-27.74-.1-54.7-3.51-80.61-11.34.12,2.76-.82,6.74-2.1,11.13a10.64,10.64,0,0,1-6.49,6.54c-3.32.42-7.8-.36-13.06-1.94a3.64,3.64,0,0,1-1.83-3.86A20.72,20.72,0,0,1,91.23,391a7.15,7.15,0,0,1-3.06-.62L67,402.94c-2.21,1.55-8.07,1.79-10.6.17-3.65-9.86-3.35-20.82-1.42-32.25.27-1.34,1.64-2.8,4.12-2.5l42.19,6.13c7-6.74,9-4.62,17-3.56l67.42,3.25a22.18,22.18,0,0,1,4.39,7.29Z"/><g class="cls-3"><path class="cls-12" d="M64.36,401.25c6.71-1.89,23.74-13.05,23.74-13.05a9.23,9.23,0,0,0,5,1.81c-2.45,5.59-2.19,7.2-.87,8.06,0,0,8.38,4.4,13.31.54s6.22-17.82,6.22-17.82c18,6.39,66.74,9.76,79.45,10.68,9,.64,11.54-4.92,12.26-8.23l3.48.46c-.62,7.15-5.87,11.29-13.23,11.47-27.74-.1-54.7-3.51-80.61-11.34.12,2.76-.82,6.74-2.1,11.13a10.64,10.64,0,0,1-6.49,6.54c-3.32.42-7.8-.36-13.06-1.94a3.64,3.64,0,0,1-1.83-3.86A20.72,20.72,0,0,1,91.23,391a7.15,7.15,0,0,1-3.06-.62L67,402.94c-2.21,1.55-8.07,1.79-10.6.17-.14-.37-.25-.74-.38-1.1A18.38,18.38,0,0,0,64.36,401.25Z"/></g><path class="cls-13" d="M199,378.29l43.92,10c10.4,1.06,9.87-20.2.7-20.8l-115.49,2"/><path class="cls-13" d="M189,381.5l43.39,5.32c10.4,1.06,9.87-20.2.7-20.8l-115.48,2s-4-5-2.89-8.84a8.62,8.62,0,0,0-6.66-.87q-.93,5.55,2.61,11.46"/><path class="cls-13" d="M146.53,391.41l-3.93,9.52c-.86,2.07-2.13,3.83-4.15,3.55l-14.35-3c-2.21-.56-3.07-3.88-3.32-5.44l-1.25-10.35,5.16,1.28,1.1,9c.16,1.22.87,2.65,1.89,3l6.34,2.21c1,.32,2.64.09,3.13-1l3.58-9.53Z"/><g class="cls-14"><path class="cls-13" d="M139.22,403.22l5.43-12.08,1.88.27-3.93,9.52c-.86,2.07-2.13,3.83-4.15,3.55l-1.53-.32C138.5,404.06,139,403.52,139.22,403.22Z"/></g><path class="cls-13" d="M127.57,387.73c-1,6.8,3.21,10,3.21,10s5.2,2.61,2.2-1.16a8.9,8.9,0,0,1-1.51-8Z"/><g class="cls-3"><path class="cls-13" d="M233.53,367.08c8.24.54,8.72,19.66-.63,18.71C225.67,385.54,226.3,366.84,233.53,367.08Z"/></g><g class="cls-3"><path class="cls-13" d="M244.63,368.82c6.05.46,6.81,18.68-.6,17.82C238.21,386.37,238.94,368.54,244.63,368.82Z"/></g><path class="cls-13" d="M226.9,366.12l3.46-3.74a20.15,20.15,0,0,1,10.92.3,9,9,0,0,0-.66,5.25C237.14,368.44,233.8,366.16,226.9,366.12Z"/><g class="cls-3"><path class="cls-13" d="M114.69,359.19c-1.07,3.81,2.89,8.84,2.89,8.84l109.32-1.91h0l3.46-3.74a20.15,20.15,0,0,1,10.92.3,2.59,2.59,0,0,0-.17.38c-2.05-.27-7.93-.93-9.57,0-2,1.17-3.95,4.49-3.95,4.49l-110.1,1s-5.19-5.33-3.25-9.07a12.67,12.67,0,0,0-6.25-.91c0-.1,0-.19,0-.29A8.62,8.62,0,0,1,114.69,359.19Z"/></g><g class="cls-14"><path class="cls-12" d="M59.06,368.36l42.19,6.13c3.63-3.29,6.36-5.71,11.17-4.41-5.09,1.48-8.39,2.8-10.25,6.84l-42.08-6c-2.77-.44-5,.45-5.46,1.89.1-.63.2-1.27.31-1.91C55.21,369.52,56.58,368.06,59.06,368.36Z"/></g><path class="cls-9" d="M64.81,392.93a2.5,2.5,0,0,1-2.48-2.23l-1.6-14.52a2.5,2.5,0,0,1,5-.55l1.6,14.53a2.51,2.51,0,0,1-2.21,2.76Z"/><path class="cls-9" d="M80.5,394.73A2.5,2.5,0,0,1,78,392.58l-2.37-16.25a2.5,2.5,0,0,1,5-.72L83,391.87a2.51,2.51,0,0,1-2.12,2.83A2.19,2.19,0,0,1,80.5,394.73Z"/><path class="cls-9" d="M52.83,363.75A2.5,2.5,0,0,1,52,358.9L62.47,355a2.5,2.5,0,0,1,1.73,4.7l-10.5,3.86A2.43,2.43,0,0,1,52.83,363.75Z"/><path class="cls-9" d="M245.84,304.18a2.48,2.48,0,0,1-2.07-1.1,2.5,2.5,0,0,1,.67-3.47,16.54,16.54,0,0,0,6-8.65,6.9,6.9,0,0,0,0-3.77,19,19,0,0,1-.41-3.06,2.5,2.5,0,0,1,5-.21,14.08,14.08,0,0,0,.32,2.33,11.73,11.73,0,0,1-.12,6.13,21.57,21.57,0,0,1-8,11.37A2.48,2.48,0,0,1,245.84,304.18Z"/><path class="cls-9" d="M267.09,324.92a15.75,15.75,0,0,1-3.27-.35c-4.58-1-7.83-3.7-8.27-6.91-.37-2.65-.82-5.17-1.26-7.6-1.35-7.41-2.61-14.4-.54-22h0c1.21-4.44,4.08-7.44,8.07-8.43,5-1.24,11.05.92,15.35,5.53,3.1,3.31,5.22,10.32,4.94,16.29l0,.4c-.26,5.64-.66,14.11-5.9,18.79C274,323.78,270.46,324.92,267.09,324.92Zm-8.51-35.57h0c-1.78,6.53-.67,12.69.63,19.82.45,2.48.91,5.05,1.29,7.81.11.76,1.68,2.13,4.37,2.7,2.44.53,5.82.3,7.3-2.06l.21-.34.31-.26c3.84-3.2,4.18-10.56,4.41-15.43l0-.41c.23-5-1.67-10.58-3.6-12.64-3-3.25-7.25-4.89-10.5-4.08C260.81,285,259.31,286.65,258.58,289.35Z"/><path class="cls-9" d="M278.72,299l-.3,0c-7.51-.88-15.29-1.79-23-3.11a2.5,2.5,0,0,1,.84-4.92c7.62,1.29,15.33,2.19,22.78,3.06a2.5,2.5,0,0,1-.28,5Z"/><path class="cls-9" d="M277.93,312.47l-.29,0-4.35-.49c-5.14-.58-10.45-1.18-15.68-1.85a2.5,2.5,0,1,1,.64-5c5.19.66,10.48,1.26,15.6,1.84l4.36.49a2.5,2.5,0,0,1-.28,5Z"/><path class="cls-7" d="M121.84,284.49c-26.47,5.1-62.45,22.51-71,50.77C48.58,342.8,44,356.49,53,362.17c-4.19,9.43-2.73,18.6,5.63,24.36s16.11,7.21,25.3,4.06,7.83-12.47,8-20.38c5.66,1.43,8.81.62,7.27-5.84L86.8,349.51c.33-2.07.65-4.13,1-6.2,7-3.51,14-7,21-10.51a10.83,10.83,0,0,1,2.78.31"/><path class="cls-9" d="M76.53,396.12a35.58,35.58,0,0,1-16.71-4.23l-.15-.09a20.75,20.75,0,0,1-5.41-3.94c-5.42-5.61-6.26-13.13-6-18.45a28,28,0,0,1,1.11-6.94c-3.3-2.19-5.25-11.35-2.86-23.67,1.31-6.71,2.66-13.64,7.92-20.91,2.3-3.16,6.3-7.59,16.94-13.79l3.18-1.88c10.92-6.49,36.5-21.67,49.76-25.11a2.5,2.5,0,1,1,1.25,4.84C113,285.21,86.9,300.69,77.08,306.52l-3.21,1.9c-9.84,5.73-13.4,9.64-15.41,12.41-4.61,6.37-5.8,12.46-7.06,18.92-2.23,11.5-.11,17.29.66,18.46a4.18,4.18,0,0,1,2.17,2.49,4,4,0,0,1-.27,3.65c-.73,2.48-2.43,13.48,3.89,20a16,16,0,0,0,4.24,3l.15.08c8.43,4.67,22.17,5.13,26.2-1,1.71-2.6,2.42-7.27,1.64-10.86-.1-.45-.25-1-.41-1.66-.85-3.33-1.42-5.53,1-6.39.71-.26,2.09-.43,3.3,1.34l.07.1a3.69,3.69,0,0,0,2.09.84,3.3,3.3,0,0,0,2.45-.62c1.37-1.17.88-3.6.43-4.6a4.06,4.06,0,0,0-1.1-1.42c-2.75-2.36-6.65-6.57-11.94-12.88l-1-1.23.7-1.45c1.9-4,1.07-16.34.1-23.21a2.5,2.5,0,1,1,5-.7c.26,1.83,2.3,17,0,24.49a110.06,110.06,0,0,0,10.43,11.18,9,9,0,0,1,2.4,3.16c1.42,3.12,1.48,7.73-1.74,10.46a8.11,8.11,0,0,1-6.29,1.78L95,374.8c1,4.88,0,10.81-2.39,14.49C89.5,394,83.29,396.12,76.53,396.12ZM53.41,365l0,0Zm-3.29-3.76a1.81,1.81,0,0,0-.41.5A2.33,2.33,0,0,1,50.12,361.22Zm0,0Z"/><path class="cls-7" d="M187.39,67s1.46-10.33,15.1-20.41c0,0,1,19.65,2.48,24.16s1.85,9.52,6.1,14.26,19.45,2,19.45,2S245.65,82.64,250,70.9a49.82,49.82,0,0,0,3.22-21.11S250.37,34,246.49,30.1,243.31,21,231.67,13.24a65.31,65.31,0,0,0-23.21-9.59,28.11,28.11,0,0,0-18.94,3.4c-9.58,5.58-10.39,7.59-14.46,13.63s-6,24.13-6,24.13"/><path class="cls-10" d="M243.81,79.63c-3.07,6.68-15.38,8.49-25.52,8.91S204.5,74.77,204.5,74.77l-.38-16s-1-15.2-5.88-25.54a29.11,29.11,0,0,0-13.91-14s13-2.72,19.53,17.58c0,0,7,16.91,7.35,30.82.61,8.53,3.42,11.58,5.93,12.91s18.13,6.76,32.17-8Z"/><path class="cls-10" d="M180.24,52.91c-6.43-8.45.74-30.55,3.39-31.4,9.92,6,14.69,15.18,16.14,26.3l-10.46,12.7-7.41-4.28Z"/><path class="cls-9" d="M223.37,91.1c-5.78,0-11.66-1.52-15.83-5.72-4.83-4.87-6.14-11.92-6.77-15.32a38.3,38.3,0,0,1-.62-8v-.37c.07-6.48-.71-22.64-9.38-32.8A31.15,31.15,0,0,0,177.52,20l-.29-.13c-6.32,9.49-6.17,20.1-5.92,23.54a2.57,2.57,0,0,1-5.13.37c-.34-4.62-.5-20.62,11.55-32.58A39.33,39.33,0,0,1,199,.49C220.68-3,241.77,13,250.59,29.78c2.95,5.64,11.84,25.43,2.16,43.34-4.47,8.3-10.64,13.76-18.33,16.23A37,37,0,0,1,223.37,91.1Zm-42.8-75.45a35.81,35.81,0,0,1,14.13,9.86c9.44,11.07,10.69,27.43,10.6,36.19v.39a33.34,33.34,0,0,0,.52,7c.54,2.89,1.66,8.89,5.37,12.63,5.37,5.41,15,4.83,21.66,2.7,9.61-3.09,14-11.13,15.38-13.77,8.68-16.08-.31-34.9-2.2-38.51-8-15.23-26.91-29.73-46.25-26.6a34.13,34.13,0,0,0-18.42,9.27C181.09,15.11,180.82,15.38,180.57,15.65Z"/><path class="cls-9" d="M187.83,77.91h-.21a2.57,2.57,0,0,1-2.35-2.77c1-12.91,5.51-22.32,12.9-27.22.43-.29.86-.56,1.32-.82A2.57,2.57,0,1,1,202,51.57c-.35.2-.69.41-1,.62-7.61,5.06-10,15.49-10.62,23.35A2.57,2.57,0,0,1,187.83,77.91Z"/><path class="cls-9" d="M227.73,30.47a2.59,2.59,0,0,1-2.53-2.09c-3-16-15.53-22.5-18.45-23.24a2.57,2.57,0,0,1,1.27-5c5.84,1.49,19,10.11,22.24,27.26a2.57,2.57,0,0,1-2,3A2.61,2.61,0,0,1,227.73,30.47Z"/><g id="HEAD"><path class="cls-7" d="M120.35,284.63c-4.6-21.41-15.13-58.79-18.19-61.83-41-40.72-36.63-117.72-36.42-128.21.63-32.05,10.51-45.55,15-50.76,21.06-24.55,52.17-23.07,67-16.6,10.51,4,20,11.15,34.82,31.24,21.73,29.53,37.66,51.2,41,84.61,3.05,30.55-6.12,53.91-12,69-15.37,39.13-28.9,59.51-44.41,72.33"/></g><path class="cls-10" d="M72.29,90.7c-.53,7.54.52,19.3.52,29.06.81,27.2,6.39,58.71,31.76,102.3-9.31-6.68-24.43-25-30.8-57-5.84-29.37-8-38-6.75-38.5l-.35-41Z"/><path class="cls-10" d="M132.65,24.83c17.28,13,65.34,73.54,95,97.28,23.45,16.25,31.86,39.42,20.9,71,0,0,22.73-9.19,6.51-59.36,0,0-17.4-7.28-39.7-16-1.63-15.82-12.73-34.23-30.47-54.47C180.35,59.15,158.71,24.34,132.65,24.83Z"/><path class="cls-9" d="M167.12,286.9a2.5,2.5,0,0,1-1.69-.65,2.62,2.62,0,0,1,.24-3.9c10.08-8.35,26.87-28.79,43.53-71.2,5.92-15.08,14.87-37.87,11.88-67.82-3.28-32.73-18.9-54-40.53-83.37-14.89-20.25-23.93-26.64-33.7-30.39l-.1-.05c-14.21-6.18-44.18-7.33-64.14,15.94C73.5,56.11,68.67,72.66,68.24,94.64,67.76,119.06,67.61,185,103.92,221c2.5,2.48,15.9,44.72,20.8,67.39a2.5,2.5,0,1,1-4.87,1.12c-4.56-21.19-17.21-62.73-19.45-65-37.68-37.44-37.65-105-37.16-130,.45-23.17,5.69-40.78,15.57-52.34,21.85-25.46,53.74-24.29,69.88-17.28,10.3,4,20.36,10.95,35.89,32.07,22.1,30.05,38.06,51.75,41.47,85.84,3.12,31.15-6.1,54.62-12.2,70.15-17.17,43.73-35,65-45.14,73.35A2.52,2.52,0,0,1,167.12,286.9Z"/><path class="cls-7" d="M154.54,65.58c8.18,30.14,26.44,46.22,42,47.8,10.87,1.12,20.66,3.12,20.66,3.12,8.32.06,10.17-1.36,15-.62,11.82,1.81,19.28,13.29,21.92,17.36,13.57,20.88,5.41,44.92,5,46.07-6.14,17.16-20.25,25.1-22.45,27.7-33.06,39.15-110.37-8.38-112-28.3-1.06-13,.67-24.67,2.61-28.48C154.62,148.29,167.51,105.55,154.54,65.58Z"/><path class="cls-7" d="M155.17,65.46c8.18,30.14,26.44,46.22,41.94,47.8,10.88,1.11,20.67,3.11,20.67,3.11,8.32.07,10.17-1.35,15-.61,11.82,1.81,19.28,13.29,21.92,17.35,13.57,20.89,5.41,44.93,5,46.08-6.14,17.16-20.25,25.1-22.45,27.7-33.06,39.15-107.95-7.51-109.58-27.43-1-13-1.74-25.55.2-29.36C155.25,148.16,168.14,105.43,155.17,65.46Z"/><path class="cls-10" d="M255,134c17,42.89-8.79,63.15-8.79,63.15,11-31.58,4.83-58.54-18.62-74.78Z"/><path class="cls-8" d="M204.75,220.28s-84.51,6.25-79-68.78l3.49-2.66C125.87,213.89,197.59,222.76,204.75,220.28Z"/><path class="cls-8" d="M191.25,122.91s-4.07,6-3.43,20.78S200.3,156.4,200.3,156.4s17-2.53,28.82,2.94,12.79-6.2,12.79-6.2"/><path class="cls-8" d="M131.69,146.53S149.33,174,165.1,185.59s27.63,20.6,27.63,20.6,7.34,5.5,16.47,5c13,0,26.32-18,26.32-18l-.6,4.91a30.36,30.36,0,0,1-1.7,3.32c-4.16,7-11.36,13-18.47,14.89-7.54,2-14.86-.48-23.32-5-11.78-6.32-37.72-17.69-53.36-47.06a98.88,98.88,0,0,1-6.89-16.34Z"/><path class="cls-9" d="M209.78,220.63c-14.81,0-32-13.6-42.82-22.19L165,196.92c-16-12.61-28.75-29.07-37.83-49a2.49,2.49,0,1,1,4.54-2.07c8.75,19.15,21,35,36.38,47.1l1.94,1.53c11,8.7,31.41,24.88,44.86,20.31,7.33-2.5,12.66-9,14.94-11.75,5.81-7.06,6.06-16.49,6.18-21,0-.92.05-1.59.1-2.13-1.2-11.63-3.09-18.79-6.84-30.32-2.66-8.14-5.4-16.55-12.51-23.77a26.15,26.15,0,0,0-11-6.88l-.73-.25a60.6,60.6,0,0,0-8.41-2.81c-9.8,1.51-28.38-3.06-44.5-49.49a2.5,2.5,0,0,1,4.73-1.64c15.59,44.94,32.59,47.25,39.18,46.16.72-.12,1.82-.3,10.78,3.1l.53.19a31,31,0,0,1,13,8.11c7.93,8.06,10.86,17,13.69,25.73,3.9,12,5.85,19.39,7.1,31.66l0,.33-.05.33c0,.25-.07,1.08-.09,1.82-.12,4.69-.42,15.69-7.3,24.05-2.35,2.85-8.54,10.37-17.21,13.32A20.78,20.78,0,0,1,209.78,220.63ZM196.56,115.87Z"/><path class="cls-9" d="M118,154.87a2.5,2.5,0,0,1-.45-5c11.55-2.17,13.81-11.2,13.9-11.59a2.5,2.5,0,0,1,4.88,1.11c-.12.51-3,12.6-17.86,15.39A2.5,2.5,0,0,1,118,154.87Z"/><path class="cls-15" d="M85.91,77c10.26-19.24,35.41-27.92,50.69-15.52,3.71,2.83,5.94,6.42,10.24,13.5,3.53,5.79,6.33,10.45,9,17.33,2.16,5.68,3.42,9.07,3.45,13.94-.18,9.37-2.12,17.08-16.4,23.56-25.92,12.75-56.13,7.47-60.65-28.18C81.65,97.38,80.5,87.35,85.91,77Z"/><path class="cls-7" d="M117.9,119.68c-15.27-3.78-24.84-31.25-9.62-46.2,9.35-8.65,20.37-5.92,27.58,3.1,5.77,6.63,6.5,14.18,7,19.12.64,6.59,1.22,12.62-2.72,17.45s-10.54,6-13.4,6.48A21.8,21.8,0,0,1,117.9,119.68Z"/><path class="cls-9" d="M121.85,122.62a19.87,19.87,0,0,1-4.53-.5h0c-8.08-2-15.12-10-17.94-20.29-3.11-11.39-.43-22.65,7.18-30.12,4.65-4.3,9.93-6.33,15.35-5.92,5.85.44,11.49,3.7,15.9,9.19,6.27,7.23,7.07,15.53,7.55,20.49.65,6.71,1.31,13.64-3.27,19.27s-11.83,6.84-14.92,7.37A31.65,31.65,0,0,1,121.85,122.62Zm-3.37-5.37a19.63,19.63,0,0,0,7.82-.08c2.75-.47,8.48-1.44,11.88-5.6s2.77-9.41,2.17-15.63c-.45-4.66-1.13-11.69-6.38-17.72l-.06-.08c-3.54-4.42-7.94-7-12.4-7.37-4-.31-8,1.27-11.53,4.55-6.24,6.13-8.43,15.57-5.81,25.18C106.52,109.1,112.14,115.67,118.48,117.25Z"/><path class="cls-7" d="M161.31,66.73c2.72-6,10.09-12.48,20.93-8.65,4,1.65,6.07,4.52,8.89,8.48A41.25,41.25,0,0,1,197,78.83c1.71,5.83,3,10.39,1.25,15.67-.43,1.27-2.32,6.62-7.62,9.41C175.26,112.88,154.35,82.82,161.31,66.73Z"/><path class="cls-9" d="M184.61,108c-4.46,0-9.19-2-13.69-6-9.59-8.49-16.63-25-11.83-36.15l0,0c3.47-7.63,12.44-14,23.93-9.93l.12,0c4.66,1.91,7,5.18,9.94,9.31a44,44,0,0,1,6.17,13c1.74,6,3.25,11.11,1.22,17.11A19,19,0,0,1,191.75,106,14,14,0,0,1,184.61,108Zm-21.1-40.25c-3.9,9.06,2.46,23.4,10.61,30.61,3.15,2.8,9.33,7,15.24,3.51l.09,0a14.12,14.12,0,0,0,6.47-8c1.54-4.57.36-8.61-1.28-14.22A38.78,38.78,0,0,0,189.17,68c-2.68-3.75-4.45-6.24-7.79-7.63C171.51,56.88,165.51,63.33,163.51,67.71Z"/><path d="M116.93,118.68c-11.88-3-19.33-24.32-7.48-36a14.62,14.62,0,0,1,9.69-4.1c6.11,0,10.14,4.64,11.76,6.51,4.5,5.16,5.07,11,5.44,14.88.49,5.13.94,9.82-2.12,13.58s-8.2,4.67-10.43,5A16.92,16.92,0,0,1,116.93,118.68Z"/><path class="cls-9" d="M199.73,225.31c-9.4,0-17.24-2.36-25.45-4.83-14.13-4.25-30.14-9.06-41.13-24.16-12.66-17.39-10.76-38.41-9.36-46.65l4.93.85c-1.3,7.6-3.07,27,8.47,42.86,10,13.73,25.16,18.29,38.53,22.31,10,3,18.63,5.6,30.14,4.25,19.94-2.33,38.61-15.62,47.58-33.85,5.78-11.75,7.56-24.17,5.15-35.93-2.56-12.55-8.37-20.09-12.78-24.2-2.29-2.14-7.06-6.58-14.05-7.61-1.85-.28-6.11,0-10.63.2-8.92.5-20,1.11-27.19-1-16.44-4.51-36.23-20.7-42.41-52.56l4.9-1c5.75,29.61,23.84,44.58,38.86,48.7,6.39,1.84,17.47,1.23,25.56.78,5.2-.29,9.31-.51,11.65-.15,8.52,1.25,14.26,6.6,16.72,8.89,4.95,4.61,11.44,13,14.27,26.86,2.63,12.85.71,26.38-5.57,39.14-9.69,19.71-29.9,34.08-51.48,36.61A58.22,58.22,0,0,1,199.73,225.31Z"/><path class="cls-7" d="M114.71,83.94c-.07,1.85.82,3.26,1.9,4.74,5.88,8,12.51,11.14,14.43,10.59,5.51-1.59,3.87-6.77,1.49-10.71-.66-1.21-3.92-6.81-10.35-8.87C117.52,77.84,115,80.3,114.71,83.94Z"/><path class="cls-9" d="M121.2,120.92a16.07,16.07,0,0,1-4.72-.35h0c-6.29-1.56-11.77-7.75-14-15.79-2.42-8.86-.33-17.62,5.59-23.44,3.48-3.13,7.18-4.67,11.07-4.66,7,0,11.52,5.22,13.22,7.18,4.91,5.64,5.53,12.11,5.9,16,.51,5.21,1,10.61-2.54,15s-9.21,5.32-11.61,5.73A26.88,26.88,0,0,1,121.2,120.92Zm-3.82-4.14a15.39,15.39,0,0,0,6.09-.06c2.14-.37,6.6-1.12,9.24-4.36s2.16-7.32,1.69-12.16c-.35-3.62-.88-9.1-5-13.79-1.52-1.75-5.08-5.83-10.31-5.85a12.41,12.41,0,0,0-8.38,3.61c-4.84,4.75-6.55,12.09-4.5,19.58C108.07,110.44,112.45,115.55,117.38,116.78Z"/><path d="M163,74.71a13.44,13.44,0,0,1,6.35-6.56,13.23,13.23,0,0,1,10.15-.26c3.17,1.3,4.79,3.56,7,6.68a32.44,32.44,0,0,1,4.59,9.68c1.34,4.59,2.39,8.18,1,12.35a13.13,13.13,0,0,1-6,7.42,12.69,12.69,0,0,1-5.33,1.32C171,105.28,157.9,86,163,74.71Z"/><path d="M189.54,123.21c5.07-15.46,18.31-22.91,19.21-23.4,13.15-7.15,25.68-4.4,30-3.46,4.66,1,10.38,2.37,15.31,7.38a24,24,0,0,1,6.65,13.39c.73,5.44-.8,9.43-2.81,14.68-2.71,7.1-6.13,11.11-12.14,18.17-4.26,5-6.83,7.07-9.95,7.12a9.59,9.59,0,0,1-4.87-1.56c-10.52-5.55-25.61-5.18-30-5.08-2.81.07-5.2.32-7.59-1.22-.61-.39-3.34-2.26-4.81-8.56A32.83,32.83,0,0,1,189.54,123.21Z"/><path class="cls-7" d="M169.85,72.53c-.07,1.84.81,3.25,1.9,4.74,5.87,8,12.51,11.13,14.43,10.59,5.51-1.59,3.87-6.78,1.49-10.72-.67-1.2-3.93-6.8-10.36-8.86C172.65,66.43,170.11,68.89,169.85,72.53Z"/><path class="cls-9" d="M181.48,107.22l-.77,0c-6.17,0-12.15-5.95-15.69-11.47-3.87-6-6.89-14.92-3.77-21.84h0a15.43,15.43,0,0,1,7.28-7.51,15.08,15.08,0,0,1,11.67-.29c3.68,1.51,5.51,4.08,7.84,7.34a34.89,34.89,0,0,1,4.87,10.25c1.37,4.7,2.55,8.76,1,13.49a13.81,13.81,0,0,1-12.39,10ZM164.71,75.49c-2.49,5.53.18,13,3.51,18.22,3.71,5.79,8.74,9.7,12.51,9.73A10,10,0,0,0,190.26,96c1.22-3.6.29-6.79-1-11.2a30.51,30.51,0,0,0-4.32-9.11c-2.12-3-3.52-4.94-6.18-6a11.34,11.34,0,0,0-8.62.23,11.55,11.55,0,0,0-5.43,5.62Z"/><path class="cls-7" d="M122.63,100.36c-1.43.17-3.39-1.44-3.65-3.09-.08-.44,0-.8-.28-1-.44-.33-1.45,0-1.93.59-.93,1.15-.07,3.55,1.13,5a5.57,5.57,0,0,0,3.75,1.93,3.66,3.66,0,0,0,2.85-.86,2.34,2.34,0,0,0,.72-2,1.54,1.54,0,0,0-.83-1C123.75,99.66,123.43,100.27,122.63,100.36Z"/><path class="cls-7" d="M177.76,89c-1.42.17-3.38-1.45-3.65-3.09-.07-.44,0-.81-.28-1-.43-.32-1.44,0-1.92.59-.93,1.15-.08,3.56,1.13,5a5.5,5.5,0,0,0,3.75,1.94,3.65,3.65,0,0,0,2.84-.87,2.28,2.28,0,0,0,.72-2,1.5,1.5,0,0,0-.83-1C178.89,88.24,178.56,88.86,177.76,89Z"/><path d="M96.56,62.69c3.49-9.83,18.21-16.07,27-9.48a.58.58,0,0,1-.16,1c-9,3.87-16.29,8.44-26.23,9.27A.6.6,0,0,1,96.56,62.69Z"/><path d="M151.65,50.37c3.92-11.65,22.95-14.49,28.9-3a.63.63,0,0,1-.45.89c-4.77,1-9.25,1.16-13.9,1.47s-8.77.91-13.88,1.43a.59.59,0,0,1-.67-.74Z"/><path class="cls-8" d="M188.48,237.27c-1.47,9.75-23.43,10.71-23-1C172.24,240.08,179.76,240.93,188.48,237.27Z"/><path class="cls-9" d="M175.63,241.15c-7.47,0-10.46-4.32-10.63-4.58a2,2,0,0,1,3.39-2.28c.22.31,4.66,6.12,18.08,0a2,2,0,0,1,1.71,3.71A30.37,30.37,0,0,1,175.63,241.15Z"/><path class="cls-7" d="M81.71,56.93S75.38,40.44,70.05,35.78s-6.59-6.34-17-9.19a27.32,27.32,0,0,0-18.63,1.53A63.48,63.48,0,0,0,15,42.93C6,53.1,8,57.86,5.33,62.46S3.92,82.63,3.92,82.63a48.41,48.41,0,0,0,8.3,19c7,9.94,22.34,10.34,22.34,10.34s14.94-1.27,17.75-6.78,1.91-10.32,2.17-14.92S50.78,67,50.78,67C66.1,73,70.05,82.38,70.05,82.38"/><path class="cls-15" d="M3,64.68a21.18,21.18,0,0,0,8.15,8.14c2.1,1.54,1.89,5.63,3,7.6a8.42,8.42,0,0,0,6.35,4.19c1.87.16,3.75-.48,5.59-.19,2.06.32,3.76,1.74,5.7,2.5a9.45,9.45,0,0,0,12.85-9c-.11-3.51-2.15-6.65-3-10.07-1.56-6.47,1.22-13.85-2-19.65s-12-7.91-13.66-14.91C16.34,38.82,8.76,49.5,3,64.68Z"/><g class="cls-16"><path class="cls-8" d="M14.75,45.54s-17.53,54.1,22.13,64.65a12.64,12.64,0,0,1-3.13,1.32c-9.83,2.63-22.66-7.2-28.4-17.81C-4.55,75.4,6.82,55.07,8,53a44.12,44.12,0,0,1,5.3-7.28Z"/></g><path class="cls-10" d="M73.71,89.2S62.8,70.12,51.84,67.09s0-.18,0-.18l3.31-19C69.05,52.15,74.63,80.56,73.71,89.2Z"/><path class="cls-10" d="M52.26,47.62s-7.46,4.66-6,18.57c1.34,11.52,4.46,26.31,4.29,28.6-.34,4.52-1.05,9-3.62,12.25-2.77,3.44,4-1.91,4-1.91l4.15-10.22L52.3,70.15Z"/><path class="cls-9" d="M33.21,115.13c-.6,0-1.18,0-1.75,0-7.84-.4-15-4-21.27-10.65C-3.37,90,0,69.22,1.4,63.18c4.08-18,19.89-38.27,41.17-40.4a38.32,38.32,0,0,1,22.6,4.75c14.31,8.22,18.15,23.29,19,27.71a2.5,2.5,0,0,1-4.91.93c-.62-3.29-3.14-13.29-11.44-20.62a1.55,1.55,0,0,1-.24.19A30.32,30.32,0,0,0,57.33,47.37c-5.6,11.71-2.29,27.08-.61,33.15l.1.35a37.74,37.74,0,0,1,1.43,7.7c.25,3.34.78,10.3-2.54,16.07C51.23,112.44,41.17,115.13,33.21,115.13ZM46.34,27.6c-1.26,0-2.37.07-3.27.16C24.12,29.65,10,48,6.28,64.29,5.4,68.15,1.66,88.07,13.83,101c2,2.13,8.08,8.59,17.88,9.09,6.77.35,16-1.52,19.66-7.94,2.56-4.44,2.11-10.36,1.89-13.2A32.17,32.17,0,0,0,52,82.22l-.1-.37c-2.28-8.21-5.18-23.88.92-36.64a34.66,34.66,0,0,1,10.8-12.78c-.3-.2-.62-.38-.94-.57A32.8,32.8,0,0,0,46.34,27.6Z"/><path class="cls-9" d="M71.71,92.79a2.49,2.49,0,0,1-2.35-1.66C66.79,83.9,62,74.69,53.55,71.85q-.54-.18-1.11-.33a2.5,2.5,0,0,1,1.27-4.84c.49.13,1,.27,1.44.43,8.17,2.76,14.71,10.49,18.92,22.34a2.51,2.51,0,0,1-1.52,3.2A2.74,2.74,0,0,1,71.71,92.79Z"/><path class="cls-9" d="M22.39,58.21a2.5,2.5,0,0,1-2.49-2.33C18.69,39,28.86,27.59,34,24.73a2.5,2.5,0,1,1,2.44,4.36c-2.57,1.43-12.66,10.63-11.53,26.44a2.5,2.5,0,0,1-2.32,2.67Z"/><path class="cls-7" d="M211.86,113H242.5c3.38,0,3-4.07,0-6.25,0,0-3.84-3.71-14.22-4-10.47,0-14.73,2.39-16.42,3.62C208.76,108.75,208,113,211.86,113Z"/><path class="cls-7" d="M226.23,117.89H217c-1,0-.75,1.22,0,1.88,0,0,1.15,1.19,4.27,1.19a10.27,10.27,0,0,0,4.93-1.09C227.1,119.22,227.39,117.89,226.23,117.89Z"/><path class="cls-17" d="M200.52,216.34c-2.05.34-3.1,6.22-1.84,6.88,20,11.17,41.68,15.1,72.6,18.7,2.15-4.67,3.13-14.11,3.57-17.11C249.7,215.58,229.69,212.6,200.52,216.34Z"/><path class="cls-18" d="M198.3,222.71a.91.91,0,0,0,.38.51c20,11.17,41.68,15.1,72.6,18.7a29.92,29.92,0,0,0,1.75-5.68C239.75,240.22,205.58,226,198.3,222.71Z"/><path class="cls-19" d="M280.13,235.9c0-.3,0-.65,0-1.28a4.73,4.73,0,0,1,.3-1.11,8.86,8.86,0,0,0,.49-3.16,6.7,6.7,0,0,0-.41-1.86,5.88,5.88,0,0,0-1.33-2.46,4.68,4.68,0,0,0-1.84-1,35.82,35.82,0,0,0-6.18-1.55,8.47,8.47,0,0,1-.35,2.08c-.26,1.17-1,1.31-1.43,2.42s.32,1.49-.08,2.81-1,1.07-1.24,2.15c-.3,1.29.51,1.82.08,2.92-.3.76-.8.79-1.28,1.46s-.84,1.8-.23,4c1.31.47,2.86.25,3.79.49a21.26,21.26,0,0,0,2.15.34c.34.06,1.08.87,2,.47.6-.27.59-.46,1.51-1s1.3-.5,1.61-.91.09-.74.4-1.67a5.64,5.64,0,0,1,1.07-1.84C279.83,236.35,280.09,236.33,280.13,235.9Z"/><path class="cls-20" d="M281.92,236.22a12.68,12.68,0,0,1,0-1.29,4.63,4.63,0,0,1,.3-1.1,8.68,8.68,0,0,0,.49-3.16,7,7,0,0,0-.4-1.86,5.9,5.9,0,0,0-1.34-2.46,4.45,4.45,0,0,0-1.63-1.09,40.22,40.22,0,0,0-6.39-1.45,8.54,8.54,0,0,1-.35,2.09c-.25,1.17-1,1.3-1.42,2.41s.31,1.5-.08,2.81-1,1.08-1.24,2.16c-.31,1.29.5,1.82.08,2.91-.3.76-.81.8-1.29,1.47s-.83,1.8-.23,4c1.32.47,2.45.89,3.38,1.13s1.6.37,2.39.5a4.09,4.09,0,0,0,2.14-.33c.59-.27.59-.46,1.5-1s1.3-.49,1.62-.91.08-.73.39-1.67a5.83,5.83,0,0,1,1.08-1.84C281.62,236.67,281.87,236.65,281.92,236.22Z"/><path class="cls-21" d="M282.11,236.24c.1-.44-.05-.61,0-1.28a4.63,4.63,0,0,1,.3-1.1,8.86,8.86,0,0,0,.49-3.16,6.8,6.8,0,0,0-.38-1.85,5.75,5.75,0,0,0-1.29-2.44,4.43,4.43,0,0,0-1.59-1.08c-2.14-.67-6.37,3-7.66,7.54-1.35,4.76.62,10.12,2.52,10.45a4.1,4.1,0,0,0,2.09-.35c.58-.27.58-.46,1.47-1s1.28-.5,1.59-.92.09-.73.4-1.67a6.2,6.2,0,0,1,1.06-1.84C281.73,236.8,282,236.74,282.11,236.24Z"/><path class="cls-20" d="M276.18,229.48h0a.11.11,0,0,1-.1-.13c.11-.85.35-1.33.75-1.47a1.11,1.11,0,0,1,.74.05,1.08,1.08,0,0,0,.77,0,1,1,0,0,0,.47-.45.12.12,0,0,1,.2.12,1.22,1.22,0,0,1-.58.55,1.28,1.28,0,0,1-.93,0,1,1,0,0,0-.59-.05c-.3.11-.5.54-.6,1.28A.12.12,0,0,1,276.18,229.48Z"/><path class="cls-20" d="M280.15,231.74a.12.12,0,0,1-.12-.12,1.45,1.45,0,0,1,.18-.78,1.41,1.41,0,0,1,.51-.52,1.12,1.12,0,0,0,.33-.28,1.5,1.5,0,0,0,0-1.36.12.12,0,0,1,.07-.15.13.13,0,0,1,.16.07,1.7,1.7,0,0,1,0,1.57,1.28,1.28,0,0,1-.39.35,1.23,1.23,0,0,0-.44.44,1.4,1.4,0,0,0-.15.66.12.12,0,0,1-.11.12Z"/><path class="cls-20" d="M277.54,233.81a.09.09,0,0,1-.08,0,.11.11,0,0,1,0-.16c.29-.26.41-.49.38-.69s-.15-.24-.29-.35a1,1,0,0,1-.39-.43c-.17-.41.07-1,.73-1.69a.12.12,0,0,1,.17,0,.11.11,0,0,1,0,.16c-.58.64-.82,1.13-.69,1.44a.78.78,0,0,0,.3.33.79.79,0,0,1,.39.51c.05.27-.1.57-.45.89A.11.11,0,0,1,277.54,233.81Z"/><path class="cls-20" d="M274.85,235.07a.11.11,0,0,1-.1-.06.12.12,0,0,1,0-.16.57.57,0,0,0,.27-.29c.09-.24-.06-.49-.21-.76l-.15-.26a2.86,2.86,0,0,1,0-2.07.13.13,0,0,1,.15-.08.12.12,0,0,1,.07.15,2.56,2.56,0,0,0,0,1.9,1.41,1.41,0,0,0,.13.24,1.16,1.16,0,0,1,.23,1,.8.8,0,0,1-.37.41Z"/><path class="cls-20" d="M274.41,238.24a1.61,1.61,0,0,1-1.19-.49,1.69,1.69,0,0,1-.39-1.53.12.12,0,0,1,.14-.09.13.13,0,0,1,.09.15,1.44,1.44,0,0,0,.33,1.31,1.41,1.41,0,0,0,1.15.41.11.11,0,0,1,.13.1.11.11,0,0,1-.1.13Z"/><path class="cls-20" d="M274.56,241.91h0a.11.11,0,0,1-.07-.15,1.09,1.09,0,0,0,0-.71,1.07,1.07,0,0,0-.38-.46,1.81,1.81,0,0,1-.43-.44,1.83,1.83,0,0,1-.23-1.28.11.11,0,0,1,.13-.11.12.12,0,0,1,.1.13,1.68,1.68,0,0,0,.19,1.13,1.77,1.77,0,0,0,.38.39,1.21,1.21,0,0,1,.46.57,1.28,1.28,0,0,1,0,.86A.13.13,0,0,1,274.56,241.91Z"/><path class="cls-20" d="M276.41,240.68a.12.12,0,0,1-.1-.05.11.11,0,0,1,0-.16l1.47-.91c.66-.41.93-.57,1.09-.92a1.48,1.48,0,0,0,.11-.85.11.11,0,0,1,.1-.13.11.11,0,0,1,.13.1,1.68,1.68,0,0,1-.13,1c-.19.41-.5.6-1.17,1l-1.48.91A.07.07,0,0,1,276.41,240.68Z"/><path class="cls-20" d="M276.64,238.37l-.06,0a.12.12,0,0,1-.05-.16q.63-1.11,1.26-1.11h0a.85.85,0,0,1,.38.11.77.77,0,0,0,.28.1c.37.06.79-.16,1.27-.65a.11.11,0,0,1,.16,0,.12.12,0,0,1,0,.17,1.79,1.79,0,0,1-1.48.72,1,1,0,0,1-.35-.12.65.65,0,0,0-.28-.08c-.32,0-.69.32-1.06,1A.11.11,0,0,1,276.64,238.37Z"/><path class="cls-20" d="M279.66,235.14a.11.11,0,0,1-.12-.11.12.12,0,0,1,.11-.12,1,1,0,0,0,.93-.56.67.67,0,0,0,0-.69.5.5,0,0,0-.34-.08c-.13,0-.27,0-.34-.11s.08-.46.62-.94a.11.11,0,0,1,.16,0,.12.12,0,0,1,0,.17c-.56.5-.56.64-.56.65a.72.72,0,0,1,.18,0,.62.62,0,0,1,.45.14.91.91,0,0,1,.1.95,1.24,1.24,0,0,1-1.14.7Z"/><path class="cls-22" d="M241.58,237.68c-1.28-5.91-1-10.78.58-14.71l6.05,1.2a32.09,32.09,0,0,0,.38,14.7C246.75,238.6,244.25,238.16,241.58,237.68Z"/><path class="cls-22" d="M259.26,222.09c-.47,2.38-6.21,3.26-12.83,2s-11.62-4.26-11.16-6.63c.25-1.27,1.74-1.39,4.33-1.71,4.58.59,12.68,2.13,15.72,3C257.72,220,259.51,220.79,259.26,222.09Z"/><path class="cls-23" d="M250.41,218.19c1.56.3,7.63,1.4,6.77,3.71a2,2,0,0,1-1,.72c-3.06,1-6.32.53-9.43.19a25.18,25.18,0,0,1-4.63-1c-1.79-.66-4-1.34-4.9-3.21-.67-3.21,5.26-2.33,7-1.61-1.87-.33-5-1.26-6.63.5a1.56,1.56,0,0,0,.55,1.94c2.38,2,5.7,2.58,8.7,3.07s6.32.85,9.3-.08a1.76,1.76,0,0,0,.89-.62.82.82,0,0,0-.16-1c-1.66-1.64-4.36-2-6.42-2.63Z"/><path class="cls-23" d="M243.14,223.92c-1.45,4.15-1,8.71-.34,12.93a.05.05,0,0,1-.05,0c-1.07-4.13-1.53-9.07.39-12.9Z"/><path class="cls-23" d="M247.55,224.44c-1.45,4.15-1,8.71-.34,12.93a.05.05,0,0,1-.05,0c-1.07-4.13-1.53-9.06.39-12.9Z"/><path class="cls-24" d="M275,216.28c3.08-7.13,2.85-15.73-2-22-1.46-2.12-3.18-4.1-4.48-6.44-3.9-7.07-3.68-15.53-1.88-23.14a50.87,50.87,0,0,1,2.3-7.49c-2.41,9.81-4.59,20.85.37,30.19,2.56,4.43,6.58,8.35,7.67,13.59a22.18,22.18,0,0,1-2,15.31Z"/><path class="cls-24" d="M282.42,211.37c3.64-5,5.26-11.61,1.75-17-1-1.73-2.32-3.37-3.36-5.26a24.54,24.54,0,0,1-2.69-12.33,41.44,41.44,0,0,1,2.34-12.3,63.2,63.2,0,0,0-1.24,12.3A25.74,25.74,0,0,0,282,188.5c.92,1.77,2.24,3.4,3.27,5.27,3.56,5.65,1.57,13.19-2.86,17.6Z"/><circle cx="126.05" cy="97.56" r="28.34"/><ellipse cx="183.45" cy="80.68" rx="24.56" ry="25.84" transform="translate(-16.78 72.34) rotate(-21.35)"/><path d="M151.81,86.27l-3-.08a7.19,7.19,0,0,1,4.09-6.46,8,8,0,0,1,8.44,1.15l-1.82,2.39a5.12,5.12,0,0,0-5.33-.84A4.28,4.28,0,0,0,151.81,86.27Z"/><rect x="64.24" y="98.62" width="34.69" height="3" transform="translate(-13.9 13.16) rotate(-8.5)"/><path class="cls-7" d="M115.15,81.56c-2.31,2.58-4.4,4.87-5.77,7.91s-1.83,6.28-2.39,9.71a1.1,1.1,0,0,1-2.07.31c-2.64-5.63-1.28-13.14,3.58-17.21,1.21-1.06,6.25-4.45,7-1.88a1.24,1.24,0,0,1-.3,1.16Z"/><path class="cls-7" d="M175.87,64.5c-2,2.84-3.76,5.37-4.74,8.56s-1,6.46-1.17,9.94a1.1,1.1,0,0,1-2,.56c-3.32-5.27-2.9-12.89,1.41-17.53,1.07-1.2,5.65-5.18,6.67-2.72a1.26,1.26,0,0,1-.16,1.19Z"/><ellipse class="cls-7" cx="115.16" cy="95.83" rx="5.34" ry="3.15" transform="translate(-3.47 187.32) rotate(-77.4)"/><ellipse class="cls-7" cx="176.63" cy="79.54" rx="5.17" ry="3.15" transform="translate(60.48 234.58) rotate(-77.4)"/><path class="cls-8" d="M55.84,361c-1.35,9.88-1.27,18.05,7,24.68,0,1.09,0,2.19,0,3.29-9.78-5.72-10.61-14.05-9.69-24.6.1-1.2,0-2.21.06-3.39Z"/><path class="cls-9" d="M65.14,391.5a2.5,2.5,0,0,1-2.48-2.23l-1.6-14.53a2.5,2.5,0,0,1,5-.54l1.6,14.52a2.5,2.5,0,0,1-2.22,2.76Z"/><path class="cls-9" d="M80.83,393.29a2.49,2.49,0,0,1-2.47-2.14L76,374.9a2.5,2.5,0,0,1,5-.72l2.36,16.25a2.5,2.5,0,0,1-2.11,2.84A2.17,2.17,0,0,1,80.83,393.29Z"/><path class="cls-9" d="M53.16,362.31a2.49,2.49,0,0,1-.86-4.84l10.5-3.87a2.5,2.5,0,0,1,1.73,4.69L54,362.16A2.33,2.33,0,0,1,53.16,362.31Z"/><path d="M105,341.7c7.17-21.46,6.59-49.65-1.75-57.35L122.06,276S132.8,293,142,291.52C129.24,313.33,118,335.05,105,341.7Z"/><path d="M117.29,278.72l-3.59-12.28s33.7,18.67,34,18.7c0,0-8.09,7.06-8.26,12.34"/><path d="M158.49,292.54c-1.16-1-1.39-8.1.93-10.46,0,0,9.28-3.09,11.41-7.75a8.36,8.36,0,0,1,4.22,5.47c1,4.07-6.86,10.51-6.86,10.51Z"/><path class="cls-9" d="M88.17,346.63l0-5.28.18-.31a66.79,66.79,0,0,1,7.58-3,61.2,61.2,0,0,0,7.11-2.78l4.2-1.72-2.12,6.27a65.36,65.36,0,0,1-7.6,3,62.64,62.64,0,0,0-7.09,2.77Z"/></g></g></svg>