<svg xmlns="http://www.w3.org/2000/svg" width="286.86" height="492.37" viewBox="0 0 286.86 492.37"><defs><style>.cls-1{isolation:isolate;}.cls-2{fill:#fff;}.cls-3{fill:#eee;}.cls-4{fill:#7a7a7a;}.cls-5{fill:#ccc;}.cls-6{fill:#b2b2b2;}.cls-7{mix-blend-mode:darken;}</style></defs><g class="cls-1"><g id="STANFING"><path class="cls-2" d="M153.35,399.91l-8.26,75.66,2,2.89,16.17,3.06L175.48,486l8.76,2.3,8.68.59,6.05-2.55,4.08-5.11-.42-5.36L198.37,470l-7.49-5.11-9.7-1.53,4.68-31.66,2.81-24.08,1-16.85C179.86,395.78,167.36,398.5,153.35,399.91Z"/><path class="cls-2" d="M121.94,284.63c-7.14,0-68.42,23.87-70.61,50.77-7.64,24.8,2.3,27.19,2.3,27.19s-9,16.34,5.68,24.89,16.15,6,25.85,4,7.34-21.07,7.34-21.07c11.49,5.28,7.31-5.78,7.31-5.78l-12.5-14.81.93-6.21,21-10.6,2.81.13-3.45,22.21-2,7.28-1.11,18.25.89,9.67,2.36,4.32,5.14,2.27L126,399.74l38.47,2.42,22.13-8.28,10.42-13.16,2.23-16.41-3-16.66-.63-13,14.89,7.49,15.06-.26L245,330.72l17.62-14.3,3.65-.09,14-9.53,3.07-21.11-5.37-11.91-10.46-2-8.77,5.44-6.64-22.89-7.4-4.17-3,5.11.59,10.63-.93,12L217.6,301.78s-34.89-18.13-55.72-19.66C155.82,280.76,139.31,280.76,121.94,284.63Z"/><polygon class="cls-3" points="185.99 395.1 178.32 460.8 181.78 460.23 189.69 392.5 185.99 395.1"/><path class="cls-3" d="M173,465.67s19.12.6,22.83,7.43,2.88,10.14,2.88,10.14l-.11,1.41,3.66-.23L202,471.76l-10.32-7.39C184.37,464.49,177.49,464.74,173,465.67Z"/><path class="cls-3" d="M153.5,399.3l-7.77,76.21,2.5,2.49,24.31,6.73,7.12,3.33,7-1.2S172,479.44,161.48,478s-11.56-2.66-11.56-2.66c-2-2.06,6-65.95,5.58-76.13Z"/><path class="cls-3" d="M113.36,326.65s3.36,16.05,1.28,24.6-4.91,23.37-4.91,23.37-1.84,11.22,3.06,17.58,21.92-.7,23-1.33c8-4.22,26.23-2.68,34-1.06,0,0,18,1.27,28.22-14.56,0,0,.61,4.7-2.29,7.79s-11.13,8.43-11.13,8.43-17.09,6.81-23.47,5.63-27.4-1.3-27.4-1.3-14.33,2.82-22.51.77-5.45-20.25-5.45-20.25l7-48.62"/><path class="cls-4" d="M191.77,492.37h-.15c-1.52,0-15-.52-20.21-4.46-3.13-2.37-15.14-4.29-20.26-5.11-2.25-.35-3.46-.55-4.1-.72-3.28-.88-5.3-4.23-5.52-4.61l-.41-.71,8.08-77.18a2.5,2.5,0,1,1,5,.52l-7.9,75.46a4.83,4.83,0,0,0,2.07,1.69c.43.11,2,.36,3.6.62,8.88,1.42,18.68,3.17,22.49,6.05,2.94,2.23,12,3.29,17.17,3.45,5.12-.52,9.29-3.35,10.17-6.91,1-4.08-2.62-8-4-9.43-7.39-7.9-20.33-5.87-22.85-5.38a2.5,2.5,0,1,1-1-4.91c3-.58,18.27-2.94,27.45,6.87,1.7,1.82,6.86,7.34,5.2,14.06-1.42,5.7-7.33,10-14.71,10.69Z"/><path class="cls-2" d="M146.8,399.87l-6.09,80.86-2.27,2.66L122,484.64l-12.67,3-9,1.31-8.7-.38L86,485.4l-3.49-5.52,1-5.29,4.88-5.36,8-4.24,9.81-.45-1.13-32-.52-23,.86-16.86C114.62,398.85,132.9,399.61,146.8,399.87Z"/><path class="cls-4" d="M182.88,463.85a2.11,2.11,0,0,1-.35,0,2.5,2.5,0,0,1-2.12-2.83c.07-.54,7.63-53.77,7.46-68.9a2.5,2.5,0,0,1,5-.05c.17,15.5-7.2,67.45-7.51,69.66A2.51,2.51,0,0,1,182.88,463.85Z"/><path class="cls-3" d="M146.67,399l-6.53,81.54-2.85,2.11-25,3.11L104.73,488l-6.38-.3s15.19-7.12,25.83-7,11.83-.95,11.83-.95c2.32-1.75,7.68-70.81,9.61-80.81Z"/><path class="cls-4" d="M151.8,400.92a113.73,113.73,0,0,1-18.58-1.6,2.5,2.5,0,0,1,.89-4.92c.22,0,22.08,3.92,34.73-.93a2.5,2.5,0,0,1,1.79,4.67C165.07,400.27,158.16,400.92,151.8,400.92Z"/><path class="cls-4" d="M188.75,491.34a2.5,2.5,0,0,1-2.5-2.45c-.05-2.83-2-6.16-2.69-7.21a2.5,2.5,0,0,1,4.09-2.87c.14.2,3.5,5,3.6,10a2.5,2.5,0,0,1-2.45,2.55Z"/><path class="cls-2" d="M187.36,67s1.47-10.33,15.1-20.41c0,0,1,19.65,2.49,24.16s1.85,9.52,6.1,14.26,19.44,2,19.44,2S245.63,82.64,250,70.9a49.82,49.82,0,0,0,3.22-21.11S250.35,34,246.46,30.1,243.29,21,231.65,13.24a65.31,65.31,0,0,0-23.21-9.59,28.14,28.14,0,0,0-18.95,3.4c-9.57,5.58-10.38,7.59-14.45,13.63s-6,24.13-6,24.13"/><path class="cls-5" d="M243.79,79.63c-3.07,6.68-15.38,8.49-25.53,8.91s-13.78-13.77-13.78-13.77l-.39-16s-1-15.2-5.87-25.54a29.11,29.11,0,0,0-13.91-14s13-2.72,19.53,17.58c0,0,6.95,16.91,7.35,30.82.6,8.53,3.41,11.58,5.92,12.91s18.14,6.76,32.18-8Z"/><path class="cls-5" d="M180.22,52.91c-6.43-8.45.74-30.55,3.38-31.4,9.93,6,14.7,15.18,16.15,26.3l-10.47,12.7-7.4-4.28Z"/><path class="cls-4" d="M223.34,91.1c-5.77,0-11.65-1.52-15.82-5.72-4.83-4.87-6.14-11.92-6.78-15.32a38.82,38.82,0,0,1-.61-8v-.37c.07-6.48-.71-22.64-9.37-32.8A31.15,31.15,0,0,0,177.5,20l-.3-.13C170.89,29.35,171,40,171.29,43.4a2.58,2.58,0,0,1-5.14.37c-.33-4.62-.49-20.62,11.56-32.58A39.28,39.28,0,0,1,198.93.49C220.65-3,241.75,13,250.56,29.78c3,5.64,11.84,25.43,2.17,43.34-4.48,8.3-10.64,13.76-18.33,16.23A37,37,0,0,1,223.34,91.1ZM180.55,15.65a35.7,35.7,0,0,1,14.12,9.86c9.44,11.07,10.7,27.43,10.61,36.19v.39a33.5,33.5,0,0,0,.53,7c.54,2.89,1.66,8.89,5.37,12.63,5.37,5.41,15,4.83,21.65,2.7,9.62-3.09,14-11.13,15.38-13.77,8.69-16.08-.3-34.9-2.2-38.51-8-15.23-26.9-29.73-46.25-26.6a34.14,34.14,0,0,0-18.41,9.27C181.07,15.11,180.8,15.38,180.55,15.65Z"/><path class="cls-4" d="M187.81,77.91h-.21a2.58,2.58,0,0,1-2.36-2.77c1-12.91,5.51-22.32,12.91-27.22.42-.29.86-.56,1.32-.82A2.57,2.57,0,0,1,202,51.57c-.35.2-.69.41-1,.62-7.62,5.06-10,15.49-10.62,23.35A2.57,2.57,0,0,1,187.81,77.91Z"/><path class="cls-4" d="M227.71,30.47a2.58,2.58,0,0,1-2.53-2.09c-3.05-16-15.53-22.5-18.46-23.24a2.57,2.57,0,0,1,1.27-5c5.85,1.49,19,10.11,22.25,27.26a2.57,2.57,0,0,1-2.05,3A2.7,2.7,0,0,1,227.71,30.47Z"/><path class="cls-4" d="M197.88,489.36h-.08a2.49,2.49,0,0,1-2.42-2.57c.08-2.51-1.95-5.41-2.74-6.31a2.5,2.5,0,0,1,3.76-3.3c.42.48,4.13,4.84,4,9.76A2.5,2.5,0,0,1,197.88,489.36Z"/><path class="cls-3" d="M119.93,285.13s-49,28.14-54.79,35.29c-13.55,16.73-10.75,39.37-9.9,38.45l-3.74,1.49s-4.62-16.7.74-27.3,4.85-10.27,4.85-10.27l6.83-7.86,24-14.87,30.23-15.67Z"/><path class="cls-3" d="M56.14,362.87s-4,21.45,7.14,24.7v3.3s-14.29-5-9.83-24.62l0-3.38Z"/><polygon class="cls-3" points="108.65 398.7 108.65 462.28 105.27 461.35 105.27 395.8 108.65 398.7"/><path class="cls-3" d="M113.07,467.11S94,465.89,89.65,472.34s-3.83,9.82-3.83,9.82l0,1.41L82.18,483l1.47-12.58,11-6.38Z"/><path class="cls-5" d="M195.41,322.72S201.54,340,233.26,338c0,0-7.53,7.85-25.59,3.19s-12.26-12.12-12.26-12.12Z"/><polygon class="cls-5" points="109.03 327.72 91.16 338.19 91.54 341.04 109.5 332.7 109.03 327.72"/><path class="cls-3" d="M167.84,286.79s46.21,18.63,48.64,20.42,9.57-4.59,9.57-4.59S242.9,284,244.82,281.81s-1.66-18.39-1.66-18.39L240,280l-11.61,10.47-8.17,7.92-3.62,1.82-45.62-18Z"/><path class="cls-4" d="M98.91,492.38c-3.17,0-5.7-.2-6.3-.25l-.3,0c-7.26-1.51-12.66-6.44-13.43-12.27-.91-6.86,4.84-11.77,6.73-13.39,10.21-8.73,25.15-4.68,28-3.78a2.5,2.5,0,0,1-1.49,4.77c-2.45-.76-15.09-4.21-23.3,2.81-1.53,1.31-5.57,4.77-5,8.94.48,3.63,4.31,6.9,9.34,8,5.13.41,14.28.37,17.45-1.52,4.1-2.44,14-3.09,23-3.52,1.64-.07,3.2-.15,3.64-.21a4.9,4.9,0,0,0,2.31-1.52l6.84-80.77a2.5,2.5,0,1,1,5,.42l-7,82.27-.42.57c-.26.36-2.65,3.46-6,4-.67.1-1.88.16-4.15.27-5.19.24-17.34.82-20.72,2.82S103.65,492.38,98.91,492.38Z"/><path class="cls-4" d="M104.74,464.78a2.49,2.49,0,0,1-2.5-2.4c-.08-2.17-2-53.41-.13-68.8a2.5,2.5,0,1,1,5,.61c-1.84,15,.14,67.47.16,68a2.49,2.49,0,0,1-2.4,2.59Z"/><path class="cls-4" d="M95.85,491.45l-.33,0a2.5,2.5,0,0,1-2.15-2.81c.65-4.92,4.53-9.34,4.69-9.52a2.5,2.5,0,0,1,3.74,3.31c-.84,1-3.1,4.06-3.48,6.87A2.5,2.5,0,0,1,95.85,491.45Z"/><path class="cls-4" d="M87,488.47h-.2a2.49,2.49,0,0,1-2.29-2.69c.39-4.91,4.56-8.83,5-9.26a2.5,2.5,0,1,1,3.36,3.7c-.88.81-3.22,3.46-3.42,6A2.5,2.5,0,0,1,87,488.47Z"/><path class="cls-3" d="M132.73,346s42.7-3.28,51.81-.71C179.13,336.71,140.35,336.78,132.73,346Z"/><path class="cls-5" d="M109.38,355.78c1.85.34,3.35,1.71,5.24,1.85,4.14.32,7.46-4.95,11.56-6.74,7.78-3.07,12.81,5.95,7.22,13-1.6,1.89-3.85,3.13-5.14,5.27-1.65,2.75-1.25,6.05-1.27,9.11s-1,6.89-3.79,8c-3.49,1.46-6.36-2.69-10-2.23s-5.86,4.88-9.21,6.45"/><path class="cls-6" d="M109.07,354.2c1.85.35,3.34,1.71,5.24,1.86,4.14.31,7.46-4.95,11.55-6.74,7.78-3.08,12.82,5.94,7.23,13-1.61,1.9-3.85,3.14-5.15,5.28-1.65,2.74-1.24,6-1.26,9.11s-1.05,6.88-3.79,8c-3.5,1.47-6.36-2.69-10-2.22s-5.86,4.88-9.22,6.44"/><path class="cls-4" d="M110.66,400.17a2.51,2.51,0,0,1-1.09-.25,14.12,14.12,0,0,1-4-2.95,14.82,14.82,0,0,1-3.39-6.11c-1.28-4.33-.84-8-.45-11.3l.07-.6a53.71,53.71,0,0,0,.46-8.65,30.17,30.17,0,0,1,.58-7.34,72,72,0,0,1,2.38-9.31c.47-1.49.95-3,1.4-4.82a69.82,69.82,0,0,0,2-21.2,2.5,2.5,0,0,1,5-.27,75.23,75.23,0,0,1-2.12,22.71c-.49,1.9-1,3.51-1.47,5.06a66.28,66.28,0,0,0-2.24,8.73,25.72,25.72,0,0,0-.51,6.32,57.64,57.64,0,0,1-.49,9.35l-.07.62c-.35,2.92-.71,5.94.28,9.27a9.9,9.9,0,0,0,2.23,4.1,9.13,9.13,0,0,0,2.6,1.9,2.5,2.5,0,0,1-1.1,4.74Z"/><path class="cls-5" d="M198.47,382.73c-3.24,1.19-7.05,2.34-10,.5-2.18-1.37-3.14-4-4-6.43l-4.34-12.88c-1-2.86-1.95-5.89-1.4-8.86.83-4.49,5.05-7.73,9.49-8.81a65.71,65.71,0,0,1,6.92-1"/><path class="cls-6" d="M197.6,380c-3,1.12-6.62,2.21-9.37.47-2-1.29-2.95-3.76-3.73-6.05l-4.09-12.1c-.91-2.7-1.83-5.54-1.31-8.34.78-4.22,4.75-7.26,8.92-8.27a64.84,64.84,0,0,1,7.09-1C200.89,358.47,201.6,370.18,197.6,380Z"/><path class="cls-4" d="M184.54,394.71a2.51,2.51,0,0,1-.79-4.88,20.9,20.9,0,0,0,11.08-8.05c3-4.65,3-9.51,2.91-16.23a65.19,65.19,0,0,0-2.35-15.88c-.6-2.38-1.09-3.89-1.56-5.35a47.46,47.46,0,0,1-1.66-6.14,55.68,55.68,0,0,1-.93-14.3,2.5,2.5,0,0,1,5,.31,50.63,50.63,0,0,0,.85,13,41.38,41.38,0,0,0,1.5,5.56c.48,1.47,1,3.14,1.66,5.67a70.18,70.18,0,0,1,2.5,17.06c.07,7,.13,13.09-3.72,19a25.83,25.83,0,0,1-13.69,10.08A2.72,2.72,0,0,1,184.54,394.71Z"/><path class="cls-4" d="M89.88,346.07a2.5,2.5,0,0,1-1-4.77l19.85-9.19a2.5,2.5,0,1,1,2.1,4.53l-19.85,9.19A2.47,2.47,0,0,1,89.88,346.07Z"/><path class="cls-4" d="M76.85,397.35a35.55,35.55,0,0,1-16.71-4.23L60,393a21.15,21.15,0,0,1-5.41-3.94c-5.41-5.61-6.26-13.13-6-18.46a28,28,0,0,1,1.12-6.93c-3.3-2.2-5.26-11.35-2.86-23.68,1.31-6.7,2.66-13.64,7.92-20.9C57,316,61,311.52,71.66,305.32l3.18-1.88c10.93-6.48,36.51-21.67,49.77-25.1a2.5,2.5,0,0,1,1.25,4.84c-12.57,3.26-38.65,18.74-48.47,24.56-1.32.79-2.41,1.44-3.21,1.9-9.83,5.73-13.4,9.65-15.4,12.42-4.62,6.36-5.8,12.46-7.06,18.92-2.24,11.49-.11,17.28.65,18.46a4.54,4.54,0,0,1,1.91,6.14c-.73,2.47-2.44,13.48,3.89,20a16.12,16.12,0,0,0,4.23,3l.16.09c8.43,4.66,22.17,5.13,26.19-1,1.72-2.61,2.42-7.28,1.65-10.86-.1-.45-.26-1.05-.41-1.67-.86-3.32-1.42-5.52,1-6.39a2.71,2.71,0,0,1,3.31,1.34l.07.11a3.63,3.63,0,0,0,2.09.83,3.27,3.27,0,0,0,2.45-.62c1.36-1.16.88-3.6.42-4.59a4.14,4.14,0,0,0-1.09-1.43c-2.75-2.35-6.66-6.56-12-12.87l-1-1.23.69-1.46c1.9-4,1.07-16.34.1-23.2a2.5,2.5,0,0,1,5-.71c.26,1.84,2.31,17,.06,24.5a108.77,108.77,0,0,0,10.42,11.17,9,9,0,0,1,2.41,3.16c1.41,3.13,1.47,7.73-1.74,10.47a8.15,8.15,0,0,1-6.29,1.78l-.49-.07c1,4.88,0,10.81-2.39,14.49C89.82,395.23,83.6,397.34,76.85,397.35ZM53.72,366.21h0Zm-3.29-3.76a1.79,1.79,0,0,0-.4.5A1.91,1.91,0,0,1,50.43,362.45Zm0,0Z"/><path class="cls-4" d="M217.37,346.59a34.66,34.66,0,0,1-24.18-9.86,2.5,2.5,0,1,1,3.49-3.58,30.25,30.25,0,0,0,15,7.88,29.79,29.79,0,0,0,15.63-1.12,49.57,49.57,0,0,0,6.86-3.67,62.35,62.35,0,0,0,13.05-9.74c1.84-1.68,4.13-3.77,7.29-6.47a26.93,26.93,0,0,0,3.14-4.64,7.37,7.37,0,0,1,1.66-2.33l1.21-.95,1.42.65a2.38,2.38,0,0,1,1.08.95,3.56,3.56,0,0,1,1.76.63l.31.23,0,0c.37,0,1.85-.29,6-2.81,3.6-2.18,5.77-3.5,6.47-4.3,2.24-2.55,2.71-5.39,3.5-11.06.82-5.89,1.32-9.45-.19-13.62-.74-2-2.26-6.21-6.38-8.3-.22-.11-5.42-2.7-8.76-.47a9.09,9.09,0,0,0-3.27,4.23c0,2.3-1.31,3-2.07,3.2-2.26.62-3.4-1.63-3.89-2.59a31.35,31.35,0,0,1-3.07-9.32,52.88,52.88,0,0,1-.53-7.21,8.85,8.85,0,0,0-.39-3c-1.18-4.09-3.11-5.82-3.89-6.37A4.5,4.5,0,0,0,246,251.9a3.15,3.15,0,0,0-2.18.69c-.58.59-.62,1.75-.61,3.08,0,3.39.32,6.93.6,10.36.18,2.25.35,4.38.45,6.37a14,14,0,0,1-.9,6,13.47,13.47,0,0,1-2.75,4.24c-8.1,8.72-12.58,13.55-18.18,18.21l-.09.12a5.91,5.91,0,0,1-6.7,2.53,8.81,8.81,0,0,1-3-1.31c-1.29-.88-7-2.94-11.52-4.6-1.33-.48-3.35-1.43-5.92-2.64-8-3.77-21.36-10.07-33.6-11.66a2.5,2.5,0,0,1,.64-5c13,1.69,26.84,8.2,35.09,12.09,2.45,1.16,4.39,2.07,5.5,2.47,6.73,2.45,11,4,12.63,5.17a3.65,3.65,0,0,0,1.25.56,2.23,2.23,0,0,0,.81.1c.28-.07.63-.52.87-.83a5.21,5.21,0,0,1,.72-.79c5.19-4.3,9.21-8.59,17.83-17.87a8.31,8.31,0,0,0,1.77-2.69,8.76,8.76,0,0,0,.54-3.86c-.09-1.9-.25-4-.43-6.2-.29-3.51-.58-7.14-.62-10.71,0-1.69,0-4.51,2-6.63A8,8,0,0,1,246,246.9a9.51,9.51,0,0,1,5.54,2c1.48,1.06,4.21,3.66,5.77,9.06a13.55,13.55,0,0,1,.59,4.36,48.28,48.28,0,0,0,.49,6.61,24,24,0,0,0,1.13,4.32,14.59,14.59,0,0,1,3.44-3.37c5.52-3.69,12.46-.5,13.79.17,5.89,3,7.94,8.64,8.82,11.06,1.93,5.33,1.31,9.81.44,16-.79,5.73-1.37,9.87-4.68,13.66-1.21,1.39-3.23,2.61-7.65,5.28-5.39,3.27-8.33,4.18-10.65,3.11a3.27,3.27,0,0,1-2,.31,25,25,0,0,1-3,4.08l-.2.18c-3.15,2.7-5.44,4.78-7.27,6.45a66.85,66.85,0,0,1-13.89,10.36A50.12,50.12,0,0,1,229,344.6,34.35,34.35,0,0,1,217.37,346.59Zm4.91-45.7h0Z"/><g id="HEAD"><path class="cls-2" d="M120.32,284.63c-4.6-21.41-15.12-58.79-18.18-61.83-41-40.72-36.63-117.72-36.42-128.21.62-32.05,10.51-45.55,15-50.76,21.06-24.55,52.17-23.07,67-16.6,10.51,4,20,11.15,34.82,31.24,21.72,29.53,37.66,51.2,41,84.61,3.06,30.55-6.12,53.91-12,69-15.37,39.13-28.89,59.51-44.41,72.33"/></g><path class="cls-5" d="M72.26,90.7c-.53,7.54.53,19.3.53,29.06.81,27.2,6.39,58.71,31.76,102.3-9.31-6.68-24.43-25-30.8-57-5.84-29.37-8-38-6.76-38.5l-.34-41Z"/><path class="cls-5" d="M132.63,24.83c17.28,13,65.34,73.54,95,97.28,23.46,16.25,31.87,39.42,20.91,71,0,0,22.72-9.19,6.51-59.36,0,0-17.41-7.28-39.7-16-1.63-15.82-12.73-34.23-30.47-54.47C180.33,59.15,158.68,24.34,132.63,24.83Z"/><path class="cls-4" d="M167.09,286.9a2.48,2.48,0,0,1-1.68-.65,2.62,2.62,0,0,1,.24-3.9c10.08-8.35,26.87-28.79,43.53-71.2,5.92-15.08,14.87-37.87,11.88-67.82-3.28-32.73-18.9-54-40.53-83.37-14.89-20.25-23.94-26.64-33.71-30.39l-.1-.05c-14.2-6.18-44.18-7.33-64.14,15.94-9.1,10.65-13.93,27.2-14.36,49.18C67.74,119.06,67.59,185,103.9,221c2.5,2.48,15.9,44.72,20.8,67.39a2.54,2.54,0,0,1-1,2.64,2.51,2.51,0,0,1-3.9-1.52c-4.56-21.19-17.21-62.73-19.45-65-37.68-37.44-37.65-105-37.16-130,.45-23.17,5.69-40.78,15.57-52.34,21.84-25.46,53.73-24.29,69.88-17.28C159,28.89,169,35.87,184.55,57,206.65,87,222.62,108.74,226,142.83c3.12,31.15-6.1,54.62-12.2,70.15-17.18,43.73-35,65-45.14,73.35A2.53,2.53,0,0,1,167.09,286.9Z"/><path class="cls-2" d="M154.51,65.58c8.18,30.14,26.45,46.22,42,47.8,10.88,1.12,20.67,3.12,20.67,3.12,8.32.06,10.16-1.36,15-.62,11.82,1.81,19.28,13.29,21.92,17.36,13.57,20.88,5.4,44.92,5,46.07-6.14,17.16-20.26,25.1-22.45,27.7-33.06,39.15-110.38-8.38-112-28.3-1-13,.68-24.67,2.62-28.48C154.59,148.29,167.48,105.55,154.51,65.58Z"/><path class="cls-2" d="M155.14,65.46c8.18,30.14,26.45,46.22,42,47.8,10.88,1.11,20.67,3.11,20.67,3.11,8.32.07,10.16-1.35,15-.62,11.82,1.82,19.28,13.3,21.92,17.36,13.57,20.89,5.4,44.93,5,46.08-6.13,17.16-20.25,25.1-22.44,27.7-33.06,39.15-108-7.51-109.58-27.43-1.05-13-1.75-25.55.19-29.36C155.22,148.16,168.11,105.43,155.14,65.46Z"/><path class="cls-5" d="M255,134c17,42.89-8.79,63.15-8.79,63.15,11-31.58,4.83-58.54-18.63-74.78Z"/><path class="cls-3" d="M204.73,220.28s-84.51,6.25-79-68.78l3.49-2.66C125.84,213.89,197.57,222.76,204.73,220.28Z"/><path class="cls-3" d="M191.23,122.91s-4.07,6-3.43,20.78,12.48,12.71,12.48,12.71,17-2.53,28.82,2.93,12.79-6.19,12.79-6.19"/><path class="cls-3" d="M131.67,146.53S149.3,174,165.08,185.59s27.63,20.6,27.63,20.6,7.34,5.5,16.47,5c13,0,26.32-18,26.32-18l-.6,4.91a32.28,32.28,0,0,1-1.7,3.32c-4.16,7-11.37,13-18.47,14.89-7.54,2-14.87-.48-23.32-5-11.78-6.32-37.73-17.69-53.36-47.06a98.88,98.88,0,0,1-6.89-16.34Z"/><path class="cls-4" d="M209.76,220.63c-14.81,0-32-13.6-42.82-22.19L165,196.92c-16-12.61-28.74-29.07-37.83-49a2.5,2.5,0,0,1,4.55-2.07c8.75,19.15,21,35,36.37,47.1l1.95,1.53c11,8.7,31.41,24.88,44.86,20.31,7.32-2.5,12.66-9,14.94-11.75,5.8-7.06,6.06-16.49,6.18-21,0-.92,0-1.59.1-2.13-1.2-11.63-3.09-18.79-6.85-30.32-2.65-8.14-5.39-16.55-12.5-23.77a26.15,26.15,0,0,0-11-6.88l-.73-.25a61.09,61.09,0,0,0-8.41-2.81c-9.8,1.51-28.39-3.06-44.5-49.49a2.5,2.5,0,0,1,4.73-1.64c15.59,44.94,32.59,47.25,39.17,46.16.73-.12,1.83-.3,10.79,3.1l.53.19a30.9,30.9,0,0,1,13,8.11c7.94,8.06,10.86,17,13.7,25.73,3.9,12,5.85,19.39,7.09,31.66l0,.33-.06.33c0,.25-.06,1.08-.08,1.82-.13,4.69-.42,15.69-7.31,24.05-2.34,2.85-8.53,10.37-17.2,13.32A20.78,20.78,0,0,1,209.76,220.63ZM196.54,115.87Z"/><path class="cls-4" d="M117.94,154.87a2.5,2.5,0,0,1-.46-5c11.56-2.17,13.82-11.2,13.91-11.59a2.5,2.5,0,0,1,4.87,1.11c-.11.51-3,12.6-17.86,15.39A2.4,2.4,0,0,1,117.94,154.87Z"/><path class="cls-6" d="M85.89,77c10.26-19.24,35.4-27.92,50.68-15.52,3.71,2.83,5.94,6.42,10.25,13.5,3.52,5.79,6.33,10.45,9,17.33,2.16,5.68,3.41,9.07,3.45,13.94-.18,9.37-2.12,17.08-16.4,23.56-25.92,12.75-56.13,7.47-60.65-28.18C81.63,97.38,80.47,87.35,85.89,77Z"/><path class="cls-2" d="M117.87,119.68c-15.26-3.78-24.83-31.25-9.61-46.2,9.35-8.65,20.37-5.92,27.58,3.1,5.77,6.63,6.5,14.18,7,19.12.63,6.59,1.21,12.62-2.72,17.45s-10.54,6-13.4,6.48A21.85,21.85,0,0,1,117.87,119.68Z"/><path class="cls-4" d="M121.82,122.62a19.85,19.85,0,0,1-4.52-.5h0c-8.08-2-15.12-10-17.94-20.29-3.11-11.39-.43-22.65,7.18-30.12,4.64-4.3,9.93-6.33,15.35-5.92,5.85.44,11.49,3.7,15.9,9.19,6.26,7.23,7.07,15.53,7.54,20.49.65,6.71,1.32,13.64-3.27,19.27s-11.82,6.84-14.92,7.37A31.41,31.41,0,0,1,121.82,122.62Zm-3.36-5.37a19.64,19.64,0,0,0,7.82-.08c2.75-.47,8.48-1.44,11.88-5.61s2.77-9.4,2.17-15.62c-.45-4.66-1.13-11.69-6.38-17.72l-.07-.08c-3.53-4.42-7.94-7-12.4-7.37-4-.31-8,1.27-11.52,4.55-6.24,6.13-8.44,15.57-5.81,25.18C106.5,109.1,112.11,115.67,118.46,117.25Z"/><path class="cls-2" d="M161.28,66.73c2.72-6,10.1-12.48,20.94-8.65,4,1.65,6.07,4.52,8.89,8.48a41.25,41.25,0,0,1,5.82,12.27c1.7,5.83,3,10.39,1.25,15.67-.43,1.27-2.33,6.62-7.62,9.41C175.23,112.88,154.33,82.82,161.28,66.73Z"/><path class="cls-4" d="M184.59,108c-4.46,0-9.19-2-13.69-6-9.59-8.49-16.63-25-11.83-36.15l0,0c3.46-7.63,12.43-14,23.93-9.93l.12,0c4.65,1.91,7,5.18,9.93,9.31a44,44,0,0,1,6.18,13c1.74,6,3.24,11.11,1.21,17.11A18.94,18.94,0,0,1,191.73,106,14.07,14.07,0,0,1,184.59,108Zm-21.1-40.25c-3.9,9.06,2.46,23.4,10.61,30.61,3.15,2.8,9.33,7,15.24,3.51l.09,0a14.21,14.21,0,0,0,6.47-8c1.54-4.57.35-8.61-1.28-14.22A39.16,39.16,0,0,0,189.15,68c-2.68-3.75-4.46-6.24-7.79-7.63C171.49,56.88,165.49,63.33,163.49,67.71Z"/><path d="M116.9,118.68c-11.88-3-19.32-24.32-7.48-36a14.68,14.68,0,0,1,9.7-4.1c6.11,0,10.13,4.64,11.76,6.51,4.49,5.16,5.06,11,5.43,14.88.5,5.13.95,9.82-2.11,13.58s-8.2,4.67-10.43,5A17,17,0,0,1,116.9,118.68Z"/><path class="cls-4" d="M199.7,225.31c-9.39,0-17.23-2.36-25.44-4.83-14.13-4.25-30.14-9.06-41.13-24.16-12.67-17.39-10.76-38.41-9.36-46.65l4.93.85c-1.3,7.6-3.07,27,8.47,42.86,10,13.73,25.16,18.29,38.53,22.31,10,3,18.63,5.6,30.14,4.25,19.93-2.33,38.61-15.62,47.58-33.85,5.77-11.75,7.56-24.17,5.15-35.93-2.57-12.55-8.37-20.09-12.79-24.2-2.29-2.14-7.05-6.58-14.05-7.61-1.84-.28-6.11,0-10.62.2-8.92.5-20,1.11-27.19-1-16.44-4.51-36.24-20.7-42.42-52.56l4.91-1c5.75,29.61,23.84,44.58,38.86,48.7,6.38,1.84,17.47,1.23,25.56.78,5.2-.29,9.3-.51,11.65-.15,8.52,1.25,14.26,6.6,16.71,8.89,4.95,4.61,11.45,13,14.28,26.86,2.63,12.85.7,26.38-5.57,39.14-9.69,19.71-29.9,34.08-51.48,36.61A58.52,58.52,0,0,1,199.7,225.31Z"/><path class="cls-2" d="M114.69,83.94c-.07,1.85.81,3.26,1.9,4.74,5.87,8,12.51,11.14,14.43,10.59,5.51-1.59,3.87-6.77,1.49-10.71-.67-1.21-3.93-6.81-10.35-8.87C117.49,77.84,115,80.3,114.69,83.94Z"/><path class="cls-4" d="M121.17,120.92a16,16,0,0,1-4.71-.35h0c-6.28-1.56-11.76-7.75-14-15.79-2.42-8.86-.33-17.62,5.59-23.44,3.47-3.13,7.18-4.67,11.06-4.66,7,0,11.52,5.22,13.23,7.18,4.9,5.64,5.53,12.11,5.9,16,.5,5.21,1,10.61-2.55,15s-9.2,5.32-11.61,5.73A26.23,26.23,0,0,1,121.17,120.92Zm-3.81-4.14a15.33,15.33,0,0,0,6.08-.06c2.15-.37,6.61-1.12,9.25-4.36s2.15-7.32,1.69-12.16c-.35-3.62-.88-9.1-5-13.79-1.52-1.75-5.07-5.83-10.3-5.85a12.41,12.41,0,0,0-8.38,3.61c-4.84,4.75-6.55,12.09-4.51,19.58C108.05,110.44,112.42,115.55,117.36,116.78Z"/><path d="M163,74.71a13.49,13.49,0,0,1,6.35-6.57,13.29,13.29,0,0,1,10.15-.25c3.16,1.3,4.78,3.56,7,6.68a32.7,32.7,0,0,1,4.59,9.68c1.34,4.59,2.39,8.18,1,12.35a13.17,13.17,0,0,1-6,7.42,12.69,12.69,0,0,1-5.33,1.32C171,105.28,157.87,86,163,74.71Z"/><path d="M189.52,123.21c5.07-15.46,18.3-22.91,19.21-23.4,13.14-7.15,25.67-4.4,30-3.46,4.67,1,10.39,2.37,15.32,7.38a24,24,0,0,1,6.65,13.39c.72,5.44-.8,9.43-2.81,14.68-2.72,7.1-6.13,11.11-12.14,18.17-4.26,5-6.84,7.07-10,7.12a9.63,9.63,0,0,1-4.88-1.56c-10.51-5.55-25.61-5.18-30-5.08-2.81.07-5.19.32-7.58-1.22-.61-.39-3.34-2.26-4.81-8.56A32.73,32.73,0,0,1,189.52,123.21Z"/><path class="cls-2" d="M169.82,72.53c-.06,1.84.82,3.25,1.91,4.74,5.87,8,12.51,11.13,14.43,10.59,5.5-1.59,3.86-6.78,1.48-10.72-.66-1.2-3.92-6.8-10.35-8.86C172.63,66.43,170.09,68.89,169.82,72.53Z"/><path class="cls-4" d="M181.45,107.22l-.77,0c-6.16,0-12.14-5.95-15.69-11.47-3.86-6-6.88-14.92-3.77-21.84h0a15.48,15.48,0,0,1,7.28-7.51,15.11,15.11,0,0,1,11.68-.29c3.67,1.51,5.51,4.08,7.84,7.34a34.68,34.68,0,0,1,4.86,10.25c1.38,4.7,2.56,8.76,1,13.49a13.79,13.79,0,0,1-12.39,10ZM164.69,75.49c-2.49,5.53.18,13,3.5,18.22,3.72,5.79,8.75,9.7,12.52,9.73A10,10,0,0,0,190.24,96c1.22-3.6.28-6.79-1-11.2a30.56,30.56,0,0,0-4.31-9.11c-2.12-3-3.52-4.94-6.18-6a11.33,11.33,0,0,0-8.62.23,11.55,11.55,0,0,0-5.43,5.62Z"/><path class="cls-2" d="M122.6,100.36c-1.42.17-3.38-1.44-3.65-3.09-.07-.44,0-.8-.27-1-.44-.33-1.45,0-1.93.59-.93,1.15-.08,3.55,1.13,5a5.57,5.57,0,0,0,3.75,1.93,3.64,3.64,0,0,0,2.84-.86,2.28,2.28,0,0,0,.72-2,1.47,1.47,0,0,0-.83-1C123.73,99.65,123.4,100.27,122.6,100.36Z"/><path class="cls-2" d="M177.74,89c-1.43.17-3.39-1.45-3.65-3.09-.07-.44,0-.81-.28-1-.44-.32-1.44,0-1.92.59-.94,1.15-.08,3.56,1.12,5a5.55,5.55,0,0,0,3.75,1.94,3.67,3.67,0,0,0,2.85-.87,2.34,2.34,0,0,0,.72-2,1.54,1.54,0,0,0-.83-1C178.86,88.24,178.54,88.86,177.74,89Z"/><path d="M96.54,62.69c3.49-9.83,18.21-16.07,27-9.48a.59.59,0,0,1-.16,1c-9,3.87-16.29,8.44-26.23,9.27A.6.6,0,0,1,96.54,62.69Z"/><path d="M151.62,50.37c3.93-11.65,23-14.49,28.9-3a.62.62,0,0,1-.45.89c-4.76,1-9.24,1.16-13.89,1.47s-8.77.91-13.88,1.42a.59.59,0,0,1-.68-.73Z"/><path class="cls-3" d="M188.45,237.27c-1.46,9.75-23.42,10.71-23-1C172.21,240.08,179.74,240.93,188.45,237.27Z"/><path class="cls-4" d="M175.61,241.15c-7.48,0-10.46-4.32-10.63-4.58a2,2,0,0,1,3.39-2.28c.22.31,4.65,6.12,18.08,0a2,2,0,1,1,1.7,3.71A30.29,30.29,0,0,1,175.61,241.15Z"/><path class="cls-2" d="M81.68,56.93S75.36,40.44,70,35.78s-6.59-6.34-17-9.19a27.35,27.35,0,0,0-18.64,1.53A63.51,63.51,0,0,0,15,42.93C6,53.1,8,57.86,5.31,62.46S3.9,82.63,3.9,82.63a48.41,48.41,0,0,0,8.3,19c7,9.94,22.34,10.34,22.34,10.34s14.94-1.27,17.74-6.78,1.92-10.32,2.18-14.92S50.75,67,50.75,67C66.07,73,70,82.37,70,82.37"/><path class="cls-6" d="M2.93,64.68a21.18,21.18,0,0,0,8.15,8.14c2.1,1.54,1.88,5.63,3,7.6a8.42,8.42,0,0,0,6.35,4.19c1.86.16,3.74-.48,5.59-.19,2.06.32,3.76,1.74,5.69,2.5a9.46,9.46,0,0,0,12.86-9c-.11-3.51-2.15-6.65-3-10.07C40.07,61.34,42.85,54,39.58,48.16s-12-7.91-13.67-14.91C16.32,38.82,8.73,49.5,2.93,64.68Z"/><g class="cls-7"><path class="cls-3" d="M14.73,45.54S-2.8,99.64,36.86,110.19a12.81,12.81,0,0,1-3.13,1.32c-9.83,2.63-22.66-7.2-28.4-17.81C-4.57,75.4,6.8,55.07,8,53a43,43,0,0,1,5.3-7.28Z"/></g><path class="cls-5" d="M73.69,89.2S62.78,70.12,51.82,67.09s0-.18,0-.18l3.3-19C69,52.15,74.61,80.56,73.69,89.2Z"/><path class="cls-5" d="M52.24,47.62s-7.46,4.66-6,18.57c1.34,11.52,4.46,26.31,4.28,28.6-.34,4.52-1,9-3.62,12.25-2.76,3.44,4-1.91,4-1.91l4.15-10.22L52.27,70.15Z"/><path class="cls-4" d="M33.18,115.13c-.59,0-1.18,0-1.75,0-7.83-.4-15-4-21.26-10.65C-3.39,90,0,69.22,1.38,63.18c4.07-18,19.89-38.27,41.17-40.4a38.33,38.33,0,0,1,22.6,4.75c14.3,8.22,18.15,23.29,19,27.71a2.5,2.5,0,0,1-4.91.93c-.63-3.29-3.14-13.29-11.44-20.62a2.23,2.23,0,0,1-.24.19A30.32,30.32,0,0,0,57.31,47.37c-5.6,11.71-2.3,27.08-.62,33.15l.1.35a37.05,37.05,0,0,1,1.43,7.7c.26,3.34.78,10.3-2.53,16.07C51.21,112.44,41.15,115.13,33.18,115.13ZM46.31,27.6c-1.26,0-2.36.07-3.27.16C24.09,29.65,10,48,6.26,64.29,5.38,68.15,1.64,88.07,13.81,101c2,2.13,8.08,8.59,17.88,9.09,6.77.35,16-1.52,19.66-7.94,2.55-4.44,2.1-10.36,1.89-13.2A32.17,32.17,0,0,0,52,82.22l-.1-.37C49.6,73.64,46.7,58,52.8,45.21A34.66,34.66,0,0,1,63.6,32.43c-.31-.2-.62-.38-.94-.57A32.81,32.81,0,0,0,46.31,27.6Z"/><path class="cls-4" d="M71.69,92.79a2.51,2.51,0,0,1-2.36-1.66c-2.56-7.23-7.39-16.44-15.8-19.28-.37-.12-.74-.23-1.12-.33a2.5,2.5,0,1,1,1.28-4.84c.49.13,1,.27,1.44.43,8.16,2.76,14.71,10.49,18.92,22.34a2.51,2.51,0,0,1-1.52,3.2A2.74,2.74,0,0,1,71.69,92.79Z"/><path class="cls-4" d="M22.37,58.21a2.5,2.5,0,0,1-2.49-2.33C18.67,39,28.84,27.59,34,24.73a2.5,2.5,0,1,1,2.44,4.36c-2.56,1.43-12.66,10.63-11.53,26.44a2.5,2.5,0,0,1-2.31,2.67Z"/><path class="cls-2" d="M211.84,113h30.63c3.39,0,3-4.07,0-6.25,0,0-3.83-3.71-14.21-4-10.48,0-14.74,2.39-16.42,3.62C208.74,108.75,207.94,113,211.84,113Z"/><path class="cls-2" d="M226.2,117.89H217c-1,0-.75,1.22,0,1.88,0,0,1.15,1.19,4.27,1.19a10.2,10.2,0,0,0,4.92-1.09C227.08,119.22,227.37,117.89,226.2,117.89Z"/><path class="cls-4" d="M65.61,393.37a2.5,2.5,0,0,1-2.48-2.21l-1.69-14.55a2.5,2.5,0,1,1,5-.58l1.69,14.55a2.51,2.51,0,0,1-2.2,2.78Z"/><path class="cls-4" d="M81.28,395.1A2.48,2.48,0,0,1,78.82,393l-2.48-16.29a2.5,2.5,0,0,1,5-.75l2.47,16.29a2.49,2.49,0,0,1-2.1,2.84A2.34,2.34,0,0,1,81.28,395.1Z"/><path class="cls-4" d="M53.45,364.18a2.5,2.5,0,0,1-.87-4.84l10.47-3.92a2.5,2.5,0,0,1,1.75,4.69L54.33,364A2.44,2.44,0,0,1,53.45,364.18Z"/><path class="cls-4" d="M250.4,295.4a2.5,2.5,0,0,1-.68-4.91c.24-.07,6.11-1.88,6.75-7.7.39-3.48,0-4.06-.33-4.62a6.8,6.8,0,0,1-1.13-2.72,2.5,2.5,0,1,1,4.91-.93,2.23,2.23,0,0,0,.43,1c.95,1.48,1.63,3,1.09,7.86-1,9.19-10,11.85-10.35,12A2.35,2.35,0,0,1,250.4,295.4Z"/><path class="cls-4" d="M268.57,316.08a10.17,10.17,0,0,1-5-1.22,10.48,10.48,0,0,1-5.3-8.45V279.34c0-3.94,3.05-7.44,7.76-8.92,5-1.56,11.62-.74,15.34,4.6.18.25,4.54,6.54,4.54,16.75,0,9-2.64,17.4-6.41,20.35l-.19.13C274.91,315.12,271.34,316.08,268.57,316.08Zm2.13-41.37a10.45,10.45,0,0,0-3.13.48c-2,.61-4.26,2.07-4.26,4.15v27.07a5.47,5.47,0,0,0,2.69,4.06c2.42,1.32,6.06.51,10.54-2.35,1.85-1.56,4.41-7.57,4.41-16.35a26.2,26.2,0,0,0-3.64-13.89A7.8,7.8,0,0,0,270.7,274.71Z"/><path class="cls-4" d="M282.68,289.76l-.3,0-21.19-2.55a2.5,2.5,0,0,1,.6-5L283,284.78a2.5,2.5,0,0,1-.3,5Z"/><path class="cls-4" d="M281.49,303.46l-.33,0-19.4-2.55a2.5,2.5,0,0,1,.65-5l19.4,2.55a2.5,2.5,0,0,1-.32,5Z"/></g></g></svg>