<svg xmlns="http://www.w3.org/2000/svg" width="324.32" height="221.75" viewBox="0 0 324.32 221.75"><defs><style>.cls-1{isolation:isolate;}.cls-2{fill:#fff;}.cls-10,.cls-3,.cls-6{mix-blend-mode:multiply;}.cls-3{opacity:0.39;}.cls-4,.cls-6,.cls-7{fill:#e5ae13;}.cls-10,.cls-5,.cls-9{fill:#4d8a62;}.cls-7,.cls-9{mix-blend-mode:screen;}.cls-8{opacity:0.3;}</style></defs><g class="cls-1"><g id="Layer_2" data-name="Layer 2"><g id="NEW_DUCK" data-name="NEW DUCK"><path id="tlo" class="cls-2" d="M194.28,94.39c-1.9.58-33,8.85-36.77,10.89,0,0,1.7-62.64,36.77-105.19,0,0-78-6.81-96,102.81,0,0-37.45,33-98,17,0,0,19.41,24.17,35.41,29.28,0,0,7.66,35.74,62.64,34.89,0,0-18,5.62-22.13,5.62H61.34s1,5.95-1,8.17.68,7.83.68,7.83,3.06,2.72,2.89,6.47a4.51,4.51,0,0,0,3.41,4.59s4.42,2.72,2.21,4.6,19.75-2.56,31-26.05l4.6-8.51s46.38,4.17,76.76-41.27c0,0,13-12.26,23.75-15.83,0,0,45.19,9.44,61-10l57.7-1.4s-6.13-26.17-56.17-31c0,0-3.83-18.89-26.3-18.89s-34.72,19.15-34.72,19.15A42.29,42.29,0,0,1,194.28,94.39Z"/><path class="cls-3" d="M88.23,156.39S112.77,43.79,172,7c0,0-40.59,8.92-54.72,45.62-8,18.7-15,36.18-19,50.26C92.33,113.16,90.74,134.48,88.23,156.39Z"/><path d="M88.23,156.39c-35.47.66-92.33-31.38-88-36.47,60.6,16,98.05-17,98.05-17Z"/><path class="cls-4" d="M98.28,184.09s-18,5.62-22.13,5.62H61.34s1,5.95-1,8.17.68,7.83.68,7.83,3.06,2.72,2.89,6.47a4.51,4.51,0,0,0,3.41,4.59s4.42,2.72,2.21,4.6,19.75-2.56,31-26.05l4.6-8.51"/><path class="cls-5" d="M268.15,87.32s-3.83-18.89-26.3-18.89-34.72,19.15-34.72,19.15a42.29,42.29,0,0,1-12.85,6.81l11.32,35.32s45.19,9.44,61-10l1.53-32.43s-3.83-18.89-26.3-18.89-34.72,19.15-34.72,19.15"/><path class="cls-4" d="M266.62,119.75l57.7-1.4s-6.13-26.17-56.17-31"/><path d="M157.51,105.28S159.21,42.64,194.28.09c0,0-77.85-7-96,102.81C105.88,81.57,128.34,13,172.15,11,149.74,43.87,150.7,74.82,157.51,105.28Z"/><path d="M197.53,133.59c-1.42.85-2.82,1.77-4.16,2.7a112,112,0,0,0-11.52,9.25c-12.64-16.73-15.7-24.13-24.34-40.26,1.79-1,9.81-3.37,17.92-5.67"/><path class="cls-2" d="M225.51,93c0,11,7.49,19.85,16.72,19.85,22.18-1,22.17-38.69,0-39.71C233,73.15,225.51,82,225.51,93Z"/><ellipse cx="249.29" cy="85.11" rx="4.51" ry="6.43"/><path class="cls-6" d="M74.53,195.15c-.25.09-13.71,2-13.71,2l-1.25,3.21Z"/><path class="cls-6" d="M76.15,200.35l-14.1,6.53a7.84,7.84,0,0,1,1.44,2.63C63.82,210.83,76.15,200.35,76.15,200.35Z"/><path class="cls-6" d="M65.55,215.38s1.67.78,1.9,1.3,15.24-11.45,15.24-11.45Z"/><path class="cls-7" d="M311.71,101.9c-10.63-8.39-26.81-13-43.56-14.58l-.21,4.43A95.21,95.21,0,0,1,311.71,101.9Z"/><path class="cls-6" d="M267.36,104.12l-.74,15.63,57.37-1.4C304,109.53,274.52,105.1,267.36,104.12Z"/><path class="cls-8" d="M165,164.93c-24.36,9.3-71.83,23.84-95.89,7.08-32.81-28.75-37-27.79-44.63-28.75a42.78,42.78,0,0,0,11.17,5.94s7.66,35.74,62.64,34.89l6.81,2.72S136.82,189.67,165,164.93Z"/><path class="cls-9" d="M195.35,97.74,210.06,91s15.06-23.42,46.39-19a29.11,29.11,0,0,0-14.6-3.5c-22.47,0-34.72,19.15-34.72,19.15a42.29,42.29,0,0,1-12.85,6.81Z"/><path class="cls-10" d="M203.74,123.9l1.86,5.81s45.19,9.44,61-10l0-.84C242.58,131.43,206.39,124.44,203.74,123.9Z"/><path class="cls-6" d="M105.09,186.81l-1.74-.65c-10.65,21-27.29,28.25-35.88,30.78.88.59,3.84,2.73,2,4.43-2,1.89,20.35-3.14,31.05-26.13Z"/></g></g></g></svg>