<svg xmlns="http://www.w3.org/2000/svg" width="156.03" height="273.75" viewBox="0 0 156.03 273.75"><defs><style>.cls-1{isolation:isolate;}.cls-2{fill:#fff;}.cls-3,.cls-5,.cls-6{fill:#e5ae13;}.cls-10,.cls-4,.cls-6,.cls-8{mix-blend-mode:multiply;}.cls-4{opacity:0.3;}.cls-5,.cls-9{mix-blend-mode:screen;}.cls-10,.cls-7,.cls-9{fill:#4d8a62;}.cls-8{opacity:0.39;}.cls-11{opacity:0.3;}</style></defs><g class="cls-1"><g id="Layer_2" data-name="Layer 2"><g id="Duck_Falling" data-name="Duck Falling"><path id="tlo" class="cls-2" d="M127.36,198.07c-.58-1.89-8.85-33-10.89-36.76,13.93-12.2,73.67-72.2,2.38-59.24,0,0-33-37.44-17-98,0,0-24.17,19.41-29.28,35.41,0,0-35.74,7.66-34.89,62.63,0,0-5.62-18-5.62-22.12V65.14s-5.95,1-8.17-1S16,64.8,16,64.8s-2.72,3.06-6.47,2.89A4.51,4.51,0,0,0,5,71.1S2.26,75.52.38,73.31s2.56,19.74,26.05,31l8.51,4.59s-4.17,46.39,41.27,76.77c0,0,12.26,13,15.83,23.74,0,0-9.44,45.2,10,61,0,0,13.59,6.09,32.43,1.53,0,0,18.89-3.83,18.89-26.3s-19.15-34.72-19.15-34.72A42.27,42.27,0,0,1,127.36,198.07Z"/><path d="M65.36,92C64.7,56.55,96.74-.31,101.83,4c-16,60.6,17,98,17,98Z"/><path class="cls-3" d="M37.66,102.07S32,84,32,80V65.14s-5.95,1-8.17-1S16,64.8,16,64.8s-2.72,3.06-6.47,2.89A4.51,4.51,0,0,0,5,71.1S2.26,75.52.38,73.31s2.56,19.74,26.05,31l8.51,4.59"/><path class="cls-3" d="M96.07,244.54l-49.85,29.1s1-13.89,41.29-44.15"/><path class="cls-5" d="M53.56,260.51c6.88-8.48,21.54-23.43,36.18-31.19l1.78,7.17A94.76,94.76,0,0,0,53.56,260.51Z"/><path class="cls-3" d="M90.6,216.91,41.75,206.58s2.81,29.33,49.62,29.33"/><path class="cls-6" d="M91.37,230.38,90.89,217,41.75,206.58C59.52,219.26,84.55,228,91.37,230.38Z"/><path class="cls-7" d="M134.43,272s18.89-3.83,18.89-26.3-19.15-34.72-19.15-34.72a42.27,42.27,0,0,1-6.81-12.86L92,209.39s-9.44,45.2,10,61c9.52,4.3,20.6,4,32.43,1.53,0,0,18.89-3.83,18.89-26.3s-19.15-34.72-19.15-34.72"/><path d="M118.85,102.1c14-16.25-6.3-57.15,2-102.1,1.76,5.78,81,103.66-4.41,161.31C165,110.81,127.73,50.66,123.4,26.16,119.62,53.1,135.4,94.24,118.85,102.1Z"/><path d="M88.16,201.33c-.85-1.42-1.77-2.82-2.7-4.16a112,112,0,0,0-9.25-11.52C92.94,173,100.34,170,116.47,161.31c1,1.79,3.37,9.81,5.67,17.92"/><path class="cls-2" d="M136.77,254.08c0-7.68-7.49-13.91-16.72-13.91-22.18.71-22.17,27.1,0,27.81C129.28,268,136.77,261.76,136.77,254.08Z"/><ellipse cx="121.53" cy="254.08" rx="4.51" ry="6.43"/><path class="cls-6" d="M26.6,78.33c-.09-.26-2-13.72-2-13.72L21.4,63.37Z"/><path class="cls-6" d="M21.4,80l-6.53-14.1a8,8,0,0,1-2.63,1.44C10.92,67.62,21.4,80,21.4,80Z"/><path class="cls-6" d="M6.37,69.35s-.78,1.66-1.3,1.9S16.52,86.49,16.52,86.49Z"/><path class="cls-2" d="M116.47,161.31c49-47.9,11.71-108.4,6.93-135.15-4.74,20.12,10.93,63.5-4.55,75.94"/><path class="cls-8" d="M65.36,92c26.26,8.61,94.63,80.39,58-65.87-7.9,23.25,13.13,58-4.55,75.91C108.59,96.12,87.27,94.54,65.36,92Z"/><path d="M103.67,256.58c9.84,2.09,23.72,1.14,33.1-2.5C138.8,268.79,108.5,276.26,103.67,256.58Z"/><path class="cls-9" d="M124,199.15l6.79,14.7s23.42,15.07,19,46.4a29.17,29.17,0,0,0,3.5-14.6c0-22.47-19.15-34.72-19.15-34.72a42.27,42.27,0,0,1-6.81-12.86Z"/><path class="cls-10" d="M97.85,207.53,92,209.39s-9.44,45.2,10,61l1,.45C90.54,246.8,97.31,210.19,97.85,207.53Z"/><path class="cls-6" d="M34.92,108.88l.62-1.54C14.59,96.51,7.29,79.93,4.83,71.32c-.6.88-2.84,3.88-4.45,2-1.87-2.21,2.55,19.75,26,31Z"/><path class="cls-11" d="M57,168.34C47.68,144,33.13,96.51,49.9,72.45c28.75-32.81,27.79-37,28.75-44.63A42.48,42.48,0,0,0,72.71,39S37,46.65,37.82,101.63l-2.73,6.81S32.24,140.17,57,168.34Z"/></g></g></g></svg>