<svg xmlns="http://www.w3.org/2000/svg" width="179.83" height="258.41" viewBox="0 0 179.83 258.41"><defs><style>.cls-1{fill:#fff;}.cls-2{fill:#eee;}.cls-3{fill:#7a7a7a;}.cls-4{fill:#ccc;}</style></defs><g id="Layer_15" data-name="Layer 15"><path class="cls-1" d="M153.62,184.46,60.47,147.14s-17.07,6.51-28.49,19-11,27-11,32.25a141.64,141.64,0,0,0,4.78,33.27c4,15.77,26.18,22.13,26.18,22.13s8.82.87,22,2,12.15-8.1,12.15-8.1,12.44,3.76,21.85,3.76a20.51,20.51,0,0,0,14.6-5.79s-.28,2.31,13.75,1.3,5.35-16.49,5.35-16.49c12.87-11.57,12-46,12-46"/><path class="cls-2" d="M151.14,188.39s-2.89,30.39-12.42,39c-1.25,1-1.29,3,0,6.28,0,0,2.58,5.38,1.3,7.17-.48.82-1.6,2.33-2.54,2.33,0,0-12.38-.07-14-.89,0,0,.41,3.14.52,3.18s14.86-.39,14.86-.39l3.67-2.54c.11-.07.11-8.47.11-8.47l-.5-4.27,6.25-11.19,3.43-14,.27-16.75Z"/><path class="cls-2" d="M118.81,235.52l.47,7.79c-5.67,5.84-16.9,5.23-31.51.68v2.26s27.77,9.9,33.6-2l-.61-9.51Z"/><path class="cls-2" d="M68.33,205.63c17.08,13.44,6.56,24.87-.07,30.31-1.87,1.41-2,4.08,0,6.07,1.13,1.2,10.88-1.26,13,2.19,2.26,3.62-1,6.42-1,6.42-1.17,1.46-32.62,5.25-53-20.19,0,0,4.5,21.46,33.74,23.16,0,0,28.2,5.65,23.58-7.15s-12.33-7.05-12.33-7.05C84.14,224,84.35,212.24,68.33,205.63Z"/><path class="cls-3" d="M73.7,258.3c-13-1.14-21.92-2-22-2a3.4,3.4,0,0,1-.46-.09c-1-.28-23.58-7-27.94-23.95-4.51-17.53-4.86-30.38-4.86-33.9v-.54c0-5.66-.05-20.68,11.67-33.44S58.84,145,59.56,144.76a2.54,2.54,0,0,1,1.86,0l93.15,37.32a2.54,2.54,0,0,1,1.6,2.3c0,1.4.69,33.35-11.45,46.57,1.34,3,3.41,9,1,13.52-1.62,3-4.73,4.68-9.24,5-7.91.57-11.72.16-13.74-.58a23.69,23.69,0,0,1-14.8,5.08c-7,0-15.32-1.93-19.66-3.06A9.39,9.39,0,0,1,85.89,255c-2.21,2.26-5.5,3.4-9.79,3.4C75.33,258.41,74.53,258.38,73.7,258.3Zm13.11-13.08c.12,0,12.2,3.66,21.1,3.66a17.9,17.9,0,0,0,12.72-4.95,2.56,2.56,0,0,1,3-.61,2.5,2.5,0,0,1,1,.83c.78.25,3.53.82,11.49.25,2.66-.19,4.38-1,5.11-2.34,1.6-2.95-.82-8.61-1.8-10.36a2.56,2.56,0,0,1,.52-3.14c10.31-9.27,11.14-35.5,11.17-42.38l-90.6-36.29c-3.6,1.51-17.22,7.68-26.63,17.92-10.37,11.29-10.33,24.38-10.32,30v.56c0,3.37.34,15.68,4.7,32.63,3.43,13.39,22,19.58,24.21,20.26,1.53.15,9.92,1,21.71,2,3.79.33,6.58-.27,8.06-1.74a4.89,4.89,0,0,0,1.33-3.55,2.53,2.53,0,0,1,2.53-2.82A2.64,2.64,0,0,1,86.81,245.22Zm38.24.74h0Zm0,0h0Zm0,0Zm0,0Zm0,0h0Zm0,0Z"/><path class="cls-1" d="M100,110.83a39.51,39.51,0,0,0,.11-8.83c-.48-4.8-1.77-8.59-5.13-16.31-5.34-12.22-5.88-11.35-7.86-17.07C84.81,62.11,84.13,57,83.32,50.85c-1.25-9.51-1.94-14.74-.77-21.66C83.61,22.85,85,14.5,92.1,8.81c6.27-5,13.49-5.18,16-5.23,15-.74,23.17,7.15,20.29,22.92-1.27,9-5.25,10.3-8.73,23a44.15,44.15,0,0,0-2.11,12c-.06,4,.56,6.48,3.84,18.43,3.47,12.64,4,14.19,4.8,17.86A148.62,148.62,0,0,1,128.93,114"/><path class="cls-2" d="M125.51,101c-4-12.63-7.08-21.48-9.53-28.14a35.37,35.37,0,0,1-2.11-8.27,38.82,38.82,0,0,1,1.69-16.15c.43-1.5.44-1.27,6-14.68,2.24-5.38,3.37-8.14,3.45-11.21a18.39,18.39,0,0,0-2.61-10.32C118.69,6.54,110.62,4,102.12,5.49l11.62-1,8.37,2.65,6.35,6.34.37,10.06-2.06,8.93-4,8.84-2.88,7.49L117.4,63.6l8.74,36.29.09,1.24Z"/><path class="cls-4" d="M101.64,97.23c-.06-.53,2.15-1.3,1.13-7.07a60.49,60.49,0,0,0-4.41-11.29,132.14,132.14,0,0,1-6.53-15.08c-4.12-11.63-2.39-22-2.32-25.5.13-5.55,1.2-13.27,6-19.37,8.22-10.41,26.32-8.1,29.7-8.4l-7.61-6-16.48.06L91.74,9.7l-6.15,9.66-2,7.65L83.11,42.8,85.5,59.44,88.81,70.5l5.32,12.43,5.94,14.69Z"/><path class="cls-3" d="M99.41,110.76a39.25,39.25,0,0,0-2-15.14c-1.75-4.8-4.09-9.55-6.29-14.27-1.64-3.61-3.81-7-5.24-10.77-2.45-6.27-3.6-13-4.45-19.63-.68-5.21-1.55-10.48-1.43-16a50.19,50.19,0,0,1,.93-8.14c.92-5.41,2.49-11,5.94-15.51C93.26,2.76,103.47.69,113.59,1.59c12.45,1.28,18.63,10,17.29,22.16-.1.64-.33,2.39-.44,3.06a33.25,33.25,0,0,1-4.28,11.65,60.49,60.49,0,0,0-5.38,14.34,36.69,36.69,0,0,0-1.28,7.39,25,25,0,0,0,.57,7.35c1.08,5,2.56,10.13,3.82,15.22l1.93,7.66A118.05,118.05,0,0,1,129.43,114l-1,.11q-1.33-7.75-3.3-15.36c-2-7.53-4.56-15.11-6.63-22.69-1-3.88-2.31-7.76-2.71-11.86-.57-7,1.39-13.57,3.54-20.11,1.55-4.94,4.84-9.54,6.29-14.32,3-11.73,1.35-22.46-12.46-24C101.39,4.82,91,8.2,86.76,20.18A57.44,57.44,0,0,0,84,35c-.17,5,.6,10.18,1.23,15.41.94,7.77,2.11,15.29,5.53,22.27a158.58,158.58,0,0,1,6.56,14.49A73.1,73.1,0,0,1,100,94.8a34.7,34.7,0,0,1,.53,16.1l-1.08-.14Z"/><path class="cls-3" d="M111,92.17A133.84,133.84,0,0,1,98.77,28.83a7,7,0,1,1,14,.67,131.41,131.41,0,0,0-3,31.07,128.59,128.59,0,0,0,4.61,30.36A1.81,1.81,0,0,1,111,92.17Z"/><path class="cls-1" d="M163.46,113.58c19.82,20.68,16.64,45,.87,61.91q-24.86,23.7-56.7,23.14c-33,1.69-66.1-63.35-32.69-92.43C90.56,92.9,124.26,73.66,163.46,113.58Z"/><path class="cls-4" d="M175.5,151.15c9.32-40.31-52.39-74.2-68.6-56.34,2.85-.3,62.62,3.56,68,56.34"/><path class="cls-2" d="M161.56,174.61s-42.29,24.4-70.28,9.53-23.1-68-23.1-68-23.22,29,14,68.15S161.56,174.61,161.56,174.61Z"/><path class="cls-3" d="M63.68,164.07c-7.43-18.41-8.82-43.78,9.61-59.81,17.2-14.65,52-33.16,92,7.53l0,0c19,19.87,19.39,45.55.89,65.41l-.1.1c-17,16.2-36.65,24.21-58.42,23.85-.42,0-.84,0-1.27,0C90,201.21,72.6,186.17,63.68,164.07Zm44,32c20.42.35,38.86-7.16,54.84-22.39,16.46-17.7,16.11-40.59-.88-58.34-37.06-37.73-69.19-20.71-85-7.22-16.38,14.25-15,37.25-8.2,54,8.23,20.4,24.65,34.68,39.09,33.92h.17Z"/><ellipse cx="156.04" cy="129.15" rx="4.47" ry="4.72"/><ellipse cx="140.42" cy="141.74" rx="4.72" ry="3.28" transform="translate(-43 63.23) rotate(-22.1)"/><ellipse cx="104.48" cy="143.36" rx="5.37" ry="5.66" transform="translate(-42.27 43.7) rotate(-19.74)"/><path d="M138,152a.94.94,0,0,0,.36-.08c3-1.42,4-3.46,4.28-5.13a5,5,0,0,0,1.48.79c1.61.52,3.53.2,5.84-1a.85.85,0,0,0-.78-1.51c-1.89,1-3.37,1.26-4.54.88a3.91,3.91,0,0,1-2.23-2.17l-1.56.68c.05.15,1.27,3.79-3.22,5.91a.85.85,0,0,0-.4,1.13A.84.84,0,0,0,138,152Z"/><path class="cls-3" d="M122.31,246.14h.12a1.67,1.67,0,0,0,1.54-1.77l-.73-10.2a1.66,1.66,0,0,0-3.31.24l.73,10.19A1.66,1.66,0,0,0,122.31,246.14Z"/><path class="cls-3" d="M116.15,235.93c8,0,14-2.11,18.37-6.37a1.66,1.66,0,0,0-2.32-2.37c-5.85,5.75-15.74,6.92-30.25,3.58a1.66,1.66,0,0,0-.75,3.23A67.12,67.12,0,0,0,116.15,235.93Z"/><path class="cls-3" d="M86,249a2.54,2.54,0,0,0,2.54-2.31,9.78,9.78,0,0,0-2.86-7.41,13,13,0,0,0-7-3.41,19.55,19.55,0,0,0,5.7-12.91c.28-7.81-4.29-15.42-12.56-20.89a2.55,2.55,0,0,0-2.81,4.26c6.75,4.46,10.49,10.45,10.27,16.44-.19,5.27-3.48,10.06-9,13.16a2.55,2.55,0,0,0,1.46,4.77c4.93-.42,8.5.33,10.33,2.18a4.74,4.74,0,0,1,1.4,3.35A2.54,2.54,0,0,0,85.81,249Z"/><path class="cls-1" d="M19.32,196.24c-22-4.41-23.5,32,2.39,25.61"/><path class="cls-4" d="M21.71,220.31C0,224.64,5.17,205.63,5.17,205.63c-.85,15.25,16.23,11.58,16.23,11.58Z"/><path class="cls-3" d="M16,225.14a26.4,26.4,0,0,0,6.34-.82,2.55,2.55,0,0,0-1.23-4.95c-6.37,1.59-11.36.4-14-3.35a12,12,0,0,1,0-13c2.44-3.78,6.64-5.28,11.81-4.25a2.55,2.55,0,1,0,1-5c-7.26-1.45-13.49.91-17.09,6.48A17,17,0,0,0,2.91,219C5.79,223,10.39,225.14,16,225.14Z"/><g id="EAR_1" data-name="EAR 1"><path class="cls-1" d="M86.16,112.37c0-1.14-.58-2.88-2-6.44C82.2,101.24,79.77,97.8,74.06,91c-9-10.72-9.31-9.68-13-14.85C56.81,70.3,54.6,65.34,51.94,59.4c-4.11-9.22-6.37-14.28-7.27-21.61-.82-6.7-1.9-15.54,3.54-23.39C53,7.45,60.25,5.14,62.77,4.34c14.94-5.26,25.49.26,27.31,17,1.4,9.42-2.21,11.94-1.92,25.77.09,4.52.17,8.1,1.48,12.77C90.79,64,92.15,66.29,99,77.35c7.28,11.69,8.24,13.11,10.18,16.56,1.29,2.3,4,7.44,4.91,9.49"/><path class="cls-4" d="M86.7,112.64s5.14-5.3-12.46-28.9C63.85,72.52,58.61,59,56.55,53.32c-3.92-9.92-7.41-20.7-3.33-32C58.61,7.78,78.08,4.75,78.08,4.75l-5.8-1.89-16.58,6-7,6.44-3.55,11.1,1.64,16,2.9,9.21,6.11,13.32L61.64,75.5l5.13,6.15,5.88,5.82,3.5,5.39,4,5.56L83.57,104Z"/><path class="cls-3" d="M85.42,112.33a12.51,12.51,0,0,0-1.14-3.49,40.78,40.78,0,0,0-5.84-10.11A233,233,0,0,0,62.44,81c-5.56-6.14-9.31-13.73-12.57-21.11C47.7,55,45.34,50.12,43.8,44.7c-2.59-10.76-4-23.54,3.34-32.85C53.38,3.53,68.22-2.06,78.55.72c10.88,3,14.33,15.34,14.34,25.35-.09,4.1-1.36,8.29-1.85,12.15-.78,7.43-1,15.55,1.36,22.72,1.74,4.64,4.91,9.22,7.44,13.62,2,3.42,6.09,10.41,8,13.88a128.6,128.6,0,0,1,6.79,14.7.62.62,0,0,1-1.1.57c-2.92-4.49-5.41-9.16-8.5-13.54-2.27-3.3-6.72-10-8.91-13.33C93.29,72.17,90,67.7,88,62.49c-2.71-7.93-2.61-16.64-1.81-24.91.6-5,2.13-9.41,1.57-14.33-.63-7-3-15.69-10.62-17.73-4.69-1.3-9.58-.2-14.25,1.37a24.41,24.41,0,0,0-12,7.89C46.05,20.72,45.76,28.62,46.7,36c.6,7.92,3.74,14.85,7,22.19S60.17,72.5,65.26,78.45c3.58,3.81,7.27,8,10.54,12.16,4.3,5.23,8.3,11,10.22,17.57a11.91,11.91,0,0,1,.87,4.22.74.74,0,0,1-.78.69.75.75,0,0,1-.69-.76Z"/></g><path class="cls-3" d="M87.65,90.22A140.73,140.73,0,0,1,58.77,28.87a7.35,7.35,0,1,1,14.4-2.95,138.94,138.94,0,0,0,5,32.42A134.83,134.83,0,0,0,90.78,88.08a1.9,1.9,0,0,1-3.13,2.14Z"/><ellipse class="cls-4" cx="117.17" cy="217.12" rx="19.24" ry="9.88" transform="translate(-15.84 9.32) rotate(-4.27)"/><ellipse class="cls-1" cx="157.49" cy="128.56" rx="1.34" ry="2.04" transform="translate(-34.16 60.74) rotate(-19.74)"/><ellipse class="cls-1" cx="106.9" cy="142.2" rx="1.34" ry="2.04" transform="translate(-41.74 44.45) rotate(-19.74)"/></g></svg>