<svg xmlns="http://www.w3.org/2000/svg" width="291.35" height="271.14" viewBox="0 0 291.35 271.14"><defs><style>.cls-1{isolation:isolate;}.cls-2{fill:#fff;}.cls-3{fill:#ccc;}.cls-4{fill:#d8d8d8;mix-blend-mode:multiply;}.cls-5{fill:#7a7a7a;}.cls-6{fill:#eee;}</style></defs><g class="cls-1"><g id="Layer_2" data-name="Layer 2"><g id="Layer_22" data-name="Layer 22"><path class="cls-2" d="M268.87,32.1c-16.65,7.22-33.53,17.14-50.64,29.58L206,49.33l-6.24-9.26,21.74-17.3c13-8.69,1.24-26.35-12.48-17.31C153.43,32.07,95.05,93.64,34.51,182l-29,49.39C-4.77,250.51,18.47,263,28.78,243.83L48.4,204.89s21.81,11,25.88,12.34h0l-19.41,30C44,265.44,68.48,277.33,79.32,259.08L100,222C150.43,134.86,282,48.58,282,48.58,296.5,40.22,283.77,23.6,268.87,32.1Z"/><path class="cls-3" d="M177.64,134.14a7.92,7.92,0,0,0-2-5.77c-5.94-5.94-22.89,1.38-37.86,16.34s-22.29,31.92-16.35,37.86c1.87,1.86,4.82,2.42,8.44,1.85A530.88,530.88,0,0,1,177.64,134.14Z"/><path class="cls-4" d="M288.34,40.12c-133.93,57.46-210.6,205-221.9,228,4.62-.48,9.44-3.22,12.88-9L100,222C150.43,134.86,282,48.58,282,48.58,286.16,46.18,288.07,43.1,288.34,40.12Z"/><path class="cls-4" d="M221.47,22.77c4.53-3,6-7.16,5.52-10.86A256.25,256.25,0,0,0,195.2,39.56l9.51-3.45Z"/><path class="cls-4" d="M28.78,243.83l18.31-36.34v-6.57c-12.85,16.15-23.58,39.31-29,52.11C22,252.08,25.89,249.2,28.78,243.83Z"/><path class="cls-5" d="M65,271.14h-.22a15.79,15.79,0,0,1-13.68-7.81c-1.68-3-3.74-9.24,1.25-17.65L69.87,218.6c-5.61-2.51-15.35-7.34-20.16-9.75L31.42,245.16c-2.78,5.17-6.6,8.7-11.08,10.29A15.08,15.08,0,0,1,.5,244.79C-.65,240.18.19,235,2.93,229.94l29.15-49.66c64-93.44,121.44-151.47,175.46-177.4C215.9-2.52,224.06.34,227.82,6c3.66,5.51,3.24,13.83-4.61,19.15l-21,17,15.23,16.29c16.67-11.93,34.26-22.07,50.12-29,9.39-5.27,18.66-2,22.24,4.23,2.95,5.16,2.16,12.53-6.24,17.42-3.58,2.36-131.94,87.62-181,172.38l-20.61,37C77.87,267.3,71.73,271.14,65,271.14ZM47.09,200.92l2.64,1.33c6,3,22.31,11.12,25.49,12.18l3.62,1.21L57.35,248.79c-2.51,4.24-2.93,8.42-1.12,11.65a9.88,9.88,0,0,0,8.6,4.79c4.66.09,9-2.74,12-7.66l20.59-37C147.64,133.77,279.05,47,280.37,46.11l.15-.09c4.41-2.55,6-6.15,4.14-9.4-2.12-3.7-7.86-5.64-14.33-1.95l-.29.14c-16.15,7-33,16.85-50.07,29.26l-2.05,1.49L194,40.59l25.79-20.28c5-3.33,5.13-7.94,3.08-11-2.17-3.27-6.81-4.95-12.28-1.34l-.35.2C157.91,33.2,99.62,92.21,37,183.53L8.08,232.83c-4.29,8-1.6,14.2,2.75,16.53a9.23,9.23,0,0,0,7.53.52c3.08-1.09,5.78-3.67,7.81-7.45Z"/><path class="cls-2" d="M215.72,57.5c14-6.66-.23-27.51-11.93-13.22"/><path class="cls-3" d="M204.43,45.13c10.26-11.4,15.26,1.3,15.26,1.3-5.85-8.81-13.81.3-13.81.3Z"/><path class="cls-5" d="M205.61,40.08a18,18,0,0,0-3.18,3.08,1.77,1.77,0,0,0,2.73,2.24c2.88-3.52,6.14-4.93,9.18-4a8.32,8.32,0,0,1,5.42,7.21c.21,3.11-1.5,5.69-4.8,7.25a1.76,1.76,0,1,0,1.51,3.19c4.64-2.2,7.12-6.09,6.81-10.67a11.78,11.78,0,0,0-7.87-10.34A10.61,10.61,0,0,0,205.61,40.08Z"/><path class="cls-2" d="M60.23,114.15a31.32,31.32,0,0,1-3-6.41c-1.25-3.67-1.58-6.88-1.69-13.65-.18-10.71.5-10.26.05-15.11a65.85,65.85,0,0,0-3.2-14.23c-2.25-7.38-3.5-11.44-6.66-16.11C42.81,44.37,39,38.73,31.91,36.93c-6.27-1.59-11.59.72-13.45,1.52C7.21,42.93,3.9,51.41,11.28,62c3.92,6.13,7.27,5.77,14.05,13.89A35,35,0,0,1,30.89,84c1.39,2.92,1.76,4.94,3.35,14.77,1.68,10.4,1.84,11.7,2.45,14.66a118.56,118.56,0,0,0,3.42,12.77"/><path class="cls-6" d="M38.25,115.48c-1.26-10.58-2-18.07-2.43-23.76A28,28,0,0,0,34.6,85,31.05,31.05,0,0,0,28,73.73c-.82-1-.75-.79-9.32-8.72-3.44-3.19-5.18-4.83-6.26-7.05a14.77,14.77,0,0,1-1.54-8.41c.85-5.41,5.9-10,12.61-11.7L14.65,41,9.42,45.74,6.89,52.5,10,60l4.49,5.84,5.89,5.12L25,75.45l6.73,10,5.72,29.45.35.94Z"/><path class="cls-3" d="M54.45,104.77c-.14-.41-2-.23-3.19-4.79a49.85,49.85,0,0,1-.54-9.73A104.61,104.61,0,0,0,50.46,77c-.87-9.88-5.58-16.85-6.82-19.42-1.94-4-5.3-9.3-10.86-12.15-9.49-4.87-22,2.86-24.52,3.77l3.56-6.93,12.07-5.45,8.58.6,7.72,5,4,5,5.65,11.36,3.81,13,1.27,9.19.26,10.87.56,12.72Z"/><path class="cls-5" d="M60.6,113.92A31.49,31.49,0,0,1,57,102.16c-.32-4.08-.2-8.34-.16-12.53,0-3.18.44-6.41.23-9.63a66.26,66.26,0,0,0-3.29-15.83A84.59,84.59,0,0,0,49.51,52a39.38,39.38,0,0,0-3.39-5.64c-2.48-3.65-5.5-7.22-9.53-9.36-7.55-4.08-15.7-2.18-22.8,1.86C5.11,43.92,3.5,52.34,8.54,60.8c.29.44,1,1.64,1.34,2.09a26.79,26.79,0,0,0,7,7.09,49.07,49.07,0,0,1,8.71,8.69,29.14,29.14,0,0,1,3.41,5,19.78,19.78,0,0,1,2,5.57c.89,4,1.51,8.25,2.29,12.4l1.15,6.25a95.17,95.17,0,0,0,5.22,18.43l.78-.25q-1.62-6.12-2.72-12.34c-1-6.18-1.71-12.57-2.72-18.8a59,59,0,0,0-2-9.58c-1.92-5.28-5.56-9.46-9.31-13.52-2.78-3.09-6.72-5.36-9.38-8.38-6.11-7.57-8.48-16,1.12-21.66,8.27-4.66,17-5.66,24.09,1.7a45.86,45.86,0,0,1,7,9.93,82.3,82.3,0,0,1,4.24,11.68c1.91,6,3.56,11.89,3.39,18.14-.21,4.21-.17,8.55,0,12.78a56.7,56.7,0,0,0,.6,6.44,27.77,27.77,0,0,0,5,11.94l.75-.46Z"/><path class="cls-5" d="M45.93,104.19A107.64,107.64,0,0,0,33.72,53.8a5.62,5.62,0,1,0-10,5.15A105.56,105.56,0,0,1,36.26,80.68,102.65,102.65,0,0,1,43,104.42a1.46,1.46,0,0,0,2.9-.23Z"/><path class="cls-2" d="M14.7,137.36c-7.58,21.74,2.85,38.45,20,45.56q26.09,9,49.19-2c24.68-9.77,27.19-68.39-7-78.5C61.11,97.9,30,95.09,14.7,137.36Z"/><path class="cls-3" d="M18.44,168.86C-1.83,142.49,32,97.11,49.8,104.76c-2.19.73-44.61,23.5-30.91,63.89"/><path class="cls-6" d="M36.46,181.36s39.08,3.72,54.58-16.5-5.8-57.4-5.8-57.4S111.9,120.91,97.76,162,36.46,181.36,36.46,181.36Z"/><path class="cls-5" d="M104.52,141c-.71-15.94-8.17-35-27-40.53-17.47-5-49.12-6.88-64.75,36.22v0c-7.29,20.89,1,39.78,21.18,48.13l.11,0c17.82,6.17,34.88,5.47,50.68-2.06l.94-.4C97.67,176.92,105.37,160.11,104.52,141ZM83,179.07c-14.81,7.07-30.8,7.73-47.57,1.94-17.94-7.46-25.33-24.31-18.83-43,14.51-40,43.68-38.24,59.76-33.66,16.73,5,23.39,22.24,24,36.77.78,17.66-6.46,33.59-17.27,37.85l-.06,0Z"/><ellipse cx="25.33" cy="146.27" rx="3.6" ry="3.79" transform="translate(-58.45 23.72) rotate(-24.54)"/><ellipse cx="40.95" cy="150.26" rx="3.79" ry="2.64" transform="translate(-6.36 1.88) rotate(-2.44)"/><ellipse cx="67.77" cy="139.46" rx="4.32" ry="4.55" transform="translate(-11.43 6.16) rotate(-4.8)"/><path d="M46.17,157a.72.72,0,0,1-.29.06A5.48,5.48,0,0,1,41,154.69a3.72,3.72,0,0,1-.82,1.07c-1,.92-2.51,1.32-4.59,1.23a.68.68,0,0,1-.65-.72.68.68,0,0,1,.71-.65,4.9,4.9,0,0,0,3.61-.87,3.14,3.14,0,0,0,.91-2.33l1.37,0c0,.13.34,3.2,4.32,3.26a.68.68,0,0,1,.68.69A.7.7,0,0,1,46.17,157Z"/><g id="EAR_1" data-name="EAR 1"><path class="cls-2" d="M70.82,110.67c-.41-.81-.53-2.29-.66-5.38-.16-4.07.48-7.4,2.39-14.26,3-10.85,3.58-10.19,4.57-15.21a69.2,69.2,0,0,0,1-15.3c-.07-8.11-.1-12.57-1.89-18.22-1.64-5.18-3.8-12-10.4-15.93-5.83-3.48-11.89-2.75-14-2.5C39.19,25,33.32,32.57,37.58,45.44c2.12,7.35,5.6,8,10,18.21a37.26,37.26,0,0,1,3.18,9.83c.52,3.35.29,5.5-1.05,15.88-1.42,11-1.65,12.34-1.91,15.51-.18,2.12-.42,6.77-.42,8.58"/><path class="cls-3" d="M70.52,111.05S65,108.9,70,85.76c3.85-11.67,3.18-23.28,2.78-28.14-.45-8.57-1.5-17.62-8.25-24.52-8.46-8.1-23.71-3.82-23.71-3.82L44.42,26l14.12-1.17,7.24,2.39,6.3,6.93,4.16,12.27,1,7.7,0,11.78-.72,9.67-1.71,6.21L72.4,88l-.77,5.11-1.06,5.39-.63,5.26Z"/><path class="cls-5" d="M71.35,110.4a10.42,10.42,0,0,1-.33-2.93,32.72,32.72,0,0,1,.9-9.35A186.75,186.75,0,0,1,77.7,79.81c2-6.34,2.22-13.14,2.14-19.63a89.88,89.88,0,0,0-.63-13.12c-1.7-8.74-4.95-18.55-13.41-22.91-7.33-4-20.06-3.14-26.68,2.34-7,5.79-5.36,16-2,23.32,1.43,3,3.76,5.62,5.4,8.27,3,5.18,5.92,11,6.59,17.07.28,4-.51,8.38-.89,12.44-.35,3.19-1,9.65-1.25,12.84a102.85,102.85,0,0,0-.06,13,.5.5,0,0,0,.52.48.5.5,0,0,0,.47-.43c.64-4.26.9-8.51,1.7-12.74.55-3.17,1.59-9.54,2.06-12.72.55-4.38,1.47-8.75,1.17-13.21-.67-6.71-3.65-13-7-18.82-2.11-3.46-4.7-6.18-5.94-10C38,40.69,36.81,33.59,41.73,29.54c3-2.51,6.94-3.34,10.88-3.76A19.68,19.68,0,0,1,64,27.54c5.52,2.73,8.37,8.41,10.14,14.11,2.21,6,2.22,12.11,2.3,18.56s0,12.64-1.7,18.68c-1.34,4-2.64,8.28-3.64,12.41-1.4,5.27-2.42,10.8-1.62,16.26a9.62,9.62,0,0,0,.78,3.38.58.58,0,0,0,.8.24.59.59,0,0,0,.25-.78Z"/></g><path class="cls-5" d="M62.34,95A113.06,113.06,0,0,0,63,40.47a5.91,5.91,0,1,0-11.51,2.66A111.61,111.61,0,0,1,58.6,68.52a107.92,107.92,0,0,1,.73,25.93,1.53,1.53,0,0,0,3,.53Z"/><ellipse class="cls-2" cx="24.07" cy="146.32" rx="1.08" ry="1.64" transform="translate(-12.16 2.53) rotate(-4.8)"/><ellipse class="cls-2" cx="65.62" cy="139.41" rx="1.08" ry="1.64" transform="translate(-11.43 5.98) rotate(-4.8)"/></g></g></g></svg>