<svg xmlns="http://www.w3.org/2000/svg" width="1920" height="1080" viewBox="0 0 1920 1080"><defs><style>.cls-1{isolation:isolate;}.cls-2{fill:#634428;}.cls-3{fill:#37230e;}.cls-4{fill:#281909;}.cls-28,.cls-32,.cls-34,.cls-5{fill:none;}.cls-6{fill:#ffca91;}.cls-27,.cls-31,.cls-33,.cls-7{fill:#fff;}.cls-11,.cls-15,.cls-17,.cls-18,.cls-20,.cls-25,.cls-8{mix-blend-mode:multiply;}.cls-8{opacity:0.39;}.cls-11,.cls-12,.cls-9{fill:#e5ae13;}.cls-10,.cls-14,.cls-15{fill:#4d8a62;}.cls-12,.cls-14{mix-blend-mode:screen;}.cls-13,.cls-17,.cls-18{opacity:0.3;}.cls-16{fill:#ca9911;}.cls-19{fill:#ccc;}.cls-20{fill:#d8d8d8;}.cls-21{fill:#7a7a7a;}.cls-22{fill:#eee;}.cls-23{fill:#8e6131;}.cls-24,.cls-25{fill:#c79a54;}.cls-26{fill:#b2b2b2;}.cls-27,.cls-28,.cls-31,.cls-32,.cls-33,.cls-34{stroke:#000;stroke-miterlimit:10;}.cls-27,.cls-28,.cls-32,.cls-33,.cls-34{stroke-linecap:round;}.cls-27,.cls-28{stroke-width:0.93px;}.cls-29{opacity:0.2;}.cls-30{mix-blend-mode:darken;}.cls-31,.cls-32{stroke-width:0.89px;}.cls-33{stroke-width:0.93px;}.cls-34{stroke-width:0.89px;}</style></defs><g class="cls-1"><g id="Layer_1" data-name="Layer 1"><path class="cls-2" d="M1367.2,591.6c-94.7-121.8-103.8-229,0-316.8l-26-22.5c-82.9,0-144.7-50.6-110.3-144L1219.7,88s-213-34.4-255.9-41V45.9c-.1,0-1.5.2-3.7.5-2.3-.3-3.6-.5-3.7-.5V47c-42.9,6.7-255.9,41-255.9,41l-11.2,20.4c34.4,93.4-27.4,144-110.3,144l-26,22.5c103.8,87.8,94.7,195,0,316.8-60.4,81.5-42.5,202.3,0,281,98,152.1,394.2,111.5,407,158.3v3.2a19.42,19.42,0,0,1,.2-2.4,9.74,9.74,0,0,1,.2,2.4V1031c12.8-46.8,308.9-6.2,407-158.3C1409.7,793.9,1427.6,673.1,1367.2,591.6Z"/><path class="cls-3" d="M1023.43,985.85c26.8-4,60-7.6,95.3-13.3V93.15c-31.4-5.1-66.1-10.6-95.3-15.3v908Z"/><path class="cls-3" d="M1139.43,969.05c31.8-5.9,64.6-13.7,95.3-25.4V234.15c-24-23.2-32.7-59.3-15.1-107l-10.7-19.5s-30.1-4.9-69.4-11.2v872.6Z"/><path class="cls-3" d="M781.93,969.05c34.1,6.3,67.1,10.2,95.3,14V81.15c-31.1,5-65.8,10.6-95.3,15.3Z"/><path class="cls-3" d="M1349.93,589.35c-90.6-116.5-99.3-219,0-303l-24.9-21.5c-26.3,0-50.4-5.4-69.6-15.8v685.8c38.2-17.4,71.9-41.8,94.5-76.9C1390.63,782.85,1407.73,667.35,1349.93,589.35Z"/><path class="cls-3" d="M665.93,249v686.2c30,13.6,62.8,23,95.3,29.9V99.75c-28.9,4.7-49.1,7.9-49.1,7.9l-10.7,19.5C723.33,186.65,704.43,228,665.93,249Z"/><path class="cls-3" d="M1002.73,74.55c-17.1-2.7-30.8-4.9-38.7-6.1v-1.1c-.1,0-1.4.2-3.6.5-2.2-.3-3.4-.5-3.6-.5v1.1c-10.7,1.7-32.6,5.1-59,9.4V986c34.9,5.3,59,11.2,62.3,23.6v3.1a16.41,16.41,0,0,1,.2-2.3,16.41,16.41,0,0,1,.2,2.3v-3.1c2.7-9.8,18.3-15.6,42-20.2V74.55Z"/><path class="cls-3" d="M645.23,257.75a164.47,164.47,0,0,1-49.3,7.2L571,286.45c99.3,84,90.6,186.5,0,303-57.8,77.9-40.6,193.5,0,268.7,18.5,28.7,44.4,50.2,74.2,66.7Z"/><path class="cls-4" d="M592.3,636c-27.8,39.4-38.9,90.3-29.8,137.5,2.3,11.3,6.4,22.5,14.8,30.5a31.23,31.23,0,0,0,14,7.9c9.7,2.4,21.8-1.6,24.8-11.8,2.1-6.6-.2-14.7-7.1-17.3s-15.2-.6-21.3,3.5c-5.9,3.7-11.5-4.8-5.7-8.7a37.72,37.72,0,0,1,20.1-5.9c12-.1,22.6,7.9,23.7,20.2a25.77,25.77,0,0,1-6.9,20.3c-13.2,13.1-34.7,9.7-46.6-3.1-9.2-9.3-13.7-22-15.8-34.5-8-48.8,4.8-100.4,34.3-139.8a1.06,1.06,0,0,1,1.4-.2,1.18,1.18,0,0,1,.1,1.4Z"/><path class="cls-4" d="M695.5,932.8c1.4-2.2,3.2-4.4,4.6-6.5.8-1.2,3.6-5.3,4.4-6.6,1.7-2.8,4-6.3,5.6-9,55.5-94.2,28.5-207.9,9.5-308.9-13.9-71-29.5-143.2-23.9-216,3-43.6,13.8-88.1,37.5-125.1a1,1,0,0,1,1.5-.3,1.09,1.09,0,0,1,.4,1.3c-4.6,13.7-8.8,27.4-12.3,41.2-12.2,48.3-16.1,98.3-14,148,2.4,63.9,14.7,129.2,26.1,192.1,12.2,70.9,24.9,145.3,4.9,216.1-6.5,22.9-16,45.2-30,64.5a142.61,142.61,0,0,1-10.6,12.7c-1.9,2.1-5.6-.5-3.7-3.5Z"/><path class="cls-4" d="M827.9,123.5a1091,1091,0,0,1,28.2,177.9c2.2,30,1.8,60,2.4,90,.2,54.6-.9,110.8-9.1,164.9-1.9,15-4.8,29.8-10.3,44a2.62,2.62,0,0,1-3.5,1.5,2.71,2.71,0,0,1-1.7-2.6c-.1-15.2,2.8-29.7,5.1-44.5,10.4-63.5,18.4-128.8,16-193.2-1.6-28.8-4.4-60.5-7.6-89.3a1143.47,1143.47,0,0,0-20.7-117.6s-7.2-29-7.2-29.1c-1.1-5.2,6.7-7.7,8.4-2Z"/><path class="cls-4" d="M805.9,746.6c1.4,7.2,2.4,14.3,3.6,21.4,1.8,10.5,4,20.8,6.1,31.2,5,24.3,11,48.5,22.1,70.9,6.4,12.8,14.3,25.1,24.8,35a2.57,2.57,0,0,1,.1,3.7,2.65,2.65,0,0,1-4.1-.3c-8.7-11.9-17.8-23.3-26-35.5-14.6-21.3-26.5-45.5-31.7-71a151.13,151.13,0,0,1-2.1-33.6,125.51,125.51,0,0,1,3.4-22.1c.4-1.9,3.5-1.8,3.8.3Z"/><path class="cls-4" d="M924.9,975.7c14.1-12.7,26.8-27.2,35.8-43.9s14.6-34.9,18.5-53.5a269.92,269.92,0,0,0,6.5-64.1c-.7-35.9-7.7-71.4-14.8-106.6C960.7,657.2,949.4,606,942.3,555c-1.6-12.8-2.9-26.7-3.5-39.6-5.4-119.7,43.5-236.9,24.9-356.6-1.2-7-2.9-15.8-4.6-22.8a230.94,230.94,0,0,0-19.6-53.2,5.47,5.47,0,1,1,9.9-4.6c14.7,36.4,20.9,75.3,21.6,114.2.8,38.6-3.4,77.1-9.1,115.2-11.6,76-28.5,152.4-19.8,229.4,7.1,76.8,37.5,149.1,44.8,226.5a458.07,458.07,0,0,1,2.4,65.2c-1,24.2-3,48.6-9.6,72-6.5,22.3-17.9,43.3-34.1,60.1l-2.6,2.6-2.6,2.6-2.7,2.5c-3.5,3.4-7.4,6.3-11.1,9.4a1.31,1.31,0,0,1-1.9-.2,1.42,1.42,0,0,1,.2-2Z"/><path class="cls-4" d="M1037.3,84.3c19.7,20.5,35.5,45,44,72.3,11.4,36.2,12.1,74.7,9.9,112.3-3.1,46.9-12.1,93.2-18.1,139.5s-11.6,92.8-14.1,139.5c-4.9,102.7,2.6,206.3,25.1,306.6a950,950,0,0,0,31,107.5,5.42,5.42,0,1,1-10.3,3.4A1082.09,1082.09,0,0,1,1076.9,856c-7.3-36.7-12.9-74.3-16.6-111.5s-5.8-74.9-6.3-112.4c-.4-75,2-150.3,11.4-224.8,12-104,55.3-236.9-31.9-319.4a2.57,2.57,0,0,1-.1-3.7,2.8,2.8,0,0,1,3.9.1Z"/><path class="cls-4" d="M1018.7,91c28.9,48.5,37.2,106.3,36.4,162-.3,27.9-2.9,55.7-5.8,83.4-7.2,64.1-13.6,128.7-15.7,193.2-3,110.7,7.1,221.8,28.6,330.4q11,54.3,25.8,107.7a4.62,4.62,0,1,1-8.9,2.5q-6.75-27-12.8-54.3c-28.2-126.7-40.8-256.7-39.4-386.4a1577.27,1577.27,0,0,1,12.2-194.2c5.4-45.6,11.1-91.6,6.9-137.5-2.5-27.3-8.2-54.5-19.2-79.8a199.6,199.6,0,0,0-12.6-24.3,2.53,2.53,0,0,1,.9-3.6,2.59,2.59,0,0,1,3.6.9Z"/><path class="cls-4" d="M1195.6,108.9c2.6,18.8,2.2,40.4,1.4,59.5-.9,18.3-3.1,41-5.4,59.2-2.6,19.4-5.6,39.4-8.9,58.7a922.59,922.59,0,0,1-34.9,134,2.62,2.62,0,1,1-5-1.6,615.35,615.35,0,0,0,25.1-74.9c9.9-37.8,17-77.6,19.7-116.5,1.8-28.5,2.1-60,1.9-88.6.2-9.9.1-19.7.9-29.6a2.61,2.61,0,0,1,5.2-.2Z"/><path class="cls-4" d="M1222.2,221c6.8,54.1-9,107.9-27.3,158.2-14.5,39.2-29.3,79.2-35,120.8-3.9,26.4-3.3,53.2-.8,79.6,6.8,60.6,19.4,120.7,27.8,181.2,4.4,28.9,16.3,107.9,20.8,136.2,2.4,15.1,4.8,30.2,7.5,45.3a1.37,1.37,0,1,1-2.7.4c-2.4-15.1-5-30.2-7.6-45.3-4.9-27.9-19.2-106.5-24.5-135.6-10.2-60.5-23.1-120.4-27.4-181.8-1.7-26.9-.9-54,3.7-80.6a461.36,461.36,0,0,1,11.6-50.5c8.5-30.1,19-63.5,27.8-93.6,5.4-18.2,10.7-36.5,14.5-55.1,2.3-11,4.2-22.4,5.4-33.6a263.56,263.56,0,0,0,1.1-45.3,2.61,2.61,0,0,1,2.5-2.8,3.2,3.2,0,0,1,2.6,2.5Z"/><path class="cls-4" d="M1357.2,635.7c-8.4,9.1-13.1,21.6-15.2,33.8-4.9,27.3,2.3,56.5,5.1,83.7,1.2,11.4,1.8,23,.6,34.5a104.54,104.54,0,0,1-5,23.2,5.11,5.11,0,0,1-6.6,3.3,5.23,5.23,0,0,1-2.9-7.5,73.22,73.22,0,0,0,7.3-20.1c1.9-8.8,2.3-18.3,2.1-27.5-.2-9-1.3-19-2.4-27.9-3.4-26.2-7.6-53.5-.9-79.7a82.8,82.8,0,0,1,9.2-22.3c4.4-6.7,13.8.2,8.7,6.5Z"/><path class="cls-4" d="M1304.7,578.4c-14.5,19.2-20.7,43.4-21.8,67.2-2,50.2,17.9,97.1,26.8,146,4.5,24.7,6.4,50.3,1.4,75.1a1,1,0,0,1-2-.4,163.3,163.3,0,0,0,1.9-18.5,200.52,200.52,0,0,0-2.3-37.1c-9.4-61.7-42.2-120.8-33.9-184.7,2.5-19.4,8.9-38.5,20.3-54.7,4.8-6.3,14.2.5,9.6,7.1Z"/><rect class="cls-5" x="805.8" y="594" width="308.4" height="71"/><rect class="cls-5" x="758.9" y="757.5" width="402.3" height="71"/><path class="cls-6" d="M743.51,365.42H732.07v-5.2h1.64V348.89H732v-5.2h11.47v5.2h-1.39v3.31h5v-3.31h-1.41v-5.2h11.45v5.2h-1.64v11.33h1.64v5.2H745.74v-5.2h1.41v-3.56h-5v3.56h1.39Z"/><path class="cls-6" d="M772.73,360.63l6.48.79a5.88,5.88,0,0,1-1.22,1.82,7.26,7.26,0,0,1-1.9,1.4,11.37,11.37,0,0,1-5.43,1.22c-3.53,0-6.18-.73-8-2.2a7.06,7.06,0,0,1-2.67-5.74,7.37,7.37,0,0,1,2.64-5.78,10.3,10.3,0,0,1,7.08-2.31,10.75,10.75,0,0,1,7,2.19c1.77,1.44,2.72,3.65,2.83,6.61H767.63q0,3.67,2.75,3.68A2.43,2.43,0,0,0,772.73,360.63Zm-5-4h4.42c0-.32,0-.49,0-.53a3.23,3.23,0,0,0-.63-2.05,2,2,0,0,0-1.65-.8,1.82,1.82,0,0,0-1.63.88,4,4,0,0,0-.56,2.18A3,3,0,0,0,767.73,356.66Z"/><path class="cls-6" d="M790.94,372.38h-6.62v-4.61h2.55l.76-1.55L781.82,355h-1.17v-4.76H791V355H789.3l2.64,6,2.44-6h-1.47v-4.76h7.83V355h-1.51Z"/><path class="cls-6" d="M822.48,365.61h-6.22L811.62,355H810v-4.76h10.22V355h-1.52l1.79,5.05,3.73-9.81H830l3.4,9.81,1.94-5.05h-1.45v-4.76h7.39V355h-1.48l-4.41,10.58h-6.24l-3.46-7.77Z"/><path class="cls-6" d="M854.37,365.42h-12v-4.76h2V348.45h-2v-4.76h9.84v8.4a11.1,11.1,0,0,1,6.17-2.1,5.77,5.77,0,0,1,4.24,1.54q1.56,1.56,1.56,5.52v3.61H866v4.76h-9.64v-6.2a11.17,11.17,0,0,0-.33-3.55,1.43,1.43,0,0,0-1.43-.72,4.25,4.25,0,0,0-2.35.8v4.91h2.13Z"/><path class="cls-6" d="M874.44,354.5l-6.15-.62a5.88,5.88,0,0,1,3.28-3.14,18.26,18.26,0,0,1,6.59-.91c1.08,0,2,0,2.89.1a18.63,18.63,0,0,1,2.27.31,7,7,0,0,1,3.08,1.2,4.64,4.64,0,0,1,1.39,1.78,8.62,8.62,0,0,1,.4,3.06v4.38h1.94v4.76h-9.79v-1a9.89,9.89,0,0,1-5.44,1.31,7.18,7.18,0,0,1-4.83-1.4,4.28,4.28,0,0,1-1.64-3.33,4.05,4.05,0,0,1,2-3.48,9.12,9.12,0,0,1,5.22-1.36,11.84,11.84,0,0,1,4.68.76v-.45a6.31,6.31,0,0,0-.21-2,2,2,0,0,0-1-1,3.86,3.86,0,0,0-1.81-.4A3.34,3.34,0,0,0,874.44,354.5Zm5.9,7.05v-2.77a4.69,4.69,0,0,0-2.22-.56,2.33,2.33,0,0,0-1.64.56,1.94,1.94,0,0,0-.61,1.47,1.92,1.92,0,0,0,.62,1.5,2.09,2.09,0,0,0,1.47.59A3.49,3.49,0,0,0,880.34,361.55Z"/><path class="cls-6" d="M904.49,359.89v4.66a7.67,7.67,0,0,1-2.22.9,11.48,11.48,0,0,1-2.93.41,7.23,7.23,0,0,1-3-.58,4.46,4.46,0,0,1-1.95-1.59,5.49,5.49,0,0,1-.53-1.06,5.1,5.1,0,0,1-.25-1.07c-.07-.68-.11-2-.11-4V355h-1.94v-4.76h1.94v-2.33l7.86-3.74v6.07h3.17V355h-3.17V358a4.48,4.48,0,0,0,.27,1.92,1.08,1.08,0,0,0,1.06.49A4.73,4.73,0,0,0,904.49,359.89Z"/><path class="cls-6" d="M921.1,354.5l-6.16-.62a5.89,5.89,0,0,1,3.29-3.14,18.22,18.22,0,0,1,6.59-.91c1.07,0,2,0,2.88.1a18.81,18.81,0,0,1,2.28.31,6.91,6.91,0,0,1,3.07,1.2,4.55,4.55,0,0,1,1.39,1.78,8.36,8.36,0,0,1,.41,3.06v4.38h1.94v4.76H927v-1a9.87,9.87,0,0,1-5.44,1.31,7.17,7.17,0,0,1-4.82-1.4,4.25,4.25,0,0,1-1.64-3.33,4.05,4.05,0,0,1,2-3.48,9.07,9.07,0,0,1,5.22-1.36,11.75,11.75,0,0,1,4.67.76v-.45a6.72,6.72,0,0,0-.2-2,2.05,2.05,0,0,0-1-1,3.89,3.89,0,0,0-1.81-.4A3.34,3.34,0,0,0,921.1,354.5Zm5.89,7.05v-2.77a4.69,4.69,0,0,0-2.22-.56,2.36,2.36,0,0,0-1.64.56,2,2,0,0,0-.61,1.47,1.93,1.93,0,0,0,.63,1.5,2.05,2.05,0,0,0,1.47.59A3.45,3.45,0,0,0,927,361.55Z"/><path class="cls-6" d="M950.93,365.42H938.71v-4.76h2.06V355h-2.06v-4.76h9.41v3.79a6.34,6.34,0,0,1,1.64-2.45,5.25,5.25,0,0,1,2.15-1.33A12,12,0,0,1,955,350v6.67l-.65,0a9.73,9.73,0,0,0-3.58.49,3.09,3.09,0,0,0-1.66,1.31,4.81,4.81,0,0,0-.47,2.22h2.3Z"/><path class="cls-6" d="M969.12,360.63l6.48.79a5.88,5.88,0,0,1-1.22,1.82,7.26,7.26,0,0,1-1.9,1.4,11.34,11.34,0,0,1-5.43,1.22q-5.29,0-8-2.2a7,7,0,0,1-2.68-5.74,7.37,7.37,0,0,1,2.64-5.78,10.3,10.3,0,0,1,7.08-2.31,10.75,10.75,0,0,1,7,2.19c1.77,1.44,2.72,3.65,2.83,6.61H964q0,3.67,2.75,3.68A2.43,2.43,0,0,0,969.12,360.63Zm-5-4h4.42c0-.32,0-.49,0-.53a3.29,3.29,0,0,0-.62-2.05,2,2,0,0,0-1.66-.8,1.82,1.82,0,0,0-1.63.88,4,4,0,0,0-.56,2.18A3,3,0,0,0,964.12,356.66Z"/><path class="cls-6" d="M996,372.38h-6.63v-4.61h2.55l.76-1.55L986.85,355h-1.17v-4.76H996V355h-1.67l2.64,6,2.43-6H998v-4.76h7.82V355h-1.51Z"/><path class="cls-6" d="M1007.09,357.77a7,7,0,0,1,2.81-5.64,11.58,11.58,0,0,1,7.59-2.3,12.88,12.88,0,0,1,7.83,2.22,6.86,6.86,0,0,1,3,5.78,7,7,0,0,1-2.88,5.73,11.82,11.82,0,0,1-7.59,2.3c-3.4,0-6-.77-7.94-2.3A7.09,7.09,0,0,1,1007.09,357.77Zm7.95,0q0,3.61,2.59,3.62c1.84,0,2.75-1.22,2.75-3.65a4.35,4.35,0,0,0-.67-2.6,2.28,2.28,0,0,0-1.94-.92,2.43,2.43,0,0,0-2,.91A4,4,0,0,0,1015,357.8Z"/><path class="cls-6" d="M1032.27,355h-1.82v-4.76h9.68v7.22a5.78,5.78,0,0,0,.35,2.45,1.41,1.41,0,0,0,1.4.64,4.58,4.58,0,0,0,2.44-.7V355h-2.08v-4.76h9.94v10.39H1054v4.76h-9.69V363.5a10.86,10.86,0,0,1-6.36,2.2,5.83,5.83,0,0,1-4-1.48c-1.12-1-1.69-2.85-1.69-5.59Z"/><path class="cls-6" d="M1087.59,360.66v4.76h-9.83v-1a9.79,9.79,0,0,1-5.06,1.29,8.92,8.92,0,0,1-5.68-1.95,6.73,6.73,0,0,1-2.47-5.59,7.89,7.89,0,0,1,2.29-6.07A8.65,8.65,0,0,1,1073,350a8.86,8.86,0,0,1,4.81,1.25v-2.79h-1.94v-4.76h9.8v17Zm-9.79-2.88a4,4,0,0,0-.65-2.37,2.22,2.22,0,0,0-2-.94q-2.68,0-2.68,3.45a4,4,0,0,0,.66,2.35,2.21,2.21,0,0,0,2,.93,2.5,2.5,0,0,0,1.94-.82A3.86,3.86,0,0,0,1077.8,357.78Z"/><path class="cls-6" d="M1090.09,357.77a7,7,0,0,1,2.81-5.64,11.58,11.58,0,0,1,7.59-2.3,12.88,12.88,0,0,1,7.83,2.22,6.86,6.86,0,0,1,3,5.78,7,7,0,0,1-2.88,5.73,11.82,11.82,0,0,1-7.59,2.3c-3.4,0-6-.77-7.94-2.3A7.09,7.09,0,0,1,1090.09,357.77Zm8,0q0,3.61,2.59,3.62c1.84,0,2.75-1.22,2.75-3.65a4.35,4.35,0,0,0-.67-2.6,2.28,2.28,0,0,0-1.94-.92,2.43,2.43,0,0,0-2,.91A4,4,0,0,0,1098,357.8Z"/><path class="cls-6" d="M1124.57,365.42h-10.73v-4.76h1.56V355h-1.56v-4.76h9.42v10.39h1.31ZM1114.74,346a2.24,2.24,0,0,1,1.27-2,5.89,5.89,0,0,1,3.09-.75,5.37,5.37,0,0,1,3.05.78,2.32,2.32,0,0,1,1.14,1.94,2.2,2.2,0,0,1-1.19,1.95,5.71,5.71,0,0,1-3,.74A6.48,6.48,0,0,1,1116,348,2.13,2.13,0,0,1,1114.74,346Z"/><path class="cls-6" d="M1138.79,365.42h-12v-4.76h2V355h-2v-4.76h9.81v1.92a10,10,0,0,1,6.2-2.2,5.65,5.65,0,0,1,4.38,1.6c1,1.08,1.45,2.8,1.45,5.18v3.89h1.8v4.76h-9.66v-6.73a7.28,7.28,0,0,0-.37-2.91,1.65,1.65,0,0,0-1.55-.69,4.14,4.14,0,0,0-2.25.8v4.77h2.19Z"/><path class="cls-6" d="M1154,371l2.16-3.84a12.91,12.91,0,0,0,4.9.76,7.19,7.19,0,0,0,3.17-.57,2.92,2.92,0,0,0,1.49-1.33,5.94,5.94,0,0,0,.31-2.17,11.57,11.57,0,0,1-5.27,1.18,8.62,8.62,0,0,1-5.71-1.93,6.49,6.49,0,0,1-2.36-5.33,7.13,7.13,0,0,1,2.45-5.71,8.73,8.73,0,0,1,5.91-2.1,9.64,9.64,0,0,1,5,1.25v-1h9.72V355h-1.89v8.31a14.34,14.34,0,0,1-.5,4.29,5.59,5.59,0,0,1-1.85,2.56,8,8,0,0,1-3.32,1.59,21.39,21.39,0,0,1-5.27.52c-1,0-1.85,0-2.62-.1s-1.64-.16-2.63-.31A19,19,0,0,1,1154,371Zm6.64-13.09a3.67,3.67,0,0,0,.7,2.31,2.64,2.64,0,0,0,4,0,3.87,3.87,0,0,0,.67-2.33,4,4,0,0,0-.72-2.49,2.35,2.35,0,0,0-2-1,2.32,2.32,0,0,0-2,1A4.18,4.18,0,0,0,1160.68,357.94Z"/><path class="cls-6" d="M1186.93,365.42h-7.8v-5.68h7.8Zm-1.25-8.73h-5.33l-1.09-6.77v-6.23h7.54v6.11Z"/><path class="cls-6" d="M743.88,442.22H733.77V437h1.71V425.69h-1.71v-5.2h10.41a30.72,30.72,0,0,1,5.81.44,11.49,11.49,0,0,1,4.27,1.79,9.5,9.5,0,0,1,3.12,3.72,10.61,10.61,0,0,1,.86,2.41,11.73,11.73,0,0,1,.3,2.69,11.07,11.07,0,0,1-1.2,5.15,9.34,9.34,0,0,1-3,3.55,9.81,9.81,0,0,1-3.91,1.61A41,41,0,0,1,743.88,442.22Zm0-16.53V437h.8c2,0,3.26-.53,3.86-1.58a8.13,8.13,0,0,0,.87-4,11,11,0,0,0-.37-2.84,4,4,0,0,0-1.38-2.17,5.78,5.78,0,0,0-3.47-.77Z"/><path class="cls-6" d="M761.51,434.57a7,7,0,0,1,2.81-5.64,11.6,11.6,0,0,1,7.59-2.3,12.88,12.88,0,0,1,7.83,2.22,6.86,6.86,0,0,1,3,5.78,7,7,0,0,1-2.88,5.73,11.8,11.8,0,0,1-7.59,2.3c-3.4,0-6-.77-7.94-2.3A7.12,7.12,0,0,1,761.51,434.57Zm8,0q0,3.61,2.59,3.62c1.84,0,2.75-1.22,2.75-3.65a4.35,4.35,0,0,0-.67-2.6,2.28,2.28,0,0,0-1.94-.92,2.43,2.43,0,0,0-2,.91A4,4,0,0,0,769.46,434.6Z"/><path class="cls-6" d="M805.23,442.22h-12v-4.76h1.95v-5.63h-1.95v-4.76H803V429a10,10,0,0,1,6.2-2.2,5.65,5.65,0,0,1,4.38,1.6c1,1.08,1.45,2.8,1.45,5.18v3.89h1.8v4.76h-9.66v-6.73a7.28,7.28,0,0,0-.37-2.91,1.66,1.66,0,0,0-1.55-.69,4.14,4.14,0,0,0-2.25.8v4.77h2.19Z"/><path class="cls-6" d="M819.16,434.57a7,7,0,0,1,2.82-5.64,11.58,11.58,0,0,1,7.59-2.3,12.88,12.88,0,0,1,7.83,2.22,6.85,6.85,0,0,1,3,5.78,7,7,0,0,1-2.87,5.73,11.83,11.83,0,0,1-7.6,2.3c-3.39,0-6-.77-7.93-2.3A7.1,7.1,0,0,1,819.16,434.57Zm8,0q0,3.61,2.59,3.62,2.74,0,2.75-3.65a4.35,4.35,0,0,0-.67-2.6,2.3,2.3,0,0,0-1.94-.92,2.43,2.43,0,0,0-2,.91A4,4,0,0,0,827.12,434.6Z"/><path class="cls-6" d="M855.26,436.69v4.66a7.67,7.67,0,0,1-2.22.9,11.5,11.5,0,0,1-2.94.41,7.15,7.15,0,0,1-3-.58,4.4,4.4,0,0,1-2-1.59,5.49,5.49,0,0,1-.53-1.06,4.55,4.55,0,0,1-.25-1.07c-.08-.68-.11-2-.11-4v-2.55h-1.94v-4.76h1.94v-2.33l7.86-3.74v6.07h3.17v4.76h-3.17v2.94a4.53,4.53,0,0,0,.26,1.92,1.09,1.09,0,0,0,1.06.49A4.77,4.77,0,0,0,855.26,436.69Z"/><path class="cls-6" d="M871.19,442.41h-4.85V437.6h4.54a5.21,5.21,0,0,0,3.83,1.84c1.4,0,2.09-.28,2.09-.86a.73.73,0,0,0-.45-.67,13.84,13.84,0,0,0-2.48-.73c-1.09-.3-2.28-.63-3.6-1a8.17,8.17,0,0,1-2.68-1.22,4.17,4.17,0,0,1-1.36-1.44,3.87,3.87,0,0,1-.38-1.84,4.12,4.12,0,0,1,1.78-3.7,8,8,0,0,1,4.49-1.17,9.6,9.6,0,0,1,4.72,1.06v-.78h4.79v4.4h-4.44a5.5,5.5,0,0,0-3.93-1.58q-1.8,0-1.8,1c0,.3.18.5.53.59s1.3.32,3,.67a34.37,34.37,0,0,1,4.52,1.22,5.59,5.59,0,0,1,2.42,1.61,3.84,3.84,0,0,1,.8,2.45,4.29,4.29,0,0,1-2,3.88A8.73,8.73,0,0,1,876,442.5a10.25,10.25,0,0,1-4.8-1Z"/><path class="cls-6" d="M896.82,442.22h-12v-4.76h2V425.25h-2v-4.76h9.84v8.4a11.13,11.13,0,0,1,6.18-2.1,5.74,5.74,0,0,1,4.23,1.54q1.56,1.56,1.56,5.52v3.61h1.78v4.76H898.8V436a11.62,11.62,0,0,0-.32-3.55,1.43,1.43,0,0,0-1.44-.72,4.3,4.3,0,0,0-2.35.8v4.91h2.13Z"/><path class="cls-6" d="M910.85,434.57a7,7,0,0,1,2.81-5.64,11.62,11.62,0,0,1,7.6-2.3,12.9,12.9,0,0,1,7.83,2.22,6.85,6.85,0,0,1,3,5.78,7.07,7.07,0,0,1-2.87,5.73,11.83,11.83,0,0,1-7.6,2.3q-5.08,0-7.94-2.3A7.12,7.12,0,0,1,910.85,434.57Zm7.95,0q0,3.61,2.6,3.62t2.75-3.65a4.42,4.42,0,0,0-.67-2.6,2.3,2.3,0,0,0-1.94-.92,2.45,2.45,0,0,0-2,.91A4,4,0,0,0,918.8,434.6Z"/><path class="cls-6" d="M934.85,434.57a7,7,0,0,1,2.81-5.64,11.62,11.62,0,0,1,7.6-2.3,12.9,12.9,0,0,1,7.83,2.22,6.85,6.85,0,0,1,3,5.78,7.07,7.07,0,0,1-2.87,5.73,11.83,11.83,0,0,1-7.6,2.3q-5.08,0-7.94-2.3A7.12,7.12,0,0,1,934.85,434.57Zm7.95,0q0,3.61,2.6,3.62t2.75-3.65a4.42,4.42,0,0,0-.67-2.6,2.3,2.3,0,0,0-1.94-.92,2.45,2.45,0,0,0-2,.91A4,4,0,0,0,942.8,434.6Z"/><path class="cls-6" d="M971,436.69v4.66a7.8,7.8,0,0,1-2.22.9,11.5,11.5,0,0,1-2.94.41,7.15,7.15,0,0,1-3-.58,4.43,4.43,0,0,1-2-1.59,6.14,6.14,0,0,1-.53-1.06,5.82,5.82,0,0,1-.25-1.07c-.07-.68-.11-2-.11-4v-2.55H958v-4.76h1.93v-2.33l7.86-3.74v6.07H971v4.76h-3.18v2.94a4.48,4.48,0,0,0,.27,1.92,1.09,1.09,0,0,0,1.06.49A4.77,4.77,0,0,0,971,436.69Z"/><path class="cls-6" d="M990.74,449.18h-6.62v-4.61h2.54l.77-1.55-5.81-11.19h-1.17v-4.76h10.32v4.76H989.1l2.64,6,2.44-6h-1.47v-4.76h7.83v4.76H999Z"/><path class="cls-6" d="M1001.85,434.57a7,7,0,0,1,2.81-5.64,11.62,11.62,0,0,1,7.6-2.3,12.88,12.88,0,0,1,7.83,2.22,6.85,6.85,0,0,1,3,5.78,7.07,7.07,0,0,1-2.87,5.73,11.83,11.83,0,0,1-7.6,2.3c-3.39,0-6-.77-7.93-2.3A7.1,7.1,0,0,1,1001.85,434.57Zm7.95,0q0,3.61,2.6,3.62t2.75-3.65a4.42,4.42,0,0,0-.67-2.6,2.3,2.3,0,0,0-1.94-.92,2.45,2.45,0,0,0-2,.91A4,4,0,0,0,1009.8,434.6Z"/><path class="cls-6" d="M1027,431.83h-1.83v-4.76h9.69v7.22a5.82,5.82,0,0,0,.34,2.45,1.43,1.43,0,0,0,1.41.64,4.61,4.61,0,0,0,2.44-.7v-4.85H1037v-4.76H1047v10.39h1.82v4.76h-9.68V440.3a10.91,10.91,0,0,1-6.36,2.2,5.79,5.79,0,0,1-4-1.48q-1.7-1.49-1.69-5.59Z"/><path class="cls-6" d="M1063.07,442.22h-12.22v-4.76h2.06v-5.63h-2.06v-4.76h9.41v3.79a6.34,6.34,0,0,1,1.64-2.45,5.31,5.31,0,0,1,2.15-1.33,12,12,0,0,1,3.08-.29v6.67l-.65,0a9.73,9.73,0,0,0-3.58.49,3.12,3.12,0,0,0-1.66,1.31,4.81,4.81,0,0,0-.47,2.22h2.3Z"/><path class="cls-6" d="M1099.7,437.46v4.76h-9.83v-1a9.8,9.8,0,0,1-5.07,1.29,8.91,8.91,0,0,1-5.67-1.95,6.73,6.73,0,0,1-2.47-5.59,7.89,7.89,0,0,1,2.29-6.07,8.65,8.65,0,0,1,6.1-2.1,8.87,8.87,0,0,1,4.82,1.25v-2.79h-1.94v-4.76h9.8v17Zm-9.79-2.88a4,4,0,0,0-.65-2.37,2.23,2.23,0,0,0-2-.94q-2.67,0-2.67,3.45a4,4,0,0,0,.66,2.35,2.21,2.21,0,0,0,2,.93,2.5,2.5,0,0,0,1.94-.82A3.86,3.86,0,0,0,1089.91,434.58Z"/><path class="cls-6" d="M1102.2,434.57a7,7,0,0,1,2.81-5.64,11.58,11.58,0,0,1,7.59-2.3,12.88,12.88,0,0,1,7.83,2.22,6.86,6.86,0,0,1,3,5.78,7,7,0,0,1-2.88,5.73,11.82,11.82,0,0,1-7.59,2.3q-5.1,0-7.94-2.3A7.09,7.09,0,0,1,1102.2,434.57Zm8,0q0,3.61,2.59,3.62c1.84,0,2.75-1.22,2.75-3.65a4.35,4.35,0,0,0-.67-2.6,2.28,2.28,0,0,0-1.94-.92,2.43,2.43,0,0,0-2,.91A4,4,0,0,0,1110.15,434.6Z"/><path class="cls-6" d="M1127.2,447.83l2.15-3.84a13,13,0,0,0,4.91.76,7.22,7.22,0,0,0,3.17-.57,2.85,2.85,0,0,0,1.48-1.33,5.91,5.91,0,0,0,.32-2.17,11.6,11.6,0,0,1-5.27,1.18,8.65,8.65,0,0,1-5.72-1.93,6.52,6.52,0,0,1-2.36-5.33,7.14,7.14,0,0,1,2.46-5.71,8.72,8.72,0,0,1,5.9-2.1,9.66,9.66,0,0,1,5,1.25v-1H1149v4.76h-1.9v8.31a14,14,0,0,1-.5,4.29,5.49,5.49,0,0,1-1.84,2.56,8,8,0,0,1-3.33,1.59,21.3,21.3,0,0,1-5.26.52c-1,0-1.85,0-2.62-.1s-1.64-.16-2.63-.31A19,19,0,0,1,1127.2,447.83Zm6.64-13.09a3.67,3.67,0,0,0,.7,2.31,2.64,2.64,0,0,0,4,0,3.94,3.94,0,0,0,.67-2.33,4,4,0,0,0-.72-2.49,2.37,2.37,0,0,0-2-1,2.31,2.31,0,0,0-2,1A4.18,4.18,0,0,0,1133.84,434.74Z"/><path class="cls-6" d="M1160.09,442.22h-7.8v-5.68h7.8Zm-1.25-8.73h-5.33l-1.1-6.77v-6.23H1160v6.11Z"/><path class="cls-6" d="M1172.76,442.22H1165v-5.68h7.8Zm-1.25-8.73h-5.33l-1.09-6.77v-6.23h7.54v6.11Z"/><path class="cls-6" d="M1185.43,442.22h-7.8v-5.68h7.8Zm-1.25-8.73h-5.33l-1.09-6.77v-6.23h7.54v6.11Z"/><path class="cls-6" d="M847.87,480.62H836.44v-5.2h1.64V464.09h-1.67v-5.2h11.46v5.2h-1.39v3.31h5v-3.31h-1.41v-5.2h11.45v5.2h-1.64v11.33h1.64v5.2H850.11v-5.2h1.41v-3.56h-5v3.56h1.39Z"/><path class="cls-6" d="M877.09,475.83l6.49.79a5.88,5.88,0,0,1-1.22,1.82,7.32,7.32,0,0,1-1.91,1.4,11.33,11.33,0,0,1-5.42,1.22q-5.29,0-8-2.2a7.06,7.06,0,0,1-2.67-5.74,7.37,7.37,0,0,1,2.64-5.78,10.3,10.3,0,0,1,7.08-2.31,10.77,10.77,0,0,1,7,2.19q2.65,2.17,2.83,6.61H872q0,3.68,2.75,3.68A2.43,2.43,0,0,0,877.09,475.83Zm-5-4h4.43c0-.32,0-.49,0-.53a3.23,3.23,0,0,0-.63-2.05,2,2,0,0,0-1.65-.8,1.82,1.82,0,0,0-1.63.88,4,4,0,0,0-.56,2.18C872.08,471.66,872.08,471.76,872.09,471.86Z"/><path class="cls-6" d="M908.41,474.4l5.86,1.32a6.6,6.6,0,0,1-3.16,3.93,12,12,0,0,1-6.06,1.41,11.87,11.87,0,0,1-7.53-2.16,6.93,6.93,0,0,1-2.75-5.78,7.25,7.25,0,0,1,2.56-5.72,9.42,9.42,0,0,1,6.39-2.21,8.37,8.37,0,0,1,5,1.29v-1h4.8v6.47h-4.8c-.59-1.73-1.6-2.6-3-2.6a2.55,2.55,0,0,0-2.22,1.11,4.78,4.78,0,0,0-.78,2.77,4.25,4.25,0,0,0,.84,2.78,2.64,2.64,0,0,0,2.16,1C907.18,477,908.07,476.14,908.41,474.4Z"/><path class="cls-6" d="M916.73,473a7,7,0,0,1,2.82-5.64,11.58,11.58,0,0,1,7.59-2.3,12.88,12.88,0,0,1,7.83,2.22,6.85,6.85,0,0,1,3,5.78,7.07,7.07,0,0,1-2.87,5.73,11.82,11.82,0,0,1-7.59,2.3q-5.1,0-7.94-2.3A7.1,7.1,0,0,1,916.73,473Zm8,0c0,2.42.86,3.62,2.59,3.62S930,475.4,930,473a4.35,4.35,0,0,0-.67-2.6,2.3,2.3,0,0,0-1.94-.92,2.43,2.43,0,0,0-2,.91A4,4,0,0,0,924.69,473Z"/><path class="cls-6" d="M941.92,470.23h-1.83v-4.76h9.69v7.22a6,6,0,0,0,.34,2.45,1.43,1.43,0,0,0,1.41.64,4.58,4.58,0,0,0,2.44-.7v-4.85h-2.08v-4.76h9.94v10.39h1.83v4.76H954V478.7a10.89,10.89,0,0,1-6.36,2.2,5.81,5.81,0,0,1-4-1.48q-1.7-1.49-1.69-5.59Z"/><path class="cls-6" d="M976.62,480.62H965.77v-4.76h1.61V463.65h-1.61v-4.76h9.46v17h1.39Z"/><path class="cls-6" d="M1002.22,475.86v4.76h-9.83v-1a9.79,9.79,0,0,1-5.06,1.29,8.87,8.87,0,0,1-5.67-1.95,6.7,6.7,0,0,1-2.47-5.59,7.92,7.92,0,0,1,2.28-6.07,8.67,8.67,0,0,1,6.11-2.1,8.84,8.84,0,0,1,4.81,1.25v-2.79h-1.94v-4.76h9.8v17ZM992.44,473a4,4,0,0,0-.66-2.37,2.22,2.22,0,0,0-1.95-.94q-2.67,0-2.67,3.45a4,4,0,0,0,.65,2.35,2.22,2.22,0,0,0,2,.93,2.48,2.48,0,0,0,1.93-.82A3.86,3.86,0,0,0,992.44,473Z"/><path class="cls-6" d="M1035.88,475.86v4.76h-9.83v-1a9.8,9.8,0,0,1-5.07,1.29,8.91,8.91,0,0,1-5.67-1.95,6.73,6.73,0,0,1-2.47-5.59,7.92,7.92,0,0,1,2.28-6.07,8.69,8.69,0,0,1,6.11-2.1,8.87,8.87,0,0,1,4.82,1.25v-2.79h-1.94v-4.76h9.8v17Zm-9.79-2.88a4,4,0,0,0-.65-2.37,2.23,2.23,0,0,0-2-.94q-2.67,0-2.67,3.45a4,4,0,0,0,.66,2.35,2.21,2.21,0,0,0,1.95.93,2.5,2.5,0,0,0,1.94-.82A3.86,3.86,0,0,0,1026.09,473Z"/><path class="cls-6" d="M1048.86,480.62h-10.74v-4.76h1.57v-5.63h-1.57v-4.76h9.43v10.39h1.31ZM1039,461.19a2.24,2.24,0,0,1,1.27-2,5.89,5.89,0,0,1,3.09-.75,5.37,5.37,0,0,1,3,.78,2.32,2.32,0,0,1,1.14,1.94,2.2,2.2,0,0,1-1.19,1.95,5.71,5.71,0,0,1-3,.74,6.48,6.48,0,0,1-3.09-.67A2.13,2.13,0,0,1,1039,461.19Z"/><path class="cls-6" d="M1064.08,475.83l6.48.79a5.88,5.88,0,0,1-1.22,1.82,7.26,7.26,0,0,1-1.9,1.4,11.33,11.33,0,0,1-5.42,1.22c-3.54,0-6.19-.73-8-2.2a7.06,7.06,0,0,1-2.67-5.74,7.34,7.34,0,0,1,2.64-5.78,10.26,10.26,0,0,1,7.07-2.31,10.75,10.75,0,0,1,7,2.19c1.77,1.45,2.72,3.65,2.83,6.61H1059c0,2.45,1,3.68,2.75,3.68A2.43,2.43,0,0,0,1064.08,475.83Zm-5-4h4.42c0-.32,0-.49,0-.53a3.29,3.29,0,0,0-.62-2.05,2,2,0,0,0-1.66-.8,1.82,1.82,0,0,0-1.63.88,4,4,0,0,0-.56,2.18A3,3,0,0,0,1059.08,471.86Z"/><path class="cls-6" d="M1082.56,480.62h-7.79v-5.68h7.79Zm-1.25-8.73H1076l-1.09-6.77v-6.23h7.55V465Z"/><path class="cls-6" d="M650.27,557.42H638.06v-5.2h1.88V540.89h-2.5v4h-4.08v-9.15h21.55v9.15h-4.08v-4h-2.49v11.33h1.93Z"/><path class="cls-6" d="M669.39,557.42H657.17v-4.76h2.06V547h-2.06v-4.76h9.41v3.79a6.34,6.34,0,0,1,1.64-2.45,5.31,5.31,0,0,1,2.15-1.33,12,12,0,0,1,3.08-.29v6.67l-.65,0a9.73,9.73,0,0,0-3.58.49,3.12,3.12,0,0,0-1.66,1.31,4.81,4.81,0,0,0-.47,2.22h2.3Z"/><path class="cls-6" d="M685.69,564.38h-6.63v-4.61h2.55l.76-1.55L676.56,547h-1.17v-4.76h10.33V547h-1.67l2.64,6,2.43-6h-1.46v-4.76h7.82V547H694Z"/><path class="cls-6" d="M711.48,546.5l-6.15-.62a5.85,5.85,0,0,1,3.28-3.14,18.26,18.26,0,0,1,6.59-.91c1.08,0,2,0,2.89.1a18.91,18.91,0,0,1,2.27.31,7,7,0,0,1,3.08,1.2,4.64,4.64,0,0,1,1.39,1.78,8.62,8.62,0,0,1,.4,3.06v4.38h1.94v4.76h-9.8v-1a9.83,9.83,0,0,1-5.43,1.31,7.18,7.18,0,0,1-4.83-1.4,4.28,4.28,0,0,1-1.64-3.33,4.05,4.05,0,0,1,2-3.48,9.12,9.12,0,0,1,5.22-1.36,11.75,11.75,0,0,1,4.67.76v-.45a6.39,6.39,0,0,0-.2-2,2,2,0,0,0-1-1,3.86,3.86,0,0,0-1.81-.4A3.34,3.34,0,0,0,711.48,546.5Zm5.89,7v-2.77a4.62,4.62,0,0,0-2.21-.56,2.33,2.33,0,0,0-1.64.56,1.94,1.94,0,0,0-.61,1.47,1.92,1.92,0,0,0,.62,1.5,2.09,2.09,0,0,0,1.47.59A3.45,3.45,0,0,0,717.37,553.55Z"/><path class="cls-6" d="M730.11,563l2.16-3.84a12.91,12.91,0,0,0,4.9.76,7.19,7.19,0,0,0,3.17-.57,2.92,2.92,0,0,0,1.49-1.33,5.94,5.94,0,0,0,.31-2.17,11.57,11.57,0,0,1-5.27,1.18,8.62,8.62,0,0,1-5.71-1.93,6.49,6.49,0,0,1-2.36-5.33,7.13,7.13,0,0,1,2.45-5.71,8.73,8.73,0,0,1,5.91-2.1,9.64,9.64,0,0,1,5,1.25v-1h9.72V547H750v8.31a14.34,14.34,0,0,1-.5,4.29,5.59,5.59,0,0,1-1.85,2.56,8,8,0,0,1-3.32,1.59,21.39,21.39,0,0,1-5.27.52c-1,0-1.85,0-2.62-.1s-1.64-.16-2.63-.31A19,19,0,0,1,730.11,563Zm6.64-13.09a3.67,3.67,0,0,0,.7,2.31,2.64,2.64,0,0,0,4,0,3.87,3.87,0,0,0,.67-2.33,4,4,0,0,0-.72-2.49,2.35,2.35,0,0,0-2-1,2.32,2.32,0,0,0-2,1A4.18,4.18,0,0,0,736.75,549.94Z"/><path class="cls-6" d="M760.19,546.5l-6.16-.62a5.88,5.88,0,0,1,3.28-3.14,18.28,18.28,0,0,1,6.6-.91c1.07,0,2,0,2.88.1a18.36,18.36,0,0,1,2.27.31,7,7,0,0,1,3.08,1.2,4.55,4.55,0,0,1,1.39,1.78,8.58,8.58,0,0,1,.41,3.06v4.38h1.93v4.76h-9.79v-1a9.89,9.89,0,0,1-5.44,1.31,7.2,7.2,0,0,1-4.83-1.4,4.28,4.28,0,0,1-1.64-3.33,4,4,0,0,1,2-3.48,9.07,9.07,0,0,1,5.22-1.36,11.82,11.82,0,0,1,4.67.76v-.45a6.31,6.31,0,0,0-.21-2,2,2,0,0,0-1-1,3.93,3.93,0,0,0-1.82-.4A3.31,3.31,0,0,0,760.19,546.5Zm5.89,7v-2.77a4.69,4.69,0,0,0-2.22-.56,2.33,2.33,0,0,0-1.64.56,2.1,2.1,0,0,0,0,3,2.09,2.09,0,0,0,1.47.59A3.49,3.49,0,0,0,766.08,553.55Z"/><path class="cls-6" d="M788.62,557.42H777.89v-4.76h1.56V547h-1.56v-4.76h9.42v10.39h1.31ZM778.8,538a2.25,2.25,0,0,1,1.26-2,6,6,0,0,1,3.1-.75,5.33,5.33,0,0,1,3,.78,2.32,2.32,0,0,1,1.14,1.94,2.19,2.19,0,0,1-1.18,1.95,5.78,5.78,0,0,1-3,.74A6.48,6.48,0,0,1,780,540,2.14,2.14,0,0,1,778.8,538Z"/><path class="cls-6" d="M792.44,563l2.15-3.84a13,13,0,0,0,4.91.76,7.22,7.22,0,0,0,3.17-.57,2.92,2.92,0,0,0,1.49-1.33,6.16,6.16,0,0,0,.31-2.17,11.57,11.57,0,0,1-5.27,1.18,8.66,8.66,0,0,1-5.72-1.93,6.52,6.52,0,0,1-2.36-5.33,7.14,7.14,0,0,1,2.46-5.71,8.72,8.72,0,0,1,5.9-2.1,9.66,9.66,0,0,1,5,1.25v-1h9.72V547H812.3v8.31a14.34,14.34,0,0,1-.5,4.29,5.59,5.59,0,0,1-1.85,2.56,8,8,0,0,1-3.33,1.59,21.25,21.25,0,0,1-5.26.52c-1,0-1.85,0-2.62-.1s-1.64-.16-2.63-.31A19,19,0,0,1,792.44,563Zm6.64-13.09a3.67,3.67,0,0,0,.7,2.31,2.64,2.64,0,0,0,4.05,0,3.87,3.87,0,0,0,.67-2.33,4,4,0,0,0-.72-2.49,2.37,2.37,0,0,0-2-1,2.32,2.32,0,0,0-2,1A4.18,4.18,0,0,0,799.08,549.94Z"/><path class="cls-6" d="M815.61,563.72v-3.05a3.94,3.94,0,0,0,1.91-.37,1.74,1.74,0,0,0,.81-.89,8.46,8.46,0,0,0,.19-2h-2.91v-5.68h7.8v4.85a22.65,22.65,0,0,1-.19,3.58,3.78,3.78,0,0,1-1.1,1.91,4.67,4.67,0,0,1-2.2,1.3A19.16,19.16,0,0,1,815.61,563.72Z"/><path class="cls-6" d="M840.84,557.42H831v-4.76h2V540.45h-2v-4.76h9.87v7.55A9,9,0,0,1,845.7,542a8.71,8.71,0,0,1,6,2.06,7.06,7.06,0,0,1,2.36,5.61,8.48,8.48,0,0,1-.57,3.17,7.89,7.89,0,0,1-7.4,4.87,10.1,10.1,0,0,1-5.22-1.29Zm-.06-7.64q0,3.42,2.72,3.42c1.72,0,2.58-1.13,2.58-3.4a3.79,3.79,0,0,0-.72-2.49,2.4,2.4,0,0,0-1.92-.84,2.32,2.32,0,0,0-2,.92A4,4,0,0,0,840.78,549.78Z"/><path class="cls-6" d="M858.06,547h-1.83v-4.76h9.69v7.22a5.78,5.78,0,0,0,.35,2.45c.21.43.68.64,1.4.64a4.58,4.58,0,0,0,2.44-.7V547H868v-4.76H878v10.39h1.83v4.76h-9.69V555.5a10.86,10.86,0,0,1-6.36,2.2,5.81,5.81,0,0,1-4-1.48q-1.69-1.49-1.69-5.59Z"/><path class="cls-6" d="M894.31,551.89v4.66a7.67,7.67,0,0,1-2.22.9,11.48,11.48,0,0,1-2.93.41,7.23,7.23,0,0,1-3-.58,4.46,4.46,0,0,1-2-1.59,5.49,5.49,0,0,1-.53-1.06,5.1,5.1,0,0,1-.25-1.07c-.07-.68-.11-2-.11-4V547h-1.94v-4.76h1.94v-2.33l7.86-3.74v6.07h3.17V547h-3.17V550a4.48,4.48,0,0,0,.27,1.92,1.08,1.08,0,0,0,1.06.49A4.73,4.73,0,0,0,894.31,551.89Z"/><path class="cls-6" d="M917,551.89v4.66a7.67,7.67,0,0,1-2.22.9,11.5,11.5,0,0,1-2.94.41,7.15,7.15,0,0,1-3-.58,4.46,4.46,0,0,1-1.95-1.59,5.49,5.49,0,0,1-.53-1.06,4.55,4.55,0,0,1-.25-1.07c-.08-.68-.11-2-.11-4V547H904v-4.76h1.94v-2.33l7.86-3.74v6.07H917V547H913.8V550a4.53,4.53,0,0,0,.26,1.92,1.09,1.09,0,0,0,1.06.49A4.77,4.77,0,0,0,917,551.89Z"/><path class="cls-6" d="M930.84,557.42h-12v-4.76h2V540.45h-2v-4.76h9.85v8.4a11.08,11.08,0,0,1,6.17-2.1,5.74,5.74,0,0,1,4.23,1.54q1.57,1.56,1.57,5.52v3.61h1.78v4.76h-9.64v-6.2a11.17,11.17,0,0,0-.33-3.55,1.43,1.43,0,0,0-1.44-.72,4.25,4.25,0,0,0-2.34.8v4.91h2.12Z"/><path class="cls-6" d="M955.36,557.42H944.62v-4.76h1.57V547h-1.57v-4.76h9.43v10.39h1.31ZM945.53,538a2.24,2.24,0,0,1,1.27-2,5.89,5.89,0,0,1,3.09-.75,5.37,5.37,0,0,1,3.05.78,2.32,2.32,0,0,1,1.14,1.94,2.2,2.2,0,0,1-1.19,1.95,5.71,5.71,0,0,1-3,.74,6.48,6.48,0,0,1-3.09-.67A2.13,2.13,0,0,1,945.53,538Z"/><path class="cls-6" d="M963.23,557.61h-4.86V552.8h4.55a5.21,5.21,0,0,0,3.83,1.84c1.4,0,2.09-.28,2.09-.86a.73.73,0,0,0-.45-.67,13.84,13.84,0,0,0-2.48-.73c-1.09-.3-2.29-.63-3.6-1a8.33,8.33,0,0,1-2.69-1.22,4.13,4.13,0,0,1-1.35-1.44,3.87,3.87,0,0,1-.38-1.84,4.12,4.12,0,0,1,1.78-3.7,8,8,0,0,1,4.49-1.17,9.6,9.6,0,0,1,4.72,1.06v-.78h4.79v4.4h-4.44a5.5,5.5,0,0,0-3.93-1.58q-1.8,0-1.8,1c0,.3.18.5.53.59s1.3.32,3,.67a34.37,34.37,0,0,1,4.52,1.22,5.67,5.67,0,0,1,2.42,1.61,3.84,3.84,0,0,1,.8,2.45,4.29,4.29,0,0,1-2,3.88A8.73,8.73,0,0,1,968,557.7a10.25,10.25,0,0,1-4.8-1Z"/><path class="cls-6" d="M997.64,551.89v4.66a7.67,7.67,0,0,1-2.22.9,11.5,11.5,0,0,1-2.94.41,7.22,7.22,0,0,1-3-.58,4.46,4.46,0,0,1-2-1.59,5.49,5.49,0,0,1-.53-1.06,4.55,4.55,0,0,1-.25-1.07c-.07-.68-.11-2-.11-4V547h-1.94v-4.76h1.94v-2.33l7.86-3.74v6.07h3.17V547h-3.17V550a4.7,4.7,0,0,0,.26,1.92,1.1,1.1,0,0,0,1.07.49A4.73,4.73,0,0,0,997.64,551.89Z"/><path class="cls-6" d="M1010.69,557.42H1000v-4.76h1.57V547H1000v-4.76h9.43v10.39h1.31ZM1000.86,538a2.25,2.25,0,0,1,1.26-2,6,6,0,0,1,3.1-.75,5.39,5.39,0,0,1,3,.78,2.32,2.32,0,0,1,1.14,1.94,2.2,2.2,0,0,1-1.19,1.95,5.71,5.71,0,0,1-3,.74,6.55,6.55,0,0,1-3.1-.67A2.14,2.14,0,0,1,1000.86,538Z"/><path class="cls-6" d="M1025.09,557.42h-11.87v-4.76h1.87V547h-1.9v-4.76H1023v2.07a10.33,10.33,0,0,1,3-1.65,9.58,9.58,0,0,1,3.47-.7c2.57,0,4.3,1,5.17,3a11,11,0,0,1,7.11-3,5.88,5.88,0,0,1,3.27.84,4.57,4.57,0,0,1,1.84,2.28,12.12,12.12,0,0,1,.55,4.13v3.42h2v4.76h-9.86v-6.51a7.57,7.57,0,0,0-.39-3.17,1.52,1.52,0,0,0-1.41-.63,4.31,4.31,0,0,0-2.58,1v4.58h2.14v4.76h-10v-6.48a8.75,8.75,0,0,0-.34-3.17,1.42,1.42,0,0,0-1.39-.66,4.31,4.31,0,0,0-2.53,1v4.58h2.12Z"/><path class="cls-6" d="M1064.25,552.63l6.48.79a5.85,5.85,0,0,1-1.21,1.82,7.49,7.49,0,0,1-1.91,1.4,11.33,11.33,0,0,1-5.42,1.22q-5.3,0-8-2.2a7.06,7.06,0,0,1-2.67-5.74,7.37,7.37,0,0,1,2.64-5.78,10.3,10.3,0,0,1,7.08-2.31,10.79,10.79,0,0,1,7,2.19c1.77,1.44,2.71,3.65,2.82,6.61h-11.93c0,2.45.94,3.68,2.75,3.68A2.43,2.43,0,0,0,1064.25,552.63Zm-5-4h4.42c0-.32,0-.49,0-.53a3.29,3.29,0,0,0-.62-2,2,2,0,0,0-1.66-.8,1.79,1.79,0,0,0-1.62.88,4,4,0,0,0-.57,2.18A3,3,0,0,0,1059.25,548.66Z"/><path class="cls-6" d="M1091.19,557.42h-9.85v-4.76h2V540.45h-2v-4.76h9.88v7.55a8.92,8.92,0,0,1,4.86-1.25,8.74,8.74,0,0,1,6,2.06,7.06,7.06,0,0,1,2.36,5.61,8.48,8.48,0,0,1-.58,3.17,7.89,7.89,0,0,1-7.39,4.87,10.08,10.08,0,0,1-5.22-1.29Zm-.07-7.64q0,3.42,2.72,3.42c1.72,0,2.58-1.13,2.58-3.4a3.79,3.79,0,0,0-.72-2.49,2.4,2.4,0,0,0-1.92-.84,2.33,2.33,0,0,0-2,.92A4,4,0,0,0,1091.12,549.78Z"/><path class="cls-6" d="M1119.94,552.63l6.48.79a5.88,5.88,0,0,1-1.22,1.82,7.26,7.26,0,0,1-1.9,1.4,11.33,11.33,0,0,1-5.42,1.22c-3.54,0-6.19-.73-8-2.2a7,7,0,0,1-2.68-5.74,7.35,7.35,0,0,1,2.65-5.78,10.26,10.26,0,0,1,7.07-2.31,10.75,10.75,0,0,1,7,2.19c1.77,1.44,2.72,3.65,2.83,6.61h-11.94c0,2.45,1,3.68,2.75,3.68A2.43,2.43,0,0,0,1119.94,552.63Zm-5-4h4.42c0-.32,0-.49,0-.53a3.29,3.29,0,0,0-.62-2,2,2,0,0,0-1.66-.8,1.82,1.82,0,0,0-1.63.88,4,4,0,0,0-.56,2.18A3,3,0,0,0,1114.94,548.66Z"/><path class="cls-6" d="M1151.25,551.2l5.86,1.32a6.53,6.53,0,0,1-3.16,3.93,14,14,0,0,1-13.59-.75,7,7,0,0,1-2.75-5.78,7.25,7.25,0,0,1,2.56-5.72,9.42,9.42,0,0,1,6.39-2.21,8.41,8.41,0,0,1,5,1.29v-1h4.8v6.47h-4.8c-.6-1.73-1.6-2.6-3-2.6a2.55,2.55,0,0,0-2.22,1.11,4.78,4.78,0,0,0-.78,2.77,4.2,4.2,0,0,0,.85,2.78,2.63,2.63,0,0,0,2.15,1C1150,553.81,1150.92,552.94,1151.25,551.2Z"/><path class="cls-6" d="M1165.62,546.5l-6.15-.62a5.88,5.88,0,0,1,3.28-3.14,18.26,18.26,0,0,1,6.59-.91c1.08,0,2,0,2.89.1a18.63,18.63,0,0,1,2.27.31,7,7,0,0,1,3.08,1.2,4.64,4.64,0,0,1,1.39,1.78,8.58,8.58,0,0,1,.41,3.06v4.38h1.93v4.76h-9.79v-1a9.89,9.89,0,0,1-5.44,1.31,7.18,7.18,0,0,1-4.83-1.4,4.28,4.28,0,0,1-1.64-3.33,4.05,4.05,0,0,1,2-3.48,9.12,9.12,0,0,1,5.22-1.36,11.84,11.84,0,0,1,4.68.76v-.45a6.31,6.31,0,0,0-.21-2,2,2,0,0,0-1-1,3.86,3.86,0,0,0-1.81-.4A3.34,3.34,0,0,0,1165.62,546.5Zm5.9,7v-2.77a4.69,4.69,0,0,0-2.22-.56,2.33,2.33,0,0,0-1.64.56,1.94,1.94,0,0,0-.61,1.47,1.92,1.92,0,0,0,.62,1.5,2.09,2.09,0,0,0,1.47.59A3.49,3.49,0,0,0,1171.52,553.55Z"/><path class="cls-6" d="M1195.45,557.42h-12.22v-4.76h2.07V547h-2.07v-4.76h9.41v3.79a6.34,6.34,0,0,1,1.64-2.45,5.28,5.28,0,0,1,2.16-1.33,11.93,11.93,0,0,1,3.08-.29v6.67l-.66,0a9.73,9.73,0,0,0-3.58.49,3.16,3.16,0,0,0-1.66,1.31,4.82,4.82,0,0,0-.46,2.22h2.29Z"/><path class="cls-6" d="M1213.64,552.63l6.48.79a5.85,5.85,0,0,1-1.21,1.82,7.49,7.49,0,0,1-1.91,1.4,11.33,11.33,0,0,1-5.42,1.22q-5.3,0-8-2.2a7.06,7.06,0,0,1-2.67-5.74,7.37,7.37,0,0,1,2.64-5.78,10.3,10.3,0,0,1,7.08-2.31,10.79,10.79,0,0,1,7,2.19c1.77,1.44,2.71,3.65,2.82,6.61h-11.93c0,2.45.94,3.68,2.75,3.68A2.43,2.43,0,0,0,1213.64,552.63Zm-5-4h4.42c0-.32,0-.49,0-.53a3.29,3.29,0,0,0-.62-2,2,2,0,0,0-1.66-.8,1.79,1.79,0,0,0-1.62.88,4,4,0,0,0-.57,2.18A3,3,0,0,0,1208.64,548.66Z"/><path class="cls-6" d="M1235.3,557.42H1223v-4.76H1225V547H1223v-4.76H1225v-.36a6.47,6.47,0,0,1,1-3.82,6.25,6.25,0,0,1,2.65-2.12,14.63,14.63,0,0,1,5.41-.72q1.7,0,3.33.06v4.24c-.74-.07-1.39-.11-1.95-.11a4,4,0,0,0-1.68.28,1.47,1.47,0,0,0-.79.8,4.85,4.85,0,0,0-.21,1.75h2.91V547h-2.91v5.63h2.57Z"/><path class="cls-6" d="M1239.11,547h-1.83v-4.76H1247v7.22a5.82,5.82,0,0,0,.34,2.45,1.43,1.43,0,0,0,1.41.64,4.61,4.61,0,0,0,2.44-.7V547h-2.08v-4.76H1259v10.39h1.82v4.76h-9.68V555.5a10.91,10.91,0,0,1-6.36,2.2,5.79,5.79,0,0,1-4-1.48q-1.69-1.49-1.69-5.59Z"/><path class="cls-6" d="M1273.81,557.42H1263v-4.76h1.61V540.45H1263v-4.76h9.47v17h1.39Z"/><path class="cls-6" d="M1286.8,557.42h-10.86v-4.76h1.61V540.45h-1.61v-4.76h9.47v17h1.39Z"/><path class="cls-6" d="M439.1,328.72,378.76,339l-4.4-25.73,9.27-1.59-9.57-56-12.36,2.11L365,277.37l-20.17,3.45-7.74-45.28,106.54-18.21,7.74,45.27-20.16,3.45-3.34-19.55-12.29,2.1,9.58,56,9.5-1.63Z"/><path class="cls-6" d="M531.81,312.87l-56.55,9.67-4.4-25.73,8.11-1.39-9.57-56-8.27,1.41-4.4-25.72,56.71-9.7,4.4,25.73L511,232.3l2.8,16.38,24.88-4.25-2.8-16.38-7,1.19-4.4-25.73,56.63-9.68,4.4,25.73-8.11,1.38L587,277l8.11-1.39,4.4,25.73L542.86,311l-4.4-25.73,7-1.19-3-17.61-24.87,4.25,3,17.62,6.88-1.18Z"/><path class="cls-6" d="M651,292.5l-42.57,7.28L604,274.05l8.19-1.4,10.59-59.46-8.66,1.48-4.39-25.73L687,175.73l4.39,25.73-8.65,1.48,30.13,52.5,7.88-1.35,4.4,25.73L669,289.41l-4-23.56,9.42-1.61L668,251.41l-27.51,4.71-2.4,14.32,8.81-1.5Zm-3.59-81.92-5,31.47,19.24-3.29Z"/><path class="cls-6" d="M808.56,265.56l-60.34,10.31-4.4-25.73,9.27-1.58-9.57-56-12.37,2.11,3.35,19.55-20.17,3.44-7.74-45.27,106.54-18.22,7.74,45.28-20.16,3.45-3.34-19.55-12.29,2.1,9.58,56,9.5-1.62Z"/><path class="cls-6" d="M869,255.23l-24.19,4.13L838.9,224.9l24.19-4.13q6.72,13.32,18.7,11.27,8.65-1.47,7.47-8.43a7.52,7.52,0,0,0-4-5.51q-3.69-2.07-14.91-4.93-14.16-3.69-21.08-7a33.82,33.82,0,0,1-11.75-9.2,29.65,29.65,0,0,1-6.69-14.52q-2.56-15,5.73-25.08t22.35-12.49q14.14-2.41,25.33,3.94l-1.14-6.64,24.34-4.16,5.23,30.59-24,4.11q-6.57-11.91-17.77-10-7.87,1.35-6.73,8.07a5.68,5.68,0,0,0,3.07,4.48q2.46,1.33,15.27,5.11,17.18,5.16,23.13,7.89a28.54,28.54,0,0,1,6.38,4,37,37,0,0,1,5.8,5.8,33.34,33.34,0,0,1,7,15.66,30.47,30.47,0,0,1-6.13,24.58q-8.42,11.22-23.72,13.84a43.18,43.18,0,0,1-27.17-4Z"/><path class="cls-6" d="M1060.29,173.77l29.57,5a50,50,0,0,1-11.48,31q-11,13.26-33.65,17.13-30.92,5.28-48.5-8.33t-21.62-36.7q-4-23.33,7.82-42.13T1017.58,117q18.93-3.23,32.42,4.08l-1.22-7.18,25.8-4.42,6.71,39.25-26.81,4.59a23.51,23.51,0,0,0-9-10.39,17.25,17.25,0,0,0-12-2.25q-17.46,3-12.33,33t23.23,27Q1060.22,198,1060.29,173.77Z"/><path class="cls-6" d="M1168.28,204.05l-58.41,10-4.39-25.73,8.73-1.49-9.58-56-8.73,1.49-4.4-25.73,58.41-10q7.88-1.33,14.65-2.22c4.51-.59,8.39-1,11.64-1.2a87.21,87.21,0,0,1,9-.15,33,33,0,0,1,20.09,7.3,28.86,28.86,0,0,1,10.41,18.1,28,28,0,0,1-1.73,15.88,26.32,26.32,0,0,1-9.67,11.83l19,22,7.73-1.33,4.4,25.73-38.71,6.62-30.91-39.88-13.21,2.26,3.1,18.15,8.11-1.38Zm-22.45-82.51,3.5,20.47,4.63-.79a91.94,91.94,0,0,0,12.27-2.66,10,10,0,0,0,5.34-4.09,9,9,0,0,0,1.28-7,9.28,9.28,0,0,0-3.54-6.23,10.22,10.22,0,0,0-6.63-2.05,103.65,103.65,0,0,0-13.07,1.68Z"/><path class="cls-6" d="M1233.81,108.72l-8.27,1.41-4.4-25.72,55-9.41,4.4,25.73-5.1.87,6.2,36.24q2.22,13,5.49,17.27t9.68,3.11c3.55-.61,5.91-2.36,7-5.26s1.06-8.26-.31-16.25l-6.63-38.78-5.41.92-4.4-25.72,40.41-6.91,4.4,25.72-8.5,1.46,6.66,38.94q2.55,14.91-.16,25.15a31.8,31.8,0,0,1-11.84,17.21q-9.13,7.05-23.81,9.56a70.86,70.86,0,0,1-21.43.72q-9.75-1.18-16.13-6a35,35,0,0,1-10.3-12.31q-4-7.35-6.72-23.5Z"/><path class="cls-6" d="M1459.94,154.19l-102.52,17.53L1353,146l8.34-1.43-9.58-56L1343.29,90l-4.4-25.72,102.68-17.56,5.87,34.38-28.2,4.82-1.48-8.65-24.41,4.17L1396.18,98l21.24-3.64,3.74,21.87-21.24,3.63,3,17.62,24.41-4.18-1.48-8.65,28.2-4.82Z"/><path class="cls-6" d="M1576.83,134.2l-102.29,17.49-4.4-25.72,9.66-1.66-9.58-56L1460.57,70l-4.4-25.73,61.42-10.5,4.4,25.73-10.2,1.74,9.58,56,25.42-4.35-3-17.23,25.65-4.38Z"/><path id="tlo" class="cls-7" d="M219.6,134.37c-1.16.35-20.12,5.39-22.4,6.63,0,0,1-38.15,22.4-64.06,0,0-47.49-4.15-58.47,62.61,0,0-22.81,20.11-59.72,10.37,0,0,11.82,14.72,21.56,17.83,0,0,4.67,21.77,38.16,21.25,0,0-11,3.42-13.48,3.42h-9s.62,3.63-.62,5,.41,4.77.41,4.77a5.52,5.52,0,0,1,1.76,3.94,2.76,2.76,0,0,0,2.08,2.8s2.69,1.66,1.34,2.8,12-1.56,18.87-15.86l2.8-5.19s28.25,2.54,46.76-25.14c0,0,7.93-7.46,14.46-9.64,0,0,27.52,5.75,37.17-6.06L298.8,149s-3.73-15.94-34.21-18.89c0,0-2.33-11.51-16-11.51s-21.15,11.66-21.15,11.66A25.69,25.69,0,0,1,219.6,134.37Z"/><path class="cls-8" d="M155,172.13s14.94-68.58,51-91c0,0-24.73,5.43-33.33,27.78-4.87,11.39-9.11,22-11.57,30.61C157.5,145.8,156.54,158.79,155,172.13Z"/><path d="M155,172.13c-21.61.4-56.24-19.11-53.6-22.21,36.91,9.75,59.72-10.37,59.72-10.37Z"/><path class="cls-9" d="M161.13,189s-11,3.42-13.48,3.42h-9s.62,3.63-.62,5,.41,4.77.41,4.77a5.52,5.52,0,0,1,1.76,3.94,2.76,2.76,0,0,0,2.08,2.8s2.69,1.66,1.34,2.8,12-1.56,18.87-15.86l2.8-5.19"/><path class="cls-10" d="M264.59,130.07s-2.33-11.51-16-11.51-21.15,11.66-21.15,11.66a25.69,25.69,0,0,1-7.82,4.15l6.89,21.51s27.52,5.75,37.17-6.06l.93-19.75s-2.33-11.51-16-11.51-21.15,11.66-21.15,11.66"/><path class="cls-9" d="M263.66,149.82,298.8,149s-3.73-15.94-34.21-18.89"/><path d="M197.2,141s1-38.15,22.4-64.06c0,0-47.42-4.28-58.47,62.61,4.62-13,18.31-54.77,45-56C192.47,103.6,193.05,122.45,197.2,141Z"/><path d="M221.58,158.24c-.87.52-1.72,1.08-2.54,1.65a69.4,69.4,0,0,0-7,5.63c-7.7-10.18-9.57-14.69-14.83-24.52a105.49,105.49,0,0,1,10.92-3.45"/><path class="cls-7" d="M238.62,133.53c0,6.67,4.56,12.09,10.18,12.09,13.51-.62,13.51-23.57,0-24.18C243.18,121.44,238.62,126.85,238.62,133.53Z"/><ellipse cx="253.1" cy="128.72" rx="2.74" ry="3.92"/><path class="cls-11" d="M146.66,195.74c-.15,0-8.35,1.21-8.35,1.21l-.76,2Z"/><path class="cls-11" d="M147.65,198.9l-8.59,4a4.94,4.94,0,0,1,.88,1.61C140.14,205.29,147.65,198.9,147.65,198.9Z"/><path class="cls-11" d="M141.19,208.06s1,.48,1.16.79,9.28-7,9.28-7Z"/><path class="cls-12" d="M291.12,139c-6.48-5.12-16.33-7.89-26.53-8.88l-.13,2.69A58,58,0,0,1,291.12,139Z"/><path class="cls-11" d="M264.11,140.29l-.45,9.53L298.6,149C286.43,143.59,268.47,140.89,264.11,140.29Z"/><path class="cls-13" d="M201.76,177.33c-14.84,5.67-43.75,14.53-58.41,4.32-20-17.52-22.52-16.93-27.18-17.51a26.46,26.46,0,0,0,6.8,3.61s4.67,21.77,38.16,21.25l4.14,1.66A52.73,52.73,0,0,0,201.76,177.33Z"/><path class="cls-14" d="M220.25,136.41l9-4.13a29.14,29.14,0,0,1,28.26-11.59,17.81,17.81,0,0,0-8.9-2.13c-13.68,0-21.15,11.66-21.15,11.66a25.69,25.69,0,0,1-7.82,4.15Z"/><path class="cls-15" d="M225.36,152.35l1.13,3.53s27.52,5.75,37.17-6.06l0-.51C249,156.93,227,152.67,225.36,152.35Z"/><path class="cls-11" d="M165.27,190.66l-1.05-.39c-6.49,12.81-16.63,17.2-21.86,18.74.54.36,2.34,1.66,1.23,2.7s12.4-1.91,18.91-15.92Z"/><path id="tlo-2" data-name="tlo" class="cls-7" d="M318.16,437.19c-1.16.35-20.11,5.39-22.39,6.63,0,0,1-38.15,22.39-64.06,0,0-47.48-4.15-58.47,62.61,0,0-22.81,20.12-59.72,10.37,0,0,11.82,14.72,21.57,17.83,0,0,4.66,21.77,38.15,21.25,0,0-11,3.43-13.48,3.43h-9s.62,3.62-.62,5S237,505,237,505a5.55,5.55,0,0,1,1.77,3.94,2.75,2.75,0,0,0,2.07,2.8s2.7,1.66,1.35,2.8,12-1.56,18.87-15.86l2.8-5.19s28.25,2.54,46.75-25.14c0,0,7.93-7.46,14.46-9.64,0,0,27.53,5.76,37.17-6.06l35.14-.86s-3.73-15.94-34.21-18.89c0,0-2.33-11.51-16-11.51S326,433,326,433A25.67,25.67,0,0,1,318.16,437.19Z"/><path class="cls-8" d="M253.57,475s14.95-68.58,51-91c0,0-24.72,5.43-33.33,27.78-4.87,11.39-9.11,22-11.57,30.61C256.06,448.63,255.1,461.61,253.57,475Z"/><path d="M253.57,475c-21.61.4-56.24-19.11-53.6-22.21,36.91,9.75,59.72-10.37,59.72-10.37Z"/><path class="cls-9" d="M259.69,491.82s-11,3.43-13.48,3.43h-9s.62,3.62-.62,5S237,505,237,505a5.55,5.55,0,0,1,1.77,3.94,2.75,2.75,0,0,0,2.07,2.8s2.7,1.66,1.35,2.8,12-1.56,18.87-15.86l2.8-5.19"/><path class="cls-10" d="M363.15,432.89s-2.33-11.51-16-11.51S326,433,326,433a25.67,25.67,0,0,1-7.83,4.15l6.89,21.51s27.53,5.76,37.17-6.06l.93-19.75s-2.33-11.51-16-11.51S326,433,326,433"/><path class="cls-9" d="M362.22,452.64l35.14-.86s-3.73-15.94-34.21-18.89"/><path d="M295.77,443.82s1-38.15,22.39-64.06c0,0-47.42-4.28-58.47,62.61,4.63-13,18.31-54.76,45-56C291,406.42,291.62,425.27,295.77,443.82Z"/><path d="M320.14,461.06c-.86.52-1.72,1.08-2.53,1.65a68.88,68.88,0,0,0-7,5.63c-7.7-10.18-9.56-14.69-14.82-24.52a105,105,0,0,1,10.91-3.45"/><path class="cls-7" d="M337.18,436.35c0,6.67,4.56,12.09,10.19,12.09,13.51-.62,13.5-23.57,0-24.18C341.74,424.26,337.18,429.67,337.18,436.35Z"/><ellipse cx="351.67" cy="431.54" rx="2.74" ry="3.92"/><path class="cls-11" d="M245.23,498.56c-.16.05-8.36,1.21-8.36,1.21l-.76,2Z"/><path class="cls-11" d="M246.21,501.73l-8.59,4a4.75,4.75,0,0,1,.88,1.61C238.7,508.11,246.21,501.73,246.21,501.73Z"/><path class="cls-11" d="M239.76,510.88s1,.48,1.16.79,9.28-7,9.28-7Z"/><path class="cls-12" d="M389.68,441.77c-6.47-5.12-16.32-7.89-26.53-8.88l-.12,2.69A57.93,57.93,0,0,1,389.68,441.77Z"/><path class="cls-11" d="M362.67,443.12l-.45,9.52,34.94-.85C385,446.41,367,443.71,362.67,443.12Z"/><path class="cls-13" d="M300.32,480.15c-14.83,5.67-43.75,14.53-58.4,4.32-20-17.52-22.53-16.93-27.19-17.51a26.35,26.35,0,0,0,6.81,3.61s4.66,21.77,38.15,21.25l4.15,1.66A52.7,52.7,0,0,0,300.32,480.15Z"/><path class="cls-14" d="M318.81,439.23l9-4.13A29.15,29.15,0,0,1,356,423.51a17.74,17.74,0,0,0-8.89-2.13C333.45,421.38,326,433,326,433a25.67,25.67,0,0,1-7.83,4.15Z"/><path class="cls-15" d="M323.92,455.17l1.13,3.53s27.53,5.76,37.17-6.06l0-.51C347.58,459.75,325.54,455.49,323.92,455.17Z"/><path class="cls-11" d="M263.84,493.48l-1.06-.39c-6.49,12.81-16.62,17.2-21.85,18.74.53.36,2.34,1.67,1.22,2.7s12.4-1.91,18.91-15.92Z"/><path id="tlo-3" data-name="tlo" class="cls-7" d="M1687.18,110.2c-1.16.36-20.11,5.39-22.39,6.64,0,0,1-38.15,22.39-64.07,0,0-47.48-4.15-58.47,62.62,0,0-22.81,20.11-59.72,10.36,0,0,11.82,14.72,21.57,17.83,0,0,4.66,21.78,38.15,21.26,0,0-11,3.42-13.48,3.42h-9s.62,3.63-.62,5,.41,4.77.41,4.77a5.55,5.55,0,0,1,1.77,3.94,2.75,2.75,0,0,0,2.07,2.8s2.69,1.66,1.35,2.8,12-1.55,18.87-15.86l2.79-5.18s28.25,2.54,46.76-25.14c0,0,7.93-7.47,14.46-9.65,0,0,27.53,5.76,37.17-6.06l35.14-.86s-3.73-15.94-34.21-18.89c0,0-2.33-11.51-16-11.51S1695,106.06,1695,106.06A25.76,25.76,0,0,1,1687.18,110.2Z"/><path class="cls-8" d="M1622.59,148s14.94-68.59,51-91c0,0-24.72,5.43-33.33,27.79-4.87,11.38-9.11,22-11.57,30.61C1625.08,121.64,1624.12,134.62,1622.59,148Z"/><path d="M1622.59,148c-21.61.4-56.24-19.12-53.6-22.22,36.91,9.75,59.72-10.36,59.72-10.36Z"/><path class="cls-9" d="M1628.71,164.84s-11,3.42-13.48,3.42h-9s.62,3.63-.62,5,.41,4.77.41,4.77a5.55,5.55,0,0,1,1.77,3.94,2.75,2.75,0,0,0,2.07,2.8s2.69,1.66,1.35,2.8,12-1.55,18.87-15.86l2.79-5.18"/><path class="cls-10" d="M1732.17,105.9s-2.33-11.51-16-11.51S1695,106.06,1695,106.06a25.76,25.76,0,0,1-7.83,4.14l6.89,21.51s27.53,5.76,37.17-6.06l.93-19.75s-2.33-11.51-16-11.51S1695,106.06,1695,106.06"/><path class="cls-9" d="M1731.24,125.65l35.14-.86s-3.73-15.94-34.21-18.89"/><path d="M1664.78,116.84s1-38.15,22.4-64.07c0,0-47.42-4.28-58.47,62.62,4.63-13,18.31-54.77,45-56C1660.05,79.43,1660.64,98.28,1664.78,116.84Z"/><path d="M1689.16,134.08c-.87.52-1.72,1.08-2.53,1.64a68.15,68.15,0,0,0-7,5.64c-7.7-10.19-9.56-14.7-14.83-24.52a104.67,104.67,0,0,1,10.92-3.46"/><path class="cls-7" d="M1706.2,109.36c0,6.68,4.56,12.09,10.19,12.09,13.5-.62,13.5-23.56,0-24.18C1710.76,97.27,1706.2,102.68,1706.2,109.36Z"/><ellipse cx="1720.69" cy="104.55" rx="2.74" ry="3.92"/><path class="cls-11" d="M1614.25,171.58c-.16,0-8.36,1.21-8.36,1.21l-.76,2Z"/><path class="cls-11" d="M1615.23,174.74l-8.59,4a4.65,4.65,0,0,1,.88,1.6C1607.72,181.12,1615.23,174.74,1615.23,174.74Z"/><path class="cls-11" d="M1608.78,183.89s1,.48,1.15.79,9.29-7,9.29-7Z"/><path class="cls-12" d="M1758.7,114.78c-6.47-5.12-16.32-7.89-26.53-8.88l-.13,2.69A58,58,0,0,1,1758.7,114.78Z"/><path class="cls-11" d="M1731.69,116.13l-.45,9.52,34.94-.85C1754,119.42,1736.05,116.73,1731.69,116.13Z"/><path class="cls-13" d="M1669.34,153.17c-14.83,5.66-43.75,14.52-58.4,4.31-20-17.51-22.53-16.93-27.19-17.51a25.75,25.75,0,0,0,6.81,3.61s4.66,21.78,38.15,21.26l4.14,1.66A52.79,52.79,0,0,0,1669.34,153.17Z"/><path class="cls-14" d="M1687.83,112.24l9-4.13a29.12,29.12,0,0,1,28.26-11.58,17.68,17.68,0,0,0-8.9-2.14c-13.68,0-21.14,11.67-21.14,11.67a25.76,25.76,0,0,1-7.83,4.14Z"/><path class="cls-15" d="M1692.94,128.18l1.13,3.53s27.53,5.76,37.17-6.06l0-.51C1716.6,132.76,1694.56,128.51,1692.94,128.18Z"/><path class="cls-11" d="M1632.85,166.5l-1-.4c-6.49,12.81-16.62,17.2-21.85,18.75.53.35,2.33,1.66,1.22,2.69s12.4-1.91,18.91-15.91Z"/><path class="cls-16" d="M1359.81,256.08s-6.78,3.45-8.4,3.72l-5.87,1s.81,2.3.15,3.31.79,3.06.79,3.06a3.7,3.7,0,0,1,1.59,2.37,1.8,1.8,0,0,0,1.66,1.59s1.94.79,1.19,1.68,7.66-2.35,10.52-12.42l1.25-3.69"/><path class="cls-7" d="M1360.66,208l5.49,18.26a76.31,76.31,0,0,0,19.8,40s-12.28-2.16-17.18-6.82c-12.72,5-48.47-9.81-27-52.26,0,0,1.8-7,1-11.44l15.45.86c.17.78,2.47,9.65,2.48,11.36"/><path d="M1386,266.3c-15.2-21.81-17.5-42-25.46-58.92l-12.06.34C1339.56,235.11,1370.37,261.4,1386,266.3Z"/><path class="cls-9" d="M1343,192.92l-23.34,4.72s.06-11.09,19.75-17.62"/><path class="cls-10" d="M1360,192.25a15.21,15.21,0,0,0-1.73,5.27l-15.35-.8s-7.57-15.42-1-22.93c4.79-6.12,21.59-6.72,23,4.16,1.06,8.25-5,14.3-5,14.3"/><path d="M1342.93,199.37c0,.67-.08,1.34-.15,2a46,46,0,0,1-1,5.86c8.34,1.21,11.55.86,18.91.78a73.13,73.13,0,0,0-1.47-7.41"/><path class="cls-7" d="M1349.82,172.52c4.52-.08,8.24,2.95,8.31,6.76-.27,9.15-15.81,9.42-16.38.28C1341.68,175.75,1345.3,172.6,1349.82,172.52Z"/><ellipse cx="1346.34" cy="178.19" rx="2.62" ry="1.8" transform="translate(1061.68 1506.11) rotate(-85.44)"/><path class="cls-11" d="M1351.18,262c-.09.05-5.33,1.64-5.33,1.64l-.3,1.35Z"/><path class="cls-18" d="M1340,210.94c-16.58,37.37,12.79,51.76,26.51,49.18C1333.64,257,1337.74,222.28,1340,210.94Z"/><path class="cls-11" d="M1352.13,264l-5.15,3.55a3.11,3.11,0,0,1,.75.94C1348,269,1352.13,264,1352.13,264Z"/><path class="cls-11" d="M1348.94,270.7s.72.2.84.39,5.28-5.57,5.28-5.57Z"/><path class="cls-9" d="M1364.23,258s-6,4.66-7.54,5.24l-5.58,2.09s1.23,2.1.77,3.22,1.36,2.86,1.36,2.86a3.63,3.63,0,0,1,2,2,1.82,1.82,0,0,0,1.94,1.25s2,.41,1.48,1.42,7.07-3.75,8-14.18l.53-3.86"/><path class="cls-11" d="M1356.88,265.54c-.09.07-4.93,2.61-4.93,2.61l0,1.39Z"/><path class="cls-11" d="M1358.19,267.28l-4.39,4.45a3.19,3.19,0,0,1,.91.79C1355,273,1358.19,267.28,1358.19,267.28Z"/><path class="cls-11" d="M1356.32,274.44a2.4,2.4,0,0,1,.9.22c.16.16,4.13-6.47,4.13-6.47Z"/><path class="cls-14" d="M1357,197.45l1.32-6s7.55-7.68,3.1-19.6a8.35,8.35,0,0,1,3.37,5c1.94,8.83-4.77,15.45-4.77,15.45a12.29,12.29,0,0,0-1.73,5.27Z"/><path class="cls-12" d="M1323.56,189.5c4.19-4.6,9.34-7.2,15.78-9.48l-.09,1.75A41.17,41.17,0,0,0,1323.56,189.5Z"/><path class="cls-11" d="M1339.78,187.21a42.09,42.09,0,0,0,1.7,6l-21.8,4.38C1326.77,192.46,1337.05,188.21,1339.78,187.21Z"/><path class="cls-15" d="M1339.46,179.47c-1.22,7.73,3.46,17.25,3.46,17.25l3,.16C1341.09,194.33,1339.8,184.76,1339.46,179.47Z"/><path class="cls-11" d="M1367.18,258.09h-.67a23.76,23.76,0,0,1-9.22,16.66c.41.1,1.86.52,1.37,1.39s7.07-3.75,8-14.18Z"/><path class="cls-16" d="M1359.45,255.25s-6.78,3.45-8.4,3.72l-5.87,1s.8,2.3.14,3.31.8,3.06.8,3.06a3.66,3.66,0,0,1,1.59,2.37,1.8,1.8,0,0,0,1.66,1.59s1.94.78,1.19,1.68,7.65-2.35,10.52-12.42l1.25-3.69"/><path class="cls-7" d="M1360.3,207.17l5.49,18.26a76.31,76.31,0,0,0,19.8,40s-12.28-2.17-17.18-6.82c-12.73,5-48.47-9.81-27-52.27,0,0,1.8-7,1-11.43l15.45.85c.17.79,2.47,9.66,2.48,11.37"/><path d="M1385.59,265.47c-15.2-21.81-17.5-42-25.46-58.93l-12.06.35C1339.2,234.28,1370,260.57,1385.59,265.47Z"/><path class="cls-9" d="M1342.66,192.09l-23.34,4.72s.06-11.09,19.75-17.62"/><path class="cls-10" d="M1359.64,191.42a15.21,15.21,0,0,0-1.73,5.27l-15.35-.8s-7.57-15.42-1-22.93c4.79-6.13,21.59-6.72,23,4.15,1.06,8.26-5,14.31-5,14.31"/><path d="M1342.57,198.54c0,.67-.08,1.34-.15,2a45.58,45.58,0,0,1-1,5.85c8.34,1.22,11.55.87,18.91.79a71.8,71.8,0,0,0-1.48-7.42"/><path class="cls-7" d="M1349.46,171.69c4.52-.08,8.24,2.95,8.31,6.76-.27,9.15-15.81,9.42-16.38.28C1341.32,174.92,1344.94,171.77,1349.46,171.69Z"/><ellipse cx="1345.98" cy="177.36" rx="2.62" ry="1.8" transform="translate(1062.18 1504.98) rotate(-85.44)"/><path class="cls-11" d="M1350.82,261.16c-.1,0-5.33,1.64-5.33,1.64l-.3,1.35Z"/><path class="cls-18" d="M1339.62,210.11c-16.58,37.37,12.78,51.76,26.51,49.18C1333.28,256.15,1337.38,221.45,1339.62,210.11Z"/><path class="cls-11" d="M1351.77,263.19l-5.15,3.55a3.11,3.11,0,0,1,.75.94C1347.59,268.18,1351.77,263.19,1351.77,263.19Z"/><path class="cls-11" d="M1348.58,269.87a2.52,2.52,0,0,1,.84.38c.13.19,5.27-5.56,5.27-5.56Z"/><path class="cls-9" d="M1363.87,257.2s-6,4.66-7.54,5.24l-5.58,2.09s1.22,2.1.77,3.22,1.36,2.85,1.36,2.85a3.67,3.67,0,0,1,2,2,1.81,1.81,0,0,0,1.93,1.25s2.06.4,1.49,1.42,7.07-3.75,8-14.18l.53-3.86"/><path class="cls-11" d="M1356.51,264.71c-.08.07-4.92,2.61-4.92,2.61l0,1.38Z"/><path class="cls-11" d="M1357.83,266.45l-4.39,4.45a3,3,0,0,1,.91.79C1354.66,272.14,1357.83,266.45,1357.83,266.45Z"/><path class="cls-11" d="M1356,273.6a2.61,2.61,0,0,1,.9.22c.16.16,4.12-6.46,4.12-6.46Z"/><path class="cls-14" d="M1356.62,196.62l1.32-6s7.55-7.68,3.1-19.6a8.32,8.32,0,0,1,3.37,5c1.94,8.83-4.77,15.45-4.77,15.45a12.14,12.14,0,0,0-1.73,5.27Z"/><path class="cls-12" d="M1323.2,188.67c4.19-4.61,9.34-7.2,15.78-9.48l-.09,1.75A41,41,0,0,0,1323.2,188.67Z"/><path class="cls-11" d="M1339.42,186.38a42.09,42.09,0,0,0,1.7,6.05l-21.8,4.38C1326.4,191.63,1336.69,187.38,1339.42,186.38Z"/><path class="cls-15" d="M1339.1,178.64c-1.22,7.73,3.46,17.25,3.46,17.25l3,.16C1340.73,193.5,1339.44,183.93,1339.1,178.64Z"/><path class="cls-11" d="M1366.82,257.26h-.67a23.73,23.73,0,0,1-9.23,16.66c.42.1,1.87.52,1.38,1.39s7.07-3.75,8-14.18Z"/><path class="cls-7" d="M1529.78,837.46a174.71,174.71,0,0,1,35.93-13l-1.07-11.29-2-7-17.73,3.66c-9.76,2.87-13.7-10.38-3.45-13.47,36.49-16.7,91.66-20.23,161.11-13.69l36.81,6.1c13.9,2.84,10.45,19.69-3.44,16.85l-27.68-6.43s-3.6,15.5-4.62,18.1h0l23.09,2.78c13.66,2.2,9.41,19.39-4.25,17.2l-27.16-5.14c-64.67-11.09-162.74,18.76-162.74,18.76C1522.31,854.68,1519.31,841.38,1529.78,837.46Z"/><path class="cls-19" d="M1618.9,834.38a5.25,5.25,0,0,1-2-3.44c-.49-5.45,10.24-10.88,24-12.13s25.27,2.17,25.76,7.62c.16,1.71-.79,3.41-2.59,5A343.92,343.92,0,0,0,1618.9,834.38Z"/><path class="cls-20" d="M1525.67,850.55c84.63-43,190.44-19.88,206.67-15.94-2.17,2.12-5.55,3.38-9.89,2.68l-27.16-5.14c-64.67-11.09-162.74,18.76-162.74,18.76C1529.61,852,1527.27,851.66,1525.67,850.55Z"/><path class="cls-20" d="M1544.88,809.85c-3.41,1-6.1,0-7.74-1.77a167.11,167.11,0,0,1,27.1-4.37l-5.69,3.32Z"/><path class="cls-20" d="M1735.91,805.64l-25.83-6-3.29-2.74c13.45.31,29.51,4.6,38.18,7.23C1742.87,805.68,1739.8,806.43,1735.91,805.64Z"/><path class="cls-21" d="M1734.47,835.15l.09-.11a10.28,10.28,0,0,0,1.8-10.11c-.79-2.08-3.06-5.73-9.36-6.74l-20.86-2.51c1.08-3.86,2.73-10.75,3.53-14.16l25.8,6a13.52,13.52,0,0,0,9.77-1.25,9.81,9.81,0,0,0,2.94-14.37,13.41,13.41,0,0,0-8.44-5l-37-6.14c-73.48-6.92-126.46-2.41-162,13.81-6.19,1.93-8.16,7.21-6.9,11.45s5.57,7.39,11.51,5.69l17.26-3.44,1.79,14.42a184,184,0,0,0-35.4,13c-6.55,2.5-8.79,8.5-7.16,12.89,1.35,3.63,5.37,6.31,11.32,4.14,2.67-.8,98.9-29.47,161.8-18.68l27.13,5.13C1727.17,840,1731.66,838.53,1734.47,835.15Zm-27.68-38.25-.43,1.87c-1,4.28-3.75,15.81-4.54,17.84l-.91,2.32,25.56,3.08c3.17.51,5.44,2,6.3,4.29a6.47,6.47,0,0,1-1.19,6.31c-1.9,2.37-5.14,3.37-8.82,2.78l-27.12-5.13c-64.4-11-162.66,18.5-163.65,18.8l-.1,0c-3.12,1.15-5.59.44-6.44-1.85-1-2.6.46-6.29,5-8l.2-.09a173.59,173.59,0,0,1,35.53-12.85l1.6-.41-2.53-22.37L1544.34,808c-3.74,1.1-6.12-.75-6.81-3.07s.37-5.47,4.45-6.71l.25-.09c34.39-15.74,88.24-20.29,160.07-13.53l36.74,6.09c5.79,1.19,7.77,5.12,7.12,8.27a6,6,0,0,1-2.88,4,9.79,9.79,0,0,1-7,.8Z"/><path class="cls-7" d="M1564.66,821.46c-9.18,4.24-13.67-11.59-1.64-11.48"/><path class="cls-19" d="M1563.18,810.65c-10,.38-5.71,8.18-5.71,8.18-2-6.6,5.91-6.79,5.91-6.79Z"/><path class="cls-21" d="M1560.16,809.13a11.87,11.87,0,0,1,2.87-.3,1.14,1.14,0,0,1,1.14,1.16,1.15,1.15,0,0,1-1.16,1.14c-3,0-5,1-5.8,2.94a5.4,5.4,0,0,0,1.34,5.72c1.47,1.4,3.47,1.62,5.63.62a1.15,1.15,0,1,1,1,2.09c-3,1.4-6,1-8.19-1a7.69,7.69,0,0,1-1.89-8.25A7,7,0,0,1,1560.16,809.13Z"/><path class="cls-7" d="M1657.89,767.28a21,21,0,0,0-2-4.2c-1.31-2.15-2.78-3.65-6.12-6.53-5.29-4.57-5.35-4-7.59-6.28a43,43,0,0,1-5.79-7.54c-2.75-4.21-4.26-6.52-5.28-10.05-.93-3.24-2.16-7.5-.11-11.79a13.5,13.5,0,0,1,6.38-6.1c6.93-3.76,12.55-1.88,14.77,6.22,1.43,4.53-.14,6,1.09,12.83A22.76,22.76,0,0,0,1655,740c.88,1.91,1.73,2.94,6,7.83,4.5,5.19,5.09,5.8,6.31,7.35a77.68,77.68,0,0,1,5,7"/><path class="cls-22" d="M1667.72,756.83c-4.77-5.05-8.21-8.54-10.88-11.13a18.41,18.41,0,0,1-2.87-3.42,20.48,20.48,0,0,1-2.86-8c-.14-.8-.08-.7-.48-8.3-.16-3.05-.25-4.61-.91-6.07a9.66,9.66,0,0,0-3.57-4.28c-3.06-1.83-7.45-1.22-11.12,1.43l5.27-3.1,4.55-.64,4.43,1.55,2.46,4.66,1,4.69.1,5.09.34,4.19,2.19,7.53,12.35,15.15.32.57Z"/><path class="cls-19" d="M1655.6,760.47c-.14-.24.72-1.1-1.07-3.59a31.17,31.17,0,0,0-4.64-4.33,71.09,71.09,0,0,1-6.5-5.64c-4.58-4.56-6.11-9.83-6.88-11.52-1.2-2.65-2.44-6.53-1.54-10.51,1.52-6.77,10.58-9.79,12.11-10.7l-4.95-1.1-7.77,3.76-3.28,4.55-.71,6,.81,4.06,3.34,7.57,4.89,7.32,4.07,4.47,5.34,4.66L1655,761Z"/><path class="cls-21" d="M1657.62,767.37a20.56,20.56,0,0,0-4.41-6.69c-1.9-1.87-4.09-3.58-6.2-5.31-1.59-1.33-3.39-2.45-4.91-3.9a43.07,43.07,0,0,1-6.55-8.25,55.06,55.06,0,0,1-4.32-7.25,26.27,26.27,0,0,1-1.4-4.05,18.19,18.19,0,0,1-.71-8.67c1.11-5.48,5.46-8.77,10.44-10.64,6.17-2.22,11.06.49,13.19,6.54.1.33.38,1.2.48,1.54a17.25,17.25,0,0,1,.62,6.48,32,32,0,0,0,.71,8,19.68,19.68,0,0,0,1.08,3.79,13.14,13.14,0,0,0,1.93,3.34c1.65,2.12,3.51,4.2,5.26,6.32l2.65,3.18a62.5,62.5,0,0,1,7,10.3l-.45.28q-2.38-3.35-5-6.5c-2.66-3.1-5.58-6.1-8.27-9.21a38.38,38.38,0,0,1-4-5c-1.85-3.16-2.42-6.73-2.89-10.3-.39-2.68.12-5.6-.28-8.19-1.24-6.22-4.45-10.91-11.31-8.48-5.78,2.2-9.93,6.16-9.2,12.77a30.21,30.21,0,0,0,2.06,7.64,52.74,52.74,0,0,0,4.08,7c2.2,3.45,4.46,6.74,7.66,9.26,2.19,1.65,4.35,3.48,6.38,5.35a38.11,38.11,0,0,1,3,3,18.18,18.18,0,0,1,3.9,7.48l-.54.18Z"/><path class="cls-21" d="M1658.87,756a70.08,70.08,0,0,1-20.13-27.13,3.66,3.66,0,1,1,6.75-2.85,69.05,69.05,0,0,0,5.64,15.34,67.46,67.46,0,0,0,9.06,13.29,1,1,0,0,1-1.32,1.35Z"/><path class="cls-7" d="M1688.5,754.17c14,5.28,18,17.47,14.44,29Q1696.58,800,1681.42,807c-15.19,8.27-45.57-14.93-36.39-36.23C1649.39,760.94,1660.94,744.21,1688.5,754.17Z"/><path class="cls-19" d="M1702.7,769.18c-4.74-21.14-41.56-23.15-45.16-11,1.27-.79,30.37-12.52,44.87,11.18"/><path class="cls-22" d="M1701.44,783.42s-14.44,21.11-31,20.43S1644.1,777,1644.1,777s-4.39,19,22.06,29S1701.44,783.42,1701.44,783.42Z"/><path class="cls-21" d="M1652.83,800.63c-7.68-7-14.08-18.67-9-30.41,4.8-10.82,17-27.46,45.14-17.3h0c13.49,5.07,19.48,17.11,15.25,30.68l0,.08c-4.34,11.49-11.81,19.74-22.17,24.5l-.6.3C1673.68,812.2,1662.05,809,1652.83,800.63Zm28,5.14c9.72-4.46,16.72-12.19,20.82-23,3.75-12.09-1.6-22.82-13.65-27.34-26-9.41-37.36,5.9-41.77,15.86-4.51,10.44,1.37,21,8.37,27.37,8.51,7.76,19.5,10.78,26.15,7.16l0,0Z"/><ellipse cx="1688.52" cy="763.21" rx="2.34" ry="2.47" transform="translate(-163.98 806.12) rotate(-25.65)"/><ellipse cx="1684" cy="772.69" rx="2.47" ry="1.72" transform="translate(-20.27 1499.59) rotate(-47.75)"/><ellipse cx="1667.4" cy="781.61" rx="2.81" ry="2.97" transform="translate(-60.05 1419.61) rotate(-45.39)"/><path d="M1685.17,778.09a.29.29,0,0,0,.15-.12,3.54,3.54,0,0,0,.86-3.39,2.61,2.61,0,0,0,.88,0,4,4,0,0,0,2.53-1.79.45.45,0,0,0-.71-.54,3.21,3.21,0,0,1-1.94,1.45,2.14,2.14,0,0,1-1.55-.52l-.58.67c.06.06,1.46,1.51-.18,3.52a.46.46,0,0,0,.07.63A.43.43,0,0,0,1685.17,778.09Z"/><g id="EAR_1" data-name="EAR 1"><path class="cls-7" d="M1651.72,771.13a10,10,0,0,0-2.42-2.58c-2-1.78-3.9-2.85-8.12-4.75-6.7-3-6.6-2.46-9.52-4.06a45.38,45.38,0,0,1-8.1-5.86c-4-3.42-6.24-5.3-8.33-8.56-1.9-3-4.42-6.9-3.63-11.84a14.17,14.17,0,0,1,4.59-8.05c5.86-5.87,12.09-5.66,16.75,1.85,2.8,4.12,1.67,6.13,4.94,12.6a24.18,24.18,0,0,0,3.6,5.69c1.46,1.66,2.63,2.44,8.38,6.1,6.09,3.88,6.87,4.33,8.56,5.52,1.14.79,3.56,2.61,4.47,3.37"/><path class="cls-19" d="M1652,771.13s1.23-3.66-12.43-10.82A47.47,47.47,0,0,1,1624.36,750c-4.1-3.79-8.19-8.09-8.83-14.35-.52-7.62,8-13.46,8-13.46l-3.17.42-6.47,6.58-1.83,4.62.84,6.05,4.41,7.19,3.46,3.69,5.9,4.91,5.14,3.67,3.82,1.74,4.09,1.42,2.88,1.75,3.14,1.72,2.89,1.87Z"/><path class="cls-21" d="M1651.37,771.28a6.46,6.46,0,0,0-1.33-1.39,21.51,21.51,0,0,0-5-3.45,123.33,123.33,0,0,0-11.58-4.75,40.8,40.8,0,0,1-10.72-7.12,56.69,56.69,0,0,1-6.3-5.79c-3.67-4.49-7.22-10.21-5.87-16.26,1-5.35,6.8-11.35,12.3-12.38,5.81-1.07,10.25,4,12.52,8.72a59.89,59.89,0,0,1,1.88,6.15c1.32,3.69,3,7.57,5.79,10.42a53,53,0,0,0,6.6,4.75c1.74,1.15,5.24,3.53,7,4.73a66.24,66.24,0,0,1,6.54,5.4.33.33,0,0,1,0,.46.32.32,0,0,1-.41.05c-2.4-1.46-4.63-3.1-7.08-4.46-1.82-1.05-5.44-3.19-7.23-4.28a45,45,0,0,1-7.1-4.92c-3.08-3.13-5-7.27-6.5-11.35-.85-2.5-1.13-4.93-2.51-7.13-1.89-3.18-5-6.73-9-6-2.51.45-4.57,2.08-6.42,3.88a12.76,12.76,0,0,0-3.89,6.45c-.94,3.9.72,7.7,2.83,11,2.08,3.61,5.13,6.17,8.33,8.9a40.62,40.62,0,0,0,10.06,6.94c2.55,1,5.25,2.13,7.73,3.35a26.57,26.57,0,0,1,8.81,6,6.45,6.45,0,0,1,1.37,1.8.39.39,0,0,1-.71.3Z"/></g><path class="cls-21" d="M1647.41,760.33a73.62,73.62,0,0,1-27.55-22.42,3.85,3.85,0,1,1,6.14-4.65,72,72,0,0,0,9.73,14.16,70.29,70.29,0,0,0,12.67,11.19,1,1,0,0,1-1,1.72Z"/><ellipse class="cls-7" cx="1689.07" cy="762.6" rx="0.7" ry="1.07" transform="translate(-40.07 1429.38) rotate(-45.39)"/><ellipse class="cls-7" cx="1668.28" cy="780.51" rx="0.7" ry="1.07" transform="translate(-59.01 1419.91) rotate(-45.39)"/><polygon class="cls-23" points="431.12 966.48 441.17 966.48 439.39 975.71 432.72 975.71 431.12 966.48"/><rect class="cls-24" x="424.65" y="882.1" width="23.06" height="6.81"/><path class="cls-25" d="M447.71,888.57c-8.48-.31-16.35-.63-23.06-2.69v3H444.8l2.91-.06Z"/><path class="cls-24" d="M435.88,975.19h-.1a3.39,3.39,0,0,1-3.3-3.32c0-1,0-2.22,0-3.56-.4-13.09-6.13-48.6-11.68-83-1.67-10.41-3.41-21.17-5-31.17l6.73-1.05c1.56,10,3.29,20.73,5,31.13,3.16,19.58,6.23,38.63,8.44,54.17,2.51-17,6.07-38,9.74-59.66,1.59-9.39,3.18-18.77,4.68-27.8l6.72,1.12c-1.5,9-3.09,18.42-4.68,27.81-6.14,36.27-12.47,73.68-13.14,88.7a35.31,35.31,0,0,1-.06,3.55A3.42,3.42,0,0,1,435.88,975.19Z"/><path class="cls-25" d="M421.09,853.28c3.9,26.93,9.53,56,14.91,84.91-2.21-15.51-5.27-34.5-8.42-54-1.68-10.4-3.41-21.15-5-31.13Z"/><path class="cls-25" d="M457.16,852l-2-.34c-2.63,11.31-17,75.25-16.55,122.19a3.37,3.37,0,0,0,.7-1.79,35.31,35.31,0,0,0,.06-3.55c.67-15,7-52.43,13.14-88.7C454.07,870.42,455.66,861,457.16,852Z"/><path class="cls-23" d="M459.48,858.9H411.94a5.53,5.53,0,1,1,0-11.06h47.54a5.53,5.53,0,0,1,0,11.06Z"/><polygon class="cls-23" points="584.63 958.98 595.97 958.98 593.97 969.41 586.43 969.41 584.63 958.98"/><rect class="cls-24" x="577.31" y="863.67" width="26.05" height="7.7"/><path class="cls-25" d="M603.36,871c-9.57-.35-18.46-.71-26.05-3v3.43h22.76l3.29-.07Z"/><path class="cls-24" d="M590,968.82h-.12a3.84,3.84,0,0,1-3.73-3.75c0-1.16,0-2.5.06-4-.46-14.77-6.92-54.89-13.19-93.79-1.9-11.76-3.86-23.91-5.62-35.2l7.6-1.19c1.77,11.27,3.72,23.42,5.62,35.16,3.56,22.12,7,43.64,9.53,61.18,2.84-19.15,6.86-42.92,11-67.39,1.8-10.59,3.59-21.19,5.28-31.39l7.6,1.26c-1.7,10.21-3.49,20.81-5.29,31.42-6.93,41-14.09,83.22-14.84,100.19a38.22,38.22,0,0,1-.07,4A3.85,3.85,0,0,1,590,968.82Z"/><path class="cls-25" d="M573.3,831.12c4.4,30.41,10.77,63.2,16.84,95.9-2.5-17.51-6-39-9.51-61-1.9-11.74-3.85-23.89-5.62-35.16Z"/><path class="cls-25" d="M614,829.67l-2.3-.38c-3,12.77-19.17,85-18.68,138a3.94,3.94,0,0,0,.78-2,38.22,38.22,0,0,0,.07-4c.75-17,7.91-59.23,14.84-100.19C610.55,850.48,612.34,839.88,614,829.67Z"/><path class="cls-23" d="M616.66,837.47H563a6.25,6.25,0,0,1,0-12.5h53.7a6.25,6.25,0,1,1,0,12.5Z"/><path class="cls-22" d="M599.65,834.16s8.05,17.72-.86,22.94l.71,2.85s11.3-7.43,3.2-23.44l-.75-2.92Z"/><path class="cls-7" d="M511.73,885.77l-7.37,67.53,1.75,2.58,14.43,2.74,10.94,4,7.82,2,7.75.53,5.39-2.28,3.65-4.56-.38-4.78-3.8-5.24-6.68-4.56-8.66-1.37,4.18-28.26,2.5-21.49.92-15C535.39,882.09,524.23,884.51,511.73,885.77Z"/><path class="cls-7" d="M544,787.09c-8.42-3.17-17.49-5.91-24.68-6.44-5.42-1.22-20.15-1.22-35.65,2.23-6.37,0-61.07,21.31-63,45.32-6.82,22.14,2.05,24.27,2.05,24.27s-8,14.58,5.07,22.21,14.41,5.36,23.07,3.53,6.55-18.79,6.55-18.79c10.26,4.7,6.53-5.17,6.53-5.17L452.79,841l.83-5.54L472.35,826l2.5.12L471.78,846l-1.82,6.5-1,16.29.79,8.63,2.1,3.85,4.59,2,10.9,2.35,34.33,2.17,19.75-7.4,9.31-11.75,2-14.64-2.68-14.87-.57-11.62Z"/><polygon class="cls-22" points="540.87 881.48 534.02 940.12 537.11 939.61 544.17 879.16 540.87 881.48"/><path class="cls-22" d="M529.3,944.47s17.06.53,20.37,6.63,2.58,9,2.58,9l-.11,1.25,3.27-.2-.24-11.3L546,943.3C539.42,943.42,533.28,943.64,529.3,944.47Z"/><path class="cls-22" d="M511.86,885.23l-6.93,68,2.23,2.23,21.7,6,6.36,3,6.21-1.07s-13-6.63-22.44-7.87-10.32-2.38-10.32-2.38c-1.82-1.84,5.39-58.86,5-67.94Z"/><path class="cls-22" d="M476,820.39s3,14.33,1.15,22-4.39,20.85-4.39,20.85-1.64,10,2.74,15.7,19.56-.63,20.51-1.19c7.11-3.77,23.41-2.4,30.31-1,0,0,16.08,1.14,25.19-13,0,0,.54,4.19-2,7s-9.93,7.52-9.93,7.52-15.25,6.08-21,5-24.46-1.16-24.46-1.16-12.78,2.51-20.08.69-4.87-18.08-4.87-18.08l6.2-43.39"/><path class="cls-21" d="M546,968.29h-.13c-1.36,0-13.38-.46-18-4-2.79-2.12-13.51-3.83-18.08-4.56-2-.32-3.08-.5-3.66-.65-2.93-.79-4.73-3.77-4.93-4.11l-.36-.63L508,885.47a2.23,2.23,0,1,1,4.44.46l-7.06,67.36a4.28,4.28,0,0,0,1.85,1.5c.39.1,1.76.32,3.21.55,7.93,1.27,16.68,2.84,20.08,5.41,2.62,2,10.73,2.93,15.32,3.07,4.57-.46,8.29-3,9.08-6.16.9-3.64-2.34-7.11-3.57-8.42-6.59-7-18.14-5.24-20.39-4.8a2.23,2.23,0,1,1-.84-4.38c2.65-.52,16.3-2.63,24.49,6.13,1.52,1.62,6.13,6.55,4.64,12.54-1.26,5.1-6.53,8.93-13.12,9.55Z"/><path class="cls-7" d="M505.88,885.74l-5.43,72.17-2,2.37-14.65,1.12-11.31,2.71-8,1.17-7.76-.34-5.1-2.86-3.12-4.94.91-4.71,4.35-4.79,7.15-3.78,8.76-.4-1-28.54-.46-20.5.77-15C477.17,884.83,493.48,885.51,505.88,885.74Z"/><path class="cls-21" d="M538.09,942.85l-.32,0a2.23,2.23,0,0,1-1.89-2.52c.07-.48,6.81-48,6.66-61.49a2.25,2.25,0,0,1,2.21-2.26,2.22,2.22,0,0,1,2.25,2.21c.16,13.84-6.42,60.2-6.7,62.17A2.24,2.24,0,0,1,538.09,942.85Z"/><path class="cls-22" d="M505.77,885l-5.83,72.78-2.54,1.88-22.34,2.78-6.72,2-5.7-.26s13.56-6.36,23.06-6.22,10.55-.85,10.55-.85c2.07-1.55,6.86-63.19,8.59-72.12Z"/><path class="cls-21" d="M510.35,886.67a101.8,101.8,0,0,1-16.58-1.42,2.23,2.23,0,0,1,.79-4.39c.2,0,19.71,3.49,31-.84a2.23,2.23,0,0,1,1.6,4.17C522.2,886.09,516,886.67,510.35,886.67Z"/><path class="cls-21" d="M543.33,967.38a2.23,2.23,0,0,1-2.23-2.19,13.82,13.82,0,0,0-2.41-6.43,2.24,2.24,0,0,1,.55-3.11,2.22,2.22,0,0,1,3.1.54c.13.18,3.13,4.48,3.22,8.91a2.23,2.23,0,0,1-2.19,2.28Z"/><path class="cls-21" d="M551.48,965.61h-.07a2.24,2.24,0,0,1-2.17-2.3c.07-2.23-1.74-4.82-2.44-5.63a2.23,2.23,0,0,1,3.35-2.94c.38.43,3.69,4.32,3.55,8.71A2.22,2.22,0,0,1,551.48,965.61Z"/><path class="cls-22" d="M481.91,783.33s-43.74,25.12-48.91,31.5c-12.08,14.93-9.59,35.14-8.83,34.32l-3.34,1.33s-4.12-14.91.66-24.37,4.33-9.17,4.33-9.17l6.1-7,21.42-13.28,27-14Z"/><path class="cls-22" d="M425,852.72s-3.53,19.14,6.38,22v3s-12.76-4.48-8.77-22l0-3Z"/><polygon class="cls-22" points="471.83 884.7 471.83 941.44 468.82 940.61 468.82 882.11 471.83 884.7"/><path class="cls-22" d="M475.78,945.75s-17-1.09-20.9,4.67-3.42,8.77-3.42,8.77l0,1.25-3.23-.51,1.31-11.22,9.8-5.7Z"/><polygon class="cls-19" points="472.18 821.35 456.23 830.69 456.57 833.24 472.59 825.79 472.18 821.35"/><path class="cls-21" d="M463.15,968.3c-2.83,0-5.09-.17-5.63-.22l-.27,0c-6.48-1.34-11.29-5.74-12-10.94-.81-6.13,4.32-10.51,6-12,9.12-7.8,22.45-4.18,25-3.38A2.23,2.23,0,1,1,475,946c-2.18-.68-13.47-3.76-20.8,2.51-1.36,1.16-5,4.25-4.48,8,.43,3.24,3.85,6.16,8.34,7.13,4.58.37,12.74.33,15.57-1.35,3.67-2.18,12.53-2.76,20.56-3.14,1.47-.07,2.85-.13,3.24-.19a4.37,4.37,0,0,0,2.07-1.36l6.11-72.09a2.23,2.23,0,0,1,4.44.38l-6.22,73.43-.37.51c-.23.31-2.36,3.08-5.35,3.54-.6.09-1.68.14-3.71.24-4.63.22-15.47.73-18.49,2.52S467.37,968.3,463.15,968.3Z"/><path class="cls-21" d="M468.34,943.67a2.22,2.22,0,0,1-2.22-2.14c-.08-1.94-1.81-47.67-.12-61.41a2.23,2.23,0,0,1,4.43.55c-1.64,13.38.13,60.22.15,60.69a2.23,2.23,0,0,1-2.15,2.31Z"/><path class="cls-21" d="M460.41,967.47a1.46,1.46,0,0,1-.29,0,2.23,2.23,0,0,1-1.92-2.5c.58-4.39,4-8.33,4.19-8.5a2.23,2.23,0,1,1,3.34,3c-.75.85-2.78,3.62-3.11,6.12A2.22,2.22,0,0,1,460.41,967.47Z"/><path class="cls-21" d="M452.52,964.81h-.19a2.23,2.23,0,0,1-2-2.41c.35-4.38,4.08-7.88,4.5-8.26a2.23,2.23,0,0,1,3,3.3c-.79.72-2.87,3.09-3.05,5.32A2.23,2.23,0,0,1,452.52,964.81Z"/><path class="cls-22" d="M493.33,837.69s38.11-2.93,46.24-.64C534.74,829.37,500.13,829.43,493.33,837.69Z"/><path class="cls-19" d="M472.49,846.39c1.65.3,3,1.52,4.68,1.65,3.69.28,6.66-4.41,10.31-6,6.94-2.75,11.44,5.3,6.45,11.58-1.43,1.7-3.44,2.8-4.59,4.72-1.47,2.44-1.11,5.39-1.13,8.12s-.94,6.15-3.39,7.18c-3.11,1.3-5.67-2.41-8.88-2s-5.23,4.36-8.22,5.75"/><path class="cls-26" d="M472.21,845c1.65.31,3,1.53,4.68,1.66,3.69.28,6.66-4.42,10.31-6,6.94-2.74,11.44,5.31,6.45,11.59-1.43,1.69-3.44,2.8-4.59,4.71-1.48,2.45-1.11,5.39-1.13,8.13s-.94,6.15-3.39,7.17c-3.11,1.31-5.67-2.4-8.88-2s-5.23,4.35-8.22,5.75"/><path class="cls-21" d="M473.64,886a2.26,2.26,0,0,1-1-.22,12.64,12.64,0,0,1-3.61-2.64,13.22,13.22,0,0,1-3-5.46,23.49,23.49,0,0,1-.41-10.07l.07-.54a48.79,48.79,0,0,0,.41-7.73,27,27,0,0,1,.52-6.54,64.16,64.16,0,0,1,2.12-8.31c.42-1.34.85-2.72,1.25-4.31a62.71,62.71,0,0,0,1.76-18.92,2.23,2.23,0,0,1,4.46-.24,67.16,67.16,0,0,1-1.89,20.28c-.44,1.69-.88,3.12-1.32,4.51a59.75,59.75,0,0,0-2,7.79,22.58,22.58,0,0,0-.45,5.64,52.88,52.88,0,0,1-.44,8.34l-.07.55a19.45,19.45,0,0,0,.26,8.28,8.79,8.79,0,0,0,2,3.66,8.15,8.15,0,0,0,2.32,1.69,2.23,2.23,0,0,1-1,4.24Z"/><path class="cls-19" d="M552,870.44c-2.89,1.07-6.29,2.1-8.9.45-1.94-1.22-2.8-3.57-3.54-5.74l-3.88-11.49c-.86-2.56-1.74-5.26-1.24-7.91.74-4,4.51-6.9,8.46-7.86a58.56,58.56,0,0,1,6.19-.9"/><path class="cls-26" d="M551.23,868c-2.72,1-5.92,2-8.37.43-1.82-1.16-2.63-3.36-3.32-5.4l-3.65-10.81c-.81-2.4-1.64-4.94-1.18-7.44.7-3.76,4.24-6.48,8-7.38a54.85,54.85,0,0,1,6.32-.9C554.16,848.79,554.79,859.24,551.23,868Z"/><path class="cls-21" d="M539.57,881.13a2.23,2.23,0,0,1-.7-4.35,18.61,18.61,0,0,0,9.88-7.19c2.7-4.15,2.66-8.48,2.6-14.48a58.53,58.53,0,0,0-2.09-14.18c-.54-2.12-1-3.46-1.4-4.77a41.7,41.7,0,0,1-1.48-5.48,50,50,0,0,1-.83-12.76,2.23,2.23,0,1,1,4.45.28,45.22,45.22,0,0,0,.76,11.62,36.77,36.77,0,0,0,1.34,5c.43,1.31.91,2.8,1.48,5.06a63,63,0,0,1,2.24,15.22c0,6.27.1,11.68-3.33,17a23.09,23.09,0,0,1-12.22,9A2.43,2.43,0,0,1,539.57,881.13Z"/><path class="cls-21" d="M455.09,837.72a2.23,2.23,0,0,1-.94-4.26l17.72-8.2a2.23,2.23,0,0,1,1.87,4L456,837.51A2.21,2.21,0,0,1,455.09,837.72Z"/><path class="cls-21" d="M443.46,883.49a31.72,31.72,0,0,1-14.92-3.78l-.14-.08a18.61,18.61,0,0,1-4.83-3.51c-4.83-5-5.58-11.72-5.37-16.47a24.46,24.46,0,0,1,1-6.19c-2.95-2-4.7-10.13-2.55-21.13,1.16-6,2.37-12.18,7.06-18.66,2.05-2.82,5.62-6.78,15.12-12.31l2.83-1.68c9.75-5.79,32.59-19.34,44.42-22.41a2.23,2.23,0,0,1,1.12,4.32c-11.22,2.91-34.5,16.73-43.26,21.93l-2.86,1.69c-8.78,5.12-12,8.61-13.75,11.08-4.12,5.68-5.18,11.13-6.3,16.89-2,10.26-.1,15.43.58,16.47a3.73,3.73,0,0,1,1.94,2.23,3.61,3.61,0,0,1-.24,3.25c-.65,2.21-2.17,12,3.47,17.89a14.81,14.81,0,0,0,3.78,2.71l.14.08c7.52,4.16,19.79,4.57,23.38-.87,1.53-2.33,2.16-6.49,1.47-9.7-.09-.4-.23-.93-.37-1.48-.76-3-1.26-4.93.85-5.7a2.4,2.4,0,0,1,3,1.19l.07.09a3.2,3.2,0,0,0,1.86.75,2.91,2.91,0,0,0,2.19-.55c1.22-1,.78-3.21.38-4.1a3.66,3.66,0,0,0-1-1.27,106.9,106.9,0,0,1-10.66-11.49l-.93-1.1.63-1.3c1.69-3.54.95-14.59.08-20.71a2.23,2.23,0,1,1,4.42-.63c.23,1.63,2.06,15.2,0,21.86a97.37,97.37,0,0,0,9.31,10,8.11,8.11,0,0,1,2.14,2.83c1.27,2.78,1.32,6.89-1.55,9.34a7.26,7.26,0,0,1-5.61,1.58l-.44-.06c.9,4.36,0,9.65-2.14,12.93C455,881.6,449.48,883.49,443.46,883.49ZM422.82,855.7h0Zm-2.94-3.36a1.46,1.46,0,0,0-.36.45A1.69,1.69,0,0,1,419.88,852.34Zm0,0Z"/><path class="cls-21" d="M433.43,879.94a2.24,2.24,0,0,1-2.22-2l-1.51-13a2.24,2.24,0,1,1,4.44-.52l1.51,13a2.24,2.24,0,0,1-2,2.48Z"/><path class="cls-21" d="M447.41,881.49a2.24,2.24,0,0,1-2.2-1.9L443,865.05a2.23,2.23,0,0,1,4.41-.67l2.2,14.54a2.22,2.22,0,0,1-1.87,2.54A1.87,1.87,0,0,1,447.41,881.49Z"/><path class="cls-21" d="M422.58,853.89a2.24,2.24,0,0,1-.79-4.33l9.35-3.49a2.23,2.23,0,0,1,1.56,4.18l-9.34,3.49A2.16,2.16,0,0,1,422.58,853.89Z"/><path class="cls-7" d="M525.79,780.58c6.18-1.54,64.41,5.93,72.1,28.75,12,19.84,3.88,24,3.88,24s11.31,12.21.44,22.78-12.69,8.68-21.53,9-10.9-16.66-10.9-16.66c-8.82,7-7.58-3.44-7.58-3.44l7.63-15.52-2.15-5.18-20.45-4.65-2.4.72"/><path class="cls-22" d="M527.64,780.58s48.51,13.81,55.07,18.76C598,810.9,600.5,831.11,599.56,830.5l3.57.49s.4-15.46-6.53-23.48-6.42-7.86-6.42-7.86l-7.61-5.33-24-7.7L529,779.56Z"/><polygon class="cls-19" points="546.27 815.12 564 820.34 564.28 822.89 546.93 819.54 546.27 815.12"/><path class="cls-21" d="M566.8,826.88a2.23,2.23,0,0,0-.11-4.35l-19.18-3.68a2.23,2.23,0,1,0-.84,4.38l19.17,3.68A2.21,2.21,0,0,0,566.8,826.88Z"/><path class="cls-21" d="M589.14,868.48a31.74,31.74,0,0,0,13.57-7.26l.11-.11a18.61,18.61,0,0,0,3.84-4.58c3.48-6,2.59-12.72,1.23-17.28a24.58,24.58,0,0,0-2.46-5.76c2.39-2.62,2.11-11-2.63-21.12-2.57-5.53-5.24-11.25-11.36-16.4-2.67-2.25-7.09-5.22-17.64-8.3l-3.16-.94c-10.86-3.26-36.29-10.9-48.51-11a2.23,2.23,0,0,0,0,4.46c11.59.11,37.51,7.9,47.27,10.83l3.19,1c9.75,2.85,13.68,5.47,16,7.43,5.36,4.52,7.71,9.55,10.19,14.87,4.41,9.47,3.82,15,3.41,16.13a3.7,3.7,0,0,0-1.34,2.62,3.62,3.62,0,0,0,1,3.11c1.16,2,5,11.14.94,18.19a14.28,14.28,0,0,1-3,3.54l-.11.11c-6.3,5.85-18.1,9.22-22.9,4.8-2-1.88-3.66-5.77-3.76-9,0-.41,0-1,0-1.53,0-3.06,0-5.09-2.2-5.32a2.41,2.41,0,0,0-2.58,1.87l0,.1a3.19,3.19,0,0,1-1.62,1.18,3,3,0,0,1-2.26,0c-1.44-.71-1.54-2.93-1.36-3.89a3.81,3.81,0,0,1,.64-1.47,105.79,105.79,0,0,0,7.57-13.72l.63-1.29-.91-1.11c-2.5-3-4.45-13.92-5.09-20.08a2.23,2.23,0,0,0-4.44.46c.17,1.64,1.67,15.25,5.23,21.23A96.78,96.78,0,0,1,560,842a8,8,0,0,0-1.4,3.26c-.55,3,.39,7,3.76,8.69a7.27,7.27,0,0,0,5.83.18l.41-.17c.18,4.45,2.31,9.37,5.2,12C577.46,869.45,583.3,869.94,589.14,868.48Zm13.32-32h0Zm2-4a1.59,1.59,0,0,1,.46.35A2,2,0,0,0,604.5,832.56Zm0,0Z"/><path class="cls-21" d="M598,862.62a2.23,2.23,0,0,0,1.67-2.45l-1.67-13a2.23,2.23,0,1,0-4.43.57l1.68,13a2.22,2.22,0,0,0,2.49,1.93Z"/><path class="cls-21" d="M584.82,867.5a2.24,2.24,0,0,0,1.68-2.37l-1.37-14.64a2.23,2.23,0,0,0-4.44.42l1.37,14.63a2.23,2.23,0,0,0,2.43,2Z"/><path class="cls-21" d="M602.26,834.72a2.23,2.23,0,0,0-.29-4.38l-9.91-1.14a2.23,2.23,0,0,0-.51,4.44l9.91,1.13A2.37,2.37,0,0,0,602.26,834.72Z"/><path class="cls-27" d="M528.46,771.27,546,825.77l15.94,3.38.4,3.14,45,5s6.9-13.18-12-41.6A427.56,427.56,0,0,0,528.46,771.27Z"/><path class="cls-27" d="M562.12,830.63s23.73-1.2,46,3.76"/><path class="cls-27" d="M562.47,829s33.24-4.81,46.06.91"/><path class="cls-27" d="M561.72,828.68s29.85-8.87,46.15-5.2"/><path class="cls-28" d="M561.1,829s26.44-12.65,44.74-12.3"/><path class="cls-28" d="M561.93,829.15a84.82,84.82,0,0,1,40.2-20.66"/><path class="cls-28" d="M561.76,828.84s8.7-16.39,37.79-26.28"/><path class="cls-28" d="M562.25,828.74s7.49-26,34.7-29.54"/><path class="cls-28" d="M594.55,795.58s-25.86,5.18-32.78,32.78"/><path class="cls-28" d="M532.05,772.25s14.13,25.59,16.19,54"/><path class="cls-28" d="M536.12,773.13s14.14,23.6,15,53.73"/><path class="cls-28" d="M539.22,774.33s19.19,33.86,14.51,53.08"/><path class="cls-28" d="M542.59,779.28S561.8,799,555.7,827.83"/><path class="cls-28" d="M547.18,776.82s16.89,26.64,11.16,50.72"/><path class="cls-28" d="M552.89,778.42a70,70,0,0,1,6.8,49.44"/><path class="cls-28" d="M559.33,781a75.6,75.6,0,0,1,1.07,47.85"/><path class="cls-28" d="M561,828.52c9.71-24.47,3.52-45.66,3.52-45.66"/><path class="cls-28" d="M569.77,784.85s-.39,28.17-8.4,43.59"/><path class="cls-28" d="M588.19,792.43s-25,15.06-26.58,35.7"/><path class="cls-27" d="M480.06,777.2l-6.38,56.89-14.95,6.48.24,3.16L415.86,857.5s-9.38-11.55,3.56-43.16A426.38,426.38,0,0,1,480.06,777.2Z"/><path class="cls-27" d="M458.84,842.06s-23.5,3.53-44.38,12.82"/><path class="cls-27" d="M458.18,840.57s-33.53,1.88-45,10"/><path class="cls-27" d="M458.84,840.07s-31-2.78-46.26,4.06"/><path class="cls-28" d="M459.51,840.23s-28.42-7.16-46.3-3.18"/><path class="cls-28" d="M458.73,840.57a84.86,84.86,0,0,0-43.5-12.27"/><path class="cls-28" d="M458.84,840.23S447.06,825.89,416.59,822"/><path class="cls-28" d="M458.34,840.23s-12.5-24-39.88-22.07"/><path class="cls-28" d="M420.1,814.14s26.38,0,38.63,25.62"/><path class="cls-28" d="M476.73,778.88S468,806.76,471.57,835"/><path class="cls-28" d="M472.92,780.54s-9.18,25.94-4.05,55.64"/><path class="cls-28" d="M470.11,782.34s-12.09,37-3.68,54.9"/><path class="cls-28" d="M467.79,787.86S452.89,811,464.58,838"/><path class="cls-28" d="M462.81,786.35s-11.28,29.46-.88,51.93"/><path class="cls-28" d="M457.53,789.05a70,70,0,0,0,3.14,49.81"/><path class="cls-28" d="M451.72,792.83a75.66,75.66,0,0,0,8.45,47.11"/><path class="cls-28" d="M459.51,839.76c-14.36-22-12.5-44-12.5-44"/><path class="cls-28" d="M442.26,798.7s6,27.54,16.88,41.06"/><path class="cls-28" d="M425.71,809.79s27.52,9.8,33.13,29.72"/><path class="cls-29" d="M528.46,771.27l2,6.32c27.48,5,62.37,21.66,62.37,21.66,9.52,19,10.72,31.37,10.45,37.55l4,.44s6.9-13.18-12-41.6A427.56,427.56,0,0,0,528.46,771.27Z"/><path class="cls-29" d="M480.21,777l-.7,6.6c-25.9,10.46-56.66,33.89-56.66,33.89-5.46,20.54-4.12,32.9-2.59,38.89l-3.83,1.24s-9.44-11.49,3.34-43.17A427,427,0,0,1,480.21,777Z"/><path class="cls-7" d="M542.09,588.68s1.31-9.22,13.48-18.21c0,0,.9,17.54,2.21,21.56s1.66,8.49,5.45,12.72,17.35,1.84,17.35,1.84,13.51-4,17.39-14.45a44.46,44.46,0,0,0,2.88-18.85s-2.55-14.12-6-17.57-2.84-8.14-13.23-15a58.33,58.33,0,0,0-20.71-8.57,25.13,25.13,0,0,0-16.91,3c-8.55,5-9.27,6.77-12.9,12.17s-5.35,21.53-5.35,21.53"/><path class="cls-19" d="M592.45,599.93c-2.74,6-13.73,7.57-22.78,8s-12.31-12.29-12.31-12.29L557,581.32s-.91-13.55-5.24-22.78A26,26,0,0,0,539.36,546s11.62-2.43,17.43,15.69c0,0,6.21,15.09,6.56,27.5.54,7.61,3,10.34,5.29,11.53s16.19,6,28.72-7.19Z"/><path class="cls-19" d="M535.71,576.08c-5.74-7.54.67-27.27,3-28,8.86,5.4,13.12,13.55,14.42,23.48l-9.35,11.33L537.2,579Z"/><path class="cls-21" d="M574.2,610.16c-5.15,0-10.4-1.36-14.12-5.1-4.31-4.34-5.49-10.64-6.05-13.67a34.53,34.53,0,0,1-.55-7.18v-.33c.06-5.78-.64-20.21-8.37-29.28a27.78,27.78,0,0,0-11.84-7.9l-.26-.11c-5.63,8.46-5.5,17.93-5.28,21a2.3,2.3,0,1,1-4.58.33c-.3-4.12-.44-18.41,10.32-29.08a35.18,35.18,0,0,1,18.94-9.55c19.38-3.13,38.21,11.13,46.07,26.15,2.64,5,10.57,22.69,1.94,38.68-4,7.4-9.5,12.27-16.36,14.48A33,33,0,0,1,574.2,610.16ZM536,542.83a31.72,31.72,0,0,1,12.61,8.79c8.43,9.89,9.55,24.48,9.47,32.31v.35a30.06,30.06,0,0,0,.46,6.27c.49,2.57,1.49,7.93,4.8,11.27,4.79,4.82,13.4,4.31,19.32,2.41,8.58-2.76,12.46-9.93,13.73-12.29,7.75-14.35-.28-31.15-2-34.37-7.13-13.6-24-26.54-41.28-23.74a30.41,30.41,0,0,0-16.44,8.27C536.47,542.34,536.23,542.58,536,542.83Z"/><path class="cls-21" d="M542.49,598.39h-.19a2.28,2.28,0,0,1-2.1-2.47c.93-11.52,4.92-19.92,11.51-24.3.38-.25.78-.49,1.18-.72a2.3,2.3,0,0,1,2.27,4c-.31.18-.62.37-.91.56-6.8,4.51-8.91,13.82-9.48,20.84A2.29,2.29,0,0,1,542.49,598.39Z"/><path class="cls-21" d="M578.09,556.05a2.29,2.29,0,0,1-2.25-1.87c-2.73-14.29-13.86-20.07-16.47-20.74A2.3,2.3,0,1,1,560.5,529c5.22,1.33,16.93,9,19.85,24.33a2.3,2.3,0,0,1-1.82,2.69A2.18,2.18,0,0,1,578.09,556.05Z"/><path class="cls-7" d="M489.69,763.64c-4.1-19.11-19-38-21.73-40.67-36.58-36.34-35.33-100.42-35.14-109.78.56-28.61,9.38-40.66,13.36-45.31C465,546,492.74,547.29,506,553.07c9.38,3.6,17.89,9.94,31.08,27.88,19.39,26.36,33.61,45.7,36.59,75.51,2.73,27.26-5.46,48.12-10.74,61.57-13.72,34.93-40.58,61.58-54.43,73"/><path class="cls-7" d="M485.76,789c-4.1-19.11-15.07-63.36-17.8-66.07-36.58-36.34-35.32-100.42-35.14-109.78.56-28.61,9.38-40.66,13.36-45.31C465,546,492.75,547.29,506,553.07c9.38,3.6,17.89,9.94,31.08,27.88,19.38,26.36,33.61,45.7,36.59,75.51,2.73,27.26-5.46,48.12-10.74,61.57-13.72,34.93-33.63,61.58-47.48,73"/><path class="cls-19" d="M440.72,581.29c-4.22,18.44-4.67,99.59,21,133.56,0,0-18.23-22.63-22.33-47.7S433.57,636,433.57,636V604.41l4.87-20.66,6.69-13.82,1.13,1.42Z"/><path class="cls-21" d="M515.6,793.28a2.23,2.23,0,0,1-1.43-3.95c8.84-7.3,31.74-34.08,46.68-72.11,5.29-13.47,13.28-33.81,10.6-60.54-2.92-29.2-16.86-48.16-36.17-74.41C522,564.21,513.92,558.5,505.2,555.15l-.09,0c-12.67-5.52-39.43-6.54-57.24,14.22-8.12,9.51-12.44,24.28-12.82,43.9-.43,21.79,2.07,76,34.48,108.16,2.23,2.21,11.83,45,16.18,65.27a2.23,2.23,0,1,1-4.36.93c-4.07-18.91-13-61.05-15-63-33.64-33.41-36.24-89-35.81-111.41.41-20.68,5.08-36.39,13.9-46.71,19.5-22.73,48-21.68,62.37-15.43,9.19,3.54,18.17,9.78,32,28.63,19.72,26.81,34,46.19,37,76.61C578.68,684,570.45,705,565,718.85c-15.33,39-39,66.45-48,73.92A2.19,2.19,0,0,1,515.6,793.28Z"/><path class="cls-7" d="M512.07,587.3c7.3,26.9,23.6,41.24,37.43,42.66,9.71,1,18.45,2.77,18.45,2.77,7.42.07,9.07-1.2,13.36-.55,10.55,1.62,17.21,11.87,19.56,15.5,12.12,18.63,4.83,40.09,4.46,41.12-5.47,15.31-17.94,23.88-39.24,27.53-24.7,29.75-71.4-12.21-79-30.35a27.84,27.84,0,0,1,.55-23.14C512.14,661.11,523.64,623,512.07,587.3Z"/><path class="cls-22" d="M510.73,716.88s19.69-21.67,52.7-.44l-3.59,3.88C543,711.15,526.61,710.07,510.73,716.88Z"/><path class="cls-19" d="M493,552.05c15.42,11.6,58.31,65.64,84.75,86.83,20.93,14.5,28.44,35.18,18.66,63.37,0,0,20.28-8.21,5.81-53,0,0-15.53-6.5-35.43-14.29-1.45-14.11-11.36-30.54-27.19-48.6C535.59,582.69,516.27,551.62,493,552.05Z"/><path class="cls-7" d="M518.11,590c2.27-5.08,8.42-10.6,17.48-7.33,3.35,1.4,5.07,3.85,7.44,7.21a35.53,35.53,0,0,1,4.87,10.45c1.43,4.95,2.54,8.83,1.06,13.32a14.17,14.17,0,0,1-6.36,8C529.81,629.27,512.31,603.69,518.11,590Z"/><path class="cls-21" d="M537.63,625.07c-3.63,0-7.48-1.63-11.15-4.84-8.24-7.19-14.33-21.37-10.24-31v0c2.89-6.49,10.4-11.9,20-8.43l.09,0c3.9,1.64,5.85,4.41,8.32,7.93a37.64,37.64,0,0,1,5.16,11c1.46,5.07,2.72,9.44,1,14.53a16.06,16.06,0,0,1-7.29,9.12A11.63,11.63,0,0,1,537.63,625.07ZM520,590.83c-3.33,7.9,2.16,20.22,9.18,26.34,2.58,2.25,7.61,5.6,12.41,2.75l.08,0A12,12,0,0,0,547,613c1.29-3.89.29-7.34-1.08-12.12a33.46,33.46,0,0,0-4.59-9.84c-2.24-3.19-3.72-5.31-6.51-6.49C526.63,581.65,521.64,587.12,520,590.83Z"/><path d="M519.6,595.44a11.37,11.37,0,0,1,14.73-6.09c2.83,1.16,4.27,3.19,6.26,6a29.14,29.14,0,0,1,4.09,8.63c1.2,4.1,2.14,7.31.88,11a11.8,11.8,0,0,1-5.36,6.62,11.54,11.54,0,0,1-4.77,1.18C526.76,622.72,515.06,605.52,519.6,595.44Z"/><path class="cls-7" d="M531.86,595.14a6.67,6.67,0,0,0-.58,4.52c1.1,8.81,4.92,14.12,6.66,14.52,5,1.16,6-3.6,5.81-7.7a17.13,17.13,0,0,0-4.22-11.41C536.7,591.6,533.64,592.42,531.86,595.14Z"/><path class="cls-21" d="M536.11,624.45c-.23,0-.46,0-.69,0-5.5,0-10.84-5.31-14-10.24-3.45-5.37-6.15-13.31-3.37-19.49h0a13.84,13.84,0,0,1,6.5-6.69,13.42,13.42,0,0,1,10.42-.27c3.28,1.35,4.92,3.64,7,6.55a31.19,31.19,0,0,1,4.34,9.15c1.23,4.2,2.28,7.82.86,12a12.29,12.29,0,0,1-11.06,8.93Zm-15-28.31c-2.23,4.93.15,11.64,3.12,16.26,3.32,5.17,7.81,8.66,11.17,8.68a9.81,9.81,0,0,0,4-1,9.94,9.94,0,0,0,4.55-5.67c1.09-3.21.26-6-.9-10a27.42,27.42,0,0,0-3.84-8.13c-1.9-2.65-3.15-4.4-5.53-5.38a10.08,10.08,0,0,0-7.69.2,10.26,10.26,0,0,0-4.84,5Z"/><path class="cls-21" d="M518,592.71c1.31,6.22,23.65.13,22.38-7l-5.16-4.09-6.29-.67-8.51,4.73Z"/><path class="cls-22" d="M507.79,714.47s24.61-33.64,81.35-9.49c0,0,10.71-10.41-2.28-46.71-6.38-10.79,5.2,30.47,2.51,40.33C543.16,681.87,514.4,694.38,507.79,714.47Z"/><path id="jou" class="cls-22" d="M510.75,586.85s9.91,41.37,44.1,48.13v7.79C526.25,638.2,506.65,612.51,510.75,586.85Z"/><path class="cls-21" d="M559.49,724.12l-1.36-.67c-20-9.78-31.17-13-47.79-.74a2.23,2.23,0,0,1-2.66-3.58c18.74-13.87,32.55-9.32,51.08-.33,5.9-4.89,12.75-7.09,19.39-9.23,8.94-2.87,17.38-5.58,22.21-14.78,5.74-10.91,7.29-21.64,4.6-31.89l-.21-.85c-1-4.06-3.38-13.56-11.23-20.87-2-1.9-6.29-5.87-12.53-6.79a68.26,68.26,0,0,0-9.49.18c-8,.44-17.87,1-24.27-.85-14.67-4-32.34-18.48-37.85-46.92a2.23,2.23,0,0,1,4.38-.85c5.13,26.44,21.28,39.79,34.68,43.47,5.7,1.64,15.59,1.1,22.81.7,4.64-.26,8.31-.46,10.4-.14,7.6,1.12,12.73,5.9,14.92,7.93,8.81,8.22,11.5,19,12.51,23.06.07.3.14.57.2.8,3,11.36,1.3,23.17-5,35.1-5.68,10.81-15.4,13.93-24.79,17-6.63,2.13-13.47,4.33-18.91,9.28Z"/><path class="cls-21" d="M508.44,720a2.17,2.17,0,0,1-1-.22,2.22,2.22,0,0,1-1.06-3c5.46-11.43,16.16-19,30.93-21.88,20-3.91,41.79,1.84,51.88,9.69,2.86-3.08,4.2-10,3.54-18.72-1.3-17.34-10.11-38.16-24.44-44.39l-.26-.14a48.4,48.4,0,0,0-16.72-6.06l-.31-.08-1.17-.37c-10-3.21-26.62-8.57-39.91-46.87a2.23,2.23,0,1,1,4.21-1.46c12.56,36.19,27.31,40.94,37.06,44.08l1,.33a52.73,52.73,0,0,1,18,6.54c15.86,7,25.57,29.47,27,48.09.9,11.87-1.59,20.55-6.82,23.83l-2.69-.24c-8.52-7.76-30.45-13.58-49.5-9.85-9.3,1.81-21.67,6.66-27.76,19.42A2.23,2.23,0,0,1,508.44,720Z"/><path class="cls-22" d="M543.76,640.49s-3.61,5.36-3,18.46,11.08,11.3,11.08,11.3,15.09-2.25,25.6,2.6,11.37-5.51,11.37-5.51"/><path d="M543.31,638.73c4.52-13.8,16.33-20.45,17.14-20.89,11.74-6.38,22.92-3.92,26.75-3.08,4.16.91,9.27,2.11,13.66,6.58a21.37,21.37,0,0,1,5.94,11.95c.65,4.86-.72,8.42-2.51,13.1-2.42,6.34-5.47,9.92-10.83,16.22-3.8,4.47-6.1,6.31-8.88,6.36a8.59,8.59,0,0,1-4.35-1.4c-9.39-5-22.86-4.62-26.78-4.53-2.51.06-4.64.28-6.77-1.09-.55-.35-3-2-4.29-7.64A29.12,29.12,0,0,1,543.31,638.73Z"/><path class="cls-26" d="M450.82,597.49c9.15-17.17,31.6-24.92,45.24-13.86,3.31,2.53,5.3,5.74,9.14,12a86.94,86.94,0,0,1,8,15.47c1.93,5.07,3,8.09,3.08,12.44-.16,8.36-1.89,15.24-14.64,21-12.05,5.93-25.14,7.49-35.49,3.12-9.51-4-16.7-13-18.63-28.27C447,615.67,446,606.72,450.82,597.49Z"/><path class="cls-7" d="M479.36,635.58c-13.62-3.38-22.16-27.89-8.57-41.24,8.34-7.71,18.17-5.28,24.61,2.77,5.15,5.92,5.8,12.66,6.23,17.07.56,5.88,1.08,11.26-2.43,15.56s-9.41,5.36-12,5.79A19.55,19.55,0,0,1,479.36,635.58Z"/><path class="cls-21" d="M482.89,638.2a17.24,17.24,0,0,1-4-.45h0c-7.22-1.79-13.5-8.9-16-18.11-2.77-10.17-.38-20.22,6.41-26.89,4.15-3.83,8.88-5.64,13.7-5.28,5.22.39,10.26,3.31,14.19,8.21,5.6,6.45,6.31,13.85,6.74,18.28.57,6,1.17,12.17-2.92,17.19s-10.56,6.12-13.32,6.58A26.81,26.81,0,0,1,482.89,638.2Zm-3-4.79a17.46,17.46,0,0,0,7-.08c2.46-.41,7.58-1.28,10.61-5s2.47-8.39,1.94-13.94c-.41-4.15-1-10.43-5.7-15.82l-.06-.07c-3.15-3.94-7.08-6.28-11.06-6.58-3.57-.27-7.13,1.14-10.29,4.06-5.57,5.48-7.53,13.9-5.18,22.48C469.21,626.13,474.23,632,479.89,633.41Z"/><path d="M478.5,634.68c-10.6-2.63-17.25-21.7-6.68-32.09a13.07,13.07,0,0,1,8.65-3.66c5.46,0,9,4.14,10.5,5.81,4,4.61,4.52,9.85,4.85,13.28.44,4.58.85,8.77-1.89,12.12s-7.32,4.17-9.3,4.5A15.19,15.19,0,0,1,478.5,634.68Z"/><path class="cls-7" d="M484.38,603.53a6.61,6.61,0,0,0-1.35,4.36c-.45,8.86,2.39,14.75,4,15.45,4.7,2,6.49-2.51,7.06-6.58a17.13,17.13,0,0,0-2.18-12C489.75,600.89,486.61,601.16,484.38,603.53Z"/><path class="cls-21" d="M482.31,636.69a14.27,14.27,0,0,1-4.21-.32h0c-5.61-1.4-10.5-6.93-12.46-14.1-2.16-7.91-.3-15.73,5-20.92a14.51,14.51,0,0,1,9.87-4.16c6.24,0,10.28,4.66,11.8,6.41,4.38,5,4.94,10.81,5.27,14.26.45,4.65.92,9.47-2.27,13.38s-8.22,4.75-10.36,5.12A25,25,0,0,1,482.31,636.69Zm-3.4-3.7a13.6,13.6,0,0,0,5.43-.06c1.91-.32,5.89-1,8.25-3.89s1.92-6.53,1.5-10.85c-.31-3.23-.78-8.12-4.43-12.31-1.35-1.56-4.52-5.2-9.19-5.22a11.11,11.11,0,0,0-7.48,3.22c-4.32,4.25-5.85,10.8-4,17.48C470.6,627.33,474.5,631.89,478.91,633Z"/><path class="cls-21" d="M466.52,598.9c12,6,22.05,5,30.24-3.08l-4.69-6.53-5.32-1.63-6.88.2-7.26,1.78-4.54,1.9A5.87,5.87,0,0,0,466.52,598.9Z"/><path class="cls-26" d="M500.13,591.18s-17,11.12-37.64,5.89l3-7.53,15.27-6.29Z"/><path d="M542,575.92c-2.59,11.11-21.91,16.79-29.5,7.49a.55.55,0,0,1,.35-.88c5.52-.45,23.91-4.41,28.36-7.16.42-.15.88.15.79.55Z"/><path class="cls-21" d="M539.12,749.86a2.23,2.23,0,0,1-2.12-1.53c-.13-.39-3.12-8.3-17.7-5.21a2.23,2.23,0,0,1-.92-4.36c18.73-4,22.71,7.69,22.87,8.19a2.22,2.22,0,0,1-2.13,2.91Z"/><path class="cls-21" d="M509.89,734.57h-.24a2.25,2.25,0,0,1-2-2.46c1.56-14.49-8.73-20.8-9.17-21.06a2.23,2.23,0,0,1,2.27-3.85c.54.32,13.22,7.95,11.34,25.39A2.24,2.24,0,0,1,509.89,734.57Z"/><path class="cls-22" d="M513,749.58s20.76-4.12,22.52,6.53C530.93,752.21,522.87,750.36,513,749.58Z"/><path class="cls-7" d="M564.87,630.2h27.35c3,0,2.66-3.64,0-5.59,0,0-3.43-3.31-12.69-3.53-9.35,0-13.15,2.14-14.66,3.23C562.11,626.36,561.39,630.2,564.87,630.2Z"/><path class="cls-7" d="M577.7,634.52h-8.21c-.89,0-.67,1.09,0,1.68,0,0,1,1.06,3.81,1.06a9.17,9.17,0,0,0,4.4-1C578.48,635.71,578.74,634.52,577.7,634.52Z"/><path class="cls-7" d="M447.77,579.67s-5.64-14.72-10.4-18.88-5.88-5.66-15.15-8.2A24.38,24.38,0,0,0,405.58,554a56.78,56.78,0,0,0-17.32,13.22c-8,9.08-6.26,13.33-8.66,17.43s-1.25,18-1.25,18a43.16,43.16,0,0,0,7.41,17c6.26,8.87,19.94,9.23,19.94,9.23s13.33-1.14,15.83-6.06,1.71-9.21,1.94-13.31-3.3-20.8-3.3-20.8c13.67,5.41,17.2,13.74,17.2,13.74"/><path class="cls-26" d="M377.48,586.59a19,19,0,0,0,7.28,7.26c1.87,1.37,1.68,5,2.71,6.79a7.52,7.52,0,0,0,5.67,3.73c1.66.14,3.34-.43,5-.17,1.83.29,3.35,1.55,5.08,2.24a8.45,8.45,0,0,0,11.47-8.07c-.1-3.14-1.92-5.94-2.66-9-1.39-5.78,1.09-12.37-1.83-17.54s-10.75-7.06-12.19-13.31C389.43,563.5,382.66,573,377.48,586.59Z"/><g class="cls-30"><path class="cls-22" d="M388,569.5s-15.65,48.28,19.74,57.7a10.87,10.87,0,0,1-2.79,1.18c-8.77,2.35-20.23-6.42-25.35-15.9-8.83-16.33,1.31-34.48,2.39-36.34a39,39,0,0,1,4.73-6.49Z"/></g><path class="cls-19" d="M440.63,608.46s-9.73-17-19.51-19.72,0-.16,0-.16l2.95-16.94C436.48,575.4,441.46,600.76,440.63,608.46Z"/><path class="cls-19" d="M421.49,571.35s-6.66,4.16-5.32,16.58c1.2,10.29,4,23.48,3.83,25.52-.31,4-.93,8.08-3.23,10.94-2.47,3.07,3.53-1.71,3.53-1.71l3.7-9.11-2.48-22.11Z"/><path class="cls-21" d="M404.48,631.61c-.53,0-1.05,0-1.56,0-7-.36-13.38-3.56-19-9.51-12.1-12.86-9.06-31.43-7.84-36.81,3.64-16.07,17.75-34.16,36.74-36.06A34.12,34.12,0,0,1,433,553.42c12.77,7.34,16.2,20.79,16.95,24.74a2.23,2.23,0,1,1-4.38.83c-.56-2.94-2.8-11.86-10.21-18.41l-.21.18A27.08,27.08,0,0,0,426,571.13c-5,10.45-2,24.17-.54,29.59l.09.31a34,34,0,0,1,1.27,6.87c.23,3,.7,9.2-2.26,14.35C420.57,629.21,411.59,631.61,404.48,631.61Zm11.72-78.12c-1.12,0-2.11.06-2.91.14-16.92,1.69-29.55,18.06-32.84,32.61-.78,3.44-4.12,21.22,6.74,32.76,1.79,1.9,7.21,7.67,16,8.11,6,.31,14.26-1.36,17.55-7.08,2.28-4,1.88-9.25,1.68-11.79a28.83,28.83,0,0,0-1.12-6l-.09-.33c-2-7.33-4.63-21.32.82-32.7a31,31,0,0,1,9.64-11.41l-.84-.51A29.35,29.35,0,0,0,416.2,553.49Z"/><path class="cls-21" d="M438.85,611.67a2.22,2.22,0,0,1-2.1-1.48c-2.29-6.45-6.6-14.67-14.11-17.21q-.48-.16-1-.3a2.23,2.23,0,0,1,1.13-4.31c.44.12.87.24,1.29.39,7.29,2.46,13.13,9.35,16.88,19.93a2.22,2.22,0,0,1-1.35,2.85A2.19,2.19,0,0,1,438.85,611.67Z"/><path class="cls-21" d="M394.83,580.81a2.23,2.23,0,0,1-2.22-2.08c-1.08-15.1,8-25.25,12.56-27.8a2.23,2.23,0,1,1,2.18,3.89c-2.29,1.28-11.3,9.49-10.29,23.6A2.23,2.23,0,0,1,395,580.8Z"/><path class="cls-31" d="M428.74,621s62.4-46.84,110.62-45.68C496.14,513.21,418.27,550.64,428.74,621Z"/><path class="cls-32" d="M428.74,614.36s55.92-45.63,107.26-43"/><path class="cls-32" d="M428.74,605.66S477,570,516.9,571.64"/><path class="cls-32" d="M485.72,576s33.44-12.36,45.43-10.85"/><path class="cls-32" d="M428.9,595.2s46.78-28.06,81.31-27.6"/><path class="cls-32" d="M433.57,579.56s43.32-18.4,83.4-13.45"/><path class="cls-32" d="M441.74,566.46s40.3-11.27,81.33-1.19"/><path class="cls-32" d="M454.92,553.49c.5.43,39.8-2.87,73.41,9.32"/><path class="cls-32" d="M467.72,547s19.16-1.39,46.15,4.37"/><path d="M495.78,587.9C490,598.8,473.47,603,466,593.26a.76.76,0,0,1,.39-1.14,108.29,108.29,0,0,0,28.95-5.28C495.75,586.7,496,587.45,495.78,587.9Z"/><path class="cls-33" d="M548.77,877.88c-10.22,5.33-48,9.53-48,9.53L503,960.84c18.4,9.06,40,10.38,40,10.38,28.95,1.94,31-29.38,2.1-31.33Z"/><path class="cls-34" d="M563,949a47,47,0,0,0-6.46,19.61"/><path class="cls-34" d="M559.88,945.06S550,959,552,970.19"/><path class="cls-34" d="M556,943.27s-9.61,8.6-8.31,27.44"/><path class="cls-34" d="M551.66,941.08S540.1,955.14,544,970.76"/><path class="cls-34" d="M546.75,940.38s-10.57,14-8.09,30"/><path class="cls-34" d="M544.76,940.24s-14.65,8.55-11.46,29.51"/><path class="cls-34" d="M544.27,939.7s-16,2.54-17.66,28.78"/><path class="cls-34" d="M516.35,965.82s-4-29.6,28.48-26.6"/><path class="cls-34" d="M510.9,964.24s-6.62-31,34.14-24.35c0,0-24.32.2-23.71,27.16"/><path class="cls-34" d="M503.31,957s4.7-.12,7,1.7"/><path class="cls-34" d="M503,952.91s5-.68,7.81,1.33"/><path class="cls-34" d="M502.94,949.32a12.32,12.32,0,0,1,8.8,1.2"/><path class="cls-34" d="M502.75,944.33a19.48,19.48,0,0,1,10.94,2.5"/><path class="cls-34" d="M502.72,940.39s7.29-2.38,16.42,1.77"/><path class="cls-34" d="M503,936.39a51.88,51.88,0,0,1,23.82,3"/><path class="cls-34" d="M502.36,932.89s18.8-3.34,32.74,5.66"/><path class="cls-34" d="M502.52,928.81s24.69-2.59,36.75,9.24"/><path class="cls-34" d="M502,924.53s26.45-4.93,40.75,14.19"/><path class="cls-34" d="M502.26,921.08s29.19-6.19,42.73,15.75"/><path class="cls-34" d="M538.26,928.36s6,.49,7.13,2.52"/><path class="cls-34" d="M533.61,925.44s4.86-3.27,12.08,1"/><path class="cls-34" d="M501.93,917s27.83-3.67,43.55,4.7"/><path class="cls-34" d="M501.55,912.69s29.75-4.43,44.68,5.58"/><path class="cls-34" d="M501.43,908.7s30.32-4.81,45.1,5.1"/><path class="cls-34" d="M501.31,904.33s20.39-3.85,45.53,4.91"/><path class="cls-34" d="M501.49,899.9s18.28-3.56,45.89,5.16"/><path class="cls-34" d="M501.07,896.27s29.64-4,46.58,4.74"/><path class="cls-34" d="M501.32,892.45s32.62-3.06,45.94,2.78"/><path class="cls-34" d="M500.86,889.23s38.8.17,47.21,1.62"/><path class="cls-27" d="M517.91,885.12s21.59,4.12,30.16,2"/><path class="cls-27" d="M531.77,882.26s8.93,3,16.3,1.21"/><path class="cls-27" d="M464.19,878.92c9.61,6.2,46.07,8.87,46.07,8.87l-6.92,75.39c-18.53,8.05-39.65,7.91-39.65,7.91-28.35,0-28.35-32.37,0-32.37Z"/><path class="cls-32" d="M445.62,946.85a50.44,50.44,0,0,1,5,20.62"/><path class="cls-32" d="M448.88,943s8.74,15,6.08,26.4"/><path class="cls-32" d="M452.83,941.44s8.81,9.51,6.31,28.8"/><path class="cls-32" d="M457.16,939.48s10.36,15.27,5.48,31.07"/><path class="cls-32" d="M462,939.1s9.39,15.12,5.92,31.45"/><path class="cls-32" d="M464,939.1s13.72,9.8,9.24,31.14"/><path class="cls-32" d="M464.45,938.57s15.42,3.72,15.35,30.84"/><path class="cls-32" d="M490,967.38S495.8,937.2,464,938"/><path class="cls-32" d="M495.38,966.13s8.5-31.43-31.69-27.41c0,0,23.7,1.89,21.35,29.58"/><path class="cls-32" d="M503.27,959.19s-4.58-.46-7,1.25"/><path class="cls-32" d="M503.84,955s-4.86-1-7.71.83"/><path class="cls-32" d="M504.12,951.33a11.46,11.46,0,0,0-8.66.63"/><path class="cls-32" d="M504.64,946.2A18.11,18.11,0,0,0,493.81,948"/><path class="cls-32" d="M504.93,942.16s-7-3-16.13.69"/><path class="cls-32" d="M504.93,938a48.09,48.09,0,0,0-23.42,1.46"/><path class="cls-32" d="M505.77,934.47s-18.11-4.75-32.3,3.55"/><path class="cls-32" d="M505.88,930.25s-23.9-4.37-36.44,7"/><path class="cls-32" d="M506.64,925.89S481.17,919,466,937.67"/><path class="cls-32" d="M506.64,922.32s-28.06-8.39-42.69,13.25"/><path class="cls-32" d="M471.06,927.33s-5.87.09-7.11,2.09"/><path class="cls-32" d="M475.78,924.64s-4.52-3.7-11.83.18"/><path class="cls-32" d="M507.23,918.14s-26.9-5.7-42.78,1.82"/><path class="cls-32" d="M507.88,913.74s-28.72-6.62-43.93,2.65"/><path class="cls-32" d="M508.26,909.64s-29.25-7-44.31,2.14"/><path class="cls-32" d="M508.67,905.16S489,899.78,464,907.06"/><path class="cls-32" d="M508.78,900.59s-17.59-4.94-45.09,2.13"/><path class="cls-32" d="M509.43,896.88s-28.65-6.16-45.74,1.66"/><path class="cls-32" d="M509.43,892.93s-31.61-5.4-45-.31"/><path class="cls-32" d="M510.09,889.65s-37.84-2.5-46.14-1.59"/><path class="cls-27" d="M464.14,884.57s9.24.76,13.05-1.3"/><polygon class="cls-23" points="431.12 966.48 441.17 966.48 439.39 975.71 432.72 975.71 431.12 966.48"/><path class="cls-29" d="M501.93,887l-4.13,70.6c-4.24,6.81-15.38,10.31-28.36,12.93,14.21-1.08,26.69-3.78,33.9-7.37.74-.55-.35-1.51.2-2.15,18.4,9.07,39.4,10.19,39.4,10.19a30.32,30.32,0,0,0,16.94-3.84c-16.91-.61-45.71-7-48.55-13.73s5.4-50.69,5.43-68.46c-2.45.32-7.68,1.57-12.4,1.8C500,887.2,501.93,887,501.93,887Z"/><path class="cls-29" d="M475.47,544.34c-29.27,5.76-52.79,35.45-46.73,76.16,0,0,1.69-1.26,4.7-3.36C435.55,602.5,444,564.22,475.47,544.34Z"/></g></g></svg>