<svg xmlns="http://www.w3.org/2000/svg" width="1920" height="1080" viewBox="0 0 1920 1080"><defs><style>.cls-1{isolation:isolate;}.cls-2{fill:#634428;}.cls-3{fill:#37230e;}.cls-4{fill:#281909;}.cls-5{fill:none;}.cls-6{fill:#fff;}.cls-10,.cls-7,.cls-9{fill:#e5ae13;}.cls-10,.cls-12,.cls-14,.cls-17,.cls-22,.cls-25,.cls-8{mix-blend-mode:multiply;}.cls-15,.cls-8{opacity:0.3;}.cls-13,.cls-29,.cls-9{mix-blend-mode:screen;}.cls-11,.cls-13,.cls-14{fill:#4d8a62;}.cls-12{opacity:0.39;}.cls-16{fill:#ccc;}.cls-17{fill:#d8d8d8;}.cls-18{fill:#7a7a7a;}.cls-19{fill:#eee;}.cls-20{fill:#ffca91;}.cls-21,.cls-24{fill:#9c9c9c;}.cls-23,.cls-25{fill:#d28c37;}.cls-24{mix-blend-mode:overlay;}.cls-26{fill:#929899;}.cls-27{fill:#8e6131;}.cls-28{fill:#5a5958;}.cls-30{fill:#b2b2b2;}.cls-31{mix-blend-mode:darken;}.cls-32{fill:#513f37;}.cls-33{fill:#3f2c25;}.cls-34{fill:#937b70;}.cls-35{fill:#8e8e8e;}.cls-36{fill:#ababab;}.cls-37{fill:#facc59;}.cls-38{fill:#d4a241;}.cls-39{fill:#e3e3e3;}</style></defs><g class="cls-1"><g id="Layer_1" data-name="Layer 1"><path class="cls-2" d="M1367.2,591.6c-94.7-121.8-103.8-229,0-316.8l-26-22.5c-82.9,0-144.7-50.6-110.3-144L1219.7,88s-213-34.4-255.9-41V45.9c-.1,0-1.5.2-3.7.5-2.3-.3-3.6-.5-3.7-.5V47c-42.9,6.7-255.9,41-255.9,41l-11.2,20.4c34.4,93.4-27.4,144-110.3,144l-26,22.5c103.8,87.8,94.7,195,0,316.8-60.4,81.5-42.5,202.3,0,281,98,152.1,394.2,111.5,407,158.3v3.2a19.42,19.42,0,0,1,.2-2.4,9.74,9.74,0,0,1,.2,2.4V1031c12.8-46.8,308.9-6.2,407-158.3C1409.7,793.9,1427.6,673.1,1367.2,591.6Z"/><path class="cls-3" d="M1023.43,985.85c26.8-4,60-7.6,95.3-13.3V93.15c-31.4-5.1-66.1-10.6-95.3-15.3v908Z"/><path class="cls-3" d="M1139.43,969.05c31.8-5.9,64.6-13.7,95.3-25.4V234.15c-24-23.2-32.7-59.3-15.1-107l-10.7-19.5s-30.1-4.9-69.4-11.2v872.6Z"/><path class="cls-3" d="M781.93,969.05c34.1,6.3,67.1,10.2,95.3,14V81.15c-31.1,5-65.8,10.6-95.3,15.3Z"/><path class="cls-3" d="M1349.93,589.35c-90.6-116.5-99.3-219,0-303l-24.9-21.5c-26.3,0-50.4-5.4-69.6-15.8v685.8c38.2-17.4,71.9-41.8,94.5-76.9C1390.63,782.85,1407.73,667.35,1349.93,589.35Z"/><path class="cls-3" d="M665.93,249v686.2c30,13.6,62.8,23,95.3,29.9V99.75c-28.9,4.7-49.1,7.9-49.1,7.9l-10.7,19.5C723.33,186.65,704.43,228,665.93,249Z"/><path class="cls-3" d="M1002.73,74.55c-17.1-2.7-30.8-4.9-38.7-6.1v-1.1c-.1,0-1.4.2-3.6.5-2.2-.3-3.4-.5-3.6-.5v1.1c-10.7,1.7-32.6,5.1-59,9.4V986c34.9,5.3,59,11.2,62.3,23.6v3.1a16.41,16.41,0,0,1,.2-2.3,16.41,16.41,0,0,1,.2,2.3v-3.1c2.7-9.8,18.3-15.6,42-20.2V74.55Z"/><path class="cls-3" d="M645.23,257.75a164.47,164.47,0,0,1-49.3,7.2L571,286.45c99.3,84,90.6,186.5,0,303-57.8,77.9-40.6,193.5,0,268.7,18.5,28.7,44.4,50.2,74.2,66.7Z"/><path class="cls-4" d="M592.3,636c-27.8,39.4-38.9,90.3-29.8,137.5,2.3,11.3,6.4,22.5,14.8,30.5a31.23,31.23,0,0,0,14,7.9c9.7,2.4,21.8-1.6,24.8-11.8,2.1-6.6-.2-14.7-7.1-17.3s-15.2-.6-21.3,3.5c-5.9,3.7-11.5-4.8-5.7-8.7a37.72,37.72,0,0,1,20.1-5.9c12-.1,22.6,7.9,23.7,20.2a25.77,25.77,0,0,1-6.9,20.3c-13.2,13.1-34.7,9.7-46.6-3.1-9.2-9.3-13.7-22-15.8-34.5-8-48.8,4.8-100.4,34.3-139.8a1.06,1.06,0,0,1,1.4-.2,1.18,1.18,0,0,1,.1,1.4Z"/><path class="cls-4" d="M695.5,932.8c1.4-2.2,3.2-4.4,4.6-6.5.8-1.2,3.6-5.3,4.4-6.6,1.7-2.8,4-6.3,5.6-9,55.5-94.2,28.5-207.9,9.5-308.9-13.9-71-29.5-143.2-23.9-216,3-43.6,13.8-88.1,37.5-125.1a1,1,0,0,1,1.5-.3,1.09,1.09,0,0,1,.4,1.3c-4.6,13.7-8.8,27.4-12.3,41.2-12.2,48.3-16.1,98.3-14,148,2.4,63.9,14.7,129.2,26.1,192.1,12.2,70.9,24.9,145.3,4.9,216.1-6.5,22.9-16,45.2-30,64.5a142.61,142.61,0,0,1-10.6,12.7c-1.9,2.1-5.6-.5-3.7-3.5Z"/><path class="cls-4" d="M827.9,123.5a1091,1091,0,0,1,28.2,177.9c2.2,30,1.8,60,2.4,90,.2,54.6-.9,110.8-9.1,164.9-1.9,15-4.8,29.8-10.3,44a2.62,2.62,0,0,1-3.5,1.5,2.71,2.71,0,0,1-1.7-2.6c-.1-15.2,2.8-29.7,5.1-44.5,10.4-63.5,18.4-128.8,16-193.2-1.6-28.8-4.4-60.5-7.6-89.3a1143.47,1143.47,0,0,0-20.7-117.6s-7.2-29-7.2-29.1c-1.1-5.2,6.7-7.7,8.4-2Z"/><path class="cls-4" d="M805.9,746.6c1.4,7.2,2.4,14.3,3.6,21.4,1.8,10.5,4,20.8,6.1,31.2,5,24.3,11,48.5,22.1,70.9,6.4,12.8,14.3,25.1,24.8,35a2.57,2.57,0,0,1,.1,3.7,2.65,2.65,0,0,1-4.1-.3c-8.7-11.9-17.8-23.3-26-35.5-14.6-21.3-26.5-45.5-31.7-71a151.13,151.13,0,0,1-2.1-33.6,125.51,125.51,0,0,1,3.4-22.1c.4-1.9,3.5-1.8,3.8.3Z"/><path class="cls-4" d="M924.9,975.7c14.1-12.7,26.8-27.2,35.8-43.9s14.6-34.9,18.5-53.5a269.92,269.92,0,0,0,6.5-64.1c-.7-35.9-7.7-71.4-14.8-106.6C960.7,657.2,949.4,606,942.3,555c-1.6-12.8-2.9-26.7-3.5-39.6-5.4-119.7,43.5-236.9,24.9-356.6-1.2-7-2.9-15.8-4.6-22.8a230.94,230.94,0,0,0-19.6-53.2,5.47,5.47,0,1,1,9.9-4.6c14.7,36.4,20.9,75.3,21.6,114.2.8,38.6-3.4,77.1-9.1,115.2-11.6,76-28.5,152.4-19.8,229.4,7.1,76.8,37.5,149.1,44.8,226.5a458.07,458.07,0,0,1,2.4,65.2c-1,24.2-3,48.6-9.6,72-6.5,22.3-17.9,43.3-34.1,60.1l-2.6,2.6-2.6,2.6-2.7,2.5c-3.5,3.4-7.4,6.3-11.1,9.4a1.31,1.31,0,0,1-1.9-.2,1.42,1.42,0,0,1,.2-2Z"/><path class="cls-4" d="M1037.3,84.3c19.7,20.5,35.5,45,44,72.3,11.4,36.2,12.1,74.7,9.9,112.3-3.1,46.9-12.1,93.2-18.1,139.5s-11.6,92.8-14.1,139.5c-4.9,102.7,2.6,206.3,25.1,306.6a950,950,0,0,0,31,107.5,5.42,5.42,0,1,1-10.3,3.4A1082.09,1082.09,0,0,1,1076.9,856c-7.3-36.7-12.9-74.3-16.6-111.5s-5.8-74.9-6.3-112.4c-.4-75,2-150.3,11.4-224.8,12-104,55.3-236.9-31.9-319.4a2.57,2.57,0,0,1-.1-3.7,2.8,2.8,0,0,1,3.9.1Z"/><path class="cls-4" d="M1018.7,91c28.9,48.5,37.2,106.3,36.4,162-.3,27.9-2.9,55.7-5.8,83.4-7.2,64.1-13.6,128.7-15.7,193.2-3,110.7,7.1,221.8,28.6,330.4q11,54.3,25.8,107.7a4.62,4.62,0,1,1-8.9,2.5q-6.75-27-12.8-54.3c-28.2-126.7-40.8-256.7-39.4-386.4a1577.27,1577.27,0,0,1,12.2-194.2c5.4-45.6,11.1-91.6,6.9-137.5-2.5-27.3-8.2-54.5-19.2-79.8a199.6,199.6,0,0,0-12.6-24.3,2.53,2.53,0,0,1,.9-3.6,2.59,2.59,0,0,1,3.6.9Z"/><path class="cls-4" d="M1195.6,108.9c2.6,18.8,2.2,40.4,1.4,59.5-.9,18.3-3.1,41-5.4,59.2-2.6,19.4-5.6,39.4-8.9,58.7a922.59,922.59,0,0,1-34.9,134,2.62,2.62,0,1,1-5-1.6,615.35,615.35,0,0,0,25.1-74.9c9.9-37.8,17-77.6,19.7-116.5,1.8-28.5,2.1-60,1.9-88.6.2-9.9.1-19.7.9-29.6a2.61,2.61,0,0,1,5.2-.2Z"/><path class="cls-4" d="M1222.2,221c6.8,54.1-9,107.9-27.3,158.2-14.5,39.2-29.3,79.2-35,120.8-3.9,26.4-3.3,53.2-.8,79.6,6.8,60.6,19.4,120.7,27.8,181.2,4.4,28.9,16.3,107.9,20.8,136.2,2.4,15.1,4.8,30.2,7.5,45.3a1.37,1.37,0,1,1-2.7.4c-2.4-15.1-5-30.2-7.6-45.3-4.9-27.9-19.2-106.5-24.5-135.6-10.2-60.5-23.1-120.4-27.4-181.8-1.7-26.9-.9-54,3.7-80.6a461.36,461.36,0,0,1,11.6-50.5c8.5-30.1,19-63.5,27.8-93.6,5.4-18.2,10.7-36.5,14.5-55.1,2.3-11,4.2-22.4,5.4-33.6a263.56,263.56,0,0,0,1.1-45.3,2.61,2.61,0,0,1,2.5-2.8,3.2,3.2,0,0,1,2.6,2.5Z"/><path class="cls-4" d="M1357.2,635.7c-8.4,9.1-13.1,21.6-15.2,33.8-4.9,27.3,2.3,56.5,5.1,83.7,1.2,11.4,1.8,23,.6,34.5a104.54,104.54,0,0,1-5,23.2,5.11,5.11,0,0,1-6.6,3.3,5.23,5.23,0,0,1-2.9-7.5,73.22,73.22,0,0,0,7.3-20.1c1.9-8.8,2.3-18.3,2.1-27.5-.2-9-1.3-19-2.4-27.9-3.4-26.2-7.6-53.5-.9-79.7a82.8,82.8,0,0,1,9.2-22.3c4.4-6.7,13.8.2,8.7,6.5Z"/><path class="cls-4" d="M1304.7,578.4c-14.5,19.2-20.7,43.4-21.8,67.2-2,50.2,17.9,97.1,26.8,146,4.5,24.7,6.4,50.3,1.4,75.1a1,1,0,0,1-2-.4,163.3,163.3,0,0,0,1.9-18.5,200.52,200.52,0,0,0-2.3-37.1c-9.4-61.7-42.2-120.8-33.9-184.7,2.5-19.4,8.9-38.5,20.3-54.7,4.8-6.3,14.2.5,9.6,7.1Z"/><rect class="cls-5" x="805.8" y="594" width="308.4" height="71"/><rect class="cls-5" x="758.9" y="757.5" width="402.3" height="71"/><path id="tlo" class="cls-6" d="M1664.93,193.85c.3-1,4.61-17.23,5.68-19.18-7.27-6.36-38.43-37.66-1.24-30.9,0,0,17.22-19.53,8.87-51.13,0,0,12.61,10.12,15.27,18.46,0,0,18.65,4,18.2,32.67,0,0,2.93-9.41,2.93-11.54v-7.72s3.11.53,4.27-.53,4.08.35,4.08.35a4.73,4.73,0,0,0,3.37,1.51,2.35,2.35,0,0,1,2.4,1.78s1.42,2.31,2.4,1.15-1.34,10.3-13.59,16.16l-4.44,2.4s2.18,24.19-21.52,40c0,0-6.4,6.79-8.26,12.38,0,0,4.93,23.57-5.19,31.83,0,0-7.09,3.18-16.92.8,0,0-9.85-2-9.85-13.72s10-18.11,10-18.11A22.12,22.12,0,0,0,1664.93,193.85Z"/><path d="M1697.27,138.54c.34-18.51-16.37-48.17-19-45.9,8.35,31.6-8.87,51.13-8.87,51.13Z"/><path class="cls-7" d="M1711.71,143.77s2.93-9.41,2.93-11.54v-7.72s3.11.53,4.27-.53,4.08.35,4.08.35a4.73,4.73,0,0,0,3.37,1.51,2.35,2.35,0,0,1,2.4,1.78s1.42,2.31,2.4,1.15-1.34,10.3-13.59,16.16l-4.44,2.4"/><path class="cls-7" d="M1681.25,218.08l26,15.18s-.51-7.24-21.54-23"/><path class="cls-9" d="M1703.42,226.41c-3.59-4.42-11.23-12.22-18.87-16.27l-.93,3.74A49.44,49.44,0,0,1,1703.42,226.41Z"/><path class="cls-7" d="M1684.1,203.67l25.48-5.39s-1.46,15.3-25.88,15.3"/><path class="cls-10" d="M1683.7,210.7l.25-7,25.63-5.42C1700.31,204.9,1687.25,209.44,1683.7,210.7Z"/><path class="cls-11" d="M1661.24,232.38s-9.85-2-9.85-13.72,10-18.11,10-18.11a22.12,22.12,0,0,0,3.55-6.7l18.42,5.9s4.93,23.57-5.19,31.83c-5,2.24-10.75,2.1-16.92.8,0,0-9.85-2-9.85-13.72s10-18.11,10-18.11"/><path d="M1669.37,143.79c-7.29-8.48,3.28-29.81-1.06-53.26-.92,3-42.25,54.07,2.3,84.14-25.32-26.34-5.87-57.71-3.61-70.49C1669,118.23,1660.73,139.69,1669.37,143.79Z"/><path d="M1685.37,195.54c.45-.74.93-1.47,1.41-2.17a58.42,58.42,0,0,1,4.83-6c-8.73-6.6-12.59-8.19-21-12.7a88.64,88.64,0,0,0-3,9.35"/><path class="cls-6" d="M1660,223.05c0-4,3.91-7.25,8.72-7.25,11.57.37,11.57,14.14,0,14.51C1663.93,230.31,1660,227.06,1660,223.05Z"/><ellipse cx="1667.97" cy="223.05" rx="2.35" ry="3.35"/><path class="cls-10" d="M1717.48,131.39c0-.13,1-7.15,1-7.15l1.67-.66Z"/><path class="cls-10" d="M1720.19,132.23l3.41-7.35a4,4,0,0,0,1.37.75C1725.66,125.8,1720.19,132.23,1720.19,132.23Z"/><path class="cls-10" d="M1728,126.71s.41.86.68,1-6,8-6,8Z"/><path class="cls-6" d="M1670.61,174.67c-25.55-25-6.11-56.54-3.61-70.49,2.47,10.49-5.71,33.12,2.37,39.61"/><path class="cls-12" d="M1697.27,138.54c-13.7,4.48-49.36,41.92-30.27-34.36,4.11,12.13-6.85,30.24,2.37,39.59C1674.72,140.67,1685.84,139.84,1697.27,138.54Z"/><path d="M1677.28,224.36a33.86,33.86,0,0,1-17.26-1.31C1659,230.73,1674.76,234.62,1677.28,224.36Z"/><path class="cls-13" d="M1666.68,194.41l-3.54,7.67a25,25,0,0,0-9.93,24.2,15.35,15.35,0,0,1-1.82-7.62c0-11.72,10-18.11,10-18.11a22.12,22.12,0,0,0,3.55-6.7Z"/><path class="cls-14" d="M1680.32,198.78l3,1s4.93,23.57-5.19,31.83l-.55.23C1684.13,219.26,1680.6,200.17,1680.32,198.78Z"/><path class="cls-10" d="M1713.14,147.33l-.32-.81c10.93-5.65,14.73-14.3,16-18.79.31.46,1.48,2,2.32,1s-1.33,10.3-13.58,16.17Z"/><path class="cls-15" d="M1701.64,178.34c4.85-12.71,12.43-37.47,3.69-50-15-17.11-14.5-19.29-15-23.28a22.06,22.06,0,0,1,3.1,5.83s18.65,4,18.2,32.67l1.42,3.55A45.16,45.16,0,0,1,1701.64,178.34Z"/><path id="tlo-2" data-name="tlo" class="cls-6" d="M1604.38,492.53c-.39-1.27-5.91-22-7.28-24.55,9.3-8.14,49.19-48.2,1.6-39.55,0,0-22-25-11.37-65.46,0,0-16.14,13-19.55,23.64,0,0-23.86,5.12-23.29,41.82,0,0-3.75-12-3.75-14.77v-9.89s-4,.69-5.46-.68-5.23.46-5.23.46a6.06,6.06,0,0,1-4.31,1.93,3,3,0,0,0-3.07,2.27s-1.82,3-3.07,1.48,1.7,13.18,17.39,20.68l5.68,3.07s-2.79,31,27.56,51.25c0,0,8.18,8.7,10.57,15.86,0,0-6.31,30.17,6.64,40.74,0,0,9.08,4.07,21.65,1,0,0,12.62-2.55,12.62-17.55s-12.79-23.19-12.79-23.19A28.27,28.27,0,0,1,1604.38,492.53Z"/><path d="M1563,421.73c-.44-23.69,21-61.65,24.35-58.76-10.68,40.46,11.37,65.46,11.37,65.46Z"/><path class="cls-7" d="M1544.49,428.43s-3.75-12-3.75-14.77v-9.89s-4,.69-5.46-.68-5.23.46-5.23.46a6.06,6.06,0,0,1-4.31,1.93,3,3,0,0,0-3.07,2.27s-1.82,3-3.07,1.48,1.7,13.18,17.39,20.68l5.68,3.07"/><path class="cls-7" d="M1583.48,523.56,1550.2,543s.65-9.28,27.57-29.49"/><path class="cls-9" d="M1555.1,534.22c4.6-5.66,14.38-15.64,24.16-20.83l1.19,4.79A63.21,63.21,0,0,0,1555.1,534.22Z"/><path class="cls-7" d="M1579.84,505.11l-32.62-6.9s1.87,19.59,33.13,19.59"/><path class="cls-10" d="M1580.35,514.1l-.32-9-32.81-6.94C1559.09,506.68,1575.8,512.49,1580.35,514.1Z"/><path class="cls-11" d="M1609.09,541.85s12.62-2.55,12.62-17.55-12.79-23.19-12.79-23.19a28.27,28.27,0,0,1-4.54-8.58l-23.58,7.56s-6.31,30.17,6.64,40.74c6.36,2.88,13.76,2.69,21.65,1,0,0,12.62-2.55,12.62-17.55s-12.79-23.19-12.79-23.19"/><path d="M1598.7,428.45c9.32-10.84-4.21-38.15,1.35-68.17,1.18,3.86,54.09,69.21-3,107.7,32.42-33.71,7.52-73.87,4.63-90.23C1599.21,395.74,1609.75,423.21,1598.7,428.45Z"/><path d="M1578.21,494.7c-.57-.95-1.19-1.88-1.81-2.77a75.36,75.36,0,0,0-6.17-7.7c11.16-8.43,16.11-10.48,26.87-16.25.66,1.2,2.25,6.56,3.79,12"/><path class="cls-6" d="M1610.66,529.92c0-5.13-5-9.28-11.17-9.28-14.8.47-14.8,18.09,0,18.57C1605.66,539.21,1610.66,535.05,1610.66,529.92Z"/><ellipse cx="1600.49" cy="529.92" rx="3.01" ry="4.29"/><path class="cls-10" d="M1537.1,412.58c-.06-.17-1.33-9.16-1.33-9.16l-2.14-.83Z"/><path class="cls-10" d="M1533.63,413.66l-4.36-9.41a5.19,5.19,0,0,1-1.75,1C1526.63,405.43,1533.63,413.66,1533.63,413.66Z"/><path class="cls-10" d="M1523.6,406.59s-.53,1.11-.87,1.27,7.64,10.17,7.64,10.17Z"/><path class="cls-6" d="M1597.1,468c32.72-32,7.82-72.37,4.63-90.23-3.16,13.43,7.3,42.4-3,50.7"/><path class="cls-12" d="M1563,421.73c17.54,5.74,63.18,53.67,38.75-44-5.27,15.52,8.77,38.71-3,50.68C1591.84,424.46,1577.61,423.4,1563,421.73Z"/><path d="M1588.56,531.59a43.33,43.33,0,0,0,22.1-1.67C1612,539.74,1591.79,544.73,1588.56,531.59Z"/><path class="cls-13" d="M1602.14,493.25l4.53,9.82s15.64,10.06,12.7,31a19.43,19.43,0,0,0,2.34-9.74c0-15-12.79-23.19-12.79-23.19a28.27,28.27,0,0,1-4.54-8.58Z"/><path class="cls-14" d="M1584.67,498.85l-3.87,1.24s-6.31,30.17,6.64,40.74l.71.3C1579.79,525.06,1584.31,500.62,1584.67,498.85Z"/><path class="cls-10" d="M1542.66,433l.41-1c-14-7.23-18.86-18.3-20.51-24.05-.39.59-1.89,2.59-3,1.32-1.25-1.48,1.7,13.18,17.38,20.69Z"/><path class="cls-15" d="M1557.39,472.68c-6.21-16.26-15.92-48-4.73-64,19.2-21.9,18.55-24.69,19.19-29.8a29,29,0,0,0-4,7.46s-23.87,5.12-23.3,41.83l-1.82,4.54S1540.87,453.87,1557.39,472.68Z"/><path id="tlo-3" data-name="tlo" class="cls-6" d="M142.11,255.48c-.26-.85-4-14.79-4.88-16.47,6.24-5.46,33-32.34,1.07-26.53,0,0-14.79-16.77-7.62-43.91,0,0-10.83,8.69-13.12,15.86,0,0-16,3.43-15.63,28,0,0-2.51-8.08-2.51-9.91v-6.63s-2.67.46-3.66-.46-3.51.31-3.51.31a4.06,4.06,0,0,1-2.9,1.29,2,2,0,0,0-2,1.53s-1.22,2-2.06,1,1.14,8.84,11.66,13.87l3.81,2.06s-1.86,20.78,18.49,34.39c0,0,5.49,5.83,7.09,10.63,0,0-4.23,20.24,4.46,27.33a24.15,24.15,0,0,0,14.53.69s8.46-1.71,8.46-11.78-8.58-15.55-8.58-15.55A18.85,18.85,0,0,1,142.11,255.48Z"/><path d="M114.34,208c-.29-15.89,14.06-41.36,16.34-39.41-7.17,27.14,7.62,43.91,7.62,43.91Z"/><path class="cls-7" d="M101.93,212.48s-2.51-8.08-2.51-9.91v-6.63s-2.67.46-3.66-.46-3.51.31-3.51.31a4.06,4.06,0,0,1-2.9,1.29,2,2,0,0,0-2,1.53s-1.22,2-2.06,1,1.14,8.84,11.66,13.87l3.81,2.06"/><path class="cls-7" d="M128.1,276.3l-22.33,13s.44-6.22,18.49-19.78"/><path class="cls-9" d="M109.06,283.45c3.08-3.8,9.64-10.49,16.2-14l.8,3.21A42.35,42.35,0,0,0,109.06,283.45Z"/><path class="cls-7" d="M125.65,263.92l-21.88-4.63S105,272.43,126,272.43"/><path class="cls-10" d="M126,270l-.21-6-22-4.66C111.73,265,122.94,268.87,126,270Z"/><path class="cls-11" d="M145.28,288.57s8.46-1.71,8.46-11.78-8.58-15.55-8.58-15.55a18.85,18.85,0,0,1-3-5.76l-15.82,5.07s-4.23,20.24,4.46,27.33c4.27,1.93,9.23,1.81,14.53.69,0,0,8.46-1.71,8.46-11.78s-8.58-15.55-8.58-15.55"/><path d="M138.3,212.49c6.25-7.27-2.82-25.59.91-45.73.79,2.59,36.28,46.43-2,72.25,21.75-22.61,5.05-49.56,3.11-60.53C138.64,190.55,145.71,209,138.3,212.49Z"/><path d="M124.56,256.94c-.39-.64-.8-1.26-1.21-1.86a48.78,48.78,0,0,0-4.15-5.16c7.49-5.66,10.81-7,18-10.91a76,76,0,0,1,2.54,8"/><path class="cls-6" d="M146.33,280.57c0-3.44-3.36-6.23-7.49-6.23-9.94.32-9.93,12.14,0,12.46C143,286.8,146.33,284,146.33,280.57Z"/><ellipse cx="139.5" cy="280.57" rx="2.02" ry="2.88"/><path class="cls-10" d="M97,201.85c0-.12-.89-6.15-.89-6.15l-1.44-.56Z"/><path class="cls-10" d="M94.65,202.57l-2.92-6.32a3.56,3.56,0,0,1-1.18.65C90,197.05,94.65,202.57,94.65,202.57Z"/><path class="cls-10" d="M87.92,197.83s-.35.74-.58.85,5.12,6.82,5.12,6.82Z"/><path class="cls-6" d="M137.23,239c22-21.45,5.25-48.55,3.11-60.53-2.12,9,4.9,28.44-2,34"/><path class="cls-12" d="M114.34,208c11.76,3.86,42.39,36,26-29.5-3.54,10.41,5.88,26-2,34C133.7,209.82,124.15,209.11,114.34,208Z"/><path d="M131.5,281.69a29.08,29.08,0,0,0,14.83-1.12C147.24,287.16,133.67,290.5,131.5,281.69Z"/><path class="cls-13" d="M140.61,256l3,6.59a21.44,21.44,0,0,1,8.52,20.78,13,13,0,0,0,1.57-6.54c0-10.06-8.58-15.55-8.58-15.55a18.85,18.85,0,0,1-3-5.76Z"/><path class="cls-14" d="M128.89,259.72l-2.6.83s-4.23,20.24,4.46,27.33l.47.21C125.62,277.31,128.65,260.91,128.89,259.72Z"/><path class="cls-10" d="M100.71,215.53l.27-.69C91.6,210,88.33,202.56,87.23,198.71c-.27.39-1.27,1.73-2,.88s1.14,8.85,11.66,13.88Z"/><path class="cls-15" d="M110.59,242.16c-4.17-10.91-10.68-32.17-3.17-42.95,12.87-14.69,12.44-16.56,12.87-20a19.49,19.49,0,0,0-2.66,5s-16,3.44-15.63,28.06l-1.22,3.05A38.8,38.8,0,0,0,110.59,242.16Z"/><path class="cls-6" d="M1616.18,860.7a161.63,161.63,0,0,1,27.88-21.38l-4.06-9.6-3.72-5.56-14.53,8.14c-7.77,5.23-14.9-5.29-6.77-10.85,27.35-24.78,74.74-43.21,137.44-56.77l34-4.87c13-1.37,14.63,14.35,1.66,15.72l-26,2.06s1.15,14.58,1,17.15h0l21-4c12.59-1.87,13.64,14.39,1.06,16.26l-25.25,3c-59.77,8.24-137.45,61.66-137.45,61.66C1614.42,877.88,1608.09,867,1616.18,860.7Z"/><path class="cls-16" d="M1693.46,833.24a4.79,4.79,0,0,1-2.74-2.45c-2-4.64,6-12.39,17.65-17.29s22.76-5.13,24.71-.49c.61,1.46.25,3.22-.89,5.1A317.48,317.48,0,0,0,1693.46,833.24Z"/><path class="cls-17" d="M1616.22,873.32c62.23-61.26,161.43-70.34,176.75-71.4-1.31,2.46-3.93,4.51-7.92,5.1l-25.25,3c-59.77,8.24-137.45,61.66-137.45,61.66C1620.07,873.49,1617.93,873.85,1616.22,873.32Z"/><path class="cls-17" d="M1621.75,832.3c-2.71,1.82-5.34,1.73-7.28.6A153.59,153.59,0,0,1,1637,821.53L1633,826Z"/><path class="cls-17" d="M1788.05,775.53l-24.31,1.92L1760.1,776c11.87-3.47,27.14-4.17,35.47-4.27C1794.16,773.64,1791.68,775.15,1788.05,775.53Z"/><path class="cls-18" d="M1795,801.8l0-.12a9.47,9.47,0,0,0-1.23-9.36c-1.28-1.61-4.28-4.17-10.08-3.31l-19,3.6c-.12-3.68-.59-10.19-.84-13.4l24.29-1.91a12.47,12.47,0,0,0,8.22-3.82,9,9,0,0,0-1.42-13.42,12.46,12.46,0,0,0-8.79-2L1752.05,763c-66.35,14.35-111.55,33-138.18,57.11-4.89,3.42-5.15,8.59-2.86,12s6.94,4.93,11.67,1.79l14.17-7.81,5.58,12.14A169.73,169.73,0,0,0,1615,859.37c-5,4-5.34,9.9-2.69,13.3,2.19,2.8,6.45,4,11.07.48,2.12-1.45,78.51-53.32,136.65-61.33l25.22-3C1789.94,808.08,1793.46,805.55,1795,801.8ZM1760.1,776l.13,1.77c.32,4,1.11,14.89,1,16.89l-.15,2.29,23.26-4.41c2.93-.43,5.33.28,6.72,2a5.94,5.94,0,0,1,.7,5.86c-1,2.6-3.56,4.38-7,4.89l-25.2,3c-59.53,8.21-137.47,61.42-138.25,62l-.08.06c-2.41,1.87-4.77,1.94-6.15.17-1.57-2-1.35-5.64,2.16-8.39l.15-.13A159.61,159.61,0,0,1,1645,840.83l1.29-.8-8.44-18.91-17.09,9.71c-3,2-5.57,1-6.82-.8s-1.2-4.9,2-7.12l.19-.15c25.77-23.35,71.72-42.3,136.57-56.33l33.9-4.87c5.41-.57,8.23,2.33,8.54,5.27a5.54,5.54,0,0,1-1.42,4.3,9,9,0,0,1-5.9,2.64Z"/><path class="cls-6" d="M1642.32,837c-6.88,6.27-15.21-6.36-4.63-9.61"/><path class="cls-16" d="M1638,827.91c-8.65,3.11-2.74,8.76-2.74,8.76-3.57-5.24,3.29-7.59,3.29-7.59Z"/><path class="cls-18" d="M1634.94,827.42a11.58,11.58,0,0,1,2.44-1.06,1.06,1.06,0,0,1,.62,2c-2.61.8-4.13,2.29-4.28,4.2a5,5,0,0,0,2.77,4.64,4.42,4.42,0,0,0,5.11-1,1.07,1.07,0,0,1,1.5.07,1.06,1.06,0,0,1-.07,1.49,6.48,6.48,0,0,1-7.46,1.36,7.05,7.05,0,0,1-4-6.71A6.39,6.39,0,0,1,1634.94,827.42Z"/><path class="cls-6" d="M1709,763.58a19.27,19.27,0,0,0-2.87-3.14c-1.75-1.52-3.46-2.43-7.19-4-5.9-2.53-5.8-2-8.39-3.4a39.4,39.4,0,0,1-7.17-5c-3.58-2.93-5.55-4.54-7.42-7.35-1.72-2.58-4-6-3.37-10.3a12.37,12.37,0,0,1,3.89-7.12c5-5.23,10.49-5.14,14.68,1.35,2.51,3.57,1.56,5.34,4.52,10.95a21.24,21.24,0,0,0,3.24,4.92c1.3,1.43,2.33,2.09,7.43,5.2,5.38,3.29,6.07,3.67,7.57,4.69a71.15,71.15,0,0,1,6.31,4.78"/><path class="cls-19" d="M1714.71,751.69c-5.58-3.1-9.57-5.2-12.63-6.73a17.31,17.31,0,0,1-3.47-2.21,18.63,18.63,0,0,1-4.73-6.22c-.34-.67-.27-.6-2.73-7.15-1-2.63-1.5-4-2.49-5.07a8.76,8.76,0,0,0-4.31-2.76c-3.19-.75-6.87,1-9.35,4.34l3.75-4.17,3.81-1.83,4.32.13,3.45,3.4,2.22,3.82,1.51,4.43,1.46,3.58,4,6,15,9.85.44.4Z"/><path class="cls-16" d="M1705.1,758.25c-.2-.17.32-1.17-1.94-2.86a29.52,29.52,0,0,0-5.27-2.5,62.87,62.87,0,0,1-7.27-3.14c-5.28-2.72-8.09-6.92-9.23-8.19-1.78-2-4-5-4.27-8.78-.55-6.36,6.56-11.52,7.64-12.74l-4.64.4-5.77,5.46-1.61,4.9,1,5.41,1.84,3.34,5,5.71,6.32,5,4.81,2.79,6,2.61,6.93,3.19Z"/><path class="cls-18" d="M1708.78,763.73a19,19,0,0,0-5.72-4.64c-2.19-1.1-4.58-2-6.91-2.93-1.77-.72-3.66-1.21-5.4-2a39.72,39.72,0,0,1-8-5.42,48.77,48.77,0,0,1-5.79-5.15,23.8,23.8,0,0,1-2.36-3.16,16.88,16.88,0,0,1-3-7.41c-.54-5.11,2.35-9.2,6.21-12.23,4.79-3.66,9.83-2.64,13.37,2.08.18.25.68.94.86,1.21a16,16,0,0,1,2.34,5.51,29.31,29.31,0,0,0,2.84,6.8,17.93,17.93,0,0,0,2,3,12,12,0,0,0,2.63,2.39c2,1.4,4.24,2.71,6.36,4.08l3.21,2a57.22,57.22,0,0,1,9,7.08l-.32.37c-2-1.52-4.09-3-6.23-4.3-3.19-2-6.58-3.8-9.81-5.77a35.62,35.62,0,0,1-4.86-3.27c-2.5-2.26-4-5.22-5.4-8.23-1.08-2.24-1.44-4.94-2.51-7.1-2.82-5.11-6.94-8.33-12.28-4.29-4.45,3.53-7,8.16-4.52,13.75a28,28,0,0,0,3.93,6.13,49.36,49.36,0,0,0,5.52,5,32.9,32.9,0,0,0,9.29,6,73.71,73.71,0,0,1,7.08,2.92,36.34,36.34,0,0,1,3.44,1.79,16.69,16.69,0,0,1,5.49,5.47l-.42.31Z"/><path class="cls-18" d="M1706.71,753.39a64.49,64.49,0,0,1-25.19-18.2,3.37,3.37,0,1,1,5.12-4.37,64,64,0,0,0,9.21,11.88,61.9,61.9,0,0,0,11.64,9.13.88.88,0,0,1-.78,1.56Z"/><path class="cls-6" d="M1732.18,743.59c13.78.72,20.68,10.3,20.73,21.44q-.9,16.51-12.26,26.82c-11,11.48-44.1-.42-42-21.64C1699.78,760.38,1705.26,742.51,1732.18,743.59Z"/><path class="cls-16" d="M1748.8,752.8c-10-17.22-42.86-8.75-42.66,2.86.9-1,23.15-19.41,42.45-2.66"/><path class="cls-19" d="M1751.65,765.63s-6.79,22.52-21.52,26.53-30.52-16.23-30.52-16.23,1.41,17.84,27.39,19.3S1751.65,765.63,1751.65,765.63Z"/><path class="cls-18" d="M1713.83,794.23c-8.68-4-17.54-12.46-16.36-24.16,1.2-10.82,7.31-28.81,34.76-27.71h0c13.24.69,21.83,9.59,21.89,22.66v.07c-.61,11.29-4.87,20.59-12.63,27.65l-.44.43C1735.32,798.57,1724.25,799,1713.83,794.23Zm26-3.29c7.28-6.61,11.27-15.33,11.86-25.94-.07-11.65-7.75-19.57-19.56-20.19-25.46-1-31.12,15.56-32.22,25.52-1.05,10.4,7,18,14.95,21.67,9.62,4.44,20.09,4,24.91-1l0,0Z"/><ellipse cx="1734.72" cy="751.5" rx="2.16" ry="2.27" transform="translate(-43.89 1392.25) rotate(-43.23)"/><ellipse cx="1733.39" cy="761.07" rx="2.27" ry="1.58" transform="translate(318.32 2018.63) rotate(-65.33)"/><ellipse cx="1721.31" cy="773.5" rx="2.59" ry="2.73" transform="translate(250.06 1955.29) rotate(-62.97)"/><path d="M1735.92,765.48a.56.56,0,0,0,.1-.15,3.28,3.28,0,0,0-.2-3.21,2.5,2.5,0,0,0,.78-.21,3.68,3.68,0,0,0,1.73-2.27.42.42,0,0,0-.25-.53.41.41,0,0,0-.52.25,2.93,2.93,0,0,1-1.31,1.81,1.9,1.9,0,0,1-1.5,0l-.32.75c.07,0,1.7.91.82,3.13a.41.41,0,0,0,.23.53A.41.41,0,0,0,1735.92,765.48Z"/><g id="EAR_1" data-name="EAR 1"><path class="cls-6" d="M1704.66,768.67a9.37,9.37,0,0,0-2.84-1.59c-2.22-1-4.21-1.42-8.45-1.91-6.7-.78-6.46-.32-9.47-.91a41.79,41.79,0,0,1-8.73-2.89c-4.48-1.88-6.94-2.91-9.67-5.18-2.5-2.09-5.8-4.83-6.48-9.38a13.06,13.06,0,0,1,1.79-8.34c3.51-6.77,9-8.31,15.2-3,3.6,2.84,3.17,4.92,7.83,9.68a22.22,22.22,0,0,0,4.73,4c1.75,1,3,1.41,9,3,6.41,1.7,7.22,1.88,9,2.45,1.21.39,3.84,1.31,4.85,1.72"/><path class="cls-16" d="M1704.94,768.58s0-3.55-13.91-6a43.76,43.76,0,0,1-16.24-4.83c-4.66-2.19-9.43-4.82-11.73-10.14-2.58-6.53,3.26-14,3.26-14l-2.66,1.25-3.85,7.56-.32,4.56,2.41,5.07,5.87,5.09,4,2.27,6.54,2.66,5.53,1.79,3.83.46,4,.11,3,.73,3.23.64,3.06.84Z"/><path class="cls-18" d="M1704.39,768.9a5.87,5.87,0,0,0-1.56-.85,19.34,19.34,0,0,0-5.38-1.62,112.25,112.25,0,0,0-11.47-.95,37.42,37.42,0,0,1-11.37-3.26,54.51,54.51,0,0,1-7.14-3.32c-4.46-2.92-9.16-6.95-9.67-12.63-.55-5,2.81-11.84,7.35-14.27,4.79-2.55,10.09.65,13.4,4.16a57.29,57.29,0,0,1,3.36,4.87c2.18,2.87,4.78,5.79,8,7.53a48.1,48.1,0,0,0,7.11,2.33c1.84.52,5.57,1.64,7.4,2.21a62.78,62.78,0,0,1,7.23,2.92.3.3,0,0,1,.15.4.29.29,0,0,1-.34.16c-2.51-.61-4.93-1.43-7.45-2-1.89-.41-5.66-1.28-7.53-1.73a41.4,41.4,0,0,1-7.59-2.35c-3.57-1.89-6.41-5-8.86-8.15-1.43-1.95-2.36-4-4.17-5.54-2.55-2.27-6.22-4.53-9.58-2.72a14.4,14.4,0,0,0-6.17,11.92c.26,3.68,2.77,6.55,5.53,8.82,2.83,2.58,6.21,4,9.77,5.49a37.44,37.44,0,0,0,10.75,3.29c2.51.16,5.2.41,7.71.79a24.5,24.5,0,0,1,9.39,2.79,6,6,0,0,1,1.7,1.2.36.36,0,0,1,0,.5.36.36,0,0,1-.49,0Z"/></g><path class="cls-18" d="M1697.88,760.4a67.63,67.63,0,0,1-30.38-12,3.54,3.54,0,1,1,4.08-5.78,66.53,66.53,0,0,0,12.47,9.71,64.56,64.56,0,0,0,14.22,6.29.92.92,0,0,1-.39,1.78Z"/><ellipse class="cls-6" cx="1735.03" cy="750.81" rx="0.65" ry="0.98" transform="translate(277.75 1955.13) rotate(-62.97)"/><ellipse class="cls-6" cx="1721.78" cy="772.29" rx="0.65" ry="0.98" transform="translate(251.39 1955.05) rotate(-62.97)"/><path class="cls-20" d="M723.54,401.43h-8.92v-5.2h1.9V384.9h-1.9v-5.21h10.29l7.91,11.36V384.9h-1.77v-5.21h8.77v5.21h-1.89v16.81h-7.16l-9.15-13.14v7.66h1.92Z"/><path class="cls-20" d="M742.27,393.77a7,7,0,0,1,2.82-5.64,11.63,11.63,0,0,1,7.59-2.3,12.88,12.88,0,0,1,7.83,2.22,6.86,6.86,0,0,1,3,5.78,7.07,7.07,0,0,1-2.87,5.74,11.83,11.83,0,0,1-7.6,2.3c-3.39,0-6-.77-7.93-2.3A7.11,7.11,0,0,1,742.27,393.77Zm8,0q0,3.63,2.59,3.63,2.74,0,2.75-3.66a4.31,4.31,0,0,0-.67-2.59,2.27,2.27,0,0,0-1.94-.92,2.45,2.45,0,0,0-2,.9A4.07,4.07,0,0,0,750.23,393.8Z"/><path class="cls-20" d="M777.1,401.62h-6.22L766.24,391h-1.62v-4.77h10.22V391h-1.52l1.78,5,3.74-9.81h5.82l3.41,9.81,1.94-5h-1.46v-4.77H796V391h-1.49l-4.41,10.58h-6.23l-3.47-7.77Z"/><path class="cls-20" d="M815.23,408.38H808.6v-4.61h2.55l.76-1.54L806.1,391h-1.17v-4.77h10.33V391h-1.67l2.64,5.95,2.43-5.95H817.2v-4.77H825V391h-1.51Z"/><path class="cls-20" d="M826.34,393.77a7,7,0,0,1,2.81-5.64,11.63,11.63,0,0,1,7.59-2.3,12.88,12.88,0,0,1,7.83,2.22,6.87,6.87,0,0,1,3,5.78,7.05,7.05,0,0,1-2.88,5.74,11.82,11.82,0,0,1-7.59,2.3c-3.4,0-6-.77-7.94-2.3A7.1,7.1,0,0,1,826.34,393.77Zm7.95,0q0,3.63,2.59,3.63c1.84,0,2.75-1.22,2.75-3.66a4.31,4.31,0,0,0-.67-2.59,2.26,2.26,0,0,0-1.94-.92,2.45,2.45,0,0,0-2,.9A4.07,4.07,0,0,0,834.29,393.8Z"/><path class="cls-20" d="M851.52,391H849.7v-4.77h9.68v7.22a5.71,5.71,0,0,0,.35,2.45,1.41,1.41,0,0,0,1.4.64,4.5,4.5,0,0,0,2.44-.7V391h-2.08v-4.77h9.94v10.39h1.83v4.77h-9.69v-1.92a10.86,10.86,0,0,1-6.36,2.2,5.88,5.88,0,0,1-4-1.48c-1.12-1-1.69-2.86-1.69-5.6Z"/><path class="cls-20" d="M883.48,391v-4.77h9.68v1a11,11,0,0,1,5.14-1.3,8.35,8.35,0,0,1,5.8,2.19,7.43,7.43,0,0,1,2.41,5.76,7.2,7.2,0,0,1-2.36,5.68,10.05,10.05,0,0,1-11,.84v3.16h2v4.76H883.45v-4.76h1.85V391Zm9.64,2.87a3.56,3.56,0,0,0,.75,2.47,2.37,2.37,0,0,0,1.86.85q2.67,0,2.67-3.41c0-2.22-.86-3.33-2.56-3.33a2.54,2.54,0,0,0-1.94.81A3.74,3.74,0,0,0,893.12,393.91Z"/><path class="cls-20" d="M921.21,401.43H909v-4.77h2.06V391H909v-4.77h9.41v3.8a6.2,6.2,0,0,1,1.64-2.45,5.31,5.31,0,0,1,2.15-1.33,12,12,0,0,1,3.08-.3v6.67h-.65a10,10,0,0,0-3.58.48,3.12,3.12,0,0,0-1.66,1.31,4.88,4.88,0,0,0-.47,2.22h2.3Z"/><path class="cls-20" d="M926.68,393.77a7,7,0,0,1,2.81-5.64,11.68,11.68,0,0,1,7.6-2.3,12.87,12.87,0,0,1,7.82,2.22,6.87,6.87,0,0,1,3,5.78,7.05,7.05,0,0,1-2.88,5.74,11.78,11.78,0,0,1-7.59,2.3c-3.4,0-6-.77-7.94-2.3A7.13,7.13,0,0,1,926.68,393.77Zm8,0q0,3.63,2.6,3.63t2.75-3.66a4.31,4.31,0,0,0-.68-2.59,2.24,2.24,0,0,0-1.93-.92,2.46,2.46,0,0,0-2,.9A4.07,4.07,0,0,0,934.63,393.8Z"/><path class="cls-20" d="M950.68,393.77a7,7,0,0,1,2.81-5.64,11.67,11.67,0,0,1,7.59-2.3,12.88,12.88,0,0,1,7.83,2.22,6.87,6.87,0,0,1,3,5.78,7.05,7.05,0,0,1-2.88,5.74,11.78,11.78,0,0,1-7.59,2.3c-3.4,0-6-.77-7.94-2.3A7.13,7.13,0,0,1,950.68,393.77Zm8,0q0,3.63,2.6,3.63t2.75-3.66a4.31,4.31,0,0,0-.68-2.59,2.25,2.25,0,0,0-1.93-.92,2.46,2.46,0,0,0-2,.9A4.07,4.07,0,0,0,958.63,393.8Z"/><path class="cls-20" d="M986.41,401.62h-6.29L974.44,391h-1.51v-4.77h10.69V391h-1.69l2.51,5.76L987.1,391h-1.52v-4.77h7.85V391H992Z"/><path class="cls-20" d="M1007.46,396.63l6.48.8a6,6,0,0,1-1.21,1.82,7.73,7.73,0,0,1-1.91,1.4,11.33,11.33,0,0,1-5.42,1.22q-5.29,0-8-2.21a7.06,7.06,0,0,1-2.67-5.73,7.37,7.37,0,0,1,2.64-5.78,10.3,10.3,0,0,1,7.08-2.32,10.79,10.79,0,0,1,7,2.19q2.65,2.18,2.82,6.61h-11.93c0,2.46.94,3.69,2.75,3.69A2.43,2.43,0,0,0,1007.46,396.63Zm-5-4h4.42c0-.31,0-.49,0-.53a3.33,3.33,0,0,0-.62-2.05,2,2,0,0,0-1.66-.79,1.8,1.8,0,0,0-1.62.87,4,4,0,0,0-.57,2.19A2.85,2.85,0,0,0,1002.46,392.66Z"/><path class="cls-20" d="M1029,401.43h-12.22v-4.77h2.06V391h-2.06v-4.77h9.41v3.8a6.2,6.2,0,0,1,1.64-2.45,5.25,5.25,0,0,1,2.15-1.33,12,12,0,0,1,3.08-.3v6.67h-.65a10,10,0,0,0-3.58.48,3.12,3.12,0,0,0-1.66,1.31,4.88,4.88,0,0,0-.47,2.22h2.3Z"/><path class="cls-20" d="M1051.66,408.38H1045v-4.61h2.54l.77-1.54L1042.54,391h-1.17v-4.77h10.32V391H1050l2.64,5.95,2.44-5.95h-1.47v-4.77h7.83V391h-1.52Z"/><path class="cls-20" d="M1062.77,393.77a7,7,0,0,1,2.81-5.64,11.68,11.68,0,0,1,7.6-2.3,12.88,12.88,0,0,1,7.83,2.22,6.86,6.86,0,0,1,3,5.78,7.07,7.07,0,0,1-2.87,5.74,11.83,11.83,0,0,1-7.6,2.3c-3.39,0-6-.77-7.93-2.3A7.11,7.11,0,0,1,1062.77,393.77Zm8,0q0,3.63,2.59,3.63,2.75,0,2.75-3.66a4.39,4.39,0,0,0-.67-2.59,2.27,2.27,0,0,0-1.94-.92,2.45,2.45,0,0,0-2,.9A4.07,4.07,0,0,0,1070.73,393.8Z"/><path class="cls-20" d="M1086.77,393.77a7,7,0,0,1,2.81-5.64,11.68,11.68,0,0,1,7.6-2.3,12.88,12.88,0,0,1,7.83,2.22,6.86,6.86,0,0,1,3,5.78,7.07,7.07,0,0,1-2.87,5.74,11.83,11.83,0,0,1-7.6,2.3c-3.39,0-6-.77-7.93-2.3A7.11,7.11,0,0,1,1086.77,393.77Zm8,0q0,3.63,2.59,3.63,2.75,0,2.75-3.66a4.39,4.39,0,0,0-.67-2.59,2.27,2.27,0,0,0-1.94-.92,2.45,2.45,0,0,0-2,.9A4.07,4.07,0,0,0,1094.73,393.8Z"/><path class="cls-20" d="M1112,391h-1.83v-4.77h9.69v7.22a5.76,5.76,0,0,0,.34,2.45,1.43,1.43,0,0,0,1.41.64,4.52,4.52,0,0,0,2.44-.7V391h-2.08v-4.77h9.94v10.39h1.82v4.77H1124v-1.92a10.91,10.91,0,0,1-6.36,2.2,5.84,5.84,0,0,1-4-1.48q-1.7-1.49-1.69-5.6Z"/><path class="cls-20" d="M1150.16,390.51l-6.15-.63a5.88,5.88,0,0,1,3.28-3.14,18.48,18.48,0,0,1,6.59-.91c1.07,0,2,0,2.88.11a18.94,18.94,0,0,1,2.28.3,7,7,0,0,1,3.08,1.2,4.74,4.74,0,0,1,1.39,1.79,8.55,8.55,0,0,1,.4,3.06v4.37h1.94v4.77h-9.8v-1a9.92,9.92,0,0,1-5.43,1.31,7.18,7.18,0,0,1-4.83-1.41,4.21,4.21,0,0,1-1.64-3.32,4.08,4.08,0,0,1,2-3.49,9.12,9.12,0,0,1,5.22-1.36,11.73,11.73,0,0,1,4.67.77v-.46a6.36,6.36,0,0,0-.2-2,2,2,0,0,0-1-1,3.87,3.87,0,0,0-1.81-.41A3.35,3.35,0,0,0,1150.16,390.51Zm5.89,7v-2.76a4.52,4.52,0,0,0-2.22-.56,2.32,2.32,0,0,0-1.64.56,2.09,2.09,0,0,0,0,3,2.13,2.13,0,0,0,1.47.59A3.45,3.45,0,0,0,1156.05,397.55Z"/><path class="cls-20" d="M1180,401.43h-12.22v-4.77h2.06V391h-2.06v-4.77h9.41v3.8a6.2,6.2,0,0,1,1.64-2.45,5.28,5.28,0,0,1,2.16-1.33,11.81,11.81,0,0,1,3.07-.3v6.67h-.65a10,10,0,0,0-3.58.48,3.12,3.12,0,0,0-1.66,1.31,4.88,4.88,0,0,0-.47,2.22h2.3Z"/><path class="cls-20" d="M1198.18,396.63l6.48.8a6,6,0,0,1-1.22,1.82,7.49,7.49,0,0,1-1.9,1.4,11.33,11.33,0,0,1-5.42,1.22c-3.54,0-6.19-.74-8-2.21a7.06,7.06,0,0,1-2.67-5.73,7.37,7.37,0,0,1,2.64-5.78,10.28,10.28,0,0,1,7.07-2.32,10.75,10.75,0,0,1,7,2.19c1.77,1.45,2.72,3.65,2.83,6.61h-11.94c0,2.46,1,3.69,2.75,3.69A2.43,2.43,0,0,0,1198.18,396.63Zm-5-4h4.42c0-.31,0-.49,0-.53a3.33,3.33,0,0,0-.62-2.05,2,2,0,0,0-1.66-.79,1.8,1.8,0,0,0-1.62.87,4,4,0,0,0-.57,2.19A2.85,2.85,0,0,0,1193.18,392.66Z"/><path class="cls-20" d="M824.28,434.3V439a7.38,7.38,0,0,1-2.22.91,11.5,11.5,0,0,1-2.94.41,7.38,7.38,0,0,1-3-.58,4.54,4.54,0,0,1-2-1.6,5.17,5.17,0,0,1-.53-1,4.8,4.8,0,0,1-.25-1.07c-.07-.69-.11-2-.11-4v-2.54h-1.94v-4.77h1.94v-2.33l7.86-3.73v6.06h3.17v4.77h-3.17v2.94a4.55,4.55,0,0,0,.27,1.92,1.07,1.07,0,0,0,1.06.48A4.69,4.69,0,0,0,824.28,434.3Z"/><path class="cls-20" d="M838.16,439.83h-12v-4.77h2v-12.2h-2v-4.77H836v8.41a11,11,0,0,1,6.17-2.11,5.77,5.77,0,0,1,4.24,1.55q1.56,1.56,1.56,5.51v3.61h1.78v4.77h-9.64v-6.21a11.14,11.14,0,0,0-.33-3.54,1.43,1.43,0,0,0-1.43-.72,4.18,4.18,0,0,0-2.35.8v4.9h2.13Z"/><path class="cls-20" d="M864.91,435l6.48.8a6,6,0,0,1-1.22,1.82,7.49,7.49,0,0,1-1.9,1.4,11.37,11.37,0,0,1-5.43,1.22q-5.3,0-8-2.21a7,7,0,0,1-2.68-5.73,7.37,7.37,0,0,1,2.64-5.78,10.3,10.3,0,0,1,7.08-2.32,10.75,10.75,0,0,1,7,2.19c1.77,1.45,2.72,3.65,2.83,6.61H859.81q0,3.69,2.75,3.69A2.43,2.43,0,0,0,864.91,435Zm-5-4h4.42c0-.31,0-.49,0-.53a3.27,3.27,0,0,0-.63-2,2,2,0,0,0-1.65-.79,1.83,1.83,0,0,0-1.63.87,4.1,4.1,0,0,0-.56,2.19A2.85,2.85,0,0,0,859.91,431.06Z"/><path class="cls-20" d="M894.41,439.83H882.19v-4.77h2.06v-5.62h-2.06v-4.77h9.4v3.8a6.31,6.31,0,0,1,1.64-2.45,5.28,5.28,0,0,1,2.16-1.33,11.9,11.9,0,0,1,3.08-.3v6.67h-.66a10.07,10.07,0,0,0-3.58.48,3.1,3.1,0,0,0-1.65,1.31,4.88,4.88,0,0,0-.47,2.22h2.3Z"/><path class="cls-20" d="M912.59,435l6.49.8a6,6,0,0,1-1.22,1.82,7.55,7.55,0,0,1-1.91,1.4,11.3,11.3,0,0,1-5.42,1.22q-5.29,0-8-2.21a7.06,7.06,0,0,1-2.67-5.73,7.37,7.37,0,0,1,2.64-5.78,10.3,10.3,0,0,1,7.08-2.32,10.77,10.77,0,0,1,7,2.19q2.65,2.18,2.83,6.61H907.5q0,3.69,2.75,3.69A2.43,2.43,0,0,0,912.59,435Zm-5-4H912c0-.31,0-.49,0-.53a3.27,3.27,0,0,0-.63-2,2,2,0,0,0-1.65-.79,1.83,1.83,0,0,0-1.63.87,4.1,4.1,0,0,0-.56,2.19A3,3,0,0,0,907.59,431.06Z"/><path class="cls-20" d="M928.27,428.91l-6.16-.63a5.91,5.91,0,0,1,3.28-3.14,18.48,18.48,0,0,1,6.59-.91c1.08,0,2,0,2.89.11a18.76,18.76,0,0,1,2.27.3,7,7,0,0,1,3.08,1.2,4.79,4.79,0,0,1,1.39,1.78,8.61,8.61,0,0,1,.41,3.07v4.37H944v4.77h-9.79v-1a10,10,0,0,1-5.44,1.31,7.18,7.18,0,0,1-4.83-1.41,4.24,4.24,0,0,1-1.64-3.32,4.07,4.07,0,0,1,2-3.49,9.06,9.06,0,0,1,5.21-1.36,11.82,11.82,0,0,1,4.68.77v-.46a6.28,6.28,0,0,0-.21-2,2,2,0,0,0-1-1,3.87,3.87,0,0,0-1.81-.41A3.32,3.32,0,0,0,928.27,428.91Zm5.89,7v-2.76a4.59,4.59,0,0,0-2.22-.57,2.29,2.29,0,0,0-1.64.57,1.91,1.91,0,0,0-.61,1.47,2,2,0,0,0,.62,1.5,2.13,2.13,0,0,0,1.47.59A3.49,3.49,0,0,0,934.16,436Z"/><path class="cls-20" d="M956.77,439.83H945.91v-4.77h1.61v-12.2h-1.61v-4.77h9.46v17h1.4Z"/><path class="cls-20" d="M978.51,439.83h-12v-4.77h2v-12.2h-2v-4.77h9.84v8.41a11,11,0,0,1,6.17-2.11,5.79,5.79,0,0,1,4.24,1.55q1.56,1.56,1.56,5.51v3.61h1.78v4.77H980.5v-6.21a11.14,11.14,0,0,0-.33-3.54,1.43,1.43,0,0,0-1.44-.72,4.17,4.17,0,0,0-2.34.8v4.9h2.12Z"/><path class="cls-20" d="M993.73,429.44h-1.82v-4.77h9.68v7.22a5.71,5.71,0,0,0,.35,2.45,1.41,1.41,0,0,0,1.4.64,4.5,4.5,0,0,0,2.44-.7v-4.84h-2.08v-4.77h9.94v10.39h1.83v4.77h-9.69v-1.92a10.86,10.86,0,0,1-6.36,2.2,5.84,5.84,0,0,1-4-1.49c-1.12-1-1.69-2.85-1.69-5.59Z"/><path class="cls-20" d="M1029.61,439.83h-12v-4.77h1.95v-5.62h-1.95v-4.77h9.81v1.92a10,10,0,0,1,6.2-2.2A5.65,5.65,0,0,1,1038,426c1,1.07,1.45,2.8,1.45,5.17v3.89h1.8v4.77h-9.66v-6.74a7.22,7.22,0,0,0-.37-2.9,1.65,1.65,0,0,0-1.55-.69,4.14,4.14,0,0,0-2.25.8v4.76h2.19Z"/><path class="cls-20" d="M1055.64,434.3V439a7.38,7.38,0,0,1-2.22.91,11.5,11.5,0,0,1-2.94.41,7.38,7.38,0,0,1-3-.58,4.54,4.54,0,0,1-2-1.6,5.17,5.17,0,0,1-.53-1,4.8,4.8,0,0,1-.25-1.07c-.08-.69-.11-2-.11-4v-2.54h-1.94v-4.77h1.94v-2.33l7.86-3.73v6.06h3.17v4.77h-3.17v2.94a4.76,4.76,0,0,0,.26,1.92,1.09,1.09,0,0,0,1.07.48A4.69,4.69,0,0,0,1055.64,434.3Z"/><path class="cls-20" d="M1070.92,435l6.49.8a6.19,6.19,0,0,1-1.22,1.82,7.55,7.55,0,0,1-1.91,1.4,11.33,11.33,0,0,1-5.42,1.22q-5.29,0-8-2.21a7.06,7.06,0,0,1-2.67-5.73,7.37,7.37,0,0,1,2.64-5.78,10.3,10.3,0,0,1,7.08-2.32,10.79,10.79,0,0,1,7,2.19q2.65,2.18,2.82,6.61h-11.93c0,2.46.94,3.69,2.75,3.69A2.43,2.43,0,0,0,1070.92,435Zm-5-4h4.42c0-.31,0-.49,0-.53a3.27,3.27,0,0,0-.62-2,2,2,0,0,0-1.66-.79,1.8,1.8,0,0,0-1.62.87,4,4,0,0,0-.56,2.19A3,3,0,0,0,1065.92,431.06Z"/><path class="cls-20" d="M1092.42,439.83H1080.2v-4.77h2.06v-5.62h-2.06v-4.77h9.41v3.8a6.2,6.2,0,0,1,1.64-2.45,5.28,5.28,0,0,1,2.16-1.33,11.81,11.81,0,0,1,3.07-.3v6.67h-.65a10,10,0,0,0-3.58.48,3.12,3.12,0,0,0-1.66,1.31,4.88,4.88,0,0,0-.47,2.22h2.3Z"/><path class="cls-20" d="M1106.75,439.83H1099v-5.69h7.8Zm-1.25-8.74h-5.33l-1.09-6.76v-6.24h7.54v6.11Z"/><path class="cls-20" d="M720.8,523.05v-5.33a3.51,3.51,0,0,0,.92.13,1.22,1.22,0,0,0,1.28-.69,12.33,12.33,0,0,0,.27-3.36V500.1h-2v-5.21h12.26v5.21h-1.86v12.73a43.63,43.63,0,0,1-.19,5,6.44,6.44,0,0,1-1.07,2.8,5.79,5.79,0,0,1-2.38,2,9.76,9.76,0,0,1-4,.68A20.62,20.62,0,0,1,720.8,523.05Z"/><path class="cls-20" d="M734.59,509a7,7,0,0,1,2.82-5.64A11.63,11.63,0,0,1,745,501a12.88,12.88,0,0,1,7.83,2.22,6.86,6.86,0,0,1,3,5.78,7,7,0,0,1-2.87,5.74,11.82,11.82,0,0,1-7.59,2.3q-5.1,0-7.94-2.3A7.11,7.11,0,0,1,734.59,509Zm8,0q0,3.63,2.59,3.63,2.75,0,2.75-3.66a4.31,4.31,0,0,0-.67-2.59,2.27,2.27,0,0,0-1.94-.92,2.45,2.45,0,0,0-2,.9A4.07,4.07,0,0,0,742.55,509Z"/><path class="cls-20" d="M769.08,516.63H758.34v-4.77h1.57v-5.62h-1.57v-4.77h9.43v10.39h1.31Zm-9.83-19.44a2.24,2.24,0,0,1,1.27-2,5.89,5.89,0,0,1,3.09-.75,5.37,5.37,0,0,1,3,.78,2.32,2.32,0,0,1,1.14,1.94,2.2,2.2,0,0,1-1.19,1.95,5.71,5.71,0,0,1-3,.73,6.44,6.44,0,0,1-3.1-.67A2.13,2.13,0,0,1,759.25,497.19Z"/><path class="cls-20" d="M783.3,516.63h-12v-4.77h2v-5.62h-2v-4.77h9.81v1.92a10.09,10.09,0,0,1,6.2-2.2,5.65,5.65,0,0,1,4.38,1.61c1,1.07,1.45,2.8,1.45,5.17v3.89h1.8v4.77h-9.66v-6.74a7.26,7.26,0,0,0-.37-2.9,1.65,1.65,0,0,0-1.55-.69,4.14,4.14,0,0,0-2.25.8v4.76h2.19Z"/><path class="cls-20" d="M817.33,511.1v4.65a7.38,7.38,0,0,1-2.22.91,11.5,11.5,0,0,1-2.94.41,7.31,7.31,0,0,1-3-.58,4.49,4.49,0,0,1-1.95-1.6,5.17,5.17,0,0,1-.53-1,4.67,4.67,0,0,1-.25-1.07c-.08-.69-.11-2-.11-4v-2.54h-1.94v-4.77h1.94v-2.33l7.86-3.73v6.06h3.17v4.77h-3.17v2.94a4.59,4.59,0,0,0,.26,1.92,1.08,1.08,0,0,0,1.06.48A4.73,4.73,0,0,0,817.33,511.1Z"/><path class="cls-20" d="M831.2,516.63h-12v-4.77h2v-12.2h-2v-4.77h9.85v8.41a11,11,0,0,1,6.17-2.11,5.75,5.75,0,0,1,4.23,1.55q1.57,1.56,1.57,5.51v3.61h1.78v4.77h-9.64v-6.2a11.17,11.17,0,0,0-.33-3.55,1.43,1.43,0,0,0-1.44-.72,4.25,4.25,0,0,0-2.34.8v4.9h2.12Z"/><path class="cls-20" d="M858,511.83l6.49.8a6,6,0,0,1-1.22,1.82,7.55,7.55,0,0,1-1.91,1.4,11.33,11.33,0,0,1-5.42,1.22q-5.29,0-8-2.21a7.06,7.06,0,0,1-2.67-5.73,7.37,7.37,0,0,1,2.64-5.78A10.3,10.3,0,0,1,855,501a10.77,10.77,0,0,1,7,2.19q2.65,2.17,2.83,6.61H852.86q0,3.69,2.75,3.69A2.43,2.43,0,0,0,858,511.83Zm-5-4h4.43c0-.31,0-.49,0-.53a3.27,3.27,0,0,0-.63-2.05,2,2,0,0,0-1.66-.79,1.83,1.83,0,0,0-1.62.87,4,4,0,0,0-.56,2.19A2.91,2.91,0,0,0,853,507.86Z"/><path class="cls-20" d="M896.39,516.63H875.66v-5.2h1.68V500.1h-1.72v-5.21h20.77v7h-5.7V500.1h-4.94v3.34h4.3v4.42h-4.3v3.57h4.94v-1.75h5.7Z"/><path class="cls-20" d="M910.12,516.63H899.27v-4.77h1.61v-12.2h-1.61v-4.77h9.46v17h1.39Z"/><path class="cls-20" d="M923.05,516.63H912.31v-4.77h1.56v-5.62h-1.56v-4.77h9.42v10.39h1.32Zm-9.83-19.44a2.24,2.24,0,0,1,1.26-2,6,6,0,0,1,3.1-.75,5.33,5.33,0,0,1,3,.78,2.34,2.34,0,0,1,1.15,1.94,2.2,2.2,0,0,1-1.19,1.95,5.74,5.74,0,0,1-3,.73,6.41,6.41,0,0,1-3.1-.67A2.13,2.13,0,0,1,913.22,497.19Z"/><path class="cls-20" d="M937.64,511.1v4.65a7.38,7.38,0,0,1-2.22.91,11.5,11.5,0,0,1-2.94.41,7.38,7.38,0,0,1-3-.58,4.54,4.54,0,0,1-2-1.6,5.17,5.17,0,0,1-.53-1,4.67,4.67,0,0,1-.25-1.07c-.07-.69-.11-2-.11-4v-2.54h-1.94v-4.77h1.94v-2.33l7.86-3.73v6.06h3.17v4.77h-3.17v2.94a4.76,4.76,0,0,0,.26,1.92,1.09,1.09,0,0,0,1.07.48A4.69,4.69,0,0,0,937.64,511.1Z"/><path class="cls-20" d="M952.92,511.83l6.49.8a6.19,6.19,0,0,1-1.22,1.82,7.55,7.55,0,0,1-1.91,1.4,11.33,11.33,0,0,1-5.42,1.22q-5.29,0-8-2.21a7.06,7.06,0,0,1-2.67-5.73,7.37,7.37,0,0,1,2.64-5.78,10.3,10.3,0,0,1,7.08-2.32,10.79,10.79,0,0,1,7,2.19q2.65,2.17,2.83,6.61H947.83c0,2.46.94,3.69,2.75,3.69A2.43,2.43,0,0,0,952.92,511.83Zm-5-4h4.42c0-.31,0-.49,0-.53a3.27,3.27,0,0,0-.62-2.05,2,2,0,0,0-1.66-.79,1.8,1.8,0,0,0-1.62.87,4,4,0,0,0-.56,2.19A2.91,2.91,0,0,0,947.92,507.86Z"/><path class="cls-20" d="M982.05,516.63H970.61v-5.2h1.64V500.1h-1.67v-5.21h11.47v5.21h-1.39v3.31h5V500.1h-1.41v-5.21h11.45v5.21h-1.64v11.33h1.64v5.2H984.28v-5.2h1.41v-3.57h-5v3.57h1.39Z"/><path class="cls-20" d="M999.73,506.24h-1.82v-4.77h9.68v7.22a5.71,5.71,0,0,0,.35,2.45,1.41,1.41,0,0,0,1.4.64,4.5,4.5,0,0,0,2.44-.7v-4.84h-2.08v-4.77h9.94v10.39h1.83v4.77h-9.69v-1.92a10.86,10.86,0,0,1-6.36,2.2,5.83,5.83,0,0,1-4-1.48c-1.12-1-1.69-2.86-1.69-5.6Z"/><path class="cls-20" d="M1035.61,516.63h-12v-4.77h1.95v-5.62h-1.95v-4.77h9.81v1.92a10.11,10.11,0,0,1,6.2-2.2,5.65,5.65,0,0,1,4.38,1.61c1,1.07,1.45,2.8,1.45,5.17v3.89h1.8v4.77h-9.66v-6.74a7.26,7.26,0,0,0-.37-2.9,1.65,1.65,0,0,0-1.55-.69,4.14,4.14,0,0,0-2.25.8v4.76h2.19Z"/><path class="cls-20" d="M1061.64,511.1v4.65a7.38,7.38,0,0,1-2.22.91,11.5,11.5,0,0,1-2.94.41,7.38,7.38,0,0,1-3-.58,4.54,4.54,0,0,1-2-1.6,5.17,5.17,0,0,1-.53-1,4.67,4.67,0,0,1-.25-1.07c-.08-.69-.11-2-.11-4v-2.54h-1.94v-4.77h1.94v-2.33l7.86-3.73v6.06h3.17v4.77h-3.17v2.94a4.76,4.76,0,0,0,.26,1.92,1.09,1.09,0,0,0,1.07.48A4.69,4.69,0,0,0,1061.64,511.1Z"/><path class="cls-20" d="M1076.92,511.83l6.49.8a6.19,6.19,0,0,1-1.22,1.82,7.55,7.55,0,0,1-1.91,1.4,11.33,11.33,0,0,1-5.42,1.22q-5.29,0-8-2.21a7.06,7.06,0,0,1-2.67-5.73,7.37,7.37,0,0,1,2.64-5.78,10.3,10.3,0,0,1,7.08-2.32,10.79,10.79,0,0,1,7,2.19q2.65,2.17,2.82,6.61h-11.93c0,2.46.94,3.69,2.75,3.69A2.43,2.43,0,0,0,1076.92,511.83Zm-5-4h4.42c0-.31,0-.49,0-.53a3.27,3.27,0,0,0-.62-2.05,2,2,0,0,0-1.66-.79,1.8,1.8,0,0,0-1.62.87,4,4,0,0,0-.56,2.19A2.91,2.91,0,0,0,1071.92,507.86Z"/><path class="cls-20" d="M1098.42,516.63H1086.2v-4.77h2.06v-5.62h-2.06v-4.77h9.41v3.8a6.2,6.2,0,0,1,1.64-2.45,5.28,5.28,0,0,1,2.16-1.33,11.81,11.81,0,0,1,3.07-.3v6.67h-.65a10,10,0,0,0-3.58.48,3.17,3.17,0,0,0-1.66,1.31,4.88,4.88,0,0,0-.47,2.22h2.3Z"/><path class="cls-20" d="M1129.19,507.05l5.64,2a10,10,0,0,1-3.3,5.71,10.71,10.71,0,0,1-7.19,2.23q-6.24,0-9.25-3.26a11.26,11.26,0,0,1-3-7.94,11.59,11.59,0,0,1,3-8,10.86,10.86,0,0,1,13.91-1.4v-1.46h5.22v7.94h-5.43a4.63,4.63,0,0,0-1.42-2.34,3.47,3.47,0,0,0-2.28-.85q-3.52,0-3.53,6.08c0,4.06,1.22,6.1,3.66,6.1Q1128.36,511.82,1129.19,507.05Z"/><path class="cls-20" d="M1148.09,516.63h-10.86v-4.77h1.61v-12.2h-1.61v-4.77h9.47v17h1.39Z"/><path class="cls-20" d="M1151.72,506.24h-1.83v-4.77h9.69v7.22a5.76,5.76,0,0,0,.34,2.45,1.43,1.43,0,0,0,1.41.64,4.49,4.49,0,0,0,2.43-.7v-4.84h-2.07v-4.77h9.93v10.39h1.83v4.77h-9.69v-1.92a10.86,10.86,0,0,1-6.35,2.2,5.79,5.79,0,0,1-4-1.48q-1.7-1.48-1.69-5.6Z"/><path class="cls-20" d="M1185.19,516.63h-9.85v-4.77h2v-12.2h-2v-4.77h9.88v7.55a9,9,0,0,1,4.86-1.25,8.75,8.75,0,0,1,6,2.06,7.06,7.06,0,0,1,2.36,5.61,8.4,8.4,0,0,1-.57,3.17,7.87,7.87,0,0,1-7.39,4.88,10,10,0,0,1-5.22-1.3Zm-.07-7.64q0,3.42,2.72,3.42c1.72,0,2.58-1.14,2.58-3.41a3.76,3.76,0,0,0-.72-2.48,2.4,2.4,0,0,0-1.92-.84,2.3,2.3,0,0,0-2,.92A4,4,0,0,0,1185.12,509Z"/><path class="cls-20" d="M432.09,369l-78.34,13.39L347.88,348l11.54-2-3.89-22.78L310.46,277.5l-9.79,1.68-5.87-34.33L369.74,232l5.87,34.33-8.55,1.46,20.26,26.67,13.45-32.43-8.77,1.5-5.87-34.33,55.16-9.43,5.86,34.33-9,1.53L411,313.79l3.89,22.78,11.34-1.94Z"/><path class="cls-20" d="M457.19,290.5A75.3,75.3,0,0,1,460,254.27q5.79-18.18,22.09-32.75a67.33,67.33,0,0,1,12.26-8.67,89.9,89.9,0,0,1,14.27-6.21,108.75,108.75,0,0,1,16.68-4.17q38.55-6.6,63.55,12.37a80.18,80.18,0,0,1,20,21.4,72.44,72.44,0,0,1,10.06,26.61q5.13,30-12.93,55.9T550.72,351q-36,6.15-61.91-10.85T457.19,290.5Zm62.27-10.64q4.08,23.91,10.15,31.47,5.88,7.69,15.36,6.08a15.34,15.34,0,0,0,12.63-10.55q3.23-9-.93-33.36-4-23.61-10-31.39t-15.56-6a15.28,15.28,0,0,0-12.53,10.52Q515.3,255.53,519.46,279.86Z"/><path class="cls-20" d="M640.23,221.12l-11,1.89-5.87-34.33,73.4-12.55,5.87,34.33-6.8,1.16L704.06,260q3,17.31,7.34,23t12.91,4.16q7.11-1.21,9.41-7t-.42-21.68l-8.85-51.75L717.24,208l-5.87-34.33,53.91-9.22,5.87,34.33-11.34,1.94,8.88,51.95q3.4,19.9-.2,33.56t-15.81,23q-12.18,9.4-31.77,12.75a94.92,94.92,0,0,1-28.59,1q-13-1.61-21.52-8a46.65,46.65,0,0,1-13.74-16.43q-5.28-9.81-9-31.35Z"/><path class="cls-20" d="M935.56,282.88,857.63,296.2l-5.87-34.32,11.65-2-12.78-74.74-11.65,2-5.87-34.33L911,139.49q10.51-1.8,19.55-3t15.53-1.6a115.54,115.54,0,0,1,12.06-.2q15.6.61,26.82,9.74a38.66,38.66,0,0,1,13.89,24.15,37.5,37.5,0,0,1-2.32,21.19,35.25,35.25,0,0,1-12.9,15.79l25.4,29.39,10.3-1.76,5.87,34.33-51.64,8.83-41.25-53.21-17.63,3,4.15,24.22,10.82-1.85Zm-30-110.1,4.67,27.32,6.18-1.06q12.16-2.08,16.37-3.54A13.45,13.45,0,0,0,940,190q2.65-3.75,1.7-9.31a12.44,12.44,0,0,0-4.71-8.32,13.72,13.72,0,0,0-8.85-2.73q-4.87.09-17.44,2.24Z"/><path class="cls-20" d="M1023.64,193.66a75.33,75.33,0,0,1,2.83-36.24q5.8-18.18,22.09-32.74a68.24,68.24,0,0,1,12.26-8.68,89.38,89.38,0,0,1,14.27-6.2,107.6,107.6,0,0,1,16.68-4.18q38.57-6.6,63.55,12.37a79.91,79.91,0,0,1,20,21.41A72.63,72.63,0,0,1,1185.39,166q5.11,30-12.94,55.89t-55.28,32.26q-36,6.16-61.91-10.84T1023.64,193.66ZM1085.91,183q4.08,23.93,10.15,31.48,5.88,7.69,15.37,6.07A15.33,15.33,0,0,0,1124.05,210q3.24-9-.93-33.37-4-23.61-10-31.39t-15.57-6A15.22,15.22,0,0,0,1085,149.75Q1081.74,158.69,1085.91,183Z"/><path class="cls-20" d="M1320.5,152l39.45,6.73q-.81,23.81-15.32,41.34-14.69,17.68-44.9,22.85Q1258.51,230,1235,211.84t-28.84-49q-5.33-31.14,10.44-56.22t46.89-30.4q25.26-4.32,43.27,5.44l-1.64-9.59,34.43-5.89,9,52.37-35.77,6.12q-4.45-9.31-12-13.86a23,23,0,0,0-16-3q-23.29,4-16.44,44.08t31,36.08Q1320.42,184.41,1320.5,152Z"/><path class="cls-20" d="M1464.8,192.4l-77.73,13.29-5.87-34.33,10.93-1.87-12.78-74.74-11.23,1.92-5.87-34.32,78-13.34,5.87,34.32-11.34,1.94L1447.59,160l11.34-1.94ZM1554,177.15l-74.22,12.69-5.87-34.33,6.9-1.18-38.42-35.44,30.7-40.16-11.65,2-5.87-34.32,70.61-12.08L1532,68.65l-11.13,1.91-24.62,32.22L1541,144l7.11-1.22Z"/><path class="cls-20" d="M1625.2,165l-51.44,8.8-6.42-37.52,51.44-8.8Zm-18.1-56.21-35.15,6-14.85-43.4-7-41.13,49.79-8.52L1606.75,62Z"/><path class="cls-21" d="M566.47,757.94l-7.16,16.88a3.1,3.1,0,0,0,1.74,4l14.16,6a3.11,3.11,0,0,0,4.1-1.55l7.15-16.88Z"/><path d="M575.05,785.23l-14.16-6a3.53,3.53,0,0,1-2-4.57l7.32-17.26L587,766.2l-7.32,17.26A3.52,3.52,0,0,1,575.05,785.23Zm-8.36-26.75-7,16.5a2.68,2.68,0,0,0,1.51,3.48l14.16,6a2.7,2.7,0,0,0,3.56-1.34l7-16.49Z"/><path class="cls-21" d="M588.92,767.46l7.4,3.14a3.12,3.12,0,0,0,4.08-1.71l6-14.16a3.13,3.13,0,0,0-1.61-4.12l-7.4-3.14-2.17-.92L594,749.46l-6,14.16-1.23,2.92Z"/><path d="M596.16,771l-9.95-4.22L595,746l10,4.22a3.54,3.54,0,0,1,1.83,4.66l-6,14.16A3.54,3.54,0,0,1,596.16,771Zm-8.87-4.66,9.19,3.9a2.72,2.72,0,0,0,3.54-1.49l6-14.16a2.71,2.71,0,0,0-1.4-3.58l-9.18-3.9Z"/><rect class="cls-21" x="573.05" y="751.75" width="11.3" height="10.48" transform="translate(-344.16 994.18) rotate(-67.02)"/><path d="M581.54,764.78l-10.41-4.42,4.73-11.16,10.41,4.42Zm-9.33-4.86,8.89,3.77,4.08-9.64-8.88-3.77Z"/><circle class="cls-21" cx="569.65" cy="754.87" r="3.81"/><path d="M568,758.75a4.22,4.22,0,1,1,5.53-2.24A4.22,4.22,0,0,1,568,758.75Zm3-7a3.39,3.39,0,1,0,1.8,4.45A3.4,3.4,0,0,0,571,751.74Z"/><g class="cls-22"><circle class="cls-21" cx="569.65" cy="754.87" r="2.28"/><path d="M568.59,757.35a2.7,2.7,0,1,1,3.54-1.43A2.71,2.71,0,0,1,568.59,757.35Zm1.79-4.2a1.86,1.86,0,1,0,1,2.44A1.86,1.86,0,0,0,570.38,753.15Z"/></g><path class="cls-21" d="M582.67,764.37l3.84,1.63,1-2.34C587.37,760.67,584,761.23,582.67,764.37Z"/><path d="M586.72,766.54l-4.59-1.95.16-.38c.81-1.91,2.51-3.16,4-2.9a2.21,2.21,0,0,1,1.67,2.33v.09Zm-3.49-2.38,3.06,1.3.79-1.88c-.06-.83-.41-1.35-1-1.45C585.24,762,584,762.69,583.23,764.16Z"/><path class="cls-21" d="M574.35,753.19l-2.26,5.32-2.34-1C568,754.83,571.21,751.85,574.35,753.19Z"/><path d="M572.31,759.06l-2.84-1.21-.07-.1a3.13,3.13,0,0,1,.19-3.86,4.24,4.24,0,0,1,4.92-1.08l.38.16ZM570,757.19l1.84.78,1.93-4.54a3.4,3.4,0,0,0-3.58,1A2.3,2.3,0,0,0,570,757.19Z"/><circle cx="578.38" cy="753.27" r="0.88"/><circle cx="581.42" cy="754.56" r="0.88"/><circle cx="578.73" cy="756.84" r="0.88"/><circle cx="581.8" cy="758.14" r="0.88"/><circle cx="575.54" cy="755.48" r="0.88"/><circle cx="575.91" cy="759.1" r="0.88"/><circle cx="578.95" cy="760.39" r="0.88"/><path class="cls-23" d="M580.94,751.63c-9.67-4.1-.12-9.69-1-12,2.12.84,1.63,2.84,0,4.85.68.29,1.08-.57,1.68-1.69,1.1.8.3,2.64.21,3.36,1.27-1.41,0-3.83.54-5.4.67-2.16,2-1.29,2.34-3.52,1.43,1-.6,4-.42,4.9.44-.87.79-2.73,1.55-3.45a4.27,4.27,0,0,0,.8-3.87c1.34.08,2.41,2,.69,4.61-.81,1.09.18,3-.84,4.89,1,0,.17-4,2.63-3.55-1.42,1.43.82,5.28-2.21,6.52,1.07-1.4,2.45-2,3-1.44C588.46,748.32,588.91,755,580.94,751.63Z"/><path d="M580.78,752c-2.57-1.09-4-2.38-4.48-3.92-.59-2.08.86-4.13,2-5.77.7-1,1.44-2,1.25-2.54l-.32-.87.86.34a2.43,2.43,0,0,1,1.6,1.63,2.65,2.65,0,0,1-.06,1.44l.2.14h0a4.82,4.82,0,0,1,.1-1.83,3.27,3.27,0,0,1,1.39-1.91,1.92,1.92,0,0,0,.94-1.55l.11-.65.54.37a1.65,1.65,0,0,1,.68,1.39,3.84,3.84,0,0,0,.63-3.31l-.24-.61.65,0a2,2,0,0,1,1.68,1.16c.55,1.09.31,2.58-.67,4.08a2.26,2.26,0,0,0-.29,1.35,1.7,1.7,0,0,1,1.79-.64l.79.13-.56.56c-.45.46-.42,1.37-.39,2.32a9.4,9.4,0,0,1-.07,1.9,1.25,1.25,0,0,1,.32,0,1.16,1.16,0,0,1,1,.35l.21.23-.16.26a10.72,10.72,0,0,0-.75,2c-.53,1.74-1.14,3.72-2.94,4.55C585.16,753.25,583.26,753.06,580.78,752Zm-.39-11.68A8,8,0,0,1,579,742.8c-1.12,1.57-2.39,3.36-1.9,5.06.36,1.27,1.71,2.41,4,3.39s3.94,1.15,5.13.59c1.46-.68,2-2.46,2.5-4a15,15,0,0,1,.62-1.76h0a1.56,1.56,0,0,0-.68.22,2.88,2.88,0,0,1-1.58,1.4l-1.41.58.93-1.21A5.52,5.52,0,0,1,588,745.7a6.09,6.09,0,0,0,.2-2.3,6.31,6.31,0,0,1,.17-2.16c-.45.21-.65.84-.86,1.89-.16.82-.31,1.58-1,1.6l-.73,0,.35-.64a5,5,0,0,0,.45-2.67,3.51,3.51,0,0,1,.43-2.27c1.14-1.76.81-2.85.61-3.24a1.31,1.31,0,0,0-.4-.49,5,5,0,0,1-1,3.5l0,0a5.79,5.79,0,0,0-1,2.1,9.81,9.81,0,0,1-.48,1.24l-.53,1.06-.24-1.17a3.78,3.78,0,0,1,.39-1.72,7.14,7.14,0,0,0,.54-2.15,2.63,2.63,0,0,1-1,1,2.46,2.46,0,0,0-1.08,1.48,5.53,5.53,0,0,0,0,2c.13,1.19.27,2.54-.6,3.52l-.9,1,.18-1.32a5.83,5.83,0,0,1,.13-.62,3.47,3.47,0,0,0,.14-2c-.51.93-1,1.7-1.9,1.33h0l-.5-.22.35-.42c1-1.26,1.49-2.38,1.29-3.15A1.33,1.33,0,0,0,580.39,740.33Z"/><path class="cls-24" d="M568.61,758.85l-2.14-.91-7.16,16.88a3.1,3.1,0,0,0,1.74,4l3.25,1.38a11.12,11.12,0,0,1-2.56-2.85c-.69-1.65.66-3.86.66-3.86Z"/><path class="cls-24" d="M604.8,750.61l-7.4-3.14-2.17-.92-.69,1.61,8.91,3.78c1.65.7,1.88,1.95,2,4.81l.84-1.66A3.35,3.35,0,0,0,604.8,750.61Z"/><path class="cls-25" d="M577.69,747c.11-2.22,1.76-3.68,2.11-4.2a3.44,3.44,0,0,0,.5-3l-.33-.15c.85,2.3-8.7,7.89,1,12h0C579.61,750.8,577.61,749.19,577.69,747Z"/><path class="cls-25" d="M586.61,751.11a13.15,13.15,0,0,0,1.68-3.1c.11-.51.06-.74,1.12-2a.48.48,0,0,1,.14,0c-.77.62-.28,8.69-7.91,5.45h0C583,751.86,585.34,752.26,586.61,751.11Z"/><g class="cls-22"><path class="cls-23" d="M584.05,739.74a3.72,3.72,0,0,0,1-2.14,1.21,1.21,0,0,0-.32-.36,3.35,3.35,0,0,1-.27.93Z"/><path class="cls-23" d="M582.83,744.74l-.23,1A2,2,0,0,0,582.83,744.74Z"/><path class="cls-23" d="M582.83,744.74c-.25-2-1-5.15,1.44-5.88.17,0-.27.6,0,.67a5.59,5.59,0,0,1-.75.7C582.92,740.84,583,743.33,582.83,744.74Z"/></g><path class="cls-25" d="M584.16,743.29c-.28-.28,1.2-4,1.55-4l1.27-2.2.24-1.67s1.27,1.35-1,4.69Z"/><path class="cls-25" d="M588.46,741.07a3.55,3.55,0,0,0-.65,2.54c.22,1.44-1.37,3.72-1.37,3.72l2-1.43.5-4.83Z"/><path class="cls-6" d="M462,886q-4,37.86-8,75.73c.68,1,1.26,1.94,2,2.89,4.84,1,11.25,1.95,15.75,3.08s8.58,3.2,12.26,4.22,5.87,1.73,9.06,2.33,5.71.3,8.8.71c2-.9,4-1.72,6-2.59l4.08-5.11-.45-5.35L507.23,956l-7.52-5.08c-3.22-.58-6.49-.89-9.68-1.66,1.31-9.48,3.31-22,4.46-30.86s2-16.78,2.77-24.09.58-11,1.15-17.64C486.61,881.94,474.7,884.3,462,886Z"/><path class="cls-19" d="M494.7,881.2l-7.56,65.7,3.46-.58q3.91-33.86,7.79-67.72Z"/><path class="cls-19" d="M482,951.93c6.74-1.1,17.58,2.76,21.7,6.49s3.11,7.15,3.79,10-.39.53.06,2.42a18.93,18.93,0,0,1,3.62-.4q-.15-6.32-.31-12.63l-10.38-7.38C494.32,950.66,488,950.68,482,951.93Z"/><path class="cls-19" d="M462.15,885.34q-3.79,38.17-7.57,76.3a32.4,32.4,0,0,0,2.73,2.54c6.41,1.85,17.56,4.72,22.85,6.36s4.48,2.22,8.61,3.66a46.83,46.83,0,0,1,6.65-1.1c-7.51-5.57-16.51-4.53-24.44-9.32s-7.57,10.9-12.23-5.93,4.55-51.78,5.4-71.72C463.49,884.6,463,885.73,462.15,885.34Z"/><path class="cls-18" d="M500.7,978.44a2.91,2.91,0,0,1-.76-.11c-6.78-.35-13.38-1-19.58-4.28-4.53-2.42-13.27-3.94-19-4.95-1.45-.26-2.76-.49-3.84-.7-3.09-.61-4.71-1.26-5.52-3.31a.56.56,0,0,0,0-.12,4.56,4.56,0,0,0-.72-.44l-1.52-.8.2-1.71c1.78-15,3.31-30.33,4.79-45.14,1-10.25,2.08-20.84,3.21-31.26a2.5,2.5,0,0,1,5,.54c-1.13,10.4-2.19,21-3.21,31.21-1.43,14.33-2.9,29.13-4.61,43.7a5,5,0,0,1,1.49,1.94,14.12,14.12,0,0,0,1.92.49c1.05.2,2.32.42,3.74.67,6.45,1.13,15.29,2.68,20.53,5.47,5.4,2.88,11.52,3.4,17.83,3.71h0c3.79.21,7.14-2.16,10-7,1.6-2.7-2-7.18-3.21-8.21-7.76-6.8-13.51-6.7-23.06-6.54l-1,0a2.5,2.5,0,0,1-.08-5l1,0c10-.17,17.22-.3,26.44,7.78,2.19,1.92,7.66,8.71,4.21,14.52-3.59,6.06-8.25,9.3-13.53,9.43A2.47,2.47,0,0,1,500.7,978.44Z"/><path class="cls-6" d="M455.42,885.92q-2.91,40.47-5.82,81c-.79.89-1.46,1.79-2.33,2.65-4.92.5-11.39.71-16,1.34s-8.86,2.25-12.62,2.88-6,1.08-9.25,1.34-5.7-.32-8.82-.23c-1.86-1.11-3.81-2.14-5.7-3.22-1.18-1.83-2.34-3.67-3.51-5.51q.5-2.62,1-5.27l4.86-5.37,8-4.27c3.27-.23,6.54-.17,9.79-.62-.32-9.48-1-22.35-1.22-31.09s-.58-16-.62-23.24.56-11,.66-17.68C427.34,884.78,440.84,885.47,455.42,885.92Z"/><path class="cls-18" d="M491.71,950l-.36,0a2.5,2.5,0,0,1-2.12-2.83l.39-2.8c3.05-21.63,6.2-44,6.95-66.21a2.5,2.5,0,0,1,5,.17c-.76,22.47-3.93,45-7,66.74l-.39,2.8A2.5,2.5,0,0,1,491.71,950Z"/><path class="cls-19" d="M455.29,885q-3.14,40.85-6.27,81.65a31.1,31.1,0,0,1-3,2.12c-6.61.91-18,2.15-23.5,3s-4.74,1.55-9,2.39a45.17,45.17,0,0,0-6.09-.13c8.07-5.41,16.39-3.72,25.23-7.65s5.1,12.76,13.08-4.24,6.07-55.2,8.42-76.29C454.72,884.33,454.63,885.52,455.29,885Z"/><path class="cls-18" d="M497.66,977.42a2.5,2.5,0,0,1-2.47-2.13,18.92,18.92,0,0,0-2.82-7.61A2.5,2.5,0,1,1,496.6,965a23.94,23.94,0,0,1,3.54,9.54,2.5,2.5,0,0,1-2.11,2.84A2.31,2.31,0,0,1,497.66,977.42Z"/><path class="cls-18" d="M506.79,975.42a2.5,2.5,0,0,1-2.47-2.17,13.26,13.26,0,0,0-2.89-6.81,2.5,2.5,0,1,1,3.95-3.07,18.32,18.32,0,0,1,3.89,9.22,2.5,2.5,0,0,1-2.15,2.81Z"/><path class="cls-19" d="M417.14,884.7q.18,31.89.34,63.78l-3.37-.93q-.14-32.88-.36-65.77Z"/><path class="cls-19" d="M421.74,953.42c-6.6-1.73-17.73,1.14-22.15,4.49s-3.73,6.85-4.66,9.65.34.56-.27,2.4a18.42,18.42,0,0,0-3.56-.72q.7-6.27,1.42-12.56,5.49-3.2,11-6.42C409.55,951.32,415.83,952.14,421.74,953.42Z"/><path class="cls-18" d="M408.05,978.5c-1.95,0-3.91-.09-5.89-.2a2.44,2.44,0,0,1-1.35-.11c-5.23-.69-9.52-4.4-12.46-10.81-2.81-6.14,3.34-12.31,5.71-14,10-7.06,17.15-6.16,27.05-4.91l1,.13a2.5,2.5,0,1,1-.63,5l-1-.13c-9.43-1.19-15.12-1.91-23.53,4-1.27.9-5.35,5-4.05,7.82,2.33,5.09,5.42,7.78,9.19,8h.05c6.29.36,12.41.48,18.05-1.78s14.48-2.8,21-3.21L445,968a14.94,14.94,0,0,0,2-.27,5,5,0,0,1,1.79-1.84c1.07-16,2.42-32.14,3.73-47.8.88-10.63,1.8-21.62,2.62-32.43a2.5,2.5,0,1,1,5,.38c-.82,10.82-1.74,21.83-2.63,32.46-1.35,16.11-2.74,32.77-3.81,49.16l-.11,1.58-1.47.58a2.74,2.74,0,0,0-.79.4s0,0,0,.06c-1,2-2.69,2.43-5.84,2.7-1.08.09-2.39.17-3.85.27-5.85.37-14.7.94-19.47,2.85A36.63,36.63,0,0,1,408.05,978.5Z"/><path class="cls-18" d="M413.57,951a2.49,2.49,0,0,1-2.49-2.39l-.19-4.46c-.88-21.09-1.79-42.9-.33-64.45a2.5,2.5,0,0,1,5,.34c-1.45,21.28-.54,43,.34,63.9l.18,4.46a2.49,2.49,0,0,1-2.39,2.6Z"/><path class="cls-18" d="M404.78,977.65a2.62,2.62,0,0,1-.62-.07,2.5,2.5,0,0,1-1.8-3.05,23.71,23.71,0,0,1,4.52-9.11,2.5,2.5,0,1,1,3.92,3.09,18.94,18.94,0,0,0-3.6,7.27A2.51,2.51,0,0,1,404.78,977.65Z"/><path class="cls-18" d="M395.93,974.7a3,3,0,0,1-.59-.07,2.52,2.52,0,0,1-1.85-3,18.49,18.49,0,0,1,4.84-8.76,2.5,2.5,0,0,1,3.6,3.47,13.28,13.28,0,0,0-3.58,6.46A2.49,2.49,0,0,1,395.93,974.7Z"/><path class="cls-6" d="M430.78,770.55c-26.47,5.09-62.45,22.51-71,50.77-2.27,7.53-6.81,21.23,2.15,26.91-4.19,9.43-2.73,18.59,5.63,24.36s16.11,7.2,25.3,4,7.83-12.47,8-20.37c5.66,1.43,8.81.61,7.27-5.84l-12.44-14.86q.5-3.11,1-6.21,10.53-5.25,21.05-10.5a10.82,10.82,0,0,1,2.78.3c-1,6-2.54,15.86-3.39,21s-1.6,4.3-2.15,8.87-.95,12.67-1.05,17.17.69,6.39.8,10.38a22.4,22.4,0,0,1,2.2,4.23c3.45.82,1.89,1.57,6.29,2.4s5.75,1.9,13.53,2.66,26.29,1.67,36,2.37c7.89-2.62,15-5.49,22.53-8.24,3.51-4.45,7-8.87,10.58-13.3.41-5.31,2-10.91,1.67-16.19s-3-10.71-3.64-15.55-.35-8.31-.44-12.92c4.17,3.78,8.19,7.6,12.28,11.42a128.28,128.28,0,0,0,13.86,2.92c6.85-3.34,13.87-6,20.35-10.12s12.14-9.42,18.23-14.07c1.2-.1,2.4-.12,3.6-.19,4.61-3.32,9.2-6.67,13.8-10,1-7,1.81-14,2.59-21-1.89-3.84-3.79-7.66-5.56-11.55-3.57-.68-7.14-1.36-10.7-2.08-3.17,1.66-6.35,3.27-9.6,4.77-.82-7-.39-14-.63-21-2.06-1.82-4.13-3.64-6.23-5.44-1.31,1.46-2.64,2.92-4,4.32-.77,3.68-1.4,6.92-2.36,10.66a76.57,76.57,0,0,0-2.39,11.91c-6.94,7.81-14.15,15.36-21.79,22.45-17.07-12.42-33.24-22.78-54.09-26.58C456.82,766,444.47,768.7,430.78,770.55Z"/><path class="cls-19" d="M422,812.58c1.32,8,2.32,16.53,1,24.4s-3.7,15.81-4.72,23.21.14,11.67,3.36,18,19,.19,20.94-.48c14.39-4.87,22.65-3.09,36-1.85,12.2-.5,20.24-5.64,28.39-14.68-1.11,3.62.57,5.08-3,8.14s-5.77,6-11.66,8.45-14.86,6-22.86,5.24-18.69-.83-26.86-1.16-15.12,4.79-22.7-.31-6.87-10-5.41-21.46,4.81-32.84,6.74-46.07A3.82,3.82,0,0,1,422,812.58Z"/><path class="cls-18" d="M458.37,886.62a115.75,115.75,0,0,1-16.49-1.24,2.5,2.5,0,1,1,.7-5c13,1.86,24.23,1.54,35.3-1a2.5,2.5,0,0,1,1.12,4.88A91.49,91.49,0,0,1,458.37,886.62Z"/><path class="cls-19" d="M427.81,771.88c-13.22,5.24-43.08,23.58-50.13,31.13-16.48,17.62-12.86,22.87-14.56,41.86-.77-.28-2.16,1-3.2.83-3-7.1-1.62-19.3.35-25.4s4.68-6.66,5.24-12c4.51-3.2,2.56-4.41,8.44-8.35s15.19-9.7,23.42-14.33,20.54-10.47,29.51-15.26C427.47,771,429,770.08,427.81,771.88Z"/><path class="cls-19" d="M364.45,848.5c-1.35,9.89-1.27,18.06,7,24.68,0,1.1,0,2.2,0,3.29-9.78-5.72-10.61-14-9.69-24.59.1-1.2,0-2.22.06-3.39Z"/><path class="cls-16" d="M503.58,811c7.33,15,17.66,20.65,33.87,22.3-7.25,5.28-16.78,2.7-23.35-1.27s-11.92-7.74-10.72-15.25C503.64,814.86,503.49,812.9,503.58,811Z"/><path class="cls-16" d="M417.6,813.61l-18,10.39c.13,1,.25,1.9.37,2.85l18-8.26C417.89,816.93,417.75,815.27,417.6,813.61Z"/><path class="cls-19" d="M477.13,773.38c14.22,4.6,33.7,18.86,44.19,25.31s5.35.11,11.6-2.64,13.13-13.64,15.76-18.1c4.53-7.68,1.68-12.39,2.19-19.74a66.49,66.49,0,0,0-5.38,16.7c-2.88,3-7.31,7-10.07,9.54s-5.37,5.39-7.49,7.09-2.15.7-3.93,1.89c-14.31-9.34-28.42-18-44.14-24.88C479,770.24,477.4,771.31,477.13,773.38Z"/><path class="cls-19" d="M441.19,832c17.25-1.21,34.22-2.36,51.45-.35C476,821.59,458,823,441.19,832Z"/><path class="cls-16" d="M417.77,841.69c2,.36,3.17,1.71,5.37,1.73,4.81,0,7.12-5.31,11.72-6.21,8.61-1.67,10.72,5.84,6.79,12.67-1.09,1.88-3.82,3.18-4.92,5.33-1.41,2.75-1.2,6-1.32,9s-.78,6.55-3.73,7.78c-3.75,1.56-6.3-2.4-10-1.74s-6,4.36-9.18,6.17C414.18,864.88,416,853.25,417.77,841.69Z"/><path class="cls-26" d="M417.47,840.11c2,.36,3.16,1.72,5.36,1.73,4.82,0,7.12-5.31,11.72-6.2,8.61-1.68,10.72,5.84,6.78,12.66-1.09,1.89-3.82,3.18-4.92,5.33-1.41,2.76-1.2,6-1.32,9s-.78,6.55-3.73,7.78c-3.75,1.56-6.31-2.4-10-1.74s-6,4.36-9.18,6.17C413.85,863.3,415.69,851.67,417.47,840.11Z"/><path class="cls-18" d="M419.2,886.23a2.5,2.5,0,0,1-1.4-.43c-.33-.23-.62-.41-.89-.58a14.13,14.13,0,0,1-3.05-2.45,18.11,18.11,0,0,1-3.26-5.93c-1.3-3.82-.55-11.27-.54-11.34.28-2.66.35-5,.42-7.17a54.69,54.69,0,0,1,2.86-17.73c.6-2,1.21-4,1.79-6.42a84.71,84.71,0,0,0,2-20.45,2.5,2.5,0,1,1,5-.25A88,88,0,0,1,420,835.31c-.61,2.63-1.25,4.72-1.86,6.75a58.33,58.33,0,0,0-1.94,7.58,60.43,60.43,0,0,0-.72,8.84c-.07,2.31-.14,4.7-.44,7.54-.27,2.57-.36,7.28.3,9.21a13.61,13.61,0,0,0,2.17,4.11,9.23,9.23,0,0,0,2.09,1.66c.31.19.64.4,1,.65a2.51,2.51,0,0,1-1.4,4.58Z"/><path class="cls-16" d="M507.26,868.74c-3.33,1-6.7,2.32-9.95.47-2.41-1.38-3.05-3.94-3.9-6.38-1.48-4.3-3.1-8.48-4.58-12.79-1-2.88-2.42-5.55-1.6-8.73,1.24-4.79,4.4-7.09,9.27-8.57a26.09,26.09,0,0,1,6.21-.42C504.33,844.5,506.34,856.46,507.26,868.74Z"/><path class="cls-26" d="M506.43,866c-3.13,1-6.28,2.18-9.32.43-2.26-1.3-2.9-3.68-3.71-6-1.43-4-3-7.93-4.41-12-.93-2.71-2.29-5.23-1.48-8.22,1.21-4.52,4.12-6.68,8.76-8.08a27.85,27.85,0,0,1,6.35-.39C507.2,843.8,509.82,853.28,506.43,866Z"/><path class="cls-18" d="M493.26,880.85a2.5,2.5,0,0,1-1.05-4.77c5.3-2.47,8.68-4.56,11.38-8.52s2.91-10.82,2.76-15.52-2.05-10.77-3.06-14.08l-.71-2.31a54.51,54.51,0,0,1-2.51-10.26,75.56,75.56,0,0,1-.52-10.14c0-1.12,0-2.28,0-3.53a2.5,2.5,0,0,1,5-.1c0,1.28,0,2.47,0,3.61a70.48,70.48,0,0,0,.48,9.52,50.72,50.72,0,0,0,2.32,9.42l.72,2.33c1.16,3.77,3.1,10.08,3.27,15.38.2,5.85,0,13.25-3.62,18.5s-8.44,7.92-13.4,10.23A2.48,2.48,0,0,1,493.26,880.85Z"/><path class="cls-18" d="M398.35,831.87a2.5,2.5,0,0,1-1-4.77l7.49-3.43L417.22,818a2.5,2.5,0,0,1,2.08,4.55l-12.42,5.68-7.49,3.42A2.42,2.42,0,0,1,398.35,831.87Z"/><path class="cls-18" d="M526.84,839.92a23.21,23.21,0,0,1-12.1-3.09,52.05,52.05,0,0,1-13.8-13.12,2.5,2.5,0,1,1,4.08-2.89,46.77,46.77,0,0,0,12.36,11.77c3.89,2.41,9.57,2.73,13.47,2a16.7,16.7,0,0,0,5.93-2.2l1.71-.92c8.21-4.23,15-10.09,21.62-15.77a10.34,10.34,0,0,0,1.82-2.65,14,14,0,0,1,2.82-3.87,2.69,2.69,0,0,1,3-.42,2.59,2.59,0,0,1,1,.86,8.31,8.31,0,0,1,1.52.4c.87.26,4.34-.78,6.18-2.56a17.92,17.92,0,0,1,3-2,18.56,18.56,0,0,0,3.11-2.18,22,22,0,0,0,3.71-11.66c.06-.92.14-1.78.22-2.61.37-3.93.63-6.77-1.12-11.21-.9-2.27-3-6.29-6.94-7.7-2.75-1-7-1.55-7.81-.83a10,10,0,0,1-2.29,2.06c-.59.43-2.16,1.58-2.18,2a3.18,3.18,0,0,1-2.28,3.05c-1.07.29-2.57.11-3.65-2.4-1.65-2.51-1.7-7.91-1.59-8.73a44.23,44.23,0,0,1,1.18-5.39,27.37,27.37,0,0,0,.84-3.83,8.76,8.76,0,0,0-1.88-6.51c-.67-.93-.67-.93-1.4-1.18-.4-.14-.94-.32-1.63-.62a4.15,4.15,0,0,0-1.48.14,6.83,6.83,0,0,0-1.46,3c-.25,1.36-.52,2.71-.78,4.06a117.91,117.91,0,0,0-2,12.71,31.06,31.06,0,0,1-1,5.3,16.78,16.78,0,0,1-2.3,4.18,155,155,0,0,1-17.1,17.59l-.23.22a6.35,6.35,0,0,1-3.46,2.1,6.86,6.86,0,0,1-3.09-.54,8.87,8.87,0,0,1-2-1.2l-.32-.24c-4-2.94-5-3.57-7.64-5.25-1.31-.83-3-1.91-5.64-3.63-11-7.16-26.21-15.21-36-16.29a2.5,2.5,0,0,1,.56-5c13.37,1.49,32.57,13.45,38.14,17.08,2.61,1.7,4.29,2.77,5.59,3.59,2.75,1.75,3.78,2.4,7.91,5.43l.42.32a4,4,0,0,0,.94.59l.32.08c.24-.19.56-.5.72-.66s.31-.3.42-.39a150.66,150.66,0,0,0,16.57-17.06,13.29,13.29,0,0,0,1.37-2.5,27,27,0,0,0,.82-4.19,125,125,0,0,1,2.11-13.24c.26-1.33.53-2.66.78-4a11.73,11.73,0,0,1,2.85-5.62c1.9-2,5.71-1.77,6.85-1.24.58.26,1,.4,1.39.54a6.64,6.64,0,0,1,3.84,3,13.71,13.71,0,0,1,2.81,9.85,28.06,28.06,0,0,1-1,4.71,40.25,40.25,0,0,0-1.05,4.77,14.52,14.52,0,0,0,.16,2.61c.55-.47,1.11-.88,1.62-1.26a10.33,10.33,0,0,0,1.2-.94c3.09-4.39,11.82-1.57,13.53-1,5.81,2.07,8.71,7.51,9.92,10.58,2.19,5.54,1.85,9.23,1.45,13.51-.07.79-.15,1.62-.22,2.5a26.94,26.94,0,0,1-4.47,14c-.83,1.31-2.4,2.34-4.72,3.76a20.5,20.5,0,0,0-2.1,1.39c-2.65,2.56-7.87,4.67-11,3.75a3.56,3.56,0,0,1-2.2.41l-.2,0-.17.31a14.31,14.31,0,0,1-2.92,4c-6.81,5.86-13.85,11.92-22.58,16.43-.61.31-1.13.6-1.61.86a21.45,21.45,0,0,1-7.38,2.71A26.17,26.17,0,0,1,526.84,839.92ZM568,814.54m-43.2-22.47Zm31-44.39Zm-.35-.12Z"/><path d="M412.42,770.68l19.56-7.6s9.76,16,18.94,14.49c-2.66,32.92,1.13,71.53,8.17,113a31.79,31.79,0,0,1-12.26,3c-5.7.2-7.09-1.4-14.3-1.53-6.14-.11-7.11,1-12.63,1a42.23,42.23,0,0,1-14.18-2.72c1.24.82,8.07-42.81,9.14-79.94C415.3,795,414.78,779.52,412.42,770.68Z"/><path d="M503.56,774.65l-20-7.85s-8,9.69-16.66,10.77c2.65,32.93,8,69.48.93,110.95a32,32,0,0,0,12.26,3c5.7.2,7.09-1.41,14.29-1.53,6.15-.11,6-.26,11.54-.34,4.51-.85,5.7-6.21,11-8.51-3.25-14.13-6.76-28-6.95-53.34C506.56,819.19,497.94,788.91,503.56,774.65Z"/><circle class="cls-6" cx="444.53" cy="821.68" r="1.95"/><circle class="cls-6" cx="445.19" cy="837.93" r="1.95"/><circle class="cls-6" cx="445.86" cy="853.71" r="1.95"/><path class="cls-27" d="M515.87,869.76c-.62,7.14-5.87,11.29-13.23,11.47-27.74-.1-54.7-3.52-80.61-11.35.12,2.76-.82,6.74-2.1,11.13a10.65,10.65,0,0,1-6.48,6.55c-3.33.42-7.81-.36-13.07-1.95a3.63,3.63,0,0,1-1.83-3.86,20.47,20.47,0,0,1,1.62-4.7,7.46,7.46,0,0,1-3.06-.62L375.9,889c-2.21,1.55-8.07,1.8-10.6.17-3.65-9.85-3.35-20.82-1.42-32.25.27-1.34,1.64-2.79,4.12-2.5l42.19,6.13c7-6.74,9-4.61,17-3.56l67.42,3.26a22,22,0,0,1,4.39,7.29Z"/><g class="cls-22"><path class="cls-27" d="M373.3,887.31c6.71-1.9,23.74-13,23.74-13a9.18,9.18,0,0,0,5,1.8c-2.45,5.6-2.19,7.21-.87,8.06,0,0,8.38,4.41,13.31.55s6.22-17.83,6.22-17.83c18,6.4,66.74,9.77,79.45,10.68,9,.65,11.54-4.91,12.26-8.22l3.48.46c-.62,7.14-5.87,11.29-13.23,11.47-27.74-.1-54.7-3.52-80.61-11.35.12,2.76-.82,6.74-2.1,11.13a10.65,10.65,0,0,1-6.48,6.55c-3.33.42-7.81-.36-13.07-1.95a3.63,3.63,0,0,1-1.83-3.86,20.47,20.47,0,0,1,1.62-4.7,7.46,7.46,0,0,1-3.06-.62L375.9,889c-2.21,1.55-8.07,1.8-10.6.17-.14-.36-.25-.73-.38-1.1A18.48,18.48,0,0,0,373.3,887.31Z"/></g><path class="cls-28" d="M507.89,864.34l43.92,10c10.4,1,9.87-20.21.7-20.81l-115.49,2"/><path class="cls-28" d="M497.91,867.56l43.39,5.32c10.4,1,9.87-20.2.7-20.81l-115.48,2s-4-5-2.89-8.84a8.71,8.71,0,0,0-6.66-.87q-.93,5.57,2.61,11.46"/><path class="cls-28" d="M455.47,877.47,451.54,887c-.86,2.07-2.13,3.83-4.15,3.56l-14.35-3c-2.21-.56-3.07-3.87-3.32-5.44l-1.25-10.35,5.16,1.29,1.11,9c.15,1.22.86,2.66,1.88,3l6.34,2.22c1,.32,2.64.09,3.13-1l3.58-9.53Z"/><g class="cls-29"><path class="cls-28" d="M448.16,889.28l5.43-12.09,1.88.28L451.54,887c-.86,2.07-2.13,3.83-4.15,3.56l-1.53-.32C447.45,890.11,448,889.58,448.16,889.28Z"/></g><path class="cls-28" d="M436.51,873.78c-1,6.81,3.21,10.05,3.21,10.05s5.2,2.61,2.2-1.16a8.9,8.9,0,0,1-1.51-8Z"/><g class="cls-22"><path class="cls-28" d="M542.47,853.13c8.25.55,8.72,19.66-.63,18.71C534.61,871.6,535.24,852.89,542.47,853.13Z"/></g><g class="cls-22"><path class="cls-28" d="M553.57,854.87c6,.46,6.82,18.68-.6,17.83C547.15,872.42,547.88,854.59,553.57,854.87Z"/></g><path class="cls-28" d="M535.84,852.18l3.46-3.74a20.24,20.24,0,0,1,10.92.29,9,9,0,0,0-.66,5.25C546.08,854.49,542.74,852.21,535.84,852.18Z"/><g class="cls-22"><path class="cls-28" d="M423.63,845.24c-1.07,3.81,2.89,8.84,2.89,8.84l109.32-1.9h0l3.46-3.74a20.24,20.24,0,0,1,10.92.29,3.17,3.17,0,0,0-.17.38c-2-.26-7.93-.92-9.57,0-2,1.17-4,4.49-4,4.49l-110.1,1s-5.19-5.33-3.25-9.08a12.72,12.72,0,0,0-6.25-.9c0-.1,0-.2,0-.3A8.71,8.71,0,0,1,423.63,845.24Z"/></g><g class="cls-29"><path class="cls-27" d="M368,854.41l42.19,6.13c3.63-3.29,6.36-5.7,11.17-4.4-5.09,1.48-8.39,2.8-10.25,6.84l-42.08-6c-2.77-.44-4.95.45-5.46,1.88.1-.63.2-1.27.31-1.91C364.15,855.57,365.52,854.12,368,854.41Z"/></g><path class="cls-18" d="M373.75,879a2.49,2.49,0,0,1-2.48-2.22l-1.6-14.53a2.5,2.5,0,1,1,5-.55l1.6,14.53A2.5,2.5,0,0,1,374,879Z"/><path class="cls-18" d="M389.44,880.78a2.5,2.5,0,0,1-2.47-2.14l-2.37-16.25a2.5,2.5,0,1,1,4.95-.72l2.37,16.25a2.5,2.5,0,0,1-2.12,2.83Z"/><path class="cls-18" d="M361.77,849.8a2.5,2.5,0,0,1-.86-4.85l10.5-3.86a2.5,2.5,0,0,1,1.73,4.69l-10.5,3.87A2.65,2.65,0,0,1,361.77,849.8Z"/><path class="cls-18" d="M554.78,790.24a2.51,2.51,0,0,1-1.4-4.58,16.56,16.56,0,0,0,6-8.64,6.93,6.93,0,0,0,0-3.78,19,19,0,0,1-.41-3,2.5,2.5,0,1,1,5-.22,14.35,14.35,0,0,0,.32,2.34,11.69,11.69,0,0,1-.12,6.12,21.56,21.56,0,0,1-8,11.38A2.48,2.48,0,0,1,554.78,790.24Z"/><path class="cls-18" d="M576,811a15.13,15.13,0,0,1-3.28-.35c-4.58-1-7.83-3.69-8.27-6.91-.37-2.65-.82-5.16-1.26-7.6-1.35-7.4-2.61-14.4-.54-22h0c1.21-4.45,4.08-7.44,8.07-8.43,5-1.25,11,.92,15.35,5.52,3.1,3.31,5.22,10.32,4.94,16.29l0,.41c-.26,5.64-.66,14.11-5.9,18.78C583,809.84,579.4,811,576,811Zm-8.52-35.57h0c-1.78,6.53-.67,12.69.63,19.82.45,2.49.91,5,1.29,7.81.11.76,1.68,2.13,4.37,2.71,2.44.52,5.82.29,7.3-2.07l.21-.34.31-.25c3.84-3.21,4.18-10.57,4.41-15.44l0-.4c.23-5-1.67-10.58-3.6-12.65-3-3.24-7.25-4.88-10.5-4.08C569.75,771.06,568.25,772.7,567.52,775.4Z"/><path class="cls-18" d="M587.66,785a1.51,1.51,0,0,1-.3,0c-7.51-.87-15.29-1.78-23-3.1a2.5,2.5,0,0,1,.84-4.93c7.62,1.3,15.33,2.2,22.78,3.07a2.5,2.5,0,0,1-.28,5Z"/><path class="cls-18" d="M586.87,798.52a1.46,1.46,0,0,1-.29,0l-4.35-.49c-5.14-.58-10.45-1.18-15.68-1.85a2.5,2.5,0,0,1,.64-5c5.19.67,10.48,1.27,15.6,1.84l4.36.5a2.5,2.5,0,0,1-.28,5Z"/><path class="cls-6" d="M430.78,770.55c-26.47,5.09-62.45,22.51-71,50.77-2.27,7.53-6.81,21.23,2.15,26.91-4.19,9.43-2.73,18.59,5.63,24.36s16.11,7.2,25.3,4,7.83-12.47,8-20.37c5.66,1.43,8.81.61,7.27-5.84l-12.44-14.86q.5-3.11,1-6.21,10.53-5.25,21.05-10.5a10.82,10.82,0,0,1,2.78.3"/><path class="cls-18" d="M385.47,882.17a35.46,35.46,0,0,1-16.71-4.23l-.15-.08a21,21,0,0,1-5.41-3.94c-5.42-5.61-6.26-13.14-6-18.46a27.54,27.54,0,0,1,1.12-6.93c-3.31-2.2-5.26-11.35-2.87-23.68,1.31-6.71,2.66-13.64,7.92-20.9,2.3-3.17,6.3-7.6,16.94-13.8l3.18-1.88c10.92-6.48,36.5-21.67,49.76-25.1a2.5,2.5,0,1,1,1.25,4.84c-12.57,3.25-38.64,18.73-48.46,24.56l-3.21,1.9c-9.84,5.73-13.4,9.64-15.41,12.41-4.61,6.37-5.8,12.47-7.06,18.93-2.23,11.49-.1,17.28.66,18.45a4.2,4.2,0,0,1,2.17,2.5,4,4,0,0,1-.27,3.65c-.73,2.47-2.43,13.48,3.89,20a16.22,16.22,0,0,0,4.24,3l.15.09c8.43,4.66,22.17,5.12,26.2-1,1.71-2.6,2.42-7.27,1.64-10.86-.1-.44-.25-1-.41-1.66-.85-3.33-1.42-5.52,1-6.39.71-.26,2.09-.43,3.3,1.34l.07.1A3.55,3.55,0,0,0,405,856a3.3,3.3,0,0,0,2.45-.62c1.37-1.16.88-3.6.43-4.59a4,4,0,0,0-1.1-1.43c-2.75-2.36-6.65-6.57-11.94-12.87l-1-1.24.7-1.45c1.9-4,1.07-16.34.1-23.21a2.5,2.5,0,0,1,4.95-.7c.26,1.83,2.3,17,.05,24.5a109.67,109.67,0,0,0,10.43,11.17,9,9,0,0,1,2.4,3.16c1.42,3.12,1.48,7.73-1.74,10.47a8.11,8.11,0,0,1-6.29,1.77l-.49-.06c1,4.88,0,10.81-2.39,14.49C398.44,880.06,392.23,882.17,385.47,882.17ZM362.35,851h0Zm-3.29-3.76a1.67,1.67,0,0,0-.41.5A1.93,1.93,0,0,1,359.06,847.28Zm0,0Z"/><path class="cls-6" d="M496.33,553.08s1.46-10.33,15.1-20.4c0,0,1,19.65,2.48,24.15s1.85,9.52,6.1,14.26,19.45,2.06,19.45,2.06,15.13-4.45,19.48-16.2a49.82,49.82,0,0,0,3.22-21.11s-2.85-15.82-6.73-19.69-3.18-9.11-14.82-16.85a65.45,65.45,0,0,0-23.21-9.6,28.16,28.16,0,0,0-18.94,3.41c-9.58,5.58-10.39,7.58-14.46,13.63s-6,24.12-6,24.12"/><path class="cls-16" d="M552.75,565.69c-3.07,6.67-15.38,8.48-25.52,8.9s-13.79-13.77-13.79-13.77l-.38-16s-1-15.19-5.88-25.53a29.11,29.11,0,0,0-13.91-14s13-2.73,19.53,17.57c0,0,7,16.92,7.35,30.82.61,8.53,3.42,11.58,5.93,12.92s18.13,6.75,32.18-8.06Z"/><path class="cls-16" d="M489.18,539c-6.43-8.46.74-30.56,3.39-31.41,9.92,6.05,14.69,15.18,16.15,26.3l-10.47,12.7-7.41-4.27Z"/><path class="cls-18" d="M532.31,577.15c-5.78,0-11.66-1.52-15.83-5.72-4.83-4.86-6.14-11.92-6.77-15.31a38.38,38.38,0,0,1-.62-8v-.38c.07-6.47-.71-22.64-9.38-32.8a31,31,0,0,0-13.26-8.85l-.29-.13c-6.32,9.49-6.17,20.09-5.92,23.53a2.57,2.57,0,0,1-5.13.38c-.34-4.62-.5-20.63,11.56-32.59a39.43,39.43,0,0,1,21.22-10.7c21.72-3.51,42.81,12.47,51.63,29.3,3,5.63,11.84,25.43,2.16,43.34-4.47,8.29-10.64,13.75-18.33,16.22A36.66,36.66,0,0,1,532.31,577.15Zm-42.8-75.45a35.81,35.81,0,0,1,14.13,9.86c9.44,11.08,10.69,27.43,10.6,36.2v.39a33.25,33.25,0,0,0,.52,7c.54,2.89,1.66,8.9,5.37,12.64,5.37,5.4,15,4.83,21.66,2.69,9.61-3.09,14-11.13,15.38-13.77,8.68-16.08-.31-34.9-2.2-38.51-8-15.23-26.91-29.73-46.25-26.6a34.2,34.2,0,0,0-18.42,9.27C490,501.16,489.76,501.43,489.51,501.7Z"/><path class="cls-18" d="M496.77,564h-.21a2.55,2.55,0,0,1-2.35-2.77c1.05-12.9,5.51-22.32,12.9-27.22.43-.28.86-.55,1.32-.81a2.57,2.57,0,1,1,2.54,4.47q-.53.3-1,.63c-7.61,5-10,15.49-10.62,23.35A2.57,2.57,0,0,1,496.77,564Z"/><path class="cls-18" d="M536.67,516.52a2.58,2.58,0,0,1-2.53-2.09c-3-16-15.53-22.49-18.45-23.24a2.57,2.57,0,1,1,1.27-5c5.84,1.49,19,10.11,22.24,27.26a2.55,2.55,0,0,1-2.53,3Z"/><g id="HEAD"><path class="cls-6" d="M429.29,770.68c-4.6-21.4-15.13-58.78-18.19-61.82-41-40.72-36.63-117.72-36.42-128.21.63-32.06,10.51-45.55,15-50.77,21.06-24.55,52.17-23.07,67-16.59,10.51,4,20,11.14,34.82,31.24,21.73,29.53,37.66,51.2,41,84.6,3,30.55-6.12,53.91-12,69-15.37,39.14-28.9,59.51-44.41,72.33"/></g><path class="cls-16" d="M381.23,576.75c-.53,7.54.52,19.3.52,29.07.81,27.2,6.39,58.7,31.76,102.3-9.31-6.68-24.43-25-30.79-57-5.84-29.37-8-38-6.76-38.5l-.35-41Z"/><path class="cls-16" d="M441.59,510.88c17.28,13,65.34,73.55,95,97.29,23.45,16.24,31.86,39.42,20.9,71,0,0,22.73-9.19,6.51-59.36,0,0-17.4-7.28-39.7-16-1.63-15.81-12.73-34.23-30.47-54.46C489.29,545.2,467.65,510.4,441.59,510.88Z"/><path class="cls-18" d="M476.06,773a2.5,2.5,0,0,1-1.69-.65,2.61,2.61,0,0,1,.24-3.89c10.08-8.36,26.87-28.8,43.53-71.2,5.92-15.09,14.87-37.88,11.88-67.83-3.28-32.72-18.9-54-40.53-83.37-14.89-20.24-23.93-26.64-33.7-30.39l-.1,0c-14.21-6.19-44.18-7.34-64.14,15.93-9.1,10.65-13.94,27.2-14.37,49.18-.48,24.42-.63,90.32,35.69,126.4,2.49,2.47,15.89,44.71,20.79,67.38a2.5,2.5,0,1,1-4.87,1.13c-4.56-21.2-17.21-62.74-19.45-65-37.68-37.44-37.65-105-37.16-130,.45-23.17,5.69-40.78,15.57-52.34C409.6,502.79,441.49,504,457.63,511c10.3,4,20.36,11,35.89,32.07,22.1,30.05,38.06,51.76,41.47,85.84,3.12,31.15-6.1,54.62-12.2,70.15-17.17,43.73-35,65-45.14,73.35A2.47,2.47,0,0,1,476.06,773Z"/><path class="cls-6" d="M463.48,551.64c8.18,30.14,26.44,46.21,41.95,47.8,10.87,1.11,20.66,3.11,20.66,3.11,8.32.07,10.17-1.36,15-.62,11.82,1.82,19.28,13.29,21.92,17.36,13.57,20.88,5.41,44.93,5,46.07-6.14,17.16-20.25,25.11-22.45,27.71-33.06,39.15-110.37-8.39-112-28.31-1.06-13,.67-24.67,2.61-28.48C463.56,634.34,476.45,591.6,463.48,551.64Z"/><path class="cls-6" d="M464.11,551.51c8.18,30.14,26.44,46.22,41.94,47.8,10.88,1.12,20.67,3.12,20.67,3.12,8.32.06,10.17-1.36,15-.62,11.82,1.81,19.28,13.29,21.92,17.36,13.57,20.88,5.41,44.92,5,46.07-6.14,17.16-20.25,25.11-22.45,27.7-33.06,39.15-107.95-7.51-109.57-27.43-1.06-13-1.75-25.54.19-29.35C464.19,634.22,477.08,591.48,464.11,551.51Z"/><path class="cls-16" d="M564,620.07c17,42.9-8.79,63.15-8.79,63.15,11-31.57,4.83-58.53-18.62-74.78Z"/><path class="cls-19" d="M513.69,706.33s-84.51,6.25-79-68.77l3.49-2.67C434.81,700,506.53,708.82,513.69,706.33Z"/><path class="cls-19" d="M500.19,609s-4.07,6-3.43,20.77,12.48,12.72,12.48,12.72,17-2.53,28.82,2.93,12.8-6.2,12.8-6.2"/><path class="cls-19" d="M440.63,632.58s17.64,27.49,33.41,39.07,27.63,20.59,27.63,20.59,7.34,5.5,16.47,5c13,0,26.32-18.05,26.32-18.05l-.6,4.91a30.36,30.36,0,0,1-1.7,3.32c-4.16,7.06-11.36,13-18.47,14.9-7.54,2-14.86-.49-23.32-5-11.78-6.33-37.72-17.69-53.36-47.07a98.17,98.17,0,0,1-6.89-16.34Z"/><path class="cls-18" d="M518.72,706.68c-14.81,0-32-13.59-42.82-22.18L474,683c-16-12.6-28.75-29.07-37.83-49a2.5,2.5,0,1,1,4.54-2.08c8.75,19.15,21,35,36.38,47.1l1.94,1.54c11,8.69,31.41,24.87,44.86,20.3,7.33-2.49,12.66-9,14.94-11.75,5.81-7,6.06-16.49,6.18-21,0-.92,0-1.6.1-2.13-1.2-11.64-3.09-18.8-6.84-30.33-2.66-8.14-5.4-16.55-12.51-23.76a26.32,26.32,0,0,0-11-6.89l-.73-.25a62.27,62.27,0,0,0-8.41-2.81c-9.8,1.51-28.38-3.05-44.49-49.48a2.5,2.5,0,0,1,4.72-1.64C481.43,595.75,498.43,598.06,505,597c.72-.12,1.82-.3,10.78,3.11l.53.18a30.92,30.92,0,0,1,13,8.12c7.93,8,10.86,17,13.69,25.72,3.9,12,5.85,19.39,7.1,31.66l0,.33,0,.33c-.05.25-.07,1.09-.09,1.82-.12,4.7-.42,15.69-7.3,24-2.35,2.85-8.54,10.37-17.21,13.32A20.78,20.78,0,0,1,518.72,706.68ZM505.5,601.93Z"/><path class="cls-18" d="M426.9,640.92a2.5,2.5,0,0,1-.45-5c11.55-2.16,13.81-11.2,13.9-11.58a2.5,2.5,0,0,1,4.88,1.1c-.12.51-3,12.61-17.86,15.4A2.49,2.49,0,0,1,426.9,640.92Z"/><path class="cls-30" d="M394.85,563.06c10.26-19.24,35.41-27.93,50.69-15.53,3.71,2.83,5.94,6.43,10.24,13.5,3.53,5.79,6.33,10.45,9,17.34,2.16,5.67,3.42,9.06,3.45,13.93-.18,9.37-2.12,17.08-16.4,23.57-25.92,12.74-56.13,7.47-60.65-28.19C390.59,583.43,389.44,573.4,394.85,563.06Z"/><path class="cls-6" d="M426.84,605.74c-15.27-3.79-24.84-31.25-9.62-46.21,9.35-8.64,20.37-5.91,27.58,3.1,5.77,6.63,6.5,14.18,7,19.13.64,6.59,1.22,12.61-2.72,17.44s-10.54,6-13.4,6.49A22,22,0,0,1,426.84,605.74Z"/><path class="cls-18" d="M430.79,608.68a19.42,19.42,0,0,1-4.53-.51h0c-8.08-2-15.12-10-17.94-20.29-3.11-11.38-.43-22.65,7.18-30.12,4.65-4.29,9.93-6.32,15.35-5.92,5.85.44,11.49,3.71,15.9,9.2,6.27,7.23,7.07,15.52,7.55,20.48.65,6.71,1.31,13.64-3.27,19.27s-11.83,6.85-14.92,7.37A30.45,30.45,0,0,1,430.79,608.68Zm-3.37-5.37a19.61,19.61,0,0,0,7.82-.09c2.75-.47,8.48-1.44,11.88-5.6s2.77-9.4,2.17-15.62c-.45-4.66-1.13-11.7-6.38-17.73l-.06-.08c-3.54-4.42-7.94-7-12.4-7.37-4-.31-8,1.27-11.53,4.55-6.24,6.14-8.43,15.57-5.81,25.18C415.46,595.15,421.08,601.73,427.42,603.31Z"/><path class="cls-6" d="M470.25,552.79c2.72-6,10.09-12.48,20.93-8.66,4,1.66,6.07,4.53,8.89,8.48a41,41,0,0,1,5.82,12.28c1.71,5.82,3,10.38,1.25,15.66-.43,1.28-2.32,6.62-7.62,9.42C484.2,598.93,463.29,568.87,470.25,552.79Z"/><path class="cls-18" d="M493.55,594c-4.46,0-9.19-2-13.69-6-9.59-8.49-16.63-25-11.83-36.16l0,0c3.47-7.63,12.44-14,23.93-9.93l.12,0c4.66,1.92,7,5.18,9.94,9.31a44.13,44.13,0,0,1,6.17,13c1.74,6,3.25,11.11,1.22,17.11a18.94,18.94,0,0,1-8.74,10.75A14,14,0,0,1,493.55,594Zm-21.1-40.25c-3.9,9.06,2.46,23.4,10.61,30.62,3.15,2.79,9.33,7,15.24,3.51l.09-.06a14.12,14.12,0,0,0,6.47-8.05c1.54-4.56.36-8.61-1.28-14.21A38.53,38.53,0,0,0,498.11,554c-2.68-3.76-4.45-6.24-7.79-7.63C480.45,542.94,474.45,549.39,472.45,553.76Z"/><path d="M425.87,604.73c-11.88-3-19.33-24.32-7.48-36,1-.92,4.58-4.12,9.69-4.1,6.12,0,10.14,4.65,11.76,6.51,4.5,5.17,5.07,11,5.44,14.89.49,5.13.94,9.81-2.12,13.57s-8.2,4.67-10.43,5.05A17.13,17.13,0,0,1,425.87,604.73Z"/><path class="cls-18" d="M508.67,711.36c-9.4,0-17.24-2.36-25.45-4.83-14.13-4.24-30.14-9.06-41.13-24.15C429.43,665,431.33,644,432.73,635.73l4.93.84c-1.3,7.61-3.07,27,8.47,42.86,10,13.74,25.16,18.29,38.53,22.32,10,3,18.63,5.59,30.14,4.25,19.94-2.34,38.61-15.63,47.58-33.86,5.78-11.75,7.56-24.17,5.15-35.92-2.56-12.55-8.37-20.09-12.78-24.21-2.29-2.13-7.06-6.57-14-7.6-1.85-.29-6.11,0-10.63.2-8.92.49-20,1.11-27.19-1-16.44-4.52-36.23-20.7-42.41-52.57l4.9-1c5.75,29.62,23.85,44.58,38.87,48.71,6.38,1.84,17.46,1.22,25.55.78,5.2-.29,9.31-.52,11.65-.16,8.52,1.26,14.26,6.61,16.72,8.89,5,4.62,11.44,13,14.27,26.86,2.63,12.85.71,26.39-5.56,39.14-9.7,19.71-29.91,34.08-51.49,36.61A56.06,56.06,0,0,1,508.67,711.36Z"/><path class="cls-6" d="M423.65,570c-.07,1.84.82,3.25,1.9,4.74,5.88,8,12.51,11.13,14.43,10.59,5.51-1.59,3.87-6.78,1.49-10.72-.66-1.2-3.92-6.8-10.35-8.86C426.46,563.9,423.92,566.36,423.65,570Z"/><path class="cls-18" d="M430.14,607a16.45,16.45,0,0,1-4.72-.36h0c-6.29-1.56-11.77-7.76-14-15.79C409,582,411.1,573.2,417,567.39c3.48-3.13,7.18-4.68,11.07-4.67,7,0,11.52,5.23,13.22,7.18,4.91,5.64,5.53,12.11,5.9,16,.51,5.22,1,10.61-2.54,15s-9.21,5.33-11.61,5.74C432.33,606.73,431.32,606.9,430.14,607Zm-3.82-4.14a15.17,15.17,0,0,0,6.09-.07c2.14-.36,6.6-1.12,9.24-4.36s2.16-7.32,1.69-12.16c-.35-3.62-.88-9.1-5-13.79-1.52-1.74-5.08-5.82-10.31-5.84a12.39,12.39,0,0,0-8.38,3.6c-4.84,4.76-6.55,12.1-4.5,19.58C417,596.49,421.39,601.61,426.32,602.84Z"/><path d="M471.92,560.76a12.75,12.75,0,0,1,16.5-6.82c3.17,1.3,4.79,3.57,7,6.69A32.19,32.19,0,0,1,500,570.3c1.34,4.6,2.39,8.19,1,12.35a13.17,13.17,0,0,1-6,7.42,12.69,12.69,0,0,1-5.33,1.32C479.94,591.33,466.84,572.05,471.92,560.76Z"/><path d="M498.48,609.26c5.07-15.45,18.31-22.91,19.21-23.4,13.15-7.15,25.68-4.4,30-3.45,4.66,1,10.38,2.36,15.31,7.37a24,24,0,0,1,6.65,13.39c.73,5.44-.8,9.44-2.81,14.68C564.1,625,560.68,629,554.67,636c-4.26,5-6.83,7.07-9.95,7.11a9.4,9.4,0,0,1-4.87-1.56c-10.52-5.54-25.61-5.18-30-5.07-2.81.07-5.2.31-7.59-1.22-.61-.4-3.34-2.26-4.81-8.56A32.86,32.86,0,0,1,498.48,609.26Z"/><path class="cls-6" d="M478.79,558.58c-.07,1.84.81,3.26,1.9,4.74,5.87,8,12.51,11.14,14.43,10.59,5.51-1.59,3.87-6.77,1.49-10.71-.67-1.21-3.93-6.81-10.36-8.87C481.59,552.48,479.05,554.94,478.79,558.58Z"/><path class="cls-18" d="M490.42,593.27c-.26,0-.51,0-.77,0-6.17,0-12.15-5.95-15.69-11.47-3.87-6-6.89-14.92-3.77-21.84h0a15.42,15.42,0,0,1,7.28-7.5,15.08,15.08,0,0,1,11.68-.3c3.67,1.51,5.5,4.08,7.83,7.34a34.89,34.89,0,0,1,4.87,10.25c1.37,4.7,2.55,8.76,1,13.49a13.81,13.81,0,0,1-12.39,10Zm-16.77-31.73c-2.49,5.54.18,13,3.51,18.23,3.71,5.79,8.74,9.7,12.51,9.72A10,10,0,0,0,499.2,582c1.22-3.59.29-6.78-1-11.2a30.51,30.51,0,0,0-4.32-9.11c-2.12-3-3.52-4.94-6.18-6a11.31,11.31,0,0,0-8.62.22,11.55,11.55,0,0,0-5.43,5.62Z"/><path class="cls-6" d="M431.57,586.42c-1.43.17-3.39-1.45-3.65-3.09-.07-.44,0-.81-.28-1-.44-.32-1.44,0-1.93.59-.93,1.15-.07,3.56,1.13,5a5.57,5.57,0,0,0,3.75,1.94,3.67,3.67,0,0,0,2.85-.87,2.34,2.34,0,0,0,.72-2.05,1.54,1.54,0,0,0-.83-1C432.69,585.71,432.37,586.32,431.57,586.42Z"/><path class="cls-6" d="M486.7,575c-1.42.17-3.38-1.44-3.65-3.09-.07-.44,0-.8-.28-1-.43-.33-1.44,0-1.92.59-.93,1.15-.08,3.55,1.13,5a5.54,5.54,0,0,0,3.75,1.93,3.64,3.64,0,0,0,2.84-.86,2.28,2.28,0,0,0,.72-2,1.48,1.48,0,0,0-.83-1C487.83,574.29,487.5,574.91,486.7,575Z"/><path d="M405.5,548.75c3.49-9.84,18.21-16.08,27-9.49a.58.58,0,0,1-.16,1c-9,3.87-16.29,8.44-26.23,9.28A.6.6,0,0,1,405.5,548.75Z"/><path d="M460.59,536.42c3.92-11.65,23-14.49,28.9-3a.62.62,0,0,1-.45.89c-4.77,1-9.25,1.16-13.9,1.47s-8.77.92-13.88,1.43a.58.58,0,0,1-.67-.74Z"/><path class="cls-19" d="M497.42,723.32c-1.47,9.75-23.43,10.71-23-1C481.18,726.13,488.7,727,497.42,723.32Z"/><path class="cls-18" d="M484.57,727.2c-7.47,0-10.46-4.31-10.63-4.57a2,2,0,0,1,3.39-2.29c.22.31,4.66,6.12,18.08,0a2,2,0,0,1,1.71,3.72A30.45,30.45,0,0,1,484.57,727.2Z"/><path class="cls-6" d="M390.65,543S384.32,526.5,379,521.83s-6.59-6.34-17-9.19a27.32,27.32,0,0,0-18.63,1.53A63.68,63.68,0,0,0,324,529c-9,10.18-7,14.94-9.7,19.53s-1.4,20.17-1.4,20.17a48.36,48.36,0,0,0,8.29,19c7,9.94,22.34,10.34,22.34,10.34s14.94-1.28,17.75-6.79,1.91-10.32,2.17-14.92-3.7-23.3-3.7-23.3C375,559.1,379,568.43,379,568.43"/><path class="cls-30" d="M311.89,550.74a21.15,21.15,0,0,0,8.15,8.13c2.1,1.54,1.89,5.63,3,7.61a8.44,8.44,0,0,0,6.35,4.18c1.87.16,3.75-.48,5.6-.19,2.05.33,3.75,1.74,5.69,2.51a9.46,9.46,0,0,0,12.85-9c-.11-3.52-2.15-6.66-3-10.08-1.56-6.47,1.22-13.85-2-19.64s-12.05-7.91-13.66-14.92C325.28,524.87,317.7,535.55,311.89,550.74Z"/><g class="cls-31"><path class="cls-19" d="M323.69,531.59s-17.53,54.1,22.13,64.65a12.27,12.27,0,0,1-3.13,1.32c-9.83,2.64-22.66-7.19-28.4-17.81-9.9-18.3,1.47-38.63,2.68-40.72a44.12,44.12,0,0,1,5.3-7.28Z"/></g><path class="cls-16" d="M382.65,575.25s-10.91-19.08-21.87-22.11,0-.17,0-.17l3.31-19C378,538.2,383.57,566.62,382.65,575.25Z"/><path class="cls-16" d="M361.2,533.67s-7.46,4.66-6,18.57c1.34,11.53,4.46,26.31,4.29,28.6-.34,4.52-1,9-3.62,12.26-2.77,3.44,3.95-1.92,3.95-1.92L364,581l-2.77-24.77Z"/><path class="cls-18" d="M342.15,601.18c-.6,0-1.18,0-1.75,0-7.84-.4-15-4-21.27-10.66-13.56-14.4-10.15-35.21-8.79-41.24,4.08-18,19.89-38.28,41.17-40.41a38.32,38.32,0,0,1,22.6,4.75c14.31,8.22,18.15,23.29,19,27.71a2.5,2.5,0,1,1-4.91.94c-.62-3.3-3.14-13.29-11.44-20.63a1.59,1.59,0,0,1-.24.2,30.22,30.22,0,0,0-10.24,11.62c-5.6,11.71-2.29,27.08-.61,33.15l.1.35a37.74,37.74,0,0,1,1.43,7.7c.25,3.35.78,10.3-2.54,16.08C360.17,598.49,350.11,601.18,342.15,601.18Zm13.13-87.53c-1.26,0-2.37.07-3.27.16-18.95,1.89-33.1,20.24-36.79,36.53-.88,3.86-4.62,23.78,7.55,36.72,2,2.12,8.08,8.58,17.88,9.09,6.77.34,16-1.53,19.66-7.95,2.56-4.43,2.11-10.35,1.89-13.2a32.3,32.3,0,0,0-1.26-6.73l-.1-.36c-2.28-8.21-5.18-23.89.92-36.64a34.69,34.69,0,0,1,10.8-12.79c-.3-.19-.62-.38-.94-.56A32.83,32.83,0,0,0,355.28,513.65Z"/><path class="cls-18" d="M380.65,578.84a2.48,2.48,0,0,1-2.35-1.66c-2.57-7.22-7.39-16.43-15.81-19.28q-.54-.18-1.11-.33a2.5,2.5,0,0,1,1.27-4.84c.49.13,1,.28,1.44.44,8.17,2.76,14.71,10.48,18.92,22.34a2.5,2.5,0,0,1-1.52,3.19A2.47,2.47,0,0,1,380.65,578.84Z"/><path class="cls-18" d="M331.33,544.26a2.49,2.49,0,0,1-2.49-2.32c-1.21-16.92,9-28.3,14.08-31.16a2.5,2.5,0,0,1,2.44,4.37c-2.57,1.43-12.66,10.63-11.53,26.43a2.49,2.49,0,0,1-2.32,2.67Z"/><path class="cls-6" d="M520.8,599.1h30.64c3.38,0,3-4.08,0-6.26,0,0-3.84-3.71-14.22-4-10.47,0-14.73,2.4-16.42,3.62C517.7,594.8,516.9,599.1,520.8,599.1Z"/><path class="cls-6" d="M535.17,604H526c-1,0-.75,1.21,0,1.87,0,0,1.15,1.19,4.27,1.19a10.27,10.27,0,0,0,4.93-1.09C536,605.27,536.33,604,535.17,604Z"/><path class="cls-32" d="M509.46,702.4c-2,.33-3.1,6.21-1.84,6.88,20,11.17,41.68,15.09,72.6,18.69,2.15-4.67,3.13-14.11,3.57-17.11C558.64,701.64,538.63,698.66,509.46,702.4Z"/><path class="cls-33" d="M507.24,708.76a.94.94,0,0,0,.38.52c20,11.17,41.68,15.09,72.6,18.69a29.92,29.92,0,0,0,1.75-5.68C548.69,726.27,514.52,712,507.24,708.76Z"/><path class="cls-34" d="M589.07,722c0-.29,0-.64,0-1.28a4.73,4.73,0,0,1,.3-1.11,8.79,8.79,0,0,0,.49-3.15,6.78,6.78,0,0,0-.41-1.87,5.88,5.88,0,0,0-1.33-2.46,4.81,4.81,0,0,0-1.84-1,36.76,36.76,0,0,0-6.18-1.55,8.54,8.54,0,0,1-.35,2.09c-.26,1.17-1,1.3-1.43,2.41s.32,1.5-.08,2.81-1,1.08-1.24,2.16c-.3,1.29.51,1.82.08,2.91-.3.76-.8.8-1.28,1.47s-.84,1.79-.23,4c1.31.46,2.86.24,3.79.48a21.26,21.26,0,0,0,2.15.34c.34.06,1.08.88,2,.48.6-.27.59-.46,1.51-1s1.3-.49,1.61-.91.09-.73.4-1.67a5.74,5.74,0,0,1,1.07-1.84C588.77,722.41,589,722.39,589.07,722Z"/><path class="cls-35" d="M590.86,722.27a12.49,12.49,0,0,1,0-1.28,4.73,4.73,0,0,1,.3-1.11,8.63,8.63,0,0,0,.49-3.16,7.12,7.12,0,0,0-.4-1.86,6,6,0,0,0-1.34-2.46,4.45,4.45,0,0,0-1.63-1.09,39.23,39.23,0,0,0-6.39-1.44,8.47,8.47,0,0,1-.35,2.08c-.25,1.17-1,1.31-1.42,2.42s.31,1.49-.08,2.81-1,1.07-1.24,2.15c-.31,1.29.5,1.82.08,2.92-.3.76-.81.79-1.29,1.46s-.83,1.8-.23,4c1.32.47,2.45.89,3.38,1.13s1.6.37,2.39.51a4.12,4.12,0,0,0,2.14-.34c.59-.27.59-.46,1.5-1s1.3-.5,1.62-.91.08-.74.39-1.67a5.72,5.72,0,0,1,1.08-1.84C590.56,722.72,590.81,722.7,590.86,722.27Z"/><path class="cls-36" d="M591.05,722.3c.1-.44,0-.61,0-1.28a4.73,4.73,0,0,1,.3-1.11,8.79,8.79,0,0,0,.49-3.15,6.64,6.64,0,0,0-.38-1.85,5.78,5.78,0,0,0-1.29-2.45,4.43,4.43,0,0,0-1.59-1.08c-2.14-.67-6.37,3-7.66,7.54-1.35,4.77.62,10.13,2.52,10.45a3.89,3.89,0,0,0,2.09-.35c.58-.27.58-.46,1.47-1s1.28-.5,1.59-.92.09-.73.4-1.66a6.14,6.14,0,0,1,1.06-1.85C590.67,722.86,590.93,722.8,591.05,722.3Z"/><path class="cls-35" d="M585.12,715.54h0a.12.12,0,0,1-.1-.14c.11-.84.35-1.32.75-1.47a1.11,1.11,0,0,1,.74.05,1.08,1.08,0,0,0,.77,0,1.06,1.06,0,0,0,.47-.45.12.12,0,0,1,.16-.05.13.13,0,0,1,0,.16,1.18,1.18,0,0,1-.58.55,1.34,1.34,0,0,1-.93,0,.89.89,0,0,0-.59-.06c-.3.11-.5.54-.6,1.28A.13.13,0,0,1,585.12,715.54Z"/><path class="cls-35" d="M589.09,717.79a.11.11,0,0,1-.12-.11,1.43,1.43,0,0,1,.18-.78,1.41,1.41,0,0,1,.51-.52,1.32,1.32,0,0,0,.33-.29,1.48,1.48,0,0,0,0-1.35.12.12,0,0,1,.07-.15.12.12,0,0,1,.16.07,1.7,1.7,0,0,1,0,1.57,1.39,1.39,0,0,1-.39.34,1.23,1.23,0,0,0-.44.44,1.4,1.4,0,0,0-.15.66.11.11,0,0,1-.11.12Z"/><path class="cls-35" d="M586.48,719.86a.11.11,0,0,1-.08,0,.12.12,0,0,1,0-.17c.29-.26.41-.49.38-.68s-.15-.25-.29-.36a.94.94,0,0,1-.39-.42c-.17-.41.07-1,.73-1.69a.12.12,0,1,1,.18.16c-.58.63-.82,1.13-.69,1.44a.77.77,0,0,0,.3.32.79.79,0,0,1,.39.51,1,1,0,0,1-.45.89A.11.11,0,0,1,586.48,719.86Z"/><path class="cls-35" d="M583.79,721.12a.12.12,0,0,1-.1,0,.11.11,0,0,1,0-.16.63.63,0,0,0,.27-.3c.09-.23-.06-.49-.21-.76l-.15-.25a2.86,2.86,0,0,1,0-2.07.12.12,0,0,1,.15-.08.12.12,0,0,1,.08.14,2.51,2.51,0,0,0,0,1.9,1.49,1.49,0,0,0,.13.25,1.14,1.14,0,0,1,.23,1,.78.78,0,0,1-.37.42Z"/><path class="cls-35" d="M583.35,724.3a1.65,1.65,0,0,1-1.19-.49,1.71,1.71,0,0,1-.39-1.54.11.11,0,0,1,.14-.08.12.12,0,0,1,.09.14,1.46,1.46,0,0,0,.33,1.32,1.45,1.45,0,0,0,1.15.41.11.11,0,0,1,.13.1.12.12,0,0,1-.1.13Z"/><path class="cls-35" d="M583.5,728h0a.11.11,0,0,1-.07-.15.93.93,0,0,0-.35-1.18,1.64,1.64,0,0,1-.66-1.72.1.1,0,0,1,.13-.1.11.11,0,0,1,.1.13,1.65,1.65,0,0,0,.19,1.12,1.77,1.77,0,0,0,.38.39,1.32,1.32,0,0,1,.46.57,1.28,1.28,0,0,1,0,.86A.13.13,0,0,1,583.5,728Z"/><path class="cls-35" d="M585.35,726.74a.11.11,0,0,1-.1-.06.12.12,0,0,1,0-.16l1.47-.91c.66-.4.93-.57,1.09-.91a1.5,1.5,0,0,0,.11-.85.12.12,0,0,1,.1-.14.12.12,0,0,1,.13.1,1.71,1.71,0,0,1-.13,1c-.19.41-.5.59-1.17,1l-1.48.91Z"/><path class="cls-35" d="M585.58,724.42h-.06a.11.11,0,0,1,0-.16c.41-.75.83-1.11,1.25-1.11h0a.74.74,0,0,1,.38.11,1,1,0,0,0,.28.1c.37,0,.79-.17,1.27-.66a.1.1,0,0,1,.16,0,.11.11,0,0,1,0,.16,1.77,1.77,0,0,1-1.48.73,1.3,1.3,0,0,1-.35-.12.55.55,0,0,0-.28-.09c-.32,0-.69.33-1.06,1A.11.11,0,0,1,585.58,724.42Z"/><path class="cls-35" d="M588.6,721.2a.12.12,0,0,1-.12-.11.13.13,0,0,1,.11-.13,1,1,0,0,0,.93-.56.65.65,0,0,0,0-.68.45.45,0,0,0-.34-.08c-.13,0-.27,0-.34-.12s.08-.45.62-.93a.11.11,0,1,1,.15.17c-.56.5-.56.64-.56.65h.18a.67.67,0,0,1,.45.14.92.92,0,0,1,.1,1,1.27,1.27,0,0,1-1.14.71Z"/><path class="cls-37" d="M550.52,723.73c-1.28-5.91-1-10.78.58-14.7l6,1.19a32.14,32.14,0,0,0,.38,14.71C555.69,724.65,553.19,724.21,550.52,723.73Z"/><path class="cls-37" d="M568.2,708.15c-.47,2.38-6.21,3.26-12.83,2s-11.62-4.25-11.16-6.63c.25-1.27,1.74-1.39,4.33-1.7,4.58.58,12.68,2.12,15.72,3C566.66,706,568.45,706.85,568.2,708.15Z"/><path class="cls-38" d="M559.35,704.24c1.56.3,7.64,1.41,6.77,3.71a2,2,0,0,1-1,.73c-3.06,1-6.32.52-9.43.19a25.2,25.2,0,0,1-4.63-1c-1.79-.65-4-1.34-4.9-3.21-.67-3.2,5.26-2.33,7-1.61-1.87-.33-5-1.26-6.63.51a1.55,1.55,0,0,0,.55,1.93c2.38,2,5.7,2.58,8.7,3.08s6.33.84,9.3-.08a1.82,1.82,0,0,0,.89-.62.82.82,0,0,0-.16-1c-1.66-1.65-4.36-2-6.42-2.64Z"/><path class="cls-38" d="M552.08,710c-1.45,4.15-1,8.71-.34,12.93,0,0,0,0,0,0-1.07-4.12-1.53-9.06.39-12.9Z"/><path class="cls-38" d="M556.49,710.49c-1.45,4.16-1,8.71-.34,12.93,0,0,0,0,0,0-1.07-4.12-1.53-9.06.39-12.9Z"/><path class="cls-39" d="M584,702.33c3.08-7.12,2.85-15.72-2-22-1.46-2.12-3.18-4.11-4.48-6.45-3.9-7.06-3.68-15.52-1.88-23.14a51.24,51.24,0,0,1,2.3-7.49c-2.41,9.82-4.59,20.86.37,30.2,2.56,4.43,6.58,8.34,7.67,13.58a22.18,22.18,0,0,1-2,15.31Z"/><path class="cls-39" d="M591.36,697.42c3.64-5,5.26-11.6,1.75-17-1-1.73-2.32-3.36-3.36-5.26a24.51,24.51,0,0,1-2.69-12.33,41.56,41.56,0,0,1,2.34-12.3,63.28,63.28,0,0,0-1.24,12.3A25.75,25.75,0,0,0,591,674.56c.92,1.76,2.24,3.39,3.27,5.27,3.56,5.64,1.57,13.19-2.86,17.59Z"/><circle cx="434.99" cy="583.61" r="28.34"/><ellipse cx="492.39" cy="566.73" rx="24.56" ry="25.84" transform="translate(-172.56 218.2) rotate(-21.35)"/><path d="M460.75,572.32l-3-.08a7.19,7.19,0,0,1,4.09-6.46,8,8,0,0,1,8.44,1.16l-1.81,2.38a5.14,5.14,0,0,0-5.34-.83A4.27,4.27,0,0,0,460.75,572.32Z"/><rect x="373.18" y="584.68" width="34.69" height="3" transform="translate(-82.35 64.16) rotate(-8.5)"/><path class="cls-6" d="M424.09,567.62c-2.31,2.57-4.4,4.86-5.77,7.9s-1.83,6.28-2.39,9.72a1.1,1.1,0,0,1-2.07.3c-2.64-5.63-1.28-13.14,3.58-17.21,1.21-1.06,6.25-4.44,7-1.88a1.3,1.3,0,0,1-.31,1.17Z"/><path class="cls-6" d="M484.81,550.55c-2,2.84-3.76,5.37-4.74,8.56s-1,6.46-1.17,9.94a1.09,1.09,0,0,1-2,.56c-3.32-5.26-2.9-12.88,1.41-17.52,1.07-1.21,5.65-5.19,6.67-2.73a1.25,1.25,0,0,1-.16,1.19Z"/><ellipse class="cls-6" cx="424.1" cy="581.88" rx="5.34" ry="3.15" transform="translate(-236.26 868.88) rotate(-77.4)"/><ellipse class="cls-6" cx="485.57" cy="565.6" rx="5.17" ry="3.15" transform="translate(-172.31 916.14) rotate(-77.4)"/><path class="cls-19" d="M364.78,847.07c-1.35,9.89-1.27,18.06,7,24.68,0,1.1,0,2.2,0,3.29-9.78-5.72-10.61-14-9.69-24.59.1-1.2,0-2.22.06-3.4C363,847.07,363.89,847.06,364.78,847.07Z"/><path class="cls-18" d="M374.08,877.55a2.5,2.5,0,0,1-2.48-2.22L370,860.8a2.5,2.5,0,0,1,5-.55l1.6,14.53a2.5,2.5,0,0,1-2.22,2.76Z"/><path class="cls-18" d="M389.77,879.35a2.5,2.5,0,0,1-2.47-2.14L384.93,861a2.5,2.5,0,0,1,4.95-.72l2.36,16.26a2.49,2.49,0,0,1-2.11,2.83Z"/><path class="cls-18" d="M362.1,848.37a2.5,2.5,0,0,1-.86-4.85l10.5-3.86a2.5,2.5,0,0,1,1.73,4.69L363,848.21A2.34,2.34,0,0,1,362.1,848.37Z"/><path d="M413.94,827.75c7.17-21.46,6.59-49.65-1.75-57.35L431,762s10.74,17.06,19.92,15.53C438.18,799.39,426.91,821.11,413.94,827.75Z"/><path d="M426.23,764.78l-3.59-12.29s34.59,14.28,34.87,14.31c0,0-9,11.46-9.15,16.73"/><path d="M467.43,778.6c-1.84-1.66,2.67-5.32,2-13.4,0,0,19.9-3,22-7.64,0,0-3.79,7.51-6.35,9.84-1.15,4.05-8,9-8,9Z"/><path class="cls-18" d="M397.12,832.68v-5.27l.18-.31a69.25,69.25,0,0,1,7.58-3,62.68,62.68,0,0,0,7.11-2.77l4.2-1.73-2.12,6.27a67.7,67.7,0,0,1-7.6,3,62.23,62.23,0,0,0-7.09,2.76Z"/></g></g></svg>