<svg xmlns="http://www.w3.org/2000/svg" width="1920" height="1080" viewBox="0 0 1920 1080"><defs><style>.cls-1{isolation:isolate;}.cls-2{fill:#634428;}.cls-3{fill:#37230e;}.cls-4{fill:#281909;}.cls-5{fill:none;}.cls-6{fill:#ffca91;}.cls-7{fill:#fff;}.cls-8{fill:#ccc;}.cls-9{fill:#aaa;}.cls-10{fill:#7a7a7a;}.cls-11{fill:#eee;}.cls-12{fill:#b2b2b2;}.cls-13,.cls-16,.cls-20,.cls-22,.cls-23,.cls-24{mix-blend-mode:multiply;}.cls-13{opacity:0.39;}.cls-14,.cls-16,.cls-17{fill:#e5ae13;}.cls-15,.cls-19,.cls-20{fill:#4d8a62;}.cls-17,.cls-19{mix-blend-mode:screen;}.cls-18,.cls-22,.cls-23{opacity:0.3;}.cls-21{fill:#ca9911;}.cls-24{fill:#d8d8d8;}</style></defs><g class="cls-1"><g id="Layer_1" data-name="Layer 1"><path class="cls-2" d="M1367.2,591.6c-94.7-121.8-103.8-229,0-316.8l-26-22.5c-82.9,0-144.7-50.6-110.3-144L1219.7,88s-213-34.4-255.9-41V45.9c-.1,0-1.5.2-3.7.5-2.3-.3-3.6-.5-3.7-.5V47c-42.9,6.7-255.9,41-255.9,41l-11.2,20.4c34.4,93.4-27.4,144-110.3,144l-26,22.5c103.8,87.8,94.7,195,0,316.8-60.4,81.5-42.5,202.3,0,281,98,152.1,394.2,111.5,407,158.3v3.2a19.42,19.42,0,0,1,.2-2.4,9.74,9.74,0,0,1,.2,2.4V1031c12.8-46.8,308.9-6.2,407-158.3C1409.7,793.9,1427.6,673.1,1367.2,591.6Z"/><path class="cls-3" d="M1023.43,985.85c26.8-4,60-7.6,95.3-13.3V93.15c-31.4-5.1-66.1-10.6-95.3-15.3v908Z"/><path class="cls-3" d="M1139.43,969.05c31.8-5.9,64.6-13.7,95.3-25.4V234.15c-24-23.2-32.7-59.3-15.1-107l-10.7-19.5s-30.1-4.9-69.4-11.2v872.6Z"/><path class="cls-3" d="M781.93,969.05c34.1,6.3,67.1,10.2,95.3,14V81.15c-31.1,5-65.8,10.6-95.3,15.3Z"/><path class="cls-3" d="M1349.93,589.35c-90.6-116.5-99.3-219,0-303l-24.9-21.5c-26.3,0-50.4-5.4-69.6-15.8v685.8c38.2-17.4,71.9-41.8,94.5-76.9C1390.63,782.85,1407.73,667.35,1349.93,589.35Z"/><path class="cls-3" d="M665.93,249v686.2c30,13.6,62.8,23,95.3,29.9V99.75c-28.9,4.7-49.1,7.9-49.1,7.9l-10.7,19.5C723.33,186.65,704.43,228,665.93,249Z"/><path class="cls-3" d="M1002.73,74.55c-17.1-2.7-30.8-4.9-38.7-6.1v-1.1c-.1,0-1.4.2-3.6.5-2.2-.3-3.4-.5-3.6-.5v1.1c-10.7,1.7-32.6,5.1-59,9.4V986c34.9,5.3,59,11.2,62.3,23.6v3.1a16.41,16.41,0,0,1,.2-2.3,16.41,16.41,0,0,1,.2,2.3v-3.1c2.7-9.8,18.3-15.6,42-20.2V74.55Z"/><path class="cls-3" d="M645.23,257.75a164.47,164.47,0,0,1-49.3,7.2L571,286.45c99.3,84,90.6,186.5,0,303-57.8,77.9-40.6,193.5,0,268.7,18.5,28.7,44.4,50.2,74.2,66.7Z"/><path class="cls-4" d="M592.3,636c-27.8,39.4-38.9,90.3-29.8,137.5,2.3,11.3,6.4,22.5,14.8,30.5a31.23,31.23,0,0,0,14,7.9c9.7,2.4,21.8-1.6,24.8-11.8,2.1-6.6-.2-14.7-7.1-17.3s-15.2-.6-21.3,3.5c-5.9,3.7-11.5-4.8-5.7-8.7a37.72,37.72,0,0,1,20.1-5.9c12-.1,22.6,7.9,23.7,20.2a25.77,25.77,0,0,1-6.9,20.3c-13.2,13.1-34.7,9.7-46.6-3.1-9.2-9.3-13.7-22-15.8-34.5-8-48.8,4.8-100.4,34.3-139.8a1.06,1.06,0,0,1,1.4-.2,1.18,1.18,0,0,1,.1,1.4Z"/><path class="cls-4" d="M695.5,932.8c1.4-2.2,3.2-4.4,4.6-6.5.8-1.2,3.6-5.3,4.4-6.6,1.7-2.8,4-6.3,5.6-9,55.5-94.2,28.5-207.9,9.5-308.9-13.9-71-29.5-143.2-23.9-216,3-43.6,13.8-88.1,37.5-125.1a1,1,0,0,1,1.5-.3,1.09,1.09,0,0,1,.4,1.3c-4.6,13.7-8.8,27.4-12.3,41.2-12.2,48.3-16.1,98.3-14,148,2.4,63.9,14.7,129.2,26.1,192.1,12.2,70.9,24.9,145.3,4.9,216.1-6.5,22.9-16,45.2-30,64.5a142.61,142.61,0,0,1-10.6,12.7c-1.9,2.1-5.6-.5-3.7-3.5Z"/><path class="cls-4" d="M827.9,123.5a1091,1091,0,0,1,28.2,177.9c2.2,30,1.8,60,2.4,90,.2,54.6-.9,110.8-9.1,164.9-1.9,15-4.8,29.8-10.3,44a2.62,2.62,0,0,1-3.5,1.5,2.71,2.71,0,0,1-1.7-2.6c-.1-15.2,2.8-29.7,5.1-44.5,10.4-63.5,18.4-128.8,16-193.2-1.6-28.8-4.4-60.5-7.6-89.3a1143.47,1143.47,0,0,0-20.7-117.6s-7.2-29-7.2-29.1c-1.1-5.2,6.7-7.7,8.4-2Z"/><path class="cls-4" d="M805.9,746.6c1.4,7.2,2.4,14.3,3.6,21.4,1.8,10.5,4,20.8,6.1,31.2,5,24.3,11,48.5,22.1,70.9,6.4,12.8,14.3,25.1,24.8,35a2.57,2.57,0,0,1,.1,3.7,2.65,2.65,0,0,1-4.1-.3c-8.7-11.9-17.8-23.3-26-35.5-14.6-21.3-26.5-45.5-31.7-71a151.13,151.13,0,0,1-2.1-33.6,125.51,125.51,0,0,1,3.4-22.1c.4-1.9,3.5-1.8,3.8.3Z"/><path class="cls-4" d="M924.9,975.7c14.1-12.7,26.8-27.2,35.8-43.9s14.6-34.9,18.5-53.5a269.92,269.92,0,0,0,6.5-64.1c-.7-35.9-7.7-71.4-14.8-106.6C960.7,657.2,949.4,606,942.3,555c-1.6-12.8-2.9-26.7-3.5-39.6-5.4-119.7,43.5-236.9,24.9-356.6-1.2-7-2.9-15.8-4.6-22.8a230.94,230.94,0,0,0-19.6-53.2,5.47,5.47,0,1,1,9.9-4.6c14.7,36.4,20.9,75.3,21.6,114.2.8,38.6-3.4,77.1-9.1,115.2-11.6,76-28.5,152.4-19.8,229.4,7.1,76.8,37.5,149.1,44.8,226.5a458.07,458.07,0,0,1,2.4,65.2c-1,24.2-3,48.6-9.6,72-6.5,22.3-17.9,43.3-34.1,60.1l-2.6,2.6-2.6,2.6-2.7,2.5c-3.5,3.4-7.4,6.3-11.1,9.4a1.31,1.31,0,0,1-1.9-.2,1.42,1.42,0,0,1,.2-2Z"/><path class="cls-4" d="M1037.3,84.3c19.7,20.5,35.5,45,44,72.3,11.4,36.2,12.1,74.7,9.9,112.3-3.1,46.9-12.1,93.2-18.1,139.5s-11.6,92.8-14.1,139.5c-4.9,102.7,2.6,206.3,25.1,306.6a950,950,0,0,0,31,107.5,5.42,5.42,0,1,1-10.3,3.4A1082.09,1082.09,0,0,1,1076.9,856c-7.3-36.7-12.9-74.3-16.6-111.5s-5.8-74.9-6.3-112.4c-.4-75,2-150.3,11.4-224.8,12-104,55.3-236.9-31.9-319.4a2.57,2.57,0,0,1-.1-3.7,2.8,2.8,0,0,1,3.9.1Z"/><path class="cls-4" d="M1018.7,91c28.9,48.5,37.2,106.3,36.4,162-.3,27.9-2.9,55.7-5.8,83.4-7.2,64.1-13.6,128.7-15.7,193.2-3,110.7,7.1,221.8,28.6,330.4q11,54.3,25.8,107.7a4.62,4.62,0,1,1-8.9,2.5q-6.75-27-12.8-54.3c-28.2-126.7-40.8-256.7-39.4-386.4a1577.27,1577.27,0,0,1,12.2-194.2c5.4-45.6,11.1-91.6,6.9-137.5-2.5-27.3-8.2-54.5-19.2-79.8a199.6,199.6,0,0,0-12.6-24.3,2.53,2.53,0,0,1,.9-3.6,2.59,2.59,0,0,1,3.6.9Z"/><path class="cls-4" d="M1195.6,108.9c2.6,18.8,2.2,40.4,1.4,59.5-.9,18.3-3.1,41-5.4,59.2-2.6,19.4-5.6,39.4-8.9,58.7a922.59,922.59,0,0,1-34.9,134,2.62,2.62,0,1,1-5-1.6,615.35,615.35,0,0,0,25.1-74.9c9.9-37.8,17-77.6,19.7-116.5,1.8-28.5,2.1-60,1.9-88.6.2-9.9.1-19.7.9-29.6a2.61,2.61,0,0,1,5.2-.2Z"/><path class="cls-4" d="M1222.2,221c6.8,54.1-9,107.9-27.3,158.2-14.5,39.2-29.3,79.2-35,120.8-3.9,26.4-3.3,53.2-.8,79.6,6.8,60.6,19.4,120.7,27.8,181.2,4.4,28.9,16.3,107.9,20.8,136.2,2.4,15.1,4.8,30.2,7.5,45.3a1.37,1.37,0,1,1-2.7.4c-2.4-15.1-5-30.2-7.6-45.3-4.9-27.9-19.2-106.5-24.5-135.6-10.2-60.5-23.1-120.4-27.4-181.8-1.7-26.9-.9-54,3.7-80.6a461.36,461.36,0,0,1,11.6-50.5c8.5-30.1,19-63.5,27.8-93.6,5.4-18.2,10.7-36.5,14.5-55.1,2.3-11,4.2-22.4,5.4-33.6a263.56,263.56,0,0,0,1.1-45.3,2.61,2.61,0,0,1,2.5-2.8,3.2,3.2,0,0,1,2.6,2.5Z"/><path class="cls-4" d="M1357.2,635.7c-8.4,9.1-13.1,21.6-15.2,33.8-4.9,27.3,2.3,56.5,5.1,83.7,1.2,11.4,1.8,23,.6,34.5a104.54,104.54,0,0,1-5,23.2,5.11,5.11,0,0,1-6.6,3.3,5.23,5.23,0,0,1-2.9-7.5,73.22,73.22,0,0,0,7.3-20.1c1.9-8.8,2.3-18.3,2.1-27.5-.2-9-1.3-19-2.4-27.9-3.4-26.2-7.6-53.5-.9-79.7a82.8,82.8,0,0,1,9.2-22.3c4.4-6.7,13.8.2,8.7,6.5Z"/><path class="cls-4" d="M1304.7,578.4c-14.5,19.2-20.7,43.4-21.8,67.2-2,50.2,17.9,97.1,26.8,146,4.5,24.7,6.4,50.3,1.4,75.1a1,1,0,0,1-2-.4,163.3,163.3,0,0,0,1.9-18.5,200.52,200.52,0,0,0-2.3-37.1c-9.4-61.7-42.2-120.8-33.9-184.7,2.5-19.4,8.9-38.5,20.3-54.7,4.8-6.3,14.2.5,9.6,7.1Z"/><rect class="cls-5" x="805.8" y="594" width="308.4" height="71"/><rect class="cls-5" x="758.9" y="757.5" width="402.3" height="71"/><path class="cls-6" d="M676.77,424.76H666.66v-5.21h1.71V408.23h-1.71V403h10.41a31.5,31.5,0,0,1,5.81.44,11.35,11.35,0,0,1,4.27,1.8,9.37,9.37,0,0,1,3.12,3.72,10.7,10.7,0,0,1,.86,2.4,11.8,11.8,0,0,1,.3,2.69,11.11,11.11,0,0,1-1.2,5.16,9.3,9.3,0,0,1-3,3.54,9.67,9.67,0,0,1-3.91,1.61A40.76,40.76,0,0,1,676.77,424.76Zm0-16.53v11.32h.8c2,0,3.27-.52,3.86-1.57a8.18,8.18,0,0,0,.87-4,11,11,0,0,0-.37-2.85,4,4,0,0,0-1.38-2.17,5.77,5.77,0,0,0-3.46-.76Z"/><path class="cls-6" d="M694.4,417.1a7,7,0,0,1,2.81-5.64,11.67,11.67,0,0,1,7.59-2.3,12.88,12.88,0,0,1,7.83,2.22,6.87,6.87,0,0,1,3,5.78,7.05,7.05,0,0,1-2.88,5.74,11.78,11.78,0,0,1-7.59,2.29c-3.4,0-6-.76-7.94-2.29A7.14,7.14,0,0,1,694.4,417.1Zm8,0q0,3.63,2.6,3.63t2.75-3.66a4.31,4.31,0,0,0-.68-2.59,2.25,2.25,0,0,0-1.93-.92,2.46,2.46,0,0,0-2,.9A4.07,4.07,0,0,0,702.35,417.13Z"/><path class="cls-6" d="M730.12,424.76h-12V420h2v-5.62h-2V409.6h9.81v1.92a10,10,0,0,1,6.2-2.2,5.65,5.65,0,0,1,4.38,1.61c1,1.07,1.45,2.8,1.45,5.17V420h1.8v4.77H732.1V418a7.22,7.22,0,0,0-.37-2.9,1.65,1.65,0,0,0-1.55-.69,4.06,4.06,0,0,0-2.25.8V420h2.19Z"/><path class="cls-6" d="M745.12,415V412a3.87,3.87,0,0,0,1.9-.37,1.7,1.7,0,0,0,.82-.9,7.93,7.93,0,0,0,.18-2h-2.9V403h7.79v4.86a23.31,23.31,0,0,1-.18,3.58,3.78,3.78,0,0,1-1.1,1.91,4.71,4.71,0,0,1-2.2,1.29A18.15,18.15,0,0,1,745.12,415Z"/><path class="cls-6" d="M769.13,419.23v4.65a7.38,7.38,0,0,1-2.22.91,11.45,11.45,0,0,1-2.93.4,7.31,7.31,0,0,1-3-.57,4.52,4.52,0,0,1-2-1.6,5.75,5.75,0,0,1-.53-1,5.42,5.42,0,0,1-.25-1.07c-.07-.69-.11-2-.11-4v-2.54h-1.94V409.6h1.94v-2.33l7.86-3.73v6.06h3.17v4.77H766v2.93a4.57,4.57,0,0,0,.27,1.93,1.07,1.07,0,0,0,1.06.48A4.69,4.69,0,0,0,769.13,419.23Z"/><path class="cls-6" d="M790.24,424.76H779.38V420H781v-12.2h-1.61V403h9.47v17h1.39Z"/><path class="cls-6" d="M805.4,420l6.48.8a6.12,6.12,0,0,1-1.22,1.82,7.74,7.74,0,0,1-1.9,1.4,11.33,11.33,0,0,1-5.42,1.21c-3.54,0-6.19-.73-8-2.2a7.06,7.06,0,0,1-2.67-5.73,7.35,7.35,0,0,1,2.64-5.78,10.23,10.23,0,0,1,7.07-2.32,10.75,10.75,0,0,1,7,2.19c1.77,1.45,2.72,3.65,2.83,6.61H800.3c0,2.46,1,3.69,2.75,3.69A2.43,2.43,0,0,0,805.4,420Zm-5-4h4.42c0-.31,0-.49,0-.53a3.33,3.33,0,0,0-.62-2,2,2,0,0,0-1.66-.79,1.8,1.8,0,0,0-1.62.87,4,4,0,0,0-.57,2.19A2.85,2.85,0,0,0,800.4,416Z"/><path class="cls-6" d="M827.12,419.23v4.65a7.38,7.38,0,0,1-2.22.91,11.47,11.47,0,0,1-2.94.4,7.31,7.31,0,0,1-3-.57A4.43,4.43,0,0,1,817,423a5.17,5.17,0,0,1-.53-1,4.8,4.8,0,0,1-.25-1.07c-.08-.69-.11-2-.11-4v-2.54h-1.94V409.6h1.94v-2.33l7.86-3.73v6.06h3.17v4.77H824v2.93a4.61,4.61,0,0,0,.26,1.93,1.08,1.08,0,0,0,1.06.48A4.73,4.73,0,0,0,827.12,419.23Z"/><path class="cls-6" d="M849.77,419.23v4.65a7.38,7.38,0,0,1-2.22.91,11.45,11.45,0,0,1-2.93.4,7.31,7.31,0,0,1-3-.57,4.52,4.52,0,0,1-2-1.6,5.75,5.75,0,0,1-.53-1,5.42,5.42,0,0,1-.25-1.07c-.07-.69-.11-2-.11-4v-2.54H836.8V409.6h1.94v-2.33l7.86-3.73v6.06h3.17v4.77H846.6v2.93a4.57,4.57,0,0,0,.27,1.93,1.07,1.07,0,0,0,1.06.48A4.69,4.69,0,0,0,849.77,419.23Z"/><path class="cls-6" d="M863.65,424.76h-12V420h2v-12.2h-2V403h9.84v8.41a11,11,0,0,1,6.18-2.11,5.75,5.75,0,0,1,4.23,1.55q1.56,1.56,1.56,5.51V420h1.78v4.77h-9.64v-6.21a11.14,11.14,0,0,0-.33-3.54,1.41,1.41,0,0,0-1.43-.72,4.22,4.22,0,0,0-2.35.8V420h2.13Z"/><path class="cls-6" d="M890.4,420l6.48.8a6.12,6.12,0,0,1-1.22,1.82,7.74,7.74,0,0,1-1.9,1.4,11.33,11.33,0,0,1-5.42,1.21c-3.54,0-6.19-.73-8-2.2a7.06,7.06,0,0,1-2.67-5.73,7.35,7.35,0,0,1,2.64-5.78,10.23,10.23,0,0,1,7.07-2.32,10.75,10.75,0,0,1,7,2.19c1.77,1.45,2.72,3.65,2.83,6.61H885.3c0,2.46,1,3.69,2.75,3.69A2.43,2.43,0,0,0,890.4,420Zm-5-4h4.42c0-.31,0-.49,0-.53a3.33,3.33,0,0,0-.62-2,2,2,0,0,0-1.66-.79,1.8,1.8,0,0,0-1.62.87,4,4,0,0,0-.57,2.19A2.85,2.85,0,0,0,885.4,416Z"/><path class="cls-6" d="M907.82,414.37V409.6h9.69v1a11,11,0,0,1,5.14-1.3,8.36,8.36,0,0,1,5.8,2.19,7.46,7.46,0,0,1,2.4,5.76,7.16,7.16,0,0,1-2.36,5.67,10,10,0,0,1-11,.85v3.15h2v4.77H907.79v-4.77h1.86V414.37Zm9.64,2.87a3.56,3.56,0,0,0,.75,2.47,2.36,2.36,0,0,0,1.86.84q2.67,0,2.67-3.4c0-2.22-.85-3.33-2.56-3.33a2.56,2.56,0,0,0-1.94.81A3.7,3.7,0,0,0,917.46,417.24Z"/><path class="cls-6" d="M939.73,413.84l-6.16-.63a5.88,5.88,0,0,1,3.28-3.14,18.48,18.48,0,0,1,6.59-.91c1.08,0,2,0,2.89.11a16.73,16.73,0,0,1,2.27.3,7,7,0,0,1,3.08,1.2,4.69,4.69,0,0,1,1.39,1.78,8.61,8.61,0,0,1,.41,3.07V420h1.93v4.77h-9.79v-1a10,10,0,0,1-5.44,1.31,7.18,7.18,0,0,1-4.83-1.41,4.26,4.26,0,0,1-1.64-3.33,4.06,4.06,0,0,1,2-3.48,9.06,9.06,0,0,1,5.21-1.36,11.82,11.82,0,0,1,4.68.77v-.46a6.4,6.4,0,0,0-.21-2,2,2,0,0,0-1-1,3.87,3.87,0,0,0-1.81-.41A3.32,3.32,0,0,0,939.73,413.84Zm5.89,7v-2.76a4.59,4.59,0,0,0-2.22-.57,2.29,2.29,0,0,0-1.64.57,1.91,1.91,0,0,0-.61,1.47,2,2,0,0,0,.62,1.5,2.13,2.13,0,0,0,1.47.59A3.49,3.49,0,0,0,945.62,420.88Z"/><path class="cls-6" d="M969.4,424.76h-12V420h2v-5.62h-2V409.6h9.81v1.92a10,10,0,0,1,6.2-2.2,5.65,5.65,0,0,1,4.38,1.61c1,1.07,1.45,2.8,1.45,5.17V420H981v4.77h-9.66V418a7.22,7.22,0,0,0-.37-2.9,1.65,1.65,0,0,0-1.55-.69,4.06,4.06,0,0,0-2.25.8V420h2.19Z"/><path class="cls-6" d="M1006.49,420v4.77h-9.83v-1a9.68,9.68,0,0,1-5.06,1.3,8.87,8.87,0,0,1-5.67-2,6.72,6.72,0,0,1-2.47-5.6,7.92,7.92,0,0,1,2.28-6.06,8.63,8.63,0,0,1,6.11-2.11,8.9,8.9,0,0,1,4.81,1.25v-2.78h-1.93V403h9.79v17Zm-9.78-2.87a4.1,4.1,0,0,0-.66-2.38,2.23,2.23,0,0,0-1.95-.94c-1.78,0-2.67,1.16-2.67,3.46a4,4,0,0,0,.65,2.34,2.2,2.2,0,0,0,2,.94,2.51,2.51,0,0,0,1.94-.83A3.89,3.89,0,0,0,996.71,417.12Z"/><path class="cls-6" d="M1021.71,420l6.48.8a6.09,6.09,0,0,1-1.21,1.82,8,8,0,0,1-1.91,1.4,11.33,11.33,0,0,1-5.42,1.21q-5.29,0-8-2.2a7.06,7.06,0,0,1-2.67-5.73,7.35,7.35,0,0,1,2.64-5.78,10.26,10.26,0,0,1,7.08-2.32,10.79,10.79,0,0,1,7,2.19q2.65,2.17,2.82,6.61h-11.93c0,2.46.94,3.69,2.75,3.69A2.43,2.43,0,0,0,1021.71,420Zm-5-4h4.42c0-.31,0-.49,0-.53a3.33,3.33,0,0,0-.62-2,2,2,0,0,0-1.66-.79,1.8,1.8,0,0,0-1.62.87,4,4,0,0,0-.57,2.19A2.85,2.85,0,0,0,1016.71,416Z"/><path class="cls-6" d="M1043.24,424.76h-11.87V420h1.87v-5.62h-1.91V409.6h9.79v2.08a10.11,10.11,0,0,1,3-1.66,9.54,9.54,0,0,1,3.47-.7q3.86,0,5.17,3a10.92,10.92,0,0,1,7.11-3,5.82,5.82,0,0,1,3.26.84,4.67,4.67,0,0,1,1.85,2.28,12.42,12.42,0,0,1,.55,4.13V420h2v4.77h-9.86v-6.52a7.6,7.6,0,0,0-.39-3.17,1.53,1.53,0,0,0-1.41-.63,4.35,4.35,0,0,0-2.58,1V420h2.14v4.77h-10v-6.49a8.82,8.82,0,0,0-.34-3.17,1.42,1.42,0,0,0-1.39-.66,4.35,4.35,0,0,0-2.53,1V420h2.12Z"/><path class="cls-6" d="M1080.16,424.76h-10.73V420H1071v-5.62h-1.56V409.6h9.42V420h1.31Zm-9.83-19.44a2.26,2.26,0,0,1,1.27-2,5.89,5.89,0,0,1,3.09-.75,5.37,5.37,0,0,1,3,.78,2.31,2.31,0,0,1,1.14,1.93,2.18,2.18,0,0,1-1.19,2,5.71,5.71,0,0,1-3,.73,6.37,6.37,0,0,1-3.09-.67A2.14,2.14,0,0,1,1070.33,405.32Z"/><path class="cls-6" d="M1096.35,418.54l5.86,1.31a6.55,6.55,0,0,1-3.16,3.94,14.06,14.06,0,0,1-13.59-.75,7,7,0,0,1-2.75-5.78,7.23,7.23,0,0,1,2.56-5.72,9.38,9.38,0,0,1,6.39-2.22,8.34,8.34,0,0,1,5,1.3v-1h4.8v6.47h-4.8c-.6-1.73-1.6-2.59-3-2.59a2.55,2.55,0,0,0-2.22,1.11,4.77,4.77,0,0,0-.78,2.76,4.16,4.16,0,0,0,.85,2.78,2.64,2.64,0,0,0,2.15,1C1095.12,421.15,1096,420.28,1096.35,418.54Z"/><path class="cls-6" d="M1118.05,424.94h-4.86v-4.81h4.55a5.22,5.22,0,0,0,3.83,1.85c1.39,0,2.09-.29,2.09-.86a.75.75,0,0,0-.45-.68,14.79,14.79,0,0,0-2.48-.73q-1.63-.43-3.6-1a8.33,8.33,0,0,1-2.69-1.21,4.27,4.27,0,0,1-1.36-1.44,3.92,3.92,0,0,1-.37-1.85,4.13,4.13,0,0,1,1.78-3.7,8,8,0,0,1,4.49-1.17,9.54,9.54,0,0,1,4.71,1.06v-.78h4.8V414h-4.44a5.5,5.5,0,0,0-3.93-1.58c-1.2,0-1.8.32-1.8.95,0,.3.18.5.53.6s1.3.31,3,.67a31.48,31.48,0,0,1,4.52,1.22,5.5,5.5,0,0,1,2.42,1.61,3.79,3.79,0,0,1,.79,2.45,4.26,4.26,0,0,1-1.95,3.87,8.65,8.65,0,0,1-4.78,1.24,10.35,10.35,0,0,1-4.8-1Z"/><path class="cls-6" d="M1132.16,414.37V409.6h9.69v1a11,11,0,0,1,5.14-1.3,8.36,8.36,0,0,1,5.8,2.19,7.46,7.46,0,0,1,2.4,5.76,7.13,7.13,0,0,1-2.36,5.67,10,10,0,0,1-11,.85v3.15h2v4.77h-11.72v-4.77H1134V414.37Zm9.64,2.87a3.56,3.56,0,0,0,.75,2.47,2.36,2.36,0,0,0,1.86.84q2.67,0,2.67-3.4c0-2.22-.85-3.33-2.56-3.33a2.56,2.56,0,0,0-1.94.81A3.7,3.7,0,0,0,1141.8,417.24Z"/><path class="cls-6" d="M1169.9,424.76h-12.22V420h2.06v-5.62h-2.06V409.6h9.4v3.8a6.44,6.44,0,0,1,1.65-2.46,5.26,5.26,0,0,1,2.15-1.32,12,12,0,0,1,3.08-.3V416h-.66a10,10,0,0,0-3.57.48,3.09,3.09,0,0,0-1.66,1.31,4.88,4.88,0,0,0-.47,2.22h2.3Z"/><path class="cls-6" d="M1188.08,420l6.49.8a6.12,6.12,0,0,1-1.22,1.82,7.8,7.8,0,0,1-1.91,1.4,11.3,11.3,0,0,1-5.42,1.21q-5.3,0-8-2.2a7.06,7.06,0,0,1-2.67-5.73,7.35,7.35,0,0,1,2.64-5.78,10.26,10.26,0,0,1,7.08-2.32,10.77,10.77,0,0,1,7,2.19q2.65,2.17,2.83,6.61H1183q0,3.69,2.75,3.69A2.42,2.42,0,0,0,1188.08,420Zm-5-4h4.43c0-.31,0-.49,0-.53a3.27,3.27,0,0,0-.63-2,2,2,0,0,0-1.65-.79,1.83,1.83,0,0,0-1.63.87,4.07,4.07,0,0,0-.56,2.19A3,3,0,0,0,1183.08,416Z"/><path class="cls-6" d="M1203.76,413.84l-6.16-.63a5.88,5.88,0,0,1,3.28-3.14,18.51,18.51,0,0,1,6.6-.91c1.07,0,2,0,2.88.11a17,17,0,0,1,2.27.3,7,7,0,0,1,3.08,1.2,4.69,4.69,0,0,1,1.39,1.78,8.61,8.61,0,0,1,.41,3.07V420h1.93v4.77h-9.79v-1a10,10,0,0,1-5.44,1.31,7.18,7.18,0,0,1-4.83-1.41,4.26,4.26,0,0,1-1.64-3.33,4.06,4.06,0,0,1,2-3.48,9.07,9.07,0,0,1,5.22-1.36,11.8,11.8,0,0,1,4.67.77v-.46a6.4,6.4,0,0,0-.21-2,2,2,0,0,0-1-1,3.94,3.94,0,0,0-1.82-.41A3.32,3.32,0,0,0,1203.76,413.84Zm5.89,7v-2.76a4.59,4.59,0,0,0-2.22-.57,2.29,2.29,0,0,0-1.64.57,1.91,1.91,0,0,0-.61,1.47,2,2,0,0,0,.62,1.5,2.13,2.13,0,0,0,1.47.59A3.49,3.49,0,0,0,1209.65,420.88Z"/><path class="cls-6" d="M1244.87,420v4.77H1235v-1A9.7,9.7,0,0,1,1230,425a8.92,8.92,0,0,1-5.68-2,6.75,6.75,0,0,1-2.47-5.6,7.89,7.89,0,0,1,2.29-6.06,8.61,8.61,0,0,1,6.11-2.11,9,9,0,0,1,4.81,1.25v-2.78h-1.94V403h9.8v17Zm-9.79-2.87a4.09,4.09,0,0,0-.65-2.38,2.24,2.24,0,0,0-2-.94c-1.79,0-2.68,1.16-2.68,3.46a3.9,3.9,0,0,0,.66,2.34,2.2,2.2,0,0,0,2,.94,2.51,2.51,0,0,0,1.94-.83A3.83,3.83,0,0,0,1235.08,417.12Z"/><path class="cls-6" d="M1248.43,431.05v-3a3.86,3.86,0,0,0,1.9-.38,1.72,1.72,0,0,0,.82-.89,7.93,7.93,0,0,0,.18-2h-2.9v-5.69h7.8v4.86a22.74,22.74,0,0,1-.19,3.58,3.75,3.75,0,0,1-1.1,1.9,4.59,4.59,0,0,1-2.2,1.3A18.57,18.57,0,0,1,1248.43,431.05Z"/><path class="cls-6" d="M671.73,470.11h-6.62V465.5h2.55l.76-1.55-5.81-11.18h-1.17V448h10.33v4.77h-1.68l2.64,6,2.44-6H673.7V448h7.83v4.77H680Z"/><path class="cls-6" d="M682.84,455.5a7,7,0,0,1,2.82-5.64,11.63,11.63,0,0,1,7.59-2.3,12.88,12.88,0,0,1,7.83,2.22,6.86,6.86,0,0,1,3,5.78,7,7,0,0,1-2.87,5.74,11.83,11.83,0,0,1-7.6,2.29c-3.39,0-6-.76-7.93-2.29A7.12,7.12,0,0,1,682.84,455.5Zm8,0q0,3.63,2.59,3.63,2.75,0,2.75-3.66a4.31,4.31,0,0,0-.67-2.59,2.27,2.27,0,0,0-1.94-.92,2.45,2.45,0,0,0-2,.9A4.07,4.07,0,0,0,690.8,455.53Z"/><path class="cls-6" d="M708,452.77H706.2V448h9.69v7.22a5.76,5.76,0,0,0,.34,2.45,1.43,1.43,0,0,0,1.41.64,4.5,4.5,0,0,0,2.44-.7v-4.84H718V448h9.94v10.39h1.83v4.77h-9.69v-1.92a11,11,0,0,1-6.36,2.2,5.82,5.82,0,0,1-4-1.49q-1.69-1.49-1.69-5.59Z"/><path class="cls-6" d="M751.5,463.16h-12v-4.77h2v-12.2h-2v-4.77h9.85v8.41a11,11,0,0,1,6.17-2.11,5.75,5.75,0,0,1,4.23,1.55q1.56,1.56,1.56,5.51v3.61h1.78v4.77h-9.64V457a11.25,11.25,0,0,0-.32-3.54,1.43,1.43,0,0,0-1.44-.72,4.17,4.17,0,0,0-2.34.8v4.9h2.12Z"/><path class="cls-6" d="M771.58,452.24l-6.16-.63a5.88,5.88,0,0,1,3.28-3.14,18.51,18.51,0,0,1,6.6-.91c1.07,0,2,0,2.88.11a16.73,16.73,0,0,1,2.27.3,7,7,0,0,1,3.08,1.2,4.69,4.69,0,0,1,1.39,1.78,8.61,8.61,0,0,1,.41,3.07v4.37h1.94v4.77h-9.8v-1a10,10,0,0,1-5.44,1.31A7.21,7.21,0,0,1,767.2,462a4.26,4.26,0,0,1-1.64-3.33,4.06,4.06,0,0,1,2-3.48,9.07,9.07,0,0,1,5.22-1.36,11.8,11.8,0,0,1,4.67.77v-.46a6.82,6.82,0,0,0-.2-2,2,2,0,0,0-1-1,3.91,3.91,0,0,0-1.82-.41A3.32,3.32,0,0,0,771.58,452.24Zm5.89,7v-2.76a4.59,4.59,0,0,0-2.22-.57,2.31,2.31,0,0,0-1.64.57A1.91,1.91,0,0,0,773,458a2,2,0,0,0,.62,1.5,2.13,2.13,0,0,0,1.47.59A3.49,3.49,0,0,0,777.47,459.28Z"/><path class="cls-6" d="M801.27,463.34H795l-5.67-10.57h-1.52V448h10.69v4.77h-1.69l2.52,5.76,2.65-5.76h-1.51V448h7.84v4.77h-1.47Z"/><path class="cls-6" d="M822.31,458.36l6.49.8a6.32,6.32,0,0,1-1.22,1.82,7.8,7.8,0,0,1-1.91,1.4,11.33,11.33,0,0,1-5.42,1.21q-5.29,0-8-2.2a7.06,7.06,0,0,1-2.67-5.73,7.35,7.35,0,0,1,2.64-5.78,10.26,10.26,0,0,1,7.08-2.32,10.77,10.77,0,0,1,7,2.19q2.65,2.17,2.83,6.61H817.22q0,3.69,2.75,3.69A2.43,2.43,0,0,0,822.31,458.36Zm-5-4h4.42c0-.31,0-.49,0-.53a3.27,3.27,0,0,0-.63-2.05,2,2,0,0,0-1.66-.79,1.81,1.81,0,0,0-1.62.87,4,4,0,0,0-.56,2.19A3,3,0,0,0,817.31,454.39Z"/><path class="cls-6" d="M852,457.63v4.65a7.38,7.38,0,0,1-2.22.91,11.45,11.45,0,0,1-2.93.4,7.4,7.4,0,0,1-3-.57,4.54,4.54,0,0,1-2-1.6,5.17,5.17,0,0,1-.53-1.05,4.8,4.8,0,0,1-.25-1.07c-.07-.69-.11-2-.11-4v-2.54h-1.94V448H841v-2.33l7.86-3.73V448H852v4.77h-3.17v2.93a4.79,4.79,0,0,0,.26,1.93,1.1,1.1,0,0,0,1.07.48A4.69,4.69,0,0,0,852,457.63Z"/><path class="cls-6" d="M854.59,455.5a7,7,0,0,1,2.82-5.64,11.63,11.63,0,0,1,7.59-2.3,12.88,12.88,0,0,1,7.83,2.22,6.86,6.86,0,0,1,3,5.78A7,7,0,0,1,873,461.3a11.82,11.82,0,0,1-7.59,2.29q-5.1,0-7.94-2.29A7.12,7.12,0,0,1,854.59,455.5Zm8,0q0,3.63,2.59,3.63,2.75,0,2.75-3.66a4.31,4.31,0,0,0-.67-2.59,2.27,2.27,0,0,0-1.94-.92,2.45,2.45,0,0,0-2,.9A4.07,4.07,0,0,0,862.55,455.53Z"/><path class="cls-6" d="M897.91,463.16h-12v-4.77h2v-12.2h-2v-4.77h9.84v8.41a11,11,0,0,1,6.17-2.11,5.77,5.77,0,0,1,4.24,1.55q1.56,1.56,1.56,5.51v3.61h1.78v4.77h-9.64V457a11.14,11.14,0,0,0-.33-3.54,1.43,1.43,0,0,0-1.44-.72,4.17,4.17,0,0,0-2.34.8v4.9h2.13Z"/><path class="cls-6" d="M913.12,452.77H911.3V448H921v7.22a5.71,5.71,0,0,0,.35,2.45,1.42,1.42,0,0,0,1.4.64,4.5,4.5,0,0,0,2.44-.7v-4.84h-2.08V448H933v10.39h1.83v4.77h-9.69v-1.92a10.93,10.93,0,0,1-6.36,2.2,5.84,5.84,0,0,1-4-1.49c-1.12-1-1.69-2.85-1.69-5.59Z"/><path class="cls-6" d="M949,463.16H937v-4.77h2v-5.62h-2V448h9.81v1.92a10.05,10.05,0,0,1,6.21-2.2,5.64,5.64,0,0,1,4.37,1.61c1,1.07,1.45,2.8,1.45,5.17v3.89h1.8v4.77H951v-6.74a7.22,7.22,0,0,0-.37-2.9,1.65,1.65,0,0,0-1.55-.69,4.06,4.06,0,0,0-2.25.8v4.76H949Z"/><path class="cls-6" d="M975,457.63v4.65a7.38,7.38,0,0,1-2.22.91,11.47,11.47,0,0,1-2.94.4,7.38,7.38,0,0,1-3-.57,4.54,4.54,0,0,1-2-1.6,5.17,5.17,0,0,1-.53-1.05,4.8,4.8,0,0,1-.25-1.07c-.07-.69-.11-2-.11-4v-2.54h-1.94V448H964v-2.33l7.86-3.73V448H975v4.77h-3.17v2.93a4.79,4.79,0,0,0,.26,1.93,1.09,1.09,0,0,0,1.07.48A4.69,4.69,0,0,0,975,457.63Z"/><path class="cls-6" d="M997.69,457.63v4.65a7.38,7.38,0,0,1-2.22.91,11.47,11.47,0,0,1-2.94.4,7.31,7.31,0,0,1-3-.57,4.43,4.43,0,0,1-2-1.6,5.85,5.85,0,0,1-.54-1.05,6.23,6.23,0,0,1-.25-1.07c-.07-.69-.1-2-.1-4v-2.54h-1.94V448h1.94v-2.33l7.85-3.73V448h3.18v4.77h-3.18v2.93a4.57,4.57,0,0,0,.27,1.93,1.08,1.08,0,0,0,1.06.48A4.73,4.73,0,0,0,997.69,457.63Z"/><path class="cls-6" d="M1011.56,463.16h-12v-4.77h2v-12.2h-2v-4.77h9.85v8.41a11,11,0,0,1,6.17-2.11,5.75,5.75,0,0,1,4.23,1.55c1,1,1.57,2.88,1.57,5.51v3.61h1.78v4.77h-9.64V457a11.14,11.14,0,0,0-.33-3.54,1.43,1.43,0,0,0-1.44-.72,4.17,4.17,0,0,0-2.34.8v4.9h2.12Z"/><path class="cls-6" d="M1038.31,458.36l6.49.8a6.32,6.32,0,0,1-1.22,1.82,7.8,7.8,0,0,1-1.91,1.4,11.33,11.33,0,0,1-5.42,1.21q-5.3,0-8-2.2a7.06,7.06,0,0,1-2.67-5.73,7.35,7.35,0,0,1,2.64-5.78,10.26,10.26,0,0,1,7.08-2.32,10.79,10.79,0,0,1,7,2.19q2.65,2.17,2.83,6.61h-11.94q0,3.69,2.75,3.69A2.43,2.43,0,0,0,1038.31,458.36Zm-5-4h4.42c0-.31,0-.49,0-.53a3.27,3.27,0,0,0-.62-2.05,2,2,0,0,0-1.66-.79,1.8,1.8,0,0,0-1.62.87,4,4,0,0,0-.56,2.19A3,3,0,0,0,1033.31,454.39Z"/><path class="cls-6" d="M1062,452.24l-6.15-.63a5.85,5.85,0,0,1,3.28-3.14,18.48,18.48,0,0,1,6.59-.91c1.07,0,2,0,2.88.11a17.12,17.12,0,0,1,2.28.3,7,7,0,0,1,3.08,1.2,4.79,4.79,0,0,1,1.39,1.78,8.65,8.65,0,0,1,.4,3.07v4.37h1.94v4.77h-9.8v-1a9.92,9.92,0,0,1-5.43,1.31,7.18,7.18,0,0,1-4.83-1.41,4.23,4.23,0,0,1-1.64-3.33,4.07,4.07,0,0,1,2-3.48,9.12,9.12,0,0,1,5.22-1.36,11.73,11.73,0,0,1,4.67.77v-.46a6.47,6.47,0,0,0-.2-2,2,2,0,0,0-1-1,3.87,3.87,0,0,0-1.81-.41A3.35,3.35,0,0,0,1062,452.24Zm5.89,7v-2.76a4.52,4.52,0,0,0-2.21-.57,2.33,2.33,0,0,0-1.65.57,2.11,2.11,0,0,0,0,3,2.13,2.13,0,0,0,1.47.59A3.45,3.45,0,0,0,1067.87,459.28Z"/><path class="cls-6" d="M1091.66,463.16h-12v-4.77h1.95v-5.62h-1.95V448h9.81v1.92a10,10,0,0,1,6.2-2.2,5.65,5.65,0,0,1,4.38,1.61c1,1.07,1.45,2.8,1.45,5.17v3.89h1.8v4.77h-9.66v-6.74a7.17,7.17,0,0,0-.38-2.9,1.63,1.63,0,0,0-1.54-.69,4.06,4.06,0,0,0-2.25.8v4.76h2.19Z"/><path class="cls-6" d="M1116.08,463.16h-10.74v-4.77h1.57v-5.62h-1.57V448h9.42v10.39h1.32Zm-9.83-19.44a2.24,2.24,0,0,1,1.26-2,6,6,0,0,1,3.1-.75,5.39,5.39,0,0,1,3.05.78,2.31,2.31,0,0,1,1.14,1.93,2.2,2.2,0,0,1-1.19,2,5.71,5.71,0,0,1-3,.73,6.44,6.44,0,0,1-3.1-.67A2.13,2.13,0,0,1,1106.25,443.72Z"/><path class="cls-6" d="M1130.48,463.16h-11.87v-4.77h1.87v-5.62h-1.9V448h9.78v2.08a10.11,10.11,0,0,1,3-1.66,9.58,9.58,0,0,1,3.47-.7c2.57,0,4.3,1,5.17,3a10.92,10.92,0,0,1,7.11-3,5.88,5.88,0,0,1,3.27.84,4.65,4.65,0,0,1,1.84,2.28,12.16,12.16,0,0,1,.55,4.13v3.42h2v4.77h-9.86v-6.52a7.6,7.6,0,0,0-.39-3.17,1.52,1.52,0,0,0-1.41-.63,4.37,4.37,0,0,0-2.58,1v4.58h2.14v4.77h-10v-6.49a8.82,8.82,0,0,0-.34-3.17,1.42,1.42,0,0,0-1.39-.66,4.38,4.38,0,0,0-2.53,1v4.58h2.12Z"/><path class="cls-6" d="M1163,452.24l-6.16-.63a5.88,5.88,0,0,1,3.28-3.14,18.51,18.51,0,0,1,6.6-.91c1.07,0,2,0,2.88.11a16.73,16.73,0,0,1,2.27.3,7,7,0,0,1,3.08,1.2,4.69,4.69,0,0,1,1.39,1.78,8.61,8.61,0,0,1,.41,3.07v4.37h1.94v4.77h-9.8v-1a10,10,0,0,1-5.44,1.31,7.21,7.21,0,0,1-4.83-1.41,4.26,4.26,0,0,1-1.64-3.33,4.06,4.06,0,0,1,2-3.48,9.07,9.07,0,0,1,5.22-1.36,11.8,11.8,0,0,1,4.67.77v-.46a6.82,6.82,0,0,0-.2-2,2,2,0,0,0-1-1,3.91,3.91,0,0,0-1.82-.41A3.32,3.32,0,0,0,1163,452.24Zm5.89,7v-2.76a4.59,4.59,0,0,0-2.22-.57,2.31,2.31,0,0,0-1.64.57,1.91,1.91,0,0,0-.61,1.47,2,2,0,0,0,.62,1.5,2.13,2.13,0,0,0,1.47.59A3.49,3.49,0,0,0,1168.86,459.28Z"/><path class="cls-6" d="M1191.47,463.16h-10.86v-4.77h1.61v-12.2h-1.61v-4.77h9.47v17h1.39Z"/><path class="cls-6" d="M1199.28,463.34h-4.86v-4.81H1199a5.2,5.2,0,0,0,3.83,1.85c1.39,0,2.09-.29,2.09-.86a.75.75,0,0,0-.45-.68,15,15,0,0,0-2.49-.73c-1.08-.29-2.28-.63-3.59-1a8.24,8.24,0,0,1-2.69-1.21,4.17,4.17,0,0,1-1.36-1.44,3.92,3.92,0,0,1-.37-1.85,4.13,4.13,0,0,1,1.78-3.7,7.94,7.94,0,0,1,4.48-1.17,9.55,9.55,0,0,1,4.72,1.06V448h4.8v4.41h-4.44a5.52,5.52,0,0,0-3.94-1.58c-1.2,0-1.79.32-1.79.95,0,.3.17.5.53.6s1.3.31,3,.67a31.28,31.28,0,0,1,4.51,1.22,5.44,5.44,0,0,1,2.42,1.61,3.74,3.74,0,0,1,.8,2.45,4.26,4.26,0,0,1-2,3.87,8.67,8.67,0,0,1-4.78,1.24,10.32,10.32,0,0,1-4.8-1Z"/><path class="cls-6" d="M1233.69,457.63v4.65a7.38,7.38,0,0,1-2.22.91,11.47,11.47,0,0,1-2.94.4,7.31,7.31,0,0,1-3-.57,4.43,4.43,0,0,1-2-1.6,5.85,5.85,0,0,1-.54-1.05,6.23,6.23,0,0,1-.25-1.07c-.07-.69-.1-2-.1-4v-2.54h-1.94V448h1.94v-2.33l7.85-3.73V448h3.18v4.77h-3.18v2.93a4.57,4.57,0,0,0,.27,1.93,1.08,1.08,0,0,0,1.06.48A4.73,4.73,0,0,0,1233.69,457.63Z"/><path class="cls-6" d="M1236.25,455.5a7,7,0,0,1,2.81-5.64,11.68,11.68,0,0,1,7.6-2.3,12.87,12.87,0,0,1,7.82,2.22,6.87,6.87,0,0,1,3,5.78,7.05,7.05,0,0,1-2.88,5.74,11.78,11.78,0,0,1-7.59,2.29c-3.4,0-6-.76-7.94-2.29A7.14,7.14,0,0,1,1236.25,455.5Zm8,0q0,3.63,2.6,3.63t2.75-3.66a4.31,4.31,0,0,0-.68-2.59,2.24,2.24,0,0,0-1.93-.92,2.46,2.46,0,0,0-2,.9A4.07,4.07,0,0,0,1244.2,455.53Z"/><path class="cls-6" d="M831.38,501.74h-4.86v-4.81h4.55a5.22,5.22,0,0,0,3.83,1.85c1.39,0,2.09-.29,2.09-.86a.74.74,0,0,0-.45-.68,14.71,14.71,0,0,0-2.49-.73c-1.08-.29-2.28-.63-3.59-1a8.33,8.33,0,0,1-2.69-1.21,4.27,4.27,0,0,1-1.36-1.44A3.92,3.92,0,0,1,826,491a4.13,4.13,0,0,1,1.78-3.7,8,8,0,0,1,4.48-1.17,9.55,9.55,0,0,1,4.72,1.06v-.78h4.8v4.41h-4.44a5.5,5.5,0,0,0-3.93-1.58c-1.2,0-1.8.32-1.8.95,0,.3.18.5.53.6s1.3.31,3,.67a31.48,31.48,0,0,1,4.52,1.22,5.5,5.5,0,0,1,2.42,1.61,3.79,3.79,0,0,1,.79,2.45A4.26,4.26,0,0,1,841,500.6a8.65,8.65,0,0,1-4.78,1.24,10.35,10.35,0,0,1-4.8-1Z"/><path class="cls-6" d="M851.74,490.64l-6.15-.63a5.85,5.85,0,0,1,3.28-3.14,18.44,18.44,0,0,1,6.59-.91c1.07,0,2,0,2.88.1a18.81,18.81,0,0,1,2.28.31,7,7,0,0,1,3.08,1.2,4.72,4.72,0,0,1,1.39,1.78,8.65,8.65,0,0,1,.4,3.07v4.37h1.94v4.77h-9.8v-1a9.92,9.92,0,0,1-5.43,1.31,7.18,7.18,0,0,1-4.83-1.41,4.23,4.23,0,0,1-1.64-3.33,4.07,4.07,0,0,1,2-3.48,9.09,9.09,0,0,1,5.22-1.36,11.73,11.73,0,0,1,4.67.77v-.46a6.82,6.82,0,0,0-.2-2,2,2,0,0,0-1-1,3.87,3.87,0,0,0-1.81-.41A3.35,3.35,0,0,0,851.74,490.64Zm5.89,7v-2.76a4.56,4.56,0,0,0-2.22-.57,2.32,2.32,0,0,0-1.64.57,2.09,2.09,0,0,0,0,3,2.13,2.13,0,0,0,1.47.59A3.45,3.45,0,0,0,857.63,497.68Z"/><path class="cls-6" d="M881.73,501.56H869.46v-4.77h1.92v-5.62h-1.92V486.4h1.92V486a6.46,6.46,0,0,1,1-3.81,6.19,6.19,0,0,1,2.65-2.13,14.68,14.68,0,0,1,5.41-.71q1.69,0,3.33.06v4.23c-.74-.07-1.39-.11-1.95-.11a4.18,4.18,0,0,0-1.68.28,1.5,1.5,0,0,0-.79.8,4.89,4.89,0,0,0-.21,1.75h2.91v4.77h-2.91v5.62h2.57Z"/><path class="cls-6" d="M896.76,496.76l6.48.8a6.12,6.12,0,0,1-1.22,1.82,7.74,7.74,0,0,1-1.9,1.4A11.33,11.33,0,0,1,894.7,502c-3.54,0-6.19-.73-8-2.2a7.06,7.06,0,0,1-2.68-5.73,7.33,7.33,0,0,1,2.65-5.78,10.21,10.21,0,0,1,7.07-2.32,10.75,10.75,0,0,1,7,2.19c1.77,1.45,2.72,3.65,2.83,6.61H891.66c0,2.46,1,3.69,2.75,3.69A2.43,2.43,0,0,0,896.76,496.76Zm-5-4h4.42c0-.31,0-.49,0-.53a3.33,3.33,0,0,0-.62-2.05,2,2,0,0,0-1.66-.79,1.83,1.83,0,0,0-1.63.87,4.07,4.07,0,0,0-.56,2.19A2.85,2.85,0,0,0,891.76,492.79Z"/><path class="cls-6" d="M926.48,496v4.65a7.38,7.38,0,0,1-2.22.91,11.47,11.47,0,0,1-2.94.4,7.31,7.31,0,0,1-3-.57,4.43,4.43,0,0,1-1.95-1.6,5.85,5.85,0,0,1-.54-1.05,6.23,6.23,0,0,1-.25-1.07c-.07-.69-.1-2-.1-4v-2.54h-1.94V486.4h1.94v-2.33l7.85-3.73v6.06h3.18v4.77H923.3v2.93a4.57,4.57,0,0,0,.27,1.93,1.08,1.08,0,0,0,1.06.48A4.73,4.73,0,0,0,926.48,496Z"/><path class="cls-6" d="M940.35,501.56h-12v-4.77h2v-12.2h-2v-4.77h9.85v8.41a11,11,0,0,1,6.17-2.11,5.75,5.75,0,0,1,4.23,1.55q1.56,1.56,1.56,5.51v3.61H952v4.77h-9.64v-6.21a11.14,11.14,0,0,0-.33-3.54,1.43,1.43,0,0,0-1.44-.72,4.17,4.17,0,0,0-2.34.8v4.9h2.12Z"/><path class="cls-6" d="M967.1,496.76l6.48.8a6.09,6.09,0,0,1-1.21,1.82,8,8,0,0,1-1.91,1.4A11.33,11.33,0,0,1,965,502q-5.29,0-8-2.2a7.06,7.06,0,0,1-2.67-5.73,7.35,7.35,0,0,1,2.64-5.78,10.26,10.26,0,0,1,7.08-2.32,10.79,10.79,0,0,1,7,2.19q2.65,2.18,2.82,6.61H962c0,2.46.94,3.69,2.75,3.69A2.43,2.43,0,0,0,967.1,496.76Zm-5-4h4.42c0-.31,0-.49,0-.53a3.33,3.33,0,0,0-.62-2.05,2,2,0,0,0-1.66-.79,1.8,1.8,0,0,0-1.62.87,4,4,0,0,0-.57,2.19A2.85,2.85,0,0,0,962.1,492.79Z"/><path class="cls-6" d="M996.51,501.74h-6.22l-4.64-10.57H984V486.4h10.22v4.77h-1.51l1.78,5,3.73-9.81h5.83l3.41,9.81,1.93-5H1008V486.4h7.39v4.77h-1.48l-4.41,10.57h-6.23L999.76,494Z"/><path class="cls-6" d="M1016.76,493.9a7,7,0,0,1,2.81-5.64,11.65,11.65,0,0,1,7.59-2.3,12.88,12.88,0,0,1,7.83,2.22,6.87,6.87,0,0,1,3,5.78,7.05,7.05,0,0,1-2.88,5.74,11.82,11.82,0,0,1-7.59,2.29c-3.4,0-6-.76-7.94-2.29A7.11,7.11,0,0,1,1016.76,493.9Zm8,0q0,3.63,2.59,3.63c1.84,0,2.75-1.22,2.75-3.66a4.31,4.31,0,0,0-.67-2.59,2.26,2.26,0,0,0-1.94-.92,2.45,2.45,0,0,0-2,.9A4.07,4.07,0,0,0,1024.71,493.93Z"/><path class="cls-6" d="M1052.63,501.56h-12.22v-4.77h2.07v-5.62h-2.07V486.4h9.41v3.8a6.3,6.3,0,0,1,1.64-2.46,5.25,5.25,0,0,1,2.16-1.32,11.81,11.81,0,0,1,3.07-.3v6.67H1056a10,10,0,0,0-3.58.48,3.12,3.12,0,0,0-1.66,1.31,4.88,4.88,0,0,0-.47,2.22h2.3Z"/><path class="cls-6" d="M1068.65,501.56h-10.86v-4.77h1.61v-12.2h-1.61v-4.77h9.47v17h1.39Z"/><path class="cls-6" d="M1094.24,496.79v4.77h-9.83v-1a9.68,9.68,0,0,1-5.06,1.3,8.87,8.87,0,0,1-5.67-1.95,6.72,6.72,0,0,1-2.47-5.6,7.92,7.92,0,0,1,2.28-6.06,8.63,8.63,0,0,1,6.11-2.11,8.9,8.9,0,0,1,4.81,1.25v-2.78h-1.93v-4.77h9.79v17Zm-9.78-2.87a4.1,4.1,0,0,0-.66-2.38,2.23,2.23,0,0,0-2-.94c-1.78,0-2.67,1.16-2.67,3.46a4,4,0,0,0,.65,2.34,2.2,2.2,0,0,0,2,.94,2.51,2.51,0,0,0,1.94-.83A3.89,3.89,0,0,0,1084.46,493.92Z"/><path class="cls-6" d="M485.88,354.58,407.53,368l-5.86-34.33,11.54-2-3.89-22.78-45.07-45.77-9.79,1.68-5.87-34.33,74.94-12.81L429.4,252l-8.56,1.46,20.27,26.67,13.44-32.44-8.76,1.5-5.87-34.32,55.15-9.43,5.87,34.32-9,1.54-27.19,58.12,3.89,22.78L480,320.25Z"/><path class="cls-6" d="M511,276.13a75.33,75.33,0,0,1,2.82-36.24q5.81-18.18,22.1-32.74a68.17,68.17,0,0,1,12.25-8.68,89.38,89.38,0,0,1,14.27-6.2,108,108,0,0,1,16.69-4.18q38.55-6.6,63.54,12.37a79.91,79.91,0,0,1,20,21.41,72.41,72.41,0,0,1,10.07,26.6q5.13,30-12.94,55.9t-55.27,32.26q-36,6.15-61.91-10.84T511,276.13Zm62.26-10.65q4.1,23.92,10.16,31.47,5.88,7.71,15.36,6.08a15.36,15.36,0,0,0,12.63-10.54q3.23-9-.93-33.37-4-23.61-10-31.39t-15.57-6a15.26,15.26,0,0,0-12.52,10.53Q569.09,241.16,573.24,265.48Z"/><path class="cls-6" d="M694,206.74l-11,1.89-5.87-34.33,73.4-12.55,5.87,34.33-6.81,1.16,8.27,48.35q3,17.32,7.33,23t12.92,4.16q7.11-1.21,9.4-7t-.41-21.68l-8.85-51.75L771,193.58l-5.86-34.33L819.07,150l5.87,34.33L813.6,186.3l8.88,51.95q3.4,19.91-.2,33.57t-15.81,23q-12.18,9.41-31.77,12.76a95.24,95.24,0,0,1-28.59,1q-13-1.61-21.52-8a46.74,46.74,0,0,1-13.74-16.43q-5.29-9.81-9-31.36Z"/><path class="cls-6" d="M1046.15,258.79,909.66,282.13l-5.87-34.33,12.89-2.2L903.9,170.86,891,173.06l-5.87-34.32,82-14L973,159.05l-13.61,2.33,12.78,74.74,33.91-5.8-3.93-23,34.23-5.85Z"/><path class="cls-6" d="M1047.74,184.36a75.33,75.33,0,0,1,2.83-36.24q5.81-18.18,22.09-32.74a68.24,68.24,0,0,1,12.26-8.68,89,89,0,0,1,14.27-6.2,107.6,107.6,0,0,1,16.68-4.18q38.57-6.6,63.55,12.37a80.07,80.07,0,0,1,20,21.41,72.39,72.39,0,0,1,10.06,26.6q5.13,30-12.93,55.9t-55.28,32.26q-36,6.15-61.91-10.84T1047.74,184.36ZM1110,173.71q4.08,23.92,10.15,31.47,5.88,7.71,15.36,6.08a15.33,15.33,0,0,0,12.63-10.54q3.22-9-.93-33.37-4-23.61-10-31.39t-15.57-6a15.28,15.28,0,0,0-12.53,10.53Q1105.85,149.39,1110,173.71Z"/><path class="cls-6" d="M1274.07,219.83l-32.27,5.51-7.86-46,32.27-5.52q9,17.78,25,15,11.53-2,10-11.25a10,10,0,0,0-5.4-7.35q-4.93-2.76-19.9-6.57-18.88-5-28.12-9.31A45,45,0,0,1,1232,142.13a39.48,39.48,0,0,1-8.93-19.37q-3.42-20,7.65-33.46t29.82-16.66q18.87-3.23,33.79,5.26L1292.85,69l32.47-5.55,7,40.82-32.06,5.48q-8.76-15.9-23.71-13.34-10.52,1.8-9,10.76a7.64,7.64,0,0,0,4.1,6Q1274.92,115,1292,120q22.93,6.9,30.87,10.53a38.14,38.14,0,0,1,8.51,5.38,49.28,49.28,0,0,1,7.74,7.75,44.58,44.58,0,0,1,9.41,20.89q3.09,18-8.18,32.8-11.23,15-31.65,18.46a57.53,57.53,0,0,1-36.25-5.37Z"/><path class="cls-6" d="M1483.74,184l-80.51,13.76-5.87-34.33,12.37-2.11L1397,86.56l-16.5,2.82,4.46,26.08-26.9,4.6-10.33-60.4,142.15-24.31,10.33,60.41-26.9,4.6-4.46-26.08-16.39,2.8,12.77,74.74,12.68-2.17Z"/><path class="cls-7" d="M378.4,874.47l-48.32,32.87c8.1,6,10.7,15.37,7.37,21.59a13,13,0,0,1-10.92,6.69c-7,0-11.68-6.9-13.16-11.54a14.68,14.68,0,0,1-.66-3.4c-.4-4.91-2.52-13.13-9.7-27.77l54.81-34.47"/><path class="cls-8" d="M313.46,923.35l-9.2-30.48,53.59-33.29,2.28,3.06L310.4,895.35s7,15.69,6.66,27.21c0,.75,1.36,6.42,9.69,9.67,9.33,2.19,3.45,2.19,3.45,2.19l-7.45.32C319.23,932.18,315.78,929.4,313.46,923.35Z"/><polygon class="cls-9" points="356.2 882.7 355.51 888.86 326.37 907.27 356.2 882.7"/><path class="cls-10" d="M325.23,937.71c-7.93-.75-12.54-8.68-13.91-13a17,17,0,0,1-.75-3.84c-.5-6.13-3.69-15.22-9.48-27l-.85-1.73,56.44-35.5,2.28,3.63L305.78,893.7c5.58,11.62,8.54,20.4,9.06,26.81a13.15,13.15,0,0,0,.57,2.92c1.29,4.06,5.32,10.08,11.1,10a10.79,10.79,0,0,0,9.05-5.55c2.62-4.89.81-13.29-6.75-18.85l-2.44-1.8,50.82-34.57,2.41,3.55-46,31.26c6.88,6.38,9.35,15.6,5.69,22.44a15,15,0,0,1-12.8,7.81A11.39,11.39,0,0,1,325.23,937.71Z"/><path class="cls-7" d="M478.48,889.16l3,73.32c16.26,1.23,24.43,3.57,28.86,5.72a14.79,14.79,0,0,0,3.26,1.15c4.76,1.08,13.12.55,16.62-5.5a13,13,0,0,0-.23-12.8c-3.67-6-20.86-7.13-30.11-3.17l-.71-60.09"/><path class="cls-8" d="M482,944.45v17.31s21.65,1.77,27.74,5.54,15.7,0,15.7,0-9.82,0-13-3.54-25.85-5.32-25.85-5.32l-.66-9.68Z"/><path class="cls-10" d="M517.89,971.94a21.63,21.63,0,0,1-4.73-.5,16.42,16.42,0,0,1-3.7-1.3c-5.53-2.67-15-4.53-28.11-5.52l-1.9-.15-3.11-75.23,4.28-.17,3,71.42c12.85,1.08,21.93,3,27.72,5.78a13.24,13.24,0,0,0,2.81,1c4.16.94,11.38.53,14.28-4.48a10.79,10.79,0,0,0-.2-10.61c-2.86-4.7-18.76-6-27.43-2.32l-2.95,1.26-.75-63.3,4.29,0,.67,57.1c10.35-3,25.89-1.39,29.83,5.07a15.1,15.1,0,0,1,.26,15C528.92,970.44,522.78,971.94,517.89,971.94Z"/><path class="cls-7" d="M565.26,798.49c-5.83,4.42-14.77,9.79-26.28,11.17-16.69,2-30-5.45-34.83-7.88C470,784.63,405,791,373.35,816.86a62.93,62.93,0,0,0-5.22,4.76l-74-16.67c-10.86-2.6-13.62,6.17-2.44,8.44l69.43,17.15c-2.12,3.48-15.75,26.92-6.71,45.85a29.77,29.77,0,0,0,3.21,5.26l-7.48,73c15.92,3.54,23.66,7,27.74,9.79A15.23,15.23,0,0,0,381,966c4.55,1.75,12.91,2.42,17.23-3.06a13,13,0,0,0,1.61-12.71c-2.78-6.49-11.75-10.34-21.47-7.74l4.53-58.26a106.08,106.08,0,0,0,29.74,16.29c57.84,20.32,113-18.9,119.15-23.44,29.27-21.5,43.31-49.26,49.72-65.27"/><path class="cls-8" d="M364.49,829.16s-7.9,23.07-6.86,34.4,4.71,14.9,4.71,14.9l-6.14,69.83s21.51,8.1,25.09,12.92,16.35,0,16.35,0l-2,4.09-11.28.84-12.74-4.89-20.81-7.34,6.9-73.08S351,872,351.43,861.55s8.68-29,8.68-29Z"/><path class="cls-11" d="M383.28,885.11c2,2.59,22.17,11.92,22.17,11.92l20.52,6.5,15.4,2.71,24.82-1.68,13.44-3.36c17.92-5.74,21.7-7.33,21.61-7.67a.75.75,0,0,0-.4-.26,1.46,1.46,0,0,0-1.17.35c-.76.56-27,9.54-60,4.37a132.24,132.24,0,0,1-51-19.5l-9.49-5.36C379,873.05,381.16,882.36,383.28,885.11Z"/><path class="cls-8" d="M476.41,862.14,489,890.25s1.71,3.43,0,4.38l-8.35,4.56-1.92,1,8-1.6,7.58-3.12.21-4.37L482.66,871Z"/><path class="cls-8" d="M286.68,806.43c4.22,4.5,45.18,12.92,72.21,20.69,1.22.43,2.81,1.17,5.1,2.17l-76.07-17.9L284.71,809Z"/><path class="cls-10" d="M388.07,969.45a22.92,22.92,0,0,1-7.88-1.41,16.41,16.41,0,0,1-3.47-1.81c-5.1-3.44-14.18-6.62-27-9.48l-1.87-.42,7.59-74.07a32.2,32.2,0,0,1-2.93-5c-8.2-17.17,1.09-37.54,5.37-45.37l-66.62-16.46c-4.83-1-7.94-2.9-8.74-5.39-.45-1.38.12-4.76,1.13-5.84,1.91-2.07,6-2.59,11-1.39l72.78,16.44c1.42-1.41,3-2.78,4.57-4.1,31.4-25.7,97.34-33.29,133.13-15.34l1,.49c5.26,2.69,17.6,9,32.63,7.18,8.71-1,17.2-4.66,25.25-10.75l2.59,3.42c-8.66,6.56-17.85,10.46-27.33,11.59-16.33,2-29.48-4.75-35.09-7.61l-.95-.49c-16.12-8.08-39.88-11.14-65.17-8.37-25.66,2.81-48.73,11.26-63.32,23.2a62.33,62.33,0,0,0-5,4.6l-.81.83-75.12-16.9c-3.9-.93-6.5-1-6.78,0-.56,1.87,1.62,3.55,5.18,4.27l.09,0,72.27,17.86-1.53,2.5c-2.57,4.23-15,26.22-6.61,43.81a28.27,28.27,0,0,0,3,4.88l.51.67-7.37,72c12.56,2.91,21.28,6.08,26.61,9.68a12.67,12.67,0,0,0,2.64,1.38c4,1.53,11.19,2.15,14.78-2.39a10.84,10.84,0,0,0,1.32-10.53c-2.19-5.11-9.87-8.94-18.94-6.51l-2.93.78L381,880.15l3.14,2.43a103.79,103.79,0,0,0,29.14,15.95c23.78,8.36,49.86,7.56,77.51-2.39a163.39,163.39,0,0,0,39.66-20.75c27.21-20,41.66-46,49-64.33l4,1.59c-7.54,18.84-22.42,45.61-50.44,66.2a168.36,168.36,0,0,1-40.74,21.33c-28.61,10.28-55.65,11.09-80.39,2.4a107.16,107.16,0,0,1-27.19-14.26l-4,51.54c9.29-1.39,18,2.44,21.08,9.57a15,15,0,0,1-1.9,14.87C396.77,968.23,392.23,969.45,388.07,969.45Z"/><g id="LEG"><path class="cls-7" d="M478.5,861.5l16.86,28.63s2,5-1.72,7.36-29.91,19.83-29.91,19.83c3.43,5.87,19,25.45,20.52,27.52,1.63,2.25,1.51,3.6,2.38,5,2,3.38,9.05,7,14,5.1,5.75-2.19,7.17-9,6.52-13.33-1-6.57-7.09-17.32-15.66-18.55l32.64-21.81s3.54-3.2.33-7.84-16.85-29-16.85-29"/><path class="cls-8" d="M480.47,860.69c5.78,7,11.42,16.62,18.59,27.35,0,0,5,7.65-.89,11.51-4.6,3.07-27,19.37-27,19.37l17,23.05c.9,1,.9,2.82,2.33,6s5.82,5.21,5.65,5l-.8.66-7.85-3.87-3.84-8.65L466,917.73l20.64-16.22,9.22-7.5-.24-3.13L479.3,861.26Z"/><path class="cls-10" d="M497.62,957.91c-5.4,0-11.07-3.47-13.05-6.78a10.63,10.63,0,0,1-1-2.22,8.58,8.58,0,0,0-1.31-2.67c-.34-.48-1.62-2.13-3.25-4.22-5.51-7.08-14.73-18.93-17.4-23.49l-1.14-1.95,1.88-1.26c1.07-.71,26.26-17.54,30-19.86,1.74-1.09,1-3.65.8-4.3l-16.74-28.44a2.4,2.4,0,1,1,4.14-2.44l16.95,28.79.07.17c1,2.38,1.62,7.61-2.68,10.29-3.06,1.91-21.75,14.38-27.89,18.48,3.54,5.27,11.37,15.33,15.82,21.06,1.79,2.3,3,3.81,3.37,4.36a13.35,13.35,0,0,1,2,3.94,6.71,6.71,0,0,0,.53,1.29c1.52,2.55,7.45,5.47,11.07,4.09,4.56-1.74,5.49-7.51,5-10.74-.94-6.22-6.57-15.51-13.62-16.53l-6.21-.89,37.66-25.16c.5-.53,1.59-2.14-.11-4.6-3.24-4.69-16.42-28.24-17-29.24a2.4,2.4,0,0,1,4.2-2.34c.13.24,13.62,24.35,16.73,28.84,3.49,5,1.06,9.4-.7,11l-.28.22-28.61,19.12c7,3.76,11.72,12.56,12.67,18.88.74,4.89-.79,13.17-8,15.94A10.78,10.78,0,0,1,497.62,957.91Z"/></g><path class="cls-8" d="M419.15,812.78c3.46.78,6.65,4,6.07,7.51-.79,4.86-7.51,6.49-9.34,11.06-1.07,2.67-.22,5.76-1.07,8.51-1.28,4.14-5.84,6.15-9.89,7.67-2.95,1.1-6.42,2.16-9.08.49-2-1.24-2.88-3.63-3.64-5.85l-4-11.7c-.89-2.61-1.79-5.36-1.3-8.07.74-4.09,4.58-7.06,8.61-8S415.68,812,419.15,812.78Z"/><path class="cls-12" d="M417.5,812.39c3.25.74,6.25,3.77,5.71,7.07-.75,4.57-7.07,6.1-8.79,10.39-1,2.51-.21,5.42-1,8-1.21,3.89-5.49,5.79-9.3,7.22-2.77,1-6,2-8.54.46-1.87-1.17-2.7-3.41-3.41-5.5l-3.76-11c-.84-2.45-1.69-5-1.23-7.58.7-3.85,4.3-6.64,8.1-7.57S414.24,811.65,417.5,812.39Z"/><path class="cls-8" d="M437.32,856a14.77,14.77,0,0,1,7.27-2c3.73,0,7.81,1.85,8.82,5.44.57,2,.12,4.24.87,6.19,1.64,4.25,7.56,4.67,10.94,7.73a8.32,8.32,0,0,1-7.5,14.22c-2.32-.56-4.39-2.1-6.77-2.21-3.05-.13-5.61,2.06-8.18,3.71s-6.22,2.73-8.44.64c-2.83-2.65-.68-7.74-2.73-11s-6.76-3.13-9.61-5.59c-3.38-2.91-2.95-8.18-2.24-12.59a19.6,19.6,0,0,1,1.8-6.36c3-5.32,9.26-4.59,11.21.64C433.55,856.77,435.22,857.26,437.32,856Z"/><path class="cls-12" d="M438.49,854.88a14.78,14.78,0,0,1,7.26-2c3.73,0,7.82,1.85,8.83,5.44.57,2,.12,4.24.87,6.19,1.64,4.26,7.56,4.67,10.94,7.74a8.31,8.31,0,0,1-7.5,14.21c-2.32-.55-4.39-2.1-6.77-2.21-3.05-.13-5.61,2.07-8.18,3.71s-6.22,2.73-8.44.64c-2.83-2.65-.69-7.74-2.73-11s-6.76-3.12-9.61-5.58c-3.38-2.92-3-8.19-2.24-12.59a19.58,19.58,0,0,1,1.8-6.37c3-5.32,9.26-4.58,11.2.64C434.71,855.6,436.39,856.1,438.49,854.88Z"/><path class="cls-8" d="M496.23,817c8.88-7.63,23.62-5.17,29.15,5.26,2.15,4.85,3.39,10.08,5.15,15.09a4.21,4.21,0,0,1,.14,3.24c-1.44,2.3-4.48.93-6.58.56-6.22-.81-10.53,5.73-16.35,6.65s-10.93-3.61-16.69-4.29c-3.05-.36-6.24.35-9.15-.63a8.26,8.26,0,0,1-3.49-13.26c1.22-1.35,2.89-2.31,3.78-3.89.8-1.42.85-3.16,1.54-4.63a7.37,7.37,0,0,1,5.36-3.93C491.05,816.83,494.33,818.25,496.23,817Z"/><path class="cls-12" d="M497.87,816.06c8.72-7.51,23.22-5.08,28.65,5.17,2.12,4.77,3.34,9.92,5.07,14.84a4.17,4.17,0,0,1,.14,3.19c-1.41,2.26-4.41.91-6.47.55-6.12-.8-10.36,5.63-16.08,6.53s-10.74-3.54-16.41-4.22c-3-.35-6.13.35-9-.61a8.12,8.12,0,0,1-3.43-13c1.19-1.32,2.84-2.27,3.71-3.83.78-1.4.83-3.1,1.52-4.55a7.2,7.2,0,0,1,5.26-3.86C492.77,815.89,496,817.29,497.87,816.06Z"/><path class="cls-10" d="M391.05,966.64a1.59,1.59,0,0,1-1.55-1.24,10.46,10.46,0,0,0-3.59-5.8,1.6,1.6,0,1,1,1.82-2.62,13.44,13.44,0,0,1,4.87,7.7,1.58,1.58,0,0,1-1.19,1.91A1.49,1.49,0,0,1,391.05,966.64Z"/><path class="cls-10" d="M397,964a1.63,1.63,0,0,1-1.6-1.27,10.84,10.84,0,0,0-3.71-6,1.65,1.65,0,1,1,1.88-2.71,14,14,0,0,1,5,8,1.66,1.66,0,0,1-1.24,2A1.55,1.55,0,0,1,397,964Z"/><path class="cls-10" d="M319.06,931.65a1.6,1.6,0,0,1,.1-2,10.46,10.46,0,0,0,2.63-6.29,1.59,1.59,0,0,1,3.18-.06,13.42,13.42,0,0,1-3.42,8.46,1.58,1.58,0,0,1-2.24.14A1.27,1.27,0,0,1,319.06,931.65Z"/><path class="cls-10" d="M324.7,934.93a1.66,1.66,0,0,1,.11-2,10.83,10.83,0,0,0,2.71-6.5,1.65,1.65,0,1,1,3.29-.06,13.89,13.89,0,0,1-3.53,8.74,1.65,1.65,0,0,1-2.32.15A2.27,2.27,0,0,1,324.7,934.93Z"/><path class="cls-10" d="M490.89,952.85a1.58,1.58,0,0,1-.2-2,10.47,10.47,0,0,0,1.68-6.61,1.59,1.59,0,1,1,3.14-.52,13.47,13.47,0,0,1-2.14,8.86,1.58,1.58,0,0,1-2.2.47A1.23,1.23,0,0,1,490.89,952.85Z"/><path class="cls-10" d="M497,955.26a1.64,1.64,0,0,1-.2-2,10.76,10.76,0,0,0,1.73-6.84,1.65,1.65,0,1,1,3.25-.54,14,14,0,0,1-2.21,9.16,1.64,1.64,0,0,1-2.28.49A1.68,1.68,0,0,1,497,955.26Z"/><path class="cls-10" d="M521.67,969a1.6,1.6,0,0,1-1.56-1.23,10.37,10.37,0,0,0-3.58-5.8,1.59,1.59,0,0,1,1.81-2.62,13.43,13.43,0,0,1,4.88,7.7,1.59,1.59,0,0,1-1.19,1.91A1.53,1.53,0,0,1,521.67,969Z"/><path class="cls-10" d="M527.62,966.3A1.66,1.66,0,0,1,526,965a10.79,10.79,0,0,0-3.7-6,1.65,1.65,0,0,1,1.87-2.71,14,14,0,0,1,5,8,1.63,1.63,0,0,1-1.23,2A1.57,1.57,0,0,1,527.62,966.3Z"/><path class="cls-7" d="M528.86,624.42a35.46,35.46,0,0,0,.67-8c-.14-4.37-1.06-7.9-3.63-15.1-4.06-11.42-4.6-10.66-6-16-1.64-6-1.93-10.72-2.27-16.33-.54-8.71-.83-13.49.67-19.69,1.37-5.67,3.17-13.16,10-17.87,6-4.16,12.55-3.84,14.84-3.72,13.68.27,20.54,7.94,16.93,22.06-1.71,8.05-5.4,9-9.36,20.28A39.81,39.81,0,0,0,548,580.85c-.31,3.64.09,5.92,2.31,17,2.34,11.67,2.7,13.11,3.22,16.49a136.39,136.39,0,0,1,1.45,14.86"/><path class="cls-11" d="M552.65,617.11c-2.86-11.7-5-19.92-6.85-26.11a32,32,0,0,1-1.39-7.63A35.35,35.35,0,0,1,547,568.84c.49-1.33.48-1.13,6.4-12.92,2.38-4.74,3.57-7.17,3.84-9.95a16.62,16.62,0,0,0-1.71-9.51c-3-5.38-10.2-8.23-18-7.38l10.6-.16,7.41,2.94,5.35,6.14-.3,9.14-2.43,8-4.21,7.76-3.09,6.6-3.16,13.24,5.62,33.45v1.13Z"/><path class="cls-8" d="M531.26,612.2c0-.49,2-1,1.47-6.34a55.79,55.79,0,0,0-3.29-10.51,121.5,121.5,0,0,1-5-14.08c-3-10.81-.78-20.06-.48-23.26.46-5,1.92-12,6.68-17.18,8.1-8.91,24.36-5.67,27.44-5.73l-6.51-5.92-14.94-1-8.85,4-6.18,8.36-2.26,6.82-1.47,14.27L519,576.93l2.3,10.23,4,11.61,4.45,13.68Z"/><path class="cls-10" d="M528.38,624.32a35.55,35.55,0,0,0-.9-13.85c-1.28-4.46-3.1-8.92-4.79-13.34-1.26-3.37-3-6.6-4.08-10.09A75.25,75.25,0,0,1,515.82,569c-.28-4.76-.74-9.6-.28-14.62A45.53,45.53,0,0,1,516.9,547c1.18-4.84,3-9.82,6.36-13.68,6.38-7.31,15.76-8.54,24.88-7.08,11.2,2,16.25,10.23,14.27,21.18-.13.58-.45,2.14-.59,2.74a30.33,30.33,0,0,1-4.62,10.3,55.5,55.5,0,0,0-5.79,12.65,33.48,33.48,0,0,0-1.62,6.62,22.47,22.47,0,0,0,.05,6.7c.67,4.61,1.68,9.34,2.5,14l1.27,7.06a107.72,107.72,0,0,1,1.77,21.59l-.91,0q-.74-7.11-2-14.13c-1.36-6.95-3.18-14-4.58-21a67.3,67.3,0,0,1-1.71-10.92c-.07-6.35,2.13-12.21,4.48-18,1.73-4.38,5-8.34,6.61-12.59,3.47-10.44,2.65-20.27-9.77-22.49-10.6-1.65-20.27.76-24.83,11.35a52,52,0,0,0-3.45,13.29,90.59,90.59,0,0,0,.14,14c.35,7.1.94,14,3.6,20.54a141.78,141.78,0,0,1,5,13.55,65.12,65.12,0,0,1,1.92,7,31.37,31.37,0,0,1-.54,14.62l-1-.19Z"/><path class="cls-10" d="M540.05,608.21A121.69,121.69,0,0,1,533,550a6.35,6.35,0,1,1,12.62,1.49,119.67,119.67,0,0,0-4.65,28,116.68,116.68,0,0,0,2.25,27.81,1.65,1.65,0,0,1-3.15.92Z"/><path class="cls-7" d="M543.71,820.83c-4-18.36-18.27-36.48-20.89-39.08-35.16-34.94-34-96.52-33.78-105.52.54-27.5,9-39.08,12.84-43.55,18.07-21.06,44.76-19.79,57.51-14.24,9,3.47,17.19,9.56,29.86,26.8,18.64,25.33,32.31,43.92,35.18,72.58,2.62,26.2-5.25,46.25-10.33,59.18-13.19,33.57-39,59.19-52.32,70.19"/><path class="cls-7" d="M543.72,820.83c-4-18.36-18.28-36.48-20.9-39.08-35.16-34.94-34-96.52-33.77-105.52.53-27.5,9-39.08,12.84-43.55,18.06-21.06,44.75-19.79,57.5-14.24,9,3.47,17.19,9.56,29.87,26.8,18.63,25.33,32.31,43.92,35.17,72.58,2.63,26.2-5.25,46.25-10.32,59.18-13.19,33.57-39,59.19-52.32,70.19"/><path class="cls-8" d="M519.72,623.93s-22.5,12.76-22.5,69.85c.58,21.59,1.3,45.56,19.56,80.17,0,0-17.52-21.76-21.46-45.85s-5.56-30-5.56-30V667.79l4.69-19.86,6.42-13.28,10.51-10.51Z"/><path class="cls-10" d="M561.78,849.33a2.15,2.15,0,0,1-1.36-3.8c8.49-7,37.33-32.76,51.68-69.31,5.08-12.94,12.76-32.5,10.19-58.19-2.8-28.07-16.21-46.29-34.76-71.52-12.77-17.36-20.53-22.85-28.91-26.07l-.09,0c-12.19-5.31-37.9-6.29-55,13.67-7.81,9.13-12,23.33-12.33,42.19-.41,20.94,2,73,33.15,104,2.14,2.13,17.29,20.69,21.48,40.16a2.15,2.15,0,1,1-4.2.9c-3.91-18.18-18.38-36.1-20.3-38-32.33-32.12-34.84-85.59-34.42-107.09.39-19.87,4.89-35,13.36-44.89,18.74-21.85,46.1-20.84,60-14.83,8.83,3.4,17.46,9.39,30.78,27.51,19,25.78,32.66,44.4,35.58,73.64,2.67,26.72-5.23,46.85-10.47,60.17-14.73,37.52-44.25,63.87-52.94,71.06A2.15,2.15,0,0,1,561.78,849.33Z"/><path class="cls-7" d="M565.21,651.34c7,25.86,22.69,39.65,36,41,9.33.95,17.72,2.67,17.72,2.67,7.14.05,8.73-1.17,12.85-.53,10.13,1.55,16.53,11.4,18.8,14.89,11.64,17.91,4.64,38.54,4.29,39.52-5.27,14.72-17.25,23-37.72,26.46-23.74,28.59-68.62-11.73-75.89-29.17a26.76,26.76,0,0,1,.52-22.24C565.28,722.29,576.34,685.63,565.21,651.34Z"/><path class="cls-11" d="M563.92,775.9s18.93-20.84,50.66-.43l-3.45,3.73C594.92,770.38,579.19,769.35,563.92,775.9Z"/><path class="cls-8" d="M546.9,617.47c14.82,11.14,56.05,63.09,81.47,83.45,20.12,13.94,27.33,33.82,17.93,60.91,0,0,19.49-7.89,5.59-50.93,0,0-14.94-6.24-34.06-13.72-1.4-13.57-10.92-29.36-26.14-46.72C587.82,646.91,569.25,617.05,546.9,617.47Z"/><g id="right_EYE" data-name="right EYE"><path class="cls-7" d="M571,654c2.18-4.89,8.09-10.19,16.8-7.05,3.23,1.35,4.88,3.7,7.15,6.94a33.86,33.86,0,0,1,4.68,10c1.38,4.77,2.45,8.49,1,12.81a13.54,13.54,0,0,1-6.11,7.68C582.26,691.69,565.45,667.1,571,654Z"/><path class="cls-10" d="M589.78,687.65c-3.48,0-7.19-1.57-10.71-4.65-7.93-6.92-13.77-20.54-9.85-29.8l0,0c2.78-6.24,10-11.43,19.24-8.1l.1,0c3.74,1.57,5.62,4.24,8,7.62a36.2,36.2,0,0,1,5,10.61c1.4,4.87,2.61,9.07,1,14a15.42,15.42,0,0,1-7,8.78A11.22,11.22,0,0,1,589.78,687.65Zm-17-32.91c-3.2,7.59,2.08,19.43,8.83,25.32,2.47,2.16,7.31,5.38,11.92,2.64l.07-.05a11.54,11.54,0,0,0,5.19-6.58c1.23-3.74.28-7.05-1-11.64a32.52,32.52,0,0,0-4.41-9.46c-2.15-3.07-3.58-5.1-6.26-6.24C579.21,645.91,574.41,651.17,572.81,654.74Z"/><path d="M572.45,659.17a11.59,11.59,0,0,1,5.46-5.63,11.4,11.4,0,0,1,8.7-.22c2.72,1.11,4.1,3.06,6,5.73a27.87,27.87,0,0,1,3.94,8.3c1.15,3.94,2.05,7,.84,10.6a11.3,11.3,0,0,1-5.15,6.36,10.92,10.92,0,0,1-4.58,1.13C579.33,685.39,568.09,668.85,572.45,659.17Z"/><path class="cls-7" d="M584.24,658.88a6.43,6.43,0,0,0-.56,4.35c1.06,8.46,4.73,13.57,6.4,14,4.79,1.1,5.73-3.47,5.59-7.41a16.54,16.54,0,0,0-4.06-11C588.88,655.48,586,656.26,584.24,658.88Z"/><path class="cls-10" d="M588.32,687.06c-.22,0-.44,0-.66,0-5.29,0-10.42-5.1-13.46-9.84-3.31-5.16-5.91-12.8-3.23-18.73h0a13.27,13.27,0,0,1,6.24-6.44,13,13,0,0,1,10-.25c3.15,1.29,4.73,3.5,6.72,6.29a29.77,29.77,0,0,1,4.18,8.8c1.17,4,2.19,7.51.82,11.57a11.82,11.82,0,0,1-10.63,8.59Zm-14.38-27.22c-2.14,4.74.15,11.19,3,15.63,3.19,5,7.5,8.32,10.73,8.34a8.54,8.54,0,0,0,8.18-6.39c1-3.08.24-5.82-.86-9.61a26.69,26.69,0,0,0-3.7-7.81c-1.83-2.55-3-4.24-5.31-5.18a9.8,9.8,0,0,0-7.39.19,9.92,9.92,0,0,0-4.66,4.83Z"/></g><path class="cls-10" d="M570.89,656.54c1.25,6,22.72.13,21.5-6.76l-4.95-3.93-6.05-.64-8.18,4.55Z"/><path class="cls-11" d="M561.1,773.58s23.66-32.34,78.19-9.12c0,0,10.3-10-2.19-44.9-6.13-10.37,5,29.29,2.41,38.76C595.09,742.25,567.45,754.27,561.1,773.58Z"/><path id="jou" class="cls-11" d="M564,650.91s9.53,39.77,42.38,46.27v7.48C578.84,700.27,560,675.57,564,650.91Z"/><path class="cls-10" d="M610.79,782.85l-1.31-.64c-19.17-9.4-30-12.53-45.93-.71a2.15,2.15,0,0,1-2.55-3.45c18-13.33,31.29-9,49.09-.31,5.67-4.71,12.26-6.82,18.64-8.87,8.59-2.76,16.7-5.36,21.35-14.21,5.51-10.48,7-20.8,4.42-30.65-.06-.24-.13-.51-.2-.82-1-3.9-3.25-13-10.79-20.06-2-1.83-6.06-5.64-12.06-6.52a65.61,65.61,0,0,0-9.11.17c-7.66.43-17.18,1-23.33-.82-14.1-3.87-31.08-17.76-36.38-45.09a2.14,2.14,0,1,1,4.21-.82c4.93,25.41,20.45,38.24,33.34,41.78,5.47,1.58,15,1,21.92.67,4.46-.25,8-.44,10-.13,7.31,1.07,12.24,5.66,14.34,7.62,8.47,7.9,11.06,18.26,12,22.16.07.3.13.55.19.77,2.86,10.92,1.25,22.28-4.77,33.74C648.41,767.05,639.07,770.05,630,773c-6.36,2-12.95,4.16-18.17,8.92Z"/><path class="cls-10" d="M561.72,778.93a2.17,2.17,0,0,1-.92-.21,2.14,2.14,0,0,1-1-2.86c5.24-11,15.52-18.25,29.73-21,19.21-3.76,40.16,1.77,49.86,9.31,2.74-2.95,4-9.6,3.41-18-1.26-16.66-9.73-36.67-23.5-42.66l-.25-.13A46.47,46.47,0,0,0,603,697.53l-.3-.07-1.13-.37C592,694,576,688.86,563.19,652a2.14,2.14,0,0,1,4-1.4C579.31,685.43,593.48,690,602.86,693l1,.32a50.73,50.73,0,0,1,17.27,6.28c15.25,6.74,24.59,28.33,25.93,46.22.86,11.41-1.53,19.76-6.55,22.92l-2.59-.24c-8.19-7.46-29.27-13-47.58-9.47-8.94,1.75-20.82,6.41-26.68,18.67A2.15,2.15,0,0,1,561.72,778.93Z"/><path class="cls-11" d="M595.68,702.47s-3.48,5.15-2.93,17.74,10.66,10.86,10.66,10.86,14.49-2.16,24.6,2.5,10.93-5.29,10.93-5.29"/><path d="M595.24,700.78c4.35-13.26,15.7-19.66,16.48-20.08,11.28-6.13,22-3.77,25.7-3,4,.88,8.91,2,13.14,6.33a20.53,20.53,0,0,1,5.71,11.48c.62,4.67-.69,8.09-2.41,12.59-2.33,6.09-5.26,9.53-10.42,15.59-3.65,4.3-5.86,6.07-8.53,6.11a8.18,8.18,0,0,1-4.18-1.34c-9-4.76-22-4.44-25.74-4.35-2.41.05-4.46.26-6.51-1-.52-.34-2.86-1.94-4.12-7.34A28,28,0,0,1,595.24,700.78Z"/><path class="cls-12" d="M506.34,661.14c8.8-16.51,30.37-24,43.48-13.32,3.18,2.43,5.1,5.51,8.79,11.58a83.55,83.55,0,0,1,7.68,14.87c1.86,4.87,2.94,7.78,3,12-.15,8-1.82,14.64-14.06,20.21-11.59,5.7-24.17,7.2-34.12,3-9.14-3.86-16.05-12.53-17.91-27.18C502.69,678.62,501.7,670,506.34,661.14Z"/><path class="cls-7" d="M533.78,697.75c-13.1-3.25-21.3-26.81-8.24-39.63,8-7.42,17.47-5.08,23.65,2.65,4.95,5.69,5.58,12.17,6,16.41.54,5.65,1,10.82-2.34,15s-9,5.15-11.49,5.57A19,19,0,0,1,533.78,697.75Z"/><path class="cls-10" d="M537.17,700.27a16.88,16.88,0,0,1-3.88-.43h0c-6.93-1.72-13-8.55-15.39-17.4-2.67-9.77-.36-19.43,6.16-25.84,4-3.69,8.53-5.42,13.17-5.08,5,.38,9.86,3.18,13.64,7.89,5.38,6.2,6.06,13.32,6.47,17.57.56,5.75,1.13,11.7-2.8,16.53s-10.15,5.87-12.8,6.32A26.28,26.28,0,0,1,537.17,700.27Zm-2.89-4.6a16.92,16.92,0,0,0,6.71-.08c2.36-.4,7.28-1.23,10.19-4.8s2.38-8.07,1.86-13.41c-.38-4-1-10-5.47-15.2l-.06-.07c-3-3.79-6.81-6-10.63-6.32-3.43-.27-6.85,1.09-9.89,3.9-5.35,5.26-7.23,13.36-5,21.61C524,688.67,528.84,694.31,534.28,695.67Z"/><path d="M533,696.89c-10.19-2.53-16.58-20.87-6.42-30.85a12.59,12.59,0,0,1,8.32-3.52c5.24,0,8.69,4,10.09,5.59,3.85,4.43,4.34,9.47,4.66,12.77.42,4.4.81,8.42-1.82,11.64s-7,4-8.94,4.33A14.56,14.56,0,0,1,533,696.89Z"/><path class="cls-7" d="M538.6,667a6.34,6.34,0,0,0-1.3,4.18c-.43,8.52,2.3,14.19,3.87,14.86,4.53,1.92,6.24-2.42,6.79-6.33a16.46,16.46,0,0,0-2.09-11.5C543.77,664.41,540.74,664.67,538.6,667Z"/><path class="cls-10" d="M536.61,698.81a13.81,13.81,0,0,1-4.05-.3h0c-5.4-1.34-10.1-6.66-12-13.55-2.08-7.6-.29-15.12,4.79-20.11a14,14,0,0,1,9.49-4c6,0,9.88,4.48,11.35,6.16,4.21,4.84,4.74,10.39,5.06,13.71.43,4.47.88,9.1-2.18,12.86s-7.9,4.57-10,4.92A23.72,23.72,0,0,1,536.61,698.81Zm-3.27-3.55a13.14,13.14,0,0,0,5.22,0c1.84-.32,5.66-1,7.93-3.74s1.85-6.28,1.45-10.43c-.3-3.11-.75-7.81-4.26-11.84-1.3-1.49-4.35-5-8.84-5a10.66,10.66,0,0,0-7.19,3.09c-4.15,4.08-5.62,10.38-3.86,16.8C525.35,689.82,529.1,694.21,533.34,695.26Z"/><path class="cls-10" d="M521.44,662.49c11.49,5.75,21.19,4.82,29.06-3L546,653.26l-5.11-1.57-6.62.19-7,1.71-4.35,1.83A5.62,5.62,0,0,0,521.44,662.49Z"/><path class="cls-12" d="M553.74,655.08s-16.33,10.69-36.18,5.66l2.85-7.24,14.68-6Z"/><path d="M548.19,647.86c-5.61,10.48-21.45,14.51-28.66,5.15a.73.73,0,0,1,.38-1.09,104,104,0,0,0,27.83-5.08C548.15,646.71,548.41,647.43,548.19,647.86Z"/><path d="M594,640.4c-2.49,10.69-21.06,16.15-28.35,7.2a.52.52,0,0,1,.34-.84c5.3-.43,23-4.24,27.25-6.89.41-.14.85.15.76.53Z"/><path class="cls-10" d="M591.21,807.6a2.15,2.15,0,0,1-2-1.47c-.13-.38-3-8-17-5a2.15,2.15,0,1,1-.89-4.2c18-3.82,21.82,7.4,22,7.88a2.14,2.14,0,0,1-1.39,2.69A2.17,2.17,0,0,1,591.21,807.6Z"/><path class="cls-10" d="M563.12,792.9l-.23,0a2.13,2.13,0,0,1-1.9-2.36c1.5-13.92-8.39-20-8.81-20.24a2.14,2.14,0,0,1,2.17-3.7c.52.31,12.71,7.65,10.9,24.4A2.15,2.15,0,0,1,563.12,792.9Z"/><path class="cls-11" d="M566.07,807.32s19.95-4,21.65,6.28C583.34,809.85,575.6,808.07,566.07,807.32Z"/><path class="cls-7" d="M616,692.57h26.28c2.9,0,2.56-3.49,0-5.36,0,0-3.29-3.18-12.19-3.4-9,0-12.64,2.06-14.09,3.11C613.31,688.89,612.62,692.57,616,692.57Z"/><path class="cls-7" d="M628.29,696.74h-7.88c-.86,0-.65,1,0,1.61,0,0,1,1,3.66,1a8.78,8.78,0,0,0,4.22-.93C629,697.87,629.3,696.74,628.29,696.74Z"/><g id="EAR_1" data-name="EAR 1"><path class="cls-7" d="M515.22,626.85c.12-1.05-.34-2.7-1.47-6.11-1.48-4.47-3.52-7.82-8.37-14.48-7.69-10.53-8-9.59-11.14-14.63-3.53-5.73-5.27-10.47-7.34-16.16-3.23-8.82-5-13.67-5.35-20.53-.33-6.27-.76-14.55,4.79-21.49,4.92-6.14,11.78-7.81,14.18-8.39,14.2-3.91,23.63,1.9,24.24,17.58.69,8.83-2.82,10.94-3.45,23.8a42.84,42.84,0,0,0,.55,11.95c.8,3.84,1.91,6.07,7.58,16.79,6,11.33,6.8,12.7,8.38,16,1,2.22,3.19,7.17,3.94,9.13"/><path class="cls-8" d="M515.71,627.14c1.18-.32,4.58-6.29-9.7-27.63-8.91-11.09-12.9-23.94-14.44-29.38-3-9.47-5.54-19.7-1-29.93,5.88-12.22,24.15-13.77,24.15-13.77l-5.27-2.13-15.77,4.47-6.88,5.53-4,10.07.48,15,2.1,8.73,4.8,12.77L494.85,591l4.37,6,5.07,5.79,2.91,5.22,3.33,5.42,2.83,5.44Z"/><path class="cls-10" d="M514.54,626.77a11.41,11.41,0,0,0-.83-3.31,37.85,37.85,0,0,0-4.77-9.77,216.46,216.46,0,0,0-13.7-17.5c-4.77-6.06-7.75-13.35-10.3-20.41a103.81,103.81,0,0,1-4.65-14.48c-1.71-10.16-2.17-22.11,5.23-30.28,6.33-7.32,20.47-11.55,29.88-8.29,9.9,3.44,12.31,15.16,11.66,24.45-.34,3.81-1.8,7.61-2.5,11.16-1.2,6.85-1.93,14.37-.21,21.18,1.32,4.42,4,8.87,6,13.12,1.68,3.31,5,10.06,6.58,13.41a122.18,122.18,0,0,1,5.35,14.09.58.58,0,0,1-.37.73.57.57,0,0,1-.69-.28c-2.42-4.36-4.43-8.86-7-13.11-1.89-3.22-5.6-9.7-7.41-13-2.37-4.52-5.14-8.88-6.63-13.84-2-7.54-1.34-15.62-.07-23.24.89-4.6,2.59-8.6,2.39-13.2-.13-6.59-1.73-14.76-8.71-17.15-4.26-1.51-8.87-.8-13.31.35A22.76,22.76,0,0,0,488.8,534c-4.87,5.2-5.65,12.52-5.25,19.42,0,7.39,2.51,14,5,21.05s5.1,13.72,9.43,19.56c3.07,3.77,6.24,7.9,9,12,3.65,5.14,7,10.72,8.35,17a11.21,11.21,0,0,1,.53,4,.67.67,0,0,1-.77.58.68.68,0,0,1-.59-.74Z"/></g><path class="cls-10" d="M518.05,606.39a130.79,130.79,0,0,1-22.84-58.82,6.84,6.84,0,1,1,13.56-1.8,128.67,128.67,0,0,0,2.58,30.42,125.15,125.15,0,0,0,9.74,28.41,1.77,1.77,0,0,1-3,1.79Z"/><path id="tlo" class="cls-7" d="M262.08,110.1c-.85-.86-14.06-15.36-16.22-16.81,0,0,34.33-16.67,67.18-9.68,0,0-18.22-44-82.53-23,0,0-28.36-11-36.74-48.2,0,0-7.61,17.27-5.88,27.35,0,0-17.16,14.18-1.26,43.66,0,0-8.1-8.18-9.25-10.38l-4.16-8s-2.93,2.23-4.7,1.75-4,2.56-4,2.56a5.54,5.54,0,0,1-2.68,3.39,2.74,2.74,0,0,0-1.53,3.13S160,79,158.41,78.34s6.92,10,22.77,9.43l5.89.09s10.78,26.24,43.87,29.89c0,0,10.28,3.6,15.23,8.39,0,0,7.59,27.07,22.52,30.18l17,30.79s12.42-10.66,1-39.07c0,0,9.14-7.38,2.83-19.52s-20.1-13.39-20.1-13.39A25.51,25.51,0,0,1,262.08,110.1Z"/><path class="cls-13" d="M198.78,70.21S266.53,51.84,303,73.52c0,0-16.22-19.43-40-16.76-12.35.93-23.76,2.08-32.5,3.85C223.29,60.28,211.32,65.41,198.78,70.21Z"/><path d="M198.78,70.21c-10.32-19-9-58.72-5-57.8,8.38,37.24,36.74,48.2,36.74,48.2Z"/><path class="cls-14" d="M186.63,83.42s-8.1-8.18-9.25-10.38l-4.16-8s-2.93,2.23-4.7,1.75-4,2.56-4,2.56a5.54,5.54,0,0,1-2.68,3.39,2.74,2.74,0,0,0-1.53,3.13S160,79,158.41,78.34s6.92,10,22.77,9.43l5.89.09"/><path class="cls-15" d="M286.64,148s9.14-7.38,2.83-19.52-20.1-13.39-20.1-13.39a25.51,25.51,0,0,1-7.29-5l-15.91,16s7.59,27.07,22.52,30.18L286.64,148s9.14-7.38,2.83-19.52-20.1-13.39-20.1-13.39"/><path class="cls-14" d="M268.69,156.32l17,30.79s12.42-10.66,1-39.07"/><path d="M245.86,93.29S280.19,76.62,313,83.61c0,0-18.07-44-82.53-23,13.66-1.88,57-9,70.42,14.1C276.87,71.84,260.41,81.05,245.86,93.29Z"/><path d="M241.81,122.87c-.87-.53-1.75-1-2.63-1.49a69.06,69.06,0,0,0-8.24-3.63c5.49-11.52,8.63-15.26,14.92-24.46a104.39,104.39,0,0,1,8.1,8.09"/><path class="cls-7" d="M271.6,126.59c-5.93,3.08-8.63,9.62-6,14.62,6.78,11.69,27.13,1.11,21.45-11.16C284.43,125.06,277.52,123.51,271.6,126.59Z"/><ellipse cx="282.55" cy="137.23" rx="3.92" ry="2.74" transform="translate(-31.44 145.78) rotate(-27.46)"/><path class="cls-16" d="M174,73.69c-.11-.11-4.92-6.85-4.92-6.85l-2.09.22Z"/><path class="cls-16" d="M171.63,76l-7.49-5.79a4.83,4.83,0,0,1-1,1.52C162.5,72.31,171.63,76,171.63,76Z"/><path class="cls-16" d="M160.53,74.52a3.66,3.66,0,0,1-.17,1.39c-.21.28,10.47,5,10.47,5Z"/><path class="cls-17" d="M291,175.67c1.55-8.1-.53-18.12-4.36-27.63l-2.45,1.13A58,58,0,0,1,291,175.67Z"/><path class="cls-16" d="M277.35,152.33l-8.66,4,16.87,30.61C284.72,173.66,278.83,156.48,277.35,152.33Z"/><path class="cls-18" d="M215.73,114.09C203.86,103.54,182.66,82,185,64.26c6.33-25.81,4.64-27.8,3-32.2a26.24,26.24,0,0,0-.07,7.7s-17.16,14.18-1.26,43.66l.44,4.44A52.79,52.79,0,0,0,215.73,114.09Z"/><path class="cls-19" d="M260.57,111.62l7.8,6a29.14,29.14,0,0,1,23.31,19.73,17.79,17.79,0,0,0-2.21-8.87c-6.31-12.14-20.1-13.39-20.1-13.39a25.51,25.51,0,0,1-7.29-5Z"/><path class="cls-20" d="M248.78,123.5l-2.61,2.64s7.59,27.07,22.52,30.18l.46-.21C255.63,146.61,249.24,125.09,248.78,123.5Z"/><path class="cls-16" d="M187.07,87.86l-.13-1.12C172.57,86.9,164,79.93,160.22,76c-.06.64-.39,2.84-1.82,2.33-1.59-.57,7.41,10.12,22.84,9.44Z"/><path id="tlo-2" data-name="tlo" class="cls-7" d="M194.52,422.38c-1.16-.35-19.71-6.71-22.3-6.94,0,0,22.08-31.13,54.24-40.8,0,0-37.16-29.85-83.42,19.53,0,0-30.14,4-55.39-24.59,0,0,1.63,18.81,8,26.81,0,0-8.23,20.69,19.89,38.88,0,0-11-3.27-13.1-4.65l-7.5-5s-1.5,3.36-3.28,3.79-2.31,4.2-2.31,4.2a5.51,5.51,0,0,1-.73,4.25,2.76,2.76,0,0,0,.17,3.48s1.32,2.88-.44,3.07,10.86,5.4,24.51-2.69l5.21-2.75s22.06,17.82,52.84,5.11c0,0,10.74-1.79,17.38,0,0,0,19.67,20.09,34.26,15.63l29.68,18.83s5.77-15.32-17.92-34.73c0,0,4.46-10.86-6.92-18.47s-24.06-2.07-24.06-2.07A25.73,25.73,0,0,1,194.52,422.38Z"/><path class="cls-13" d="M119.84,417.85s50.56-48.69,93-47.24c0,0-23.57-9.24-43.16,4.56-10.38,6.75-19.82,13.24-26.64,19C136.55,397.35,128.53,407.61,119.84,417.85Z"/><path d="M119.84,417.85c-18.18-11.69-36.11-47.17-32.19-48.27C112.9,398.2,143,394.17,143,394.17Z"/><path class="cls-14" d="M115.54,435.27s-11-3.27-13.1-4.65l-7.5-5s-1.5,3.36-3.28,3.79-2.31,4.2-2.31,4.2a5.51,5.51,0,0,1-.73,4.25,2.76,2.76,0,0,0,.17,3.48s1.32,2.88-.44,3.07,10.86,5.4,24.51-2.69l5.21-2.75"/><path class="cls-15" d="M234.31,443.82s4.46-10.86-6.92-18.47-24.06-2.07-24.06-2.07a25.73,25.73,0,0,1-8.81-.9l-6.23,21.71s19.67,20.09,34.26,15.63l11.76-15.9s4.46-10.86-6.92-18.47-24.06-2.07-24.06-2.07"/><path class="cls-14" d="M222.55,459.72l29.68,18.83s5.77-15.32-17.92-34.73"/><path d="M172.22,415.44s22.08-31.13,54.24-40.8c0,0-37-29.92-83.42,19.53,11.07-8.22,45.68-35.33,68.53-21.51C189.09,381.72,179.09,397.71,172.22,415.44Z"/><path d="M182.89,443.32c-1-.05-2-.06-3,0a68.1,68.1,0,0,0-9,.78c-.74-12.75.22-17.53,1.31-28.62a104.43,104.43,0,0,1,11,3.2"/><path class="cls-7" d="M210.8,432.26c-3.71,5.55-2.93,12.58,1.74,15.71,11.57,7,24.33-12.08,13.45-20.1C221.31,424.74,214.51,426.71,210.8,432.26Z"/><ellipse cx="225.51" cy="436.31" rx="3.92" ry="2.74" transform="translate(-262.52 381.1) rotate(-56.21)"/><path class="cls-16" d="M99.77,432.83c-.15-.05-7.61-3.64-7.61-3.64l-1.72,1.2Z"/><path class="cls-16" d="M98.83,436l-9.35-1.47a4.76,4.76,0,0,1-.16,1.82C89,437.13,98.83,436,98.83,436Z"/><path class="cls-16" d="M88.38,440s.58,1,.52,1.3,11.59-.63,11.59-.63Z"/><path class="cls-17" d="M251.42,466c-2.54-7.85-9.18-15.64-17.11-22.14L232.7,446A58,58,0,0,1,251.42,466Z"/><path class="cls-16" d="M228.22,452.06l-5.67,7.66,29.51,18.72C244.94,467.21,231.51,455,228.22,452.06Z"/><path class="cls-18" d="M155.8,448.16c-15.48-3.54-44.44-12.26-50.94-28.89C98,393.6,95.56,392.68,92,389.6a26.11,26.11,0,0,0,3.64,6.79s-8.23,20.69,19.89,38.88l2.53,3.68A52.69,52.69,0,0,0,155.8,448.16Z"/><path class="cls-19" d="M193.93,424.44l9.74,1.54a29.16,29.16,0,0,1,29.93,6.09,17.69,17.69,0,0,0-6.21-6.72c-11.37-7.61-24.06-2.07-24.06-2.07a25.73,25.73,0,0,1-8.81-.9Z"/><path class="cls-20" d="M189.31,440.52l-1,3.57s19.67,20.09,34.26,15.63l.3-.41C206.43,457.49,190.47,441.69,189.31,440.52Z"/><path class="cls-16" d="M118.07,439l-.66-.91c-12.52,7-23.38,5-28.59,3.43.25.59,1,2.68-.48,2.92-1.67.27,11.37,5.3,24.57-2.71Z"/><path id="tlo-3" data-name="tlo" class="cls-7" d="M1646,124.18c1.14-.42,19.24-8,21.81-8.36,0,0-24-29.64-56.77-37.2,0,0,35.15-32.2,84.51,14.09,0,0,30.34,2.07,53.69-28.13,0,0-.42,18.88-6.26,27.27,0,0,9.55,20.12-17.33,40.09,0,0,10.8-4,12.78-5.49l7.15-5.49s1.72,3.26,3.52,3.57,2.58,4,2.58,4a5.52,5.52,0,0,0,1,4.19,2.76,2.76,0,0,1,.06,3.49s-1.13,2.95.63,3-10.49,6.08-24.62-1.1l-5.38-2.41s-20.87,19.21-52.4,8.51c0,0-10.83-1.09-17.34,1.16,0,0-18.34,21.32-33.18,17.81L1592,184s-6.75-14.91,15.64-35.81c0,0-5.16-10.55,5.7-18.88s23.88-3.62,23.88-3.62A25.69,25.69,0,0,0,1646,124.18Z"/><path class="cls-13" d="M1720.21,114.83s-53.6-45.32-95.85-41.12c0,0,22.92-10.74,43.35,1.75,10.8,6.07,20.65,11.94,27.82,17.25C1702.21,95.46,1710.88,105.18,1720.21,114.83Z"/><path d="M1720.21,114.83c17.39-12.83,33-49.4,29-50.25-23.35,30.2-53.69,28.13-53.69,28.13Z"/><path class="cls-14" d="M1725.63,131.94s10.8-4,12.78-5.49l7.15-5.49s1.72,3.26,3.52,3.57,2.58,4,2.58,4a5.52,5.52,0,0,0,1,4.19,2.76,2.76,0,0,1,.06,3.49s-1.13,2.95.63,3-10.49,6.08-24.62-1.1l-5.38-2.41"/><path class="cls-15" d="M1607.67,148.16s-5.16-10.55,5.7-18.88,23.88-3.62,23.88-3.62a25.69,25.69,0,0,0,8.73-1.48l7.63,21.27s-18.34,21.32-33.18,17.81l-12.76-15.1s-5.16-10.55,5.7-18.88,23.88-3.62,23.88-3.62"/><path class="cls-14" d="M1620.43,163.26,1592,184s-6.75-14.91,15.64-35.81"/><path d="M1667.79,115.82s-24-29.64-56.77-37.2c0,0,35-32.26,84.51,14.09-11.58-7.49-47.87-32.31-69.78-17C1648.77,83.26,1659.79,98.57,1667.79,115.82Z"/><path d="M1658.94,144.33c1-.11,2-.19,3-.23a68.81,68.81,0,0,1,9,.19c-.09-12.76-1.36-17.48-3.16-28.47a104.17,104.17,0,0,0-10.76,3.9"/><path class="cls-7" d="M1630.38,135.1c4.06,5.29,3.74,12.36-.72,15.79-11.1,7.73-25.06-10.48-14.72-19.19C1619.4,128.28,1626.31,129.8,1630.38,135.1Z"/><ellipse cx="1615.96" cy="140.1" rx="2.74" ry="3.92" transform="translate(248.59 1012.6) rotate(-37.5)"/><path class="cls-16" d="M1741.21,128.48c.15,0,7.36-4.12,7.36-4.12l1.79,1.08Z"/><path class="cls-16" d="M1742.35,131.59l9.24-2.07a4.76,4.76,0,0,0,.28,1.8C1752.2,132.09,1742.35,131.59,1742.35,131.59Z"/><path class="cls-16" d="M1753,134.93s-.51,1-.43,1.33-11.61.12-11.61.12Z"/><path class="cls-17" d="M1592,171.35c2-8,8.15-16.19,15.65-23.19l1.74,2.06A58.12,58.12,0,0,0,1592,171.35Z"/><path class="cls-16" d="M1614.28,156l6.15,7.28-28.24,20.6C1598.57,172.19,1611.18,159.11,1614.28,156Z"/><path class="cls-18" d="M1686.29,147.41c15.21-4.53,43.55-15.11,49-32.13,5.2-26,7.57-27.14,10.91-30.44a26.06,26.06,0,0,1-3.2,7s9.55,20.12-17.33,40.09l-2.28,3.84A52.75,52.75,0,0,1,1686.29,147.41Z"/><path class="cls-19" d="M1646.71,126.2l-9.62,2.17a29.16,29.16,0,0,0-29.48,8,17.86,17.86,0,0,1,5.76-7.11c10.86-8.33,23.88-3.62,23.88-3.62a25.69,25.69,0,0,0,8.73-1.48Z"/><path class="cls-20" d="M1652.36,142l1.25,3.5s-18.34,21.32-33.18,17.81l-.33-.39C1636.37,160,1651.27,143.2,1652.36,142Z"/><path class="cls-16" d="M1723.35,135.78l.6-1c13,6.22,23.66,3.53,28.75,1.57-.21.62-.85,2.75.66,2.89,1.69.16-11,6-24.69-1.12Z"/><path class="cls-21" d="M1359.81,256.08s-6.78,3.45-8.4,3.72l-5.87,1s.81,2.3.15,3.31.79,3.06.79,3.06a3.7,3.7,0,0,1,1.59,2.37,1.8,1.8,0,0,0,1.66,1.59s1.94.79,1.19,1.68,7.66-2.35,10.52-12.42l1.25-3.69"/><path class="cls-7" d="M1360.66,208l5.49,18.26a76.31,76.31,0,0,0,19.8,40s-12.28-2.16-17.18-6.82c-12.72,5-48.47-9.81-27-52.26,0,0,1.8-7,1-11.44l15.45.86c.17.78,2.47,9.65,2.48,11.36"/><path d="M1386,266.3c-15.2-21.81-17.5-42-25.46-58.92l-12.06.34C1339.56,235.11,1370.37,261.4,1386,266.3Z"/><path class="cls-14" d="M1343,192.92l-23.34,4.72s.06-11.09,19.75-17.62"/><path class="cls-15" d="M1360,192.25a15.21,15.21,0,0,0-1.73,5.27l-15.35-.8s-7.57-15.42-1-22.93c4.79-6.12,21.59-6.72,23,4.16,1.06,8.25-5,14.3-5,14.3"/><path d="M1342.93,199.37c0,.67-.08,1.34-.15,2a46,46,0,0,1-1,5.86c8.34,1.21,11.55.86,18.91.78a73.13,73.13,0,0,0-1.47-7.41"/><path class="cls-7" d="M1349.82,172.52c4.52-.08,8.24,2.95,8.31,6.76-.27,9.15-15.81,9.42-16.38.28C1341.68,175.75,1345.3,172.6,1349.82,172.52Z"/><ellipse cx="1346.34" cy="178.19" rx="2.62" ry="1.8" transform="translate(1061.68 1506.11) rotate(-85.44)"/><path class="cls-16" d="M1351.18,262c-.09.05-5.33,1.64-5.33,1.64l-.3,1.35Z"/><path class="cls-23" d="M1340,210.94c-16.58,37.37,12.79,51.76,26.51,49.18C1333.64,257,1337.74,222.28,1340,210.94Z"/><path class="cls-16" d="M1352.13,264l-5.15,3.55a3.11,3.11,0,0,1,.75.94C1348,269,1352.13,264,1352.13,264Z"/><path class="cls-16" d="M1348.94,270.7s.72.2.84.39,5.28-5.57,5.28-5.57Z"/><path class="cls-14" d="M1364.23,258s-6,4.66-7.54,5.24l-5.58,2.09s1.23,2.1.77,3.22,1.36,2.86,1.36,2.86a3.63,3.63,0,0,1,2,2,1.82,1.82,0,0,0,1.94,1.25s2,.41,1.48,1.42,7.07-3.75,8-14.18l.53-3.86"/><path class="cls-16" d="M1356.88,265.54c-.09.07-4.93,2.61-4.93,2.61l0,1.39Z"/><path class="cls-16" d="M1358.19,267.28l-4.39,4.45a3.19,3.19,0,0,1,.91.79C1355,273,1358.19,267.28,1358.19,267.28Z"/><path class="cls-16" d="M1356.32,274.44a2.4,2.4,0,0,1,.9.22c.16.16,4.13-6.47,4.13-6.47Z"/><path class="cls-19" d="M1357,197.45l1.32-6s7.55-7.68,3.1-19.6a8.35,8.35,0,0,1,3.37,5c1.94,8.83-4.77,15.45-4.77,15.45a12.29,12.29,0,0,0-1.73,5.27Z"/><path class="cls-17" d="M1323.56,189.5c4.19-4.6,9.34-7.2,15.78-9.48l-.09,1.75A41.17,41.17,0,0,0,1323.56,189.5Z"/><path class="cls-16" d="M1339.78,187.21a42.09,42.09,0,0,0,1.7,6l-21.8,4.38C1326.77,192.46,1337.05,188.21,1339.78,187.21Z"/><path class="cls-20" d="M1339.46,179.47c-1.22,7.73,3.46,17.25,3.46,17.25l3,.16C1341.09,194.33,1339.8,184.76,1339.46,179.47Z"/><path class="cls-16" d="M1367.18,258.09h-.67a23.76,23.76,0,0,1-9.22,16.66c.41.1,1.86.52,1.37,1.39s7.07-3.75,8-14.18Z"/><path class="cls-21" d="M1359.45,255.25s-6.78,3.45-8.4,3.72l-5.87,1s.8,2.3.14,3.31.8,3.06.8,3.06a3.66,3.66,0,0,1,1.59,2.37,1.8,1.8,0,0,0,1.66,1.59s1.94.78,1.19,1.68,7.65-2.35,10.52-12.42l1.25-3.69"/><path class="cls-7" d="M1360.3,207.17l5.49,18.26a76.31,76.31,0,0,0,19.8,40s-12.28-2.17-17.18-6.82c-12.73,5-48.47-9.81-27-52.27,0,0,1.8-7,1-11.43l15.45.85c.17.79,2.47,9.66,2.48,11.37"/><path d="M1385.59,265.47c-15.2-21.81-17.5-42-25.46-58.93l-12.06.35C1339.2,234.28,1370,260.57,1385.59,265.47Z"/><path class="cls-14" d="M1342.66,192.09l-23.34,4.72s.06-11.09,19.75-17.62"/><path class="cls-15" d="M1359.64,191.42a15.21,15.21,0,0,0-1.73,5.27l-15.35-.8s-7.57-15.42-1-22.93c4.79-6.13,21.59-6.72,23,4.15,1.06,8.26-5,14.31-5,14.31"/><path d="M1342.57,198.54c0,.67-.08,1.34-.15,2a45.58,45.58,0,0,1-1,5.85c8.34,1.22,11.55.87,18.91.79a71.8,71.8,0,0,0-1.48-7.42"/><path class="cls-7" d="M1349.46,171.69c4.52-.08,8.24,2.95,8.31,6.76-.27,9.15-15.81,9.42-16.38.28C1341.32,174.92,1344.94,171.77,1349.46,171.69Z"/><ellipse cx="1345.98" cy="177.36" rx="2.62" ry="1.8" transform="translate(1062.18 1504.98) rotate(-85.44)"/><path class="cls-16" d="M1350.82,261.16c-.1,0-5.33,1.64-5.33,1.64l-.3,1.35Z"/><path class="cls-23" d="M1339.62,210.11c-16.58,37.37,12.78,51.76,26.51,49.18C1333.28,256.15,1337.38,221.45,1339.62,210.11Z"/><path class="cls-16" d="M1351.77,263.19l-5.15,3.55a3.11,3.11,0,0,1,.75.94C1347.59,268.18,1351.77,263.19,1351.77,263.19Z"/><path class="cls-16" d="M1348.58,269.87a2.52,2.52,0,0,1,.84.38c.13.19,5.27-5.56,5.27-5.56Z"/><path class="cls-14" d="M1363.87,257.2s-6,4.66-7.54,5.24l-5.58,2.09s1.22,2.1.77,3.22,1.36,2.85,1.36,2.85a3.67,3.67,0,0,1,2,2,1.81,1.81,0,0,0,1.93,1.25s2.06.4,1.49,1.42,7.07-3.75,8-14.18l.53-3.86"/><path class="cls-16" d="M1356.51,264.71c-.08.07-4.92,2.61-4.92,2.61l0,1.38Z"/><path class="cls-16" d="M1357.83,266.45l-4.39,4.45a3,3,0,0,1,.91.79C1354.66,272.14,1357.83,266.45,1357.83,266.45Z"/><path class="cls-16" d="M1356,273.6a2.61,2.61,0,0,1,.9.22c.16.16,4.12-6.46,4.12-6.46Z"/><path class="cls-19" d="M1356.62,196.62l1.32-6s7.55-7.68,3.1-19.6a8.32,8.32,0,0,1,3.37,5c1.94,8.83-4.77,15.45-4.77,15.45a12.14,12.14,0,0,0-1.73,5.27Z"/><path class="cls-17" d="M1323.2,188.67c4.19-4.61,9.34-7.2,15.78-9.48l-.09,1.75A41,41,0,0,0,1323.2,188.67Z"/><path class="cls-16" d="M1339.42,186.38a42.09,42.09,0,0,0,1.7,6.05l-21.8,4.38C1326.4,191.63,1336.69,187.38,1339.42,186.38Z"/><path class="cls-20" d="M1339.1,178.64c-1.22,7.73,3.46,17.25,3.46,17.25l3,.16C1340.73,193.5,1339.44,183.93,1339.1,178.64Z"/><path class="cls-16" d="M1366.82,257.26h-.67a23.73,23.73,0,0,1-9.23,16.66c.42.1,1.87.52,1.38,1.39s7.07-3.75,8-14.18Z"/><path class="cls-7" d="M62.15,827.73A189.77,189.77,0,0,1,95,802.45l-4.82-11.31-4.4-6.54-17.1,9.62c-9.14,6.2-17.57-6.18-8-12.76,32.17-29.29,88-51.13,161.85-67.29l40-5.84c15.28-1.65,17.28,16.88,2,18.53l-30.69,2.5s1.39,17.19,1.2,20.21h0l24.76-4.74c14.82-2.24,16.11,16.92,1.28,19.16l-29.74,3.65c-70.44,9.88-161.86,73.05-161.86,73.05C60.13,848,52.63,835.22,62.15,827.73Z"/><path class="cls-8" d="M153.17,795.14a5.6,5.6,0,0,1-3.23-2.88c-2.31-5.47,7-14.61,20.75-20.43s26.81-6.11,29.12-.64c.72,1.71.31,3.79-1,6A373.23,373.23,0,0,0,153.17,795.14Z"/><path class="cls-24" d="M62.23,842.6c73.19-72.38,190.09-83.36,208.15-84.64-1.54,2.9-4.62,5.32-9.33,6l-29.74,3.65c-70.44,9.88-161.86,73.05-161.86,73.05C66.77,842.78,64.25,843.22,62.23,842.6Z"/><path class="cls-24" d="M68.64,794.22c-3.19,2.17-6.29,2.06-8.57.73A181.57,181.57,0,0,1,86.61,781.5l-4.79,5.3Z"/><path class="cls-24" d="M264.5,726.86l-28.64,2.33-4.3-1.75c14-4.11,32-5,41.8-5.12C271.71,724.61,268.78,726.4,264.5,726.86Z"/><path class="cls-10" d="M272.76,757.81l.06-.14a11.18,11.18,0,0,0-1.48-11c-1.51-1.88-5-4.9-11.89-3.86l-22.37,4.28c-.16-4.34-.73-12-1-15.78l28.62-2.33a14.63,14.63,0,0,0,9.68-4.52,10.66,10.66,0,0,0-1.7-15.81,14.63,14.63,0,0,0-10.37-2.35L222,712.13c-78.16,17.09-131.39,39.24-162.71,67.69-5.76,4-6.06,10.15-3.35,14.11s8.19,5.79,13.76,2.07l16.69-9.24L93,801.06a198.56,198.56,0,0,0-32.27,25.1c-5.94,4.74-6.27,11.68-3.14,15.68,2.59,3.3,7.63,4.74,13.06.54,2.49-1.71,92.39-63.06,160.91-72.67l29.71-3.65C266.82,765.23,271,762.23,272.76,757.81Zm-41.2-30.37.17,2.08c.38,4.74,1.35,17.56,1.2,19.92l-.18,2.69,27.41-5.25c3.44-.52,6.29.31,7.92,2.36a7,7,0,0,1,.85,6.9c-1.18,3.07-4.19,5.18-8.19,5.78l-29.69,3.65C160.9,775.41,69.18,838.34,68.27,839l-.1.07c-2.84,2.21-5.62,2.29-7.25.21-1.86-2.37-1.61-6.64,2.53-9.89l.17-.16a187.94,187.94,0,0,1,32.45-25l1.52-1L87.59,781,67.47,792.5c-3.5,2.37-6.56,1.24-8-.92s-1.43-5.77,2.38-8.4L62,783c30.31-27.6,84.42-50.07,160.82-66.78l39.95-5.83c6.37-.69,9.71,2.72,10.08,6.18a6.51,6.51,0,0,1-1.66,5.07,10.56,10.56,0,0,1-7,3.14Z"/><path class="cls-7" d="M92.9,799.69c-8.09,7.41-18-7.45-5.49-11.31"/><path class="cls-8" d="M87.8,789c-10.18,3.68-3.2,10.33-3.2,10.33-4.22-6.17,3.86-9,3.86-9Z"/><path class="cls-10" d="M84.18,788.45a13.24,13.24,0,0,1,2.87-1.27,1.25,1.25,0,0,1,.73,2.39c-3.07.95-4.85,2.71-5,4.95A5.85,5.85,0,0,0,86,800c2,1,4.12.54,6-1.21a1.25,1.25,0,0,1,1.69,1.84c-2.67,2.45-5.88,3-8.8,1.62a8.34,8.34,0,0,1-4.67-7.9A7.51,7.51,0,0,1,84.18,788.45Z"/><path class="cls-7" d="M171.28,713a22,22,0,0,0-3.39-3.69c-2.07-1.79-4.08-2.86-8.48-4.73-7-3-6.85-2.4-9.9-4a47.29,47.29,0,0,1-8.47-5.87c-4.23-3.44-6.55-5.33-8.77-8.64-2-3-4.7-7-4-12.14a14.64,14.64,0,0,1,4.56-8.4c5.92-6.17,12.35-6.08,17.31,1.55,3,4.2,1.85,6.3,5.36,12.89a25.11,25.11,0,0,0,3.83,5.8c1.54,1.68,2.76,2.46,8.77,6.11,6.36,3.86,7.17,4.31,8.94,5.5A81.12,81.12,0,0,1,184.5,703"/><path class="cls-11" d="M178,699c-6.58-3.64-11.29-6.11-14.9-7.9a20.14,20.14,0,0,1-4.1-2.59,22.12,22.12,0,0,1-5.59-7.33c-.41-.78-.32-.69-3.23-8.41-1.18-3.1-1.79-4.67-2.95-6a10.36,10.36,0,0,0-5.1-3.24c-3.76-.88-8.09,1.2-11,5.14l4.42-4.93,4.49-2.17,5.09.14,4.07,4,2.63,4.49,1.79,5.22,1.73,4.21,4.74,7.06,17.76,11.57.52.48Z"/><path class="cls-8" d="M166.68,706.72c-.23-.2.38-1.38-2.29-3.36a33.32,33.32,0,0,0-6.22-2.94,76.75,76.75,0,0,1-8.58-3.68c-6.23-3.2-9.54-8.13-10.89-9.62-2.11-2.34-4.68-6-5.07-10.35-.66-7.49,7.71-13.6,9-15l-5.47.49-6.78,6.45-1.89,5.78,1.23,6.38,2.18,3.92,5.93,6.72,7.48,5.94,5.67,3.27,7,3.06,8.17,3.75Z"/><path class="cls-10" d="M171,713.17a22,22,0,0,0-6.75-5.45c-2.58-1.3-5.4-2.35-8.15-3.44-2.08-.85-4.31-1.41-6.36-2.4a46.76,46.76,0,0,1-9.49-6.37,58.45,58.45,0,0,1-6.84-6.06,27.14,27.14,0,0,1-2.79-3.72,19.68,19.68,0,0,1-3.6-8.71c-.66-6,2.75-10.86,7.28-14.44,5.64-4.32,11.58-3.14,15.77,2.41.21.3.8,1.11,1,1.43a18.92,18.92,0,0,1,2.78,6.48,34.62,34.62,0,0,0,3.37,8,20.61,20.61,0,0,0,2.35,3.55,14.14,14.14,0,0,0,3.11,2.81c2.4,1.64,5,3.18,7.5,4.79l3.79,2.41a67.07,67.07,0,0,1,10.67,8.32l-.37.44q-3.57-2.68-7.35-5.06c-3.77-2.31-7.77-4.45-11.58-6.77a41.91,41.91,0,0,1-5.74-3.84c-2.95-2.66-4.72-6.15-6.38-9.68-1.29-2.65-1.72-5.83-3-8.37-3.33-6-8.2-9.79-14.48-5-5.24,4.17-8.22,9.63-5.29,16.22a33,33,0,0,0,4.65,7.21,57.86,57.86,0,0,0,6.52,5.88c3.41,2.84,6.83,5.48,11,7a85.23,85.23,0,0,1,8.36,3.42,39.92,39.92,0,0,1,4,2.1,19.59,19.59,0,0,1,6.49,6.44l-.5.36Z"/><path class="cls-10" d="M168.57,701a76,76,0,0,1-29.74-21.38,4,4,0,1,1,6-5.16,74.43,74.43,0,0,0,10.89,14,72.47,72.47,0,0,0,13.73,10.74,1,1,0,0,1-.91,1.83Z"/><path class="cls-7" d="M198.57,689.36c16.24.81,24.4,12.08,24.49,25.22q-1,19.47-14.38,31.65c-13,13.56-52-.38-49.52-25.4C160.42,709.25,166.83,688.17,198.57,689.36Z"/><path class="cls-8" d="M218.19,700.18c-11.87-20.27-50.55-10.21-50.28,3.49,1.06-1.24,27.23-22.95,50-3.25"/><path class="cls-11" d="M221.58,715.29s-7.94,26.56-25.29,31.34-36-19-36-19,1.72,21,32.34,22.67S221.58,715.29,221.58,715.29Z"/><path class="cls-10" d="M177.07,749.1c-10.24-4.7-20.7-14.63-19.35-28.43,1.39-12.75,8.55-34,40.91-32.75h0c15.61.78,25.77,11.24,25.87,26.65v.08c-.69,13.3-5.69,24.28-14.81,32.62l-.52.51C202.42,754.17,189.37,754.74,177.07,749.1Zm30.64-3.94c8.56-7.81,13.24-18.1,13.91-30.62-.12-13.72-9.18-23-23.11-23.73-30-1.13-36.63,18.42-37.91,30.16-1.2,12.27,8.34,21.22,17.68,25.5,11.35,5.21,23.69,4.7,29.36-1.24l0,0Z"/><ellipse cx="201.58" cy="698.68" rx="2.54" ry="2.68" transform="translate(-424.73 329.18) rotate(-43.37)"/><ellipse cx="200.04" cy="709.97" rx="2.68" ry="1.86" transform="translate(-528.89 597.12) rotate(-65.46)"/><ellipse cx="185.84" cy="724.65" rx="3.05" ry="3.22" transform="translate(-544.49 562.56) rotate(-63.1)"/><path d="M203,715.16a.57.57,0,0,0,.12-.18,3.88,3.88,0,0,0-.24-3.78,2.85,2.85,0,0,0,.92-.25,4.36,4.36,0,0,0,2-2.69.48.48,0,0,0-.9-.32,3.48,3.48,0,0,1-1.53,2.13,2.22,2.22,0,0,1-1.77,0l-.38.89c.08,0,2,1.07,1,3.69a.48.48,0,0,0,.27.63A.5.5,0,0,0,203,715.16Z"/><g id="EAR_1-2" data-name="EAR 1"><path class="cls-7" d="M166.19,719c-.42-.49-1.36-1-3.35-1.86-2.62-1.19-5-1.66-10-2.23-7.9-.91-7.62-.37-11.17-1a49.48,49.48,0,0,1-10.29-3.38c-5.29-2.2-8.2-3.41-11.42-6.09-3-2.44-6.84-5.67-7.66-11a15.35,15.35,0,0,1,2.09-9.83c4.11-8,10.62-9.83,17.9-3.62,4.26,3.34,3.75,5.79,9.26,11.39a26.16,26.16,0,0,0,5.59,4.69c2.06,1.23,3.52,1.65,10.67,3.54,7.57,2,8.52,2.2,10.66,2.86,1.43.45,4.54,1.53,5.73,2"/><path class="cls-8" d="M166.52,718.9s.06-4.19-16.41-7.07A51.25,51.25,0,0,1,131,706.17c-5.5-2.57-11.13-5.65-13.86-11.91-3-7.69,3.8-16.53,3.8-16.53l-3.13,1.48-4.51,8.93-.36,5.37,2.85,6,6.93,6,4.79,2.67,7.71,3.12,6.52,2.09,4.52.54,4.69.11,3.55.86,3.81.74,3.61,1Z"/><path class="cls-10" d="M165.87,719.27a6.84,6.84,0,0,0-1.83-1,23.14,23.14,0,0,0-6.35-1.9,129.65,129.65,0,0,0-13.52-1.08c-4.69-.37-9.19-2-13.42-3.82a63.52,63.52,0,0,1-8.42-3.9c-5.27-3.43-10.82-8.16-11.43-14.86-.67-5.86,3.28-14,8.63-16.84,5.64-3,11.89.75,15.8,4.88,1.56,1.72,2.67,4,4,5.73,2.58,3.37,5.65,6.81,9.42,8.85a57.39,57.39,0,0,0,8.38,2.72c2.18.62,6.57,1.92,8.74,2.59a74.75,74.75,0,0,1,8.53,3.42.36.36,0,0,1,.18.47.35.35,0,0,1-.41.19c-3-.71-5.81-1.67-8.79-2.27-2.22-.48-6.66-1.49-8.87-2-3-.8-6.12-1.36-9-2.74-4.21-2.22-7.57-5.86-10.46-9.58-1.7-2.3-2.79-4.72-4.94-6.53-3-2.66-7.33-5.32-11.29-3.18-2.44,1.29-4,3.65-5.35,6.12a13.85,13.85,0,0,0-1.89,8c.32,4.34,3.28,7.71,6.54,10.38,3.34,3,7.34,4.68,11.54,6.44a43.66,43.66,0,0,0,12.67,3.86c3,.17,6.13.46,9.09.91a28.76,28.76,0,0,1,11.07,3.26,7.07,7.07,0,0,1,2,1.4.42.42,0,0,1-.64.55Z"/></g><path class="cls-10" d="M158.18,709.28a79.83,79.83,0,0,1-35.84-14.07,4.17,4.17,0,1,1,4.79-6.83,78.66,78.66,0,0,0,14.72,11.42,76.61,76.61,0,0,0,16.78,7.37,1.08,1.08,0,0,1-.45,2.11Z"/><ellipse class="cls-7" cx="201.95" cy="697.87" rx="0.76" ry="1.16" transform="translate(-511.79 562.27) rotate(-63.1)"/><ellipse class="cls-7" cx="186.38" cy="723.23" rx="0.76" ry="1.16" transform="translate(-542.92 562.27) rotate(-63.1)"/><path class="cls-7" d="M1496,891.83l65.79-26.35s12.06,4.59,20.13,13.38,7.76,19.1,7.76,22.78a100,100,0,0,1-3.37,23.5c-2.86,11.13-18.49,15.63-18.49,15.63s-6.23.61-15.53,1.43-8.58-5.72-8.58-5.72-8.79,2.65-15.43,2.65a14.53,14.53,0,0,1-10.32-4.08s.21,1.63-9.7.92-3.78-11.65-3.78-11.65c-9.09-8.17-8.48-32.49-8.48-32.49"/><path class="cls-11" d="M1497.78,894.61s2,21.47,8.78,27.55c.88.68.91,2.14,0,4.44,0,0-1.83,3.8-.92,5.06.33.58,1.13,1.65,1.79,1.65,0,0,8.74,0,9.92-.63,0,0-.29,2.22-.37,2.25s-10.5-.28-10.5-.28l-2.59-1.79c-.07-.05-.07-6-.07-6l.35-3-4.42-7.9-2.42-9.85-.19-11.84Z"/><path class="cls-11" d="M1520.62,927.9l-.33,5.5c4,4.12,11.93,3.69,22.25.48v1.6s-19.61,7-23.73-1.4l.43-6.71Z"/><path class="cls-11" d="M1556.27,906.79c-12.06,9.49-4.63,17.57,0,21.41,1.32,1,1.42,2.88,0,4.29-.79.84-7.68-.9-9.2,1.54a3.56,3.56,0,0,0,.68,4.54c.83,1,23,3.7,37.46-14.26,0,0-3.18,15.16-23.83,16.35,0,0-19.92,4-16.66-5s8.71-5,8.71-5C1545.1,919.78,1545,911.46,1556.27,906.79Z"/><path class="cls-10" d="M1552.48,944c9.2-.81,15.48-1.42,15.55-1.43a1.8,1.8,0,0,0,.32-.06c.68-.2,16.65-4.92,19.74-16.91a100.71,100.71,0,0,0,3.42-24v-.38c0-4,0-14.61-8.23-23.62S1563,864,1562.47,863.79a1.87,1.87,0,0,0-1.32,0l-65.79,26.36a1.81,1.81,0,0,0-1.13,1.63c0,1-.49,23.55,8.09,32.89-1,2.11-2.41,6.33-.68,9.55,1.14,2.11,3.33,3.3,6.52,3.53,5.58.41,8.28.12,9.7-.41a16.72,16.72,0,0,0,10.45,3.59,60.89,60.89,0,0,0,13.89-2.16,6.74,6.74,0,0,0,1.67,2.89c1.56,1.6,3.88,2.4,6.91,2.4C1551.33,944.07,1551.89,944,1552.48,944Zm-9.26-9.24c-.09,0-8.62,2.58-14.91,2.58a12.67,12.67,0,0,1-9-3.49,1.8,1.8,0,0,0-2.8.16c-.55.17-2.49.58-8.11.17-1.88-.13-3.09-.69-3.61-1.65-1.13-2.08.58-6.08,1.27-7.32a1.8,1.8,0,0,0-.37-2.22c-7.28-6.54-7.86-25.07-7.88-29.92l64-25.64c2.54,1.07,12.16,5.43,18.8,12.66,7.33,8,7.3,17.22,7.29,21.17v.39a97.22,97.22,0,0,1-3.31,23.05c-2.43,9.45-15.57,13.83-17.1,14.3-1.08.11-7,.68-15.33,1.42-2.69.23-4.66-.19-5.7-1.23a3.43,3.43,0,0,1-.94-2.51,1.78,1.78,0,0,0-.64-1.58,1.8,1.8,0,0,0-1.15-.41A1.86,1.86,0,0,0,1543.22,934.75Zm-27,.52Zm0,0h0Zm0,0Zm0,0h0Zm0,0Zm0,0Z"/><path class="cls-7" d="M1533.94,839.83a27.52,27.52,0,0,1-.08-6.23c.34-3.39,1.25-6.07,3.63-11.52,3.76-8.63,4.15-8,5.55-12.06a57.58,57.58,0,0,0,2.64-12.55c.89-6.72,1.38-10.41.55-15.3-.75-4.47-1.75-10.38-6.75-14.39a18.26,18.26,0,0,0-11.3-3.7c-10.63-.52-16.37,5-14.33,16.19.89,6.34,3.7,7.28,6.16,16.24a30.66,30.66,0,0,1,1.49,8.51c0,2.83-.39,4.58-2.71,13-2.45,8.93-2.8,10-3.39,12.61a104.4,104.4,0,0,0-1.93,11.45"/><path class="cls-11" d="M1515.89,832.88c2.85-8.92,5-15.18,6.73-19.88a25,25,0,0,0,1.49-5.84,27.31,27.31,0,0,0-1.2-11.41c-.3-1-.31-.9-4.26-10.37-1.59-3.8-2.38-5.75-2.44-7.91a13,13,0,0,1,1.84-7.29c2.65-4,8.36-5.83,14.36-4.75l-8.21-.69-5.91,1.87-4.48,4.48-.27,7.1,1.46,6.31,2.84,6.24,2,5.3,1.74,10.43-6.18,25.63-.06.88Z"/><path class="cls-8" d="M1532.74,830.23c0-.38-1.51-.92-.79-5a43.72,43.72,0,0,1,3.11-8,93.85,93.85,0,0,0,4.62-10.65c2.91-8.22,1.69-15.51,1.63-18-.09-3.92-.84-9.37-4.25-13.68-5.81-7.35-18.59-5.73-21-5.94l5.37-4.23,11.64,0,6.64,3.62,4.34,6.82,1.38,5.4.37,11.15-1.68,11.76-2.34,7.81-3.76,8.78-4.19,10.37Z"/><path class="cls-10" d="M1534.32,839.78a27.79,27.79,0,0,1,1.45-10.69c1.23-3.39,2.89-6.75,4.44-10.08,1.16-2.55,2.69-5,3.7-7.61a57.9,57.9,0,0,0,3.14-13.86,74.43,74.43,0,0,0,1-11.32,35.74,35.74,0,0,0-.66-5.75c-.65-3.82-1.76-7.78-4.2-11-4.55-6-11.75-7.47-18.91-6.83-8.79.9-13.15,7.05-12.2,15.65.06.45.23,1.68.31,2.16a23.41,23.41,0,0,0,3,8.23,43.33,43.33,0,0,1,3.8,10.12,25.81,25.81,0,0,1,.9,5.23,17.49,17.49,0,0,1-.4,5.19c-.77,3.54-1.81,7.15-2.7,10.75l-1.36,5.41a83.49,83.49,0,0,0-2.55,16.64l.71.08q.95-5.48,2.33-10.85c1.43-5.32,3.22-10.67,4.69-16a52.5,52.5,0,0,0,1.91-8.38c.4-4.92-1-9.58-2.5-14.2-1.1-3.49-3.42-6.74-4.44-10.12-2.13-8.28-1-15.86,8.8-16.91,8.3-.71,15.67,1.69,18.64,10.15a40.74,40.74,0,0,1,2,10.49,70.23,70.23,0,0,1-.87,10.88c-.66,5.49-1.49,10.8-3.9,15.74a109.61,109.61,0,0,0-4.64,10.23,53,53,0,0,0-1.87,5.36,24.46,24.46,0,0,0-.37,11.37l.76-.1Z"/><path class="cls-10" d="M1526.14,826.65a94.35,94.35,0,0,0,8.63-44.73,4.94,4.94,0,1,0-9.86.47,93.34,93.34,0,0,1,2.09,21.94,90.57,90.57,0,0,1-3.25,21.44,1.28,1.28,0,0,0,2.39.88Z"/><path class="cls-7" d="M1489.08,841.77c-14,14.61-11.75,31.78-.61,43.73q17.55,16.74,40,16.35c23.29,1.19,46.68-44.75,23.08-65.29C1540.57,827.17,1516.77,813.58,1489.08,841.77Z"/><path class="cls-8" d="M1480.58,868.31c-6.58-28.47,37-52.41,48.45-39.79-2-.22-44.23,2.51-48,39.79"/><path class="cls-11" d="M1490.42,884.88s29.88,17.23,49.65,6.73,16.31-48,16.31-48,16.4,20.47-9.89,48.13S1490.42,884.88,1490.42,884.88Z"/><path class="cls-10" d="M1559.56,877.43c5.25-13,6.22-30.92-6.79-42.24-12.15-10.35-36.75-23.42-65,5.32l0,0c-13.45,14-13.7,32.17-.63,46.2l.08.07c12,11.44,25.88,17.1,41.26,16.85l.89,0C1541,903.67,1553.26,893,1559.56,877.43Zm-31.08,22.62c-14.42.24-27.44-5.07-38.73-15.82-11.62-12.5-11.38-28.67.62-41.2,26.18-26.65,48.87-14.63,60.05-5.11,11.57,10.07,10.58,26.32,5.8,38.17-5.82,14.4-17.42,24.49-27.61,24h-.13Z"/><ellipse cx="1494.32" cy="852.77" rx="3.16" ry="3.33"/><ellipse cx="1505.36" cy="861.66" rx="2.32" ry="3.33" transform="translate(140.7 1932.31) rotate(-67.9)"/><ellipse cx="1530.74" cy="862.81" rx="4" ry="3.79" transform="translate(201.7 2012.27) rotate(-70.26)"/><path d="M1507.09,868.91a.58.58,0,0,1-.26-.06,4.79,4.79,0,0,1-3-3.62,3.54,3.54,0,0,1-1,.56,5.38,5.38,0,0,1-4.12-.7.6.6,0,0,1,.55-1.07,4.25,4.25,0,0,0,3.2.62,2.73,2.73,0,0,0,1.58-1.53l1.1.48c0,.11-.89,2.68,2.27,4.18a.6.6,0,0,1-.25,1.14Z"/><path class="cls-10" d="M1518.15,935.4h-.09a1.17,1.17,0,0,1-1.08-1.25l.51-7.2a1.17,1.17,0,0,1,1.25-1.09,1.19,1.19,0,0,1,1.09,1.26l-.52,7.19A1.16,1.16,0,0,1,1518.15,935.4Z"/><path class="cls-10" d="M1522.49,928.19c-5.63,0-9.91-1.49-13-4.5a1.17,1.17,0,0,1,0-1.66,1.16,1.16,0,0,1,1.65,0c4.13,4.06,11.12,4.89,21.37,2.53a1.17,1.17,0,0,1,.53,2.28A47.54,47.54,0,0,1,1522.49,928.19Z"/><path class="cls-10" d="M1543.76,937.41a1.8,1.8,0,0,1-1.79-1.64,6.9,6.9,0,0,1,2-5.23,9.12,9.12,0,0,1,4.93-2.41,13.76,13.76,0,0,1-4-9.11c-.21-5.52,3-10.9,8.87-14.76a1.8,1.8,0,0,1,2,3c-4.77,3.15-7.41,7.38-7.25,11.61.13,3.72,2.46,7.11,6.37,9.3a1.8,1.8,0,0,1-1,3.36c-3.48-.29-6,.24-7.29,1.54a3.36,3.36,0,0,0-1,2.37,1.8,1.8,0,0,1-1.63,1.95Z"/><path class="cls-7" d="M1590.89,900.16c15.52-3.12,16.6,22.63-1.69,18.08"/><path class="cls-8" d="M1589.2,917.16c15.34,3.06,11.69-10.37,11.69-10.37.59,10.77-11.47,8.18-11.47,8.18Z"/><path class="cls-10" d="M1593.25,920.57a18.56,18.56,0,0,1-4.48-.58,1.8,1.8,0,1,1,.87-3.49c4.5,1.12,8,.28,9.91-2.37a8.47,8.47,0,0,0,0-9.2c-1.73-2.67-4.7-3.74-8.35-3a1.81,1.81,0,0,1-.71-3.54c5.13-1,9.53.64,12.08,4.58a12,12,0,0,1-.13,13.25A10.85,10.85,0,0,1,1593.25,920.57Z"/><g id="EAR_1-3" data-name="EAR 1"><path class="cls-7" d="M1543.68,840.92c0-.81.41-2,1.44-4.55,1.35-3.31,3.08-5.74,7.1-10.52,6.38-7.57,6.58-6.84,9.21-10.49a61.53,61.53,0,0,0,6.42-11.85c2.9-6.51,4.5-10.09,5.13-15.26.58-4.74,1.34-11-2.49-16.53a19.17,19.17,0,0,0-10.29-7.1c-10.55-3.71-18,.18-19.29,12-1,6.66,1.56,8.44,1.36,18.21a32.81,32.81,0,0,1-1,9c-.81,2.87-1.77,4.5-6.63,12.31-5.14,8.27-5.82,9.27-7.19,11.7-.91,1.63-2.8,5.26-3.47,6.71"/><path class="cls-8" d="M1543.3,841.11s-3.63-3.74,8.8-20.41c7.34-7.93,11-17.45,12.49-21.48,2.77-7,5.24-14.63,2.35-22.61-3.8-9.56-17.55-11.7-17.55-11.7l4.09-1.34,11.71,4.22,4.92,4.55,2.51,7.84-1.15,11.32-2,6.5-4.32,9.42-4.1,7.46-3.63,4.34-4.14,4.12-2.48,3.8-2.81,3.93-2.43,4Z"/><path class="cls-10" d="M1544.2,840.89a8.56,8.56,0,0,1,.81-2.46,29.1,29.1,0,0,1,4.12-7.15,167.08,167.08,0,0,1,11.3-12.52c3.93-4.34,6.58-9.7,8.88-14.91a79.07,79.07,0,0,0,4.29-10.72c1.83-7.61,2.81-16.63-2.36-23.21-4.41-5.87-14.89-9.82-22.19-7.86-7.68,2.09-10.12,10.83-10.12,17.9.06,2.9,1,5.86,1.3,8.59.55,5.25.71,11-1,16-1.23,3.28-3.46,6.51-5.25,9.62-1.44,2.42-4.31,7.36-5.69,9.81a92.84,92.84,0,0,0-4.8,10.38.45.45,0,0,0,.24.58.44.44,0,0,0,.54-.18c2.06-3.17,3.82-6.47,6-9.56,1.61-2.33,4.76-7,6.3-9.42,2-3.29,4.36-6.45,5.75-10.13,1.92-5.6,1.84-11.76,1.28-17.59-.43-3.53-1.5-6.65-1.11-10.12.44-5,2.09-11.08,7.5-12.53,3.31-.92,6.76-.14,10.07,1a17.37,17.37,0,0,1,8.5,5.57c3.41,4.2,3.61,9.78,3,15-.43,5.6-2.64,10.49-4.93,15.68s-4.59,10.11-8.18,14.31c-2.52,2.69-5.14,5.65-7.44,8.59-3,3.7-5.87,7.75-7.22,12.41a8.48,8.48,0,0,0-.62,3,.53.53,0,0,0,.56.49.52.52,0,0,0,.48-.54Z"/></g><path class="cls-10" d="M1542.62,825.28A99.28,99.28,0,0,0,1563,781.94a5.2,5.2,0,1,0-10.18-2.08,97.06,97.06,0,0,1-3.56,22.9,94.56,94.56,0,0,1-8.88,21,1.35,1.35,0,0,0,2.21,1.52Z"/><ellipse class="cls-8" cx="1521.77" cy="914.9" rx="6.98" ry="13.59" transform="translate(496.13 2364.35) rotate(-85.73)"/><ellipse class="cls-7" cx="1493.3" cy="852.35" rx="1.44" ry="0.95" transform="translate(186.74 1970.1) rotate(-70.26)"/><ellipse class="cls-7" cx="1529.03" cy="861.99" rx="1.44" ry="0.95" transform="translate(201.34 2010.12) rotate(-70.26)"/></g></g></svg>