<svg xmlns="http://www.w3.org/2000/svg" width="1920" height="1080" viewBox="0 0 1920 1080"><defs><style>.cls-1{isolation:isolate;}.cls-2{fill:#634428;}.cls-3{fill:#37230e;}.cls-4{fill:#281909;}.cls-5{fill:none;}.cls-6{fill:#fff;}.cls-10,.cls-7,.cls-9{fill:#e5ae13;}.cls-10,.cls-12,.cls-14,.cls-17,.cls-23,.cls-24,.cls-8{mix-blend-mode:multiply;}.cls-15,.cls-8{opacity:0.3;}.cls-13,.cls-9{mix-blend-mode:screen;}.cls-11,.cls-13,.cls-14{fill:#4d8a62;}.cls-12,.cls-24{opacity:0.39;}.cls-16{fill:#ccc;}.cls-17{fill:#d8d8d8;}.cls-18{fill:#7a7a7a;}.cls-19{fill:#eee;}.cls-20{fill:#ffca91;}.cls-21{fill:#b2b2b2;}.cls-22{mix-blend-mode:darken;}</style></defs><g class="cls-1"><g id="Layer_1" data-name="Layer 1"><path class="cls-2" d="M1367.2,591.6c-94.7-121.8-103.8-229,0-316.8l-26-22.5c-82.9,0-144.7-50.6-110.3-144L1219.7,88s-213-34.4-255.9-41V45.9c-.1,0-1.5.2-3.7.5-2.3-.3-3.6-.5-3.7-.5V47c-42.9,6.7-255.9,41-255.9,41l-11.2,20.4c34.4,93.4-27.4,144-110.3,144l-26,22.5c103.8,87.8,94.7,195,0,316.8-60.4,81.5-42.5,202.3,0,281,98,152.1,394.2,111.5,407,158.3v3.2a19.42,19.42,0,0,1,.2-2.4,9.74,9.74,0,0,1,.2,2.4V1031c12.8-46.8,308.9-6.2,407-158.3C1409.7,793.9,1427.6,673.1,1367.2,591.6Z"/><path class="cls-3" d="M1023.43,985.85c26.8-4,60-7.6,95.3-13.3V93.15c-31.4-5.1-66.1-10.6-95.3-15.3v908Z"/><path class="cls-3" d="M1139.43,969.05c31.8-5.9,64.6-13.7,95.3-25.4V234.15c-24-23.2-32.7-59.3-15.1-107l-10.7-19.5s-30.1-4.9-69.4-11.2v872.6Z"/><path class="cls-3" d="M781.93,969.05c34.1,6.3,67.1,10.2,95.3,14V81.15c-31.1,5-65.8,10.6-95.3,15.3Z"/><path class="cls-3" d="M1349.93,589.35c-90.6-116.5-99.3-219,0-303l-24.9-21.5c-26.3,0-50.4-5.4-69.6-15.8v685.8c38.2-17.4,71.9-41.8,94.5-76.9C1390.63,782.85,1407.73,667.35,1349.93,589.35Z"/><path class="cls-3" d="M665.93,249v686.2c30,13.6,62.8,23,95.3,29.9V99.75c-28.9,4.7-49.1,7.9-49.1,7.9l-10.7,19.5C723.33,186.65,704.43,228,665.93,249Z"/><path class="cls-3" d="M1002.73,74.55c-17.1-2.7-30.8-4.9-38.7-6.1v-1.1c-.1,0-1.4.2-3.6.5-2.2-.3-3.4-.5-3.6-.5v1.1c-10.7,1.7-32.6,5.1-59,9.4V986c34.9,5.3,59,11.2,62.3,23.6v3.1a16.41,16.41,0,0,1,.2-2.3,16.41,16.41,0,0,1,.2,2.3v-3.1c2.7-9.8,18.3-15.6,42-20.2V74.55Z"/><path class="cls-3" d="M645.23,257.75a164.47,164.47,0,0,1-49.3,7.2L571,286.45c99.3,84,90.6,186.5,0,303-57.8,77.9-40.6,193.5,0,268.7,18.5,28.7,44.4,50.2,74.2,66.7Z"/><path class="cls-4" d="M592.3,636c-27.8,39.4-38.9,90.3-29.8,137.5,2.3,11.3,6.4,22.5,14.8,30.5a31.23,31.23,0,0,0,14,7.9c9.7,2.4,21.8-1.6,24.8-11.8,2.1-6.6-.2-14.7-7.1-17.3s-15.2-.6-21.3,3.5c-5.9,3.7-11.5-4.8-5.7-8.7a37.72,37.72,0,0,1,20.1-5.9c12-.1,22.6,7.9,23.7,20.2a25.77,25.77,0,0,1-6.9,20.3c-13.2,13.1-34.7,9.7-46.6-3.1-9.2-9.3-13.7-22-15.8-34.5-8-48.8,4.8-100.4,34.3-139.8a1.06,1.06,0,0,1,1.4-.2,1.18,1.18,0,0,1,.1,1.4Z"/><path class="cls-4" d="M695.5,932.8c1.4-2.2,3.2-4.4,4.6-6.5.8-1.2,3.6-5.3,4.4-6.6,1.7-2.8,4-6.3,5.6-9,55.5-94.2,28.5-207.9,9.5-308.9-13.9-71-29.5-143.2-23.9-216,3-43.6,13.8-88.1,37.5-125.1a1,1,0,0,1,1.5-.3,1.09,1.09,0,0,1,.4,1.3c-4.6,13.7-8.8,27.4-12.3,41.2-12.2,48.3-16.1,98.3-14,148,2.4,63.9,14.7,129.2,26.1,192.1,12.2,70.9,24.9,145.3,4.9,216.1-6.5,22.9-16,45.2-30,64.5a142.61,142.61,0,0,1-10.6,12.7c-1.9,2.1-5.6-.5-3.7-3.5Z"/><path class="cls-4" d="M827.9,123.5a1091,1091,0,0,1,28.2,177.9c2.2,30,1.8,60,2.4,90,.2,54.6-.9,110.8-9.1,164.9-1.9,15-4.8,29.8-10.3,44a2.62,2.62,0,0,1-3.5,1.5,2.71,2.71,0,0,1-1.7-2.6c-.1-15.2,2.8-29.7,5.1-44.5,10.4-63.5,18.4-128.8,16-193.2-1.6-28.8-4.4-60.5-7.6-89.3a1143.47,1143.47,0,0,0-20.7-117.6s-7.2-29-7.2-29.1c-1.1-5.2,6.7-7.7,8.4-2Z"/><path class="cls-4" d="M805.9,746.6c1.4,7.2,2.4,14.3,3.6,21.4,1.8,10.5,4,20.8,6.1,31.2,5,24.3,11,48.5,22.1,70.9,6.4,12.8,14.3,25.1,24.8,35a2.57,2.57,0,0,1,.1,3.7,2.65,2.65,0,0,1-4.1-.3c-8.7-11.9-17.8-23.3-26-35.5-14.6-21.3-26.5-45.5-31.7-71a151.13,151.13,0,0,1-2.1-33.6,125.51,125.51,0,0,1,3.4-22.1c.4-1.9,3.5-1.8,3.8.3Z"/><path class="cls-4" d="M924.9,975.7c14.1-12.7,26.8-27.2,35.8-43.9s14.6-34.9,18.5-53.5a269.92,269.92,0,0,0,6.5-64.1c-.7-35.9-7.7-71.4-14.8-106.6C960.7,657.2,949.4,606,942.3,555c-1.6-12.8-2.9-26.7-3.5-39.6-5.4-119.7,43.5-236.9,24.9-356.6-1.2-7-2.9-15.8-4.6-22.8a230.94,230.94,0,0,0-19.6-53.2,5.47,5.47,0,1,1,9.9-4.6c14.7,36.4,20.9,75.3,21.6,114.2.8,38.6-3.4,77.1-9.1,115.2-11.6,76-28.5,152.4-19.8,229.4,7.1,76.8,37.5,149.1,44.8,226.5a458.07,458.07,0,0,1,2.4,65.2c-1,24.2-3,48.6-9.6,72-6.5,22.3-17.9,43.3-34.1,60.1l-2.6,2.6-2.6,2.6-2.7,2.5c-3.5,3.4-7.4,6.3-11.1,9.4a1.31,1.31,0,0,1-1.9-.2,1.42,1.42,0,0,1,.2-2Z"/><path class="cls-4" d="M1037.3,84.3c19.7,20.5,35.5,45,44,72.3,11.4,36.2,12.1,74.7,9.9,112.3-3.1,46.9-12.1,93.2-18.1,139.5s-11.6,92.8-14.1,139.5c-4.9,102.7,2.6,206.3,25.1,306.6a950,950,0,0,0,31,107.5,5.42,5.42,0,1,1-10.3,3.4A1082.09,1082.09,0,0,1,1076.9,856c-7.3-36.7-12.9-74.3-16.6-111.5s-5.8-74.9-6.3-112.4c-.4-75,2-150.3,11.4-224.8,12-104,55.3-236.9-31.9-319.4a2.57,2.57,0,0,1-.1-3.7,2.8,2.8,0,0,1,3.9.1Z"/><path class="cls-4" d="M1018.7,91c28.9,48.5,37.2,106.3,36.4,162-.3,27.9-2.9,55.7-5.8,83.4-7.2,64.1-13.6,128.7-15.7,193.2-3,110.7,7.1,221.8,28.6,330.4q11,54.3,25.8,107.7a4.62,4.62,0,1,1-8.9,2.5q-6.75-27-12.8-54.3c-28.2-126.7-40.8-256.7-39.4-386.4a1577.27,1577.27,0,0,1,12.2-194.2c5.4-45.6,11.1-91.6,6.9-137.5-2.5-27.3-8.2-54.5-19.2-79.8a199.6,199.6,0,0,0-12.6-24.3,2.53,2.53,0,0,1,.9-3.6,2.59,2.59,0,0,1,3.6.9Z"/><path class="cls-4" d="M1195.6,108.9c2.6,18.8,2.2,40.4,1.4,59.5-.9,18.3-3.1,41-5.4,59.2-2.6,19.4-5.6,39.4-8.9,58.7a922.59,922.59,0,0,1-34.9,134,2.62,2.62,0,1,1-5-1.6,615.35,615.35,0,0,0,25.1-74.9c9.9-37.8,17-77.6,19.7-116.5,1.8-28.5,2.1-60,1.9-88.6.2-9.9.1-19.7.9-29.6a2.61,2.61,0,0,1,5.2-.2Z"/><path class="cls-4" d="M1222.2,221c6.8,54.1-9,107.9-27.3,158.2-14.5,39.2-29.3,79.2-35,120.8-3.9,26.4-3.3,53.2-.8,79.6,6.8,60.6,19.4,120.7,27.8,181.2,4.4,28.9,16.3,107.9,20.8,136.2,2.4,15.1,4.8,30.2,7.5,45.3a1.37,1.37,0,1,1-2.7.4c-2.4-15.1-5-30.2-7.6-45.3-4.9-27.9-19.2-106.5-24.5-135.6-10.2-60.5-23.1-120.4-27.4-181.8-1.7-26.9-.9-54,3.7-80.6a461.36,461.36,0,0,1,11.6-50.5c8.5-30.1,19-63.5,27.8-93.6,5.4-18.2,10.7-36.5,14.5-55.1,2.3-11,4.2-22.4,5.4-33.6a263.56,263.56,0,0,0,1.1-45.3,2.61,2.61,0,0,1,2.5-2.8,3.2,3.2,0,0,1,2.6,2.5Z"/><path class="cls-4" d="M1357.2,635.7c-8.4,9.1-13.1,21.6-15.2,33.8-4.9,27.3,2.3,56.5,5.1,83.7,1.2,11.4,1.8,23,.6,34.5a104.54,104.54,0,0,1-5,23.2,5.11,5.11,0,0,1-6.6,3.3,5.23,5.23,0,0,1-2.9-7.5,73.22,73.22,0,0,0,7.3-20.1c1.9-8.8,2.3-18.3,2.1-27.5-.2-9-1.3-19-2.4-27.9-3.4-26.2-7.6-53.5-.9-79.7a82.8,82.8,0,0,1,9.2-22.3c4.4-6.7,13.8.2,8.7,6.5Z"/><path class="cls-4" d="M1304.7,578.4c-14.5,19.2-20.7,43.4-21.8,67.2-2,50.2,17.9,97.1,26.8,146,4.5,24.7,6.4,50.3,1.4,75.1a1,1,0,0,1-2-.4,163.3,163.3,0,0,0,1.9-18.5,200.52,200.52,0,0,0-2.3-37.1c-9.4-61.7-42.2-120.8-33.9-184.7,2.5-19.4,8.9-38.5,20.3-54.7,4.8-6.3,14.2.5,9.6,7.1Z"/><rect class="cls-5" x="805.8" y="594" width="308.4" height="71"/><rect class="cls-5" x="758.9" y="757.5" width="402.3" height="71"/><path id="tlo" class="cls-6" d="M1664.93,193.85c.3-1,4.61-17.23,5.68-19.18-7.27-6.36-38.43-37.66-1.24-30.9,0,0,17.22-19.53,8.87-51.13,0,0,12.61,10.12,15.27,18.46,0,0,18.65,4,18.2,32.67,0,0,2.93-9.41,2.93-11.54v-7.72s3.11.53,4.27-.53,4.08.35,4.08.35a4.73,4.73,0,0,0,3.37,1.51,2.35,2.35,0,0,1,2.4,1.78s1.42,2.31,2.4,1.15-1.34,10.3-13.59,16.16l-4.44,2.4s2.18,24.19-21.52,40c0,0-6.4,6.79-8.26,12.38,0,0,4.93,23.57-5.19,31.83,0,0-7.09,3.18-16.92.8,0,0-9.85-2-9.85-13.72s10-18.11,10-18.11A22.12,22.12,0,0,0,1664.93,193.85Z"/><path d="M1697.27,138.54c.34-18.51-16.37-48.17-19-45.9,8.35,31.6-8.87,51.13-8.87,51.13Z"/><path class="cls-7" d="M1711.71,143.77s2.93-9.41,2.93-11.54v-7.72s3.11.53,4.27-.53,4.08.35,4.08.35a4.73,4.73,0,0,0,3.37,1.51,2.35,2.35,0,0,1,2.4,1.78s1.42,2.31,2.4,1.15-1.34,10.3-13.59,16.16l-4.44,2.4"/><path class="cls-7" d="M1681.25,218.08l26,15.18s-.51-7.24-21.54-23"/><path class="cls-9" d="M1703.42,226.41c-3.59-4.42-11.23-12.22-18.87-16.27l-.93,3.74A49.44,49.44,0,0,1,1703.42,226.41Z"/><path class="cls-7" d="M1684.1,203.67l25.48-5.39s-1.46,15.3-25.88,15.3"/><path class="cls-10" d="M1683.7,210.7l.25-7,25.63-5.42C1700.31,204.9,1687.25,209.44,1683.7,210.7Z"/><path class="cls-11" d="M1661.24,232.38s-9.85-2-9.85-13.72,10-18.11,10-18.11a22.12,22.12,0,0,0,3.55-6.7l18.42,5.9s4.93,23.57-5.19,31.83c-5,2.24-10.75,2.1-16.92.8,0,0-9.85-2-9.85-13.72s10-18.11,10-18.11"/><path d="M1669.37,143.79c-7.29-8.48,3.28-29.81-1.06-53.26-.92,3-42.25,54.07,2.3,84.14-25.32-26.34-5.87-57.71-3.61-70.49C1669,118.23,1660.73,139.69,1669.37,143.79Z"/><path d="M1685.37,195.54c.45-.74.93-1.47,1.41-2.17a58.42,58.42,0,0,1,4.83-6c-8.73-6.6-12.59-8.19-21-12.7a88.64,88.64,0,0,0-3,9.35"/><path class="cls-6" d="M1660,223.05c0-4,3.91-7.25,8.72-7.25,11.57.37,11.57,14.14,0,14.51C1663.93,230.31,1660,227.06,1660,223.05Z"/><ellipse cx="1667.97" cy="223.05" rx="2.35" ry="3.35"/><path class="cls-10" d="M1717.48,131.39c0-.13,1-7.15,1-7.15l1.67-.66Z"/><path class="cls-10" d="M1720.19,132.23l3.41-7.35a4,4,0,0,0,1.37.75C1725.66,125.8,1720.19,132.23,1720.19,132.23Z"/><path class="cls-10" d="M1728,126.71s.41.86.68,1-6,8-6,8Z"/><path class="cls-6" d="M1670.61,174.67c-25.55-25-6.11-56.54-3.61-70.49,2.47,10.49-5.71,33.12,2.37,39.61"/><path class="cls-12" d="M1697.27,138.54c-13.7,4.48-49.36,41.92-30.27-34.36,4.11,12.13-6.85,30.24,2.37,39.59C1674.72,140.67,1685.84,139.84,1697.27,138.54Z"/><path d="M1677.28,224.36a33.86,33.86,0,0,1-17.26-1.31C1659,230.73,1674.76,234.62,1677.28,224.36Z"/><path class="cls-13" d="M1666.68,194.41l-3.54,7.67a25,25,0,0,0-9.93,24.2,15.35,15.35,0,0,1-1.82-7.62c0-11.72,10-18.11,10-18.11a22.12,22.12,0,0,0,3.55-6.7Z"/><path class="cls-14" d="M1680.32,198.78l3,1s4.93,23.57-5.19,31.83l-.55.23C1684.13,219.26,1680.6,200.17,1680.32,198.78Z"/><path class="cls-10" d="M1713.14,147.33l-.32-.81c10.93-5.65,14.73-14.3,16-18.79.31.46,1.48,2,2.32,1s-1.33,10.3-13.58,16.17Z"/><path class="cls-15" d="M1701.64,178.34c4.85-12.71,12.43-37.47,3.69-50-15-17.11-14.5-19.29-15-23.28a22.06,22.06,0,0,1,3.1,5.83s18.65,4,18.2,32.67l1.42,3.55A45.16,45.16,0,0,1,1701.64,178.34Z"/><path id="tlo-2" data-name="tlo" class="cls-6" d="M1604.38,492.53c-.39-1.27-5.91-22-7.28-24.55,9.3-8.14,49.19-48.2,1.6-39.55,0,0-22-25-11.37-65.46,0,0-16.14,13-19.55,23.64,0,0-23.86,5.12-23.29,41.82,0,0-3.75-12-3.75-14.77v-9.89s-4,.69-5.46-.68-5.23.46-5.23.46a6.06,6.06,0,0,1-4.31,1.93,3,3,0,0,0-3.07,2.27s-1.82,3-3.07,1.48,1.7,13.18,17.39,20.68l5.68,3.07s-2.79,31,27.56,51.25c0,0,8.18,8.7,10.57,15.86,0,0-6.31,30.17,6.64,40.74,0,0,9.08,4.07,21.65,1,0,0,12.62-2.55,12.62-17.55s-12.79-23.19-12.79-23.19A28.27,28.27,0,0,1,1604.38,492.53Z"/><path d="M1563,421.73c-.44-23.69,21-61.65,24.35-58.76-10.68,40.46,11.37,65.46,11.37,65.46Z"/><path class="cls-7" d="M1544.49,428.43s-3.75-12-3.75-14.77v-9.89s-4,.69-5.46-.68-5.23.46-5.23.46a6.06,6.06,0,0,1-4.31,1.93,3,3,0,0,0-3.07,2.27s-1.82,3-3.07,1.48,1.7,13.18,17.39,20.68l5.68,3.07"/><path class="cls-7" d="M1583.48,523.56,1550.2,543s.65-9.28,27.57-29.49"/><path class="cls-9" d="M1555.1,534.22c4.6-5.66,14.38-15.64,24.16-20.83l1.19,4.79A63.21,63.21,0,0,0,1555.1,534.22Z"/><path class="cls-7" d="M1579.84,505.11l-32.62-6.9s1.87,19.59,33.13,19.59"/><path class="cls-10" d="M1580.35,514.1l-.32-9-32.81-6.94C1559.09,506.68,1575.8,512.49,1580.35,514.1Z"/><path class="cls-11" d="M1609.09,541.85s12.62-2.55,12.62-17.55-12.79-23.19-12.79-23.19a28.27,28.27,0,0,1-4.54-8.58l-23.58,7.56s-6.31,30.17,6.64,40.74c6.36,2.88,13.76,2.69,21.65,1,0,0,12.62-2.55,12.62-17.55s-12.79-23.19-12.79-23.19"/><path d="M1598.7,428.45c9.32-10.84-4.21-38.15,1.35-68.17,1.18,3.86,54.09,69.21-3,107.7,32.42-33.71,7.52-73.87,4.63-90.23C1599.21,395.74,1609.75,423.21,1598.7,428.45Z"/><path d="M1578.21,494.7c-.57-.95-1.19-1.88-1.81-2.77a75.36,75.36,0,0,0-6.17-7.7c11.16-8.43,16.11-10.48,26.87-16.25.66,1.2,2.25,6.56,3.79,12"/><path class="cls-6" d="M1610.66,529.92c0-5.13-5-9.28-11.17-9.28-14.8.47-14.8,18.09,0,18.57C1605.66,539.21,1610.66,535.05,1610.66,529.92Z"/><ellipse cx="1600.49" cy="529.92" rx="3.01" ry="4.29"/><path class="cls-10" d="M1537.1,412.58c-.06-.17-1.33-9.16-1.33-9.16l-2.14-.83Z"/><path class="cls-10" d="M1533.63,413.66l-4.36-9.41a5.19,5.19,0,0,1-1.75,1C1526.63,405.43,1533.63,413.66,1533.63,413.66Z"/><path class="cls-10" d="M1523.6,406.59s-.53,1.11-.87,1.27,7.64,10.17,7.64,10.17Z"/><path class="cls-6" d="M1597.1,468c32.72-32,7.82-72.37,4.63-90.23-3.16,13.43,7.3,42.4-3,50.7"/><path class="cls-12" d="M1563,421.73c17.54,5.74,63.18,53.67,38.75-44-5.27,15.52,8.77,38.71-3,50.68C1591.84,424.46,1577.61,423.4,1563,421.73Z"/><path d="M1588.56,531.59a43.33,43.33,0,0,0,22.1-1.67C1612,539.74,1591.79,544.73,1588.56,531.59Z"/><path class="cls-13" d="M1602.14,493.25l4.53,9.82s15.64,10.06,12.7,31a19.43,19.43,0,0,0,2.34-9.74c0-15-12.79-23.19-12.79-23.19a28.27,28.27,0,0,1-4.54-8.58Z"/><path class="cls-14" d="M1584.67,498.85l-3.87,1.24s-6.31,30.17,6.64,40.74l.71.3C1579.79,525.06,1584.31,500.62,1584.67,498.85Z"/><path class="cls-10" d="M1542.66,433l.41-1c-14-7.23-18.86-18.3-20.51-24.05-.39.59-1.89,2.59-3,1.32-1.25-1.48,1.7,13.18,17.38,20.69Z"/><path class="cls-15" d="M1557.39,472.68c-6.21-16.26-15.92-48-4.73-64,19.2-21.9,18.55-24.69,19.19-29.8a29,29,0,0,0-4,7.46s-23.87,5.12-23.3,41.83l-1.82,4.54S1540.87,453.87,1557.39,472.68Z"/><path id="tlo-3" data-name="tlo" class="cls-6" d="M142.11,255.48c-.26-.85-4-14.79-4.88-16.47,6.24-5.46,33-32.34,1.07-26.53,0,0-14.79-16.77-7.62-43.91,0,0-10.83,8.69-13.12,15.86,0,0-16,3.43-15.63,28,0,0-2.51-8.08-2.51-9.91v-6.63s-2.67.46-3.66-.46-3.51.31-3.51.31a4.06,4.06,0,0,1-2.9,1.29,2,2,0,0,0-2,1.53s-1.22,2-2.06,1,1.14,8.84,11.66,13.87l3.81,2.06s-1.86,20.78,18.49,34.39c0,0,5.49,5.83,7.09,10.63,0,0-4.23,20.24,4.46,27.33a24.15,24.15,0,0,0,14.53.69s8.46-1.71,8.46-11.78-8.58-15.55-8.58-15.55A18.85,18.85,0,0,1,142.11,255.48Z"/><path d="M114.34,208c-.29-15.89,14.06-41.36,16.34-39.41-7.17,27.14,7.62,43.91,7.62,43.91Z"/><path class="cls-7" d="M101.93,212.48s-2.51-8.08-2.51-9.91v-6.63s-2.67.46-3.66-.46-3.51.31-3.51.31a4.06,4.06,0,0,1-2.9,1.29,2,2,0,0,0-2,1.53s-1.22,2-2.06,1,1.14,8.84,11.66,13.87l3.81,2.06"/><path class="cls-7" d="M128.1,276.3l-22.33,13s.44-6.22,18.49-19.78"/><path class="cls-9" d="M109.06,283.45c3.08-3.8,9.64-10.49,16.2-14l.8,3.21A42.35,42.35,0,0,0,109.06,283.45Z"/><path class="cls-7" d="M125.65,263.92l-21.88-4.63S105,272.43,126,272.43"/><path class="cls-10" d="M126,270l-.21-6-22-4.66C111.73,265,122.94,268.87,126,270Z"/><path class="cls-11" d="M145.28,288.57s8.46-1.71,8.46-11.78-8.58-15.55-8.58-15.55a18.85,18.85,0,0,1-3-5.76l-15.82,5.07s-4.23,20.24,4.46,27.33c4.27,1.93,9.23,1.81,14.53.69,0,0,8.46-1.71,8.46-11.78s-8.58-15.55-8.58-15.55"/><path d="M138.3,212.49c6.25-7.27-2.82-25.59.91-45.73.79,2.59,36.28,46.43-2,72.25,21.75-22.61,5.05-49.56,3.11-60.53C138.64,190.55,145.71,209,138.3,212.49Z"/><path d="M124.56,256.94c-.39-.64-.8-1.26-1.21-1.86a48.78,48.78,0,0,0-4.15-5.16c7.49-5.66,10.81-7,18-10.91a76,76,0,0,1,2.54,8"/><path class="cls-6" d="M146.33,280.57c0-3.44-3.36-6.23-7.49-6.23-9.94.32-9.93,12.14,0,12.46C143,286.8,146.33,284,146.33,280.57Z"/><ellipse cx="139.5" cy="280.57" rx="2.02" ry="2.88"/><path class="cls-10" d="M97,201.85c0-.12-.89-6.15-.89-6.15l-1.44-.56Z"/><path class="cls-10" d="M94.65,202.57l-2.92-6.32a3.56,3.56,0,0,1-1.18.65C90,197.05,94.65,202.57,94.65,202.57Z"/><path class="cls-10" d="M87.92,197.83s-.35.74-.58.85,5.12,6.82,5.12,6.82Z"/><path class="cls-6" d="M137.23,239c22-21.45,5.25-48.55,3.11-60.53-2.12,9,4.9,28.44-2,34"/><path class="cls-12" d="M114.34,208c11.76,3.86,42.39,36,26-29.5-3.54,10.41,5.88,26-2,34C133.7,209.82,124.15,209.11,114.34,208Z"/><path d="M131.5,281.69a29.08,29.08,0,0,0,14.83-1.12C147.24,287.16,133.67,290.5,131.5,281.69Z"/><path class="cls-13" d="M140.61,256l3,6.59a21.44,21.44,0,0,1,8.52,20.78,13,13,0,0,0,1.57-6.54c0-10.06-8.58-15.55-8.58-15.55a18.85,18.85,0,0,1-3-5.76Z"/><path class="cls-14" d="M128.89,259.72l-2.6.83s-4.23,20.24,4.46,27.33l.47.21C125.62,277.31,128.65,260.91,128.89,259.72Z"/><path class="cls-10" d="M100.71,215.53l.27-.69C91.6,210,88.33,202.56,87.23,198.71c-.27.39-1.27,1.73-2,.88s1.14,8.85,11.66,13.88Z"/><path class="cls-15" d="M110.59,242.16c-4.17-10.91-10.68-32.17-3.17-42.95,12.87-14.69,12.44-16.56,12.87-20a19.49,19.49,0,0,0-2.66,5s-16,3.44-15.63,28.06l-1.22,3.05A38.8,38.8,0,0,0,110.59,242.16Z"/><path class="cls-6" d="M1616.18,860.7a161.63,161.63,0,0,1,27.88-21.38l-4.06-9.6-3.72-5.56-14.53,8.14c-7.77,5.23-14.9-5.29-6.77-10.85,27.35-24.78,74.74-43.21,137.44-56.77l34-4.87c13-1.37,14.63,14.35,1.66,15.72l-26,2.06s1.15,14.58,1,17.15h0l21-4c12.59-1.87,13.64,14.39,1.06,16.26l-25.25,3c-59.77,8.24-137.45,61.66-137.45,61.66C1614.42,877.88,1608.09,867,1616.18,860.7Z"/><path class="cls-16" d="M1693.46,833.24a4.79,4.79,0,0,1-2.74-2.45c-2-4.64,6-12.39,17.65-17.29s22.76-5.13,24.71-.49c.61,1.46.25,3.22-.89,5.1A317.48,317.48,0,0,0,1693.46,833.24Z"/><path class="cls-17" d="M1616.22,873.32c62.23-61.26,161.43-70.34,176.75-71.4-1.31,2.46-3.93,4.51-7.92,5.1l-25.25,3c-59.77,8.24-137.45,61.66-137.45,61.66C1620.07,873.49,1617.93,873.85,1616.22,873.32Z"/><path class="cls-17" d="M1621.75,832.3c-2.71,1.82-5.34,1.73-7.28.6A153.59,153.59,0,0,1,1637,821.53L1633,826Z"/><path class="cls-17" d="M1788.05,775.53l-24.31,1.92L1760.1,776c11.87-3.47,27.14-4.17,35.47-4.27C1794.16,773.64,1791.68,775.15,1788.05,775.53Z"/><path class="cls-18" d="M1795,801.8l0-.12a9.47,9.47,0,0,0-1.23-9.36c-1.28-1.61-4.28-4.17-10.08-3.31l-19,3.6c-.12-3.68-.59-10.19-.84-13.4l24.29-1.91a12.47,12.47,0,0,0,8.22-3.82,9,9,0,0,0-1.42-13.42,12.46,12.46,0,0,0-8.79-2L1752.05,763c-66.35,14.35-111.55,33-138.18,57.11-4.89,3.42-5.15,8.59-2.86,12s6.94,4.93,11.67,1.79l14.17-7.81,5.58,12.14A169.73,169.73,0,0,0,1615,859.37c-5,4-5.34,9.9-2.69,13.3,2.19,2.8,6.45,4,11.07.48,2.12-1.45,78.51-53.32,136.65-61.33l25.22-3C1789.94,808.08,1793.46,805.55,1795,801.8ZM1760.1,776l.13,1.77c.32,4,1.11,14.89,1,16.89l-.15,2.29,23.26-4.41c2.93-.43,5.33.28,6.72,2a5.94,5.94,0,0,1,.7,5.86c-1,2.6-3.56,4.38-7,4.89l-25.2,3c-59.53,8.21-137.47,61.42-138.25,62l-.08.06c-2.41,1.87-4.77,1.94-6.15.17-1.57-2-1.35-5.64,2.16-8.39l.15-.13A159.61,159.61,0,0,1,1645,840.83l1.29-.8-8.44-18.91-17.09,9.71c-3,2-5.57,1-6.82-.8s-1.2-4.9,2-7.12l.19-.15c25.77-23.35,71.72-42.3,136.57-56.33l33.9-4.87c5.41-.57,8.23,2.33,8.54,5.27a5.54,5.54,0,0,1-1.42,4.3,9,9,0,0,1-5.9,2.64Z"/><path class="cls-6" d="M1642.32,837c-6.88,6.27-15.21-6.36-4.63-9.61"/><path class="cls-16" d="M1638,827.91c-8.65,3.11-2.74,8.76-2.74,8.76-3.57-5.24,3.29-7.59,3.29-7.59Z"/><path class="cls-18" d="M1634.94,827.42a11.58,11.58,0,0,1,2.44-1.06,1.06,1.06,0,0,1,.62,2c-2.61.8-4.13,2.29-4.28,4.2a5,5,0,0,0,2.77,4.64,4.42,4.42,0,0,0,5.11-1,1.07,1.07,0,0,1,1.5.07,1.06,1.06,0,0,1-.07,1.49,6.48,6.48,0,0,1-7.46,1.36,7.05,7.05,0,0,1-4-6.71A6.39,6.39,0,0,1,1634.94,827.42Z"/><path class="cls-6" d="M1709,763.58a19.27,19.27,0,0,0-2.87-3.14c-1.75-1.52-3.46-2.43-7.19-4-5.9-2.53-5.8-2-8.39-3.4a39.4,39.4,0,0,1-7.17-5c-3.58-2.93-5.55-4.54-7.42-7.35-1.72-2.58-4-6-3.37-10.3a12.37,12.37,0,0,1,3.89-7.12c5-5.23,10.49-5.14,14.68,1.35,2.51,3.57,1.56,5.34,4.52,10.95a21.24,21.24,0,0,0,3.24,4.92c1.3,1.43,2.33,2.09,7.43,5.2,5.38,3.29,6.07,3.67,7.57,4.69a71.15,71.15,0,0,1,6.31,4.78"/><path class="cls-19" d="M1714.71,751.69c-5.58-3.1-9.57-5.2-12.63-6.73a17.31,17.31,0,0,1-3.47-2.21,18.63,18.63,0,0,1-4.73-6.22c-.34-.67-.27-.6-2.73-7.15-1-2.63-1.5-4-2.49-5.07a8.76,8.76,0,0,0-4.31-2.76c-3.19-.75-6.87,1-9.35,4.34l3.75-4.17,3.81-1.83,4.32.13,3.45,3.4,2.22,3.82,1.51,4.43,1.46,3.58,4,6,15,9.85.44.4Z"/><path class="cls-16" d="M1705.1,758.25c-.2-.17.32-1.17-1.94-2.86a29.52,29.52,0,0,0-5.27-2.5,62.87,62.87,0,0,1-7.27-3.14c-5.28-2.72-8.09-6.92-9.23-8.19-1.78-2-4-5-4.27-8.78-.55-6.36,6.56-11.52,7.64-12.74l-4.64.4-5.77,5.46-1.61,4.9,1,5.41,1.84,3.34,5,5.71,6.32,5,4.81,2.79,6,2.61,6.93,3.19Z"/><path class="cls-18" d="M1708.78,763.73a19,19,0,0,0-5.72-4.64c-2.19-1.1-4.58-2-6.91-2.93-1.77-.72-3.66-1.21-5.4-2a39.72,39.72,0,0,1-8-5.42,48.77,48.77,0,0,1-5.79-5.15,23.8,23.8,0,0,1-2.36-3.16,16.88,16.88,0,0,1-3-7.41c-.54-5.11,2.35-9.2,6.21-12.23,4.79-3.66,9.83-2.64,13.37,2.08.18.25.68.94.86,1.21a16,16,0,0,1,2.34,5.51,29.31,29.31,0,0,0,2.84,6.8,17.93,17.93,0,0,0,2,3,12,12,0,0,0,2.63,2.39c2,1.4,4.24,2.71,6.36,4.08l3.21,2a57.22,57.22,0,0,1,9,7.08l-.32.37c-2-1.52-4.09-3-6.23-4.3-3.19-2-6.58-3.8-9.81-5.77a35.62,35.62,0,0,1-4.86-3.27c-2.5-2.26-4-5.22-5.4-8.23-1.08-2.24-1.44-4.94-2.51-7.1-2.82-5.11-6.94-8.33-12.28-4.29-4.45,3.53-7,8.16-4.52,13.75a28,28,0,0,0,3.93,6.13,49.36,49.36,0,0,0,5.52,5,32.9,32.9,0,0,0,9.29,6,73.71,73.71,0,0,1,7.08,2.92,36.34,36.34,0,0,1,3.44,1.79,16.69,16.69,0,0,1,5.49,5.47l-.42.31Z"/><path class="cls-18" d="M1706.71,753.39a64.49,64.49,0,0,1-25.19-18.2,3.37,3.37,0,1,1,5.12-4.37,64,64,0,0,0,9.21,11.88,61.9,61.9,0,0,0,11.64,9.13.88.88,0,0,1-.78,1.56Z"/><path class="cls-6" d="M1732.18,743.59c13.78.72,20.68,10.3,20.73,21.44q-.9,16.51-12.26,26.82c-11,11.48-44.1-.42-42-21.64C1699.78,760.38,1705.26,742.51,1732.18,743.59Z"/><path class="cls-16" d="M1748.8,752.8c-10-17.22-42.86-8.75-42.66,2.86.9-1,23.15-19.41,42.45-2.66"/><path class="cls-19" d="M1751.65,765.63s-6.79,22.52-21.52,26.53-30.52-16.23-30.52-16.23,1.41,17.84,27.39,19.3S1751.65,765.63,1751.65,765.63Z"/><path class="cls-18" d="M1713.83,794.23c-8.68-4-17.54-12.46-16.36-24.16,1.2-10.82,7.31-28.81,34.76-27.71h0c13.24.69,21.83,9.59,21.89,22.66v.07c-.61,11.29-4.87,20.59-12.63,27.65l-.44.43C1735.32,798.57,1724.25,799,1713.83,794.23Zm26-3.29c7.28-6.61,11.27-15.33,11.86-25.94-.07-11.65-7.75-19.57-19.56-20.19-25.46-1-31.12,15.56-32.22,25.52-1.05,10.4,7,18,14.95,21.67,9.62,4.44,20.09,4,24.91-1l0,0Z"/><ellipse cx="1734.72" cy="751.5" rx="2.16" ry="2.27" transform="translate(-43.89 1392.25) rotate(-43.23)"/><ellipse cx="1733.39" cy="761.07" rx="2.27" ry="1.58" transform="translate(318.32 2018.63) rotate(-65.33)"/><ellipse cx="1721.31" cy="773.5" rx="2.59" ry="2.73" transform="translate(250.06 1955.29) rotate(-62.97)"/><path d="M1735.92,765.48a.56.56,0,0,0,.1-.15,3.28,3.28,0,0,0-.2-3.21,2.5,2.5,0,0,0,.78-.21,3.68,3.68,0,0,0,1.73-2.27.42.42,0,0,0-.25-.53.41.41,0,0,0-.52.25,2.93,2.93,0,0,1-1.31,1.81,1.9,1.9,0,0,1-1.5,0l-.32.75c.07,0,1.7.91.82,3.13a.41.41,0,0,0,.23.53A.41.41,0,0,0,1735.92,765.48Z"/><g id="EAR_1" data-name="EAR 1"><path class="cls-6" d="M1704.66,768.67a9.37,9.37,0,0,0-2.84-1.59c-2.22-1-4.21-1.42-8.45-1.91-6.7-.78-6.46-.32-9.47-.91a41.79,41.79,0,0,1-8.73-2.89c-4.48-1.88-6.94-2.91-9.67-5.18-2.5-2.09-5.8-4.83-6.48-9.38a13.06,13.06,0,0,1,1.79-8.34c3.51-6.77,9-8.31,15.2-3,3.6,2.84,3.17,4.92,7.83,9.68a22.22,22.22,0,0,0,4.73,4c1.75,1,3,1.41,9,3,6.41,1.7,7.22,1.88,9,2.45,1.21.39,3.84,1.31,4.85,1.72"/><path class="cls-16" d="M1704.94,768.58s0-3.55-13.91-6a43.76,43.76,0,0,1-16.24-4.83c-4.66-2.19-9.43-4.82-11.73-10.14-2.58-6.53,3.26-14,3.26-14l-2.66,1.25-3.85,7.56-.32,4.56,2.41,5.07,5.87,5.09,4,2.27,6.54,2.66,5.53,1.79,3.83.46,4,.11,3,.73,3.23.64,3.06.84Z"/><path class="cls-18" d="M1704.39,768.9a5.87,5.87,0,0,0-1.56-.85,19.34,19.34,0,0,0-5.38-1.62,112.25,112.25,0,0,0-11.47-.95,37.42,37.42,0,0,1-11.37-3.26,54.51,54.51,0,0,1-7.14-3.32c-4.46-2.92-9.16-6.95-9.67-12.63-.55-5,2.81-11.84,7.35-14.27,4.79-2.55,10.09.65,13.4,4.16a57.29,57.29,0,0,1,3.36,4.87c2.18,2.87,4.78,5.79,8,7.53a48.1,48.1,0,0,0,7.11,2.33c1.84.52,5.57,1.64,7.4,2.21a62.78,62.78,0,0,1,7.23,2.92.3.3,0,0,1,.15.4.29.29,0,0,1-.34.16c-2.51-.61-4.93-1.43-7.45-2-1.89-.41-5.66-1.28-7.53-1.73a41.4,41.4,0,0,1-7.59-2.35c-3.57-1.89-6.41-5-8.86-8.15-1.43-1.95-2.36-4-4.17-5.54-2.55-2.27-6.22-4.53-9.58-2.72a14.4,14.4,0,0,0-6.17,11.92c.26,3.68,2.77,6.55,5.53,8.82,2.83,2.58,6.21,4,9.77,5.49a37.44,37.44,0,0,0,10.75,3.29c2.51.16,5.2.41,7.71.79a24.5,24.5,0,0,1,9.39,2.79,6,6,0,0,1,1.7,1.2.36.36,0,0,1,0,.5.36.36,0,0,1-.49,0Z"/></g><path class="cls-18" d="M1697.88,760.4a67.63,67.63,0,0,1-30.38-12,3.54,3.54,0,1,1,4.08-5.78,66.53,66.53,0,0,0,12.47,9.71,64.56,64.56,0,0,0,14.22,6.29.92.92,0,0,1-.39,1.78Z"/><ellipse class="cls-6" cx="1735.03" cy="750.81" rx="0.65" ry="0.98" transform="translate(277.75 1955.13) rotate(-62.97)"/><ellipse class="cls-6" cx="1721.78" cy="772.29" rx="0.65" ry="0.98" transform="translate(251.39 1955.05) rotate(-62.97)"/><path class="cls-20" d="M515.28,347.08l-78.56,13.43-5.88-34.42,11.57-2-3.9-22.84-45.19-45.89-9.82,1.67-5.89-34.42,75.15-12.85,5.89,34.43-8.58,1.46,20.31,26.74,13.49-32.52-8.79,1.51L469.2,207l55.3-9.45,5.88,34.42-9,1.54-27.27,58.28,3.9,22.85,11.37-1.95Z"/><path class="cls-20" d="M540.45,268.41a75.45,75.45,0,0,1,2.83-36.33q5.82-18.24,22.15-32.84a68.36,68.36,0,0,1,12.29-8.69A89.89,89.89,0,0,1,592,184.32a109.7,109.7,0,0,1,16.73-4.19q38.67-6.6,63.72,12.41A80.17,80.17,0,0,1,692.54,214a72.65,72.65,0,0,1,10.09,26.68q5.14,30.09-13,56.05t-55.43,32.36q-36.08,6.17-62.07-10.88T540.45,268.41Zm62.43-10.67q4.11,24,10.19,31.56,5.88,7.71,15.4,6.09a15.39,15.39,0,0,0,12.66-10.57q3.24-9.06-.93-33.46-4.05-23.67-10.06-31.47t-15.61-6.06A15.3,15.3,0,0,0,602,224.38Q598.71,233.35,602.88,257.74Z"/><path class="cls-20" d="M724,198.84l-11.06,1.89L707,166.31l73.6-12.59,5.89,34.43-6.82,1.16L788,237.79q3,17.37,7.36,23.11t12.95,4.17q7.13-1.23,9.43-7t-.42-21.74l-8.87-51.89-7.23,1.24-5.89-34.43L849.38,142l5.89,34.42-11.37,2,8.9,52.09q3.42,19.95-.2,33.66t-15.85,23q-12.22,9.44-31.86,12.79a95,95,0,0,1-28.66,1q-13.05-1.61-21.59-8a46.9,46.9,0,0,1-13.77-16.48q-5.31-9.84-9-31.44Z"/><path class="cls-20" d="M1013.41,263.19l-45.27,7.74L908.71,167.26,898.79,169l-5.89-34.42,74.53-12.74,5.88,34.42-10.75,1.84,27.54,59,10.92-65.6-10.65,1.82-5.89-34.42,62.64-10.71,5.89,34.42-10.65,1.82,32.4,58.19,6.57-64.85L1071,139.51l-5.89-34.42,58-9.92,5.89,34.42-9.93,1.7-22,117.6-44.66,7.64-28.9-52.09Z"/><path class="cls-20" d="M1140.19,165.87a75.5,75.5,0,0,1,2.83-36.34q5.82-18.23,22.15-32.83A67.86,67.86,0,0,1,1177.46,88a90.29,90.29,0,0,1,14.31-6.23,108.54,108.54,0,0,1,16.73-4.19Q1247.17,71,1272.22,90a80.17,80.17,0,0,1,20.06,21.46,72.65,72.65,0,0,1,10.09,26.68q5.14,30.09-13,56.05T1234,226.54q-36.08,6.18-62.07-10.87T1140.19,165.87Zm62.43-10.67q4.11,24,10.19,31.56,5.88,7.71,15.4,6.09a15.4,15.4,0,0,0,12.66-10.57q3.24-9.08-.93-33.46-4.05-23.67-10.06-31.48t-15.61-6a15.3,15.3,0,0,0-12.56,10.55Q1198.46,130.81,1202.62,155.2Z"/><path class="cls-20" d="M1391.12,197.34l-59,10.09L1326.21,173l12.61-2.16L1326,95.91l-12.61,2.15-5.88-34.42L1375.63,52l65.15,66.2-7-40.73-11.68,2-5.89-34.42,58-9.91,5.89,34.42-12.51,2.14,19,111.22L1439.29,191l-75.43-76.57,8.66,50.65,12.71-2.18Z"/><path class="cls-20" d="M647.5,374.53h-2.22V370.4H655a20.81,20.81,0,0,1-.5,5.3,9.67,9.67,0,0,1-5.7,5.87,13.52,13.52,0,0,1-4.63.78,17.61,17.61,0,0,1-6.67-1.21,9.29,9.29,0,0,1-4.66-3.94,11.39,11.39,0,0,1-1.65-6.06,10.64,10.64,0,0,1,3.34-8.19,11.45,11.45,0,0,1,8.13-3.11,9.38,9.38,0,0,1,6.29,2v-1.51h5.24v7.59H649a5.14,5.14,0,0,0-1.79-2.13,4.65,4.65,0,0,0-2.57-.71,3.48,3.48,0,0,0-3,1.34c-.63.9-.95,2.54-.95,4.94s.33,4,1,4.86a3.53,3.53,0,0,0,2.95,1.29A2.6,2.6,0,0,0,647.5,374.53Z"/><path class="cls-20" d="M658,374.35a7,7,0,0,1,2.81-5.64,11.63,11.63,0,0,1,7.59-2.29,12.88,12.88,0,0,1,7.83,2.22,6.85,6.85,0,0,1,3,5.78,7,7,0,0,1-2.88,5.73,11.82,11.82,0,0,1-7.59,2.3q-5.1,0-7.94-2.3A7.1,7.1,0,0,1,658,374.35Zm8,0q0,3.62,2.59,3.62c1.84,0,2.75-1.22,2.75-3.66a4.34,4.34,0,0,0-.67-2.59,2.28,2.28,0,0,0-1.94-.92,2.45,2.45,0,0,0-2,.9A4.08,4.08,0,0,0,666,374.39Z"/><path class="cls-20" d="M682,374.35a7,7,0,0,1,2.81-5.64,11.63,11.63,0,0,1,7.59-2.29,12.88,12.88,0,0,1,7.83,2.22,6.85,6.85,0,0,1,3,5.78,7,7,0,0,1-2.88,5.73,11.82,11.82,0,0,1-7.59,2.3q-5.1,0-7.94-2.3A7.1,7.1,0,0,1,682,374.35Zm8,0q0,3.62,2.59,3.62c1.84,0,2.75-1.22,2.75-3.66a4.34,4.34,0,0,0-.67-2.59,2.28,2.28,0,0,0-1.94-.92,2.45,2.45,0,0,0-2,.9A4.08,4.08,0,0,0,690,374.39Z"/><path class="cls-20" d="M729.17,377.24V382h-9.83v-1a9.68,9.68,0,0,1-5.06,1.3,8.89,8.89,0,0,1-5.67-2,6.71,6.71,0,0,1-2.47-5.6,7.92,7.92,0,0,1,2.28-6.06,8.68,8.68,0,0,1,6.11-2.11,8.9,8.9,0,0,1,4.81,1.25V365h-1.93v-4.76h9.79v17Zm-9.78-2.87a4.1,4.1,0,0,0-.66-2.38,2.21,2.21,0,0,0-2-.93q-2.67,0-2.67,3.45a3.9,3.9,0,0,0,.66,2.34,2.18,2.18,0,0,0,2,.94,2.48,2.48,0,0,0,1.94-.83A3.82,3.82,0,0,0,719.39,374.37Z"/><path class="cls-20" d="M738.14,388.46v-4.28a5.39,5.39,0,0,0,2.16-.29,1.35,1.35,0,0,0,.7-.94,28.47,28.47,0,0,0,.14-3.83v-7.5h-1.55v-4.77H749v12a26.06,26.06,0,0,1-.38,5.36,5,5,0,0,1-1.37,2.56,5.47,5.47,0,0,1-2.5,1.41,15.9,15.9,0,0,1-4,.4A19.33,19.33,0,0,1,738.14,388.46Zm2.52-25.89a2.23,2.23,0,0,1,1.25-2,5.89,5.89,0,0,1,3.09-.75,5.38,5.38,0,0,1,3.06.78,2.32,2.32,0,0,1,1.14,1.94,2.21,2.21,0,0,1-1.2,1.95,5.71,5.71,0,0,1-3,.73,6.35,6.35,0,0,1-3.08-.67A2.12,2.12,0,0,1,740.66,362.57Z"/><path class="cls-20" d="M752.66,374.35a7,7,0,0,1,2.81-5.64,11.63,11.63,0,0,1,7.59-2.29,12.88,12.88,0,0,1,7.83,2.22,6.85,6.85,0,0,1,3,5.78,7,7,0,0,1-2.88,5.73,11.82,11.82,0,0,1-7.59,2.3c-3.4,0-6-.77-7.94-2.3A7.1,7.1,0,0,1,752.66,374.35Zm8,0q0,3.62,2.59,3.62c1.84,0,2.75-1.22,2.75-3.66a4.34,4.34,0,0,0-.67-2.59,2.28,2.28,0,0,0-1.94-.92,2.45,2.45,0,0,0-2,.9A4.08,4.08,0,0,0,760.61,374.39Z"/><path class="cls-20" d="M786,382h-9.85v-4.77h2V365h-2v-4.76H786v7.54a9,9,0,0,1,4.86-1.25,8.75,8.75,0,0,1,6,2.07,7.06,7.06,0,0,1,2.36,5.6,8.49,8.49,0,0,1-.57,3.18,7.7,7.7,0,0,1-1.72,2.56,7.62,7.62,0,0,1-5.68,2.31A10,10,0,0,1,786,381Zm-.06-7.64q0,3.42,2.71,3.42c1.72,0,2.58-1.13,2.58-3.4a3.77,3.77,0,0,0-.72-2.49,2.4,2.4,0,0,0-1.92-.84,2.3,2.3,0,0,0-2,.92A4,4,0,0,0,785.91,374.37Z"/><path class="cls-20" d="M802.42,388.31v-3.05a3.94,3.94,0,0,0,1.91-.37,1.67,1.67,0,0,0,.81-.9,7.78,7.78,0,0,0,.19-2h-2.91v-5.69h7.8v4.86a21.54,21.54,0,0,1-.19,3.58,3.76,3.76,0,0,1-1.09,1.91,4.74,4.74,0,0,1-2.21,1.29A18.43,18.43,0,0,1,802.42,388.31Z"/><path class="cls-20" d="M827.58,389H821v-4.61h2.55l.77-1.54-5.82-11.19h-1.17v-4.77h10.33v4.77h-1.67l2.64,5.95,2.44-5.95h-1.47v-4.77h7.82v4.77h-1.51Z"/><path class="cls-20" d="M838.69,374.35a7,7,0,0,1,2.81-5.64,11.65,11.65,0,0,1,7.59-2.29,12.88,12.88,0,0,1,7.83,2.22,6.85,6.85,0,0,1,3,5.78,7,7,0,0,1-2.88,5.73,11.8,11.8,0,0,1-7.59,2.3c-3.4,0-6-.77-7.94-2.3A7.1,7.1,0,0,1,838.69,374.35Zm7.95,0q0,3.62,2.59,3.62c1.84,0,2.75-1.22,2.75-3.66a4.34,4.34,0,0,0-.67-2.59,2.28,2.28,0,0,0-1.94-.92,2.45,2.45,0,0,0-2,.9A4.08,4.08,0,0,0,846.64,374.39Z"/><path class="cls-20" d="M863.87,371.62h-1.82v-4.77h9.68v7.22a5.8,5.8,0,0,0,.35,2.46,1.44,1.44,0,0,0,1.4.64,4.51,4.51,0,0,0,2.44-.71v-4.84h-2.08v-4.77h9.94v10.39h1.83V382h-9.69v-1.92a10.86,10.86,0,0,1-6.36,2.2,5.83,5.83,0,0,1-4-1.48c-1.12-1-1.69-2.86-1.69-5.6Z"/><path class="cls-20" d="M899.91,382H887.69v-4.77h2.06v-5.62h-2.06v-4.77h9.4v3.8a6.38,6.38,0,0,1,1.64-2.45,5.28,5.28,0,0,1,2.16-1.33,11.9,11.9,0,0,1,3.08-.3v6.67h-.66a10.07,10.07,0,0,0-3.58.48,3.11,3.11,0,0,0-1.65,1.32,4.8,4.8,0,0,0-.47,2.21h2.3Z"/><path class="cls-20" d="M936.53,377.24V382H926.7v-1a9.68,9.68,0,0,1-5.06,1.3,8.87,8.87,0,0,1-5.67-2,6.71,6.71,0,0,1-2.47-5.6,7.92,7.92,0,0,1,2.28-6.06,8.68,8.68,0,0,1,6.11-2.11,8.9,8.9,0,0,1,4.81,1.25V365h-1.93v-4.76h9.79v17Zm-9.78-2.87a4.1,4.1,0,0,0-.66-2.38,2.23,2.23,0,0,0-2-.93q-2.67,0-2.67,3.45a4,4,0,0,0,.65,2.34,2.2,2.2,0,0,0,2,.94A2.48,2.48,0,0,0,926,377,3.87,3.87,0,0,0,926.75,374.37Z"/><path class="cls-20" d="M939,374.35a7,7,0,0,1,2.81-5.64,11.68,11.68,0,0,1,7.6-2.29,12.9,12.9,0,0,1,7.83,2.22,6.86,6.86,0,0,1,3,5.78,7.07,7.07,0,0,1-2.87,5.73,11.83,11.83,0,0,1-7.6,2.3q-5.09,0-7.94-2.3A7.13,7.13,0,0,1,939,374.35Zm8,0q0,3.62,2.6,3.62t2.75-3.66a4.41,4.41,0,0,0-.67-2.59,2.3,2.3,0,0,0-1.94-.92,2.47,2.47,0,0,0-2,.9A4.08,4.08,0,0,0,947,374.39Z"/><path class="cls-20" d="M964,387.62l2.16-3.84a12.94,12.94,0,0,0,4.9.76,7.11,7.11,0,0,0,3.18-.58,2.84,2.84,0,0,0,1.48-1.32,6,6,0,0,0,.31-2.18,11.43,11.43,0,0,1-5.26,1.19,8.6,8.6,0,0,1-5.72-1.94,6.46,6.46,0,0,1-2.36-5.32,7.16,7.16,0,0,1,2.45-5.71,8.77,8.77,0,0,1,5.91-2.11,9.74,9.74,0,0,1,5,1.25v-1h9.72v4.77h-1.89v8.31a14.27,14.27,0,0,1-.5,4.28,5.59,5.59,0,0,1-1.84,2.57,8.07,8.07,0,0,1-3.33,1.59,21.83,21.83,0,0,1-5.27.52c-1,0-1.85,0-2.61-.1s-1.65-.17-2.64-.31A19.24,19.24,0,0,1,964,387.62Zm6.64-13.09a3.72,3.72,0,0,0,.71,2.31,2.62,2.62,0,0,0,4,0,3.83,3.83,0,0,0,.67-2.33,4.07,4.07,0,0,0-.71-2.48,2.35,2.35,0,0,0-2-1,2.3,2.3,0,0,0-2,1A4.17,4.17,0,0,0,970.67,374.53Z"/><path class="cls-20" d="M1006.55,382H995.81v-4.77h1.57v-5.62h-1.57v-4.77h9.42v10.39h1.32Zm-9.83-19.44a2.24,2.24,0,0,1,1.26-2,6,6,0,0,1,3.1-.75,5.33,5.33,0,0,1,3,.78,2.34,2.34,0,0,1,1.15,1.94,2.2,2.2,0,0,1-1.19,1.95,5.71,5.71,0,0,1-3,.73,6.44,6.44,0,0,1-3.1-.67A2.12,2.12,0,0,1,996.72,362.57Z"/><path class="cls-20" d="M1014.42,382.2h-4.86v-4.81h4.55a5.24,5.24,0,0,0,3.83,1.84c1.39,0,2.09-.29,2.09-.86a.72.72,0,0,0-.45-.67,14.35,14.35,0,0,0-2.49-.74c-1.08-.29-2.28-.63-3.59-1a8.45,8.45,0,0,1-2.69-1.22,4.17,4.17,0,0,1-1.36-1.44,3.91,3.91,0,0,1-.37-1.84,4.15,4.15,0,0,1,1.78-3.71,8,8,0,0,1,4.48-1.17,9.55,9.55,0,0,1,4.72,1.07v-.79h4.8v4.41h-4.44a5.52,5.52,0,0,0-3.94-1.58c-1.19,0-1.79.32-1.79,1,0,.3.17.5.53.59s1.3.32,3,.67a32.26,32.26,0,0,1,4.51,1.22,5.62,5.62,0,0,1,2.43,1.61,3.81,3.81,0,0,1,.79,2.45,4.29,4.29,0,0,1-2,3.88,8.76,8.76,0,0,1-4.78,1.23,10.2,10.2,0,0,1-4.8-1Z"/><path class="cls-20" d="M1036.53,371.62v-4.77h9.69v1a11.08,11.08,0,0,1,5.14-1.3,8.36,8.36,0,0,1,5.8,2.19,7.46,7.46,0,0,1,2.4,5.77,7.16,7.16,0,0,1-2.36,5.67,9,9,0,0,1-6.17,2.09,8.84,8.84,0,0,1-4.81-1.25v3.16h2V389H1036.5V384.2h1.86V371.62Zm9.64,2.87a3.56,3.56,0,0,0,.75,2.47,2.34,2.34,0,0,0,1.86.85q2.67,0,2.67-3.41c0-2.22-.85-3.33-2.56-3.33a2.53,2.53,0,0,0-1.94.82A3.69,3.69,0,0,0,1046.17,374.49Z"/><path class="cls-20" d="M1074.27,382h-12.22v-4.77h2.06v-5.62h-2.06v-4.77h9.4v3.8a6.38,6.38,0,0,1,1.64-2.45,5.28,5.28,0,0,1,2.16-1.33,11.9,11.9,0,0,1,3.08-.3v6.67h-.66a10.07,10.07,0,0,0-3.58.48,3.11,3.11,0,0,0-1.65,1.32,4.68,4.68,0,0,0-.47,2.21h2.3Z"/><path class="cls-20" d="M1079.73,374.35a7,7,0,0,1,2.82-5.64,11.63,11.63,0,0,1,7.59-2.29,12.88,12.88,0,0,1,7.83,2.22,6.84,6.84,0,0,1,3,5.78,7,7,0,0,1-2.87,5.73,11.82,11.82,0,0,1-7.59,2.3q-5.1,0-7.94-2.3A7.11,7.11,0,0,1,1079.73,374.35Zm8,0q0,3.62,2.59,3.62,2.74,0,2.75-3.66a4.34,4.34,0,0,0-.67-2.59,2.3,2.3,0,0,0-1.94-.92,2.45,2.45,0,0,0-2,.9A4.08,4.08,0,0,0,1087.69,374.39Z"/><path class="cls-20" d="M1104.92,371.62h-1.83v-4.77h9.69v7.22a6,6,0,0,0,.34,2.46,1.45,1.45,0,0,0,1.41.64,4.51,4.51,0,0,0,2.44-.71v-4.84h-2.08v-4.77h9.94v10.39h1.83V382H1117v-1.92a10.86,10.86,0,0,1-6.36,2.2,5.81,5.81,0,0,1-4-1.48q-1.69-1.49-1.69-5.6Z"/><path class="cls-20" d="M1152.23,377.24V382h-9.82v-1a9.71,9.71,0,0,1-5.07,1.3,8.91,8.91,0,0,1-5.67-2,6.74,6.74,0,0,1-2.47-5.6,7.92,7.92,0,0,1,2.28-6.06,8.68,8.68,0,0,1,6.11-2.11,9,9,0,0,1,4.82,1.25V365h-1.94v-4.76h9.8v17Zm-9.78-2.87a4.17,4.17,0,0,0-.65-2.38,2.24,2.24,0,0,0-2-.93q-2.67,0-2.67,3.45a3.9,3.9,0,0,0,.66,2.34,2.19,2.19,0,0,0,2,.94,2.48,2.48,0,0,0,1.94-.83A3.82,3.82,0,0,0,1142.45,374.37Z"/><path class="cls-20" d="M1162.73,374.35a7,7,0,0,1,2.82-5.64,11.63,11.63,0,0,1,7.59-2.29,12.88,12.88,0,0,1,7.83,2.22,6.84,6.84,0,0,1,3,5.78,7,7,0,0,1-2.87,5.73,11.82,11.82,0,0,1-7.59,2.3q-5.1,0-7.94-2.3A7.11,7.11,0,0,1,1162.73,374.35Zm8,0q0,3.62,2.59,3.62,2.74,0,2.75-3.66a4.34,4.34,0,0,0-.67-2.59,2.3,2.3,0,0,0-1.94-.92,2.45,2.45,0,0,0-2,.9A4.08,4.08,0,0,0,1170.69,374.39Z"/><path class="cls-20" d="M1198.77,382H1186.5v-4.77h1.92v-5.62h-1.92v-4.77h1.92v-.36a6.46,6.46,0,0,1,1-3.81,6.17,6.17,0,0,1,2.65-2.12,14.63,14.63,0,0,1,5.41-.72q1.68,0,3.33.06v4.24a18.16,18.16,0,0,0-1.95-.11,4,4,0,0,0-1.68.28,1.48,1.48,0,0,0-.79.79,4.92,4.92,0,0,0-.21,1.75h2.91v4.77h-2.91v5.62h2.57Z"/><path class="cls-20" d="M1218.62,389H1212v-4.61h2.55l.76-1.54-5.81-11.19h-1.17v-4.77h10.33v4.77H1217l2.64,5.95,2.44-5.95h-1.47v-4.77h7.83v4.77h-1.51Z"/><path class="cls-20" d="M1229.73,374.35a7,7,0,0,1,2.82-5.64,11.63,11.63,0,0,1,7.59-2.29,12.88,12.88,0,0,1,7.83,2.22,6.84,6.84,0,0,1,3,5.78,7,7,0,0,1-2.87,5.73,11.82,11.82,0,0,1-7.59,2.3q-5.1,0-7.94-2.3A7.11,7.11,0,0,1,1229.73,374.35Zm8,0q0,3.62,2.59,3.62,2.74,0,2.75-3.66a4.34,4.34,0,0,0-.67-2.59,2.3,2.3,0,0,0-1.94-.92,2.45,2.45,0,0,0-2,.9A4.08,4.08,0,0,0,1237.69,374.39Z"/><path class="cls-20" d="M1254.92,371.62h-1.83v-4.77h9.69v7.22a6,6,0,0,0,.34,2.46,1.45,1.45,0,0,0,1.41.64,4.51,4.51,0,0,0,2.44-.71v-4.84h-2.08v-4.77h9.94v10.39h1.83V382H1267v-1.92a10.86,10.86,0,0,1-6.36,2.2,5.81,5.81,0,0,1-4-1.48q-1.69-1.49-1.69-5.6Z"/><path class="cls-20" d="M1287.94,382h-7.8v-5.69h7.8Zm-1.25-8.73h-5.33l-1.09-6.77v-6.23h7.54v6.11Z"/><path class="cls-20" d="M672,458.81h-12.2v-5.2h1.87V442.28h-2.5v4h-4.08v-9.15h21.55v9.15h-4.08v-4h-2.48v11.33H672Z"/><path class="cls-20" d="M691.16,458.81H678.94V454H681v-5.62h-2.06v-4.77h9.4v3.8A6.38,6.38,0,0,1,690,445a5.28,5.28,0,0,1,2.16-1.33,11.9,11.9,0,0,1,3.08-.3V450h-.66a10.07,10.07,0,0,0-3.58.48,3.11,3.11,0,0,0-1.65,1.32,4.8,4.8,0,0,0-.47,2.21h2.3Z"/><path class="cls-20" d="M707.45,465.76h-6.62v-4.61h2.54l.77-1.54-5.81-11.19h-1.17v-4.77h10.32v4.77h-1.67l2.64,5.95,2.44-5.95h-1.47v-4.77h7.83v4.77h-1.52Z"/><path class="cls-20" d="M727.2,451.15a7,7,0,0,1,2.82-5.64,11.63,11.63,0,0,1,7.59-2.29,12.88,12.88,0,0,1,7.83,2.22,6.84,6.84,0,0,1,3,5.78,7.07,7.07,0,0,1-2.87,5.73,11.83,11.83,0,0,1-7.6,2.3c-3.39,0-6-.77-7.93-2.3A7.11,7.11,0,0,1,727.2,451.15Zm8,0q0,3.62,2.59,3.62,2.75,0,2.75-3.66a4.31,4.31,0,0,0-.67-2.59,2.3,2.3,0,0,0-1.94-.92,2.45,2.45,0,0,0-2,.9A4.08,4.08,0,0,0,735.16,451.19Z"/><path class="cls-20" d="M762.92,458.81h-12V454h2v-5.62h-2v-4.77h9.81v1.93a10.06,10.06,0,0,1,6.21-2.21,5.64,5.64,0,0,1,4.37,1.61q1.46,1.62,1.46,5.17V454h1.79v4.77h-9.65v-6.73a7.23,7.23,0,0,0-.38-2.91,1.65,1.65,0,0,0-1.55-.69,4.19,4.19,0,0,0-2.25.8V454h2.19Z"/><path class="cls-20" d="M789.58,454l6.48.8a6,6,0,0,1-1.22,1.82,7.49,7.49,0,0,1-1.9,1.4,11.33,11.33,0,0,1-5.42,1.22c-3.54,0-6.19-.74-8-2.21a7.05,7.05,0,0,1-2.68-5.73,7.35,7.35,0,0,1,2.65-5.78,10.26,10.26,0,0,1,7.07-2.31,10.81,10.81,0,0,1,7,2.18c1.77,1.45,2.72,3.66,2.83,6.61H784.48c0,2.46.95,3.69,2.75,3.69A2.43,2.43,0,0,0,789.58,454Zm-5-4H789c0-.31,0-.48,0-.53a3.28,3.28,0,0,0-.62-2,2,2,0,0,0-1.66-.8,1.83,1.83,0,0,0-1.63.87,4.1,4.1,0,0,0-.56,2.19A2.69,2.69,0,0,0,784.58,450Z"/><path class="cls-20" d="M819.11,458.81H807.23V454h1.88v-5.62H807.2v-4.77H817v2.08a10.16,10.16,0,0,1,3-1.65,9.56,9.56,0,0,1,3.47-.71q3.86,0,5.17,3a10.92,10.92,0,0,1,7.11-3,5.75,5.75,0,0,1,3.26.85,4.59,4.59,0,0,1,1.85,2.28,12.39,12.39,0,0,1,.54,4.12V454h2v4.77h-9.86v-6.52a7.64,7.64,0,0,0-.39-3.17,1.53,1.53,0,0,0-1.4-.62,4.26,4.26,0,0,0-2.58,1V454h2.14v4.77h-10v-6.48a9.1,9.1,0,0,0-.34-3.18,1.44,1.44,0,0,0-1.39-.65,4.34,4.34,0,0,0-2.54,1V454h2.13Z"/><path class="cls-20" d="M845.55,451.15a7,7,0,0,1,2.81-5.64,11.65,11.65,0,0,1,7.59-2.29,12.88,12.88,0,0,1,7.83,2.22,6.85,6.85,0,0,1,3,5.78,7,7,0,0,1-2.88,5.73,11.82,11.82,0,0,1-7.59,2.3c-3.4,0-6-.77-7.94-2.3A7.1,7.1,0,0,1,845.55,451.15Zm8,0q0,3.62,2.59,3.62c1.84,0,2.75-1.22,2.75-3.66a4.31,4.31,0,0,0-.67-2.59,2.28,2.28,0,0,0-1.94-.92,2.45,2.45,0,0,0-2,.9A4.08,4.08,0,0,0,853.5,451.19Z"/><path class="cls-20" d="M881.42,458.81H869.2V454h2.07v-5.62H869.2v-4.77h9.41v3.8a6.27,6.27,0,0,1,1.64-2.45,5.28,5.28,0,0,1,2.16-1.33,11.81,11.81,0,0,1,3.07-.3V450h-.65a10,10,0,0,0-3.58.48,3.14,3.14,0,0,0-1.66,1.32,4.8,4.8,0,0,0-.47,2.21h2.3Z"/><path class="cls-20" d="M899.61,454l6.48.8a5.82,5.82,0,0,1-1.22,1.82A7.49,7.49,0,0,1,903,458a11.33,11.33,0,0,1-5.42,1.22q-5.29,0-8-2.21a7,7,0,0,1-2.67-5.73,7.37,7.37,0,0,1,2.64-5.78,10.29,10.29,0,0,1,7.07-2.31,10.81,10.81,0,0,1,7,2.18c1.78,1.45,2.72,3.66,2.83,6.61H894.52c0,2.46.94,3.69,2.75,3.69A2.43,2.43,0,0,0,899.61,454Zm-5-4H899c0-.31,0-.48,0-.53a3.28,3.28,0,0,0-.62-2,2,2,0,0,0-1.66-.8,1.8,1.8,0,0,0-1.62.87,4,4,0,0,0-.57,2.19A2.69,2.69,0,0,0,894.61,450Z"/><path class="cls-20" d="M929.33,453.28v4.66a7.67,7.67,0,0,1-2.22.9,11.5,11.5,0,0,1-2.94.41,7.31,7.31,0,0,1-3-.58,4.48,4.48,0,0,1-1.95-1.59,5.49,5.49,0,0,1-.53-1.06,4.67,4.67,0,0,1-.25-1.07c-.08-.69-.11-2-.11-4v-2.55h-1.94v-4.77h1.94v-2.32l7.86-3.74v6.06h3.17v4.77h-3.17v2.94a4.53,4.53,0,0,0,.26,1.92,1.08,1.08,0,0,0,1.06.48A4.73,4.73,0,0,0,929.33,453.28Z"/><path class="cls-20" d="M942.37,458.81H931.64V454h1.56v-5.62h-1.56v-4.77h9.42V454h1.31Zm-9.82-19.44a2.24,2.24,0,0,1,1.26-2,6,6,0,0,1,3.1-.75,5.33,5.33,0,0,1,3,.78,2.32,2.32,0,0,1,1.14,1.94,2.19,2.19,0,0,1-1.18,1.95,5.78,5.78,0,0,1-3,.73,6.37,6.37,0,0,1-3.09-.67A2.12,2.12,0,0,1,932.55,439.37Z"/><path class="cls-20" d="M956.78,458.81H944.91V454h1.87v-5.62h-1.91v-4.77h9.79v2.08a10.1,10.1,0,0,1,3-1.65,9.56,9.56,0,0,1,3.47-.71c2.57,0,4.3,1,5.17,3a10.92,10.92,0,0,1,7.11-3,5.75,5.75,0,0,1,3.26.85,4.59,4.59,0,0,1,1.85,2.28,12.35,12.35,0,0,1,.55,4.12V454h2v4.77h-9.86v-6.52a7.64,7.64,0,0,0-.39-3.17,1.55,1.55,0,0,0-1.41-.62,4.28,4.28,0,0,0-2.58,1V454h2.14v4.77h-10v-6.48a8.85,8.85,0,0,0-.34-3.18,1.44,1.44,0,0,0-1.39-.65,4.29,4.29,0,0,0-2.53,1V454h2.12Z"/><path class="cls-20" d="M995.94,454l6.48.8a6,6,0,0,1-1.22,1.82,7.49,7.49,0,0,1-1.9,1.4,11.33,11.33,0,0,1-5.42,1.22c-3.54,0-6.19-.74-8-2.21a7,7,0,0,1-2.68-5.73,7.35,7.35,0,0,1,2.65-5.78,10.26,10.26,0,0,1,7.07-2.31,10.81,10.81,0,0,1,7,2.18c1.77,1.45,2.72,3.66,2.83,6.61H990.84c0,2.46.95,3.69,2.75,3.69A2.43,2.43,0,0,0,995.94,454Zm-5-4h4.42c0-.31,0-.48,0-.53a3.28,3.28,0,0,0-.62-2,2,2,0,0,0-1.66-.8,1.83,1.83,0,0,0-1.63.87,4.1,4.1,0,0,0-.56,2.19A2.69,2.69,0,0,0,990.94,450Z"/><path class="cls-20" d="M1019.61,447.89l-6.16-.63a5.91,5.91,0,0,1,3.28-3.14,18.54,18.54,0,0,1,6.6-.9c1.07,0,2,0,2.88.1a20.66,20.66,0,0,1,2.27.3,6.79,6.79,0,0,1,3.08,1.21,4.55,4.55,0,0,1,1.39,1.78,8.51,8.51,0,0,1,.41,3.06V454h1.94v4.77h-9.8v-1a10,10,0,0,1-5.44,1.31,7.27,7.27,0,0,1-4.83-1.4,4.28,4.28,0,0,1-1.64-3.33,4.09,4.09,0,0,1,2-3.49,9.15,9.15,0,0,1,5.22-1.36,11.76,11.76,0,0,1,4.67.77v-.45a6.72,6.72,0,0,0-.2-2,2,2,0,0,0-1-1,3.89,3.89,0,0,0-1.81-.4A3.33,3.33,0,0,0,1019.61,447.89Zm5.89,7.05v-2.77a4.58,4.58,0,0,0-2.22-.56,2.3,2.3,0,0,0-1.64.56,1.92,1.92,0,0,0-.61,1.47,2,2,0,0,0,.63,1.5,2.09,2.09,0,0,0,1.46.59A3.47,3.47,0,0,0,1025.5,454.94Z"/><path class="cls-20" d="M1049.28,458.81h-12V454h2v-5.62h-2v-4.77h9.81v1.93a10.06,10.06,0,0,1,6.21-2.21,5.64,5.64,0,0,1,4.37,1.61q1.45,1.62,1.45,5.17V454h1.8v4.77h-9.65v-6.73a7.23,7.23,0,0,0-.38-2.91,1.65,1.65,0,0,0-1.55-.69,4.19,4.19,0,0,0-2.25.8V454h2.19Z"/><path class="cls-20" d="M1086.38,454v4.77h-9.83v-1a9.71,9.71,0,0,1-5.07,1.3,8.91,8.91,0,0,1-5.67-1.95,6.74,6.74,0,0,1-2.47-5.6,7.92,7.92,0,0,1,2.28-6.06,8.69,8.69,0,0,1,6.11-2.11,9,9,0,0,1,4.82,1.25v-2.78h-1.94v-4.76h9.8v17Zm-9.79-2.87a4.09,4.09,0,0,0-.65-2.38,2.24,2.24,0,0,0-2-.93q-2.67,0-2.67,3.45a3.9,3.9,0,0,0,.66,2.34,2.2,2.2,0,0,0,2,.94,2.48,2.48,0,0,0,1.94-.83A3.82,3.82,0,0,0,1076.59,451.17Z"/><path class="cls-20" d="M1095.34,465.26V461a5.35,5.35,0,0,0,2.16-.29,1.33,1.33,0,0,0,.7-.94,26.73,26.73,0,0,0,.14-3.83v-7.5h-1.54v-4.77h9.4v12a26.26,26.26,0,0,1-.37,5.36,5.05,5.05,0,0,1-1.38,2.56A5.42,5.42,0,0,1,1102,465a15.9,15.9,0,0,1-4,.4A19.33,19.33,0,0,1,1095.34,465.26Zm2.52-25.89a2.25,2.25,0,0,1,1.25-2,5.89,5.89,0,0,1,3.09-.75,5.44,5.44,0,0,1,3.07.78,2.32,2.32,0,0,1,1.14,1.94,2.22,2.22,0,0,1-1.21,1.95,5.71,5.71,0,0,1-3,.73,6.38,6.38,0,0,1-3.08-.67A2.12,2.12,0,0,1,1097.86,439.37Z"/><path class="cls-20" d="M1109.86,451.15a7,7,0,0,1,2.81-5.64,11.68,11.68,0,0,1,7.6-2.29,12.87,12.87,0,0,1,7.82,2.22,6.85,6.85,0,0,1,3,5.78,7,7,0,0,1-2.88,5.73,11.78,11.78,0,0,1-7.59,2.3c-3.4,0-6-.77-7.94-2.3A7.13,7.13,0,0,1,1109.86,451.15Zm8,0q0,3.62,2.6,3.62t2.75-3.66a4.31,4.31,0,0,0-.68-2.59,2.27,2.27,0,0,0-1.93-.92,2.46,2.46,0,0,0-2,.9A4.08,4.08,0,0,0,1117.81,451.19Z"/><path class="cls-20" d="M1144.34,458.81h-10.73V454h1.56v-5.62h-1.56v-4.77H1143V454h1.31Zm-9.82-19.44a2.24,2.24,0,0,1,1.26-2,5.93,5.93,0,0,1,3.1-.75,5.35,5.35,0,0,1,3,.78,2.32,2.32,0,0,1,1.14,1.94,2.19,2.19,0,0,1-1.18,1.95,5.78,5.78,0,0,1-3,.73,6.37,6.37,0,0,1-3.09-.67A2.12,2.12,0,0,1,1134.52,439.37Z"/><path class="cls-20" d="M1158.56,458.81h-12V454h2v-5.62h-2v-4.77h9.82v1.93a10,10,0,0,1,6.2-2.21A5.63,5.63,0,0,1,1167,445q1.46,1.62,1.46,5.17V454h1.79v4.77h-9.65v-6.73a7.23,7.23,0,0,0-.38-2.91,1.65,1.65,0,0,0-1.55-.69,4.14,4.14,0,0,0-2.24.8V454h2.18Z"/><path class="cls-20" d="M1201.31,458.81h-20.73v-5.2h1.69V442.28h-1.72v-5.2h20.76V444h-5.7v-1.75h-4.94v3.34h4.3V450h-4.3v3.57h4.94v-1.75h5.7Z"/><path class="cls-20" d="M1215.05,458.81h-10.86V454h1.61v-12.2h-1.61v-4.76h9.47v17h1.39Z"/><path class="cls-20" d="M1228,458.81h-10.74V454h1.57v-5.62h-1.57v-4.77h9.43V454H1228Zm-9.83-19.44a2.24,2.24,0,0,1,1.27-2,5.89,5.89,0,0,1,3.09-.75,5.37,5.37,0,0,1,3,.78,2.32,2.32,0,0,1,1.14,1.94,2.2,2.2,0,0,1-1.19,1.95,5.71,5.71,0,0,1-3,.73,6.37,6.37,0,0,1-3.09-.67A2.12,2.12,0,0,1,1218.14,439.37Z"/><path class="cls-20" d="M1242.56,453.28v4.66a7.67,7.67,0,0,1-2.22.9,11.48,11.48,0,0,1-2.93.41,7.31,7.31,0,0,1-3-.58,4.57,4.57,0,0,1-2-1.59,5.49,5.49,0,0,1-.53-1.06,5.26,5.26,0,0,1-.25-1.07c-.07-.69-.11-2-.11-4v-2.55h-1.94v-4.77h1.94v-2.32l7.86-3.74v6.06h3.17v4.77h-3.17v2.94a4.48,4.48,0,0,0,.27,1.92,1.07,1.07,0,0,0,1.06.48A4.69,4.69,0,0,0,1242.56,453.28Z"/><path class="cls-20" d="M1257.84,454l6.49.8a6,6,0,0,1-1.22,1.82,7.55,7.55,0,0,1-1.91,1.4,11.33,11.33,0,0,1-5.42,1.22q-5.29,0-8-2.21a7,7,0,0,1-2.67-5.73,7.37,7.37,0,0,1,2.64-5.78,10.3,10.3,0,0,1,7.08-2.31,10.83,10.83,0,0,1,7,2.18c1.77,1.45,2.71,3.66,2.83,6.61h-11.94q0,3.69,2.75,3.69A2.43,2.43,0,0,0,1257.84,454Zm-5-4h4.43c0-.31,0-.48,0-.53a3.22,3.22,0,0,0-.63-2,2,2,0,0,0-1.65-.8,1.83,1.83,0,0,0-1.63.87,4.1,4.1,0,0,0-.56,2.19A2.91,2.91,0,0,0,1252.84,450Z"/><path class="cls-20" d="M847.69,497.21H836.26V492h1.64V480.68h-1.67v-5.2h11.46v5.2H846.3V484h5v-3.31h-1.41v-5.2h11.45v5.2h-1.64V492h1.64v5.2H849.93V492h1.41v-3.57h-5V492h1.39Z"/><path class="cls-20" d="M865.38,486.82h-1.83v-4.77h9.69v7.22a5.8,5.8,0,0,0,.35,2.46,1.42,1.42,0,0,0,1.4.64,4.51,4.51,0,0,0,2.44-.71v-4.84h-2.08v-4.77h9.94v10.39h1.83v4.77h-9.69v-1.92a10.86,10.86,0,0,1-6.36,2.2,5.81,5.81,0,0,1-4-1.48q-1.7-1.49-1.69-5.6Z"/><path class="cls-20" d="M901.26,497.21h-12v-4.77h2v-5.62h-2v-4.77h9.81V484a10,10,0,0,1,6.2-2.21,5.65,5.65,0,0,1,4.38,1.61q1.46,1.62,1.45,5.17v3.89h1.8v4.77h-9.66v-6.73a7.28,7.28,0,0,0-.37-2.91,1.65,1.65,0,0,0-1.55-.69,4.14,4.14,0,0,0-2.25.8v4.76h2.19Z"/><path class="cls-20" d="M927.29,491.68v4.66a7.67,7.67,0,0,1-2.22.9,11.5,11.5,0,0,1-2.94.41,7.15,7.15,0,0,1-3-.58,4.6,4.6,0,0,1-2-1.59,5.49,5.49,0,0,1-.53-1.06,4.67,4.67,0,0,1-.25-1.07c-.08-.69-.11-2-.11-4v-2.55h-1.94v-4.77h1.94v-2.32l7.86-3.74v6.06h3.17v4.77h-3.17v2.94a4.53,4.53,0,0,0,.26,1.92,1.08,1.08,0,0,0,1.06.48A4.73,4.73,0,0,0,927.29,491.68Z"/><path class="cls-20" d="M942.57,492.41l6.48.8a6,6,0,0,1-1.21,1.82,7.73,7.73,0,0,1-1.91,1.4,11.33,11.33,0,0,1-5.42,1.22q-5.29,0-8-2.21a7,7,0,0,1-2.67-5.73,7.37,7.37,0,0,1,2.64-5.78,10.3,10.3,0,0,1,7.08-2.31,10.84,10.84,0,0,1,7,2.18c1.77,1.45,2.71,3.66,2.82,6.61H937.48c0,2.46.94,3.69,2.75,3.69A2.43,2.43,0,0,0,942.57,492.41Zm-5-4H942c0-.31,0-.48,0-.53a3.28,3.28,0,0,0-.62-2,2,2,0,0,0-1.66-.8,1.8,1.8,0,0,0-1.62.87,4,4,0,0,0-.57,2.19A2.69,2.69,0,0,0,937.57,488.44Z"/><path class="cls-20" d="M964.07,497.21H951.85v-4.77h2.06v-5.62h-2.06v-4.77h9.41v3.8a6.27,6.27,0,0,1,1.64-2.45,5.31,5.31,0,0,1,2.15-1.33,12,12,0,0,1,3.08-.3v6.67h-.65a10,10,0,0,0-3.58.48,3.14,3.14,0,0,0-1.66,1.32,4.8,4.8,0,0,0-.47,2.21h2.3Z"/><path class="cls-20" d="M974.91,497.4h-4.86v-4.81h4.55a5.24,5.24,0,0,0,3.83,1.84c1.4,0,2.09-.29,2.09-.86a.72.72,0,0,0-.45-.67,14.43,14.43,0,0,0-2.48-.74c-1.09-.29-2.29-.63-3.6-1a8.33,8.33,0,0,1-2.69-1.22,4.13,4.13,0,0,1-1.35-1.44,3.9,3.9,0,0,1-.38-1.84,4.15,4.15,0,0,1,1.78-3.71,8,8,0,0,1,4.49-1.17,9.54,9.54,0,0,1,4.71,1.07v-.79h4.8v4.41h-4.44a5.5,5.5,0,0,0-3.93-1.58q-1.8,0-1.8,1c0,.3.18.5.53.59s1.3.32,3,.67a32.86,32.86,0,0,1,4.52,1.22,5.59,5.59,0,0,1,2.42,1.61,3.82,3.82,0,0,1,.8,2.45,4.3,4.3,0,0,1-2,3.88,8.73,8.73,0,0,1-4.78,1.23,10.25,10.25,0,0,1-4.8-1Z"/><path class="cls-20" d="M1014.52,487.63l5.64,2a9.94,9.94,0,0,1-3.29,5.7,10.71,10.71,0,0,1-7.19,2.23q-6.25,0-9.25-3.26a11.25,11.25,0,0,1-3-7.94,11.57,11.57,0,0,1,3-8,10.83,10.83,0,0,1,13.9-1.41v-1.45h5.22v7.93h-5.42a4.69,4.69,0,0,0-1.42-2.34,3.46,3.46,0,0,0-2.28-.84c-2.36,0-3.53,2-3.53,6.07s1.21,6.1,3.65,6.1Q1013.7,492.4,1014.52,487.63Z"/><path class="cls-20" d="M1033.43,497.21h-10.86v-4.77h1.61v-12.2h-1.61v-4.76H1032v17h1.39Z"/><path class="cls-20" d="M1037.05,486.82h-1.82v-4.77h9.68v7.22a5.8,5.8,0,0,0,.35,2.46,1.44,1.44,0,0,0,1.4.64,4.51,4.51,0,0,0,2.44-.71v-4.84H1047v-4.77H1057v10.39h1.83v4.77h-9.69v-1.92a10.86,10.86,0,0,1-6.36,2.2,5.83,5.83,0,0,1-4-1.48c-1.12-1-1.69-2.86-1.69-5.6Z"/><path class="cls-20" d="M1070.52,497.21h-9.84v-4.77h2v-12.2h-2v-4.76h9.87V483a9.05,9.05,0,0,1,4.86-1.25,8.71,8.71,0,0,1,6,2.07,7.06,7.06,0,0,1,2.36,5.6,8.49,8.49,0,0,1-.57,3.18,7.89,7.89,0,0,1-7.4,4.87,10,10,0,0,1-5.22-1.3Zm-.06-7.64q0,3.42,2.72,3.42c1.72,0,2.58-1.13,2.58-3.4a3.77,3.77,0,0,0-.72-2.49,2.4,2.4,0,0,0-1.92-.84,2.29,2.29,0,0,0-2,.92A4,4,0,0,0,1070.46,489.57Z"/><path class="cls-6" d="M434.87,814.27l2.85.13-3.49,22.5-2.07,7.37L431,862.75l.89,9.79,2.39,4.37,5.21,2.31,12.36,2.66,39,2.46L513.26,876l10.55-13.33L526.07,846l-3-16.87L522.39,816l15.08,7.59,15.26-.26L572.37,812l17.84-14.48,3.71-.08,14.13-9.66,3.11-21.37-5.44-12.06-10.59-2.07-8.88,5.51,8.55-12.87-8.14-7.35-3.54,7.93-7.93,6.12-6.52,6.86-24,24.22s-35.33-18.36-56.42-19.91c-6.14-1.38-22.86-1.38-40.44,2.54"/><path class="cls-6" d="M449.15,762.82c-18.83,9.63-44.24,40.29-44.24,40.29L373.27,791.8l-9.14-2.88L358,784.29l-9.72-4.89-3.1,7.72,11.75,9.23-10.33-1.62-9,6L337.28,814l11.18,18.49,16.77,3.39,3.45-1.36,22.06,6.4,22.5,2.75L427.39,838l10.94-12.86s22.48-25.08,37.56-26.25"/><path class="cls-6" d="M479.56,882.06l-8.36,76.61,2,2.93,16.38,3.1L502,969.18l8.87,2.33,8.79.6,6.12-2.58,4.14-5.17-.43-5.43L525.15,953l-7.59-5.17-9.82-1.55,4.74-32.06,2.84-24.39,1-17.06C506.41,877.87,493.74,880.63,479.56,882.06Z"/><polygon class="cls-19" points="512.62 877.19 504.84 943.71 508.35 943.14 516.36 874.55 512.62 877.19"/><path class="cls-19" d="M499.49,948.65s19.36.61,23.12,7.52,2.92,10.27,2.92,10.27l-.12,1.43,3.7-.24-.27-12.81-10.46-7.49C511,947.46,504,947.71,499.49,948.65Z"/><path class="cls-19" d="M479.71,881.44l-7.87,77.17,2.53,2.53L499,968l7.22,3.37,7.05-1.21s-14.79-7.52-25.47-8.93-11.71-2.7-11.71-2.7c-2.06-2.09,6.12-66.78,5.65-77.09Z"/><path class="cls-19" d="M439.06,807.87s3.41,16.26,1.3,24.92-5,23.65-5,23.65-1.86,11.37,3.1,17.82,22.19-.72,23.28-1.35c8.06-4.28,26.56-2.72,34.38-1.08,0,0,18.25,1.29,28.59-14.74,0,0,.61,4.76-2.33,7.89s-11.27,8.53-11.27,8.53-17.3,6.89-23.76,5.71-27.75-1.32-27.75-1.32-14.51,2.85-22.79.78-5.52-20.51-5.52-20.51l7-49.23"/><path class="cls-18" d="M518.47,975.68h-.16c-1.53,0-15.18-.53-20.46-4.52-3.17-2.4-15.33-4.34-20.53-5.17-2.27-.36-3.49-.56-4.14-.74-3.32-.89-5.37-4.28-5.59-4.66l-.42-.72,8.19-78.16a2.53,2.53,0,1,1,5,.53l-8,76.42a4.75,4.75,0,0,0,2.1,1.7c.43.12,2,.37,3.63.63,9,1.44,18.93,3.22,22.78,6.13,3,2.26,12.18,3.33,17.4,3.49,5.18-.53,9.4-3.39,10.29-7,1-4.14-2.65-8.07-4-9.55-7.48-8-20.59-6-23.14-5.45a2.53,2.53,0,0,1-1-5c3-.59,18.5-3,27.8,7,1.72,1.83,6.94,7.42,5.26,14.23-1.43,5.78-7.42,10.13-14.89,10.83Z"/><path class="cls-6" d="M472.92,882l-6.16,81.89-2.29,2.69-16.62,1.27L435,970.93l-9.08,1.33-8.81-.38-5.79-3.25L407.8,963l1-5.34,4.95-5.43,8.11-4.3,9.94-.45-1.15-32.39-.52-23.26.87-17.07C440.35,881,458.85,881.75,472.92,882Z"/><path class="cls-18" d="M509.47,946.81l-.36,0a2.52,2.52,0,0,1-2.15-2.86c.07-.54,7.72-54.45,7.56-69.77a2.52,2.52,0,0,1,2.5-2.55,2.55,2.55,0,0,1,2.56,2.5c.17,15.7-7.29,68.3-7.61,70.53A2.53,2.53,0,0,1,509.47,946.81Z"/><path class="cls-19" d="M472.79,881.14l-6.61,82.57-2.88,2.13L438,969l-7.62,2.28-6.47-.3s15.39-7.21,26.16-7.05,12-1,12-1c2.35-1.76,7.78-71.7,9.74-81.82Z"/><path class="cls-18" d="M478,883.08a117.09,117.09,0,0,1-18.81-1.61,2.54,2.54,0,0,1,.9-5c.22,0,22.35,4,35.17-1a2.53,2.53,0,1,1,1.81,4.73C491.43,882.42,484.43,883.08,478,883.08Z"/><path class="cls-18" d="M515.41,974.65a2.53,2.53,0,0,1-2.53-2.48c-.06-2.88-2-6.25-2.73-7.3a2.53,2.53,0,0,1,4.14-2.92c.14.21,3.55,5.09,3.65,10.11a2.54,2.54,0,0,1-2.48,2.59Z"/><path class="cls-6" d="M514,545s1.49-10.45,15.29-20.66c0,0,1,19.9,2.52,24.46s1.87,9.64,6.18,14.44,19.69,2.08,19.69,2.08,15.32-4.5,19.72-16.39,3.27-21.38,3.27-21.38-2.89-16-6.82-19.94-3.22-9.23-15-17.07a66.24,66.24,0,0,0-23.51-9.72,28.51,28.51,0,0,0-19.18,3.45c-9.7,5.65-10.52,7.68-14.64,13.81s-6.07,24.42-6.07,24.42"/><path class="cls-16" d="M571.14,557.74c-3.11,6.76-15.57,8.59-25.85,9s-14-13.94-14-13.94l-.39-16.18s-1-15.38-5.94-25.86a29.49,29.49,0,0,0-14.09-14.17s13.18-2.76,19.77,17.79c0,0,7.05,17.13,7.45,31.21.61,8.64,3.46,11.73,6,13.08s18.36,6.84,32.58-8.15Z"/><path class="cls-16" d="M506.77,530.68c-6.51-8.56.75-30.94,3.42-31.8,10.05,6.12,14.89,15.37,16.36,26.63L516,538.37l-7.5-4.33Z"/><path class="cls-18" d="M550.43,569.35c-5.84,0-11.8-1.54-16-5.8-4.89-4.92-6.22-12.07-6.86-15.5a39.27,39.27,0,0,1-.62-8.14v-.38c.07-6.56-.72-22.93-9.49-33.22a31.66,31.66,0,0,0-13.43-9,1.94,1.94,0,0,1-.3-.13c-6.39,9.61-6.24,20.35-6,23.84a2.6,2.6,0,1,1-5.19.37c-.34-4.68-.51-20.88,11.7-33a39.82,39.82,0,0,1,21.49-10.83c22-3.56,43.35,12.62,52.28,29.66,3,5.71,12,25.75,2.2,43.89-4.54,8.4-10.78,13.92-18.57,16.42A37.29,37.29,0,0,1,550.43,569.35ZM507.1,493a36.07,36.07,0,0,1,14.3,10c9.56,11.21,10.84,27.78,10.74,36.65v.4a34.27,34.27,0,0,0,.53,7.11c.55,2.93,1.68,9,5.44,12.79,5.43,5.48,15.21,4.9,21.93,2.73,9.73-3.13,14.13-11.26,15.57-13.94,8.8-16.28-.31-35.34-2.23-39-8.08-15.43-27.24-30.11-46.83-26.94a34.52,34.52,0,0,0-18.65,9.39C507.63,492.4,507.36,492.67,507.1,493Z"/><path class="cls-18" d="M514.45,556h-.21a2.61,2.61,0,0,1-2.39-2.8c1.07-13.07,5.59-22.6,13.07-27.57.43-.28.88-.56,1.34-.82a2.6,2.6,0,0,1,2.57,4.53c-.35.2-.69.41-1,.63-7.71,5.12-10.1,15.69-10.75,23.65A2.6,2.6,0,0,1,514.45,556Z"/><path class="cls-18" d="M554.85,508a2.61,2.61,0,0,1-2.55-2.12c-3.1-16.22-15.73-22.78-18.69-23.54a2.6,2.6,0,0,1,1.28-5.05c5.92,1.51,19.21,10.25,22.53,27.61a2.63,2.63,0,0,1-2.57,3.1Z"/><path class="cls-18" d="M524.65,972.64h-.08a2.53,2.53,0,0,1-2.45-2.61c.08-2.53-2-5.47-2.78-6.39a2.53,2.53,0,0,1,3.81-3.34c.43.49,4.18,4.9,4,9.89A2.53,2.53,0,0,1,524.65,972.64Z"/><line class="cls-19" x1="443.91" y1="765.08" x2="445.72" y2="765.83"/><polygon class="cls-19" points="434.29 880.83 434.29 945.22 430.88 944.28 430.88 877.9 434.29 880.83"/><path class="cls-19" d="M438.77,950.1s-19.32-1.23-23.72,5.3-3.88,10-3.88,10l0,1.43-3.66-.58L409,953.46,420.09,947Z"/><path class="cls-16" d="M522.15,803.9s6.21,17.51,38.33,15.51c0,0-7.63,8-25.92,3.23s-12.41-12.28-12.41-12.28Z"/><line class="cls-16" x1="435.15" y1="814" x2="434.68" y2="808.96"/><path class="cls-19" d="M494.24,767.51s46.79,18.87,49.24,20.68,9.7-4.65,9.7-4.65,17.29-18.7,19-21.08c2.94-4.08,8.27-13,7.5-11.54l-12.41,9.74-11.77,10.6-8.27,8-3.66,1.85L497.38,762.9Z"/><path class="cls-18" d="M424.43,975.69c-3.21,0-5.77-.2-6.38-.25l-.3,0c-7.35-1.53-12.82-6.52-13.6-12.42-.92-7,4.9-11.92,6.81-13.56,10.34-8.84,25.47-4.74,28.4-3.83a2.53,2.53,0,0,1-1.51,4.83c-2.48-.77-15.28-4.27-23.6,2.85-1.54,1.32-5.64,4.82-5.08,9,.49,3.68,4.37,7,9.46,8.1,5.2.42,14.46.37,17.67-1.54,4.15-2.47,14.22-3.13,23.32-3.56,1.67-.08,3.24-.15,3.68-.22a4.91,4.91,0,0,0,2.35-1.54l6.92-81.79a2.53,2.53,0,0,1,5.05.43l-7.06,83.31-.42.58c-.27.36-2.68,3.5-6.08,4-.67.11-1.9.17-4.2.28-5.25.24-17.56.82-21,2.85S429.23,975.69,424.43,975.69Z"/><path class="cls-18" d="M430.33,947.75a2.54,2.54,0,0,1-2.53-2.43c-.08-2.21-2-54.08-.13-69.68a2.53,2.53,0,0,1,5,.62c-1.87,15.19.14,68.33.16,68.86a2.53,2.53,0,0,1-2.43,2.63Z"/><path class="cls-18" d="M421.33,974.75a1.83,1.83,0,0,1-.33,0,2.53,2.53,0,0,1-2.18-2.84c.66-5,4.59-9.46,4.75-9.64a2.53,2.53,0,1,1,3.79,3.35c-.85,1-3.14,4.11-3.52,6.95A2.53,2.53,0,0,1,421.33,974.75Z"/><path class="cls-18" d="M412.37,971.73h-.2a2.53,2.53,0,0,1-2.32-2.73c.4-5,4.62-8.94,5.1-9.38a2.53,2.53,0,0,1,3.41,3.75c-.9.82-3.26,3.51-3.47,6A2.52,2.52,0,0,1,412.37,971.73Z"/><path class="cls-19" d="M458.68,827.5s43.24-3.32,52.46-.72C505.67,818.06,466.39,818.13,458.68,827.5Z"/><path class="cls-16" d="M435,837.37c1.87.35,3.39,1.73,5.3,1.88,4.19.32,7.56-5,11.7-6.83,7.88-3.11,13,6,7.32,13.15-1.62,1.92-3.9,3.17-5.21,5.35-1.67,2.77-1.26,6.11-1.28,9.22s-1.06,7-3.84,8.14c-3.54,1.48-6.44-2.73-10.08-2.26s-5.93,4.94-9.33,6.53"/><path class="cls-21" d="M434.72,835.78c1.87.34,3.39,1.72,5.31,1.87,4.18.32,7.55-5,11.7-6.82,7.87-3.12,13,6,7.31,13.14-1.62,1.92-3.9,3.18-5.21,5.35-1.67,2.78-1.26,6.12-1.28,9.22s-1.06,7-3.84,8.14c-3.54,1.48-6.44-2.72-10.08-2.25s-5.93,4.94-9.33,6.52"/><path class="cls-18" d="M436.33,882.33a2.54,2.54,0,0,1-1.1-.26,14,14,0,0,1-4.09-3,14.93,14.93,0,0,1-3.44-6.19c-1.3-4.38-.85-8.13-.46-11.44l.08-.61a55.06,55.06,0,0,0,.46-8.76,31.07,31.07,0,0,1,.59-7.43,75,75,0,0,1,2.41-9.42c.47-1.52,1-3.08,1.42-4.89a70.9,70.9,0,0,0,2-21.47,2.53,2.53,0,0,1,5.05-.27,76.16,76.16,0,0,1-2.14,23c-.5,1.93-1,3.56-1.49,5.13a69,69,0,0,0-2.27,8.83,26.45,26.45,0,0,0-.51,6.41,58.25,58.25,0,0,1-.5,9.46l-.07.62c-.35,3-.72,6,.29,9.4a9.64,9.64,0,0,0,2.25,4.15,9.24,9.24,0,0,0,2.64,1.92,2.54,2.54,0,0,1-1.12,4.81Z"/><path class="cls-16" d="M525.25,864.66c-3.28,1.21-7.14,2.38-10.1.51-2.2-1.39-3.18-4-4-6.52l-4.4-13c-1-2.91-2-6-1.42-9,.84-4.54,5.12-7.82,9.61-8.92a64.21,64.21,0,0,1,7-1"/><path class="cls-21" d="M524.37,861.91c-3.08,1.14-6.71,2.24-9.49.49-2.07-1.31-3-3.81-3.78-6.13L507,844c-.93-2.73-1.86-5.6-1.34-8.44.79-4.27,4.82-7.35,9-8.38a63.43,63.43,0,0,1,7.17-1C527.69,840.09,528.42,852,524.37,861.91Z"/><path class="cls-18" d="M511.14,876.79a2.53,2.53,0,0,1-.79-4.94,21.12,21.12,0,0,0,11.21-8.15c3.06-4.71,3-9.63,3-16.44a66,66,0,0,0-2.38-16.08c-.6-2.4-1.1-3.93-1.58-5.41a46.71,46.71,0,0,1-1.68-6.22,57.09,57.09,0,0,1-1-14.48,2.53,2.53,0,0,1,5.06.31,51.51,51.51,0,0,0,.86,13.19,42,42,0,0,0,1.52,5.63c.48,1.49,1,3.17,1.68,5.74a71.53,71.53,0,0,1,2.54,17.27c.06,7.11.12,13.25-3.77,19.25a26.16,26.16,0,0,1-13.87,10.2A2.44,2.44,0,0,1,511.14,876.79Z"/><path class="cls-18" d="M544.39,828.06a34.61,34.61,0,0,1-6.79-.66,35.15,35.15,0,0,1-17.7-9.32,2.54,2.54,0,0,1,3.54-3.63,30.4,30.4,0,0,0,15.15,8,29.91,29.91,0,0,0,15.82-1.13,49.36,49.36,0,0,0,7-3.72,62.48,62.48,0,0,0,13.21-9.86c1.87-1.7,4.18-3.81,7.38-6.55a27.05,27.05,0,0,0,3.18-4.7,7.6,7.6,0,0,1,1.69-2.36l1.22-1,1.44.66a2.37,2.37,0,0,1,1.09,1,3.58,3.58,0,0,1,1.79.64l.31.23,0,0c.38,0,1.87-.29,6.09-2.85,3.65-2.2,5.84-3.53,6.55-4.34,2.26-2.59,2.75-5.47,3.54-11.21.84-6,1.34-9.57-.19-13.79-.75-2-2.29-6.29-6.46-8.4-.22-.11-5.49-2.74-8.87-.48a9.07,9.07,0,0,0-3.31,4.29c0,2.33-1.33,3-2.09,3.23-2.3.63-3.46-1.65-4-2.62l-.76-1.5,1.08-1.28a28.81,28.81,0,0,0,3.5-5.11l.24-.39,1.2-1.57c1.9-2.49,2.68-3.54,2.75-4.54l0-.25a3.38,3.38,0,0,0-1.52-3.68,4.65,4.65,0,0,0-2.73-1.09,3.11,3.11,0,0,0-2.21.7c-.59.6-.63,1.77-.62,3.12,0,4.32-5,10.12-16.35,18.79-.39.3-.69.52-.84.65-8.15,8.77-12.68,13.65-18.33,18.35l-.09.12a6,6,0,0,1-6.79,2.56,8.64,8.64,0,0,1-3-1.33c-1.31-.89-7-3-11.66-4.65-1.35-.49-3.4-1.45-6-2.68-8.1-3.81-21.64-10.2-34-11.81a2.53,2.53,0,0,1,.65-5c13.18,1.71,27.17,8.31,35.53,12.25,2.49,1.17,4.45,2.09,5.57,2.5,6.83,2.48,11.09,4.07,12.79,5.23a3.58,3.58,0,0,0,1.27.57,2.27,2.27,0,0,0,.82.1c.28-.07.64-.53.88-.84a5.35,5.35,0,0,1,.73-.8c5.25-4.35,9.33-8.69,18.06-18.09a10.89,10.89,0,0,1,1.38-1.13c13.37-10.22,14.38-13.85,14.37-14.72,0-1.71,0-4.56,2.06-6.71a8,8,0,0,1,5.89-2.22,9.56,9.56,0,0,1,5.6,2,8.44,8.44,0,0,1,3.6,8.53,7.8,7.8,0,0,1-.93,3,18.27,18.27,0,0,1,8.39,1.93c6,3,8,8.75,8.92,11.19,2,5.41,1.33,9.94.46,16.22-.81,5.8-1.39,10-4.75,13.84-1.22,1.4-3.26,2.63-7.74,5.34-5.46,3.31-8.43,4.23-10.78,3.15a3.24,3.24,0,0,1-2.06.31,24.63,24.63,0,0,1-3,4.13l-.2.19c-3.19,2.73-5.51,4.83-7.36,6.53A67.51,67.51,0,0,1,563.92,822a51,51,0,0,1-7.76,4.1A34.92,34.92,0,0,1,544.39,828.06Z"/><g id="HEAD"><path class="cls-6" d="M446.12,765.32c-4.66-21.67-15.32-59.53-18.42-62.6-41.5-41.24-37.09-119.21-36.88-129.83.64-32.46,10.64-46.13,15.16-51.41,21.32-24.86,52.83-23.36,67.88-16.8,10.64,4.09,20.29,11.28,35.26,31.63,22,29.9,38.13,51.85,41.52,85.68,3.09,30.93-6.2,54.59-12.19,69.85-15.57,39.63-29.26,60.27-45,73.25"/></g><path class="cls-16" d="M397.45,569c-.54,7.63.53,19.54.53,29.43.82,27.54,6.47,59.44,32.16,103.59-9.42-6.77-24.74-25.34-31.18-57.75-5.92-29.73-8.12-38.46-6.85-39l-.35-41.55Z"/><path class="cls-16" d="M458.57,502.24c25.91,9.39,68.91,73.25,96.17,98.52,23.75,16.45,32.27,39.91,21.17,71.89,0,0,23-9.31,6.59-60.11,0,0-17.62-7.37-40.2-16.21-1.65-16-12.89-34.66-30.85-55.15C506.88,537,485,501.75,458.57,502.24Z"/><path class="cls-18" d="M493.48,767.62a2.52,2.52,0,0,1-1.71-.66A2.64,2.64,0,0,1,492,763c10.21-8.46,27.21-29.16,44.08-72.1,6-15.27,15.06-38.36,12-68.68-3.32-33.14-19.14-54.65-41-84.43C492,517.31,482.84,510.84,473,507l-.1,0c-14.38-6.27-44.74-7.43-65,16.13-9.22,10.79-14.11,27.55-14.55,49.81-.48,24.72-.63,91.45,36.14,128,2.52,2.51,16.09,45.28,21.06,68.24a2.57,2.57,0,0,1-1,2.67,2.55,2.55,0,0,1-4-1.53c-4.61-21.47-17.42-63.53-19.69-65.79-38.16-37.91-38.13-106.3-37.63-131.67.46-23.47,5.76-41.3,15.76-53,22.13-25.79,54.42-24.6,70.77-17.51,10.43,4,20.61,11.1,36.34,32.48,22.38,30.43,38.54,52.41,42,86.92,3.15,31.55-6.18,55.31-12.36,71-17.39,44.28-35.45,65.79-45.71,74.27A2.51,2.51,0,0,1,493.48,767.62Z"/><path class="cls-6" d="M480.74,543.51c8.28,30.52,26.78,46.8,42.48,48.41,11,1.12,20.92,3.15,20.92,3.15,8.43.07,10.3-1.38,15.16-.63,12,1.84,19.52,13.46,22.2,17.58,13.74,21.14,5.47,45.49,5.06,46.65-6.21,17.38-20.51,25.43-22.73,28.06-33.48,39.64-111.77-8.5-113.41-28.67-1.07-13.12.68-25,2.64-28.84C480.82,627.26,493.87,584,480.74,543.51Z"/><path class="cls-6" d="M481.38,543.39c8.28,30.52,26.78,46.8,42.47,48.4,11,1.13,20.93,3.15,20.93,3.15,8.42.07,10.3-1.37,15.16-.62,12,1.83,19.52,13.46,22.2,17.57,13.74,21.15,5.47,45.5,5.06,46.66C581,675.92,566.69,684,564.47,686.6c-33.48,39.64-109.32-7.61-111-27.78-1.07-13.12-1.77-25.86.19-29.72C481.46,627.13,494.51,583.86,481.38,543.39Z"/><path class="cls-16" d="M582.5,612.81c17.21,43.44-8.9,64-8.9,64,11.1-32,4.89-59.28-18.86-75.73Z"/><path class="cls-19" d="M531.59,700.16s-85.58,6.33-80-69.65l3.53-2.69C451.71,693.69,524.34,702.67,531.59,700.16Z"/><path class="cls-19" d="M517.92,601.56s-4.12,6.11-3.47,21,12.63,12.88,12.63,12.88,17.2-2.57,29.18,3,13-6.28,13-6.28"/><path class="cls-19" d="M457.6,625.48s17.86,27.84,33.84,39.56,28,20.85,28,20.85,7.42,5.57,16.67,5c13.21,0,26.65-18.27,26.65-18.27l-.6,5a32,32,0,0,1-1.72,3.36c-4.22,7.14-11.51,13.14-18.7,15.08-7.64,2.06-15.06-.49-23.62-5.08-11.93-6.41-38.2-17.91-54-47.66a98.72,98.72,0,0,1-7-16.55Z"/><path class="cls-18" d="M536.68,700.51c-15,0-32.38-13.76-43.36-22.46l-2-1.55c-16.22-12.76-29.11-29.44-38.31-49.57a2.53,2.53,0,0,1,4.61-2.1c8.86,19.39,21.25,35.44,36.83,47.69l2,1.56c11.11,8.8,31.81,25.19,45.42,20.56,7.42-2.53,12.83-9.09,15.13-11.9,5.88-7.14,6.14-16.7,6.26-21.29,0-.93.05-1.61.11-2.15-1.22-11.79-3.14-19-6.94-30.71-2.69-8.24-5.46-16.76-12.66-24.07a26.55,26.55,0,0,0-11.12-7c-.3-.1-.55-.18-.74-.26a63.23,63.23,0,0,0-8.52-2.84c-9.92,1.53-28.74-3.09-45-50.11a2.53,2.53,0,0,1,4.78-1.66c15.79,45.51,33,47.85,39.67,46.74.74-.12,1.85-.31,10.92,3.14l.54.19A31.36,31.36,0,0,1,547.39,601c8,8.15,11,17.25,13.86,26,4,12.13,5.93,19.63,7.19,32.05l0,.34-.06.33c0,.26-.06,1.1-.08,1.85-.13,4.75-.43,15.88-7.4,24.35-2.38,2.89-8.64,10.5-17.43,13.49A21,21,0,0,1,536.68,700.51ZM523.29,594.44h0Z"/><path class="cls-18" d="M443.7,633.92a2.53,2.53,0,0,1-.46-5c11.7-2.19,14-11.34,14.08-11.73a2.53,2.53,0,0,1,4.94,1.12c-.12.52-3,12.76-18.09,15.59A2.49,2.49,0,0,1,443.7,633.92Z"/><path class="cls-21" d="M411.25,555.08c10.38-19.49,35.85-28.28,51.32-15.73,3.76,2.87,6,6.51,10.38,13.67,3.57,5.87,6.41,10.59,9.07,17.56,2.18,5.74,3.46,9.18,3.49,14.11-.18,9.49-2.15,17.29-16.61,23.86-26.24,12.91-56.84,7.57-61.41-28.54C406.93,575.71,405.76,565.55,411.25,555.08Z"/><path class="cls-6" d="M443.63,598.3c-15.45-3.84-25.14-31.65-9.73-46.79,9.47-8.76,20.63-6,27.92,3.13,5.85,6.72,6.59,14.37,7.07,19.37.65,6.67,1.24,12.77-2.75,17.66s-10.67,6.08-13.57,6.57A22.17,22.17,0,0,1,443.63,598.3Z"/><path class="cls-18" d="M447.63,601.27a19.89,19.89,0,0,1-4.58-.51h0c-8.18-2-15.31-10.09-18.16-20.55-3.15-11.53-.44-22.93,7.27-30.5,4.7-4.35,10.05-6.41,15.54-6,5.92.44,11.64,3.75,16.1,9.31,6.35,7.32,7.16,15.72,7.64,20.75.66,6.79,1.34,13.81-3.31,19.5s-12,6.94-15.11,7.47A31.16,31.16,0,0,1,447.63,601.27Zm-3.4-5.43a20.12,20.12,0,0,0,7.92-.09c2.78-.48,8.59-1.46,12-5.68s2.8-9.52,2.19-15.82c-.45-4.71-1.14-11.84-6.46-17.94l-.06-.09c-3.58-4.47-8-7.12-12.56-7.46-4.05-.3-8.08,1.29-11.67,4.61-6.32,6.21-8.54,15.76-5.88,25.5C432.12,587.58,437.8,594.23,444.23,595.84Z"/><path class="cls-6" d="M487.59,544.68c2.76-6.07,10.23-12.64,21.2-8.77,4.07,1.68,6.15,4.59,9,8.59a41.6,41.6,0,0,1,5.89,12.43c1.73,5.9,3.07,10.51,1.27,15.86-.44,1.29-2.36,6.71-7.72,9.54C501.72,591.4,480.55,561,487.59,544.68Z"/><path class="cls-18" d="M511.19,586.42c-4.51,0-9.31-2.07-13.86-6.1-9.71-8.6-16.84-25.36-12-36.61l0,0c3.51-7.73,12.59-14.17,24.24-10.06l.11,0c4.72,2,7.08,5.25,10.06,9.43A44.32,44.32,0,0,1,526,556.24c1.77,6,3.29,11.25,1.24,17.33a19.19,19.19,0,0,1-8.85,10.89A14.26,14.26,0,0,1,511.19,586.42Zm-21.36-40.75c-3.95,9.17,2.48,23.69,10.74,31,3.19,2.84,9.45,7.06,15.43,3.56l.1-.05a14.33,14.33,0,0,0,6.54-8.16c1.56-4.62.37-8.72-1.29-14.4a39.6,39.6,0,0,0-5.54-11.69c-2.71-3.8-4.51-6.32-7.89-7.73C497.92,534.7,491.85,541.23,489.83,545.67Z"/><path d="M442.65,597.27c-12-3-19.56-24.62-7.57-36.4a14.75,14.75,0,0,1,9.81-4.16c6.2,0,10.27,4.7,11.92,6.59,4.55,5.23,5.12,11.18,5.5,15.08.5,5.19,1,9.94-2.15,13.74s-8.3,4.73-10.56,5.11A17,17,0,0,1,442.65,597.27Z"/><path class="cls-18" d="M526.5,705.25c-9.52,0-17.45-2.39-25.77-4.89-14.3-4.3-30.52-9.17-41.65-24.46-12.82-17.61-10.9-38.9-9.47-47.24l5,.86c-1.32,7.7-3.12,27.35,8.57,43.4,10.13,13.91,25.48,18.52,39,22.59,10.12,3,18.86,5.67,30.52,4.31,20.19-2.37,39.1-15.82,48.18-34.28,5.85-11.9,7.66-24.48,5.22-36.38-2.6-12.71-8.48-20.35-13-24.51-2.32-2.16-7.15-6.66-14.23-7.7-1.86-.29-6.18-.05-10.76.2-9,.5-20.28,1.12-27.53-1C504,591.61,484,575.22,477.69,543l5-1c5.82,30,24.14,45.14,39.35,49.32,6.46,1.86,17.69,1.24,25.88.79,5.26-.29,9.42-.52,11.79-.16,8.63,1.27,14.45,6.69,16.93,9,5,4.67,11.59,13.18,14.46,27.2,2.66,13,.71,26.72-5.64,39.63-9.82,20-30.28,34.52-52.13,37.08A57.78,57.78,0,0,1,526.5,705.25Z"/><path class="cls-6" d="M440.41,562.1c-.07,1.87.83,3.3,1.93,4.8C448.28,575,455,578.18,457,577.62c5.57-1.6,3.91-6.85,1.51-10.84-.68-1.22-4-6.89-10.49-9C443.25,555.92,440.68,558.42,440.41,562.1Z"/><path class="cls-18" d="M447,599.55a16.16,16.16,0,0,1-4.78-.36h0c-6.37-1.58-11.92-7.86-14.14-16-2.45-9-.34-17.85,5.66-23.74,3.52-3.17,7.27-4.73,11.2-4.72,7.08,0,11.67,5.29,13.39,7.27,5,5.71,5.6,12.26,6,16.18.51,5.28,1,10.74-2.58,15.18s-9.32,5.39-11.76,5.8A26.56,26.56,0,0,1,447,599.55Zm-3.87-4.19a15.51,15.51,0,0,0,6.16-.07c2.18-.37,6.69-1.13,9.37-4.41s2.18-7.41,1.71-12.31c-.36-3.67-.89-9.22-5-14-1.54-1.77-5.14-5.9-10.43-5.92a12.51,12.51,0,0,0-8.49,3.65c-4.9,4.82-6.63,12.25-4.56,19.83C433.69,588.93,438.12,594.11,443.11,595.36Z"/><path d="M489.29,552.75a13.63,13.63,0,0,1,6.43-6.64,13.43,13.43,0,0,1,10.28-.27c3.2,1.32,4.84,3.62,7.1,6.77a32.93,32.93,0,0,1,4.64,9.8c1.36,4.65,2.42,8.29,1,12.51a13.35,13.35,0,0,1-6.09,7.51,12.82,12.82,0,0,1-5.4,1.34C497.41,583.7,484.14,564.18,489.29,552.75Z"/><path d="M516.18,601.87c5.14-15.66,18.54-23.21,19.45-23.7,13.32-7.24,26-4.46,30.35-3.5,4.73,1,10.52,2.39,15.51,7.47a24.37,24.37,0,0,1,6.74,13.56c.73,5.51-.82,9.55-2.85,14.86-2.75,7.19-6.21,11.25-12.3,18.41-4.31,5.07-6.92,7.16-10.07,7.2a9.55,9.55,0,0,1-4.94-1.58c-10.65-5.61-25.93-5.24-30.38-5.14-2.84.07-5.26.32-7.68-1.23-.62-.4-3.38-2.29-4.87-8.67A33.2,33.2,0,0,1,516.18,601.87Z"/><path class="cls-6" d="M496.24,550.54c-.07,1.87.83,3.3,1.93,4.8,5.94,8.13,12.67,11.28,14.61,10.73,5.58-1.61,3.92-6.86,1.51-10.85-.68-1.22-4-6.89-10.49-9C499.08,544.36,496.51,546.86,496.24,550.54Z"/><path class="cls-18" d="M508,585.67c-.26,0-.52,0-.78,0-6.24,0-12.3-6-15.89-11.61-3.91-6.1-7-15.11-3.82-22.12h0a15.67,15.67,0,0,1,7.37-7.6,15.31,15.31,0,0,1,11.83-.3c3.72,1.53,5.58,4.14,7.93,7.43a35.16,35.16,0,0,1,4.93,10.38c1.39,4.76,2.59,8.87,1,13.66a15.13,15.13,0,0,1-7,8.61A15.47,15.47,0,0,1,508,585.67Zm-17-32.13c-2.52,5.6.18,13.21,3.55,18.46,3.76,5.86,8.86,9.82,12.67,9.84a11.12,11.12,0,0,0,4.5-1.11,11.31,11.31,0,0,0,5.16-6.43c1.23-3.64.28-6.87-1-11.34a31.11,31.11,0,0,0-4.37-9.23c-2.15-3-3.57-5-6.26-6.11a11.51,11.51,0,0,0-8.73.23,11.75,11.75,0,0,0-5.5,5.69Z"/><path class="cls-6" d="M448.43,578.73c-1.45.17-3.43-1.46-3.7-3.13-.07-.45,0-.81-.28-1-.44-.33-1.46,0-1.95.6-.95,1.17-.08,3.6,1.14,5a5.62,5.62,0,0,0,3.8,2,3.7,3.7,0,0,0,2.88-.87,2.36,2.36,0,0,0,.73-2.08,1.54,1.54,0,0,0-.84-1C449.56,578,449.23,578.64,448.43,578.73Z"/><path class="cls-6" d="M504.26,567.17c-1.45.17-3.43-1.46-3.7-3.13-.07-.45,0-.81-.28-1-.44-.33-1.46,0-1.95.6-.95,1.17-.08,3.6,1.14,5a5.62,5.62,0,0,0,3.8,2,3.66,3.66,0,0,0,2.88-.87,2.34,2.34,0,0,0,.73-2.08,1.54,1.54,0,0,0-.84-1C505.4,566.45,505.07,567.08,504.26,567.17Z"/><path d="M422,540.59c3.53-10,18.44-16.29,27.36-9.61a.59.59,0,0,1-.16,1c-9.11,3.92-16.5,8.55-26.56,9.39A.6.6,0,0,1,422,540.59Z"/><path d="M477.81,528.11c4-11.8,23.24-14.68,29.26-3.1a.63.63,0,0,1-.45.91c-4.83,1.06-9.36,1.17-14.07,1.49s-8.88.92-14.05,1.44a.6.6,0,0,1-.69-.74Z"/><path class="cls-19" d="M515.11,717.36c-1.49,9.88-23.72,10.85-23.27-1C498.66,720.21,506.28,721.07,515.11,717.36Z"/><path class="cls-18" d="M502.1,721.29c-7.57,0-10.59-4.37-10.77-4.63a2.07,2.07,0,0,1,3.43-2.31c.23.3,4.72,6.2,18.32-.05a2.07,2.07,0,0,1,1.72,3.77A30.82,30.82,0,0,1,502.1,721.29Z"/><path class="cls-6" d="M407,534.75s-6.41-16.7-11.8-21.42-6.68-6.42-17.2-9.31a27.68,27.68,0,0,0-18.87,1.56,64.32,64.32,0,0,0-19.65,15c-9.11,10.3-7.11,15.13-9.82,19.78s-1.42,20.42-1.42,20.42a48.79,48.79,0,0,0,8.4,19.27c7.1,10.06,22.62,10.47,22.62,10.47s15.12-1.3,18-6.88,1.94-10.45,2.2-15.1-3.75-23.6-3.75-23.6c15.51,6.14,19.52,15.59,19.52,15.59"/><path class="cls-21" d="M327.24,542.6a21.55,21.55,0,0,0,8.25,8.24c2.13,1.56,1.91,5.7,3.08,7.7a8.55,8.55,0,0,0,6.43,4.24c1.89.16,3.79-.49,5.66-.19,2.09.32,3.81,1.75,5.77,2.53a9.58,9.58,0,0,0,13-9.15c-.12-3.56-2.18-6.74-3-10.21-1.58-6.54,1.23-14-2.08-19.89s-12.2-8-13.83-15.1C340.8,516.41,333.12,527.22,327.24,542.6Z"/><g class="cls-22"><path class="cls-19" d="M339.19,523.21S321.44,578,361.6,588.68a13.13,13.13,0,0,1-3.17,1.34c-9.95,2.67-22.95-7.29-28.76-18-10-18.53,1.49-39.12,2.71-41.23a43.5,43.5,0,0,1,5.37-7.37Z"/></g><path class="cls-16" d="M398.89,567.42S387.84,548.1,376.75,545c-.42-.11,0-.18,0-.18l3.35-19.22C394.17,529.91,399.82,558.68,398.89,567.42Z"/><path class="cls-16" d="M377.17,525.32s-7.55,4.72-6,18.81c1.36,11.67,4.52,26.63,4.35,29-.35,4.58-1.06,9.16-3.67,12.41-2.8,3.49,4-1.94,4-1.94l4.2-10.34-2.81-25.08Z"/><path class="cls-18" d="M357.88,593.68c-.61,0-1.2,0-1.78,0-7.93-.41-15.18-4-21.53-10.79-13.73-14.59-10.28-35.66-8.9-41.77,4.13-18.22,20.14-38.76,41.69-40.91a38.76,38.76,0,0,1,22.88,4.8c14.49,8.33,18.38,23.59,19.23,28.07a2.53,2.53,0,1,1-5,.94c-.63-3.33-3.18-13.46-11.58-20.88l-.24.19a30.64,30.64,0,0,0-10.38,11.78c-5.67,11.85-2.32,27.42-.62,33.56l.1.36a37.61,37.61,0,0,1,1.45,7.8c.26,3.39.79,10.43-2.57,16.27C376.13,591,365.94,593.68,357.88,593.68Zm13.29-88.63c-1.27,0-2.39.07-3.31.16-19.19,1.91-33.52,20.49-37.25,37-.89,3.91-4.68,24.08,7.65,37.18,2,2.15,8.18,8.69,18.1,9.2,6.86.35,16.18-1.54,19.91-8,2.59-4.49,2.13-10.49,1.91-13.37a32.75,32.75,0,0,0-1.27-6.81l-.11-.38c-2.3-8.31-5.24-24.18.94-37.1a35,35,0,0,1,10.94-12.94c-.31-.2-.63-.39-1-.58A33.23,33.23,0,0,0,371.17,505.05Z"/><path class="cls-18" d="M396.87,571.06a2.55,2.55,0,0,1-2.39-1.68c-2.59-7.32-7.48-16.64-16-19.52-.37-.13-.75-.24-1.13-.34a2.53,2.53,0,0,1,1.29-4.9c.5.13,1,.28,1.46.44,8.27,2.8,14.89,10.62,19.15,22.62a2.51,2.51,0,0,1-2.38,3.38Z"/><path class="cls-18" d="M346.92,536a2.54,2.54,0,0,1-2.52-2.35c-1.23-17.14,9.08-28.66,14.26-31.55a2.53,2.53,0,0,1,2.47,4.42c-2.6,1.45-12.82,10.76-11.68,26.77a2.54,2.54,0,0,1-2.34,2.71Z"/><path class="cls-6" d="M538.78,591.57h31c3.43,0,3-4.13,0-6.34,0,0-3.89-3.75-14.4-4-10.6,0-14.92,2.42-16.63,3.66C535.64,587.22,534.84,591.57,538.78,591.57Z"/><path class="cls-6" d="M553.33,596.48H544c-1,0-.76,1.23,0,1.9,0,0,1.17,1.2,4.32,1.2a10.36,10.36,0,0,0,5-1.1C554.22,597.83,554.52,596.48,553.33,596.48Z"/><path class="cls-18" d="M577.84,776.23a2.53,2.53,0,0,1-.69-5c.24-.07,6.18-1.91,6.84-7.8.36-3.32,0-3.81-.38-4.28a6.35,6.35,0,0,1-1.38-2.94,2.53,2.53,0,0,1,5-1,1.42,1.42,0,0,0,.41.78c1.33,1.71,1.91,3.41,1.41,7.95-1,9.31-10.1,12-10.48,12.11A2.88,2.88,0,0,1,577.84,776.23Z"/><path class="cls-16" d="M434.19,808.61s-2.53,23.71-31.14,34.77c0,0,9.63,4.22,23.7-7.45s6.8-12.5,6.8-12.5C434.42,820.45,434.55,815.89,434.19,808.61Z"/><path class="cls-19" d="M444.82,766.59s-37.46,38.73-38.9,41.37-10.17-.37-10.17-.37-22.09-10.17-24.48-11.66c-4.1-2.57-12.11-8.6-10.88-7.57l14.45,3.94,14.23,5,10.22,4,3.87.23,40.5-39.61Z"/><path class="cls-18" d="M408.24,847.7A62.74,62.74,0,0,1,401,847a60.92,60.92,0,0,1-16.21-4c-2.26-.81-5.06-1.81-8.87-3l-.25-.1a22.73,22.73,0,0,1-4.13-2.52,3.17,3.17,0,0,1-1.83.52c-1.64,1.93-4.6,2.28-10.64,1.44-4.93-.69-7.18-1-8.79-1.81-4.38-2.17-6.48-5.78-9.38-10.76-3.14-5.39-5.4-9.28-5.75-15-.16-2.58-.53-8.61,3.46-13.73a17.27,17.27,0,0,1,6.68-5.2,7.78,7.78,0,0,1-2.1-2.53,8.54,8.54,0,0,1-.13-9.07,9.37,9.37,0,0,1,4.1-4.13,7.45,7.45,0,0,1,6.1-.33c2.65,1.13,3.71,3.75,4.34,5.31.33.8,2.59,3.73,18,7.71a11.06,11.06,0,0,1,1.66.49c11.13,5.1,16.31,7.43,22.51,9.32a4.26,4.26,0,0,1,1,.45,2.43,2.43,0,0,0,1,.39,1.7,1.7,0,0,0,.57-.36,3.65,3.65,0,0,0,.92-1c1-1.77,4.13-4.93,9.1-9.94.82-.82,2.17-2.46,3.88-4.52,5.75-7,15.37-18.63,26.15-25.49a2.46,2.46,0,0,1,2.65,4.15c-10.13,6.45-19.44,17.73-25,24.47-1.79,2.17-3.2,3.88-4.18,4.86-3.37,3.39-7.55,7.61-8.34,9a8.94,8.94,0,0,1-2.09,2.41,6.42,6.42,0,0,1-2.77,1.37,6.23,6.23,0,0,1-4.29-1l-.12-.07c-6.68-2-12.46-4.69-22.85-9.45l-1-.25c-13.16-3.39-19.74-6.67-21.34-10.63-.49-1.21-1-2.32-1.71-2.63a2.72,2.72,0,0,0-2,.24,4.67,4.67,0,0,0-1.93,2.08,3.73,3.73,0,0,0,.07,4.17l.12.21c.44.9,1.4,1.49,4.1,3.06l1.64,1,.37.27a27.47,27.47,0,0,0,4.95,3.26l1.41.73L360,798c-.06,1.07-.19,3.58-2.46,3.93-.78.12-2.22,0-3.15-2.13a8.37,8.37,0,0,0-4.46-2.59c-3.68-.69-7.23,3.79-7.38,4-2.84,3.64-2.56,8.2-2.42,10.39.28,4.53,2.08,7.64,5.08,12.79,2.88,4.94,4.39,7.38,7.32,8.83.9.45,3.3.78,7.27,1.34,4.52.63,5.91.31,6.26.18l0,0a2.59,2.59,0,0,1,.19-.33,3.31,3.31,0,0,1,1.32-1.33,2.39,2.39,0,0,1,.62-1.36l1-1.12,1.49.38a7.21,7.21,0,0,1,2.4,1.51,25.81,25.81,0,0,0,4.51,3c3.82,1.22,6.62,2.22,8.88,3a56.73,56.73,0,0,0,15.17,3.72,44.68,44.68,0,0,0,7.4.62,27.42,27.42,0,0,0,14.07-5.29A30.58,30.58,0,0,0,433.2,824a2.46,2.46,0,0,1,4.6,1.76A35,35,0,0,1,426,841.42a32.35,32.35,0,0,1-16.68,6.24C409,847.69,408.61,847.7,408.24,847.7Zm-9.89-43.31h0Z"/><path class="cls-18" d="M369.42,811a13.53,13.53,0,0,1-12.24-7c-2.34-4.28-2.2-6-1.78-7.72a1.6,1.6,0,0,0,.05-1,2.47,2.47,0,1,1,4.82-1,6.48,6.48,0,0,1-.08,3.15c-.15.61-.3,1.25,1.31,4.2,2.83,5.18,8.72,4.39,8.78,4.39a2.46,2.46,0,1,1,.7,4.87A10.53,10.53,0,0,1,369.42,811Z"/><path class="cls-18" d="M357.21,838.55a27.11,27.11,0,0,1-4.57-.42l-.23,0c-4.54-1.22-10-7.76-13.49-16.27-3.9-9.41-2.51-17-2.45-17.27,1.22-6.51,6.85-9.95,11.89-10.48,4.7-.49,8.7,1.53,10.2,5.14L369,824.3a10.85,10.85,0,0,1-1.63,10.14C365.76,836.44,362.76,838.55,357.21,838.55Zm-3.61-5.25c3.4.56,7.83.67,9.9-1.93a6,6,0,0,0,.93-5.18L354,801.09c-.78-1.89-3.17-2.34-5.14-2.13-3.22.33-6.81,2.47-7.56,6.5a28.3,28.3,0,0,0,2.16,14.47C346.82,828,351.44,832.62,353.6,833.3Z"/><path class="cls-18" d="M340.14,818.84a2.46,2.46,0,0,1-1.31-4.55l17.62-11a2.46,2.46,0,0,1,2.61,4.18l-17.62,11A2.49,2.49,0,0,1,340.14,818.84Z"/><path class="cls-18" d="M346.46,831.06a2.46,2.46,0,0,1-1.33-4.54l16.05-10.25a2.46,2.46,0,0,1,2.65,4.15l-16.05,10.25A2.39,2.39,0,0,1,346.46,831.06Z"/><g id="tlo-4" data-name="tlo"><path class="cls-6" d="M380,822.19c-.41,1.32-6.17,23-7.59,25.61,9.7,8.5,51.31,50.29,1.66,41.25,0,0-23,26.08-11.85,68.29,0,0-16.84-13.52-20.39-24.66,0,0-24.9-5.34-24.31-43.63,0,0-3.91,12.57-3.91,15.41v10.32s-4.15-.71-5.69.71-5.45-.48-5.45-.48a6.34,6.34,0,0,0-4.51-2,3.15,3.15,0,0,1-3.2-2.37s-1.89-3.08-3.2-1.54,1.78-13.75,18.14-21.58l5.93-3.2s-2.91-32.3,28.74-53.46c0,0,8.54-9.07,11-16.54,0,0-6.58-31.47,6.93-42.5,0,0,9.47-4.24,22.59-1.07,0,0,13.16,2.67,13.16,18.32s-13.34,24.18-13.34,24.18A29.33,29.33,0,0,0,380,822.19Z"/></g><path d="M336.79,896.05c-.45,24.71,21.86,64.31,25.41,61.29-11.15-42.21,11.85-68.29,11.85-68.29Z"/><path class="cls-7" d="M317.5,889.05s-3.91,12.57-3.91,15.41v10.32s-4.15-.71-5.69.71-5.45-.48-5.45-.48a6.34,6.34,0,0,0-4.51-2,3.15,3.15,0,0,1-3.2-2.37s-1.89-3.08-3.2-1.54,1.78-13.75,18.14-21.58l5.93-3.2"/><path class="cls-7" d="M359.86,774.16l1.31-53.57s24.29,5.69,28.8,52.15"/><path class="cls-9" d="M376.43,732.3c7.8,9.87,12,24.89,13.54,40.44l-4.11.2A88.41,88.41,0,0,0,376.43,732.3Z"/><path class="cls-10" d="M374.38,773.48l-14.52.68,1.3-53.26C369.35,739.44,373.46,766.83,374.38,773.48Z"/><path class="cls-11" d="M387,771.38s14.74,3.93,13.67,21.74-16.77,26.61-16.77,26.61a33.38,33.38,0,0,0-6,9.87L350.59,819s-5.32-36.26,10.76-47.89l25.68.32s14.74,3.93,13.67,21.74-16.77,26.61-16.77,26.61"/><path class="cls-6" d="M375.05,797.19c-7.05-.42-12.47-5.6-12.11-11.56,1.51-14.26,25.73-12.81,25.52,1.54C388.1,793.12,382.1,797.61,375.05,797.19Z"/><ellipse cx="376.43" cy="785.74" rx="3.58" ry="5.09" transform="translate(-430.44 1114.46) rotate(-86.57)"/><path class="cls-13" d="M375.34,828.59l6.06-11.34s19.22-10.83,17.23-35.87a23.24,23.24,0,0,1,2.07,11.74c-1.07,17.81-16.77,26.61-16.77,26.61a33.38,33.38,0,0,0-6,9.87Z"/><path class="cls-14" d="M355.08,820.7,350.59,819s-5.32-36.26,10.76-47.89H362C351,789.56,354.78,818.57,355.08,820.7Z"/><path d="M374.05,889c9.72,11.32-4.39,39.81,1.41,71.11,1.23-4,56.42-72.19-3.07-112.34,33.82,35.17,7.84,77.06,4.83,94.12C374.58,923.16,385.58,894.51,374.05,889Z"/><path d="M352.68,819.93c-.6,1-1.24,2-1.88,2.89a78.37,78.37,0,0,1-6.45,8c11.65,8.8,16.81,10.93,28,16.95.68-1.25,4.05-12.92,5.65-18.57"/><g class="cls-23"><path class="cls-7" d="M309.8,905.59c-.06.18-1.39,9.55-1.39,9.55l-2.23.87Z"/></g><g class="cls-23"><path class="cls-7" d="M306.18,904.46l-4.55,9.82a5.45,5.45,0,0,0-1.83-1C298.88,913.05,306.18,904.46,306.18,904.46Z"/></g><g class="cls-23"><path class="cls-7" d="M295.71,911.84s-.54-1.15-.9-1.32,8-10.61,8-10.61Z"/></g><path class="cls-6" d="M372.39,847.8c34.12,33.36,8.16,75.5,4.83,94.12-3.3-14,7.61-44.22-3.17-52.89"/><g class="cls-24"><path d="M336.79,896.05c18.3-6,65.91-56,40.43,45.87-5.5-16.19,9.14-40.38-3.17-52.87C366.9,893.2,352.05,894.3,336.79,896.05Z"/></g><path d="M377.5,775.81c2.58,6.14,3,15.11.8,21.41C390.62,797.38,394.16,777.38,377.5,775.81Z"/><g id="tlo-5" data-name="tlo"><path class="cls-6" d="M571.93,791.61c.36,1.18,5.52,20.58,6.79,22.91-8.68,7.61-45.92,45-1.48,36.92,0,0,20.58,23.34,10.61,61.11,0,0,15.06-12.1,18.24-22.07,0,0,22.28-4.77,21.75-39,0,0,3.5,11.25,3.5,13.79v9.23s3.72-.63,5.1.64,4.88-.43,4.88-.43a5.63,5.63,0,0,1,4-1.8,2.81,2.81,0,0,0,2.86-2.12s1.7-2.76,2.87-1.38-1.59-12.31-16.23-19.31l-5.31-2.86s2.6-28.91-25.73-47.85c0,0-7.63-8.12-9.86-14.8,0,0,5.89-28.17-6.21-38,0,0-8.47-3.8-20.21-1,0,0-11.78,2.39-11.78,16.39s11.94,21.65,11.94,21.65A26.16,26.16,0,0,1,571.93,791.61Z"/></g><path d="M610.58,857.7c.41,22.11-19.56,57.55-22.73,54.85,10-37.77-10.61-61.11-10.61-61.11Z"/><path class="cls-7" d="M627.84,851.44s3.5,11.25,3.5,13.79v9.23s3.72-.63,5.1.64,4.88-.43,4.88-.43a5.63,5.63,0,0,1,4-1.8,2.81,2.81,0,0,0,2.86-2.12s1.7-2.76,2.87-1.38-1.59-12.31-16.23-19.31l-5.31-2.86"/><path class="cls-7" d="M589.93,748.62l-1.16-47.94S567,705.77,563,747.35"/><path class="cls-9" d="M575.11,711.16c-7,8.83-10.77,22.27-12.12,36.19l3.68.17A79,79,0,0,1,575.11,711.16Z"/><path class="cls-10" d="M577,748l13,.61L588.78,701C581.44,717.55,577.76,742.06,577,748Z"/><path class="cls-11" d="M565.62,746.13s-13.19,3.52-12.23,19.46,15,23.81,15,23.81a29.93,29.93,0,0,1,5.36,8.83l24.48-9.52s4.75-32.46-9.64-42.87l-23,.29s-13.19,3.52-12.23,19.46,15,23.81,15,23.81"/><path class="cls-6" d="M576.34,769.23c6.31-.38,11.16-5,10.84-10.34-1.35-12.77-23-11.47-22.84,1.37C564.66,765.59,570,769.61,576.34,769.23Z"/><ellipse cx="575.11" cy="758.99" rx="4.55" ry="3.2" transform="translate(-44.41 35.79) rotate(-3.43)"/><path class="cls-13" d="M576.08,797.33l-5.42-10.15s-17.2-9.69-15.42-32.1a20.9,20.9,0,0,0-1.85,10.51c1,15.93,15,23.81,15,23.81a29.93,29.93,0,0,1,5.36,8.83Z"/><path class="cls-14" d="M594.22,790.27l4-1.56s4.75-32.46-9.64-42.87H588C597.88,762.4,594.48,788.36,594.22,790.27Z"/><path d="M577.24,851.42c-8.7,10.13,3.93,35.62-1.27,63.64-1.09-3.6-50.49-64.61,2.75-100.54-30.26,31.47-7,69-4.31,84.24C576.76,882,566.92,856.32,577.24,851.42Z"/><path d="M596.37,789.58c.53.88,1.1,1.75,1.68,2.59a69.92,69.92,0,0,0,5.76,7.18c-10.42,7.88-15,9.79-25.09,15.17-.6-1.11-3.62-11.56-5.05-16.62"/><g class="cls-23"><path class="cls-7" d="M634.74,866.24c0,.16,1.24,8.55,1.24,8.55l2,.78Z"/></g><g class="cls-23"><path class="cls-7" d="M638,865.23l4.07,8.79a4.87,4.87,0,0,1,1.64-.9C644.51,872.92,638,865.23,638,865.23Z"/></g><g class="cls-23"><path class="cls-7" d="M647.34,871.84s.49-1,.81-1.19-7.13-9.5-7.13-9.5Z"/></g><path class="cls-6" d="M578.72,814.52c-30.53,29.85-7.29,67.57-4.31,84.24,3-12.54-6.82-39.58,2.83-47.34"/><g class="cls-24"><path d="M610.58,857.7c-16.37-5.36-59-50.1-36.17,41.06,4.91-14.5-8.19-36.14,2.83-47.32C583.64,855.15,596.93,856.14,610.58,857.7Z"/></g><path d="M574.15,750.1a29.46,29.46,0,0,0-.72,19.15C562.41,769.4,559.25,751.5,574.15,750.1Z"/><path class="cls-15" d="M615.16,809c6,15.63,15.59,45.87,4.83,61.31-18.46,21.07-17.84,23.74-18.46,28.66a38.4,38.4,0,0,0,4.56-8.53s22.2-3.57,21.65-38.86l1.75-4.37S631.05,827.12,615.16,809Z"/><path class="cls-10" d="M630.47,847.78l-.38.93c12.54,6.55,16.87,16.51,18.33,21.68.36-.53,1.71-2.32,2.67-1.18,1.11,1.34-1.48-11.84-15.53-18.65Z"/><path class="cls-6" d="M588.37,760v27.41c0,3,4.31,12.23,17.41,3.79,2.76-2.16,5.52-9.31,5.52-18.62,0-9.65-4.14-15.51-4.14-15.51C601.82,749.37,588.37,753,588.37,760Z"/><path class="cls-18" d="M596.23,797.17a10.36,10.36,0,0,1-5-1.23,10.63,10.63,0,0,1-5.37-8.56V760c0-4,3.09-7.54,7.87-9,5-1.58,11.76-.74,15.53,4.66.18.26,4.59,6.63,4.59,17,0,9.15-2.67,17.63-6.49,20.61l-.19.13C602.65,796.2,599,797.17,596.23,797.17Zm2.17-41.89a10.73,10.73,0,0,0-3.18.48c-2,.63-4.31,2.1-4.31,4.21v27.41a5.55,5.55,0,0,0,2.72,4.11c2.45,1.34,6.14.52,10.67-2.38,1.88-1.58,4.47-7.66,4.47-16.56a26.68,26.68,0,0,0-3.68-14.06A7.91,7.91,0,0,0,598.4,755.28Z"/><path class="cls-18" d="M610.53,770.52l-.31,0-21.46-2.59a2.53,2.53,0,1,1,.61-5l21.45,2.58a2.53,2.53,0,0,1-.29,5Z"/><path class="cls-18" d="M609.32,784.39l-.34,0-19.64-2.59a2.53,2.53,0,0,1,.66-5l19.65,2.59a2.53,2.53,0,0,1-.33,5Z"/><path class="cls-6" d="M357.31,799.72l9.84,25.57c1.09,2.82.38,13-14.88,9.8-3.35-1-8.49-6.71-11.84-15.4-3.46-9-1.71-16-1.71-16C341,794.65,354.8,793.2,357.31,799.72Z"/><path class="cls-18" d="M357.57,838.22a28.55,28.55,0,0,1-5.82-.66l-.22,0c-4.64-1.42-10.17-8.37-13.46-16.91-3.71-9.64-1.88-17.17-1.8-17.49,1.57-6.38,7.57-9.58,12.81-9.91,5-.32,9.16,1.88,10.59,5.61l9.84,25.58a10.61,10.61,0,0,1-1.93,9.92C365.94,836.24,362.94,838.22,357.57,838.22Zm-4.66-5.59c5.27,1.08,9,.52,10.81-1.6a5.57,5.57,0,0,0,1.07-4.83L355,800.63c-.76-2-3.46-2.51-5.55-2.38-3.4.21-7.26,2.18-8.22,6.08a26.54,26.54,0,0,0,1.62,14.45C346,827.09,350.59,831.84,352.91,832.63Z"/><path class="cls-18" d="M339.52,817.68a2.53,2.53,0,0,1-1.19-4.76l19.1-10.12a2.53,2.53,0,1,1,2.37,4.47l-19.1,10.12A2.51,2.51,0,0,1,339.52,817.68Z"/><path class="cls-18" d="M345.63,830.2a2.53,2.53,0,0,1-1.21-4.76L361.83,816a2.53,2.53,0,0,1,2.42,4.45l-17.41,9.47A2.53,2.53,0,0,1,345.63,830.2Z"/><path class="cls-15" d="M331.67,841.67c-6.67,17.47-17.42,51.26-5.39,68.51,20.63,23.54,19.94,26.53,20.62,32a43.38,43.38,0,0,1-5.09-9.52s-24.81-4-24.2-43.43l-1.95-4.88S313.93,861.88,331.67,841.67Z"/><path class="cls-10" d="M314.57,885l.42,1c-14,7.32-18.85,18.45-20.47,24.23-.41-.59-1.91-2.6-3-1.32-1.24,1.49,1.65-13.23,17.35-20.84Z"/></g></g></svg>