<svg xmlns="http://www.w3.org/2000/svg" width="336.63" height="99.75" viewBox="0 0 336.63 99.75"><defs><style>.cls-1{fill:#f20f2b;}.cls-2{fill:#452e16;}.cls-3{isolation:isolate;}</style></defs><g id="Layer_2" data-name="Layer 2"><g id="Layer_1-2" data-name="Layer 1"><path class="cls-1" d="M286.86,93.47H49.68A43.7,43.7,0,0,1,6.09,49.88h0A43.71,43.71,0,0,1,49.68,6.28H286.94a43.72,43.72,0,0,1,43.6,43.6h0A43.78,43.78,0,0,1,286.86,93.47Z"/><path class="cls-2" d="M280.55,89.29c2.81-5,9.27-1.48,9.27-1.48l-3.4,8.88c-2.8,5-9.27,1.47-9.27,1.47S278.59,94.39,280.55,89.29Z"/><path d="M281.76,99.75a11.45,11.45,0,0,1-4.8-1.24l-.33-.18.16-.33s.43-1.14,1.11-2.91l2.31-6c3-5.29,9.73-1.66,9.8-1.63l.31.17-3.53,9.2A5.42,5.42,0,0,1,281.76,99.75ZM277.65,98c1.29.61,6.15,2.59,8.42-1.48L289.32,88c-1.28-.62-6.12-2.58-8.4,1.45l-2.28,5.92Z"/><path class="cls-2" d="M263,89.29c2.81-5,9.27-1.48,9.27-1.48l-3.4,8.88c-2.8,5-9.27,1.47-9.27,1.47S261.05,94.39,263,89.29Z"/><path d="M264.22,99.75a11.52,11.52,0,0,1-4.81-1.24l-.32-.18.15-.33,1.62-4.21,1.8-4.7c3-5.29,9.74-1.66,9.81-1.63l.31.17-3.53,9.2A5.43,5.43,0,0,1,264.22,99.75ZM260.11,98c1.29.61,6.15,2.59,8.42-1.48L271.78,88c-1.28-.62-6.13-2.58-8.41,1.45l-1.77,4.61Z"/><path class="cls-2" d="M271.77,89.29c2.81-5,9.27-1.48,9.27-1.48l-3.4,8.88c-2.8,5-9.27,1.47-9.27,1.47S269.81,94.39,271.77,89.29Z"/><path d="M273,99.75a11.45,11.45,0,0,1-4.8-1.24l-.33-.18L268,98c0-.07.64-1.68,1.61-4.21l1.81-4.7c3-5.29,9.74-1.66,9.8-1.63l.31.17L278,96.83A5.42,5.42,0,0,1,273,99.75ZM268.87,98c1.29.61,6.15,2.59,8.42-1.48L280.54,88c-1.28-.62-6.12-2.58-8.4,1.45l-1.78,4.61Z"/><path class="cls-2" d="M263.15,89.29c2.81-5,9.27-1.48,9.27-1.48L269,96.69c-2.8,5-9.27,1.47-9.27,1.47S261.19,94.39,263.15,89.29Z"/><path d="M264.36,99.75a11.45,11.45,0,0,1-4.8-1.24l-.33-.18.16-.33c0-.07.64-1.68,1.61-4.21l1.81-4.7c3-5.29,9.74-1.66,9.8-1.63l.31.17-3.53,9.2A5.42,5.42,0,0,1,264.36,99.75ZM260.25,98c1.29.61,6.15,2.59,8.42-1.48L271.92,88c-1.28-.62-6.12-2.58-8.4,1.45l-1.78,4.61Z"/><path class="cls-2" d="M245.61,89.29c2.81-5,9.27-1.48,9.27-1.48l-3.4,8.88c-2.8,5-9.27,1.47-9.27,1.47S243.65,94.39,245.61,89.29Z"/><path d="M246.82,99.75A11.52,11.52,0,0,1,242,98.51l-.33-.18.17-.34,1.52-4,1.89-4.92c3-5.29,9.74-1.66,9.81-1.63l.31.17-3.53,9.2A5.43,5.43,0,0,1,246.82,99.75ZM242.71,98c1.29.61,6.15,2.59,8.42-1.48L254.38,88c-1.28-.62-6.12-2.58-8.41,1.45l-1.85,4.83Z"/><path class="cls-2" d="M254.37,89.29c2.81-5,9.27-1.48,9.27-1.48l-3.4,8.88c-2.8,5-9.27,1.47-9.27,1.47S252.41,94.39,254.37,89.29Z"/><path d="M255.58,99.75a11.45,11.45,0,0,1-4.8-1.24l-.33-.18.16-.33c0-.07.64-1.68,1.61-4.21l1.81-4.7c3-5.29,9.74-1.66,9.81-1.63l.3.17-3.53,9.2A5.42,5.42,0,0,1,255.58,99.75ZM251.47,98c1.29.61,6.15,2.59,8.42-1.48L263.14,88c-1.28-.62-6.12-2.58-8.4,1.45L253,94.07Z"/><path class="cls-2" d="M245.75,89.29c2.81-5,9.27-1.48,9.27-1.48l-3.4,8.88c-2.8,5-9.27,1.47-9.27,1.47S243.79,94.39,245.75,89.29Z"/><path d="M247,99.75a11.45,11.45,0,0,1-4.8-1.24l-.33-.18L242,98c0-.07.64-1.68,1.61-4.21l1.81-4.7c3-5.29,9.74-1.66,9.8-1.63l.31.17L252,96.83A5.42,5.42,0,0,1,247,99.75ZM242.85,98c1.29.61,6.15,2.59,8.42-1.48L254.52,88c-1.28-.62-6.12-2.58-8.4,1.45l-1.78,4.61Z"/><path class="cls-2" d="M228.21,89.29c2.81-5,9.27-1.48,9.27-1.48l-3.4,8.88c-2.8,5-9.27,1.47-9.27,1.47S226.25,94.39,228.21,89.29Z"/><path d="M229.42,99.75a11.39,11.39,0,0,1-4.8-1.24l-.34-.18.17-.34L226,94l1.89-4.92c3-5.29,9.74-1.66,9.81-1.63l.31.17-3.53,9.2A5.43,5.43,0,0,1,229.42,99.75ZM225.31,98c1.29.61,6.15,2.59,8.42-1.48L237,88c-1.28-.62-6.13-2.58-8.41,1.45l-1.85,4.83Z"/><path class="cls-2" d="M237,89.29c2.81-5,9.27-1.48,9.27-1.48l-3.4,8.88c-2.8,5-9.27,1.47-9.27,1.47S235,94.39,237,89.29Z"/><path d="M238.18,99.75a11.45,11.45,0,0,1-4.8-1.24l-.33-.18.16-.33c0-.07.64-1.68,1.61-4.21l1.81-4.7c3-5.29,9.74-1.66,9.81-1.63l.3.17-3.53,9.2A5.42,5.42,0,0,1,238.18,99.75ZM234.07,98c1.29.61,6.15,2.59,8.42-1.48L245.74,88c-1.28-.62-6.12-2.58-8.4,1.45l-1.77,4.61Z"/><path class="cls-2" d="M228.35,89.29c2.81-5,9.27-1.48,9.27-1.48l-3.4,8.88c-2.8,5-9.27,1.47-9.27,1.47S226.39,94.39,228.35,89.29Z"/><path d="M229.56,99.75a11.45,11.45,0,0,1-4.8-1.24l-.33-.18.16-.33c0-.07.64-1.68,1.61-4.21l1.81-4.7c3-5.29,9.74-1.66,9.8-1.63l.31.17-3.53,9.2A5.42,5.42,0,0,1,229.56,99.75ZM225.45,98c1.29.61,6.15,2.59,8.42-1.48L237.12,88c-1.28-.62-6.12-2.58-8.4,1.45l-1.78,4.61Z"/><path class="cls-2" d="M210.81,89.29c2.81-5,9.27-1.48,9.27-1.48l-3.4,8.88c-2.8,5-9.27,1.47-9.27,1.47S208.85,94.39,210.81,89.29Z"/><path d="M212,99.75a11.45,11.45,0,0,1-4.8-1.24l-.34-.18.17-.34,1.52-4,1.89-4.92c3-5.29,9.74-1.66,9.81-1.63l.31.17-3.53,9.2A5.43,5.43,0,0,1,212,99.75ZM207.91,98c1.29.61,6.15,2.59,8.42-1.48L219.58,88c-1.28-.62-6.12-2.58-8.41,1.45l-1.85,4.83Z"/><path class="cls-2" d="M219.57,89.29c2.81-5,9.27-1.48,9.27-1.48l-3.4,8.88c-2.8,5-9.27,1.47-9.27,1.47S217.62,94.39,219.57,89.29Z"/><path d="M220.78,99.75a11.45,11.45,0,0,1-4.8-1.24l-.33-.18.16-.33c0-.07.64-1.68,1.61-4.21l1.81-4.7c3-5.29,9.74-1.66,9.81-1.63l.3.17-3.53,9.2A5.42,5.42,0,0,1,220.78,99.75ZM216.67,98c1.29.61,6.15,2.59,8.42-1.48L228.34,88c-1.28-.62-6.12-2.58-8.4,1.45l-1.77,4.61Z"/><path class="cls-2" d="M211,89.29c2.81-5,9.27-1.48,9.27-1.48l-3.4,8.88c-2.8,5-9.27,1.47-9.27,1.47S209,94.39,211,89.29Z"/><path d="M212.16,99.75a11.45,11.45,0,0,1-4.8-1.24l-.33-.18.16-.33c0-.07.64-1.68,1.61-4.21l1.81-4.7c3-5.29,9.74-1.66,9.8-1.63l.31.17-3.53,9.2A5.42,5.42,0,0,1,212.16,99.75ZM208.05,98c1.29.61,6.15,2.59,8.42-1.48L219.72,88c-1.28-.62-6.12-2.58-8.4,1.45l-1.78,4.61Z"/><path class="cls-2" d="M193.41,89.29c2.81-5,9.27-1.48,9.27-1.48l-3.4,8.88c-2.8,5-9.27,1.47-9.27,1.47S191.45,94.39,193.41,89.29Z"/><path d="M194.62,99.75a11.45,11.45,0,0,1-4.8-1.24l-.34-.18.17-.34,1.52-4,1.89-4.92c3-5.29,9.74-1.66,9.81-1.63l.31.17-3.53,9.2A5.42,5.42,0,0,1,194.62,99.75ZM190.51,98c1.29.61,6.15,2.59,8.42-1.48L202.18,88c-1.28-.62-6.12-2.58-8.41,1.45l-1.85,4.83Z"/><path class="cls-2" d="M202.18,89.29c2.8-5,9.26-1.48,9.26-1.48L208,96.69c-2.8,5-9.27,1.47-9.27,1.47Z"/><path d="M203.38,99.75a11.45,11.45,0,0,1-4.8-1.24l-.33-.18.16-.33c0-.07.64-1.68,1.61-4.21l1.81-4.7c3-5.29,9.74-1.66,9.81-1.63l.3.17-3.53,9.2A5.42,5.42,0,0,1,203.38,99.75ZM199.27,98c1.29.61,6.15,2.59,8.42-1.48L210.94,88c-1.28-.62-6.12-2.58-8.4,1.45l-1.77,4.61Z"/><path class="cls-2" d="M193.55,89.29c2.81-5,9.27-1.48,9.27-1.48l-3.4,8.88c-2.8,5-9.27,1.47-9.27,1.47S191.6,94.39,193.55,89.29Z"/><path d="M194.76,99.75a11.45,11.45,0,0,1-4.8-1.24l-.33-.18.16-.33c0-.07.64-1.68,1.61-4.21l1.81-4.7c3-5.29,9.74-1.66,9.81-1.63l.3.17-3.53,9.2A5.42,5.42,0,0,1,194.76,99.75ZM190.65,98c1.29.61,6.15,2.59,8.42-1.48L202.32,88c-1.28-.62-6.12-2.58-8.4,1.45l-1.77,4.61Z"/><path class="cls-2" d="M176,89.29c2.81-5,9.27-1.48,9.27-1.48l-3.4,8.88c-2.8,5-9.27,1.47-9.27,1.47S174.05,94.39,176,89.29Z"/><path d="M177.22,99.75a11.45,11.45,0,0,1-4.8-1.24l-.34-.18.17-.34,1.52-4,1.89-4.92c3-5.29,9.75-1.66,9.81-1.63l.31.17-3.53,9.2A5.42,5.42,0,0,1,177.22,99.75ZM173.11,98c1.29.61,6.15,2.59,8.42-1.48L184.78,88c-1.28-.62-6.12-2.58-8.41,1.45l-1.85,4.83Z"/><path class="cls-2" d="M184.78,89.29c2.8-5,9.26-1.48,9.26-1.48l-3.4,8.88c-2.8,5-9.27,1.47-9.27,1.47Z"/><path d="M186,99.75a11.45,11.45,0,0,1-4.8-1.24l-.33-.18L181,98c0-.07.64-1.68,1.61-4.21l1.81-4.7c3-5.29,9.74-1.66,9.81-1.63l.3.17L191,96.83A5.42,5.42,0,0,1,186,99.75ZM181.87,98c1.29.61,6.15,2.59,8.42-1.48L193.54,88c-1.28-.62-6.12-2.58-8.4,1.45l-1.77,4.61C182.44,96.48,182.05,97.52,181.87,98Z"/><path class="cls-2" d="M176.16,89.29c2.8-5,9.26-1.48,9.26-1.48L182,96.69c-2.8,5-9.27,1.47-9.27,1.47Z"/><path d="M177.36,99.75a11.45,11.45,0,0,1-4.8-1.24l-.33-.18.16-.33c0-.07.64-1.68,1.61-4.21l1.81-4.7c3-5.29,9.74-1.66,9.81-1.63l.3.17-3.53,9.2A5.42,5.42,0,0,1,177.36,99.75ZM173.25,98c1.29.61,6.15,2.59,8.42-1.48L184.92,88c-1.28-.62-6.12-2.58-8.4,1.45l-1.77,4.61Z"/><path class="cls-2" d="M158.61,89.29c2.81-5,9.27-1.48,9.27-1.48l-3.4,8.88c-2.8,5-9.27,1.47-9.27,1.47S156.65,94.39,158.61,89.29Z"/><path d="M159.82,99.75a11.45,11.45,0,0,1-4.8-1.24l-.33-.18.16-.33c0-.06.51-1.35,1.31-3.43l2.11-5.48c3-5.29,9.74-1.66,9.8-1.63l.31.17-3.53,9.2A5.42,5.42,0,0,1,159.82,99.75ZM155.71,98c1.29.61,6.15,2.59,8.42-1.48L167.38,88c-1.28-.62-6.12-2.58-8.41,1.45l-2.07,5.39Z"/><path class="cls-2" d="M167.38,89.29c2.8-5,9.27-1.48,9.27-1.48s-1.2,3.11-3.41,8.88c-2.8,5-9.27,1.47-9.27,1.47Z"/><path d="M168.58,99.75a11.45,11.45,0,0,1-4.8-1.24l-.33-.18.16-.33c0-.06.52-1.35,1.31-3.43L167,89.09c3-5.29,9.74-1.66,9.81-1.63l.3.17-3.53,9.2A5.42,5.42,0,0,1,168.58,99.75ZM164.47,98c1.29.61,6.16,2.59,8.42-1.48L176.14,88c-1.28-.62-6.12-2.58-8.4,1.45l-2.07,5.39C165,96.71,164.63,97.57,164.47,98Z"/><path class="cls-2" d="M158.76,89.29c2.8-5,9.26-1.48,9.26-1.48l-3.4,8.88c-2.8,5-9.27,1.47-9.27,1.47Z"/><path d="M160,99.75a11.45,11.45,0,0,1-4.8-1.24l-.33-.18L155,98l1.32-3.44,2.1-5.46c3-5.29,9.74-1.66,9.81-1.63l.3.17L165,96.83A5.42,5.42,0,0,1,160,99.75ZM155.85,98c1.29.61,6.15,2.59,8.42-1.48L167.52,88c-1.28-.62-6.12-2.58-8.4,1.45l-2.07,5.38C156.34,96.71,156,97.57,155.85,98Z"/><path class="cls-2" d="M141.21,89.29c2.81-5,9.27-1.48,9.27-1.48l-3.4,8.88c-2.8,5-9.27,1.47-9.27,1.47S139.25,94.39,141.21,89.29Z"/><path d="M142.42,99.75a11.45,11.45,0,0,1-4.8-1.24l-.33-.18.16-.33c0-.06.51-1.35,1.31-3.43l2.11-5.48c3-5.29,9.74-1.66,9.8-1.63l.31.17-3.53,9.2A5.42,5.42,0,0,1,142.42,99.75ZM138.31,98c1.29.61,6.15,2.59,8.42-1.48L150,88c-1.28-.62-6.12-2.58-8.41,1.45l-2.07,5.39Z"/><path class="cls-2" d="M150,89.29c2.8-5,9.27-1.48,9.27-1.48s-1.2,3.11-3.41,8.88c-2.8,5-9.27,1.47-9.27,1.47Z"/><path d="M151.18,99.75a11.45,11.45,0,0,1-4.8-1.24l-.33-.18.16-.33c0-.06.52-1.35,1.31-3.43l2.11-5.48c3-5.29,9.74-1.66,9.81-1.63l.3.17-3.53,9.2A5.42,5.42,0,0,1,151.18,99.75ZM147.07,98c1.29.61,6.15,2.59,8.42-1.48L158.74,88c-1.28-.62-6.12-2.58-8.4,1.45l-2.07,5.39C147.56,96.71,147.23,97.57,147.07,98Z"/><path class="cls-2" d="M141.36,89.29c2.8-5,9.26-1.48,9.26-1.48l-3.4,8.88c-2.8,5-9.27,1.47-9.27,1.47Z"/><path d="M142.56,99.75a11.45,11.45,0,0,1-4.8-1.24l-.33-.18.16-.33,1.19-3.11,2.23-5.8c3-5.29,9.74-1.66,9.81-1.63l.3.17-3.53,9.2A5.42,5.42,0,0,1,142.56,99.75ZM138.45,98c1.29.61,6.15,2.59,8.42-1.48L150.12,88c-1.28-.62-6.12-2.58-8.4,1.45l-2.2,5.72C138.9,96.81,138.6,97.59,138.45,98Z"/><path class="cls-2" d="M123.81,89.29c2.81-5,9.27-1.48,9.27-1.48l-3.4,8.88c-2.8,5-9.27,1.47-9.27,1.47S121.85,94.39,123.81,89.29Z"/><path d="M125,99.75a11.45,11.45,0,0,1-4.8-1.24l-.33-.18.16-.33c0-.06.51-1.35,1.31-3.43l2.11-5.48c3-5.29,9.74-1.66,9.8-1.63l.31.17-3.53,9.2A5.42,5.42,0,0,1,125,99.75ZM120.91,98c1.29.61,6.15,2.59,8.42-1.48L132.58,88c-1.28-.62-6.12-2.58-8.4,1.45l-2.08,5.39Z"/><path class="cls-2" d="M132.58,89.29c2.8-5,9.27-1.48,9.27-1.48s-1.19,3.11-3.41,8.88c-2.8,5-9.27,1.47-9.27,1.47Z"/><path d="M133.78,99.75a11.45,11.45,0,0,1-4.8-1.24l-.33-.18.16-.33c0-.06.52-1.35,1.31-3.43l2.11-5.48c3-5.29,9.74-1.66,9.81-1.63l.3.17-3.53,9.2A5.42,5.42,0,0,1,133.78,99.75ZM129.67,98c1.29.61,6.15,2.59,8.42-1.48L141.34,88c-1.28-.62-6.12-2.58-8.4,1.45l-2.07,5.39C130.16,96.71,129.83,97.57,129.67,98Z"/><path class="cls-2" d="M124,89.29c2.8-5,9.27-1.48,9.27-1.48s-1.2,3.11-3.41,8.88c-2.8,5-9.27,1.47-9.27,1.47Z"/><path d="M125.16,99.75a11.45,11.45,0,0,1-4.8-1.24l-.33-.18.16-.33s.43-1.14,1.11-2.91l2.31-6c3-5.29,9.74-1.66,9.81-1.63l.3.17-3.53,9.2A5.42,5.42,0,0,1,125.16,99.75ZM121.05,98c1.29.61,6.15,2.59,8.42-1.48L132.72,88c-1.28-.62-6.12-2.58-8.4,1.45l-2.27,5.92Z"/><path class="cls-2" d="M106.41,89.29c2.81-5,9.27-1.48,9.27-1.48l-3.4,8.88c-2.8,5-9.27,1.47-9.27,1.47S104.45,94.39,106.41,89.29Z"/><path d="M107.62,99.75a11.45,11.45,0,0,1-4.8-1.24l-.33-.18.16-.33c0-.06.51-1.35,1.31-3.43l2.11-5.48c3-5.29,9.74-1.66,9.8-1.63l.31.17-3.53,9.2A5.42,5.42,0,0,1,107.62,99.75ZM103.51,98c1.29.61,6.15,2.59,8.42-1.48L115.18,88c-1.28-.62-6.12-2.58-8.4,1.45l-2.08,5.39Z"/><path class="cls-2" d="M115.18,89.29c2.8-5,9.27-1.48,9.27-1.48s-1.19,3.11-3.41,8.88c-2.8,5-9.27,1.47-9.27,1.47Z"/><path d="M116.38,99.75a11.45,11.45,0,0,1-4.8-1.24l-.32-.18.15-.33c0-.06.52-1.35,1.31-3.43l2.11-5.48c3-5.29,9.74-1.66,9.81-1.63l.3.17-3.53,9.2A5.42,5.42,0,0,1,116.38,99.75ZM112.27,98c1.29.61,6.15,2.59,8.42-1.48L124,88c-1.29-.62-6.13-2.58-8.41,1.45l-2.07,5.39C112.76,96.71,112.43,97.57,112.27,98Z"/><path class="cls-2" d="M106.56,89.29c2.8-5,9.27-1.48,9.27-1.48s-1.2,3.11-3.41,8.88c-2.8,5-9.27,1.47-9.27,1.47Z"/><path d="M107.76,99.75a11.45,11.45,0,0,1-4.8-1.24l-.33-.18.16-.33c0-.06.52-1.35,1.31-3.43l2.11-5.48c3-5.29,9.74-1.66,9.81-1.63l.3.17-3.53,9.2A5.42,5.42,0,0,1,107.76,99.75ZM103.65,98c1.29.61,6.15,2.59,8.42-1.48L115.32,88c-1.28-.62-6.12-2.58-8.4,1.45l-2.07,5.39C104.14,96.71,103.81,97.57,103.65,98Z"/><path class="cls-2" d="M89,89.29c2.81-5,9.27-1.48,9.27-1.48l-3.4,8.88c-2.8,5-9.27,1.47-9.27,1.47S87.05,94.39,89,89.29Z"/><path d="M90.22,99.75a11.45,11.45,0,0,1-4.8-1.24l-.33-.18.16-.34,1.32-3.44,2.1-5.46c3-5.29,9.74-1.66,9.8-1.63l.31.17-3.53,9.2A5.42,5.42,0,0,1,90.22,99.75ZM86.11,98c1.29.61,6.15,2.59,8.42-1.48L97.78,88c-1.28-.62-6.12-2.58-8.4,1.45l-2.07,5.38C86.6,96.71,86.27,97.57,86.11,98Z"/><path class="cls-2" d="M97.78,89.29c2.8-5,9.27-1.48,9.27-1.48s-1.19,3.11-3.41,8.88c-2.8,5-9.27,1.47-9.27,1.47Z"/><path d="M99,99.75a11.45,11.45,0,0,1-4.8-1.24l-.32-.18L94,98c0-.06.52-1.35,1.31-3.43l2.11-5.48c3-5.29,9.74-1.66,9.81-1.63l.3.17L104,96.83A5.42,5.42,0,0,1,99,99.75ZM94.87,98c1.29.61,6.16,2.59,8.42-1.48L106.55,88c-1.29-.62-6.13-2.58-8.41,1.45l-2.07,5.39C95.36,96.71,95,97.57,94.87,98Z"/><path class="cls-2" d="M89.16,89.29c2.8-5,9.27-1.48,9.27-1.48S97.24,90.92,95,96.69c-2.8,5-9.27,1.47-9.27,1.47Z"/><path d="M90.36,99.75a11.45,11.45,0,0,1-4.8-1.24l-.33-.18.16-.33c0-.06.52-1.35,1.31-3.43l2.11-5.48c3-5.29,9.74-1.66,9.81-1.63l.3.17-3.53,9.2A5.42,5.42,0,0,1,90.36,99.75ZM86.25,98c1.29.61,6.15,2.59,8.42-1.48L97.93,88c-1.29-.62-6.13-2.58-8.41,1.45l-2.07,5.39C86.74,96.71,86.41,97.57,86.25,98Z"/><path class="cls-2" d="M71.61,89.29c2.81-5,9.27-1.48,9.27-1.48l-3.4,8.88c-2.8,5-9.27,1.47-9.27,1.47S69.66,94.39,71.61,89.29Z"/><path d="M72.82,99.75A11.45,11.45,0,0,1,68,98.51l-.33-.18.16-.34,1.32-3.44,2.1-5.46c3-5.29,9.74-1.66,9.8-1.63l.31.17-3.53,9.2A5.42,5.42,0,0,1,72.82,99.75ZM68.71,98c1.29.61,6.15,2.59,8.42-1.48L80.38,88c-1.28-.62-6.12-2.58-8.4,1.45l-2.07,5.38C69.2,96.71,68.87,97.57,68.71,98Z"/><path class="cls-2" d="M80.38,89.29c2.81-5,9.27-1.48,9.27-1.48s-1.19,3.11-3.41,8.88c-2.8,5-9.27,1.47-9.27,1.47Z"/><path d="M81.58,99.75a11.45,11.45,0,0,1-4.8-1.24l-.32-.18.15-.33c0-.06.52-1.35,1.31-3.43L80,89.09c3-5.29,9.74-1.66,9.81-1.63l.3.17-3.53,9.2A5.42,5.42,0,0,1,81.58,99.75ZM77.47,98c1.29.61,6.16,2.59,8.42-1.48L89.15,88c-1.29-.62-6.13-2.58-8.41,1.45l-2.07,5.39C78,96.71,77.63,97.57,77.47,98Z"/><path class="cls-2" d="M71.76,89.29c2.8-5,9.27-1.48,9.27-1.48s-1.19,3.11-3.41,8.88c-2.8,5-9.27,1.47-9.27,1.47Z"/><path d="M73,99.75a11.45,11.45,0,0,1-4.8-1.24l-.32-.18L68,98c0-.06.52-1.35,1.31-3.43l2.11-5.48c3-5.29,9.74-1.66,9.81-1.63l.3.17L78,96.83A5.42,5.42,0,0,1,73,99.75ZM68.85,98c1.29.61,6.15,2.59,8.42-1.48L80.53,88c-1.29-.62-6.13-2.58-8.41,1.45l-2.07,5.39C69.34,96.71,69,97.57,68.85,98Z"/><path class="cls-2" d="M54.21,89.29c2.81-5,9.27-1.48,9.27-1.48l-3.4,8.88c-2.8,5-9.27,1.47-9.27,1.47S52.26,94.39,54.21,89.29Z"/><path d="M55.42,99.75a11.45,11.45,0,0,1-4.8-1.24l-.33-.18.16-.34,1.32-3.44,2.1-5.46c3-5.29,9.74-1.66,9.81-1.63l.3.17-3.53,9.2A5.42,5.42,0,0,1,55.42,99.75ZM51.31,98c1.29.61,6.15,2.59,8.42-1.48L63,88c-1.28-.62-6.12-2.58-8.4,1.45l-2.07,5.38C51.8,96.71,51.47,97.57,51.31,98Z"/><path class="cls-2" d="M63,89.29c2.81-5,9.27-1.48,9.27-1.48s-1.19,3.11-3.41,8.88c-2.8,5-9.27,1.47-9.27,1.47S61,94.39,63,89.29Z"/><path d="M64.18,99.75a11.45,11.45,0,0,1-4.8-1.24l-.32-.18.15-.33c0-.06.52-1.35,1.31-3.43l2.11-5.48c3-5.29,9.74-1.66,9.81-1.63l.3.17-3.53,9.2A5.42,5.42,0,0,1,64.18,99.75ZM60.07,98c1.29.61,6.16,2.59,8.42-1.48L71.75,88c-1.29-.62-6.13-2.58-8.41,1.45l-2.07,5.39C60.56,96.71,60.23,97.57,60.07,98Z"/><path class="cls-2" d="M54.36,89.29c2.81-5,9.27-1.48,9.27-1.48s-1.19,3.11-3.41,8.88c-2.8,5-9.27,1.47-9.27,1.47Z"/><path d="M55.56,99.75a11.45,11.45,0,0,1-4.8-1.24l-.3-.17.12-.32,1.76-4.59L54,89.09c3-5.29,9.74-1.66,9.81-1.63l.3.17-3.53,9.2A5.42,5.42,0,0,1,55.56,99.75ZM51.45,98c1.29.61,6.15,2.59,8.42-1.48L63.13,88c-1.29-.62-6.13-2.58-8.41,1.45l-1.64,4.26C52.28,95.8,51.7,97.33,51.45,98Z"/><path class="cls-2" d="M38.23,87.57a5,5,0,0,1,2.84-1.69,4.23,4.23,0,0,1,1.33,0,5.2,5.2,0,0,1,1.26.23,8.53,8.53,0,0,1,2,1c.26.18.48.27.63.38l.23.15s-.31.76-1,2.23A64.42,64.42,0,0,1,42.2,96a5.15,5.15,0,0,1-1.56,1.28,3.84,3.84,0,0,1-1.73.49,7.87,7.87,0,0,1-3.42-.6A10.32,10.32,0,0,1,33,95.63a9.69,9.69,0,0,1-.93-.85l.51-.53c.33-.34.8-.84,1.37-1.47A65.35,65.35,0,0,0,38.23,87.57Z"/><path d="M38.47,98.22a8.64,8.64,0,0,1-3.12-.65A10.17,10.17,0,0,1,32.85,96L32.76,96a12.59,12.59,0,0,1-1-.9l-.26-.28.79-.8c.32-.34.79-.83,1.36-1.46a63.71,63.71,0,0,0,4.23-5.18l0,0A5.47,5.47,0,0,1,41,85.49a5,5,0,0,1,1.44,0,5.63,5.63,0,0,1,1.33.25,9.25,9.25,0,0,1,2.13,1c.14.1.27.17.37.23l.27.16.5.33-.13.3s-.32.79-1,2.24a69,69,0,0,1-3.39,6.2,5.52,5.52,0,0,1-1.71,1.42,4.32,4.32,0,0,1-1.9.54Zm-5.83-3.45a8.05,8.05,0,0,0,.62.55l.08.07a9.8,9.8,0,0,0,2.3,1.44,7.56,7.56,0,0,0,3.24.58A3.62,3.62,0,0,0,40.45,97a4.92,4.92,0,0,0,1.44-1.18c1.62-2.65,2.67-4.74,3.32-6.08.42-.91.7-1.55.85-1.9l-.17-.09a4.45,4.45,0,0,1-.42-.26,8.58,8.58,0,0,0-1.93-1,5,5,0,0,0-1.16-.22,4.29,4.29,0,0,0-1.24,0,4.8,4.8,0,0,0-2.61,1.55A62.78,62.78,0,0,1,34.26,93c-.58.64-1,1.14-1.38,1.48Z"/><path class="cls-2" d="M46,89.1a5.07,5.07,0,0,1,2.45-2.23,4.28,4.28,0,0,1,1.31-.25,7.78,7.78,0,0,1,1.53,0,11.6,11.6,0,0,1,3.58,1.14s-1.19,3.11-3.41,8.88a5.28,5.28,0,0,1-1.2,1.5,3.66,3.66,0,0,1-1.54.8,7.94,7.94,0,0,1-3.46.09,6.06,6.06,0,0,1-1.53-.46c-.46-.19-.88-.39-1.22-.57a9.94,9.94,0,0,1-1.08-.65s.14-.23.4-.63.61-1,1-1.71A62.49,62.49,0,0,0,46,89.1Z"/><path d="M46.86,99.63a9.18,9.18,0,0,1-1.69-.16A6.53,6.53,0,0,1,43.56,99a12.88,12.88,0,0,1-1.25-.59,11,11,0,0,1-1.13-.67l-.31-.22.6-1c.25-.4.61-1,1-1.7a61,61,0,0,0,3.1-5.93l0,0a5.5,5.5,0,0,1,2.65-2.39,4.44,4.44,0,0,1,1.44-.28,7.88,7.88,0,0,1,1.59.06A12,12,0,0,1,55,87.46l.3.17-3.53,9.2a5.87,5.87,0,0,1-1.31,1.66,4,4,0,0,1-1.69.88A7.13,7.13,0,0,1,46.86,99.63ZM42,97.28c.17.11.42.26.72.42s.79.39,1.18.55a6.21,6.21,0,0,0,1.43.44,7.56,7.56,0,0,0,3.31-.09A3.17,3.17,0,0,0,50,97.9a5.09,5.09,0,0,0,1.12-1.41L54.35,88a11.09,11.09,0,0,0-3.14-.94,6.39,6.39,0,0,0-1.44,0,3.77,3.77,0,0,0-1.2.22,4.79,4.79,0,0,0-2.24,2,65.46,65.46,0,0,1-3.13,6c-.44.74-.8,1.32-1.06,1.73Z"/><path class="cls-2" d="M38.35,87.6a5.07,5.07,0,0,1,2.84-1.69,5.92,5.92,0,0,1,1.33,0,5.74,5.74,0,0,1,1.26.24,8.53,8.53,0,0,1,2,1,8.73,8.73,0,0,1,.87.52s-.31.76-1,2.22a64,64,0,0,1-3.34,6.18,5.4,5.4,0,0,1-1.55,1.28,4.9,4.9,0,0,1-.86.36,4.36,4.36,0,0,1-.88.14,7.86,7.86,0,0,1-3.41-.6,6.28,6.28,0,0,1-1.41-.75c-.42-.28-.78-.56-1.08-.8a10.87,10.87,0,0,1-.94-.85l.52-.54c.33-.34.79-.84,1.36-1.47A61.06,61.06,0,0,0,38.35,87.6Z"/><path d="M38.63,98.26a8.64,8.64,0,0,1-3.13-.65A7.19,7.19,0,0,1,34,96.82c-.37-.26-.75-.53-1.1-.83-.61-.5-1-.87-1-.88l-.26-.28.78-.81c.33-.33.79-.83,1.36-1.46A61.76,61.76,0,0,0,38,87.36l0,0a5.44,5.44,0,0,1,3.07-1.8,4.43,4.43,0,0,1,1.2,0h.21a6.14,6.14,0,0,1,1.36.26,9.25,9.25,0,0,1,2.13,1,9.67,9.67,0,0,1,.87.53l.27.18-.12.3s-.32.78-1,2.24a66.07,66.07,0,0,1-3.37,6.21A5.7,5.7,0,0,1,41,97.69a5.77,5.77,0,0,1-.92.39,4.37,4.37,0,0,1-1,.16Zm-5.85-3.43.63.55a10.85,10.85,0,0,0,1.05.77,5.34,5.34,0,0,0,1.32.71,7.54,7.54,0,0,0,3.26.59,4.64,4.64,0,0,0,.79-.13,5.88,5.88,0,0,0,.78-.33A4.89,4.89,0,0,0,42,95.8a65.23,65.23,0,0,0,3.29-6.09c.42-.91.7-1.55.85-1.9-.14-.09-.33-.2-.56-.32a8.65,8.65,0,0,0-2-1,5,5,0,0,0-1.16-.22h-.22a3.87,3.87,0,0,0-1,0,4.71,4.71,0,0,0-2.6,1.55,62.62,62.62,0,0,1-4.26,5.24c-.57.64-1,1.14-1.37,1.49Z"/><path class="cls-2" d="M24.49,80.11a5.3,5.3,0,0,1,3.29-.44,3.91,3.91,0,0,1,1.22.52,7.35,7.35,0,0,1,1.06.73,8.68,8.68,0,0,1,1.5,1.69,6,6,0,0,0,.42.61l.15.24-.44.42c-.29.28-.75.71-1.33,1.22-1.18,1-3,2.54-5.51,4.37a5.48,5.48,0,0,1-1.94.57,4.35,4.35,0,0,1-1.77-.24,7.73,7.73,0,0,1-2.92-1.86A13.14,13.14,0,0,1,16,84.39l.69-.29c.43-.19,1.06-.47,1.83-.84C20.08,82.54,22.2,81.47,24.49,80.11Z"/><path d="M22.58,90.46A5.11,5.11,0,0,1,21,90.18a8.18,8.18,0,0,1-3.08-2,13.33,13.33,0,0,1-2.3-3.69l-.14-.35,1-.45c.43-.19,1.06-.47,1.83-.83,1.4-.65,3.56-1.73,5.92-3.13l0,0a5.6,5.6,0,0,1,3.54-.47,4.42,4.42,0,0,1,1.35.57l.24.15a7.18,7.18,0,0,1,.86.62,8.63,8.63,0,0,1,1.57,1.77c.17.26.31.46.41.59l.35.53-.79.76c-.3.28-.72.68-1.24,1.13a69.79,69.79,0,0,1-5.54,4.39,5.87,5.87,0,0,1-2.13.65Zm-6-5.86a12.53,12.53,0,0,0,2,3.07,7.32,7.32,0,0,0,2.74,1.75,4.08,4.08,0,0,0,1.61.23,5,5,0,0,0,1.8-.54C27.19,87.3,29,85.78,30.1,84.8c.51-.45.92-.84,1.21-1.11l.3-.29-.39-.57a7.56,7.56,0,0,0-1.42-1.61,5,5,0,0,0-.77-.54l-.24-.16a3.63,3.63,0,0,0-1.1-.46,4.88,4.88,0,0,0-3,.41c-2.37,1.41-4.55,2.49-6,3.16-.77.36-1.41.64-1.84.83Z"/><path class="cls-2" d="M31,84.56a5.09,5.09,0,0,1,3.13-1.09,4,4,0,0,1,1.3.27,5.12,5.12,0,0,1,1.18.48,8.83,8.83,0,0,1,1.8,1.38c.22.22.41.37.54.5l.2.19s-.46.69-1.41,2a68.81,68.81,0,0,1-4.53,5.37c-2.33,1.9-4.92,1-6.8-.19a11.25,11.25,0,0,1-2.12-2,10,10,0,0,1-.75-1L24.2,90c.38-.27.95-.67,1.63-1.18A66.22,66.22,0,0,0,31,84.56Z"/><path d="M30.24,95.15a7.52,7.52,0,0,1-4-1.35A11.56,11.56,0,0,1,24,91.69a11.73,11.73,0,0,1-.79-1.06L23,90.28l.94-.61c.38-.27.94-.66,1.62-1.17a66.7,66.7,0,0,0,5.18-4.23l0,0a5.45,5.45,0,0,1,3.37-1.17,4.47,4.47,0,0,1,1.42.3,5.31,5.31,0,0,1,1.25.51,8.74,8.74,0,0,1,1.88,1.44l.3.28.25.22.42.42-.18.27s-.47.71-1.42,2a68,68,0,0,1-4.56,5.41A5.11,5.11,0,0,1,30.24,95.15Zm-6.1-4.63c.12.17.28.4.5.66a10.62,10.62,0,0,0,2,1.95c2.44,1.57,4.57,1.64,6.32.21,2.12-2.29,3.56-4.12,4.46-5.3.59-.81,1-1.39,1.21-1.7l-.16-.14c-.1-.09-.22-.19-.34-.31a8.12,8.12,0,0,0-1.71-1.32,4.53,4.53,0,0,0-1.09-.44,3.72,3.72,0,0,0-1.22-.26,4.67,4.67,0,0,0-2.86,1,67.36,67.36,0,0,1-5.22,4.27c-.69.51-1.26.91-1.65,1.18Z"/><path class="cls-2" d="M24.59,80.2a5.17,5.17,0,0,1,3.28-.46,4.22,4.22,0,0,1,1.23.52,5.65,5.65,0,0,1,1.06.72,8.39,8.39,0,0,1,1.5,1.7c.17.26.33.45.43.6l.16.23s-.59.59-1.78,1.66A69.81,69.81,0,0,1,25,89.55c-2.67,1.41-5,0-6.64-1.51a12.43,12.43,0,0,1-1.67-2.41,9.21,9.21,0,0,1-.54-1.13l.68-.3c.44-.19,1.06-.47,1.83-.84A65.94,65.94,0,0,0,24.59,80.2Z"/><path d="M22.73,90.52a6.91,6.91,0,0,1-4.66-2.19,12.54,12.54,0,0,1-1.75-2.51,8.19,8.19,0,0,1-.56-1.18l-.14-.35.35-.16.68-.3c.43-.18,1.06-.46,1.82-.83,1.4-.66,3.56-1.74,5.91-3.14l0,0A5.61,5.61,0,0,1,28,79.35a4.4,4.4,0,0,1,1.34.58,5.91,5.91,0,0,1,1.11.75A8.35,8.35,0,0,1,32,82.45c.11.17.2.29.28.4a1.37,1.37,0,0,1,.15.21l.34.5-.23.23s-.61.61-1.79,1.67a69.77,69.77,0,0,1-5.53,4.41A5.28,5.28,0,0,1,22.73,90.52Zm-6.08-5.81c.09.18.21.44.37.73a11.79,11.79,0,0,0,1.62,2.33c2.1,2,4.18,2.47,6.15,1.42a69,69,0,0,0,5.42-4.32c.74-.67,1.25-1.15,1.52-1.41a1.13,1.13,0,0,0-.1-.13l-.31-.44a8.09,8.09,0,0,0-1.41-1.61,5.87,5.87,0,0,0-1-.67,3.55,3.55,0,0,0-1.12-.48,4.77,4.77,0,0,0-3,.42c-2.37,1.42-4.54,2.51-6,3.18L17,84.57Z"/><path class="cls-2" d="M14.7,67.91a5.62,5.62,0,0,1,3.19.87,4.24,4.24,0,0,1,.95.94c.25.35.45.74.66,1.1A9.09,9.09,0,0,1,20.43,74s-.74.29-2.23.8a67.79,67.79,0,0,1-6.8,1.93,4.6,4.6,0,0,1-3.53-1.13,6.69,6.69,0,0,1-1.18-1.32,8.23,8.23,0,0,1-.46-.74C6.1,73.25,6,73,5.9,72.72a13.85,13.85,0,0,1-.64-2.86,11.28,11.28,0,0,1-.07-1.26s1.06,0,2.77-.06S12.06,68.29,14.7,67.91Z"/><path d="M10.91,77.12a5,5,0,0,1-3.3-1.25,7.35,7.35,0,0,1-1.25-1.39q-.25-.37-.48-.78a5.89,5.89,0,0,1-.33-.8,12.8,12.8,0,0,1-.68-3,10.61,10.61,0,0,1-.08-1.31l0-.39H5.2s1.07,0,2.75-.07,4-.23,6.7-.62h.06a6,6,0,0,1,3.41.94,4.83,4.83,0,0,1,1,1c.18.26.34.54.49.8l.19.33a9.56,9.56,0,0,1,1,3.33l0,.29-.28.11s-.77.3-2.25.81a69.7,69.7,0,0,1-6.84,1.94ZM5.6,69c0,.21,0,.48.06.81a12.34,12.34,0,0,0,.62,2.77,7.8,7.8,0,0,0,.3.75c.13.23.28.46.44.69a6.36,6.36,0,0,0,1.1,1.24,4.12,4.12,0,0,0,3.24,1,66,66,0,0,0,6.71-1.91c.94-.32,1.59-.55,1.93-.68a8.62,8.62,0,0,0-.85-2.7L19,70.68a6.81,6.81,0,0,0-.45-.73,3.81,3.81,0,0,0-.85-.85,5.29,5.29,0,0,0-2.93-.79c-2.75.39-5.18.56-6.75.63C6.89,69,6.06,69,5.6,69Z"/><path class="cls-2" d="M19,74.54a5.43,5.43,0,0,1,3.3.21,6.14,6.14,0,0,1,2,1.67,8.51,8.51,0,0,1,1.15,2l.39,1s-.7.47-2.05,1.25a70.07,70.07,0,0,1-6.27,3.21,5.05,5.05,0,0,1-2,.19,4.8,4.8,0,0,1-1.68-.59,7.28,7.28,0,0,1-2.5-2.4A13,13,0,0,1,9.86,77.1l.73-.16c.47-.1,1.14-.25,2-.46C14.22,76.07,16.51,75.43,19,74.54Z"/><path d="M16,84.41a4.89,4.89,0,0,1-.54,0,5.46,5.46,0,0,1-1.84-.64A7.7,7.7,0,0,1,11,81.21a13.09,13.09,0,0,1-1.54-4l-.07-.38,1.11-.24c.46-.1,1.13-.25,2-.46,1.51-.37,3.85-1,6.43-1.93H19a5.85,5.85,0,0,1,3.55.24,6.1,6.1,0,0,1,2,1.64l.11.13a9.19,9.19,0,0,1,1.22,2l.51,1.27-.27.18s-.73.49-2.07,1.26a69.35,69.35,0,0,1-6.3,3.24A6.06,6.06,0,0,1,16,84.41Zm-5.7-7a13.1,13.1,0,0,0,1.36,3.39,6.9,6.9,0,0,0,2.36,2.26,4.43,4.43,0,0,0,1.54.54,4.91,4.91,0,0,0,1.84-.18c2.83-1.29,4.89-2.43,6.18-3.18.85-.48,1.44-.85,1.76-1.06l-.27-.65A7.71,7.71,0,0,0,24,76.68l-.1-.11a5.2,5.2,0,0,0-1.74-1.45,5,5,0,0,0-3-.19c-2.61.92-5,1.56-6.48,1.94-.83.21-1.51.36-2,.46Z"/><path class="cls-2" d="M14.76,68a5.52,5.52,0,0,1,3.19.85,4.24,4.24,0,0,1,.95.94,4.53,4.53,0,0,1,.34.55q.18.27.33.54A8.09,8.09,0,0,1,20.33,73c.07.3.11.56.14.74a1.47,1.47,0,0,0,.05.28l-.57.22-1.67.6c-1.49.5-3.73,1.22-6.79,1.94a4.77,4.77,0,0,1-2-.21A4.86,4.86,0,0,1,8,75.7a7,7,0,0,1-1.18-1.31A5.89,5.89,0,0,1,6,72.86a13.07,13.07,0,0,1-.71-4.11H6c.47,0,1.16,0,2-.07C9.74,68.59,12.12,68.42,14.76,68Z"/><path d="M11,77.24A4.58,4.58,0,0,1,9.35,77a5.63,5.63,0,0,1-1.66-1,7.35,7.35,0,0,1-1.25-1.39A6.46,6.46,0,0,1,5.59,73a13.47,13.47,0,0,1-.73-4.24v-.39H6c.47,0,1.16,0,2-.07,1.55-.07,4-.24,6.69-.64h.06a5.9,5.9,0,0,1,3.42.93,4.24,4.24,0,0,1,1,1,5.27,5.27,0,0,1,.37.59,4.54,4.54,0,0,1,.33.54,8.84,8.84,0,0,1,.8,2.23,7.74,7.74,0,0,1,.14.77c0,.15,0,.23,0,.24l.09.34-2.58,1a70.09,70.09,0,0,1-6.83,2Zm-5.31-8.1a13,13,0,0,0,.69,3.59,5.36,5.36,0,0,0,.75,1.43A6.4,6.4,0,0,0,8.21,75.4a4.56,4.56,0,0,0,1.42.83,4.3,4.3,0,0,0,1.83.19c3-.71,5.27-1.44,6.69-1.92l1.92-.69c0-.17-.07-.41-.13-.69a7.72,7.72,0,0,0-.72-2,3.76,3.76,0,0,0-.31-.5,5.11,5.11,0,0,0-.33-.54,3.65,3.65,0,0,0-.86-.85,5.07,5.07,0,0,0-2.93-.78c-2.74.4-5.18.57-6.74.64-.86,0-1.56.06-2,.07Z"/><path class="cls-2" d="M10.43,52.91a6,6,0,0,1,1.55.93A4.11,4.11,0,0,1,13,55a4.75,4.75,0,0,1,.67,2.5,9,9,0,0,1-.33,3.25s-.81,0-2.38-.13a68.25,68.25,0,0,1-7-.86,4.7,4.7,0,0,1-2.79-2.43,6.38,6.38,0,0,1-.69-3.4A13.09,13.09,0,0,1,1,51c.11-.36.22-.66.29-.86s.14-.32.14-.32,1,.42,2.58,1S7.84,52.22,10.43,52.91Z"/><path d="M13.64,61.1h-.3s-.83,0-2.4-.13a69.8,69.8,0,0,1-7.08-.87A5,5,0,0,1,.79,57.46a6.79,6.79,0,0,1-.74-3.62,14,14,0,0,1,.54-3c.11-.38.22-.69.3-.89s.15-.36.15-.36l.17-.33.35.15s1,.42,2.56,1a65.74,65.74,0,0,0,6.41,2.05l.05,0a6.46,6.46,0,0,1,1.66,1,5,5,0,0,1,1.11,1.2,5.31,5.31,0,0,1,.73,2.7,9.43,9.43,0,0,1-.35,3.39Zm-12-10.75c-.07.19-.16.45-.26.77a12.82,12.82,0,0,0-.5,2.79A5.85,5.85,0,0,0,1.5,57.1a4.23,4.23,0,0,0,2.55,2.23c3.09.53,5.45.74,7,.85,1,.07,1.68.1,2.05.11a8.84,8.84,0,0,0,.24-2.8,4.59,4.59,0,0,0-.61-2.33,4.25,4.25,0,0,0-.94-1,5.67,5.67,0,0,0-1.44-.86c-2.68-.72-5-1.52-6.46-2.07C2.81,50.83,2,50.52,1.61,50.35Z"/><path class="cls-2" d="M11.82,60.68a6.53,6.53,0,0,1,1.72.59,4.48,4.48,0,0,1,1.23.89,5.18,5.18,0,0,1,1.17,2.31,9.2,9.2,0,0,1,.31,3.26s-.79.14-2.35.35a66.53,66.53,0,0,1-7.06.56,4.58,4.58,0,0,1-3.23-1.81,6.88,6.88,0,0,1-.91-1.52,8,8,0,0,1-.3-.82c-.06-.28-.11-.57-.15-.85a12.86,12.86,0,0,1-.07-2.93c0-.38.08-.69.11-.9a2.07,2.07,0,0,1,.07-.34s1,.22,2.73.49S9.15,60.53,11.82,60.68Z"/><path d="M6.85,69a5,5,0,0,1-3.55-2,7,7,0,0,1-1-1.62A6.23,6.23,0,0,1,2,64.59c-.07-.31-.13-.6-.17-.89a13.75,13.75,0,0,1-.07-3c0-.4.08-.72.12-.94a1.74,1.74,0,0,1,.09-.4L2.1,59l.35.07s1,.22,2.7.48a65.06,65.06,0,0,0,6.7.72h.05a6.53,6.53,0,0,1,1.82.63,4.54,4.54,0,0,1,1.33,1,5.35,5.35,0,0,1,1.27,2.48,9.31,9.31,0,0,1,.32,3.41l0,.3-.29.05s-.82.15-2.37.36A70,70,0,0,1,6.85,69Zm-4.18-9.1c0,.21-.07.48-.09.81a12.64,12.64,0,0,0,.06,2.84q.06.4.15.81a6.49,6.49,0,0,0,.28.75,6.75,6.75,0,0,0,.85,1.44,4.21,4.21,0,0,0,3,1.66c3.13-.1,5.48-.37,7-.56,1-.13,1.66-.24,2-.3a8.51,8.51,0,0,0-.31-2.8,4.85,4.85,0,0,0-1.07-2.15,3.93,3.93,0,0,0-1.13-.81,5.73,5.73,0,0,0-1.58-.55C9,60.92,6.58,60.59,5,60.35,3.94,60.18,3.12,60,2.67,59.94Z"/><path class="cls-2" d="M10.44,53A6.24,6.24,0,0,1,12,54a4.27,4.27,0,0,1,1,1.11,5,5,0,0,1,.68,2.5,9,9,0,0,1-.33,3.25s-.81,0-2.38-.12a69.36,69.36,0,0,1-7-.84,6.72,6.72,0,0,1-1-.42,5,5,0,0,1-1.83-2,6.69,6.69,0,0,1-.58-1.68,8.11,8.11,0,0,1-.14-.86c0-.29,0-.58,0-.86A12.77,12.77,0,0,1,1.4,50l.69.28c.45.18,1.09.44,1.89.73C5.59,51.59,7.85,52.36,10.44,53Z"/><path d="M13.67,61.22h-.3s-.83,0-2.39-.12a70.66,70.66,0,0,1-7.08-.85,5.68,5.68,0,0,1-1.1-.47A4.72,4.72,0,0,1,2,59.16,5.12,5.12,0,0,1,.81,57.62a7.4,7.4,0,0,1-.62-1.77c-.06-.31-.11-.61-.14-.91s0-.63,0-.92a13,13,0,0,1,1-4.2l.14-.33.35.11.17.07.54.23,1.88.72c1.46.54,3.76,1.33,6.42,2l.05,0a7.33,7.33,0,0,1,1.65,1,5,5,0,0,1,1.13,1.21,5.49,5.49,0,0,1,.74,2.69,9.46,9.46,0,0,1-.35,3.4ZM1.62,50.5a12.7,12.7,0,0,0-.76,3.57,7.42,7.42,0,0,0,0,.82c0,.24.07.52.13.79a6.26,6.26,0,0,0,.55,1.58,4.53,4.53,0,0,0,1,1.32,4.4,4.4,0,0,0,.69.51,4.87,4.87,0,0,0,.89.39A67.87,67.87,0,0,0,11,60.3c1,.07,1.68.1,2.05.11a8.84,8.84,0,0,0,.24-2.8,4.74,4.74,0,0,0-.62-2.32,3.9,3.9,0,0,0-.94-1,5.62,5.62,0,0,0-1.45-.86c-2.68-.71-5-1.51-6.47-2.05-.8-.3-1.45-.56-1.9-.74Z"/><path class="cls-2" d="M12.34,37.42a5.66,5.66,0,0,1,1.59,2.88,5.23,5.23,0,0,1-.35,2.57A9.07,9.07,0,0,1,12,45.73s-.73-.33-2.13-1a68.09,68.09,0,0,1-6.13-3.55,4.56,4.56,0,0,1-1.64-3.32,6.55,6.55,0,0,1,.13-1.77,8.11,8.11,0,0,1,.21-.85,6.86,6.86,0,0,1,.35-.78A12.82,12.82,0,0,1,4.38,32c.25-.3.46-.53.61-.68s.24-.24.24-.24.73.77,2,1.95S10.22,35.77,12.34,37.42Z"/><path d="M12.09,46.22l-.27-.13s-.76-.34-2.15-1.05A68.36,68.36,0,0,1,3.5,41.48a5,5,0,0,1-1.82-3.63A7.17,7.17,0,0,1,1.82,36,6.29,6.29,0,0,1,2,35.09c.12-.31.24-.59.37-.85a14.17,14.17,0,0,1,1.66-2.53c.26-.3.48-.54.63-.7A3.37,3.37,0,0,1,5,30.74l.29-.23.25.27s.74.77,2,1.93,2.93,2.71,5.1,4.39l.05,0a6.08,6.08,0,0,1,1.69,3.1A5.5,5.5,0,0,1,14,43a9.57,9.57,0,0,1-1.67,3ZM5.23,31.61c-.15.16-.33.36-.54.61A12.54,12.54,0,0,0,3.13,34.6c-.12.24-.24.49-.34.75a6.87,6.87,0,0,0-.19.78,6,6,0,0,0-.12,1.66A4.18,4.18,0,0,0,4,40.84,68.35,68.35,0,0,0,10,44.33l1.84.91a8.75,8.75,0,0,0,1.33-2.49,4.78,4.78,0,0,0,.33-2.37,5.25,5.25,0,0,0-1.46-2.67c-2.18-1.69-4-3.34-5.14-4.42C6.14,32.53,5.55,31.94,5.23,31.61Z"/><path class="cls-2" d="M10.59,45.12a5.61,5.61,0,0,1,2.15,2.51,5.22,5.22,0,0,1,.16,2.59,9.07,9.07,0,0,1-1,3.12s-.78-.17-2.3-.59A70.23,70.23,0,0,1,2.9,50.5,4.76,4.76,0,0,1,2,49.9a4.17,4.17,0,0,1-.63-.71,4.93,4.93,0,0,1-.77-1.62A6.89,6.89,0,0,1,.4,45.82a5.39,5.39,0,0,1,.22-1.71,12.81,12.81,0,0,1,1.74-3.8l.62.42c.4.27,1,.64,1.7,1.1C6.14,42.73,8.19,43.94,10.59,45.12Z"/><path d="M12.12,53.8l-.29-.07s-.81-.18-2.32-.6a68.73,68.73,0,0,1-6.76-2.26,5.41,5.41,0,0,1-1-.67,5.17,5.17,0,0,1-.7-.77,5.42,5.42,0,0,1-.82-1.75A7.27,7.27,0,0,1,0,45.82,6,6,0,0,1,.23,44,13.62,13.62,0,0,1,2,40.08l.24-.33.93.65c.39.26,1,.64,1.69,1.09,1.32.82,3.41,2,5.88,3.27l.05,0a6,6,0,0,1,2.29,2.7,5.48,5.48,0,0,1,.19,2.78,9.74,9.74,0,0,1-1,3.27ZM2.47,40.87A12.82,12.82,0,0,0,1,44.21a5.13,5.13,0,0,0-.2,1.6A6.23,6.23,0,0,0,1,47.47,4.65,4.65,0,0,0,1.72,49a4.41,4.41,0,0,0,.57.64,6,6,0,0,0,.8.56,69.64,69.64,0,0,0,6.64,2.2c.95.27,1.62.44,2,.52a8.49,8.49,0,0,0,.8-2.7,4.82,4.82,0,0,0-.14-2.4,5.3,5.3,0,0,0-2-2.32C7.9,44.23,5.8,43,4.47,42.16c-.73-.45-1.31-.83-1.71-1.1Z"/><path class="cls-2" d="M12.29,37.54a5.64,5.64,0,0,1,1.61,2.88,4,4,0,0,1,0,1.33c-.08.43-.22.84-.32,1.24A9.07,9.07,0,0,1,12,45.85s-.73-.32-2.13-1S6.35,43,3.69,41.3A4.6,4.6,0,0,1,2,38a6.48,6.48,0,0,1,.13-1.76,5.65,5.65,0,0,1,.54-1.64A13.13,13.13,0,0,1,5.17,31.2l.53.53c.34.34.83.82,1.45,1.41C8.4,34.32,10.18,35.9,12.29,37.54Z"/><path d="M12.07,46.34l-.27-.12s-.75-.34-2.15-1a67,67,0,0,1-6.17-3.54A5,5,0,0,1,1.64,38a7.56,7.56,0,0,1,.13-1.87,6.41,6.41,0,0,1,.59-1.75A13.47,13.47,0,0,1,4.9,30.9l.3-.27.78.82,1.45,1.4c1.13,1.07,2.93,2.69,5.11,4.37l0,0a6,6,0,0,1,1.71,3.1,4.47,4.47,0,0,1,0,1.46c-.06.3-.14.58-.22.86S14,43,14,43.09a9.66,9.66,0,0,1-1.68,3ZM5.17,31.76a13.17,13.17,0,0,0-2.1,3,5,5,0,0,0-.51,1.53A6,6,0,0,0,2.44,38,4.12,4.12,0,0,0,4,41,67,67,0,0,0,10,44.46c.89.45,1.51.75,1.84.9a8.75,8.75,0,0,0,1.33-2.49l.11-.41a6.36,6.36,0,0,0,.2-.78,3.46,3.46,0,0,0,0-1.2A5.18,5.18,0,0,0,12,37.83c-2.18-1.69-4-3.32-5.14-4.4-.63-.59-1.12-1.08-1.46-1.42Z"/><path class="cls-2" d="M20.16,23.9a5.58,5.58,0,0,1,.42,1.76,5.28,5.28,0,0,1-.09,1.51,4.61,4.61,0,0,1-1.34,2.23,9.2,9.2,0,0,1-2.56,2S16,30.84,15,29.63A70,70,0,0,1,10.75,24a4.74,4.74,0,0,1-.2-3.69,6.67,6.67,0,0,1,.79-1.58,6.77,6.77,0,0,1,1.17-1.27,13.35,13.35,0,0,1,2.41-1.65,4.93,4.93,0,0,1,.84-.37l.33-.11.26.68c.17.43.42,1,.77,1.85C17.82,19.39,18.84,21.56,20.16,23.9Z"/><path d="M16.5,31.92l-.21-.22s-.56-.61-1.57-1.81-2.49-3-4.3-5.7a5.16,5.16,0,0,1-.25-4A7.28,7.28,0,0,1,11,18.47a6.58,6.58,0,0,1,1.18-1.28l.06-.06a14,14,0,0,1,2.49-1.71,6.35,6.35,0,0,1,.9-.4l.69-.23.4,1c.17.42.41,1,.77,1.83.63,1.43,1.66,3.64,3,6l0,.05A6.38,6.38,0,0,1,21,25.64a5.36,5.36,0,0,1-.11,1.63,5,5,0,0,1-1.44,2.42,9.39,9.39,0,0,1-2.67,2.1Zm-.65-16.13a4.92,4.92,0,0,0-.74.33,12.72,12.72,0,0,0-2.34,1.6l0,.06a5.46,5.46,0,0,0-1.79,2.62,4.33,4.33,0,0,0,.18,3.39c1.76,2.58,3.25,4.43,4.22,5.59.64.76,1.1,1.27,1.34,1.55a8.77,8.77,0,0,0,2.18-1.78,4.37,4.37,0,0,0,1.25-2.07,4.51,4.51,0,0,0,.08-1.39,5.48,5.48,0,0,0-.38-1.62c-1.36-2.43-2.41-4.65-3-6.09-.36-.8-.61-1.43-.78-1.86Z"/><path class="cls-2" d="M15.54,30.32A6,6,0,0,1,16.3,32a4.28,4.28,0,0,1,.22,1.49,5.06,5.06,0,0,1-.85,2.45,9.3,9.3,0,0,1-2.13,2.49s-.65-.47-1.89-1.45a68.05,68.05,0,0,1-5.3-4.69,5.43,5.43,0,0,1-.57-.9,4.79,4.79,0,0,1-.37-2.68,6.4,6.4,0,0,1,1.35-3.19A13.17,13.17,0,0,1,8.81,23.4c.3-.24.55-.42.73-.54a3.12,3.12,0,0,1,.3-.18l.39.62c.26.39.65,1,1.15,1.67A66.64,66.64,0,0,0,15.54,30.32Z"/><path d="M13.55,38.9l-.24-.18s-.68-.48-1.9-1.45a71.21,71.21,0,0,1-5.34-4.72,5.8,5.8,0,0,1-.64-1,5,5,0,0,1-.34-1A5.42,5.42,0,0,1,5,28.63a7,7,0,0,1,1.44-3.4,13.79,13.79,0,0,1,2.11-2.14c.3-.24.56-.43.75-.56a3.35,3.35,0,0,1,.35-.2l.31-.16.2.29.4.62c.25.39.64,1,1.13,1.66.9,1.28,2.35,3.23,4.14,5.32l0,0a7,7,0,0,1,.81,1.75,4.91,4.91,0,0,1,.23,1.63A5.41,5.41,0,0,1,16,36.11a9.27,9.27,0,0,1-2.23,2.6ZM9.71,23.22c-.16.11-.38.28-.65.49a13.13,13.13,0,0,0-2,2,6.05,6.05,0,0,0-1.27,3,4.72,4.72,0,0,0,.07,1.64,3.76,3.76,0,0,0,.27.82,6.21,6.21,0,0,0,.52.82c2.24,2.17,4.06,3.68,5.24,4.62.78.62,1.33,1,1.62,1.25a8.5,8.5,0,0,0,1.8-2.17,4.61,4.61,0,0,0,.8-2.26,3.86,3.86,0,0,0-.2-1.37,5.59,5.59,0,0,0-.7-1.53c-1.81-2.1-3.27-4.07-4.17-5.36-.5-.71-.89-1.28-1.15-1.68Z"/><path class="cls-2" d="M20.08,24a6.25,6.25,0,0,1,.42,1.77,4.66,4.66,0,0,1-.09,1.51,4.84,4.84,0,0,1-1.32,2.24,9.17,9.17,0,0,1-2.57,2S16,31,15,29.74a67.64,67.64,0,0,1-4.29-5.65,4.7,4.7,0,0,1-.22-3.69,6.46,6.46,0,0,1,2-2.86,13.35,13.35,0,0,1,2.41-1.65A5.05,5.05,0,0,1,16,15.4l.27.68c.16.42.43,1.06.78,1.85C17.72,19.5,18.75,21.66,20.08,24Z"/><path d="M16.43,32l-.2-.22s-.57-.61-1.58-1.81a70.92,70.92,0,0,1-4.31-5.68,5.11,5.11,0,0,1-.27-4,6.78,6.78,0,0,1,2.08-3.05,13.49,13.49,0,0,1,2.47-1.69A5.49,5.49,0,0,1,15.88,15l.34-.08.39,1c.16.42.43,1.06.78,1.83.63,1.43,1.67,3.63,3,6l0,.05a6,6,0,0,1,.44,1.88,4.82,4.82,0,0,1-.09,1.63,5.25,5.25,0,0,1-1.42,2.42,9.37,9.37,0,0,1-2.68,2.11Zm-.69-16.14a6.51,6.51,0,0,0-.73.35,12.39,12.39,0,0,0-2.34,1.6,6,6,0,0,0-1.84,2.69,4.28,4.28,0,0,0,.2,3.39c1.77,2.58,3.26,4.41,4.23,5.57.64.76,1.1,1.27,1.34,1.54a8.42,8.42,0,0,0,2.18-1.78A4.51,4.51,0,0,0,20,27.18a4.46,4.46,0,0,0,.07-1.39,5.41,5.41,0,0,0-.38-1.62c-1.38-2.43-2.42-4.64-3.06-6.08-.36-.79-.63-1.44-.79-1.87Z"/><path class="cls-2" d="M32.6,14.44a5.56,5.56,0,0,1-.29,1.8,5.86,5.86,0,0,1-.68,1.32,4.58,4.58,0,0,1-2.07,1.58c-.4.14-.77.31-1.13.43s-.7.21-1,.28a9.67,9.67,0,0,1-1,.17s-.28-.76-.76-2.28a65.59,65.59,0,0,1-1.76-6.87A5.49,5.49,0,0,1,28,5.51a11.82,11.82,0,0,1,2.85-.61,11.31,11.31,0,0,1,1.28,0l0,.74c0,.46,0,1.14,0,2C32.16,9.33,32.29,11.77,32.6,14.44Z"/><path d="M26.14,20.44l-.1-.28s-.29-.79-.77-2.3A66.18,66.18,0,0,1,23.5,11a5.89,5.89,0,0,1,4.43-5.82,11.56,11.56,0,0,1,2.94-.62,8.38,8.38,0,0,1,1.34,0l.36,0v.36s0,.27,0,.75,0,1.13,0,2A66.39,66.39,0,0,0,33,14.39v.06a6.28,6.28,0,0,1-.31,1.92A6.22,6.22,0,0,1,32,17.78a5,5,0,0,1-2.25,1.73l-.56.21-.59.23a10,10,0,0,1-1,.29,9.42,9.42,0,0,1-1.06.17ZM31.25,5.3H30.9a11.21,11.21,0,0,0-2.73.59,5.1,5.1,0,0,0-3.88,5A66.71,66.71,0,0,0,26,17.63c.3.95.53,1.6.65,1.95a6.38,6.38,0,0,0,.66-.12,7.12,7.12,0,0,0,1-.27c.18-.06.37-.13.55-.21l.58-.22a4,4,0,0,0,1.87-1.43,5.7,5.7,0,0,0,.64-1.22,5.49,5.49,0,0,0,.26-1.65,67.91,67.91,0,0,1-.46-6.81c0-.84,0-1.52,0-2V5.31Z"/><path class="cls-2" d="M25.87,18.58a4.75,4.75,0,0,1-2.06,5.21,9.62,9.62,0,0,1-1.94,1.13,10.16,10.16,0,0,1-1,.36s-.42-.69-1.18-2.07a70.25,70.25,0,0,1-3.1-6.41,4.89,4.89,0,0,1,.53-3.65,7.13,7.13,0,0,1,1.08-1.41,10.24,10.24,0,0,1,1.4-1A13.89,13.89,0,0,1,22.3,9.58a5.51,5.51,0,0,1,.91-.18l.34-.05.13.72c.08.46.2,1.11.38,1.95C24.44,13.7,25,16,25.87,18.58Z"/><path d="M20.71,25.75l-.16-.26s-.43-.71-1.19-2.09A71.33,71.33,0,0,1,16.25,17a5.28,5.28,0,0,1,.55-4,7.61,7.61,0,0,1,1.13-1.49,10.33,10.33,0,0,1,1.49-1.06,13.6,13.6,0,0,1,2.76-1.2A5.83,5.83,0,0,1,23,9l.9-.12.21,1.2c.08.45.2,1.06.36,1.82.34,1.53.93,3.9,1.8,6.53v.06A5.12,5.12,0,0,1,24,24.12a9.6,9.6,0,0,1-2,1.17,10.73,10.73,0,0,1-1,.37ZM23.23,9.8l-.13,0a5.91,5.91,0,0,0-.68.14,12.39,12.39,0,0,0-2.59,1.13,8.84,8.84,0,0,0-1.35.95,6.45,6.45,0,0,0-1,1.31A4.5,4.5,0,0,0,17,16.71c1.23,2.88,2.34,5,3.06,6.3.48.88.83,1.47,1,1.79.17-.06.39-.14.64-.25a9,9,0,0,0,1.86-1.08,4.36,4.36,0,0,0,1.91-4.79c-.87-2.65-1.46-5-1.81-6.58-.16-.77-.28-1.39-.36-1.84Z"/><path class="cls-2" d="M32.49,14.49a6.29,6.29,0,0,1-.29,1.81,3.62,3.62,0,0,1-.31.69,3.83,3.83,0,0,1-.36.63,4.58,4.58,0,0,1-2.07,1.58,11.62,11.62,0,0,1-2.13.72,9.67,9.67,0,0,1-1,.17s-.28-.76-.76-2.27A67.86,67.86,0,0,1,23.76,11,4.92,4.92,0,0,1,25,7.46a6.19,6.19,0,0,1,1.34-1.17,9.68,9.68,0,0,1,1.58-.71A12.89,12.89,0,0,1,30.74,5,11.58,11.58,0,0,1,32,5l0,.73c0,.47,0,1.14,0,2A66.39,66.39,0,0,0,32.49,14.49Z"/><path d="M26,20.52l-.1-.29s-.29-.78-.77-2.29A68.67,68.67,0,0,1,23.37,11,5.29,5.29,0,0,1,24.68,7.2,6.15,6.15,0,0,1,26.11,6a11.3,11.3,0,0,1,1.65-.74,12.81,12.81,0,0,1,2.94-.65,13.5,13.5,0,0,1,1.37,0l.35,0V5s0,.27,0,.74,0,1.13,0,2c0,1.24.12,3.76.48,6.76v.05a6.29,6.29,0,0,1-.3,1.92,4.38,4.38,0,0,1-.34.76,4.16,4.16,0,0,1-.39.67,4.92,4.92,0,0,1-2.24,1.72,11.72,11.72,0,0,1-2.2.74,8.38,8.38,0,0,1-1.06.18ZM31.12,5.35h-.37A11.92,11.92,0,0,0,28,6a8.73,8.73,0,0,0-1.51.68,5.37,5.37,0,0,0-1.24,1.08,4.53,4.53,0,0,0-1.12,3.21,68.7,68.7,0,0,0,1.77,6.77c.3.95.53,1.61.65,2l.66-.13a10.83,10.83,0,0,0,2.06-.7,4.09,4.09,0,0,0,1.9-1.44,2.92,2.92,0,0,0,.33-.57,3.09,3.09,0,0,0,.29-.65,5.53,5.53,0,0,0,.27-1.65c-.37-3-.46-5.57-.49-6.81,0-.85,0-1.53,0-2V5.36Z"/><path class="cls-2" d="M47.71,10.57a5,5,0,0,1-2.12,2.48,4.45,4.45,0,0,1-2.51.66,16.76,16.76,0,0,1-2.24-.19,7.69,7.69,0,0,1-1-.23s0-.81.18-2.4c.08-.79.18-1.78.35-3,.08-.59.18-1.23.29-1.91s.26-1.38.42-2.13A5.46,5.46,0,0,1,47,.57a12.26,12.26,0,0,1,2.84.54,10.45,10.45,0,0,1,1,.48s-.36,1-1,2.53S48.46,8,47.71,10.57Z"/><path d="M43.12,14.11h-.33a15.81,15.81,0,0,1-2-.19c-.61-.11-1-.24-1-.24l-.3-.09,0-.31s0-.84.18-2.41c.1-1,.21-2,.35-3,.09-.6.18-1.24.3-1.93s.26-1.38.42-2.14A5.87,5.87,0,0,1,47.05.18,12.1,12.1,0,0,1,50,.74a8.45,8.45,0,0,1,1.11.5l.31.17L50.3,4.27c-.9,2.31-1.63,4.41-2.21,6.41v.05a5.55,5.55,0,0,1-2.28,2.66A4.9,4.9,0,0,1,43.12,14.11ZM40.26,13l.65.14a15.92,15.92,0,0,0,1.92.17l.27,0a4,4,0,0,0,2.28-.61,4.7,4.7,0,0,0,2-2.28c.58-2,1.31-4.13,2.22-6.45l.84-2.2c-.17-.08-.41-.18-.7-.29A11,11,0,0,0,47,1,5.1,5.1,0,0,0,41.46,4c-.14.69-.28,1.4-.4,2.06S40.85,7.4,40.77,8c-.14,1-.25,2-.34,2.94S40.29,12.62,40.26,13Z"/><path class="cls-2" d="M39.9,11.75a5.12,5.12,0,0,1-1.56,2.86A4.49,4.49,0,0,1,36,15.76c-.2,0-.41.07-.61.09s-.39.08-.58.1c-.38.05-.73.07-1,.08a7.54,7.54,0,0,1-1,0s-.13-.8-.3-2.38c-.08-.79-.18-1.78-.25-3s-.15-2.6-.13-4.12A5.48,5.48,0,0,1,37.2,2.1a11.49,11.49,0,0,1,2.92,0,11.55,11.55,0,0,1,1.25.29l-.16.71c-.1.45-.25,1.11-.41,1.94A64.32,64.32,0,0,0,39.9,11.75Z"/><path d="M33.53,16.43c-.49,0-.81,0-.82,0l-.31,0,0-.31s-.12-.82-.3-2.4c-.1-1-.19-2-.25-3s-.15-2.54-.13-4.15a5.88,5.88,0,0,1,5.5-4.82,10.89,10.89,0,0,1,3,0c.8.14,1.29.29,1.31.29l.36.12L41.6,3.16c-.11.45-.25,1.11-.41,1.92a67,67,0,0,0-.89,6.71v.05a5.52,5.52,0,0,1-1.68,3.06,4.89,4.89,0,0,1-2.53,1.25c-.22,0-.44.08-.65.1h-.08l-.49.09c-.34,0-.71.07-1.07.08Zm-.43-.8h.67c.34,0,.67,0,1-.07l.45-.08.11,0a5.58,5.58,0,0,0,.61-.09,4.08,4.08,0,0,0,2.13-1,4.8,4.8,0,0,0,1.45-2.63,65.3,65.3,0,0,1,.9-6.77c.16-.83.31-1.49.41-1.95l.08-.34-.84-.18a10.61,10.61,0,0,0-2.8,0,5.09,5.09,0,0,0-4.79,4.1c0,1.53.06,3,.12,4s.15,1.95.26,2.95S33.05,15.26,33.1,15.63Z"/><path class="cls-2" d="M47.58,10.58a6,6,0,0,1-1,1.55,6.53,6.53,0,0,1-1.14.94,4.56,4.56,0,0,1-2.52.66,16.62,16.62,0,0,1-2.23-.18,7.62,7.62,0,0,1-1-.23s0-.81.17-2.39c.08-.8.18-1.78.34-3s.38-2.57.7-4.06A5.47,5.47,0,0,1,46.84.58a13.3,13.3,0,0,1,2.87.53,10.45,10.45,0,0,1,1,.48s-.37,1-1,2.53S48.33,8,47.58,10.58Z"/><path d="M43,14.13h0l-.62,0a10.57,10.57,0,0,1-1.7-.16,6.64,6.64,0,0,1-1-.24l-.29-.09V13.3s0-.83.18-2.41c.09-1,.2-2,.34-3,.21-1.53.43-2.83.7-4.08A5.85,5.85,0,0,1,46.89.19a13.5,13.5,0,0,1,2.93.54A9.68,9.68,0,0,1,51,1.24l.3.16-.11.32s-.17.44-.46,1.19l-.52,1.36c-.86,2.19-1.6,4.35-2.19,6.42l0,.05a6.21,6.21,0,0,1-1,1.65,5.91,5.91,0,0,1-1.18,1A4.92,4.92,0,0,1,43,14.13ZM40.14,13l.66.14a10.06,10.06,0,0,0,1.57.14l.62,0a4.12,4.12,0,0,0,2.27-.6,5.52,5.52,0,0,0,1.06-.87,5.57,5.57,0,0,0,.89-1.42c.6-2.08,1.34-4.26,2.21-6.46l.52-1.35c.13-.36.24-.65.32-.85-.17-.08-.41-.18-.7-.29A12.25,12.25,0,0,0,46.82,1a5.08,5.08,0,0,0-5.51,3.07c-.25,1.18-.47,2.46-.67,4-.14,1-.25,2-.34,2.94S40.16,12.65,40.14,13Z"/><path class="cls-2" d="M64.9,10.47c-2.81,5-9.27,1.47-9.27,1.47L59,3.06c2.8-5,9.27-1.47,9.27-1.47Z"/><path d="M60.26,13.53a11.59,11.59,0,0,1-4.82-1.24l-.31-.17,3.53-9.2c3-5.35,9.77-1.72,9.83-1.68l.31.17-3.55,9.25A5.38,5.38,0,0,1,60.26,13.53Zm-4.13-1.79c1.28.62,6.13,2.58,8.41-1.45l2.39-6.23.87-2.28c-1.29-.61-6.15-2.59-8.42,1.48Z"/><path class="cls-2" d="M56.14,10.47a5.26,5.26,0,0,1-5.69,2.61c-.25,0-.49-.08-.72-.12l-.58-.14a10.29,10.29,0,0,1-1-.32,10.22,10.22,0,0,1-.94-.43s.2-.79.66-2.31c.23-.76.53-1.71.93-2.83s.9-2.44,1.45-3.87c2.8-5,9.27-1.47,9.27-1.47S58.09,5.36,56.14,10.47Z"/><path d="M51.48,13.55a8.09,8.09,0,0,1-1.08-.08q-.39,0-.75-.12l-.6-.14c-.34-.09-.68-.21-1-.34a9.49,9.49,0,0,1-1-.45l-.27-.15.08-.3s.2-.81.66-2.33c.29-1,.59-1.88.93-2.84s.69-1.88,1.1-2.94l.36-.94c3-5.35,9.76-1.72,9.83-1.68l.31.17-3.56,9.25A5.41,5.41,0,0,1,51.48,13.55ZM47.7,11.86l.62.27c.31.12.63.22.94.31l.55.13.69.11a4.79,4.79,0,0,0,5.27-2.39l2.4-6.23L59,1.78c-1.29-.61-6.15-2.59-8.42,1.48l-.34.88c-.4,1.06-.79,2.05-1.08,2.92s-.64,1.87-.93,2.82S47.8,11.5,47.7,11.86Z"/><path class="cls-2" d="M64.76,10.47c-2.81,5-9.27,1.47-9.27,1.47l3.4-8.88c2.8-5,9.27-1.47,9.27-1.47Z"/><path d="M60.12,13.53a11.54,11.54,0,0,1-4.82-1.24L55,12.12l3.53-9.2c3-5.35,9.76-1.72,9.83-1.68l.33.18-.16.34s-.43,1.13-1.11,2.9l-2.31,6A5.37,5.37,0,0,1,60.12,13.53ZM56,11.74c1.28.62,6.12,2.58,8.4-1.45l2.28-5.92,1-2.59c-1.29-.61-6.15-2.59-8.42,1.48Z"/><path class="cls-2" d="M82.3,10.47c-2.81,5-9.27,1.47-9.27,1.47l3.4-8.88c2.8-5,9.27-1.47,9.27-1.47Z"/><path d="M77.66,13.53a11.59,11.59,0,0,1-4.82-1.24l-.31-.17,3.53-9.2c3-5.35,9.77-1.72,9.83-1.68l.33.18-.15.34L84.75,5.18l-2.1,5.48A5.38,5.38,0,0,1,77.66,13.53Zm-4.13-1.79c1.28.62,6.13,2.58,8.41-1.45L84,4.9,85.2,1.78c-1.29-.61-6.15-2.59-8.42,1.48Z"/><path class="cls-2" d="M73.54,10.47c-2.81,5-9.27,1.47-9.27,1.47l3.4-8.88c2.8-5,9.27-1.47,9.27-1.47S75.49,5.36,73.54,10.47Z"/><path d="M68.9,13.53a11.61,11.61,0,0,1-4.83-1.24l-.3-.17,3.53-9.2c3-5.35,9.76-1.72,9.83-1.68l.33.18-.16.34L76,5.18l-2.11,5.48A5.37,5.37,0,0,1,68.9,13.53Zm-4.13-1.79c1.28.62,6.12,2.58,8.4-1.45L75.24,4.9C76,3,76.29,2.18,76.44,1.78,75.15,1.17,70.29-.81,68,3.26Z"/><path class="cls-2" d="M82.16,10.47c-2.81,5-9.27,1.47-9.27,1.47l3.4-8.88c2.8-5,9.27-1.47,9.27-1.47Z"/><path d="M77.52,13.53a11.48,11.48,0,0,1-4.82-1.24l-.31-.17,3.53-9.2c3-5.35,9.76-1.72,9.83-1.68l.33.18-.16.34s-.43,1.13-1.11,2.9l-2.31,6A5.37,5.37,0,0,1,77.52,13.53Zm-4.13-1.79c1.28.62,6.12,2.58,8.4-1.45l2.28-5.92,1-2.59c-1.29-.61-6.15-2.59-8.42,1.48Z"/><path class="cls-2" d="M99.7,10.47c-2.81,5-9.27,1.47-9.27,1.47l3.4-8.88c2.8-5,9.27-1.47,9.27-1.47Z"/><path d="M95.06,13.53a11.54,11.54,0,0,1-4.82-1.24l-.31-.17,3.53-9.2c3-5.35,9.77-1.72,9.83-1.68l.33.18-.15.34c0,.05-.52,1.35-1.32,3.42l-2.1,5.48A5.38,5.38,0,0,1,95.06,13.53Zm-4.13-1.79c1.28.62,6.12,2.58,8.41-1.45l2.07-5.39,1.19-3.12c-1.29-.61-6.15-2.59-8.42,1.48Z"/><path class="cls-2" d="M90.93,10.47c-2.8,5-9.26,1.47-9.26,1.47l3.4-8.88c2.8-5,9.27-1.47,9.27-1.47Z"/><path d="M86.3,13.53a11.61,11.61,0,0,1-4.83-1.24l-.3-.17,3.53-9.2c3-5.35,9.76-1.72,9.83-1.68l.33.18-.16.34L93.39,5.18l-2.11,5.48A5.37,5.37,0,0,1,86.3,13.53Zm-4.13-1.79c1.28.62,6.12,2.58,8.4-1.45L92.64,4.9c.72-1.86,1-2.72,1.2-3.12-1.29-.61-6.15-2.59-8.42,1.48Z"/><path class="cls-2" d="M99.56,10.47c-2.81,5-9.27,1.47-9.27,1.47l3.4-8.88c2.8-5,9.27-1.47,9.27-1.47S101.51,5.36,99.56,10.47Z"/><path d="M94.92,13.53a11.48,11.48,0,0,1-4.82-1.24l-.31-.17,3.53-9.2c3-5.35,9.76-1.72,9.83-1.68l.33.18-.16.34s-.43,1.13-1.11,2.9l-2.31,6A5.37,5.37,0,0,1,94.92,13.53Zm-4.13-1.79c1.28.62,6.12,2.58,8.4-1.45l2.28-5.92,1-2.59C101.17,1.17,96.31-.81,94,3.26Z"/><path class="cls-2" d="M117.1,10.47c-2.81,5-9.27,1.47-9.27,1.47l3.4-8.88c2.8-5,9.27-1.47,9.27-1.47Z"/><path d="M112.46,13.53a11.54,11.54,0,0,1-4.82-1.24l-.31-.17,3.53-9.2c3-5.35,9.77-1.72,9.83-1.68l.33.18-.16.34c0,.05-.51,1.35-1.31,3.42l-2.11,5.48A5.36,5.36,0,0,1,112.46,13.53Zm-4.13-1.79c1.28.62,6.12,2.58,8.41-1.45l2.07-5.39L120,1.78c-1.29-.61-6.15-2.59-8.42,1.48Z"/><path class="cls-2" d="M108.33,10.47c-2.8,5-9.26,1.47-9.26,1.47l3.4-8.88c2.8-5,9.27-1.47,9.27-1.47Z"/><path d="M103.7,13.53a11.61,11.61,0,0,1-4.83-1.24l-.3-.17,3.53-9.2c3-5.35,9.76-1.72,9.83-1.68l.33.18-.16.34-1.31,3.42-2.11,5.48A5.37,5.37,0,0,1,103.7,13.53Zm-4.13-1.79c1.28.62,6.12,2.58,8.4-1.45L110,4.9c.72-1.86,1-2.72,1.2-3.12-1.29-.61-6.15-2.59-8.42,1.48Z"/><path class="cls-2" d="M117,10.47c-2.81,5-9.27,1.47-9.27,1.47l3.4-8.88c2.8-5,9.27-1.47,9.27-1.47S118.91,5.36,117,10.47Z"/><path d="M112.32,13.53a11.48,11.48,0,0,1-4.82-1.24l-.31-.17,3.53-9.2c3-5.35,9.76-1.72,9.83-1.68l.33.18-.16.34s-.43,1.13-1.11,2.9l-2.31,6A5.37,5.37,0,0,1,112.32,13.53Zm-4.13-1.79c1.28.62,6.12,2.58,8.4-1.45l2.27-5.92,1-2.59c-1.29-.61-6.15-2.59-8.42,1.48Z"/><path class="cls-2" d="M134.5,10.47c-2.81,5-9.27,1.47-9.27,1.47l3.4-8.88c2.8-5,9.27-1.47,9.27-1.47Z"/><path d="M129.86,13.53A11.54,11.54,0,0,1,125,12.29l-.31-.17,3.53-9.2c3-5.35,9.76-1.72,9.83-1.68l.33.18-.16.34c0,.05-.51,1.35-1.31,3.42l-2.11,5.48A5.36,5.36,0,0,1,129.86,13.53Zm-4.13-1.79c1.28.62,6.12,2.58,8.41-1.45l2.07-5.39,1.19-3.12c-1.29-.61-6.15-2.59-8.42,1.48Z"/><path class="cls-2" d="M125.73,10.47c-2.8,5-9.26,1.47-9.26,1.47l3.4-8.88c2.8-5,9.27-1.47,9.27-1.47Z"/><path d="M121.1,13.53a11.61,11.61,0,0,1-4.83-1.24l-.3-.17,3.53-9.2c3-5.35,9.76-1.72,9.83-1.68l.33.18-.16.34-1.31,3.42-2.11,5.48A5.37,5.37,0,0,1,121.1,13.53ZM117,11.74c1.28.62,6.12,2.58,8.4-1.45l2.07-5.39c.72-1.86,1-2.72,1.2-3.12-1.29-.61-6.15-2.59-8.42,1.48Z"/><path class="cls-2" d="M134.35,10.47c-2.8,5-9.26,1.47-9.26,1.47l3.4-8.88c2.8-5,9.27-1.47,9.27-1.47Z"/><path d="M129.72,13.53a11.61,11.61,0,0,1-4.83-1.24l-.3-.17,3.53-9.2c3-5.35,9.76-1.72,9.83-1.68l.33.18-.16.34-1.31,3.42-2.11,5.48A5.37,5.37,0,0,1,129.72,13.53Zm-4.13-1.79c1.28.62,6.12,2.58,8.4-1.45l2.07-5.39c.72-1.86,1-2.72,1.2-3.12-1.29-.61-6.15-2.59-8.42,1.48Z"/><path class="cls-2" d="M151.9,10.47c-2.81,5-9.27,1.47-9.27,1.47L146,3.06c2.8-5,9.27-1.47,9.27-1.47Z"/><path d="M147.26,13.53a11.54,11.54,0,0,1-4.82-1.24l-.31-.17,3.53-9.2c3-5.35,9.76-1.72,9.83-1.68l.33.18-.16.34c0,.05-.51,1.35-1.31,3.42l-2.11,5.48A5.36,5.36,0,0,1,147.26,13.53Zm-4.13-1.79c1.28.62,6.12,2.58,8.41-1.45l2.07-5.39,1.19-3.12c-1.29-.61-6.15-2.59-8.42,1.48Z"/><path class="cls-2" d="M143.13,10.47c-2.8,5-9.27,1.47-9.27,1.47s1.2-3.11,3.41-8.88c2.8-5,9.27-1.47,9.27-1.47Z"/><path d="M138.5,13.53a11.61,11.61,0,0,1-4.83-1.24l-.3-.17,3.53-9.2c3-5.35,9.76-1.72,9.83-1.68l.33.18-.16.34-1.31,3.42-2.11,5.48A5.37,5.37,0,0,1,138.5,13.53Zm-4.13-1.79c1.28.62,6.12,2.58,8.4-1.45l2.07-5.39c.72-1.86,1-2.72,1.2-3.12-1.29-.61-6.15-2.59-8.42,1.48Z"/><path class="cls-2" d="M151.75,10.47c-2.8,5-9.26,1.47-9.26,1.47l3.4-8.88c2.8-5,9.27-1.47,9.27-1.47Z"/><path d="M147.12,13.53a11.61,11.61,0,0,1-4.83-1.24l-.3-.17,3.53-9.2c3-5.35,9.76-1.72,9.83-1.68l.33.18-.16.34-1.31,3.42-2.11,5.48A5.37,5.37,0,0,1,147.12,13.53ZM143,11.74c1.28.62,6.12,2.58,8.4-1.45l2.07-5.39c.72-1.86,1-2.72,1.2-3.12-1.29-.61-6.15-2.59-8.42,1.48Z"/><path class="cls-2" d="M169.3,10.47c-2.81,5-9.27,1.47-9.27,1.47l3.4-8.88c2.8-5,9.27-1.47,9.27-1.47Z"/><path d="M164.66,13.53a11.54,11.54,0,0,1-4.82-1.24l-.31-.17,3.53-9.2c3-5.35,9.76-1.72,9.83-1.68l.33.18-.16.34c0,.06-.64,1.68-1.61,4.2l-1.81,4.7A5.36,5.36,0,0,1,164.66,13.53Zm-4.13-1.79c1.28.62,6.12,2.58,8.4-1.45l1.78-4.61,1.49-3.9c-1.29-.61-6.15-2.58-8.42,1.48Z"/><path class="cls-2" d="M160.53,10.47c-2.8,5-9.27,1.47-9.27,1.47s1.2-3.11,3.41-8.88c2.8-5,9.27-1.47,9.27-1.47Z"/><path d="M155.9,13.53a11.61,11.61,0,0,1-4.83-1.24l-.3-.17,3.53-9.2c3-5.35,9.76-1.72,9.83-1.68l.33.18-.16.34L163,5.18l-2.11,5.48A5.37,5.37,0,0,1,155.9,13.53Zm-4.13-1.79c1.28.62,6.12,2.58,8.4-1.45l2.07-5.39c.71-1.86,1-2.72,1.2-3.12-1.29-.61-6.15-2.59-8.42,1.48Z"/><path class="cls-2" d="M169.15,10.47c-2.8,5-9.27,1.47-9.27,1.47s1.2-3.11,3.41-8.88c2.8-5,9.27-1.47,9.27-1.47Z"/><path d="M164.52,13.53a11.61,11.61,0,0,1-4.83-1.24l-.3-.17,3.53-9.2c3-5.35,9.76-1.72,9.83-1.68l.33.18-.16.34s-.43,1.13-1.11,2.9l-2.31,6A5.37,5.37,0,0,1,164.52,13.53Zm-4.13-1.79c1.28.62,6.12,2.58,8.4-1.45l2.27-5.92,1-2.59c-1.29-.61-6.15-2.59-8.42,1.48Z"/><path class="cls-2" d="M186.7,10.47c-2.81,5-9.27,1.47-9.27,1.47l3.4-8.88c2.8-5,9.27-1.47,9.27-1.47Z"/><path d="M182.06,13.53a11.48,11.48,0,0,1-4.82-1.24l-.31-.17,3.53-9.2c3-5.35,9.76-1.72,9.83-1.68l.33.18-.16.34c0,.06-.64,1.68-1.61,4.2L187,10.66A5.37,5.37,0,0,1,182.06,13.53Zm-4.13-1.79c1.28.62,6.12,2.58,8.4-1.45l1.78-4.61,1.49-3.9c-1.29-.61-6.15-2.59-8.42,1.48Z"/><path class="cls-2" d="M177.93,10.47c-2.8,5-9.27,1.47-9.27,1.47s1.19-3.11,3.41-8.88c2.8-5,9.27-1.47,9.27-1.47Z"/><path d="M173.3,13.53a11.61,11.61,0,0,1-4.83-1.24l-.3-.17,3.53-9.2c3-5.35,9.76-1.72,9.83-1.68l.33.18-.16.34s-.43,1.13-1.11,2.9l-2.31,6A5.37,5.37,0,0,1,173.3,13.53Zm-4.14-1.79c1.29.62,6.13,2.58,8.41-1.45l2.27-5.92,1-2.59c-1.29-.61-6.16-2.59-8.42,1.48Z"/><path class="cls-2" d="M186.55,10.47c-2.8,5-9.27,1.47-9.27,1.47s1.2-3.11,3.41-8.88c2.8-5,9.27-1.47,9.27-1.47Z"/><path d="M181.92,13.53a11.61,11.61,0,0,1-4.83-1.24l-.3-.17,3.53-9.2c3-5.35,9.76-1.72,9.83-1.68l.33.18-.16.34s-.43,1.13-1.11,2.9l-2.31,6A5.37,5.37,0,0,1,181.92,13.53Zm-4.13-1.79c1.28.62,6.12,2.58,8.4-1.45l2.27-5.92,1-2.59c-1.29-.61-6.15-2.59-8.42,1.48Z"/><path class="cls-2" d="M204.1,10.47c-2.81,5-9.27,1.47-9.27,1.47l3.4-8.88c2.8-5,9.27-1.47,9.27-1.47Z"/><path d="M199.46,13.53a11.61,11.61,0,0,1-4.83-1.24l-.3-.17,3.53-9.2c3-5.35,9.76-1.72,9.83-1.68l.33.18-.16.34c0,.06-.64,1.68-1.61,4.2l-1.81,4.7A5.37,5.37,0,0,1,199.46,13.53Zm-4.13-1.79c1.28.62,6.12,2.58,8.4-1.45l1.78-4.61L207,1.78c-1.29-.61-6.15-2.59-8.42,1.48Z"/><path class="cls-2" d="M195.33,10.47c-2.8,5-9.27,1.47-9.27,1.47s1.19-3.11,3.41-8.88c2.8-5,9.27-1.47,9.27-1.47Z"/><path d="M190.7,13.53a11.61,11.61,0,0,1-4.83-1.24l-.3-.17,3.53-9.2c3-5.35,9.76-1.72,9.83-1.68l.32.18-.15.34c0,.06-.64,1.68-1.61,4.2l-1.81,4.7A5.37,5.37,0,0,1,190.7,13.53Zm-4.14-1.79c1.29.62,6.13,2.58,8.41-1.45l1.77-4.61c.92-2.41,1.32-3.45,1.5-3.9-1.29-.61-6.15-2.59-8.42,1.48Z"/><path class="cls-2" d="M204,10.47c-2.8,5-9.27,1.47-9.27,1.47s1.2-3.11,3.41-8.88c2.8-5,9.27-1.47,9.27-1.47Z"/><path d="M199.32,13.53a11.61,11.61,0,0,1-4.83-1.24l-.3-.17,3.53-9.2c3-5.35,9.76-1.72,9.83-1.68l.33.18-.16.34s-.43,1.13-1.11,2.9l-2.31,6A5.37,5.37,0,0,1,199.32,13.53Zm-4.13-1.79c1.28.62,6.12,2.58,8.4-1.45l2.27-5.92,1-2.59c-1.29-.61-6.16-2.59-8.42,1.48Z"/><path class="cls-2" d="M221.5,10.47c-2.81,5-9.27,1.47-9.27,1.47l3.4-8.88c2.8-5,9.27-1.47,9.27-1.47S223.45,5.36,221.5,10.47Z"/><path d="M216.86,13.53A11.61,11.61,0,0,1,212,12.29l-.3-.17,3.53-9.2c3-5.35,9.76-1.72,9.83-1.68l.33.18-.16.34c0,.06-.64,1.68-1.61,4.2l-1.81,4.7A5.37,5.37,0,0,1,216.86,13.53Zm-4.13-1.79c1.28.62,6.12,2.58,8.4-1.45l1.78-4.61,1.49-3.9c-1.29-.61-6.15-2.59-8.42,1.48Z"/><path class="cls-2" d="M212.73,10.47c-2.81,5-9.27,1.47-9.27,1.47s1.19-3.11,3.41-8.88c2.8-5,9.27-1.47,9.27-1.47Z"/><path d="M208.1,13.53a11.61,11.61,0,0,1-4.83-1.24l-.3-.17,3.53-9.2c3-5.35,9.76-1.72,9.83-1.68l.32.18-.15.34c0,.06-.64,1.68-1.61,4.2l-1.81,4.7A5.37,5.37,0,0,1,208.1,13.53ZM204,11.74c1.29.62,6.13,2.58,8.41-1.45l1.77-4.61c.92-2.41,1.32-3.45,1.5-3.9-1.29-.61-6.16-2.59-8.42,1.48Z"/><path class="cls-2" d="M221.35,10.47c-2.8,5-9.27,1.47-9.27,1.47s1.19-3.11,3.41-8.88c2.8-5,9.27-1.47,9.27-1.47Z"/><path d="M216.72,13.53a11.61,11.61,0,0,1-4.83-1.24l-.3-.17,3.53-9.2c3-5.35,9.76-1.72,9.83-1.68l.33.18-.16.34s-.43,1.13-1.11,2.9l-2.31,6A5.37,5.37,0,0,1,216.72,13.53Zm-4.14-1.79c1.29.62,6.13,2.58,8.41-1.45l2.27-5.92,1-2.59c-1.29-.61-6.16-2.59-8.42,1.48Z"/><path class="cls-2" d="M238.9,10.47c-2.81,5-9.27,1.47-9.27,1.47L233,3.06c2.8-5,9.27-1.47,9.27-1.47S240.85,5.36,238.9,10.47Z"/><path d="M234.26,13.53a11.61,11.61,0,0,1-4.83-1.24l-.3-.17,3.53-9.2c3-5.35,9.76-1.72,9.83-1.68l.33.18-.16.34c0,.06-.64,1.68-1.61,4.2l-1.81,4.7A5.37,5.37,0,0,1,234.26,13.53Zm-4.13-1.79c1.28.62,6.12,2.58,8.4-1.45l1.77-4.61,1.5-3.9c-1.29-.61-6.15-2.59-8.42,1.48Z"/><path class="cls-2" d="M230.13,10.47c-2.81,5-9.27,1.47-9.27,1.47s1.19-3.11,3.41-8.88c2.8-5,9.27-1.47,9.27-1.47S232.09,5.36,230.13,10.47Z"/><path d="M225.5,13.53a11.61,11.61,0,0,1-4.83-1.24l-.3-.17,3.53-9.2c3-5.35,9.76-1.72,9.83-1.68l.32.18-.15.34c0,.06-.64,1.68-1.61,4.2l-1.81,4.7A5.37,5.37,0,0,1,225.5,13.53Zm-4.14-1.79c1.29.62,6.13,2.58,8.41-1.45l1.77-4.61c.92-2.41,1.32-3.45,1.5-3.9-1.29-.61-6.16-2.59-8.42,1.48Z"/><path class="cls-2" d="M238.75,10.47c-2.8,5-9.27,1.47-9.27,1.47s1.19-3.11,3.41-8.88c2.8-5,9.27-1.47,9.27-1.47Z"/><path d="M234.12,13.53a11.61,11.61,0,0,1-4.83-1.24l-.3-.17,3.53-9.2c3-5.35,9.76-1.72,9.83-1.68l.32.18-.15.34s-.43,1.13-1.11,2.9l-2.31,6A5.37,5.37,0,0,1,234.12,13.53ZM230,11.74c1.29.62,6.13,2.58,8.41-1.45l2.27-5.92,1-2.59c-1.29-.61-6.16-2.59-8.42,1.48Z"/><path class="cls-2" d="M256.29,10.47c-2.8,5-9.26,1.47-9.26,1.47l3.4-8.88c2.8-5,9.27-1.47,9.27-1.47Z"/><path d="M251.66,13.53a11.61,11.61,0,0,1-4.83-1.24l-.3-.17,3.53-9.2c3-5.35,9.76-1.72,9.83-1.68l.33.18-.16.34c0,.06-.64,1.68-1.61,4.2l-1.81,4.7A5.37,5.37,0,0,1,251.66,13.53Zm-4.13-1.79c1.28.62,6.12,2.58,8.4-1.45l1.77-4.61,1.5-3.9c-1.29-.61-6.15-2.59-8.42,1.48Z"/><path class="cls-2" d="M247.53,10.47c-2.81,5-9.27,1.47-9.27,1.47s1.19-3.11,3.41-8.88c2.8-5,9.27-1.47,9.27-1.47S249.49,5.36,247.53,10.47Z"/><path d="M242.9,13.53a11.61,11.61,0,0,1-4.83-1.24l-.3-.17,3.53-9.2c3-5.35,9.76-1.72,9.83-1.68l.32.18-.15.34c0,.06-.65,1.68-1.61,4.2l-1.81,4.7A5.37,5.37,0,0,1,242.9,13.53Zm-4.14-1.79c1.29.62,6.13,2.58,8.41-1.45l1.77-4.61c.92-2.41,1.32-3.45,1.5-3.9-1.29-.61-6.15-2.59-8.42,1.48Z"/><path class="cls-2" d="M256.15,10.47c-2.81,5-9.27,1.47-9.27,1.47s1.19-3.11,3.41-8.88c2.8-5,9.27-1.47,9.27-1.47Z"/><path d="M251.52,13.53a11.61,11.61,0,0,1-4.83-1.24l-.3-.17,3.53-9.2c3-5.35,9.76-1.72,9.83-1.68l.32.18-.15.34s-.43,1.13-1.11,2.9l-2.31,6A5.37,5.37,0,0,1,251.52,13.53Zm-4.14-1.79c1.29.62,6.13,2.58,8.41-1.45l2.27-5.92,1-2.59c-1.29-.61-6.16-2.59-8.42,1.48Z"/><path class="cls-2" d="M273.69,10.47c-2.8,5-9.26,1.47-9.26,1.47l3.4-8.88c2.8-5,9.27-1.47,9.27-1.47Z"/><path d="M269.06,13.53a11.61,11.61,0,0,1-4.83-1.24l-.3-.17,3.53-9.2c3-5.35,9.76-1.72,9.83-1.68l.33.18-.16.34c0,.06-.64,1.68-1.61,4.2L274,10.66A5.37,5.37,0,0,1,269.06,13.53Zm-4.13-1.79c1.28.62,6.12,2.58,8.4-1.45l1.77-4.61,1.5-3.9c-1.29-.61-6.15-2.59-8.42,1.48Z"/><path class="cls-2" d="M264.93,10.47c-2.81,5-9.27,1.47-9.27,1.47s1.19-3.11,3.41-8.88c2.8-5,9.27-1.47,9.27-1.47S266.89,5.36,264.93,10.47Z"/><path d="M260.29,13.53a11.59,11.59,0,0,1-4.82-1.24l-.3-.17,3.53-9.2c3-5.35,9.76-1.72,9.83-1.68l.32.18-.15.34c0,.06-.65,1.68-1.61,4.2l-1.81,4.7A5.37,5.37,0,0,1,260.29,13.53Zm-4.13-1.79c1.29.62,6.13,2.58,8.41-1.45l1.77-4.61c.92-2.41,1.32-3.45,1.5-3.9-1.29-.61-6.16-2.59-8.42,1.48Z"/><path class="cls-2" d="M273.55,10.47c-2.81,5-9.27,1.47-9.27,1.47s1.19-3.11,3.41-8.88c2.8-5,9.27-1.47,9.27-1.47S275.51,5.36,273.55,10.47Z"/><path d="M268.92,13.53a11.61,11.61,0,0,1-4.83-1.24l-.3-.17,3.53-9.2c3-5.35,9.76-1.72,9.83-1.68l.32.18-.15.34s-.43,1.13-1.11,2.9l-2.31,6A5.37,5.37,0,0,1,268.92,13.53Zm-4.14-1.79c1.29.62,6.13,2.58,8.41-1.45l2.27-5.92,1-2.59c-1.29-.61-6.16-2.59-8.42,1.48Z"/><path class="cls-2" d="M291.09,10.47c-2.8,5-9.26,1.47-9.26,1.47l3.4-8.88c2.8-5,9.27-1.47,9.27-1.47Z"/><path d="M286.46,13.53a11.61,11.61,0,0,1-4.83-1.24l-.3-.17,3.53-9.2c3-5.35,9.76-1.72,9.83-1.68l.33.18-.16.34c0,.06-.64,1.68-1.61,4.2l-1.81,4.7A5.37,5.37,0,0,1,286.46,13.53Zm-4.13-1.79c1.28.62,6.12,2.58,8.4-1.45l1.77-4.61c.93-2.41,1.32-3.45,1.5-3.9-1.29-.61-6.15-2.59-8.42,1.48Z"/><path class="cls-2" d="M282.33,10.47c-2.81,5-9.27,1.47-9.27,1.47s1.19-3.11,3.41-8.88c2.8-5,9.27-1.47,9.27-1.47S284.29,5.36,282.33,10.47Z"/><path d="M277.69,13.53a11.59,11.59,0,0,1-4.82-1.24l-.3-.17,3.53-9.2c3-5.35,9.76-1.72,9.83-1.68l.32.18-.15.34c0,.06-.65,1.68-1.61,4.2l-1.81,4.7A5.37,5.37,0,0,1,277.69,13.53Zm-4.13-1.79c1.29.62,6.13,2.58,8.41-1.45l1.77-4.61c.92-2.41,1.32-3.45,1.5-3.9-1.29-.61-6.16-2.59-8.42,1.48Z"/><path class="cls-2" d="M290.56,10.65a5,5,0,0,1-2.45,2.22,4.19,4.19,0,0,1-1.32.26,7.78,7.78,0,0,1-1.53-.05,11.6,11.6,0,0,1-3.58-1.14s1.19-3.11,3.41-8.88a5.28,5.28,0,0,1,1.2-1.5,3.68,3.68,0,0,1,.7-.49,4.77,4.77,0,0,1,.82-.31,8,8,0,0,1,3.47-.1,6.06,6.06,0,0,1,1.53.46c.46.19.88.39,1.22.57a11.23,11.23,0,0,1,1.08.64l-.4.63c-.25.4-.61,1-1,1.71A64.86,64.86,0,0,0,290.56,10.65Z"/><path d="M286.3,13.55a8.23,8.23,0,0,1-1.09-.08,12,12,0,0,1-3.72-1.18l-.3-.17,3.53-9.2A5.87,5.87,0,0,1,286,1.26a4,4,0,0,1,.77-.54,5.33,5.33,0,0,1,.91-.35,8.3,8.3,0,0,1,3.64-.1A6.42,6.42,0,0,1,293,.75c.42.17.84.37,1.24.58a9.88,9.88,0,0,1,1.13.68l.31.22-.6.94c-.25.4-.6,1-1,1.71a62.42,62.42,0,0,0-3.09,5.93l0,0a5.5,5.5,0,0,1-2.65,2.39,4.72,4.72,0,0,1-1.44.28Zm-4.12-1.81a11.09,11.09,0,0,0,3.14.94,6.39,6.39,0,0,0,1.44.05A3.52,3.52,0,0,0,288,12.5a4.64,4.64,0,0,0,2.24-2,62.49,62.49,0,0,1,3.12-6c.43-.73.8-1.32,1.05-1.72l.19-.3L293.84,2a12.65,12.65,0,0,0-1.18-.55,5.33,5.33,0,0,0-1.44-.43,7.68,7.68,0,0,0-3.3.08,5,5,0,0,0-.76.29,3.48,3.48,0,0,0-.61.43,5.05,5.05,0,0,0-1.11,1.4Z"/><path class="cls-2" d="M305.63,15.21a5.11,5.11,0,0,1-3.14,1.09,4,4,0,0,1-1.3-.28,5.31,5.31,0,0,1-1.18-.48,8.49,8.49,0,0,1-1.8-1.38c-.22-.22-.41-.36-.54-.5l-.19-.19s.45-.69,1.41-2a67,67,0,0,1,4.53-5.37c2.33-1.91,4.93-1,6.8.19a11.28,11.28,0,0,1,2.12,2,10,10,0,0,1,.75,1l-.62.42c-.39.27-1,.67-1.63,1.17C309.47,12,307.61,13.42,305.63,15.21Z"/><path d="M302.63,16.7h-.15a4.51,4.51,0,0,1-1.43-.3,5.65,5.65,0,0,1-1.23-.51,8.82,8.82,0,0,1-1.88-1.44,3.91,3.91,0,0,0-.33-.3l-.22-.21-.43-.42.18-.27s.48-.71,1.43-2a69.46,69.46,0,0,1,4.56-5.4c2.05-1.68,4.57-1.63,7.31.13a11.75,11.75,0,0,1,2.2,2.11,11.73,11.73,0,0,1,.79,1.06l.22.36-.37.2-.58.4-1.63,1.16c-1.84,1.37-3.58,2.79-5.18,4.23l0,0A5.6,5.6,0,0,1,302.63,16.7ZM298,13.42l.15.13c.1.09.23.2.36.34a8,8,0,0,0,1.7,1.3,5.32,5.32,0,0,0,1.1.45,3.66,3.66,0,0,0,1.21.26,4.7,4.7,0,0,0,2.87-1c1.61-1.46,3.37-2.9,5.22-4.27.69-.5,1.25-.9,1.65-1.17l.28-.2c-.12-.17-.29-.4-.5-.66a11,11,0,0,0-2-2c-2.44-1.56-4.57-1.64-6.32-.21a67.36,67.36,0,0,0-4.46,5.3C298.61,12.54,298.21,13.11,298,13.42Z"/><path class="cls-2" d="M298.33,12.17a5,5,0,0,1-2.84,1.68,4.94,4.94,0,0,1-1.33,0,5.74,5.74,0,0,1-1.26-.24,8.35,8.35,0,0,1-2-1c-.53-.3-.87-.52-.87-.52s.31-.76,1-2.23a68.41,68.41,0,0,1,3.35-6.17,5.26,5.26,0,0,1,1.56-1.27,5.44,5.44,0,0,1,.86-.37,6.31,6.31,0,0,1,.87-.14,8,8,0,0,1,3.42.61,6.12,6.12,0,0,1,1.41.76c.41.28.77.56,1.07.8a10.87,10.87,0,0,1,.94.85l-.52.53c-.33.35-.8.84-1.37,1.48A62.65,62.65,0,0,0,298.33,12.17Z"/><path d="M294.92,14.3c-.26,0-.51,0-.76,0a6.1,6.1,0,0,1-1.38-.26,9.25,9.25,0,0,1-2.13-1c-.52-.3-.87-.53-.87-.53l-.27-.18.12-.3s.32-.79,1-2.25A66.9,66.9,0,0,1,294,3.5a5.52,5.52,0,0,1,1.71-1.42,5.81,5.81,0,0,1,.92-.4,5.57,5.57,0,0,1,1-.15,8.25,8.25,0,0,1,3.59.63,6.78,6.78,0,0,1,1.48.8,13.43,13.43,0,0,1,1.12.82,10.4,10.4,0,0,1,1,.89L305,5l-.78.8c-.33.34-.79.84-1.36,1.46a65.72,65.72,0,0,0-4.23,5.19l0,0a5.49,5.49,0,0,1-3.07,1.81A3.48,3.48,0,0,1,294.92,14.3Zm-4.42-2.36.56.34a9,9,0,0,0,2,1,5,5,0,0,0,1.16.22A4.05,4.05,0,0,0,298,11.91a65.14,65.14,0,0,1,4.27-5.23c.57-.64,1-1.14,1.37-1.48l.25-.25c-.15-.15-.37-.34-.63-.55a11.91,11.91,0,0,0-1-.78,6,6,0,0,0-1.31-.71,7.56,7.56,0,0,0-3.26-.59,4.28,4.28,0,0,0-.81.13,4.17,4.17,0,0,0-.76.33A4.89,4.89,0,0,0,294.65,4a65.9,65.9,0,0,0-3.3,6.08C290.93,11,290.65,11.59,290.5,11.94Z"/><path class="cls-2" d="M305.51,15.15a5.11,5.11,0,0,1-3.13,1.1,4.36,4.36,0,0,1-1.3-.27,5.12,5.12,0,0,1-1.18-.48,8.83,8.83,0,0,1-1.8-1.38c-.46-.39-.74-.68-.74-.68s.45-.69,1.4-2a68.3,68.3,0,0,1,4.52-5.38A4.35,4.35,0,0,1,306.85,5a8.06,8.06,0,0,1,3.23,1.26,10.38,10.38,0,0,1,2.12,2,10.74,10.74,0,0,1,.75,1l-.61.42c-.39.27-.95.67-1.63,1.18A64.55,64.55,0,0,0,305.51,15.15Z"/><path d="M302.52,16.65h-.15a5,5,0,0,1-1.41-.28,5.65,5.65,0,0,1-1.26-.51,9.14,9.14,0,0,1-1.88-1.45,7.13,7.13,0,0,1-.75-.69l-.22-.23.17-.26s.47-.71,1.42-2A67.94,67.94,0,0,1,303,5.8a5.8,5.8,0,0,1,2-1.06,5,5,0,0,1,1-.19,5.22,5.22,0,0,1,1,0,8.1,8.1,0,0,1,3.39,1.32A10.52,10.52,0,0,1,312.48,8a10.36,10.36,0,0,1,.81,1.09l.21.34-.93.62c-.39.27-.94.66-1.62,1.17a64.53,64.53,0,0,0-5.17,4.25l0,0A5.55,5.55,0,0,1,302.52,16.65Zm-4.65-3.26.49.43a8.19,8.19,0,0,0,1.73,1.33,5.24,5.24,0,0,0,1.09.45,4.49,4.49,0,0,0,1.21.25,4.67,4.67,0,0,0,2.87-1,65.52,65.52,0,0,1,5.21-4.28l1.64-1.19.27-.18,0,0c-.12-.16-.29-.39-.51-.65a10.3,10.3,0,0,0-2-1.95,7.53,7.53,0,0,0-3.06-1.19,4.55,4.55,0,0,0-.82,0,4.36,4.36,0,0,0-.81.17,4.73,4.73,0,0,0-1.64.87c-1.63,1.77-3.1,3.52-4.45,5.31C298.49,12.5,298.09,13.07,297.87,13.39Z"/><path class="cls-2" d="M317.62,25.25a5.49,5.49,0,0,1-.95.12,5.32,5.32,0,0,1-.89,0,4.12,4.12,0,0,1-1.46-.35,6,6,0,0,1-2-1.68,8.26,8.26,0,0,1-1.15-1.94l-.38-1s.7-.47,2-1.25,3.42-1.91,6.28-3.21a5.05,5.05,0,0,1,2-.18,4.8,4.8,0,0,1,1.68.59,7.28,7.28,0,0,1,2.5,2.4,13,13,0,0,1,1.49,3.9l-.74.15-2,.46C322.43,23.72,320.14,24.36,317.62,25.25Z"/><path d="M316.15,25.79h-.39a4.59,4.59,0,0,1-1.6-.39,5.68,5.68,0,0,1-2-1.61l-.14-.16a8.82,8.82,0,0,1-1.22-2.05l-.52-1.27.27-.18s.73-.49,2.08-1.26A66.39,66.39,0,0,1,319,15.63a5.62,5.62,0,0,1,2.22-.22,5.48,5.48,0,0,1,1.83.64,7.53,7.53,0,0,1,2.63,2.54,13.58,13.58,0,0,1,1.55,4l.06.38-1.1.23c-.46.1-1.13.25-2,.46-2.2.54-4.36,1.19-6.43,1.92l-.06,0a7,7,0,0,1-1,.13A4.87,4.87,0,0,1,316.15,25.79Zm-4.86-5.19.26.66a8.06,8.06,0,0,0,1.09,1.84l.13.15a5.17,5.17,0,0,0,1.71,1.41,3.83,3.83,0,0,0,1.33.33,5.63,5.63,0,0,0,.82,0,6.57,6.57,0,0,0,.89-.12c2.08-.74,4.26-1.39,6.48-1.94l2-.46.34-.07A13,13,0,0,0,325,19a6.7,6.7,0,0,0-2.35-2.26,4.43,4.43,0,0,0-1.54-.54,4.58,4.58,0,0,0-1.84.18A68,68,0,0,0,313,19.55C312.2,20,311.61,20.4,311.29,20.6Z"/><path class="cls-2" d="M312.08,19.59a5.18,5.18,0,0,1-3.29.45,3.69,3.69,0,0,1-1.22-.52,6.17,6.17,0,0,1-1.06-.72,8.39,8.39,0,0,1-1.5-1.7c-.17-.26-.32-.46-.43-.6l-.15-.23.44-.43c.29-.27.75-.71,1.33-1.23,1.18-1,3-2.54,5.51-4.37,2.66-1.42,5,0,6.63,1.52a13,13,0,0,1,2.21,3.54l-.69.3c-.43.19-1.06.47-1.83.83C316.49,17.16,314.37,18.23,312.08,19.59Z"/><path d="M309.7,20.55a4.09,4.09,0,0,1-1-.12,4.37,4.37,0,0,1-1.34-.57,7.52,7.52,0,0,1-1.11-.76,8.35,8.35,0,0,1-1.57-1.77,5.27,5.27,0,0,0-.32-.47l-.45-.65.86-.82c.28-.27.68-.65,1.17-1.07a67.53,67.53,0,0,1,5.54-4.4c2.34-1.25,4.72-.72,7.13,1.55a13.22,13.22,0,0,1,2.31,3.69l.15.39-.6.22L320,16l-1.82.83c-1.4.66-3.57,1.74-5.91,3.14l-.05,0A6.51,6.51,0,0,1,309.7,20.55ZM305,16.32l.05.07c.1.13.22.3.35.5a8.09,8.09,0,0,0,1.41,1.61,7.73,7.73,0,0,0,1,.68,3.6,3.6,0,0,0,1.11.48,4.94,4.94,0,0,0,3-.42c2.37-1.41,4.55-2.5,6-3.17l1.84-.84.33-.13A12.78,12.78,0,0,0,318,12c-2.11-2-4.19-2.47-6.15-1.43-2.53,1.82-4.31,3.34-5.43,4.32-.47.42-.86.79-1.15,1.06Z"/><path class="cls-2" d="M317.55,25.14a5.39,5.39,0,0,1-3.31-.2,6.18,6.18,0,0,1-2-1.67,8.31,8.31,0,0,1-1.15-1.95l-.39-.94.51-.34c.35-.22.86-.54,1.54-.92A67.26,67.26,0,0,1,319,15.89a5.24,5.24,0,0,1,2-.19,4.71,4.71,0,0,1,1.69.58,7.44,7.44,0,0,1,2.5,2.39,13,13,0,0,1,1.49,3.9l-.73.16c-.46.1-1.14.25-2,.46C322.35,23.61,320.06,24.25,317.55,25.14Z"/><path d="M316.07,25.7a4.64,4.64,0,0,1-2-.4A6.39,6.39,0,0,1,312,23.58a8.84,8.84,0,0,1-1.25-2.1l-.53-1.26.8-.51c.35-.23.87-.55,1.55-.94a70.25,70.25,0,0,1,6.29-3.24,5.75,5.75,0,0,1,2.22-.23,5.17,5.17,0,0,1,1.84.63,7.87,7.87,0,0,1,2.64,2.53,13,13,0,0,1,1.55,4l.07.38-1.1.24c-.46.1-1.13.25-2,.46-1.5.37-3.83,1-6.42,1.94h-.05A8,8,0,0,1,316.07,25.7Zm-4.88-5.17.27.64A8.29,8.29,0,0,0,312.55,23a5.76,5.76,0,0,0,1.85,1.56,5,5,0,0,0,3,.18,66.64,66.64,0,0,1,6.47-2c.83-.21,1.51-.37,2-.47l.35-.07a13.27,13.27,0,0,0-1.36-3.4,7.2,7.2,0,0,0-2.36-2.24,4.45,4.45,0,0,0-1.54-.54,4.9,4.9,0,0,0-1.85.18c-2.82,1.29-4.87,2.44-6.17,3.19-.67.39-1.18.7-1.52.92Z"/><path class="cls-2" d="M324.81,39.11a6,6,0,0,1-1.71-.59,4.51,4.51,0,0,1-1.23-.88,5.12,5.12,0,0,1-1.17-2.32,9.2,9.2,0,0,1-.31-3.26s.79-.14,2.36-.35,3.9-.46,7.06-.56a6.47,6.47,0,0,1,1,.22,4.86,4.86,0,0,1,.86.41A5.28,5.28,0,0,1,333,33a6.5,6.5,0,0,1,1.35,3.19,12.87,12.87,0,0,1,.07,2.93c0,.38-.08.69-.11.91a1.49,1.49,0,0,1-.08.33s-1-.22-2.72-.49S327.48,39.27,324.81,39.11Z"/><path d="M334.52,40.8l-.34-.08s-1-.22-2.7-.48-4-.57-6.69-.73h-.06a6.81,6.81,0,0,1-1.82-.64,4.62,4.62,0,0,1-1.33-1,5.53,5.53,0,0,1-1.26-2.48A9.31,9.31,0,0,1,320,32l0-.3.29,0s.82-.15,2.37-.36,3.9-.46,7.11-.55A6.06,6.06,0,0,1,331,31a4.71,4.71,0,0,1,.93.45,5.31,5.31,0,0,1,1.45,1.28,6.86,6.86,0,0,1,1.44,3.4,13,13,0,0,1,.06,3c0,.39-.07.71-.11.93a1.86,1.86,0,0,1-.1.42Zm-9.66-2.08c2.77.16,5.2.48,6.75.73,1.1.17,1.91.33,2.35.41,0-.2.07-.48.1-.8a12.64,12.64,0,0,0-.06-2.84,6.14,6.14,0,0,0-1.28-3,4.51,4.51,0,0,0-1.23-1.09,4,4,0,0,0-.78-.37,5.13,5.13,0,0,0-.95-.2,69.13,69.13,0,0,0-7,.55c-1,.13-1.67.24-2,.3a8.51,8.51,0,0,0,.31,2.8,4.8,4.8,0,0,0,1.07,2.15,3.83,3.83,0,0,0,1.12.81A5.92,5.92,0,0,0,324.86,38.72Z"/><path class="cls-2" d="M321.89,31.78a5.7,5.7,0,0,1-3.19-.86,4.24,4.24,0,0,1-.95-.94,6.26,6.26,0,0,1-.34-.55c-.11-.18-.23-.36-.33-.55a8.68,8.68,0,0,1-.76-2.12c-.06-.3-.11-.56-.13-.74s-.05-.29-.05-.29l.57-.21,1.67-.6a70.62,70.62,0,0,1,6.8-1.93,4.5,4.5,0,0,1,3.53,1.12,6.76,6.76,0,0,1,1.18,1.32,5.57,5.57,0,0,1,.79,1.53,12.92,12.92,0,0,1,.72,4.11h-.75c-.48,0-1.17,0-2,.06C326.91,31.22,324.53,31.39,321.89,31.78Z"/><path d="M321.92,32.17h0a5.93,5.93,0,0,1-3.41-.93,4.42,4.42,0,0,1-1-1,5.27,5.27,0,0,1-.37-.59l-.06-.1q-.15-.22-.27-.45a8.39,8.39,0,0,1-.79-2.22c-.07-.32-.12-.59-.15-.78s0-.25,0-.26l-.06-.33,2.56-.93a68.28,68.28,0,0,1,6.84-1.95A4.91,4.91,0,0,1,329,23.81a7.35,7.35,0,0,1,1.25,1.39,5.94,5.94,0,0,1,.84,1.64,13.28,13.28,0,0,1,.74,4.24v.38l-1.14,0c-.47,0-1.16,0-2,.06-1.55.07-4,.24-6.69.63ZM316.59,26c0,.17.06.4.12.68a8.21,8.21,0,0,0,.72,2l.24.4.08.13a3.84,3.84,0,0,0,.33.52,3.61,3.61,0,0,0,.85.85,5.24,5.24,0,0,0,2.93.79c2.74-.4,5.18-.57,6.75-.64.86,0,1.55,0,2-.06H331a13.21,13.21,0,0,0-.68-3.58,5.07,5.07,0,0,0-.75-1.43,6.47,6.47,0,0,0-1.11-1.25,4.2,4.2,0,0,0-3.24-1c-3,.71-5.28,1.44-6.7,1.92Z"/><path class="cls-2" d="M324.78,39a5.62,5.62,0,0,1-2.95-1.47,4,4,0,0,1-.75-1.1,11.67,11.67,0,0,1-.43-1.21,9.2,9.2,0,0,1-.31-3.26s.79-.15,2.35-.36a68.22,68.22,0,0,1,7.05-.57,4.58,4.58,0,0,1,3.24,1.8,6.48,6.48,0,0,1,.9,1.52c.12.27.22.55.31.82a8.46,8.46,0,0,1,.16.85,12.94,12.94,0,0,1-.11,4.17l-.73-.14c-.47-.09-1.15-.21-2-.34C329.81,39.44,327.45,39.14,324.78,39Z"/><path d="M334.55,40.64l-1.12-.21c-.46-.09-1.14-.21-2-.34-2.21-.34-4.53-.58-6.69-.7h-.06a6,6,0,0,1-3.16-1.58,4.61,4.61,0,0,1-.82-1.21,5.42,5.42,0,0,1-.3-.82l-.14-.42a9.77,9.77,0,0,1-.34-3.45l0-.29.29-.05s.81-.15,2.36-.36a68.6,68.6,0,0,1,7.1-.58,4.94,4.94,0,0,1,3.56,1.95,7.71,7.71,0,0,1,1,1.61,8.89,8.89,0,0,1,.32.86,8.45,8.45,0,0,1,.17.91,13.12,13.12,0,0,1-.11,4.31Zm-9.72-2c2.21.13,4.48.36,6.74.72.85.13,1.54.25,2,.34l.34.06a12.76,12.76,0,0,0,0-3.65,5.9,5.9,0,0,0-.15-.8,7.14,7.14,0,0,0-.28-.76,6.44,6.44,0,0,0-.85-1.43,4.2,4.2,0,0,0-3-1.66,69.83,69.83,0,0,0-7,.58c-1,.13-1.66.24-2,.3a8.51,8.51,0,0,0,.31,2.8c.05.13.1.29.15.44a5.59,5.59,0,0,0,.26.72,3.68,3.68,0,0,0,.68,1A5.18,5.18,0,0,0,324.83,38.59Z"/><path class="cls-2" d="M326,54.68a5.78,5.78,0,0,1-2.14-2.52,5.11,5.11,0,0,1-.16-2.59,9.17,9.17,0,0,1,1-3.12s.79.18,2.31.6a68.34,68.34,0,0,1,6.72,2.25,5.61,5.61,0,0,1,.87.61,4.51,4.51,0,0,1,.62.7,5.13,5.13,0,0,1,.77,1.62,7.52,7.52,0,0,1,.23,1.76,8.44,8.44,0,0,1,0,.87,7.34,7.34,0,0,1-.18.84,12.84,12.84,0,0,1-1.75,3.79l-.62-.42c-.4-.26-1-.64-1.7-1.09C330.47,57.07,328.42,55.86,326,54.68Z"/><path d="M334.36,60l-.32-.2-.39-.26-.24-.17-1.69-1.09c-1.32-.82-3.4-2.05-5.87-3.28l-.06,0a6,6,0,0,1-2.28-2.7,5.43,5.43,0,0,1-.19-2.78,9.22,9.22,0,0,1,1-3.26l.14-.26.29.06s.81.19,2.32.6,3.77,1.1,6.76,2.27a5.49,5.49,0,0,1,1,.68,5,5,0,0,1,.69.77,5.64,5.64,0,0,1,.82,1.75,7.25,7.25,0,0,1,.25,1.85c0,.31,0,.62,0,.92a7.92,7.92,0,0,1-.2.9,13.57,13.57,0,0,1-1.8,3.93Zm-8.13-5.7a67.47,67.47,0,0,1,5.91,3.31l1.71,1.1.29.2a12.82,12.82,0,0,0,1.47-3.34,6.66,6.66,0,0,0,.18-.8c0-.25,0-.53,0-.81a6.58,6.58,0,0,0-.22-1.65,4.55,4.55,0,0,0-.7-1.49,4.42,4.42,0,0,0-.57-.65,4.66,4.66,0,0,0-.8-.55,69.17,69.17,0,0,0-6.63-2.22l-2-.52a8.57,8.57,0,0,0-.8,2.7,4.61,4.61,0,0,0,.14,2.41A5.25,5.25,0,0,0,326.23,54.33Z"/><path class="cls-2" d="M326.19,46.77a6.06,6.06,0,0,1-1.56-.92,4.43,4.43,0,0,1-1-1.11,5,5,0,0,1-.68-2.5,9.12,9.12,0,0,1,.34-3.25s.8,0,2.37.12a69.83,69.83,0,0,1,7,.85,4.63,4.63,0,0,1,2.8,2.43,6.76,6.76,0,0,1,.58,1.67,5.23,5.23,0,0,1,.13.87c0,.28,0,.57,0,.85a13.1,13.1,0,0,1-.94,4.06l-.7-.28c-.44-.18-1.08-.44-1.89-.73C331,48.23,328.78,47.46,326.19,46.77Z"/><path d="M335.43,50.37l-1.05-.44c-.44-.18-1.08-.43-1.88-.73-1.46-.54-3.75-1.34-6.41-2l0,0a6.75,6.75,0,0,1-1.66-1A4.92,4.92,0,0,1,323.26,45a5.46,5.46,0,0,1-.74-2.69,9.53,9.53,0,0,1,.36-3.39l.09-.29h.3s.83,0,2.39.12a69.41,69.41,0,0,1,7.08.86,5,5,0,0,1,3.08,2.63,7.66,7.66,0,0,1,.76,2.7c0,.32,0,.61,0,.91a13.45,13.45,0,0,1-1,4.2Zm-9.11-4a67.49,67.49,0,0,1,6.46,2.05c.81.3,1.46.56,1.9.74l.32.13a12.63,12.63,0,0,0,.77-3.56c0-.27,0-.55,0-.83a6.18,6.18,0,0,0-.13-.79,6.75,6.75,0,0,0-.54-1.57,4.26,4.26,0,0,0-2.57-2.23,69.22,69.22,0,0,0-6.94-.83c-1-.07-1.68-.1-2.05-.12a8.62,8.62,0,0,0-.24,2.81,4.63,4.63,0,0,0,.61,2.32,4.07,4.07,0,0,0,.94,1A6.17,6.17,0,0,0,326.32,46.4Z"/><path class="cls-2" d="M326,54.55A5.61,5.61,0,0,1,323.89,52a4,4,0,0,1-.25-1.31c0-.43.06-.86.07-1.28a9.31,9.31,0,0,1,1-3.12s.78.17,2.3.59a68.85,68.85,0,0,1,6.72,2.23A4.61,4.61,0,0,1,336,52.07a7.45,7.45,0,0,1,.23,1.76,5.73,5.73,0,0,1-.21,1.71,13.11,13.11,0,0,1-1.74,3.8l-.62-.42c-.4-.26-1-.64-1.71-1.09A67,67,0,0,0,326,54.55Z"/><path d="M334.38,59.87l-.31-.2-.64-.42c-.39-.26-1-.63-1.69-1.08-1.32-.82-3.41-2.05-5.87-3.26l-.06,0a6,6,0,0,1-2.29-2.7,4.29,4.29,0,0,1-.28-1.44,6,6,0,0,1,0-.85c0-.15,0-.3,0-.45a9.51,9.51,0,0,1,1-3.31l.14-.26.29.07s.81.18,2.32.59,3.76,1.09,6.77,2.25A5,5,0,0,1,336.38,52a7.39,7.39,0,0,1,.25,1.86,6.11,6.11,0,0,1-.23,1.84,13.32,13.32,0,0,1-1.8,3.91Zm-8.13-5.67c2.48,1.22,4.58,2.46,5.91,3.29.73.45,1.32.83,1.71,1.1l.29.19a12.76,12.76,0,0,0,1.48-3.34,5.73,5.73,0,0,0,.19-1.61,6.58,6.58,0,0,0-.22-1.65,4.16,4.16,0,0,0-2.08-2.68,68.62,68.62,0,0,0-6.64-2.2q-1.44-.39-2-.51a8.57,8.57,0,0,0-.8,2.7c0,.14,0,.31,0,.48a6.39,6.39,0,0,0,0,.75,3.86,3.86,0,0,0,.23,1.18A5.19,5.19,0,0,0,326.25,54.2Z"/><path class="cls-2" d="M321,69.46a6.08,6.08,0,0,1-.75-1.65,4.3,4.3,0,0,1-.22-1.5,5.07,5.07,0,0,1,.86-2.44,9.3,9.3,0,0,1,2.13-2.49s.65.47,1.89,1.45,3,2.5,5.3,4.71a4.53,4.53,0,0,1,.86,1.79,5.41,5.41,0,0,1,.07,1.79,6.5,6.5,0,0,1-1.36,3.19,13.07,13.07,0,0,1-2.06,2.08c-.3.24-.55.43-.73.55l-.3.17-.39-.62c-.26-.39-.65-1-1.14-1.67C324.21,73.41,322.79,71.49,321,69.46Z"/><path d="M326.57,77.65l-.19-.35-.38-.59c-.25-.39-.64-1-1.13-1.66-.89-1.27-2.33-3.23-4.13-5.33l0,0a6.5,6.5,0,0,1-.81-1.76,4.81,4.81,0,0,1-.23-1.62,5.47,5.47,0,0,1,.92-2.64,9.32,9.32,0,0,1,2.23-2.59l.23-.18.25.17s.67.49,1.89,1.46a69.62,69.62,0,0,1,5.33,4.73,4.9,4.9,0,0,1,1,2,5.64,5.64,0,0,1,.07,1.93,6.83,6.83,0,0,1-1.45,3.39A13.23,13.23,0,0,1,328,76.7c-.31.25-.57.44-.75.57Zm-5.21-8.43c1.82,2.12,3.27,4.09,4.17,5.37.49.71.88,1.29,1.14,1.69l.19.29c.15-.1.38-.27.65-.49a13,13,0,0,0,2-2,6,6,0,0,0,1.28-3,4.54,4.54,0,0,0-.06-1.65,4.08,4.08,0,0,0-.79-1.64,67.35,67.35,0,0,0-5.23-4.63c-.78-.62-1.33-1-1.62-1.26a8.5,8.5,0,0,0-1.8,2.17,4.76,4.76,0,0,0-.81,2.26,3.86,3.86,0,0,0,.2,1.37A5.67,5.67,0,0,0,321.36,69.22Z"/><path class="cls-2" d="M324.3,62.26a5.59,5.59,0,0,1-1.59-2.88,4,4,0,0,1,0-1.33c.08-.43.23-.84.33-1.24a9.07,9.07,0,0,1,1.6-2.86s.73.33,2.13,1a69.81,69.81,0,0,1,6.14,3.54,4.58,4.58,0,0,1,1.64,3.32,7,7,0,0,1-.13,1.77,5.4,5.4,0,0,1-.56,1.64,12.71,12.71,0,0,1-2.46,3.36s-.19-.19-.53-.53-.82-.82-1.45-1.41A66.92,66.92,0,0,0,324.3,62.26Z"/><path d="M331.4,69.18l-.8-.81c-.33-.33-.82-.82-1.44-1.41-1.13-1.06-2.92-2.69-5.1-4.38l-.05,0a6.14,6.14,0,0,1-1.7-3.1,4.48,4.48,0,0,1,0-1.46,6.87,6.87,0,0,1,.21-.84c0-.15.09-.29.13-.43a9.37,9.37,0,0,1,1.68-3l.19-.22.27.12s.76.34,2.15,1a67.69,67.69,0,0,1,6.17,3.55A5,5,0,0,1,335,61.82a7.15,7.15,0,0,1-.13,1.88,5.75,5.75,0,0,1-.6,1.75,13.53,13.53,0,0,1-2.54,3.47ZM324.57,62c2.19,1.7,4,3.34,5.14,4.42.62.59,1.12,1.08,1.46,1.42l.24.25a12.71,12.71,0,0,0,2.11-3,5.31,5.31,0,0,0,.52-1.53,7,7,0,0,0,.12-1.67,4.2,4.2,0,0,0-1.5-3.05,67.66,67.66,0,0,0-6.06-3.48c-.88-.45-1.5-.75-1.83-.9a8.27,8.27,0,0,0-1.34,2.48c0,.13-.08.28-.12.44a4.73,4.73,0,0,0-.19.74,3.52,3.52,0,0,0,0,1.21A5.35,5.35,0,0,0,324.57,62Z"/><path class="cls-2" d="M321.11,69.35a6.36,6.36,0,0,1-.77-1.65,4.53,4.53,0,0,1-.22-1.49,4,4,0,0,1,.28-1.31c.15-.41.39-.77.57-1.15a9.11,9.11,0,0,1,2.14-2.48s.65.47,1.88,1.44a67.78,67.78,0,0,1,5.31,4.69,4.61,4.61,0,0,1,.95,3.58,6.8,6.8,0,0,1-.48,1.71,7,7,0,0,1-.37.78c-.16.25-.33.48-.5.7a12.77,12.77,0,0,1-2.06,2.09,8.85,8.85,0,0,1-.72.54,1.68,1.68,0,0,1-.3.18A67.5,67.5,0,0,0,321.11,69.35Z"/><path d="M326.66,77.48l-.18-.29a68.08,68.08,0,0,0-5.67-7.58l0,0a6.82,6.82,0,0,1-.82-1.75,4.91,4.91,0,0,1-.23-1.63,4.26,4.26,0,0,1,.3-1.43,5.23,5.23,0,0,1,.38-.79c.07-.13.14-.26.2-.39A9.73,9.73,0,0,1,322.86,61l.24-.18.24.17s.67.49,1.9,1.46a70.23,70.23,0,0,1,5.34,4.71A5,5,0,0,1,331.64,71a7,7,0,0,1-.5,1.81c-.12.28-.25.56-.39.83s-.36.52-.53.75a13.91,13.91,0,0,1-2.12,2.15c-.31.24-.57.44-.76.56a1.88,1.88,0,0,1-.36.22Zm-5.23-8.37A70.85,70.85,0,0,1,327,76.44c.17-.12.39-.29.64-.49a13.13,13.13,0,0,0,2-2c.16-.22.32-.44.47-.67s.24-.47.35-.73a6.61,6.61,0,0,0,.44-1.6,4.17,4.17,0,0,0-.87-3.29A67,67,0,0,0,324.74,63c-.78-.61-1.32-1-1.62-1.25a8.87,8.87,0,0,0-1.8,2.17c-.06.13-.14.27-.21.41a6.27,6.27,0,0,0-.34.69,3.84,3.84,0,0,0-.25,1.18,4.08,4.08,0,0,0,.2,1.36A6.34,6.34,0,0,0,321.43,69.11Z"/><path class="cls-2" d="M310.69,81.18A4.76,4.76,0,0,1,312.76,76a9.32,9.32,0,0,1,1.95-1.12,7.26,7.26,0,0,1,1-.36s.42.69,1.18,2.08,1.85,3.49,3.08,6.4a4.91,4.91,0,0,1-.53,3.66,7.36,7.36,0,0,1-1.08,1.4,9.75,9.75,0,0,1-1.41,1,13.13,13.13,0,0,1-2.67,1.15,7,7,0,0,1-1.26.23s0-.26-.12-.72-.2-1.11-.38-1.94C312.11,86.06,311.53,83.74,310.69,81.18Z"/><path d="M312.67,90.84l-.07-.35s0-.26-.12-.73l0-.1c-.09-.45-.2-1.06-.36-1.83-.34-1.52-.93-3.9-1.79-6.53v-.06a5.13,5.13,0,0,1,2.25-5.6,9.26,9.26,0,0,1,2-1.16,7.33,7.33,0,0,1,1-.37l.29-.09.16.26s.43.71,1.19,2.09,1.85,3.49,3.1,6.45a5.25,5.25,0,0,1-.56,4,7.06,7.06,0,0,1-1.13,1.49,10.33,10.33,0,0,1-1.5,1.06,13.6,13.6,0,0,1-2.76,1.2,8.19,8.19,0,0,1-1.34.24Zm-1.59-9.76c.86,2.65,1.45,5,1.8,6.58q.24,1.17.36,1.86l.08.45a7.21,7.21,0,0,0,.83-.17,12.09,12.09,0,0,0,2.57-1.12,8.73,8.73,0,0,0,1.35-1,6.39,6.39,0,0,0,1-1.3,4.48,4.48,0,0,0,.49-3.37c-1.21-2.85-2.32-5-3-6.31-.48-.87-.82-1.47-1-1.78-.16,0-.38.13-.64.24A9.93,9.93,0,0,0,313,76.29,4.37,4.37,0,0,0,311.08,81.08Z"/><path class="cls-2" d="M316.48,75.79a5.88,5.88,0,0,1-.41-1.77,4.4,4.4,0,0,1,.09-1.51,4.72,4.72,0,0,1,1.33-2.23,9.17,9.17,0,0,1,2.57-2s.54.59,1.56,1.8a70.91,70.91,0,0,1,4.28,5.66,4.76,4.76,0,0,1,.2,3.7,6.36,6.36,0,0,1-2,2.85,12.43,12.43,0,0,1-2.41,1.64,5.06,5.06,0,0,1-.83.38l-.33.11s-.1-.24-.27-.68-.42-1.06-.77-1.85C318.83,80.29,317.8,78.13,316.48,75.79Z"/><path d="M320.32,84.9l-.39-1c-.16-.43-.42-1-.77-1.84-.63-1.43-1.67-3.63-3-6l0,0a6,6,0,0,1-.44-1.89,5,5,0,0,1,.1-1.62A5.19,5.19,0,0,1,317.2,70a9.24,9.24,0,0,1,2.68-2.1l.27-.14.2.22s.57.61,1.58,1.81,2.48,3,4.29,5.7a5.11,5.11,0,0,1,.26,4,6.61,6.61,0,0,1-2.09,3,12.54,12.54,0,0,1-2.47,1.69,4.9,4.9,0,0,1-.9.41Zm-3.47-9.29c1.36,2.43,2.4,4.65,3,6.09.36.8.62,1.44.79,1.87l.1.26s0,0,0,.06a4.35,4.35,0,0,0,.74-.34A12.11,12.11,0,0,0,323.88,82a6,6,0,0,0,1.84-2.68,4.32,4.32,0,0,0-.18-3.39c-1.77-2.58-3.26-4.43-4.23-5.58-.64-.76-1.09-1.28-1.34-1.56a8.77,8.77,0,0,0-2.18,1.78,4.53,4.53,0,0,0-1.25,2.07,4.4,4.4,0,0,0-.07,1.39A5.12,5.12,0,0,0,316.85,75.61Z"/><path class="cls-2" d="M310.79,81.1a4.75,4.75,0,0,1,2.06-5.21,9.42,9.42,0,0,1,2.91-1.49s.42.68,1.19,2.07a70.64,70.64,0,0,1,3.1,6.39,4.86,4.86,0,0,1-.52,3.66,7.06,7.06,0,0,1-1.08,1.4,7.53,7.53,0,0,1-1.4,1,12.69,12.69,0,0,1-2.67,1.16,5.93,5.93,0,0,1-.91.2l-.34,0s-.05-.26-.13-.72-.2-1.1-.39-2C312.23,86,311.64,83.66,310.79,81.1Z"/><path d="M312.82,90.77l-.08-.35s0-.12-.06-.34l-.13-.68c-.07-.43-.18-1-.33-1.65-.35-1.53-.94-3.9-1.81-6.53v0c-.53-3.14.93-4.79,2.24-5.61a9.62,9.62,0,0,1,3-1.55l.29-.08.16.26s.44.71,1.2,2.09a70.83,70.83,0,0,1,3.11,6.43,5.22,5.22,0,0,1-.54,4,7.06,7.06,0,0,1-1.13,1.49,8.9,8.9,0,0,1-1.48,1.07,13.88,13.88,0,0,1-2.77,1.2,5,5,0,0,1-.83.19ZM311.18,81c.87,2.65,1.47,5,1.81,6.57.16.69.27,1.25.35,1.68l.11.64.09,0a3.88,3.88,0,0,0,.71-.16,12.63,12.63,0,0,0,2.6-1.12,8.15,8.15,0,0,0,1.33-1,6.42,6.42,0,0,0,1-1.31,4.42,4.42,0,0,0,.48-3.36c-1.23-2.88-2.34-5-3.06-6.3-.48-.87-.83-1.47-1-1.79a9,9,0,0,0-2.48,1.33A4.36,4.36,0,0,0,311.18,81Z"/><path class="cls-2" d="M296.64,88a5.18,5.18,0,0,1,1.57-2.86A4.49,4.49,0,0,1,300.55,84a6.17,6.17,0,0,1,.62-.09l.57-.1c.38,0,.73-.07,1-.08a10.25,10.25,0,0,1,1,0s.12.8.29,2.38c.09.79.18,1.78.25,3s.14,2.59.12,4.11a5.46,5.46,0,0,1-5.13,4.44,11.49,11.49,0,0,1-2.92,0c-.77-.14-1.25-.28-1.25-.28s.06-.26.17-.72.24-1.11.41-1.94A64.7,64.7,0,0,0,296.64,88Z"/><path d="M297.65,98.16a8.61,8.61,0,0,1-1.29-.09c-.79-.14-1.28-.29-1.3-.29l-.35-.11.07-.35s.06-.27.17-.73.24-1.1.4-1.92a64,64,0,0,0,.9-6.71v0a5.59,5.59,0,0,1,1.69-3.06,4.93,4.93,0,0,1,2.53-1.25l.65-.1.15,0a3.07,3.07,0,0,1,.42-.07,9.44,9.44,0,0,1,1.08-.09,7.53,7.53,0,0,1,1.08,0l.3,0,.05.3s.13.83.3,2.4c.1,1,.19,2,.25,3s.14,2.51.12,4.15A5.85,5.85,0,0,1,299.38,98,13.14,13.14,0,0,1,297.65,98.16Zm-2-1c.2,0,.49.12.84.18a10.61,10.61,0,0,0,2.8,0,5.09,5.09,0,0,0,4.79-4.1c0-1.54-.06-3-.13-4s-.14-2-.25-2.94-.19-1.69-.24-2.05c-.17,0-.4,0-.67,0a7.93,7.93,0,0,0-1,.08c-.13,0-.26,0-.39.06l-.18,0c-.22,0-.41,0-.61.09a4.09,4.09,0,0,0-2.13,1.05A4.67,4.67,0,0,0,297,88.05a68.14,68.14,0,0,1-.9,6.77c-.17.83-.31,1.49-.41,2Z"/><path class="cls-2" d="M304.05,85.27a6,6,0,0,1,.29-1.81,6.84,6.84,0,0,1,.68-1.32,4.53,4.53,0,0,1,2.07-1.58,11.51,11.51,0,0,1,2.13-.71,7.25,7.25,0,0,1,1-.17s.28.76.76,2.27a69.73,69.73,0,0,1,1.77,6.87,4.91,4.91,0,0,1-1.23,3.5,5.59,5.59,0,0,1-1.33,1.15,9.23,9.23,0,0,1-1.58.71,12.3,12.3,0,0,1-2.85.62,11.31,11.31,0,0,1-1.28,0l0-.73c0-.47,0-1.14,0-2C304.5,90.36,304.37,87.94,304.05,85.27Z"/><path d="M305.41,95.21c-.58,0-.93,0-1,0l-.36,0,0-1.1c0-.46,0-1.13,0-2,0-1.23-.11-3.73-.47-6.76v0a6.6,6.6,0,0,1,.31-1.92,4.38,4.38,0,0,1,.34-.76,4.72,4.72,0,0,1,.39-.67,5,5,0,0,1,2.25-1.72,12.94,12.94,0,0,1,2.2-.74,9.42,9.42,0,0,1,1.06-.17l.31,0,.1.29s.29.78.77,2.29a68.19,68.19,0,0,1,1.78,6.91,5.28,5.28,0,0,1-1.31,3.83,6.11,6.11,0,0,1-1.44,1.25,10.41,10.41,0,0,1-1.65.74,13,13,0,0,1-2.94.64Zm-.5-.81h.86a11.93,11.93,0,0,0,2.73-.59,10.56,10.56,0,0,0,1.51-.68,5.3,5.3,0,0,0,1.24-1.08,4.57,4.57,0,0,0,1.13-3.21,69.91,69.91,0,0,0-1.76-6.77c-.3-.95-.53-1.61-.65-2l-.66.12a12.62,12.62,0,0,0-2.07.7,4.09,4.09,0,0,0-1.9,1.44A4.27,4.27,0,0,0,305,83a3.32,3.32,0,0,0-.29.64,5.25,5.25,0,0,0-.27,1.66,67.05,67.05,0,0,1,.48,6.81c0,.84,0,1.52,0,2Z"/><path class="cls-2" d="M296.77,88a6,6,0,0,1,.63-1.71,5.63,5.63,0,0,1,.93-1.15A4.47,4.47,0,0,1,300.66,84l1.19-.2c.38,0,.73-.07,1-.08a7.54,7.54,0,0,1,1,0s.12.8.3,2.38a66.24,66.24,0,0,1,.4,7.08,5.48,5.48,0,0,1-5.12,4.45,12,12,0,0,1-2.92,0,10.46,10.46,0,0,1-1.25-.28s.06-.26.16-.71.24-1.12.4-1.94A66.34,66.34,0,0,0,296.77,88Z"/><path d="M297.82,98.12a12.18,12.18,0,0,1-1.29-.07,10.18,10.18,0,0,1-1.32-.3l-.34-.1.07-.36s.06-.26.16-.72.24-1.11.4-1.92a65.77,65.77,0,0,0,.87-6.72v-.05a6.27,6.27,0,0,1,.68-1.83,5.88,5.88,0,0,1,1-1.23,5,5,0,0,1,2.54-1.26l1.21-.2a9.42,9.42,0,0,1,1.09-.09c.63,0,1.06,0,1.08,0l.3,0,.05.31s.13.82.31,2.39a64.61,64.61,0,0,1,.39,7.13A5.85,5.85,0,0,1,299.53,98,12.21,12.21,0,0,1,297.82,98.12Zm-2-1,.85.17a11,11,0,0,0,2.79-.05,5.08,5.08,0,0,0,4.78-4.11,64.52,64.52,0,0,0-.4-7c-.11-1-.2-1.68-.25-2.05h-.67c-.35,0-.68,0-1,.07l-1.18.2a4.08,4.08,0,0,0-2.13,1,5.86,5.86,0,0,0-.85,1.07,5.58,5.58,0,0,0-.59,1.57,62.58,62.58,0,0,1-.88,6.77c-.15.83-.3,1.5-.4,1.95Z"/><path class="cls-2" d="M280.41,89.29a5.24,5.24,0,0,1,5.69-2.62c.24,0,.48.08.72.13l.57.13c.37.1.7.21,1,.32.56.23.93.43.93.43s-.2.79-.66,2.31c-.23.76-.53,1.71-.92,2.83s-.91,2.44-1.46,3.87c-2.79,5-9.26,1.47-9.26,1.47S278.45,94.39,280.41,89.29Z"/><path d="M281.62,99.75a11.52,11.52,0,0,1-4.81-1.24l-.3-.17.12-.32s1.46-3.79,3.41-8.88l0,0a5.62,5.62,0,0,1,6.09-2.81q.39,0,.75.12l.6.14c.33.09.68.21,1,.34a9.13,9.13,0,0,1,1,.45l.26.15-.07.3s-.21.81-.66,2.33c-.29,1-.6,1.88-.94,2.84s-.68,1.86-1.08,2.9l-.37,1A5.43,5.43,0,0,1,281.62,99.75ZM277.51,98c1.28.61,6.15,2.59,8.42-1.48l.35-.92c.4-1,.78-2,1.07-2.88s.64-1.87.92-2.81.48-1.63.57-2c-.15-.07-.36-.17-.61-.26a7.46,7.46,0,0,0-.94-.32c-.18,0-.35-.08-.55-.12l-.69-.12a4.81,4.81,0,0,0-5.28,2.39C279.16,93.66,277.9,96.94,277.51,98Z"/><path class="cls-2" d="M289,89.17a5.72,5.72,0,0,1,1-1.55,5.87,5.87,0,0,1,1.14-.94,4.61,4.61,0,0,1,2.51-.66,16.93,16.93,0,0,1,2.24.18c.6.11,1,.23,1,.23s0,.81-.18,2.4c-.08.79-.18,1.78-.34,3s-.38,2.56-.7,4a5.46,5.46,0,0,1-5.91,3.33,12.73,12.73,0,0,1-2.86-.53,10.45,10.45,0,0,1-1.05-.48s.37-1,1-2.53S288.2,91.77,289,89.17Z"/><path d="M290.38,99.6a6,6,0,0,1-.74,0A12.79,12.79,0,0,1,286.7,99a10,10,0,0,1-1.12-.51l-.31-.17,1.1-2.86c.86-2.19,1.6-4.35,2.2-6.42l0,0a6.1,6.1,0,0,1,1-1.65,5.8,5.8,0,0,1,1.15-1l.07-.05a4.83,4.83,0,0,1,2.73-.73l.61,0a12.14,12.14,0,0,1,1.71.16c.61.11,1,.24,1,.24l.29.09v.31s0,.84-.18,2.41c-.1,1-.21,2-.35,3-.2,1.49-.43,2.83-.7,4.09A5.74,5.74,0,0,1,290.38,99.6ZM286.27,98c.17.08.41.18.7.29a12.13,12.13,0,0,0,2.74.51,5.09,5.09,0,0,0,5.51-3.07c.25-1.18.48-2.5.67-4,.14-1,.25-2,.34-2.94s.14-1.69.16-2.06l-.65-.14a11.91,11.91,0,0,0-1.6-.14l-.59,0a4.26,4.26,0,0,0-2.28.6,5,5,0,0,0-1,.87,5.76,5.76,0,0,0-.9,1.42c-.59,2.08-1.34,4.25-2.21,6.46Z"/><g class="cls-3"><path d="M26.85,71.44V67.65a11.67,11.67,0,0,0,2.91.39,2.5,2.5,0,0,0,2.33-1,8.67,8.67,0,0,0,.57-3.87V39.73H29.2V36.34h11v3.39H36.75V63.41a17.6,17.6,0,0,1-.46,4.64,4.88,4.88,0,0,1-2.2,2.71A7.37,7.37,0,0,1,30,71.89,10.49,10.49,0,0,1,26.85,71.44Z"/><path d="M42.7,49.75a13.62,13.62,0,0,1,3.86-9.87,13.37,13.37,0,0,1,10-4,13.71,13.71,0,0,1,10.17,4,13.57,13.57,0,0,1,3.93,9.95,13.53,13.53,0,0,1-4,10.05,13.82,13.82,0,0,1-10.16,4A14.39,14.39,0,0,1,49.31,62a12,12,0,0,1-5-5.24A15.6,15.6,0,0,1,42.7,49.75Zm4.46,0a11,11,0,0,0,2.61,7.47,8.62,8.62,0,0,0,6.85,3,8.75,8.75,0,0,0,6.9-3.09,10.75,10.75,0,0,0,2.71-7.36,10.41,10.41,0,0,0-2.75-7.31,9,9,0,0,0-6.92-3,8.65,8.65,0,0,0-6.77,2.94A10.59,10.59,0,0,0,47.16,49.77Z"/><path d="M76.85,60V39.73H73.93V36.34h9.93v3.39H80.94V60h2.92v3.39H73.93V60Z"/><path d="M89.21,60V39.73H85.33V36.34h9.24l11.88,21V39.73h-3.84V36.34h11.11v3.39h-4v24h-4.2l-13-23.1V60h3.88v3.39H85.33V60Z"/><path d="M131.57,60V39.73H126v6.91h-3.34V36.34h21.92v10.3h-3.34V39.73h-5.57V60h3.52v3.39H128.1V60Z"/><path d="M149.16,60V39.73h-3.08V36.34h10.35v3.39h-3.19v7.74H165V39.73h-3.17V36.34h10.35v3.39H169.1V60h3.09v3.39H161.84V60H165V50.86H153.24V60h3.19v3.39H146.08V60Z"/><path d="M177.82,60V39.73h-3.5V36.34h22.49v8.15h-3.35V39.73H181.9v8.05H192v3.39H181.9V60h11.56V55.1h3.35v8.31H174.32V60Z"/><path d="M232.94,52.4l3.52,2a11.8,11.8,0,0,1-4.79,7,14.28,14.28,0,0,1-8.3,2.49,12.85,12.85,0,0,1-9.87-4A13.92,13.92,0,0,1,209.78,50q0-6.43,3.74-10.25a13.05,13.05,0,0,1,9.75-3.82,13.84,13.84,0,0,1,8.93,2.9V36.34h3.5V45h-3.5a8.83,8.83,0,0,0-3.6-4.1,9.91,9.91,0,0,0-5.12-1.45,8.5,8.5,0,0,0-6.64,2.92,10.71,10.71,0,0,0-2.6,7.38A10.35,10.35,0,0,0,217,57.26a8.87,8.87,0,0,0,6.6,2.9,9,9,0,0,0,5.7-2A10.71,10.71,0,0,0,232.94,52.4Z"/><path d="M242.44,60V39.73h-3.51V36.34H250v3.39h-3.32V60H255v-9.2h3.81V63.41H238.93V60Z"/><path d="M267.09,39.73V53.27a20,20,0,0,0,.32,4.36,3.57,3.57,0,0,0,1.6,2,5.87,5.87,0,0,0,3.31.85,7.69,7.69,0,0,0,3.7-.73,3.57,3.57,0,0,0,1.7-2,15.38,15.38,0,0,0,.42-4.36V39.73H275V36.34h10.58v3.39h-3.38V53.87A25.13,25.13,0,0,1,282,58a6.57,6.57,0,0,1-1.31,2.7,7.32,7.32,0,0,1-3,2.26,11.85,11.85,0,0,1-4.72.85,14.46,14.46,0,0,1-5.12-.79,7.05,7.05,0,0,1-3.08-2.11,7.39,7.39,0,0,1-1.37-2.82,22.76,22.76,0,0,1-.34-4.65V39.73h-3.34V36.34H270.3v3.39Z"/><path d="M290.32,60V39.73H287V36.34h9a25.59,25.59,0,0,1,5.58.45,5.91,5.91,0,0,1,3.28,2.27,6.76,6.76,0,0,1,1.42,4.27,6.89,6.89,0,0,1-.85,3.4A5.48,5.48,0,0,1,303,49a6.69,6.69,0,0,1,3.47,2.58,7.18,7.18,0,0,1,1.22,4.11,7.31,7.31,0,0,1-.91,3.64,6.58,6.58,0,0,1-2.4,2.53,9.52,9.52,0,0,1-3.28,1.21,30.46,30.46,0,0,1-4.85.31H287V60Zm4.09-12.41H297c1.94,0,3.3-.34,4.07-1a3.82,3.82,0,0,0,1.16-3q0-3.86-5.23-3.85h-2.55Zm0,12.41h1.53a23.27,23.27,0,0,0,4.42-.3,3.86,3.86,0,0,0,2.29-1.42,4.49,4.49,0,0,0,.88-2.87,4.27,4.27,0,0,0-.84-2.68,4.11,4.11,0,0,0-2.18-1.44,15.27,15.27,0,0,0-3.77-.36h-2.33Z"/></g></g></g></svg>