<svg xmlns="http://www.w3.org/2000/svg" width="103.67" height="103.52" viewBox="0 0 103.67 103.52"><defs><style>.cls-1{fill:#634428;}.cls-2{fill:#452e16;stroke:#000;stroke-miterlimit:10;stroke-width:0.69px;}.cls-3{fill:#e8cb5b;}</style></defs><g id="Layer_2" data-name="Layer 2"><g id="Layer_1-2" data-name="Layer 1"><circle class="cls-1" cx="51.87" cy="51.76" r="45.61"/><path class="cls-2" d="M3,57.64A4,4,0,0,1,.81,55.33a6.86,6.86,0,0,1-.38-3A6,6,0,0,1,.65,51.1a9.54,9.54,0,0,1,.33-1,9,9,0,0,1,.41-.91l2,.75c1.3.49,3.18,1.26,5.71,2.17a4.48,4.48,0,0,1,2.13,2,3.74,3.74,0,0,1,.33,1.16,4,4,0,0,1,0,.59,5.78,5.78,0,0,1,0,.58A8.38,8.38,0,0,1,11,59.39l-.61-.1L8.77,59C7.36,58.72,5.36,58.29,3,57.64Z"/><path class="cls-2" d="M7.67,73.3a4.51,4.51,0,0,1-2.93-1.43,6.56,6.56,0,0,1-1.26-2.7,9.26,9.26,0,0,1-.27-2.51,10.69,10.69,0,0,1,.13-1.09s.72.1,2.09.24,3.49.28,6.13.3a4.22,4.22,0,0,1,2.6,1.23,5.14,5.14,0,0,1,1.21,2,8.85,8.85,0,0,1,.34,2,7.84,7.84,0,0,1,.07.91l-.61.11-1.7.28C12,72.93,10.05,73.16,7.67,73.3Z"/><path class="cls-2" d="M4.68,65.68A4.37,4.37,0,0,1,2.1,63.76a6.27,6.27,0,0,1-.64-1.39,5.72,5.72,0,0,1-.2-1.47,11.29,11.29,0,0,1,.45-3.57s.71.22,2.07.58,3.37.86,6,1.32a4.35,4.35,0,0,1,3.2,3.87,16.58,16.58,0,0,1,.06,2,7.73,7.73,0,0,1-.1.92H10.56C9.12,66,7,66,4.68,65.68Z"/><path class="cls-2" d="M7.61,73.18a4.55,4.55,0,0,1-2.93-1.43A6.94,6.94,0,0,1,3.43,69a8.73,8.73,0,0,1-.26-2.5,9.31,9.31,0,0,1,.14-1.1s.72.11,2.09.25,3.47.3,6.12.32a4.17,4.17,0,0,1,2.6,1.24,5.3,5.3,0,0,1,1.2,2.05,8.33,8.33,0,0,1,.34,2c.06.54.06.91.06.91l-.61.11-1.7.28C12,72.81,10,73.05,7.61,73.18Z"/><path class="cls-2" d="M17,86.51A5,5,0,0,1,11.74,84a11.34,11.34,0,0,1-1.29-3.37s.72-.14,2.09-.47,3.36-.86,5.85-1.68a4.83,4.83,0,0,1,2.9.29,4.45,4.45,0,0,1,1.76,1.59,9.4,9.4,0,0,1,1,1.75,7.61,7.61,0,0,1,.34.86l-.54.3-1.5.79C21.1,84.68,19.25,85.59,17,86.51Z"/><path class="cls-2" d="M11.77,80.24A4.69,4.69,0,0,1,10,80.06a4.13,4.13,0,0,1-1.33-.78A6.92,6.92,0,0,1,7,76.85a8.17,8.17,0,0,1-.61-2.45,10,10,0,0,1-.08-1.09s.74,0,2.12-.11,3.4-.25,6-.69a4.46,4.46,0,0,1,2.83.76,6.08,6.08,0,0,1,1.49,1.85A8.85,8.85,0,0,1,19.62,78l-.58.2-1.6.53C16.07,79.12,14.12,79.7,11.77,80.24Z"/><path class="cls-2" d="M16.94,86.41a4.25,4.25,0,0,1-3.16-.47,5.63,5.63,0,0,1-2.12-2.1,11.34,11.34,0,0,1-1.29-3.37s.72-.14,2.09-.47,3.37-.84,5.86-1.67a5.4,5.4,0,0,1,1.59,0,4.08,4.08,0,0,1,1.31.36A4.36,4.36,0,0,1,23,80.23,10.76,10.76,0,0,1,24,82a8.59,8.59,0,0,1,.34.86l-.54.3-1.51.79C21,84.59,19.15,85.51,16.94,86.41Z"/><path class="cls-2" d="M30.21,95.91a4.23,4.23,0,0,1-3.18.65,6.9,6.9,0,0,1-2.66-1.34,9.29,9.29,0,0,1-1-.92,8.17,8.17,0,0,1-.71-.91,11,11,0,0,1-.58-.94s.63-.37,1.81-1.1c.58-.37,1.3-.83,2.13-1.4s1.81-1.29,2.87-2.1a4.42,4.42,0,0,1,5,.25,8,8,0,0,1,1.52,1.37l.6.71s-.59.68-1.58,1.7S32,94.33,30.21,95.91Z"/><path class="cls-2" d="M23.19,91.71a4.79,4.79,0,0,1-5.64-1.66A11.67,11.67,0,0,1,16.13,88a5.45,5.45,0,0,1-.32-.73L15.72,87s.66-.24,2-.78,3.21-1.41,5.54-2.65a4.34,4.34,0,0,1,2.88-.15,4.56,4.56,0,0,1,2,1.23,15.63,15.63,0,0,1,1.28,1.61,6.6,6.6,0,0,1,.49.77l-.49.39-1.36,1A57,57,0,0,1,23.19,91.71Z"/><path class="cls-2" d="M30.09,95.85a4.17,4.17,0,0,1-3.17.64,6.87,6.87,0,0,1-2.67-1.34,11.74,11.74,0,0,1-1-.92,10.76,10.76,0,0,1-.7-.93,10.1,10.1,0,0,1-.58-.93s.64-.37,1.81-1.1a59.75,59.75,0,0,0,5-3.48,4.4,4.4,0,0,1,5,.26,8.36,8.36,0,0,1,1.52,1.37l.43.53.16.19s-.15.17-.42.47l-1.15,1.22C33.34,92.85,31.89,94.28,30.09,95.85Z"/><path class="cls-2" d="M45.72,100.56a4.33,4.33,0,0,1-2.78,1.61,5.62,5.62,0,0,1-1.53,0A8.15,8.15,0,0,1,40,101.8,11.41,11.41,0,0,1,36.87,100s.49-.56,1.36-1.67,2.14-2.76,3.6-5A4.42,4.42,0,0,1,46.66,92a7.92,7.92,0,0,1,1,.42,6.34,6.34,0,0,1,.86.37,8.6,8.6,0,0,1,.8.44s-.09.21-.24.58l-.7,1.56c-.3.67-.68,1.47-1.13,2.37S46.31,99.53,45.72,100.56Z"/><path class="cls-2" d="M37.71,98.89c-1.88,1.71-4.17,1.15-5.89.29a11.47,11.47,0,0,1-2.71-2.4s.56-.47,1.61-1.4,2.55-2.32,4.34-4.22a4.2,4.2,0,0,1,5-.58,8.53,8.53,0,0,1,2.45,1.65l-.33.52-.94,1.4C40.42,95.35,39.23,97,37.71,98.89Z"/><path class="cls-2" d="M45.59,100.54a4.36,4.36,0,0,1-2.79,1.61,4.63,4.63,0,0,1-1.53,0,7.58,7.58,0,0,1-1.43-.41,10.6,10.6,0,0,1-2.23-1.17,6.33,6.33,0,0,1-.86-.66s.48-.55,1.36-1.65,2.14-2.76,3.61-5a4.68,4.68,0,0,1,2.46-1.51,4.41,4.41,0,0,1,2.37.13,7.37,7.37,0,0,1,1,.41c.32.14.61.25.86.38a7.26,7.26,0,0,1,.8.45l-.25.57c-.16.37-.4.9-.7,1.57s-.68,1.46-1.13,2.36S46.19,99.51,45.59,100.54Z"/><path class="cls-2" d="M61.9,100c-.85,2.33-3.12,3-5,3a11.31,11.31,0,0,1-3.52-.8s.27-.69.74-2,1.14-3.27,1.81-5.79A4.16,4.16,0,0,1,60,91.52a8.58,8.58,0,0,1,2.94.26l-.05.62c0,.4-.08,1-.15,1.69C62.6,95.53,62.34,97.57,61.9,100Z"/><path class="cls-2" d="M53.77,100.89A4.18,4.18,0,0,1,51.29,103a6.83,6.83,0,0,1-3,.09,7.45,7.45,0,0,1-2.39-.78,8.52,8.52,0,0,1-1-.56s.38-.61,1.06-1.82c.34-.6.75-1.34,1.21-2.24s1-2,1.52-3.23a4.41,4.41,0,0,1,4.54-2.17,8.82,8.82,0,0,1,2.87.84s-.05.22-.15.6-.25.93-.43,1.62C55.2,96.7,54.6,98.64,53.77,100.89Z"/><path class="cls-2" d="M61.77,100c-.86,2.3-3.12,3-5.05,3a11.48,11.48,0,0,1-3.52-.81s.28-.68.75-2,1.14-3.27,1.82-5.79a4.21,4.21,0,0,1,4.14-2.86,9,9,0,0,1,2.93.27s0,.22-.05.62-.09,1-.15,1.69C62.48,95.56,62.22,97.6,61.77,100Z"/><path class="cls-2" d="M77,94a4.15,4.15,0,0,1-1.18,3,6.91,6.91,0,0,1-2.58,1.51,11.08,11.08,0,0,1-1.33.36c-.42.06-.82.07-1.16.09-.67,0-1.1,0-1.1,0s0-.73.07-2.12c0-.69,0-1.54,0-2.55s-.09-2.22-.19-3.54a4.39,4.39,0,0,1,3-4.08,8,8,0,0,1,2-.53l.92-.12s.06.22.17.61.23.94.4,1.64C76.24,89.68,76.64,91.67,77,94Z"/><path class="cls-2" d="M69.63,97.62a4.77,4.77,0,0,1-4.47,3.82,10.87,10.87,0,0,1-2.52,0,4.42,4.42,0,0,1-1.08-.19l.11-.52c.08-.34.18-.86.31-1.56.24-1.4.57-3.46.81-6.09a4.37,4.37,0,0,1,1.45-2.48,4.45,4.45,0,0,1,2.14-1,15.61,15.61,0,0,1,2-.19,6.28,6.28,0,0,1,.92,0s0,.22,0,.62.08,1,.14,1.71A57.88,57.88,0,0,1,69.63,97.62Z"/><path class="cls-2" d="M76.87,94.11a4.08,4.08,0,0,1-1.2,3,6.83,6.83,0,0,1-2.58,1.51,9.27,9.27,0,0,1-1.32.35,10.44,10.44,0,0,1-1.16.08,8.24,8.24,0,0,1-1.1,0s0-.73.07-2.11a59.86,59.86,0,0,0-.18-6.09,4.32,4.32,0,0,1,1-2.73,4.82,4.82,0,0,1,.93-.77,5.22,5.22,0,0,1,1-.58,8.52,8.52,0,0,1,2-.52l.92-.11s.06.22.17.61.22.94.39,1.63C76.13,89.75,76.53,91.74,76.87,94.11Z"/><path class="cls-2" d="M89.36,83.61a4.36,4.36,0,0,1-.18,3.2,6,6,0,0,1-.81,1.3,7.35,7.35,0,0,1-1.12,1A11.26,11.26,0,0,1,84,90.68s-.21-.71-.66-2.05-1.13-3.29-2.17-5.71a4.38,4.38,0,0,1,1.49-4.81A16.75,16.75,0,0,1,84.37,77a6.51,6.51,0,0,1,.82-.42l.34.52.92,1.43A58.92,58.92,0,0,1,89.36,83.61Z"/><path class="cls-2" d="M83.57,89.38c.4,2.52-1.31,4.13-3,5.09a11.37,11.37,0,0,1-3.49,1s-.08-.73-.29-2.11-.56-3.41-1.17-6a4.2,4.2,0,0,1,2.25-4.5,8.51,8.51,0,0,1,2.73-1.15l.25.56.66,1.55C82.09,85.18,82.83,87.09,83.57,89.38Z"/><path class="cls-2" d="M89.27,83.7a4.38,4.38,0,0,1-.18,3.21,5.83,5.83,0,0,1-.82,1.3,8.46,8.46,0,0,1-1.12,1,10.94,10.94,0,0,1-2.21,1.22c-.3.13-.56.22-.73.28a1.76,1.76,0,0,1-.29.09s-.2-.71-.64-2-1.13-3.3-2.17-5.73a4.37,4.37,0,0,1,1.5-4.79A16.25,16.25,0,0,1,84.3,77a6.51,6.51,0,0,1,.82-.42l.34.52.92,1.44C87.15,79.81,88.24,81.62,89.27,83.7Z"/><path class="cls-2" d="M97.67,69.71c1.63,2.05.81,4.25-.2,5.88a7.66,7.66,0,0,1-1.71,1.86,10,10,0,0,1-.88.66s-.42-.6-1.25-1.71-2-2.7-3.87-4.68a4.38,4.38,0,0,1-.91-2.78,6.13,6.13,0,0,1,.73-2.26,8.74,8.74,0,0,1,1.89-2.29s.17.14.48.38l1.32,1C94.38,66.72,95.93,68,97.67,69.71Z"/><path class="cls-2" d="M94,77a4.5,4.5,0,0,1,.4,3.23,6.5,6.5,0,0,1-1.58,2.53,8.63,8.63,0,0,1-2,1.59,9.45,9.45,0,0,1-1,.49S89.61,84.22,89,83s-1.66-3.06-3.08-5.29a4.21,4.21,0,0,1-.39-2.86,5.15,5.15,0,0,1,1.06-2.13,8.6,8.6,0,0,1,1.52-1.39,7.51,7.51,0,0,1,.72-.55l.43.45,1.16,1.27C91.36,73.58,92.63,75.12,94,77Z"/><path class="cls-2" d="M97.62,69.83a4.64,4.64,0,0,1,.8,1.56,4,4,0,0,1,.07,1.54,6.93,6.93,0,0,1-1.08,2.79,8.22,8.22,0,0,1-1.72,1.85,10,10,0,0,1-.88.66s-.42-.6-1.25-1.72-2.06-2.71-3.85-4.69A4.44,4.44,0,0,1,88.8,69a5.8,5.8,0,0,1,.74-2.25,8.55,8.55,0,0,1,1.89-2.29l.48.37,1.32,1C94.34,66.84,95.89,68.16,97.62,69.83Z"/><path class="cls-2" d="M101,53.86a4.51,4.51,0,0,1,1.88,2.64,6,6,0,0,1-.16,3,11.28,11.28,0,0,1-.95,2.33,5.55,5.55,0,0,1-.63.91s-.58-.43-1.72-1.21-2.94-1.9-5.27-3.17A4.17,4.17,0,0,1,92.46,56a4.47,4.47,0,0,1-.11-2.37,8.6,8.6,0,0,1,.67-2,6.46,6.46,0,0,1,.37-.83l.59.2,1.63.56C97,52.11,98.82,52.85,101,53.86Z"/><path class="cls-2" d="M100,62a4.34,4.34,0,0,1,1.34,2.91,5.51,5.51,0,0,1-.6,2.93,11.43,11.43,0,0,1-2.11,2.92s-.52-.53-1.54-1.49-2.55-2.36-4.6-4a5.67,5.67,0,0,1-.92-1.3,4,4,0,0,1-.42-1.29,4.39,4.39,0,0,1,.36-2.34,13,13,0,0,1,.9-1.83,7.89,7.89,0,0,1,.53-.75l.55.29,1.49.82C96.24,59.57,98.05,60.63,100,62Z"/><path class="cls-2" d="M101,54a4.52,4.52,0,0,1,1.88,2.65,6.11,6.11,0,0,1-.18,3,11.22,11.22,0,0,1-.94,2.33,8.71,8.71,0,0,1-.64.9s-.58-.43-1.72-1.21-2.93-1.91-5.25-3.19a4.19,4.19,0,0,1-1.69-2.33,4.83,4.83,0,0,1-.1-2.38,8.65,8.65,0,0,1,.68-2c.2-.5.37-.83.37-.83l.6.2,1.63.57C97,52.23,98.82,53,101,54Z"/><path class="cls-2" d="M99.05,37.79a4.31,4.31,0,0,1,2.57,1.91,5.46,5.46,0,0,1,.86,2.87,11.35,11.35,0,0,1-.45,3.57s-.71-.22-2.07-.58-3.37-.86-6-1.32a4.32,4.32,0,0,1-3.2-3.87,14.63,14.63,0,0,1-.06-2,7.73,7.73,0,0,1,.1-.92h2.32C94.6,37.46,96.74,37.52,99.05,37.79Z"/><path class="cls-2" d="M100.69,45.81a3.91,3.91,0,0,1,2.24,2.31,6.86,6.86,0,0,1,.38,3,4.83,4.83,0,0,1-.25,1.35,9.92,9.92,0,0,1-.38,1.1,10.43,10.43,0,0,1-.46,1s-.65-.33-1.91-.91-3.1-1.4-5.63-2.27a4.47,4.47,0,0,1-2.13-2A5.85,5.85,0,0,1,92.14,47a8.73,8.73,0,0,1,.55-2.91l.61.1,1.66.3C96.38,44.74,98.37,45.17,100.69,45.81Z"/><path class="cls-2" d="M99.08,37.92a4.37,4.37,0,0,1,2.58,1.92,6.27,6.27,0,0,1,.64,1.39,6.75,6.75,0,0,1,.2,1.47,11.29,11.29,0,0,1-.45,3.57s-.71-.22-2.07-.58-3.37-.87-6-1.33a4.38,4.38,0,0,1-3.2-3.88,18.23,18.23,0,0,1,0-2,7.37,7.37,0,0,1,.1-.91h.62l1.7,0C94.65,37.57,96.77,37.64,99.08,37.92Z"/><path class="cls-2" d="M91.93,23.24a4.72,4.72,0,0,1,1.75.18,3.84,3.84,0,0,1,1.33.77,6.92,6.92,0,0,1,1.75,2.43,7.93,7.93,0,0,1,.62,2.45,8.4,8.4,0,0,1,.07,1.09s-.73,0-2.12.12-3.38.25-6,.69a4.39,4.39,0,0,1-2.82-.76A5.79,5.79,0,0,1,85,28.37a8.63,8.63,0,0,1-.89-2.84l.57-.2,1.6-.53C87.64,24.36,89.59,23.78,91.93,23.24Z"/><path class="cls-2" d="M96.1,30.28A4.51,4.51,0,0,1,99,31.71a6.57,6.57,0,0,1,1.25,2.71,8.78,8.78,0,0,1,.27,2.5c0,.67-.13,1.1-.13,1.1s-.72-.1-2.09-.25-3.49-.28-6.13-.3a4.28,4.28,0,0,1-2.6-1.24,5.18,5.18,0,0,1-1.2-2,8.33,8.33,0,0,1-.34-2,7.84,7.84,0,0,1-.07-.91l.61-.11,1.7-.28C91.73,30.65,93.72,30.42,96.1,30.28Z"/><path class="cls-2" d="M92,23.35a4.72,4.72,0,0,1,1.75.18,4.39,4.39,0,0,1,1.32.78,6.92,6.92,0,0,1,1.75,2.43,10.07,10.07,0,0,1,.68,3.55s-.73,0-2.12.11-3.4.24-6,.67a4.43,4.43,0,0,1-2.83-.77,5.82,5.82,0,0,1-1.48-1.85,8.83,8.83,0,0,1-.89-2.83l.58-.2,1.6-.53C87.71,24.46,89.67,23.89,92,23.35Z"/><path class="cls-2" d="M80.5,11.78a4.8,4.8,0,0,1,5.64,1.65,11.3,11.3,0,0,1,1.43,2.08,4,4,0,0,1,.32.72l.1.29s-.67.24-2,.79-3.2,1.41-5.54,2.66a4.43,4.43,0,0,1-2.87.14,4.37,4.37,0,0,1-2-1.23,15.63,15.63,0,0,1-1.28-1.6,6.6,6.6,0,0,1-.49-.77l.49-.39,1.35-1c.59-.44,1.31-1,2.12-1.53S79.49,12.4,80.5,11.78Z"/><path class="cls-2" d="M86.76,17.06a4.31,4.31,0,0,1,3.16.46A5.72,5.72,0,0,1,92,19.63,11.34,11.34,0,0,1,93.33,23s-.73.15-2.09.48-3.37.84-5.85,1.67a4.81,4.81,0,0,1-2.9-.3,4.38,4.38,0,0,1-1.76-1.59,9.73,9.73,0,0,1-1-1.75,7.61,7.61,0,0,1-.34-.86l.54-.3,1.5-.79C82.68,18.89,84.54,18,86.76,17.06Z"/><path class="cls-2" d="M80.61,11.86a4.79,4.79,0,0,1,5.64,1.67,11.67,11.67,0,0,1,1.42,2.07,5.18,5.18,0,0,1,.31.73l.1.29s-.68.24-2,.78-3.2,1.41-5.54,2.64a4.24,4.24,0,0,1-2.87.14,4.45,4.45,0,0,1-2-1.23,15.63,15.63,0,0,1-1.28-1.61,8.84,8.84,0,0,1-.49-.77l.49-.39,1.37-1C76.94,14.24,78.59,13.1,80.61,11.86Z"/><path class="cls-2" d="M66,4.62c1.88-1.72,4.17-1.15,5.89-.29a11.08,11.08,0,0,1,2.71,2.39S74,7.19,73,8.12s-2.55,2.33-4.34,4.22a4.19,4.19,0,0,1-5,.59,8.57,8.57,0,0,1-2.46-1.64l.34-.52.93-1.41C63.27,8.17,64.46,6.5,66,4.62Z"/><path class="cls-2" d="M73.58,7.64A4.24,4.24,0,0,1,76.76,7a7,7,0,0,1,2.67,1.35,11.69,11.69,0,0,1,1,.91,10.76,10.76,0,0,1,.7.93,10.1,10.1,0,0,1,.58.93s-.63.37-1.81,1.1c-.58.37-1.3.83-2.13,1.4S76,14.89,74.92,15.7a4.4,4.4,0,0,1-5-.25,8,8,0,0,1-1.52-1.38l-.6-.71.42-.47c.27-.3.66-.7,1.16-1.22C70.34,10.64,71.79,9.22,73.58,7.64Z"/><path class="cls-2" d="M66.11,4.66C68,3,70.28,3.51,72,4.38a11.66,11.66,0,0,1,2.72,2.4s-.57.46-1.62,1.39-2.55,2.33-4.35,4.22a4.2,4.2,0,0,1-5,.57,8.53,8.53,0,0,1-2.45-1.65s.12-.18.34-.51l.94-1.41C63.39,8.2,64.58,6.53,66.11,4.66Z"/><path class="cls-2" d="M49.91,2.64A4.2,4.2,0,0,1,52.39.55a7,7,0,0,1,3-.09,7.45,7.45,0,0,1,2.39.78,8.54,8.54,0,0,1,1,.55s-.38.62-1.06,1.82c-.34.61-.75,1.34-1.21,2.26s-1,2-1.52,3.22c-1.29,2.13-3,2.23-4.54,2.18a8.76,8.76,0,0,1-2-.48c-.53-.2-.87-.36-.87-.36s.06-.22.15-.61l.44-1.61C48.49,6.83,49.08,4.89,49.91,2.64Z"/><path class="cls-2" d="M58.08,3a4.35,4.35,0,0,1,2.78-1.62,5.24,5.24,0,0,1,1.53,0,8.52,8.52,0,0,1,1.44.41,11.33,11.33,0,0,1,3.1,1.83s-.49.56-1.37,1.66S63.42,8,62,10.18a4.69,4.69,0,0,1-2.45,1.51,4.44,4.44,0,0,1-2.38-.12,9.61,9.61,0,0,1-1-.41c-.32-.13-.61-.25-.86-.38a7.26,7.26,0,0,1-.8-.45s.09-.2.25-.57.4-.9.69-1.57.69-1.46,1.14-2.36S57.49,4,58.08,3Z"/><path class="cls-2" d="M50,2.64A4.12,4.12,0,0,1,52.53.56a6.83,6.83,0,0,1,3-.09,7.44,7.44,0,0,1,2.39.79,9.79,9.79,0,0,1,1,.55s-.38.62-1.06,1.82c-.34.6-.75,1.35-1.22,2.24s-1,2-1.52,3.22A4.33,4.33,0,0,1,52.86,11a4.91,4.91,0,0,1-1.19.23,4.59,4.59,0,0,1-1.17,0,8.6,8.6,0,0,1-2.86-.85s0-.21.15-.59.25-.93.43-1.62C48.61,6.82,49.21,4.88,50,2.64Z"/><path class="cls-2" d="M34.06,5.92A4.78,4.78,0,0,1,38.53,2.1a11.45,11.45,0,0,1,2.52-.05,4.27,4.27,0,0,1,1.07.19s0,.17-.11.52-.18.86-.3,1.56c-.24,1.39-.57,3.45-.81,6.08a4.4,4.4,0,0,1-1.45,2.49,4.29,4.29,0,0,1-2.13,1,15.82,15.82,0,0,1-2,.2,8.69,8.69,0,0,1-.92,0s0-.23-.06-.62-.07-1-.13-1.71A57.65,57.65,0,0,1,34.06,5.92Z"/><path class="cls-2" d="M41.9,3.56c.86-2.31,3.12-3,5-3a11.77,11.77,0,0,1,3.53.8s-.28.69-.75,2-1.14,3.27-1.81,5.79A4.2,4.2,0,0,1,43.78,12a9,9,0,0,1-2.94-.27l0-.62c0-.39.09-1,.15-1.69C41.19,8,41.45,5.94,41.9,3.56Z"/><path class="cls-2" d="M34.18,5.88a4.79,4.79,0,0,1,4.48-3.82,11.38,11.38,0,0,1,2.52,0,4,4,0,0,1,.78.12l.3.08-.12.52c-.07.34-.18.84-.3,1.55-.25,1.39-.58,3.45-.83,6.09a4.27,4.27,0,0,1-1.45,2.47,4.46,4.46,0,0,1-2.14,1,15.4,15.4,0,0,1-2,.18,8.69,8.69,0,0,1-.92,0l-.05-.62c0-.4-.08-1-.14-1.71C34.17,10.24,34.11,8.24,34.18,5.88Z"/><path class="cls-2" d="M20.13,14.18c-.41-2.52,1.31-4.12,3-5.09a11.57,11.57,0,0,1,3.49-1s.08.74.29,2.12.57,3.41,1.18,5.94a4.21,4.21,0,0,1-2.24,4.51,8.6,8.6,0,0,1-2.73,1.15l-.25-.56c-.16-.36-.38-.89-.67-1.55C21.61,18.38,20.87,16.48,20.13,14.18Z"/><path class="cls-2" d="M26.81,9.46a4.14,4.14,0,0,1,1.19-3,6.78,6.78,0,0,1,2.58-1.51,11.08,11.08,0,0,1,1.33-.36c.42,0,.82-.07,1.16-.08a8.37,8.37,0,0,1,1.1,0s0,.73-.07,2.11a57.86,57.86,0,0,0,.19,6.1,4.4,4.4,0,0,1-2.95,4.07,8.11,8.11,0,0,1-2,.53l-.92.11-.17-.61c-.09-.38-.22-.94-.39-1.63C27.55,13.81,27.15,11.83,26.81,9.46Z"/><path class="cls-2" d="M20.23,14.09c-.39-2.5,1.31-4.13,3-5.08a11.7,11.7,0,0,1,3.48-1s.09.74.3,2.12.55,3.41,1.16,5.95a4.23,4.23,0,0,1-2.26,4.5,8.51,8.51,0,0,1-2.73,1.15l-.25-.57-.66-1.55C21.7,18.3,21,16.39,20.23,14.09Z"/><path class="cls-2" d="M9.67,26.53a4.47,4.47,0,0,1-.4-3.22,6.52,6.52,0,0,1,1.57-2.54,9.4,9.4,0,0,1,1.95-1.59,9.45,9.45,0,0,1,1-.49s.31.66.94,1.88,1.67,3.07,3.1,5.29a4.27,4.27,0,0,1,.38,2.86,4.91,4.91,0,0,1-1.05,2.13,9.06,9.06,0,0,1-1.52,1.4,8.38,8.38,0,0,1-.71.55l-.44-.45-1.16-1.27C12.36,30,11.09,28.45,9.67,26.53Z"/><path class="cls-2" d="M14.42,19.88a4.33,4.33,0,0,1,.19-3.21,6,6,0,0,1,.81-1.3,7.28,7.28,0,0,1,1.12-1,11.26,11.26,0,0,1,3.22-1.59s.21.71.65,2,1.14,3.29,2.17,5.71a4.36,4.36,0,0,1-1.49,4.8,16.51,16.51,0,0,1-1.68,1.17,8.33,8.33,0,0,1-.82.41s-.13-.18-.35-.52L17.32,25C16.56,23.77,15.46,22,14.42,19.88Z"/><path class="cls-2" d="M9.74,26.42a4.5,4.5,0,0,1-.4-3.23,6.6,6.6,0,0,1,1.59-2.53,8.34,8.34,0,0,1,2-1.58,9.45,9.45,0,0,1,1-.49s.31.66.94,1.89,1.65,3.06,3.08,5.29a4.27,4.27,0,0,1,.38,2.86,5.34,5.34,0,0,1-1.06,2.13,8.26,8.26,0,0,1-1.53,1.39,7.51,7.51,0,0,1-.72.55l-.43-.46L13.37,31C12.43,29.89,11.15,28.34,9.74,26.42Z"/><path class="cls-2" d="M3.72,41.6a4.25,4.25,0,0,1-1.34-2.9,6.05,6.05,0,0,1,.29-2.26,6.8,6.8,0,0,1,.3-.67,11.49,11.49,0,0,1,2.12-2.93s.51.53,1.53,1.49,2.56,2.36,4.61,4a4.88,4.88,0,0,1,1.34,2.59,4.38,4.38,0,0,1-.36,2.34,12,12,0,0,1-.9,1.83,7.41,7.41,0,0,1-.53.76l-.54-.29-1.5-.82C7.49,44,5.69,43,3.72,41.6Z"/><path class="cls-2" d="M6.1,33.76a4.55,4.55,0,0,1-.8-1.56,4,4,0,0,1-.08-1.54A6.74,6.74,0,0,1,6.3,27.88,7.87,7.87,0,0,1,8,26a9.16,9.16,0,0,1,.87-.66s.42.6,1.26,1.72,2,2.7,3.86,4.68a4.36,4.36,0,0,1,.9,2.78,5.9,5.9,0,0,1-.73,2.26,8.74,8.74,0,0,1-1.89,2.29s-.17-.14-.48-.38l-1.32-1.05C9.38,36.75,7.83,35.43,6.1,33.76Z"/><path class="cls-2" d="M3.75,41.47a4.34,4.34,0,0,1-1.34-2.91A5.52,5.52,0,0,1,3,35.63a11.66,11.66,0,0,1,2.11-2.92s.52.53,1.54,1.5,2.55,2.36,4.6,4a5.32,5.32,0,0,1,.91,1.3,4,4,0,0,1,.42,1.28,4.38,4.38,0,0,1-.36,2.34A13.53,13.53,0,0,1,11.33,45a7.41,7.41,0,0,1-.53.76l-.55-.3L8.76,44.6C7.51,43.89,5.69,42.82,3.75,41.47Z"/><path class="cls-2" d="M2.66,57.35A4.56,4.56,0,0,1,.4,52.42c0-.21.07-.42.11-.62s.11-.44.17-.64a9.92,9.92,0,0,1,.38-1.1,9.09,9.09,0,0,1,.46-1s.65.32,1.91.9S6.55,51.33,9,52.27c4.32,2.43,1.27,8,1.27,8Z"/><path class="cls-2" d="M2.76,49.61A4.52,4.52,0,0,1,.88,47a6,6,0,0,1,.17-3A11.22,11.22,0,0,1,2,41.65a6.11,6.11,0,0,1,.64-.9s.58.43,1.71,1.21,2.94,1.9,5.27,3.18a4.15,4.15,0,0,1,1.68,2.32,4.72,4.72,0,0,1,.11,2.38,8.75,8.75,0,0,1-.68,2,9,9,0,0,1-.41.91l-2.19-.84C6.78,51.36,4.92,50.62,2.76,49.61Z"/><rect class="cls-3" x="47.59" y="18.44" width="10.99" height="66.24" transform="translate(-20.91 52.64) rotate(-45)"/><rect class="cls-3" x="19.97" y="46.06" width="66.24" height="10.99" transform="translate(-20.91 52.64) rotate(-45)"/></g></g></svg>