<svg xmlns="http://www.w3.org/2000/svg" width="150.95" height="150.82" viewBox="0 0 150.95 150.82"><defs><style>.cls-1{fill:#634428;}.cls-2{fill:#452e16;stroke:#000;stroke-miterlimit:10;}.cls-3{fill:#e8cb5b;}</style></defs><g id="Layer_2" data-name="Layer 2"><g id="Layer_1-2" data-name="Layer 1"><circle class="cls-1" cx="75.5" cy="75.41" r="66.38"/><path class="cls-2" d="M4.39,84C1,82.45.31,79.08.61,76.3a9.56,9.56,0,0,1,.13-1c.06-.29.13-.58.21-.85A14.87,14.87,0,0,1,1.43,73,11.45,11.45,0,0,1,2,71.68l2.85,1.1c1.89.71,4.65,1.83,8.3,3.16a6.44,6.44,0,0,1,3,3,7.28,7.28,0,0,1,.64,3.4A16.12,16.12,0,0,1,16,86.52l-.89-.14L12.71,86C10.61,85.55,7.74,84.92,4.39,84Z"/><path class="cls-2" d="M11.1,106.79a6.31,6.31,0,0,1-4.2-2.11A9.26,9.26,0,0,1,5,100.77a15,15,0,0,1-.34-3.67,12.67,12.67,0,0,1,.17-1.59s1,.15,3.06.35,5.05.42,8.87.45a6.5,6.5,0,0,1,3.83,1.79,6.78,6.78,0,0,1,1.71,3,11.8,11.8,0,0,1,.56,2.92,11.38,11.38,0,0,1,.08,1.34l-.89.16-2.45.4C17.51,106.22,14.59,106.57,11.1,106.79Z"/><path class="cls-2" d="M6.79,95.67c-3.56-.94-4.87-4.14-5-7a14.89,14.89,0,0,1,0-2c.07-.62.17-1.19.27-1.66a14.76,14.76,0,0,1,.4-1.54s1,.32,3,.85,4.84,1.27,8.66,1.93a6.75,6.75,0,0,1,3.49,2.4,5.81,5.81,0,0,1,.78,1.58,7.46,7.46,0,0,1,.41,1.66,16,16,0,0,1,.06,3,11.86,11.86,0,0,1-.17,1.35h-.9l-2.47,0C13.23,96.18,10.21,96.06,6.79,95.67Z"/><path class="cls-2" d="M11,106.62a6.36,6.36,0,0,1-4.19-2.12,9.44,9.44,0,0,1-1.89-3.93,14.09,14.09,0,0,1-.16-5.25s1.06.15,3.07.36,5,.43,8.86.47a6.29,6.29,0,0,1,5.53,4.8,11.89,11.89,0,0,1,.55,2.93,11.38,11.38,0,0,1,.08,1.34l-.89.15-2.46.4C17.44,106.06,14.5,106.41,11,106.62Z"/><path class="cls-2" d="M24.78,126a6.32,6.32,0,0,1-4.65-.63,9.13,9.13,0,0,1-3.06-3.09,13.4,13.4,0,0,1-1.51-3.35,14.39,14.39,0,0,1-.37-1.55s1-.2,3-.67,4.88-1.23,8.53-2.46a6.32,6.32,0,0,1,6.8,2.73A12.18,12.18,0,0,1,35,119.56c.33.74.51,1.24.51,1.24l-.8.44c-.5.28-1.26.69-2.19,1.17C30.68,123.36,28,124.66,24.78,126Z"/><path class="cls-2" d="M17.11,116.88a6.58,6.58,0,0,1-2.51-.28,6.36,6.36,0,0,1-2-1.11A8.88,8.88,0,0,1,10.1,112a14,14,0,0,1-.93-3.56,9.13,9.13,0,0,1-.11-1.59s1,0,3.09-.16,5-.4,8.82-1a6.34,6.34,0,0,1,6.26,3.8,9.82,9.82,0,0,1,.62,1.49c.17.47.31.92.42,1.31.2.77.28,1.32.28,1.32l-.85.29-2.35.79C23.33,115.28,20.48,116.12,17.11,116.88Z"/><path class="cls-2" d="M24.64,125.85a6.29,6.29,0,0,1-4.64-.64,9,9,0,0,1-3.05-3.1,12.65,12.65,0,0,1-1.5-3.35,11.9,11.9,0,0,1-.37-1.55s1-.2,3-.67c1-.23,2.2-.53,3.63-.92s3.08-.9,4.91-1.51a6.34,6.34,0,0,1,6.79,2.74,13.35,13.35,0,0,1,1.47,2.6l.38.9.12.34-.79.44c-.51.28-1.26.69-2.19,1.16C30.55,123.24,27.87,124.54,24.64,125.85Z"/><path class="cls-2" d="M43.94,139.73c-3.09,2-6.33.77-8.5-1A12.92,12.92,0,0,1,32.93,136a13.37,13.37,0,0,1-.85-1.34s.92-.54,2.64-1.62S38.93,130.34,42,128a7.36,7.36,0,0,1,2.17-.85,5.68,5.68,0,0,1,1.95-.1,7.39,7.39,0,0,1,3.19,1.32,14.77,14.77,0,0,1,2.24,2c.54.61.87,1,.87,1l-.61.68q-.59.66-1.68,1.8C48.68,135.32,46.55,137.45,43.94,139.73Z"/><path class="cls-2" d="M33.73,133.59c-3.41,1.47-6.36-.3-8.22-2.4a15.13,15.13,0,0,1-2-3.06,9.45,9.45,0,0,1-.46-1.06l-.15-.41s1-.36,2.86-1.15,4.63-2,8-3.81a6.37,6.37,0,0,1,4.23-.25,7.18,7.18,0,0,1,2.93,1.82,15.81,15.81,0,0,1,1.89,2.31,11.62,11.62,0,0,1,.69,1.15l-.71.56-2,1.5C39.1,130.07,36.68,131.77,33.73,133.59Z"/><path class="cls-2" d="M43.77,139.64c-3.1,2-6.34.76-8.5-1a16.13,16.13,0,0,1-1.46-1.36c-.41-.48-.76-.93-1-1.33a15,15,0,0,1-.86-1.34s.93-.53,2.65-1.61,4.22-2.71,7.29-5.07A6.73,6.73,0,0,1,46,127a7.4,7.4,0,0,1,3.19,1.33,15.75,15.75,0,0,1,2.23,2c.54.61.87,1,.87,1l-.61.68L50,133.75C48.52,135.24,46.38,137.38,43.77,139.64Z"/><path class="cls-2" d="M66.55,146.47a6.09,6.09,0,0,1-4.06,2.36,7.86,7.86,0,0,1-2.22,0,12.22,12.22,0,0,1-2.1-.55,13.18,13.18,0,0,1-3.25-1.72,14.26,14.26,0,0,1-1.25-1s.7-.81,2-2.4,3.09-3.92,5.23-7.18a6.35,6.35,0,0,1,7-2,10.88,10.88,0,0,1,1.52.56,11.26,11.26,0,0,1,1.24.57,10.48,10.48,0,0,1,1.17.69l-.36.83-1,2.25C69.58,140.8,68.27,143.48,66.55,146.47Z"/><path class="cls-2" d="M54.88,144a6.16,6.16,0,0,1-4.39,1.65,9.31,9.31,0,0,1-4.17-1.25,16.33,16.33,0,0,1-2.92-2.23A13.64,13.64,0,0,1,42.34,141s.82-.67,2.34-2,3.73-3.42,6.35-6.21a6.3,6.3,0,0,1,3.91-1.6,6.89,6.89,0,0,1,3.36.76,13,13,0,0,1,2.53,1.58,11.78,11.78,0,0,1,1,.85l-.49.76L60,137.18C58.81,138.94,57.09,141.31,54.88,144Z"/><path class="cls-2" d="M66.36,146.45a6.65,6.65,0,0,1-1.91,1.65,6.31,6.31,0,0,1-2.15.7,8.73,8.73,0,0,1-4.32-.56,12.68,12.68,0,0,1-3.25-1.73,12.25,12.25,0,0,1-1.25-1s.7-.8,2-2.39,3.1-3.93,5.24-7.17a6.37,6.37,0,0,1,7-2,16.82,16.82,0,0,1,2.75,1.14,12.12,12.12,0,0,1,1.16.68l-.35.83-1,2.26c-.44,1-1,2.11-1.65,3.4S67.22,144.94,66.36,146.45Z"/><path class="cls-2" d="M90.1,145.55A6.36,6.36,0,0,1,87,149.1a9.5,9.5,0,0,1-4.26.87,16.46,16.46,0,0,1-3.63-.57,15.63,15.63,0,0,1-1.49-.56s.4-1,1.08-2.88,1.65-4.79,2.63-8.49A6.49,6.49,0,0,1,84,134.2a6.76,6.76,0,0,1,3.33-.91,12,12,0,0,1,3,.17,13.17,13.17,0,0,1,1.31.26l-.07.9-.22,2.48C91.13,139.18,90.75,142.12,90.1,145.55Z"/><path class="cls-2" d="M78.27,147c-1.78,3.21-5.19,3.69-8,3.15A13.42,13.42,0,0,1,66.83,149a13.23,13.23,0,0,1-1.39-.78s.56-.91,1.55-2.68c.5-.88,1.1-2,1.77-3.3s1.42-2.88,2.21-4.64a7.8,7.8,0,0,1,1.51-1.78,5.78,5.78,0,0,1,1.67-1,7.57,7.57,0,0,1,3.44-.36,15.33,15.33,0,0,1,2.91.67,12.73,12.73,0,0,1,1.26.5s-.08.32-.22.87-.36,1.37-.63,2.38C80.34,140.85,79.48,143.76,78.27,147Z"/><path class="cls-2" d="M89.91,145.6a6.4,6.4,0,0,1-3.09,3.53,9.49,9.49,0,0,1-4.26.86,14.77,14.77,0,0,1-3.63-.59,14.34,14.34,0,0,1-1.49-.55s.4-1,1.09-2.89,1.66-4.78,2.65-8.47a6.3,6.3,0,0,1,6-4.18,12.31,12.31,0,0,1,3,.19c.8.14,1.31.26,1.31.26l-.07.91c0,.57-.11,1.43-.22,2.47C91,139.22,90.57,142.16,89.91,145.6Z"/><path class="cls-2" d="M112.09,137c0,3.67-2.81,5.74-5.5,6.57a12.65,12.65,0,0,1-3.62.64,12.79,12.79,0,0,1-1.59,0s.05-1.06.08-3.1,0-5-.28-8.87a7.06,7.06,0,0,1,.48-2.28,5.43,5.43,0,0,1,1-1.69,7.35,7.35,0,0,1,2.85-2,14.46,14.46,0,0,1,2.87-.81c.81-.12,1.34-.17,1.34-.17l.23.88c.15.57.35,1.37.59,2.39C111,130.63,111.6,133.58,112.09,137Z"/><path class="cls-2" d="M101.37,142.21c-.64,3.66-3.74,5.17-6.52,5.58a14.62,14.62,0,0,1-3.68,0,8.45,8.45,0,0,1-1.56-.28l.16-.77c.11-.5.26-1.25.44-2.26.36-2,.85-5,1.2-8.8a6.44,6.44,0,0,1,2.1-3.67,7.26,7.26,0,0,1,3.13-1.47,16.37,16.37,0,0,1,3-.31,12.06,12.06,0,0,1,1.34.05l.09.9c0,.58.1,1.42.18,2.47C101.35,135.79,101.45,138.74,101.37,142.21Z"/><path class="cls-2" d="M111.92,137.09c0,3.68-2.82,5.74-5.52,6.56a16.11,16.11,0,0,1-1.94.48,16.5,16.5,0,0,1-1.68.15,14.47,14.47,0,0,1-1.59,0s.06-1.07.09-3.11,0-5-.26-8.87a6.72,6.72,0,0,1,1.47-4,7.33,7.33,0,0,1,2.85-1.94,15.28,15.28,0,0,1,2.87-.8c.81-.12,1.34-.17,1.34-.17l.24.89c.13.56.33,1.37.57,2.39C110.82,130.72,111.45,133.68,111.92,137.09Z"/><path class="cls-2" d="M130.09,121.78c1.16,3.49-.79,6.34-3.07,8a13.19,13.19,0,0,1-3.21,1.78,12.66,12.66,0,0,1-1.51.51s-.29-1-.93-3-1.6-4.74-3.15-8.31a6.66,6.66,0,0,1,.09-4.23,5.76,5.76,0,0,1,.9-1.52,7,7,0,0,1,1.17-1.25,15.11,15.11,0,0,1,2.45-1.69,11.67,11.67,0,0,1,1.22-.59l.5.75,1.33,2.08C127,116.11,128.54,118.71,130.09,121.78Z"/><path class="cls-2" d="M121.65,130.19a6.18,6.18,0,0,1-1,4.58,9.44,9.44,0,0,1-3.33,2.81,15.93,15.93,0,0,1-3.46,1.22,13.48,13.48,0,0,1-1.59.23s-.11-1.06-.41-3.06-.83-5-1.74-8.7a6.37,6.37,0,0,1,.8-4.16,6.94,6.94,0,0,1,2.48-2.4,13.3,13.3,0,0,1,2.71-1.26,11,11,0,0,1,1.28-.4l.37.82,1,2.28C119.55,124.13,120.58,126.85,121.65,130.19Z"/><path class="cls-2" d="M130,121.92a6.1,6.1,0,0,1-.26,4.69,8.8,8.8,0,0,1-1.21,1.85,11.6,11.6,0,0,1-1.62,1.45,12.81,12.81,0,0,1-3.22,1.77,13.1,13.1,0,0,1-1.5.5s-.29-1-.92-3-1.59-4.74-3.13-8.31a6.65,6.65,0,0,1,.1-4.23,5.82,5.82,0,0,1,.9-1.53,8.13,8.13,0,0,1,1.17-1.24,16.16,16.16,0,0,1,2.46-1.68,11.67,11.67,0,0,1,1.22-.59l.5.75,1.32,2.08C126.87,116.26,128.42,118.85,130,121.92Z"/><path class="cls-2" d="M142.2,101.55a6.05,6.05,0,0,1,1.28,4.51,8.72,8.72,0,0,1-1.59,4,12.93,12.93,0,0,1-2.47,2.72,9.88,9.88,0,0,1-1.26,1s-.6-.87-1.83-2.5-3.06-4-5.67-6.83a6.36,6.36,0,0,1-.24-7.33,9.91,9.91,0,0,1,.91-1.32,11.76,11.76,0,0,1,.86-1.07,10.44,10.44,0,0,1,1-1l.71.55,1.94,1.53C137.44,97.21,139.72,99.14,142.2,101.55Z"/><path class="cls-2" d="M136.94,112.25a6.25,6.25,0,0,1,.52,4.66,9.33,9.33,0,0,1-2.24,3.72,14.27,14.27,0,0,1-2.89,2.28,13.57,13.57,0,0,1-1.41.73s-.46-1-1.39-2.76-2.4-4.45-4.46-7.68a6.49,6.49,0,0,1-.59-4.18,6.89,6.89,0,0,1,1.59-3.07,11.73,11.73,0,0,1,2.15-2.07,9.84,9.84,0,0,1,1.07-.79l.62.66,1.67,1.84C133,107.17,134.86,109.44,136.94,112.25Z"/><path class="cls-2" d="M142.12,101.73a6.74,6.74,0,0,1,1.14,2.25,6.42,6.42,0,0,1,.14,2.26,9,9,0,0,1-1.6,4.05,13.77,13.77,0,0,1-2.48,2.72,9.87,9.87,0,0,1-1.27,1s-.58-.87-1.82-2.5-3-4-5.65-6.85a6.36,6.36,0,0,1-.22-7.33,16.69,16.69,0,0,1,1.78-2.38,12.73,12.73,0,0,1,1-1l.72.55L135.74,96c.82.67,1.8,1.48,2.89,2.44S140.88,100.52,142.12,101.73Z"/><path class="cls-2" d="M147.06,78.47a6.16,6.16,0,0,1,2.68,3.84,9.24,9.24,0,0,1-.17,4.35A15.6,15.6,0,0,1,148.12,90a9.38,9.38,0,0,1-.89,1.32s-.86-.62-2.53-1.76-4.24-2.76-7.59-4.61a6.31,6.31,0,0,1-2.53-3.39,6.9,6.9,0,0,1-.09-3.46,12.33,12.33,0,0,1,.91-2.84,11.91,11.91,0,0,1,.56-1.22l.86.29,2.35.82C141.15,75.91,143.89,77,147.06,78.47Z"/><path class="cls-2" d="M145.58,90.29a6.3,6.3,0,0,1,2,4.24,9.06,9.06,0,0,1-.92,4.26,13.21,13.21,0,0,1-2,3.09,15,15,0,0,1-1.1,1.16s-.74-.76-2.21-2.16-3.69-3.42-6.72-5.81a6.34,6.34,0,0,1-1.43-7.18,13.81,13.81,0,0,1,1.36-2.65c.45-.68.77-1.1.77-1.1l.81.42c.52.27,1.24.67,2.16,1.19C140.14,86.79,142.72,88.32,145.58,90.29Z"/><path class="cls-2" d="M147.05,78.66a6.29,6.29,0,0,1,2.68,3.85,9.37,9.37,0,0,1-.19,4.35,16.65,16.65,0,0,1-1.45,3.38,13.28,13.28,0,0,1-.91,1.32s-.85-.63-2.52-1.77-4.24-2.78-7.58-4.63a6.41,6.41,0,0,1-2.52-3.4,6.78,6.78,0,0,1-.07-3.46,11.86,11.86,0,0,1,.91-2.84,11.72,11.72,0,0,1,.57-1.22l.86.29,2.34.83C141.14,76.09,143.89,77.19,147.05,78.66Z"/><path class="cls-2" d="M144.19,55.07c3.55.94,4.87,4.14,5,7a16.58,16.58,0,0,1,0,2c-.07.63-.17,1.19-.27,1.67a14.06,14.06,0,0,1-.4,1.53s-1-.31-3-.84-4.84-1.26-8.66-1.92a6.64,6.64,0,0,1-3.49-2.39,6.15,6.15,0,0,1-.79-1.58,7.16,7.16,0,0,1-.4-1.66,16.13,16.13,0,0,1-.07-3,11.86,11.86,0,0,1,.17-1.34h.9l2.46,0C137.74,54.58,140.77,54.69,144.19,55.07Z"/><path class="cls-2" d="M146.6,66.74a6.12,6.12,0,0,1,3.27,3.36,8.93,8.93,0,0,1,.52,4.32,13.4,13.4,0,0,1-.88,3.56,10.84,10.84,0,0,1-.64,1.45s-1-.48-2.81-1.32-4.58-2-8.23-3.32a6.34,6.34,0,0,1-3.69-6.34,15.06,15.06,0,0,1,.43-3,10.13,10.13,0,0,1,.38-1.29l.89.14,2.44.43C140.38,65.17,143.25,65.8,146.6,66.74Z"/><path class="cls-2" d="M144.24,55.26c3.56.94,4.87,4.15,5,7a13.24,13.24,0,0,1,0,2c-.07.63-.16,1.19-.26,1.67a13.25,13.25,0,0,1-.41,1.53s-1-.32-3-.85-4.84-1.27-8.67-1.94a6.65,6.65,0,0,1-3.47-2.4,5.76,5.76,0,0,1-.79-1.59,7.44,7.44,0,0,1-.4-1.66,16,16,0,0,1-.06-3,10.42,10.42,0,0,1,.18-1.35h.9l2.46,0C137.8,54.74,140.82,54.86,144.24,55.26Z"/><path class="cls-2" d="M133.84,33.87a6.07,6.07,0,0,1,4.49,1.39,8.85,8.85,0,0,1,2.52,3.54,13.59,13.59,0,0,1,.94,3.56,9.85,9.85,0,0,1,.12,1.58s-1,0-3.09.17-5,.4-8.82,1a6.34,6.34,0,0,1-6.27-3.79,10.27,10.27,0,0,1-.62-1.49,12.16,12.16,0,0,1-.42-1.31,11.14,11.14,0,0,1-.28-1.32l.85-.3,2.34-.78C127.61,35.49,130.48,34.64,133.84,33.87Z"/><path class="cls-2" d="M139.94,44.11a6.33,6.33,0,0,1,4.2,2.11A9.46,9.46,0,0,1,146,50.14a14.49,14.49,0,0,1,.33,3.67,14.26,14.26,0,0,1-.16,1.59s-1-.15-3.07-.35-5-.43-8.86-.47a6.58,6.58,0,0,1-3.84-1.78,7.05,7.05,0,0,1-1.7-3,11.29,11.29,0,0,1-.55-2.93,10.22,10.22,0,0,1-.09-1.33l.9-.16,2.45-.39C133.52,44.67,136.45,44.33,139.94,44.11Z"/><path class="cls-2" d="M134,34a6.8,6.8,0,0,1,2.51.29,6.47,6.47,0,0,1,2,1.11A8.86,8.86,0,0,1,141,39a13.63,13.63,0,0,1,.93,3.56,9,9,0,0,1,.11,1.58s-1,0-3.09.16-5,.39-8.82,1a6.35,6.35,0,0,1-6.26-3.81,16.11,16.11,0,0,1-1-2.8,11.14,11.14,0,0,1-.28-1.32l.85-.3,2.35-.78c1-.32,2.22-.69,3.62-1.08S132.26,34.42,134,34Z"/><path class="cls-2" d="M117.2,17.18c3.41-1.47,6.36.3,8.23,2.4a14.33,14.33,0,0,1,2,3.05,7.45,7.45,0,0,1,.47,1.06l.15.41s-1,.36-2.86,1.16-4.62,2-8,3.82a6.43,6.43,0,0,1-4.23.25A7.3,7.3,0,0,1,110,27.52a16.21,16.21,0,0,1-1.88-2.31,12.54,12.54,0,0,1-.7-1.16l.71-.56,2-1.5C111.84,20.71,114.25,19,117.2,17.18Z"/><path class="cls-2" d="M126.28,24.89a6.36,6.36,0,0,1,4.65.64A9.13,9.13,0,0,1,134,28.62a13.49,13.49,0,0,1,1.5,3.35,15.06,15.06,0,0,1,.37,1.55s-1.05.21-3,.68-4.88,1.22-8.54,2.44a6.31,6.31,0,0,1-6.79-2.73A13.4,13.4,0,0,1,116,31.32c-.32-.75-.5-1.25-.5-1.25l.79-.44c.51-.27,1.27-.69,2.19-1.16C120.38,27.52,123.06,26.22,126.28,24.89Z"/><path class="cls-2" d="M117.36,17.3c3.41-1.46,6.35.31,8.22,2.41a15.31,15.31,0,0,1,2,3.06,9.78,9.78,0,0,1,.61,1.48s-1,.36-2.86,1.14-4.64,2-8,3.8a6.27,6.27,0,0,1-4.22.24,7,7,0,0,1-2.94-1.82,15.08,15.08,0,0,1-1.88-2.32,10.39,10.39,0,0,1-.69-1.15l.71-.56,2-1.5C112,20.81,114.4,19.12,117.36,17.3Z"/><path class="cls-2" d="M96,6.78c2.73-2.49,6.11-1.78,8.56-.41a15.88,15.88,0,0,1,2.92,2.23,11.23,11.23,0,0,1,1.06,1.2s-.82.68-2.33,2-3.73,3.42-6.34,6.21A6.32,6.32,0,0,1,96,19.64a6.8,6.8,0,0,1-3.37-.76,13.36,13.36,0,0,1-2.53-1.57,11.78,11.78,0,0,1-1-.85l.49-.76,1.37-2.07C92.11,11.86,93.83,9.5,96,6.78Z"/><path class="cls-2" d="M107.13,11.14c3.1-2,6.34-.77,8.5,1a16.45,16.45,0,0,1,1.47,1.37,14.45,14.45,0,0,1,1,1.32A15,15,0,0,1,119,16.2s-.93.53-2.65,1.61-4.21,2.72-7.28,5.08a7.2,7.2,0,0,1-2.18.84,5.67,5.67,0,0,1-2,.1,7.44,7.44,0,0,1-3.19-1.32,15.21,15.21,0,0,1-2.23-2c-.54-.61-.87-1-.87-1l.61-.68c.39-.43.95-1,1.68-1.79C102.4,15.54,104.53,13.41,107.13,11.14Z"/><path class="cls-2" d="M96.22,6.83a6.21,6.21,0,0,1,4.4-1.64,9.36,9.36,0,0,1,4.17,1.26,16.12,16.12,0,0,1,2.91,2.24,14.65,14.65,0,0,1,1.06,1.2s-.83.68-2.34,2-3.74,3.42-6.36,6.2a6.36,6.36,0,0,1-3.91,1.6,6.92,6.92,0,0,1-3.37-.78,12.32,12.32,0,0,1-2.52-1.57,12.09,12.09,0,0,1-1-.85l.49-.76,1.38-2.07C92.28,11.91,94,9.54,96.22,6.83Z"/><path class="cls-2" d="M72.64,3.85c1.79-3.22,5.19-3.7,8-3.16a13.06,13.06,0,0,1,3.49,1.16,14.66,14.66,0,0,1,1.39.77s-.55.91-1.54,2.68-2.4,4.42-4,8A6.7,6.7,0,0,1,76.78,16a7.44,7.44,0,0,1-3.44.37,16.14,16.14,0,0,1-2.91-.67c-.76-.26-1.26-.49-1.26-.49l.22-.88L70,12C70.58,10,71.44,7.07,72.64,3.85Z"/><path class="cls-2" d="M84.54,4.36A6.08,6.08,0,0,1,88.6,2a7.86,7.86,0,0,1,2.22,0,11.07,11.07,0,0,1,2.09.55,12.68,12.68,0,0,1,3.25,1.72,12.55,12.55,0,0,1,1.25,1s-.7.81-2,2.4-3.1,3.92-5.23,7.17a6.35,6.35,0,0,1-7,2,10.29,10.29,0,0,1-1.51-.55c-.47-.2-.89-.39-1.25-.58A10.85,10.85,0,0,1,79.25,15l.35-.83c.24-.52.58-1.29,1-2.25s1-2.11,1.65-3.4S83.68,5.87,84.54,4.36Z"/><path class="cls-2" d="M72.84,3.84C74.63.63,78,.15,80.8.7a13.45,13.45,0,0,1,3.48,1.17,13.23,13.23,0,0,1,1.39.78s-.56.91-1.56,2.68c-.49.88-1.09,2-1.77,3.29s-1.43,2.88-2.21,4.64A7.35,7.35,0,0,1,78.61,15a5.61,5.61,0,0,1-1.67,1,7.56,7.56,0,0,1-3.44.35,16.14,16.14,0,0,1-2.91-.67,11.85,11.85,0,0,1-1.25-.5l.21-.88L70.19,12C70.76,10,71.62,7.05,72.84,3.84Z"/><path class="cls-2" d="M49.55,8.64c.63-3.65,3.73-5.17,6.51-5.58a14.21,14.21,0,0,1,3.68,0,9.63,9.63,0,0,1,1.57.28s-.24,1-.6,3-.85,5-1.19,8.8a6.45,6.45,0,0,1-2.1,3.67,7.4,7.4,0,0,1-3.12,1.47,15.67,15.67,0,0,1-3,.31,11,11,0,0,1-1.35,0l-.08-.9-.19-2.47C49.58,15.06,49.47,12.11,49.55,8.64Z"/><path class="cls-2" d="M61,5.25a6.42,6.42,0,0,1,3.09-3.54A9.49,9.49,0,0,1,68.33.85,15.31,15.31,0,0,1,72,1.43,14.34,14.34,0,0,1,73.45,2s-.4,1-1.09,2.88-1.65,4.79-2.63,8.49a6.3,6.3,0,0,1-6,4.18,12.36,12.36,0,0,1-3-.18c-.8-.13-1.32-.26-1.32-.26l.07-.91c0-.57.11-1.42.22-2.47C60,11.63,60.33,8.69,61,5.25Z"/><path class="cls-2" d="M49.73,8.57c.64-3.65,3.74-5.15,6.53-5.56a14.62,14.62,0,0,1,3.68,0,10.64,10.64,0,0,1,1.14.18l.42.11s-.24,1-.61,3-.85,5-1.21,8.79a6.44,6.44,0,0,1-2.1,3.67,7.18,7.18,0,0,1-3.13,1.46,14.75,14.75,0,0,1-3,.3,10.94,10.94,0,0,1-1.34,0l-.08-.9-.18-2.47C49.74,15,49.64,12.05,49.73,8.57Z"/><path class="cls-2" d="M29.29,20.7c-.59-3.66,1.84-6.09,4.32-7.4a16.27,16.27,0,0,1,3.47-1.23,13.19,13.19,0,0,1,1.58-.23s.12,1.06.42,3.05.84,5,1.74,8.71A6.39,6.39,0,0,1,40,27.76a7,7,0,0,1-2.48,2.4,14,14,0,0,1-2.71,1.27,11,11,0,0,1-1.28.4L33.2,31l-1-2.28C31.39,26.75,30.35,24,29.29,20.7Z"/><path class="cls-2" d="M39,13.78c0-3.67,2.81-5.73,5.5-6.56a16.72,16.72,0,0,1,1.95-.48,16.26,16.26,0,0,1,1.68-.15,14.47,14.47,0,0,1,1.59,0s-.06,1.07-.09,3.1,0,5,.27,8.87a7.12,7.12,0,0,1-.48,2.29,5.63,5.63,0,0,1-1,1.68,7.35,7.35,0,0,1-2.85,1.95,14.37,14.37,0,0,1-2.87.8c-.8.13-1.34.17-1.34.17l-.23-.88c-.15-.56-.35-1.36-.58-2.39C40.09,20.16,39.47,17.2,39,13.78Z"/><path class="cls-2" d="M29.43,20.57a6.23,6.23,0,0,1,1-4.58,9.39,9.39,0,0,1,3.33-2.8A15.65,15.65,0,0,1,37.25,12a13.5,13.5,0,0,1,1.58-.23s.12,1.06.41,3.06.83,5,1.73,8.71a6.42,6.42,0,0,1-.8,4.15,7,7,0,0,1-2.49,2.4A12.69,12.69,0,0,1,35,31.31a11,11,0,0,1-1.28.4l-.37-.82-1-2.28C31.52,26.64,30.49,23.9,29.43,20.57Z"/><path class="cls-2" d="M14,38.65A6.26,6.26,0,0,1,13.49,34a9.26,9.26,0,0,1,2.24-3.73A14.9,14.9,0,0,1,18.61,28,13,13,0,0,1,20,27.25s.45,1,1.39,2.76,2.4,4.45,4.46,7.67a6.47,6.47,0,0,1,.6,4.19,6.93,6.93,0,0,1-1.58,3.07A12.41,12.41,0,0,1,22.75,47a11.87,11.87,0,0,1-1.07.79s-.23-.24-.62-.66L19.39,45.3C18,43.72,16.1,41.46,14,38.65Z"/><path class="cls-2" d="M21,29a6.17,6.17,0,0,1,.25-4.68,8.78,8.78,0,0,1,1.22-1.86A11.59,11.59,0,0,1,24.05,21a13.46,13.46,0,0,1,3.21-1.77,12.94,12.94,0,0,1,1.5-.51s.3,1,.93,3,1.6,4.74,3.14,8.31a6.66,6.66,0,0,1-.09,4.23,5.82,5.82,0,0,1-.9,1.53A7.27,7.27,0,0,1,30.67,37a15.81,15.81,0,0,1-2.46,1.69,11.67,11.67,0,0,1-1.22.59l-.49-.75c-.31-.49-.76-1.2-1.33-2.08C24.07,34.65,22.52,32.05,21,29Z"/><path class="cls-2" d="M14.11,38.49a6.32,6.32,0,0,1-.51-4.67,9.35,9.35,0,0,1,2.25-3.72,14.18,14.18,0,0,1,2.89-2.27,13,13,0,0,1,1.42-.73s.45,1,1.38,2.76,2.39,4.46,4.45,7.69a6.3,6.3,0,0,1-1,7.25,12,12,0,0,1-2.15,2.06,11.82,11.82,0,0,1-1.08.8L21.13,47l-1.67-1.84C18.08,43.57,16.19,41.3,14.11,38.49Z"/><path class="cls-2" d="M5.41,60.62a6.27,6.27,0,0,1-2-4.24,9.05,9.05,0,0,1,.91-4.26,13.63,13.63,0,0,1,2-3.1,11.89,11.89,0,0,1,1.1-1.15s.74.76,2.21,2.16,3.7,3.41,6.72,5.8A6.33,6.33,0,0,1,17.75,63a13.56,13.56,0,0,1-1.35,2.65c-.46.67-.77,1.1-.77,1.1l-.81-.42c-.52-.28-1.25-.67-2.16-1.19C10.84,64.11,8.27,62.58,5.41,60.62Z"/><path class="cls-2" d="M8.84,49.2A6.69,6.69,0,0,1,7.7,46.94a6.14,6.14,0,0,1-.14-2.25,8.76,8.76,0,0,1,1.59-4.06,13.76,13.76,0,0,1,2.47-2.72,10.78,10.78,0,0,1,1.27-1s.59.87,1.83,2.5,3,4,5.66,6.84a6.38,6.38,0,0,1,.23,7.33,11,11,0,0,1-.91,1.32A11.81,11.81,0,0,1,18.83,56a12.73,12.73,0,0,1-.95,1l-.72-.55-1.93-1.53C13.58,53.54,11.31,51.61,8.84,49.2Z"/><path class="cls-2" d="M5.45,60.43c-2.67-2.52-2.3-6-1.09-8.5a13.21,13.21,0,0,1,2-3.09,14,14,0,0,1,1.09-1.16s.75.77,2.21,2.17c.74.7,1.65,1.55,2.76,2.53s2.44,2.09,4,3.29a6.69,6.69,0,0,1,1.92,3.76,7.48,7.48,0,0,1-.5,3.42,14.41,14.41,0,0,1-1.36,2.65c-.45.67-.78,1.1-.78,1.1l-.81-.43c-.51-.27-1.23-.67-2.15-1.19C10.88,63.94,8.29,62.4,5.45,60.43Z"/><path class="cls-2" d="M3.87,83.55C.73,81.78.26,78.86.59,76.38c0-.31.09-.62.15-.91s.15-.64.23-.94a13.73,13.73,0,0,1,.52-1.6,12.7,12.7,0,0,1,.64-1.45s1,.48,2.81,1.32,4.59,2,8.22,3.35C19.45,79.68,15,87.85,15,87.85Z"/><path class="cls-2" d="M4,72.27a6.24,6.24,0,0,1-2.69-3.85,9.47,9.47,0,0,1,.18-4.34A16.41,16.41,0,0,1,2.89,60.7a10.44,10.44,0,0,1,.91-1.32s.85.63,2.52,1.76,4.24,2.77,7.58,4.62a6.34,6.34,0,0,1,2.53,3.39,6.79,6.79,0,0,1,.08,3.46,12,12,0,0,1-.91,2.85,12.42,12.42,0,0,1-.6,1.33l-3.17-1.22C9.86,74.83,7.11,73.74,4,72.27Z"/><path class="cls-3" d="M80.86,34.47a1.26,1.26,0,0,0-.36.27c-.09.1-1,1.71-2,3.59s-1.92,3.55-2,3.73c-.34.54-.32.54-2.11.61l-1.59.07-.34-.17c-.34-.17-.37-.22-2.67-3.52-1.28-1.85-2.39-3.45-2.48-3.56a1.06,1.06,0,0,0-.84-.41c-.28,0-7.54,2.42-7.79,2.59s-.45.57-.38,1.51l.52,6.61.08,1-.19.37c-.18.35-.24.41-1.5,1.28a14.51,14.51,0,0,1-1.54,1c-.53.16-.6.14-4.73-1.58s-4.12-1.71-4.62-1.49c-.25.12-5,6.05-5.12,6.36a.85.85,0,0,0,0,.5c.06.16,1,1.43,2.59,3.54,2.17,2.87,2.51,3.35,2.57,3.62s.09.42-.74,2.41c-.74,1.78-.91,2-1.41,2.21-.15,0-2.08.42-4.31.82-4.24.76-4.26.77-4.54,1.15s-1.16,8.14-.89,8.3c0,0,1.88.71,4.09,1.52s4.11,1.53,4.22,1.59c.42.25.52.52.9,2.65.2,1.09.36,2.11.36,2.28a1.32,1.32,0,0,1-.15.59,36,36,0,0,1-3.15,3.07c-1.67,1.55-3.08,2.9-3.15,3a1,1,0,0,0-.12.52c0,.3.16.63,1.64,3.5.91,1.74,1.72,3.25,1.82,3.35a1.09,1.09,0,0,0,.43.25c.25.07.56,0,4.29-.83,4.2-1,4.35-1,4.81-.75a41,41,0,0,1,3.42,3.53c.24.45.23.57-.42,3.13-1.51,5.89-1.48,5.76-1.4,6a1.23,1.23,0,0,0,.22.41c.08.09,1.56,1,3.28,1.93,2.85,1.6,3.17,1.77,3.44,1.77a1.18,1.18,0,0,0,.49-.12c.11-.07,1.47-1.43,3.05-3s3-3,3.09-3c.47-.25.6-.24,2.95.29,1.21.27,2.28.53,2.36.59.45.29.47.35,1.84,4.46,1.29,3.87,1.33,4,1.57,4.19a1.24,1.24,0,0,0,.5.27,46.4,46.4,0,0,0,6.55-.42c1-.13,1.27-.24,1.45-.72.06-.16.49-2.07.94-4.25.55-2.61.88-4,1-4.18.25-.4.44-.49,2.39-1.24,2.12-.81,2.39-.86,2.86-.61.11.06,1.59,1.22,3.27,2.58s3.15,2.53,3.26,2.59a.8.8,0,0,0,.54.09c.32,0,.39-.07,2.24-1.46a50,50,0,0,0,4.22-3.28,1.05,1.05,0,0,0,.15-.49c0-.28-.1-.65-1.46-4.22-.82-2.16-1.51-4-1.52-4.14-.06-.45.08-.72,1.11-2.13.55-.76,1.07-1.44,1.14-1.52a1.33,1.33,0,0,1,1-.41c.18,0,2.1.19,4.26.43l3.93.42.28-.12a1.38,1.38,0,0,0,.38-.25c.09-.1,2.34-6.13,2.71-7.26a1,1,0,0,0-.27-1.11c-.13-.13-1.72-1.33-3.54-2.67-3.26-2.39-3.3-2.43-3.46-2.78l-.16-.35.07-1.38c.11-1.81.12-1.89.36-2.24s.34-.36,3.93-2.16c2.06-1,3.79-1.92,3.85-2a1.43,1.43,0,0,0,.35-.72c0-.27-1.67-7.81-1.77-8a1.12,1.12,0,0,0-.34-.35c-.27-.18,0-.16-6.5-.57-2.5-.17-2.55-.18-2.93-.54a13.74,13.74,0,0,1-1.47-2.78,1.2,1.2,0,0,1,0-.54c0-.15,1-1.86,2.19-3.81,2-3.39,2.11-3.56,2.11-3.87a1.4,1.4,0,0,0-.09-.47c-.08-.16-5.46-5.68-5.77-5.92a1.1,1.1,0,0,0-.51-.15l-.37,0-3.62,2c-2,1.1-3.74,2-3.88,2.1-.44.15-.73.06-1.92-.61s-1.34-.77-1.52-1.14-.17-.24-.32-4.82c-.13-3.79-.13-3.92-.28-4.21-.23-.48.24-.34-6.31-1.9-1.11-.25-2.08-.47-2.16-.47A1,1,0,0,0,80.86,34.47ZM77.39,60.06a16,16,0,0,1,3.08.69A15.65,15.65,0,0,1,90.83,72.39a12.78,12.78,0,0,1,.29,3.12,11.33,11.33,0,0,1-.19,2.65,15.59,15.59,0,0,1-8.44,11.36,15.33,15.33,0,0,1-5.19,1.55,25,25,0,0,1-3.67,0,15.61,15.61,0,0,1,.61-31A23.63,23.63,0,0,1,77.39,60.06Z"/></g></g></svg>