<svg xmlns="http://www.w3.org/2000/svg" width="336.63" height="99.8" viewBox="0 0 336.63 99.8"><defs><style>.cls-1{fill:#479e62;}.cls-2{isolation:isolate;}.cls-3{fill:#452e16;stroke:#000;stroke-miterlimit:10;stroke-width:0.8px;}</style></defs><g id="Layer_2" data-name="Layer 2"><g id="Layer_1-2" data-name="Layer 1"><path class="cls-1" d="M286.86,93.49H49.68A43.7,43.7,0,0,1,6.09,49.9h0A43.71,43.71,0,0,1,49.68,6.3H286.94a43.72,43.72,0,0,1,43.6,43.6h0A43.83,43.83,0,0,1,286.86,93.49Z"/><g class="cls-2"><path d="M98.53,64.55V32.08H93.08V26.67h15.47a40.25,40.25,0,0,1,10.21,1A10.17,10.17,0,0,1,124.45,32a14.11,14.11,0,0,1,2.28,8,14.31,14.31,0,0,1-1.51,6.65A10.7,10.7,0,0,1,121.49,51a13.64,13.64,0,0,1-5,1.89,54.13,54.13,0,0,1-8.43.48h-3V64.55h5.6V70H93.08V64.55Zm6.54-16.37h3.73c4.26,0,7.2-.61,8.84-1.82s2.46-3.36,2.46-6.43a8.5,8.5,0,0,0-1.3-4.86,5.83,5.83,0,0,0-3.24-2.46,27.52,27.52,0,0,0-6.45-.53h-4Z"/><path d="M134.86,64.55V32.08h-5.6V26.67H147v5.41h-5.32V64.55h13.26V49.83H161V70H129.26V64.55Z"/><path d="M191.79,54.75h-15.6l-3.32,9.8h5.26V70H161.07V64.55h5.24l11.83-33H172.9V26.67H195v4.88h-5.42l12.12,33h4.85V70h-17V64.55H195Zm-1.64-5.08-5.76-18.12h-.59l-6,18.12Z"/><path d="M220.44,64.55V50.26L207.55,32.08h-5.29V26.67h17.81v5.41h-5.46l9.57,13.39,8.73-13.39h-5.43V26.67h17.24v5.41H239L227,50.26V64.55h5.91V70H214.62V64.55Z"/></g><path class="cls-3" d="M280.55,89.31c2.81-5,9.27-1.47,9.27-1.47l-3.4,8.87c-2.8,5-9.27,1.47-9.27,1.47Z"/><path class="cls-3" d="M263,89.31c2.81-5,9.27-1.47,9.27-1.47l-3.4,8.87c-2.8,5-9.27,1.47-9.27,1.47Z"/><path class="cls-3" d="M271.77,89.31c2.81-5,9.27-1.47,9.27-1.47l-3.4,8.87c-2.8,5-9.27,1.47-9.27,1.47S269.82,94.42,271.77,89.31Z"/><path class="cls-3" d="M263.15,89.31c2.81-5,9.27-1.47,9.27-1.47L269,96.71c-2.8,5-9.27,1.47-9.27,1.47S261.2,94.42,263.15,89.31Z"/><path class="cls-3" d="M245.61,89.31c2.81-5,9.27-1.47,9.27-1.47l-3.4,8.87c-2.8,5-9.27,1.47-9.27,1.47Z"/><path class="cls-3" d="M254.38,89.31c2.8-5,9.26-1.47,9.26-1.47l-3.4,8.87c-2.8,5-9.27,1.47-9.27,1.47S252.42,94.42,254.38,89.31Z"/><path class="cls-3" d="M245.76,89.31c2.8-5,9.26-1.47,9.26-1.47l-3.4,8.87c-2.8,5-9.27,1.47-9.27,1.47S243.8,94.42,245.76,89.31Z"/><path class="cls-3" d="M228.21,89.31c2.81-5,9.27-1.47,9.27-1.47l-3.4,8.87c-2.8,5-9.27,1.47-9.27,1.47Z"/><path class="cls-3" d="M237,89.31c2.8-5,9.27-1.47,9.27-1.47s-1.2,3.1-3.41,8.87c-2.8,5-9.27,1.47-9.27,1.47S235,94.42,237,89.31Z"/><path class="cls-3" d="M228.36,89.31c2.8-5,9.26-1.47,9.26-1.47l-3.4,8.87c-2.8,5-9.27,1.47-9.27,1.47S226.4,94.42,228.36,89.31Z"/><path class="cls-3" d="M210.81,89.31c2.81-5,9.27-1.47,9.27-1.47l-3.4,8.87c-2.8,5-9.27,1.47-9.27,1.47Z"/><path class="cls-3" d="M219.58,89.31c2.8-5,9.27-1.47,9.27-1.47l-3.41,8.87c-2.8,5-9.27,1.47-9.27,1.47S217.62,94.42,219.58,89.31Z"/><path class="cls-3" d="M211,89.31c2.8-5,9.27-1.47,9.27-1.47s-1.2,3.1-3.41,8.87c-2.8,5-9.27,1.47-9.27,1.47S209,94.42,211,89.31Z"/><path class="cls-3" d="M193.42,89.31c2.8-5,9.26-1.47,9.26-1.47l-3.4,8.87c-2.8,5-9.27,1.47-9.27,1.47S191.46,94.42,193.42,89.31Z"/><path class="cls-3" d="M202.18,89.31c2.81-5,9.27-1.47,9.27-1.47L208,96.71c-2.8,5-9.27,1.47-9.27,1.47S200.22,94.42,202.18,89.31Z"/><path class="cls-3" d="M193.56,89.31c2.81-5,9.27-1.47,9.27-1.47l-3.41,8.87c-2.8,5-9.27,1.47-9.27,1.47S191.6,94.42,193.56,89.31Z"/><path class="cls-3" d="M176,89.31c2.8-5,9.26-1.47,9.26-1.47l-3.4,8.87c-2.8,5-9.27,1.47-9.27,1.47S174.06,94.42,176,89.31Z"/><path class="cls-3" d="M184.78,89.31c2.81-5,9.27-1.47,9.27-1.47l-3.41,8.87c-2.8,5-9.27,1.47-9.27,1.47S182.82,94.42,184.78,89.31Z"/><path class="cls-3" d="M176.16,89.31c2.81-5,9.27-1.47,9.27-1.47L182,96.71c-2.8,5-9.27,1.47-9.27,1.47S174.2,94.42,176.16,89.31Z"/><path class="cls-3" d="M158.62,89.31c2.8-5,9.27-1.47,9.27-1.47s-1.2,3.1-3.41,8.87c-2.8,5-9.27,1.47-9.27,1.47S156.66,94.42,158.62,89.31Z"/><path class="cls-3" d="M167.38,89.31c2.81-5,9.27-1.47,9.27-1.47l-3.41,8.87c-2.8,5-9.27,1.47-9.27,1.47S165.42,94.42,167.38,89.31Z"/><path class="cls-3" d="M158.76,89.31c2.81-5,9.27-1.47,9.27-1.47l-3.41,8.87c-2.8,5-9.27,1.47-9.27,1.47S156.8,94.42,158.76,89.31Z"/><path class="cls-3" d="M141.22,89.31c2.8-5,9.27-1.47,9.27-1.47l-3.41,8.87c-2.8,5-9.27,1.47-9.27,1.47S139.26,94.42,141.22,89.31Z"/><path class="cls-3" d="M150,89.31c2.81-5,9.27-1.47,9.27-1.47l-3.41,8.87c-2.79,5-9.27,1.47-9.27,1.47S148,94.42,150,89.31Z"/><path class="cls-3" d="M141.36,89.31c2.81-5,9.27-1.47,9.27-1.47l-3.41,8.87c-2.79,5-9.27,1.47-9.27,1.47S139.4,94.42,141.36,89.31Z"/><path class="cls-3" d="M123.82,89.31c2.81-5,9.27-1.47,9.27-1.47l-3.41,8.87c-2.8,5-9.27,1.47-9.27,1.47S121.86,94.42,123.82,89.31Z"/><path class="cls-3" d="M132.58,89.31c2.81-5,9.27-1.47,9.27-1.47l-3.41,8.87c-2.79,5-9.26,1.47-9.26,1.47Z"/><path class="cls-3" d="M124,89.31c2.81-5,9.27-1.47,9.27-1.47l-3.41,8.87c-2.79,5-9.26,1.47-9.26,1.47Z"/><path class="cls-3" d="M106.42,89.31c2.81-5,9.27-1.47,9.27-1.47l-3.41,8.87c-2.8,5-9.27,1.47-9.27,1.47S104.46,94.42,106.42,89.31Z"/><path class="cls-3" d="M115.18,89.31c2.81-5,9.27-1.47,9.27-1.47l-3.4,8.87c-2.8,5-9.27,1.47-9.27,1.47Z"/><path class="cls-3" d="M106.56,89.31c2.81-5,9.27-1.47,9.27-1.47l-3.41,8.87c-2.79,5-9.26,1.47-9.26,1.47Z"/><path class="cls-3" d="M89,89.31c2.81-5,9.27-1.47,9.27-1.47l-3.41,8.87c-2.79,5-9.27,1.47-9.27,1.47S87.06,94.42,89,89.31Z"/><path class="cls-3" d="M97.78,89.31c2.81-5,9.27-1.47,9.27-1.47l-3.4,8.87c-2.8,5-9.27,1.47-9.27,1.47Z"/><path class="cls-3" d="M89.16,89.31c2.81-5,9.27-1.47,9.27-1.47L95,96.71c-2.8,5-9.27,1.47-9.27,1.47Z"/><path class="cls-3" d="M71.62,89.31c2.81-5,9.27-1.47,9.27-1.47l-3.41,8.87c-2.79,5-9.26,1.47-9.26,1.47Z"/><path class="cls-3" d="M80.38,89.31c2.81-5,9.27-1.47,9.27-1.47l-3.4,8.87c-2.8,5-9.27,1.47-9.27,1.47Z"/><path class="cls-3" d="M71.76,89.31c2.81-5,9.27-1.47,9.27-1.47l-3.4,8.87c-2.8,5-9.27,1.47-9.27,1.47Z"/><path class="cls-3" d="M54.22,89.31c2.81-5,9.27-1.47,9.27-1.47l-3.41,8.87c-2.79,5-9.26,1.47-9.26,1.47Z"/><path class="cls-3" d="M63,89.31c2.81-5,9.27-1.47,9.27-1.47l-3.4,8.87c-2.8,5-9.27,1.47-9.27,1.47Z"/><path class="cls-3" d="M54.36,89.31c2.81-5,9.27-1.47,9.27-1.47l-3.4,8.87c-2.8,5-9.27,1.47-9.27,1.47Z"/><path class="cls-3" d="M38.23,87.59a5.09,5.09,0,0,1,2.85-1.69,4.55,4.55,0,0,1,1.33,0,4.77,4.77,0,0,1,1.25.24,8.62,8.62,0,0,1,2,1c.26.18.48.28.63.38l.23.15s-.31.77-1,2.23-1.73,3.49-3.36,6.16a5.43,5.43,0,0,1-1.56,1.28,4.85,4.85,0,0,1-.86.35,5.25,5.25,0,0,1-.87.14,8,8,0,0,1-3.42-.61A10,10,0,0,1,33,95.66a10.87,10.87,0,0,1-.94-.85l.52-.54c.33-.34.8-.84,1.37-1.47A65.55,65.55,0,0,0,38.23,87.59Z"/><path class="cls-3" d="M46,89.12a5.08,5.08,0,0,1,2.46-2.23,4.17,4.17,0,0,1,1.31-.25,7.66,7.66,0,0,1,1.52,0,11.35,11.35,0,0,1,3.58,1.15l-3.4,8.87a5.46,5.46,0,0,1-1.2,1.5,3.67,3.67,0,0,1-1.54.8,7.79,7.79,0,0,1-3.46.09,5.94,5.94,0,0,1-1.53-.46,13.1,13.1,0,0,1-1.22-.57,10.91,10.91,0,0,1-1.09-.65l.4-.62c.26-.4.62-1,1-1.72A63.85,63.85,0,0,0,46,89.12Z"/><path class="cls-3" d="M38.36,87.62a5,5,0,0,1,2.84-1.69,5.3,5.3,0,0,1,1.32,0,4.77,4.77,0,0,1,1.26.24,8.62,8.62,0,0,1,2,1c.53.29.86.52.86.52s-.31.76-1,2.23a69,69,0,0,1-3.34,6.17,5.3,5.3,0,0,1-1.56,1.28,4.81,4.81,0,0,1-.85.36,4.38,4.38,0,0,1-.88.15,8.08,8.08,0,0,1-3.42-.61,6.31,6.31,0,0,1-1.41-.75,12.4,12.4,0,0,1-1.07-.8,10.87,10.87,0,0,1-.94-.85l.52-.53c.32-.35.79-.84,1.36-1.48A65.17,65.17,0,0,0,38.36,87.62Z"/><path class="cls-3" d="M24.49,80.14a5.33,5.33,0,0,1,3.29-.45,4,4,0,0,1,1.23.53,8.59,8.59,0,0,1,1.06.72,8.31,8.31,0,0,1,1.49,1.7c.17.26.32.47.42.61l.16.23-.44.43c-.3.27-.75.71-1.33,1.21a67.33,67.33,0,0,1-5.52,4.37,5.2,5.2,0,0,1-1.93.58,4.58,4.58,0,0,1-1.78-.24A7.84,7.84,0,0,1,18.22,88,12.82,12.82,0,0,1,16,84.42l.68-.3c.44-.19,1.07-.47,1.84-.83C20.09,82.57,22.2,81.5,24.49,80.14Z"/><path class="cls-3" d="M31,84.59a5.11,5.11,0,0,1,3.13-1.1,4.24,4.24,0,0,1,1.3.28,5.2,5.2,0,0,1,1.19.48,8.16,8.16,0,0,1,1.79,1.38c.46.4.74.69.74.69s-.45.68-1.41,2a66.37,66.37,0,0,1-4.52,5.37,4.61,4.61,0,0,1-3.57,1.08,8,8,0,0,1-3.23-1.26,11,11,0,0,1-2.12-2,10.74,10.74,0,0,1-.75-1L24.2,90c.39-.27.95-.66,1.64-1.17C27.21,87.83,29.06,86.39,31,84.59Z"/><path class="cls-3" d="M24.59,80.23a5.07,5.07,0,0,1,3.29-.46,3.6,3.6,0,0,1,1.22.52,6.62,6.62,0,0,1,1.07.71,9,9,0,0,1,1.5,1.7c.17.27.33.45.43.6l.15.23s-.59.59-1.77,1.66A66.31,66.31,0,0,1,25,89.57c-2.66,1.42-5,0-6.63-1.5a12.85,12.85,0,0,1-1.68-2.41,12.26,12.26,0,0,1-.54-1.14l.69-.29c.43-.19,1.06-.47,1.83-.84C20.19,82.66,22.31,81.59,24.59,80.23Z"/><path class="cls-3" d="M14.71,67.94a5.51,5.51,0,0,1,3.18.87,3.86,3.86,0,0,1,.95.94c.25.35.45.74.66,1.09A9.32,9.32,0,0,1,20.44,74s-.75.29-2.24.8a70.62,70.62,0,0,1-6.8,1.93A4.6,4.6,0,0,1,7.87,75.6a7.39,7.39,0,0,1-1.18-1.32,8.23,8.23,0,0,1-.46-.74,6.07,6.07,0,0,1-.32-.8,12.7,12.7,0,0,1-.71-4.11s1,0,2.77-.06S12.06,68.32,14.71,67.94Z"/><path class="cls-3" d="M19,74.57a5.35,5.35,0,0,1,3.3.21,6,6,0,0,1,2,1.67,8.44,8.44,0,0,1,1.14,2l.4.95s-.71.48-2.05,1.25a69.57,69.57,0,0,1-6.27,3.22,5.29,5.29,0,0,1-2,.19,5,5,0,0,1-1.68-.59A7.16,7.16,0,0,1,11.36,81a12.85,12.85,0,0,1-1.5-3.89L10.6,77c.46-.1,1.13-.25,2-.46C14.22,76.1,16.51,75.46,19,74.57Z"/><path class="cls-3" d="M14.76,68.06a5.52,5.52,0,0,1,3.19.85,3.86,3.86,0,0,1,.95.94,5.14,5.14,0,0,1,.35.55,6,6,0,0,1,.33.54,9,9,0,0,1,.76,2.12c.06.31.11.57.13.75s.05.28.05.28l-.57.22-1.67.59a69.06,69.06,0,0,1-6.79,1.95,4.74,4.74,0,0,1-2-.21A5,5,0,0,1,8,75.73a6.62,6.62,0,0,1-1.17-1.31A5.75,5.75,0,0,1,6,72.89a12.92,12.92,0,0,1-.72-4.11H6c.48,0,1.17,0,2-.07C9.74,68.62,12.12,68.44,14.76,68.06Z"/><path class="cls-3" d="M10.43,52.94a6,6,0,0,1,1.56.93A4.22,4.22,0,0,1,13,55a4.85,4.85,0,0,1,.68,2.5,9.12,9.12,0,0,1-.34,3.25s-.8,0-2.38-.13a68.25,68.25,0,0,1-7-.86,4.7,4.7,0,0,1-2.79-2.43,6.38,6.38,0,0,1-.69-3.4A13.09,13.09,0,0,1,1,51a9.66,9.66,0,0,1,.43-1.18s1,.42,2.58,1S7.84,52.25,10.43,52.94Z"/><path class="cls-3" d="M11.83,60.71a6.11,6.11,0,0,1,1.71.59,4.51,4.51,0,0,1,1.23.88,5.22,5.22,0,0,1,1.17,2.32,9.2,9.2,0,0,1,.31,3.26s-.79.14-2.35.35a68.84,68.84,0,0,1-7.06.56,4.58,4.58,0,0,1-3.23-1.81,6.48,6.48,0,0,1-.9-1.52,6.26,6.26,0,0,1-.31-.82c-.06-.28-.11-.57-.15-.85a12.86,12.86,0,0,1-.07-2.93c0-.38.08-.69.11-.9a2.07,2.07,0,0,1,.07-.34s1,.22,2.73.49S9.15,60.56,11.83,60.71Z"/><path class="cls-3" d="M10.44,53.06A6.57,6.57,0,0,1,12,54a4.11,4.11,0,0,1,1,1.11,5.07,5.07,0,0,1,.69,2.5,9.12,9.12,0,0,1-.34,3.25s-.8,0-2.38-.12a67.17,67.17,0,0,1-7-.85,5.34,5.34,0,0,1-1-.41,4.86,4.86,0,0,1-.76-.57,5,5,0,0,1-1.08-1.43,7.11,7.11,0,0,1-.58-1.68,8.11,8.11,0,0,1-.14-.86c0-.29,0-.58,0-.86A13.1,13.1,0,0,1,1.4,50l.69.29c.45.17,1.09.43,1.89.72A66.28,66.28,0,0,0,10.44,53.06Z"/><path class="cls-3" d="M12.33,37.45a5.61,5.61,0,0,1,1.6,2.88,5.39,5.39,0,0,1-.35,2.57A9.07,9.07,0,0,1,12,45.76s-.73-.33-2.13-1a69.36,69.36,0,0,1-6.14-3.55,4.59,4.59,0,0,1-1.63-3.32,6.55,6.55,0,0,1,.13-1.77,6.21,6.21,0,0,1,.21-.85,6.86,6.86,0,0,1,.35-.78A12.82,12.82,0,0,1,4.38,32,6.73,6.73,0,0,1,5,31.32a2.12,2.12,0,0,1,.24-.24s.73.77,2,2S10.22,35.8,12.33,37.45Z"/><path class="cls-3" d="M10.59,45.15a5.61,5.61,0,0,1,2.15,2.51,5.34,5.34,0,0,1,.17,2.59,9.21,9.21,0,0,1-1,3.12s-.78-.17-2.3-.59A70.23,70.23,0,0,1,2.9,50.53a5.57,5.57,0,0,1-.87-.6,4.17,4.17,0,0,1-.63-.71A4.93,4.93,0,0,1,.63,47.6,6.89,6.89,0,0,1,.4,45.85a5.39,5.39,0,0,1,.22-1.71,12.68,12.68,0,0,1,1.74-3.79l.62.41c.4.27,1,.64,1.7,1.1C6.14,42.76,8.19,44,10.59,45.15Z"/><path class="cls-3" d="M12.29,37.57a5.51,5.51,0,0,1,1.6,2.88,3.71,3.71,0,0,1,0,1.33c-.08.43-.22.84-.32,1.24A9.07,9.07,0,0,1,12,45.88s-.73-.33-2.13-1S6.35,43,3.69,41.33A4.56,4.56,0,0,1,2,38a6.9,6.9,0,0,1,.12-1.76,5.66,5.66,0,0,1,.55-1.64,12.87,12.87,0,0,1,2.46-3.37l.53.53c.34.34.83.82,1.45,1.41C8.4,34.35,10.17,35.93,12.29,37.57Z"/><path class="cls-3" d="M20.16,23.93a6.19,6.19,0,0,1,.42,1.76,5,5,0,0,1-.1,1.51,4.64,4.64,0,0,1-1.33,2.23,9.17,9.17,0,0,1-2.57,2S16,30.87,15,29.66A69.64,69.64,0,0,1,10.74,24a4.78,4.78,0,0,1-.2-3.69,7.08,7.08,0,0,1,.79-1.58,6.77,6.77,0,0,1,1.17-1.27,13.35,13.35,0,0,1,2.41-1.65,5.3,5.3,0,0,1,.84-.37l.33-.11.27.68c.16.43.41,1.05.77,1.85C17.81,19.42,18.84,21.58,20.16,23.93Z"/><path class="cls-3" d="M15.54,30.35A6.16,6.16,0,0,1,16.3,32a4.28,4.28,0,0,1,.22,1.49,5.17,5.17,0,0,1-.85,2.45,9.3,9.3,0,0,1-2.13,2.49S12.89,38,11.65,37a67.78,67.78,0,0,1-5.31-4.69,5.36,5.36,0,0,1-.56-.9,3.74,3.74,0,0,1-.3-.89,5.15,5.15,0,0,1-.08-1.79,6.49,6.49,0,0,1,1.35-3.19,12.77,12.77,0,0,1,2.06-2.09,8.85,8.85,0,0,1,.72-.54l.3-.18.4.62c.26.39.65,1,1.14,1.67C12.36,26.4,13.79,28.32,15.54,30.35Z"/><path class="cls-3" d="M20.07,24a5.58,5.58,0,0,1,.42,1.76,4.38,4.38,0,0,1-.08,1.51,4.82,4.82,0,0,1-1.32,2.24,9,9,0,0,1-2.57,2S16,31,15,29.77s-2.5-3-4.29-5.65a4.66,4.66,0,0,1-.21-3.69,6.32,6.32,0,0,1,2-2.86,13,13,0,0,1,2.4-1.65A5,5,0,0,1,16,15.43l.26.67c.17.43.44,1.07.79,1.86C17.72,19.53,18.75,21.69,20.07,24Z"/><path class="cls-3" d="M32.59,14.46a5.93,5.93,0,0,1-.28,1.81,5.81,5.81,0,0,1-.69,1.31,4.46,4.46,0,0,1-2.07,1.58l-1.12.44a8.56,8.56,0,0,1-1,.27,7.25,7.25,0,0,1-1,.17s-.27-.76-.75-2.27a65.09,65.09,0,0,1-1.77-6.87A5.49,5.49,0,0,1,28,5.54a11.82,11.82,0,0,1,2.85-.61,11.17,11.17,0,0,1,1.28,0s0,.26,0,.73,0,1.14,0,2C32.15,9.36,32.28,11.79,32.59,14.46Z"/><path class="cls-3" d="M25.86,18.61a4.72,4.72,0,0,1-2.06,5.2A9,9,0,0,1,21.86,25a9.54,9.54,0,0,1-1,.36s-.42-.69-1.18-2.08a69.78,69.78,0,0,1-3.1-6.4,4.84,4.84,0,0,1,.53-3.65,6.72,6.72,0,0,1,1.07-1.41,9.75,9.75,0,0,1,1.41-1,12.69,12.69,0,0,1,2.67-1.16,7.12,7.12,0,0,1,.91-.19l.35,0,.12.72c.09.46.2,1.11.39,1.94C24.43,13.73,25,16.05,25.86,18.61Z"/><path class="cls-3" d="M32.48,14.52a5.86,5.86,0,0,1-.28,1.8,4.36,4.36,0,0,1-.31.69,3.58,3.58,0,0,1-.37.64,4.51,4.51,0,0,1-2.07,1.57,10.79,10.79,0,0,1-2.13.73,9.23,9.23,0,0,1-1,.17s-.28-.76-.76-2.27A67.86,67.86,0,0,1,23.75,11,4.91,4.91,0,0,1,25,7.48a5.87,5.87,0,0,1,1.33-1.16,10.08,10.08,0,0,1,1.58-.71A12.94,12.94,0,0,1,30.74,5,11.31,11.31,0,0,1,32,5l0,.74c0,.46,0,1.14,0,2C32,9.43,32.15,11.85,32.48,14.52Z"/><path class="cls-3" d="M47.7,10.59a5.08,5.08,0,0,1-2.11,2.48,4.57,4.57,0,0,1-2.52.67,20.49,20.49,0,0,1-2.23-.19,8.57,8.57,0,0,1-1-.24s0-.81.18-2.39c.08-.79.19-1.78.35-3,.08-.59.18-1.23.29-1.92s.26-1.37.42-2.13A5.44,5.44,0,0,1,47,.6a11.29,11.29,0,0,1,2.84.54,10.24,10.24,0,0,1,1.06.47l-1,2.54C49.3,5.73,48.45,8,47.7,10.59Z"/><path class="cls-3" d="M39.9,11.78a5.22,5.22,0,0,1-1.57,2.86A4.62,4.62,0,0,1,36,15.79l-.62.09-.58.1a10.08,10.08,0,0,1-1,.08,10.25,10.25,0,0,1-1,0s-.12-.8-.3-2.38c-.08-.79-.17-1.78-.25-3s-.14-2.59-.12-4.11A5.45,5.45,0,0,1,37.2,2.13a10.63,10.63,0,0,1,2.92,0,10.54,10.54,0,0,1,1.24.28l-.16.71c-.1.46-.25,1.12-.41,1.94A65.32,65.32,0,0,0,39.9,11.78Z"/><path class="cls-3" d="M47.57,10.6a6,6,0,0,1-1,1.55,6.11,6.11,0,0,1-1.14.94,4.47,4.47,0,0,1-2.51.66l-1.21-.05a9.16,9.16,0,0,1-1-.12,8.57,8.57,0,0,1-1-.24s0-.8.18-2.39c.07-.79.17-1.78.33-3s.38-2.56.7-4.05A5.46,5.46,0,0,1,46.84.61a12.73,12.73,0,0,1,2.86.53,9.39,9.39,0,0,1,1,.47s-.36,1-1,2.54S48.32,8,47.57,10.6Z"/><path class="cls-3" d="M64.89,10.49c-2.81,5-9.27,1.47-9.27,1.47L59,3.08c2.79-5,9.26-1.47,9.26-1.47Z"/><path class="cls-3" d="M56.13,10.49a5.26,5.26,0,0,1-5.69,2.61q-.37,0-.72-.12l-.57-.13a10.41,10.41,0,0,1-1-.33,9.18,9.18,0,0,1-.93-.43s.19-.78.65-2.31c.24-.76.54-1.71.93-2.83s.91-2.43,1.45-3.87c2.8-5,9.27-1.47,9.27-1.47Z"/><path class="cls-3" d="M64.75,10.49c-2.81,5-9.27,1.47-9.27,1.47l3.4-8.88c2.8-5,9.27-1.47,9.27-1.47Z"/><path class="cls-3" d="M82.29,10.49C79.48,15.49,73,12,73,12l3.41-8.88c2.79-5,9.26-1.47,9.26-1.47Z"/><path class="cls-3" d="M73.53,10.49c-2.81,5-9.27,1.47-9.27,1.47l3.4-8.88c2.8-5,9.27-1.47,9.27-1.47Z"/><path class="cls-3" d="M82.15,10.49c-2.81,5-9.27,1.47-9.27,1.47l3.4-8.88c2.8-5,9.27-1.47,9.27-1.47Z"/><path class="cls-3" d="M99.69,10.49c-2.81,5-9.27,1.47-9.27,1.47l3.4-8.88c2.8-5,9.27-1.47,9.27-1.47Z"/><path class="cls-3" d="M90.93,10.49c-2.81,5-9.27,1.47-9.27,1.47l3.4-8.88c2.8-5,9.27-1.47,9.27-1.47Z"/><path class="cls-3" d="M99.55,10.49c-2.81,5-9.27,1.47-9.27,1.47l3.4-8.88c2.8-5,9.27-1.47,9.27-1.47Z"/><path class="cls-3" d="M117.09,10.49c-2.81,5-9.27,1.47-9.27,1.47l3.4-8.88c2.8-5,9.27-1.47,9.27-1.47Z"/><path class="cls-3" d="M108.32,10.49c-2.8,5-9.26,1.47-9.26,1.47l3.4-8.88c2.8-5,9.27-1.47,9.27-1.47Z"/><path class="cls-3" d="M117,10.49c-2.81,5-9.27,1.47-9.27,1.47l3.4-8.88c2.8-5,9.27-1.47,9.27-1.47S118.9,5.38,117,10.49Z"/><path class="cls-3" d="M134.49,10.49c-2.81,5-9.27,1.47-9.27,1.47l3.4-8.88c2.8-5,9.27-1.47,9.27-1.47Z"/><path class="cls-3" d="M125.72,10.49c-2.8,5-9.26,1.47-9.26,1.47l3.4-8.88c2.8-5,9.27-1.47,9.27-1.47Z"/><path class="cls-3" d="M134.34,10.49c-2.8,5-9.26,1.47-9.26,1.47l3.4-8.88c2.8-5,9.27-1.47,9.27-1.47Z"/><path class="cls-3" d="M151.89,10.49c-2.81,5-9.27,1.47-9.27,1.47L146,3.08c2.8-5,9.27-1.47,9.27-1.47Z"/><path class="cls-3" d="M143.12,10.49c-2.8,5-9.27,1.47-9.27,1.47s1.2-3.1,3.41-8.88c2.8-5,9.27-1.47,9.27-1.47Z"/><path class="cls-3" d="M151.74,10.49c-2.8,5-9.27,1.47-9.27,1.47s1.2-3.1,3.41-8.88c2.8-5,9.27-1.47,9.27-1.47Z"/><path class="cls-3" d="M169.29,10.49C166.48,15.49,160,12,160,12l3.4-8.88c2.8-5,9.27-1.47,9.27-1.47S171.24,5.38,169.29,10.49Z"/><path class="cls-3" d="M160.52,10.49c-2.8,5-9.27,1.47-9.27,1.47l3.41-8.88c2.8-5,9.27-1.47,9.27-1.47Z"/><path class="cls-3" d="M169.14,10.49c-2.8,5-9.27,1.47-9.27,1.47l3.41-8.88c2.8-5,9.27-1.47,9.27-1.47Z"/><path class="cls-3" d="M186.68,10.49c-2.8,5-9.26,1.47-9.26,1.47l3.4-8.88c2.8-5,9.27-1.47,9.27-1.47Z"/><path class="cls-3" d="M177.92,10.49c-2.81,5-9.27,1.47-9.27,1.47l3.41-8.88c2.8-5,9.27-1.47,9.27-1.47S179.88,5.38,177.92,10.49Z"/><path class="cls-3" d="M186.54,10.49c-2.81,5-9.27,1.47-9.27,1.47l3.41-8.88c2.8-5,9.27-1.47,9.27-1.47S188.5,5.38,186.54,10.49Z"/><path class="cls-3" d="M204.08,10.49c-2.8,5-9.26,1.47-9.26,1.47l3.4-8.88c2.8-5,9.27-1.47,9.27-1.47Z"/><path class="cls-3" d="M195.32,10.49c-2.81,5-9.27,1.47-9.27,1.47l3.41-8.88c2.8-5,9.27-1.47,9.27-1.47S197.28,5.38,195.32,10.49Z"/><path class="cls-3" d="M203.94,10.49c-2.81,5-9.27,1.47-9.27,1.47l3.41-8.88c2.8-5,9.27-1.47,9.27-1.47S205.9,5.38,203.94,10.49Z"/><path class="cls-3" d="M221.48,10.49c-2.8,5-9.27,1.47-9.27,1.47l3.41-8.88c2.8-5,9.27-1.47,9.27-1.47Z"/><path class="cls-3" d="M212.72,10.49c-2.81,5-9.27,1.47-9.27,1.47l3.41-8.88c2.79-5,9.27-1.47,9.27-1.47S214.68,5.38,212.72,10.49Z"/><path class="cls-3" d="M221.34,10.49c-2.81,5-9.27,1.47-9.27,1.47l3.41-8.88c2.8-5,9.27-1.47,9.27-1.47S223.3,5.38,221.34,10.49Z"/><path class="cls-3" d="M238.88,10.49c-2.81,5-9.27,1.47-9.27,1.47L233,3.08c2.8-5,9.27-1.47,9.27-1.47S240.84,5.38,238.88,10.49Z"/><path class="cls-3" d="M230.12,10.49c-2.81,5-9.27,1.47-9.27,1.47l3.41-8.88c2.79-5,9.26-1.47,9.26-1.47Z"/><path class="cls-3" d="M238.74,10.49c-2.81,5-9.27,1.47-9.27,1.47l3.41-8.88c2.79-5,9.27-1.47,9.27-1.47S240.7,5.38,238.74,10.49Z"/><path class="cls-3" d="M256.28,10.49C253.47,15.49,247,12,247,12l3.41-8.88c2.8-5,9.27-1.47,9.27-1.47S258.24,5.38,256.28,10.49Z"/><path class="cls-3" d="M247.52,10.49c-2.81,5-9.27,1.47-9.27,1.47l3.41-8.88c2.79-5,9.26-1.47,9.26-1.47Z"/><path class="cls-3" d="M256.14,10.49c-2.81,5-9.27,1.47-9.27,1.47l3.41-8.88c2.79-5,9.26-1.47,9.26-1.47Z"/><path class="cls-3" d="M273.68,10.49c-2.81,5-9.27,1.47-9.27,1.47l3.41-8.88c2.8-5,9.27-1.47,9.27-1.47S275.64,5.38,273.68,10.49Z"/><path class="cls-3" d="M264.92,10.49c-2.81,5-9.27,1.47-9.27,1.47l3.4-8.88c2.8-5,9.27-1.47,9.27-1.47Z"/><path class="cls-3" d="M273.54,10.49c-2.81,5-9.27,1.47-9.27,1.47l3.4-8.88c2.8-5,9.27-1.47,9.27-1.47Z"/><path class="cls-3" d="M291.08,10.49c-2.81,5-9.27,1.47-9.27,1.47l3.41-8.88c2.79-5,9.27-1.47,9.27-1.47S293,5.38,291.08,10.49Z"/><path class="cls-3" d="M282.32,10.49c-2.81,5-9.27,1.47-9.27,1.47l3.4-8.88c2.8-5,9.27-1.47,9.27-1.47Z"/><path class="cls-3" d="M290.55,10.67a5.07,5.07,0,0,1-2.45,2.23,4.18,4.18,0,0,1-1.33.25,7,7,0,0,1-1.52-.05A11.48,11.48,0,0,1,281.67,12l3.4-8.88a5.45,5.45,0,0,1,1.21-1.5,4,4,0,0,1,.69-.49,5.21,5.21,0,0,1,.83-.31,7.94,7.94,0,0,1,3.46-.1,5.94,5.94,0,0,1,1.53.46,13.1,13.1,0,0,1,1.22.57,12.47,12.47,0,0,1,1.09.64l-.4.63c-.25.4-.61,1-1,1.72A63.22,63.22,0,0,0,290.55,10.67Z"/><path class="cls-3" d="M305.62,15.23a5.18,5.18,0,0,1-3.14,1.09,4,4,0,0,1-1.3-.28,5.12,5.12,0,0,1-1.18-.48,8.83,8.83,0,0,1-1.8-1.38c-.22-.22-.41-.37-.54-.5l-.2-.19s.46-.69,1.42-2a66.86,66.86,0,0,1,4.53-5.36c2.33-1.91,4.92-1,6.8.19a11.58,11.58,0,0,1,2.12,2c.48.6.74,1,.74,1l-.61.43c-.39.27-.95.66-1.64,1.17A64.53,64.53,0,0,0,305.62,15.23Z"/><path class="cls-3" d="M298.32,12.19a5,5,0,0,1-2.85,1.68,4.87,4.87,0,0,1-1.32,0,5.74,5.74,0,0,1-1.26-.24,8.35,8.35,0,0,1-2-1c-.53-.29-.87-.52-.87-.52s.31-.76,1-2.23a65.92,65.92,0,0,1,3.35-6.17,5.23,5.23,0,0,1,1.55-1.27,5.87,5.87,0,0,1,.86-.37,6.45,6.45,0,0,1,.88-.14,8,8,0,0,1,3.41.61,6.12,6.12,0,0,1,1.41.76,12.68,12.68,0,0,1,1.08.8,9.69,9.69,0,0,1,.93.85l-.51.53c-.33.34-.8.84-1.37,1.47A64.78,64.78,0,0,0,298.32,12.19Z"/><path class="cls-3" d="M305.5,15.17a5,5,0,0,1-3.13,1.09,4.69,4.69,0,0,1-1.3-.26,5.12,5.12,0,0,1-1.18-.48,8.56,8.56,0,0,1-1.8-1.38c-.46-.39-.75-.68-.75-.68s.46-.69,1.41-2a64.24,64.24,0,0,1,4.51-5.38,5.15,5.15,0,0,1,1.78-1A4.88,4.88,0,0,1,306,5a5.31,5.31,0,0,1,.89,0,7.74,7.74,0,0,1,3.22,1.26,10.46,10.46,0,0,1,2.13,2,10,10,0,0,1,.75,1l-.61.43c-.39.27-.95.66-1.63,1.17A65,65,0,0,0,305.5,15.17Z"/><path class="cls-3" d="M317.62,25.26a7.08,7.08,0,0,1-1,.13,6.53,6.53,0,0,1-.88,0,4.35,4.35,0,0,1-1.47-.36,6,6,0,0,1-2-1.67,8.51,8.51,0,0,1-1.15-1.95l-.38-1s.7-.47,2-1.24A70.05,70.05,0,0,1,319.11,16a5.24,5.24,0,0,1,2-.18,4.8,4.8,0,0,1,1.68.59,7.37,7.37,0,0,1,2.5,2.4,13,13,0,0,1,1.49,3.9l-.74.15-2,.46C322.43,23.73,320.13,24.37,317.62,25.26Z"/><path class="cls-3" d="M312.07,19.61a5.25,5.25,0,0,1-3.29.45,4.16,4.16,0,0,1-1.22-.52,6.8,6.8,0,0,1-1.06-.72,8.39,8.39,0,0,1-1.5-1.7c-.17-.27-.33-.46-.43-.61l-.15-.23.44-.42c.29-.28.75-.71,1.33-1.23a68.46,68.46,0,0,1,5.5-4.37c2.67-1.42,5,0,6.64,1.51a13,13,0,0,1,2.21,3.55l-.69.29c-.43.19-1.06.47-1.83.83C316.47,17.17,314.36,18.24,312.07,19.61Z"/><path class="cls-3" d="M317.54,25.16a5.38,5.38,0,0,1-3.31-.21,6,6,0,0,1-2-1.66,8.9,8.9,0,0,1-1.15-1.95c-.24-.57-.39-.95-.39-.95l.51-.33c.35-.22.86-.54,1.54-.93A67.26,67.26,0,0,1,319,15.9a5.43,5.43,0,0,1,2-.19,4.6,4.6,0,0,1,1.68.58,7.47,7.47,0,0,1,2.51,2.39,13,13,0,0,1,1.49,3.9l-.73.16c-.46.1-1.13.25-2,.46C322.34,23.62,320.05,24.26,317.54,25.16Z"/><path class="cls-3" d="M324.81,39.12a6.19,6.19,0,0,1-1.72-.59,4.45,4.45,0,0,1-1.22-.88,5.07,5.07,0,0,1-1.17-2.32,9.2,9.2,0,0,1-.31-3.26s.79-.14,2.35-.35a68.84,68.84,0,0,1,7.06-.56,6.59,6.59,0,0,1,1,.22,4.73,4.73,0,0,1,.85.4A5,5,0,0,1,333,33a6.52,6.52,0,0,1,1.36,3.19,12.79,12.79,0,0,1,.06,2.93,8.8,8.8,0,0,1-.11.9,2.07,2.07,0,0,1-.07.34A66.64,66.64,0,0,0,324.81,39.12Z"/><path class="cls-3" d="M321.88,31.79a5.62,5.62,0,0,1-3.19-.86,4,4,0,0,1-.94-.94,6.37,6.37,0,0,1-.35-.55,6.05,6.05,0,0,1-.32-.55,7.92,7.92,0,0,1-.76-2.12c-.07-.3-.11-.56-.14-.74s0-.29,0-.29l.56-.21,1.67-.6c1.49-.5,3.73-1.22,6.8-1.94a4.55,4.55,0,0,1,3.53,1.13,6.67,6.67,0,0,1,1.18,1.31,5.57,5.57,0,0,1,.79,1.53,13,13,0,0,1,.72,4.12h-.75c-.48,0-1.17,0-2,.07C326.9,31.23,324.53,31.4,321.88,31.79Z"/><path class="cls-3" d="M324.77,39a5.66,5.66,0,0,1-2.95-1.47,3.94,3.94,0,0,1-.74-1.1c-.19-.39-.29-.82-.44-1.21a9.06,9.06,0,0,1-.3-3.26s.78-.15,2.34-.36a70.53,70.53,0,0,1,7.05-.58A4.63,4.63,0,0,1,333,32.83a7.25,7.25,0,0,1,.9,1.52c.11.27.22.54.31.82s.11.56.16.84a12.91,12.91,0,0,1-.11,4.17L333.5,40l-2-.33A65.31,65.31,0,0,0,324.77,39Z"/><path class="cls-3" d="M326,54.68a5.67,5.67,0,0,1-2.13-2.51,5.11,5.11,0,0,1-.17-2.59,9.17,9.17,0,0,1,1-3.12s.79.18,2.31.6a69.24,69.24,0,0,1,6.72,2.25,5.57,5.57,0,0,1,.87.6,4.1,4.1,0,0,1,.62.71,5.13,5.13,0,0,1,.77,1.62,7,7,0,0,1,.23,1.76,8.44,8.44,0,0,1,0,.87,7.83,7.83,0,0,1-.18.84,12.84,12.84,0,0,1-1.75,3.79l-.62-.42-1.7-1.1C330.47,57.07,328.42,55.87,326,54.68Z"/><path class="cls-3" d="M326.19,46.78a6.06,6.06,0,0,1-1.56-.92,4.26,4.26,0,0,1-1-1.11,5,5,0,0,1-.68-2.5,9.12,9.12,0,0,1,.34-3.25s.8,0,2.37.12a67.29,67.29,0,0,1,7,.85,4.36,4.36,0,0,1,1.72,1,4.82,4.82,0,0,1,1.08,1.43,6.69,6.69,0,0,1,.58,1.68,6.15,6.15,0,0,1,.13.86c0,.29,0,.58,0,.86a13.1,13.1,0,0,1-.94,4.06l-.7-.29c-.44-.18-1.08-.43-1.89-.73A67.53,67.53,0,0,0,326.19,46.78Z"/><path class="cls-3" d="M326,54.55a5.59,5.59,0,0,1-2.15-2.5,4.05,4.05,0,0,1-.25-1.31c0-.43.06-.86.07-1.28a9.32,9.32,0,0,1,1-3.13s.78.18,2.3.6a68.18,68.18,0,0,1,6.72,2.22A4.57,4.57,0,0,1,336,52.08a7.44,7.44,0,0,1,.23,1.75,5.8,5.8,0,0,1-.21,1.72,13.11,13.11,0,0,1-1.74,3.8l-.63-.42c-.39-.26-1-.64-1.7-1.09A66.71,66.71,0,0,0,326,54.55Z"/><path class="cls-3" d="M321,69.46a6.4,6.4,0,0,1-.75-1.65,4.28,4.28,0,0,1-.21-1.5,4.94,4.94,0,0,1,.86-2.44,9,9,0,0,1,2.13-2.48s.65.47,1.88,1.45a67.14,67.14,0,0,1,5.3,4.71,4.4,4.4,0,0,1,.86,1.79,5.15,5.15,0,0,1,.07,1.79,6.45,6.45,0,0,1-1.36,3.19,13.07,13.07,0,0,1-2.06,2.08c-.3.23-.54.42-.73.54l-.3.17-.39-.61c-.26-.4-.65-1-1.14-1.68C324.2,73.42,322.78,71.5,321,69.46Z"/><path class="cls-3" d="M324.3,62.27a5.65,5.65,0,0,1-1.59-2.89,4,4,0,0,1,0-1.33c.07-.43.23-.83.33-1.24a9.1,9.1,0,0,1,1.6-2.85s.73.33,2.13,1a66.67,66.67,0,0,1,6.14,3.53,4.59,4.59,0,0,1,1.63,3.33,7,7,0,0,1-.12,1.77,8.15,8.15,0,0,1-.22.85,6.81,6.81,0,0,1-.34.78,13,13,0,0,1-2.47,3.37l-.52-.53c-.34-.34-.83-.83-1.45-1.42C328.19,65.5,326.41,63.91,324.3,62.27Z"/><path class="cls-3" d="M321.1,69.35a6.71,6.71,0,0,1-.77-1.65,4.26,4.26,0,0,1-.21-1.49,5.24,5.24,0,0,1,.85-2.46,9.36,9.36,0,0,1,2.13-2.48s.65.47,1.89,1.44,3,2.49,5.3,4.69a4.6,4.6,0,0,1,.95,3.59,7,7,0,0,1-.47,1.7c-.12.27-.24.54-.38.79s-.33.48-.5.7a12.66,12.66,0,0,1-2.06,2.08c-.29.24-.54.42-.72.55a3.12,3.12,0,0,1-.3.18s-.55-.89-1.54-2.29S322.85,71.38,321.1,69.35Z"/><path class="cls-3" d="M310.68,81.18a4.74,4.74,0,0,1,2.07-5.2,9.67,9.67,0,0,1,1.95-1.13,9.54,9.54,0,0,1,1-.36s.42.69,1.18,2.08,1.85,3.49,3.08,6.4a4.91,4.91,0,0,1-.53,3.66,6.66,6.66,0,0,1-1.07,1.4,10.09,10.09,0,0,1-1.41,1,12.52,12.52,0,0,1-2.68,1.16,8.13,8.13,0,0,1-1.25.23s-.05-.26-.13-.72-.2-1.12-.38-2C312.11,86.07,311.52,83.74,310.68,81.18Z"/><path class="cls-3" d="M316.47,75.79a5.88,5.88,0,0,1-.41-1.77,4.58,4.58,0,0,1,.09-1.5,4.71,4.71,0,0,1,1.33-2.24,9.17,9.17,0,0,1,2.57-2s.55.59,1.56,1.8a69.64,69.64,0,0,1,4.28,5.67,4.74,4.74,0,0,1,.2,3.69,6.31,6.31,0,0,1-2,2.85,12.13,12.13,0,0,1-2.41,1.64,3.79,3.79,0,0,1-.83.38l-.33.11-.26-.68c-.17-.42-.43-1-.78-1.85C318.82,80.29,317.79,78.13,316.47,75.79Z"/><path class="cls-3" d="M310.78,81.11a4.73,4.73,0,0,1,2.06-5.21,9.32,9.32,0,0,1,2.91-1.5s.42.69,1.19,2.07a70.64,70.64,0,0,1,3.1,6.39,4.86,4.86,0,0,1-.52,3.66,6.72,6.72,0,0,1-1.07,1.41,8.34,8.34,0,0,1-1.4,1,12.52,12.52,0,0,1-2.68,1.16,4.69,4.69,0,0,1-.9.2l-.35,0s0-.26-.12-.72-.2-1.11-.4-2C312.22,86,311.63,83.66,310.78,81.11Z"/><path class="cls-3" d="M296.64,88a5,5,0,0,1,1.57-2.85A4.47,4.47,0,0,1,300.54,84l.62-.1.57-.09a8.14,8.14,0,0,1,1-.08,7.54,7.54,0,0,1,1,0s.12.8.29,2.38c.09.79.18,1.77.26,3s.14,2.59.12,4.12a5.45,5.45,0,0,1-5.13,4.43,11.1,11.1,0,0,1-2.92,0,11.68,11.68,0,0,1-1.24-.29s.06-.25.16-.71.25-1.11.41-1.94A64.57,64.57,0,0,0,296.64,88Z"/><path class="cls-3" d="M304.05,85.28a5.86,5.86,0,0,1,.28-1.8,4.1,4.1,0,0,1,.31-.7,4.34,4.34,0,0,1,.37-.63,4.53,4.53,0,0,1,2.07-1.58,12.43,12.43,0,0,1,2.13-.72,9.67,9.67,0,0,1,1-.17s.28.76.76,2.27a66.78,66.78,0,0,1,1.78,6.88,4.89,4.89,0,0,1-1.23,3.49,5.64,5.64,0,0,1-1.33,1.16,10.08,10.08,0,0,1-1.58.71,12.3,12.3,0,0,1-2.85.62,11.31,11.31,0,0,1-1.28,0l0-.73c0-.46,0-1.14,0-2C304.5,90.37,304.37,88,304.05,85.28Z"/><path class="cls-3" d="M296.76,88a5.87,5.87,0,0,1,.64-1.71,6,6,0,0,1,.92-1.16A4.52,4.52,0,0,1,300.65,84l1.19-.21c.38-.05.73-.07,1-.08a10.25,10.25,0,0,1,1,0s.13.8.3,2.38a63.15,63.15,0,0,1,.41,7.08,5.47,5.47,0,0,1-5.12,4.45,11.61,11.61,0,0,1-2.92,0,10.46,10.46,0,0,1-1.25-.28s.06-.26.16-.71.25-1.12.4-1.94A66.74,66.74,0,0,0,296.76,88Z"/><path class="cls-3" d="M280.41,89.31a5.26,5.26,0,0,1,5.69-2.62l.72.13.57.13a10.41,10.41,0,0,1,1,.33,9.33,9.33,0,0,1,.93.42s-.2.79-.66,2.31c-.23.77-.53,1.71-.92,2.84s-.91,2.43-1.45,3.86c-2.8,5-9.27,1.47-9.27,1.47Z"/><path class="cls-3" d="M289,89.2a5.8,5.8,0,0,1,1-1.55,5.74,5.74,0,0,1,1.14-.94,4.57,4.57,0,0,1,2.52-.67,16.62,16.62,0,0,1,2.23.18c.6.11,1,.23,1,.23s0,.81-.17,2.4c-.08.79-.18,1.78-.34,3s-.38,2.56-.7,4a5.44,5.44,0,0,1-5.9,3.33,12.71,12.71,0,0,1-2.87-.53,10.45,10.45,0,0,1-1.05-.48s.37-1,1-2.53S288.2,91.79,289,89.2Z"/></g></g></svg>