<svg xmlns="http://www.w3.org/2000/svg" width="35.99" height="180.04" viewBox="0 0 35.99 180.04"><defs><style>.cls-1{isolation:isolate;}.cls-2{fill:#c19d46;}.cls-3,.cls-4{fill:#f5d269;}.cls-4,.cls-9{mix-blend-mode:multiply;}.cls-4{opacity:0.28;}.cls-5,.cls-9{fill:#d0b149;}.cls-6{fill:#d39636;}.cls-7{opacity:0.1;}.cls-8{fill:#e8cb5b;}</style></defs><g class="cls-1"><g id="Layer_2" data-name="Layer 2"><g id="Layer_21" data-name="Layer 21"><ellipse class="cls-2" cx="18" cy="170.11" rx="18" ry="9.94"/><ellipse class="cls-3" cx="18.15" cy="169.44" rx="17.43" ry="9.27"/><ellipse class="cls-4" cx="18.12" cy="169.16" rx="17.03" ry="8.65"/><path class="cls-5" d="M35.15,168.26V85.56s-.56-6.75-2.86-10.2v-16A5.57,5.57,0,0,0,30.76,56c0,1.59-6.44,2.3-12.64,2.3S5.49,57.55,5.49,56A5.61,5.61,0,0,0,4,59.4v16C1.66,78.81,1.1,85.56,1.1,85.56v82.7c0,.92.78,8.37,17,8.37C34,176.63,35.15,169.18,35.15,168.26Z"/><path class="cls-6" d="M18.12,0c-4,0-12.74,14.52-12.64,29.17V60.33H30.76V29.17C30.86,14.52,22.13,0,18.12,0Z"/><path class="cls-7" d="M30.76,60.33V29.17C30.86,15.5,23.27,2,19,.2,31.66,14.27,27.75,50.52,27.62,52c-7.47,6.22-18,3.51-22.14,1.83v6.52H30.76Z"/><path class="cls-8" d="M35.15,85.56s-.56-6.75-2.86-10.2v-16A5.57,5.57,0,0,0,30.76,56c0,1.59-6.44,2.3-12.64,2.3S5.49,57.55,5.49,56A5.61,5.61,0,0,0,4,59.4v16C1.66,78.81,1.1,85.56,1.1,85.56,1.1,90.51,35.15,90.51,35.15,85.56Z"/><path class="cls-7" d="M35.15,168.26V85.56s-.56-6.75-2.86-10.2v-16A5.57,5.57,0,0,0,30.76,56c0,.56-.81,1-2.11,1.36h0c1.76,12.12-1.42,18-1.42,18,6.81,50.8.94,85.29-3,100.86C34.28,174.55,35.15,169.05,35.15,168.26Z"/><path class="cls-9" d="M1.85,168.3V86s0-3.7.45-6.87a36.26,36.26,0,0,0-1.2,6.39v82.7c0,.92.78,8.37,17,8.37.84,0,1.64,0,2.39-.07C13.52,176.06,4.42,174.23,1.85,168.3Z"/></g></g></g></svg>