<svg xmlns="http://www.w3.org/2000/svg" width="164.74" height="265.6" viewBox="0 0 164.74 265.6"><defs><style>.cls-1{isolation:isolate;}.cls-2{fill:#ca9911;}.cls-3{fill:#fff;}.cls-11,.cls-4,.cls-7,.cls-8{mix-blend-mode:multiply;}.cls-4,.cls-8{opacity:0.3;}.cls-10,.cls-5,.cls-7{fill:#e5ae13;}.cls-11,.cls-6,.cls-9{fill:#4d8a62;}.cls-10,.cls-9{mix-blend-mode:screen;}</style></defs><g class="cls-1"><g id="Layer_2" data-name="Layer 2"><g id="Layer_22" data-name="Layer 22"><path class="cls-2" d="M99.76,215.42S82.91,224,78.89,224.67l-14.6,2.49s2,5.7.36,8.23,2,7.6,2,7.6,3.48,2.17,3.94,5.89a4.52,4.52,0,0,0,4.13,4s4.82,1.94,3,4.16,19-5.84,26.16-30.88l3.11-9.16"/><path class="cls-3" d="M101.87,95.91l13.66,45.38s6,54.11,49.21,99.52c0,0-30.53-5.37-42.71-16.94C90.41,236.3,1.54,199.48,54.87,94c0,0,4.47-17.31,2.44-28.43l38.41,2.13c.41,1.94,6.14,24,6.15,28.26"/><path d="M164.74,240.81C127,186.6,121.25,136.55,101.46,94.34l-30,.86C49.44,163.29,126,228.64,164.74,240.81Z"/><path class="cls-5" d="M58,58.42,0,70.16S.17,42.59,49.1,26.34"/><path class="cls-6" d="M100.24,56.75A37.55,37.55,0,0,0,96,69.85l-38.17-2S39,29.54,55.42,10.86C67.33-4.37,109.09-5.85,112.59,21.19c2.65,20.51-12.35,35.56-12.35,35.56"/><path d="M57.8,74.45c-.07,1.66-.2,3.33-.37,5A113.6,113.6,0,0,1,54.87,94c20.74,3,28.7,2.15,47,2,0-2-1.77-10.23-3.66-18.44"/><path class="cls-3" d="M74.93,7.7C86.17,7.51,95.42,15,95.58,24.5c-.65,22.76-39.28,23.42-40.71.7C54.71,15.73,63.69,7.89,74.93,7.7Z"/><ellipse cx="66.29" cy="21.8" rx="6.51" ry="4.48" transform="translate(39.29 86.15) rotate(-85.44)"/><path class="cls-7" d="M78.32,230.11c-.24.12-13.25,4.07-13.25,4.07l-.75,3.35Z"/><path class="cls-8" d="M50.47,103.21c-41.21,92.9,31.78,128.65,65.91,122.24C34.7,217.66,44.9,131.41,50.47,103.21Z"/><path class="cls-7" d="M80.67,235.16,67.87,244a7.82,7.82,0,0,1,1.86,2.35C70.28,247.57,80.67,235.16,80.67,235.16Z"/><path class="cls-7" d="M72.75,251.76s1.77.49,2.09,1S88,238.88,88,238.88Z"/><path class="cls-5" d="M110.75,220.26s-14.92,11.59-18.75,13l-13.86,5.2s3,5.22,1.91,8,3.38,7.1,3.38,7.1,3.83,1.47,5,5a4.53,4.53,0,0,0,4.8,3.11s5.1,1,3.69,3.52,17.59-9.32,19.87-35.26l1.31-9.58"/><path class="cls-7" d="M92.47,238.93c-.21.17-12.24,6.5-12.24,6.5l-.1,3.43Z"/><path class="cls-7" d="M95.74,243.25,84.83,254.32a7.87,7.87,0,0,1,2.27,1.95C87.87,257.4,95.74,243.25,95.74,243.25Z"/><path class="cls-7" d="M91.09,261a6.21,6.21,0,0,1,2.24.55c.4.4,10.25-16.06,10.25-16.06Z"/><path class="cls-9" d="M92.73,69.68l3.28-15s18.76-19.08,7.71-48.73a20.74,20.74,0,0,1,8.36,12.41c4.84,22-11.84,38.41-11.84,38.41A30.28,30.28,0,0,0,96,69.85Z"/><path class="cls-10" d="M9.66,49.92C20.07,38.47,32.86,32,48.87,26.34l-.2,4.37A102,102,0,0,0,9.66,49.92Z"/><path class="cls-7" d="M50,44.22a104.61,104.61,0,0,0,4.23,15L0,70.16C17.62,57.26,43.19,46.72,50,44.22Z"/><path class="cls-11" d="M49.18,25c-3,19.21,8.6,42.89,8.6,42.89l7.39.38C53.22,61.91,50,38.14,49.18,25Z"/><path class="cls-7" d="M118.08,220.42l-1.66,0c-2.78,23.41-15.74,36.08-22.93,41.41,1,.25,4.63,1.29,3.41,3.46-1.42,2.53,17.59-9.32,19.87-35.26Z"/></g></g></g></svg>