<svg xmlns="http://www.w3.org/2000/svg" width="362.91" height="355.79" viewBox="0 0 362.91 355.79"><defs><style>.cls-1{isolation:isolate;}.cls-2,.cls-3,.cls-7{fill:#8e6131;}.cls-3,.cls-6{mix-blend-mode:multiply;}.cls-4,.cls-5,.cls-6{fill:#5a5958;}.cls-5,.cls-7{mix-blend-mode:screen;}</style></defs><g class="cls-1"><g id="Layer_2" data-name="Layer 2"><g id="Layer_18" data-name="Layer 18"><path class="cls-2" d="M76,89.76c-9.93,13.46-7.13,28.82,5.49,40.48,48.74,42.57,101.2,78.14,158.64,104.36-4.45,4.65-8.95,13.07-13.46,22.72-3.47,7.1-1.58,17.36,1.26,21.46,5.18,5.86,14.23,11.4,25.88,16.73a8.47,8.47,0,0,0,9.15-3.95,48.32,48.32,0,0,0,4.42-10.73,17.08,17.08,0,0,0,6.31,3.63l17.78,54.71c1.47,6.1,11.36,15.57,18.31,16.62,21.57-11.64,37.95-31.3,52.18-54.28,1.6-2.77,1.44-7.42-3.37-10.73l-83.32-54.29c-1.84-22.56-8.63-21.93-24.3-32.45L127.92,105.83c-7.34,1.1-13.85,2.93-18.93,6Z"/><path class="cls-3" d="M298.67,340.22c-8.84-13.68-21.47-59.44-21.47-59.44-5.89,0-11.52-4.52-11.52-4.52-4.31,13.58-7.25,16-10.88,15.46,0,0-21.46-5.21-24.15-19.57s16.57-40.81,16.57-40.81C205.88,214.84,115.3,145.6,91.63,127.61c-16.76-12.74-12.64-26.4-8.8-33.3L76,89.76c-9.93,13.46-7.13,28.82,5.49,40.48,48.74,42.57,101.2,78.14,158.64,104.36-4.45,4.65-8.95,13.07-13.46,22.72-3.47,7.1-1.58,17.36,1.26,21.46,5.18,5.86,14.23,11.4,25.88,16.73a8.47,8.47,0,0,0,9.15-3.95,48.32,48.32,0,0,0,4.42-10.73,17.08,17.08,0,0,0,6.31,3.63l17.78,54.71c1.47,6.1,11.36,15.57,18.31,16.62.79-.43,1.57-.89,2.35-1.35C309.17,352.68,304.16,348.73,298.67,340.22Z"/><path class="cls-4" d="M98.36,92.58,6.07,42.35C-13.76,28.18,19.92-8.24,36.91,4.84l199.14,181.5"/><path class="cls-4" d="M110.88,113.59,26.69,56C6.86,41.85,40.54,5.44,57.53,18.51L256.67,200s14.69-2.71,18.68-11.05a20.3,20.3,0,0,1,13,8.75q-6.94,11.16-22.25,16.05"/><path class="cls-4" d="M169.93,196.34l-7.79,22.72c-1.68,4.95-2.16,10,1.79,12.63l29.77,16.83c4.74,2.42,11.36-2.05,14.2-4.42l18.15-16.19-11-5.7-15.75,14c-2.16,1.89-5.61,3.31-7.89,2.31l-14.52-5.89c-2.29-1-4.76-3.92-3.91-6.62l8.43-22.2Z"/><path class="cls-5" d="M164.53,228.29l9.12-29.53-3.72-2.42-7.79,22.72c-1.68,4.95-2.16,10,1.79,12.63l3.18,1.79C164.49,230.85,164.41,229.12,164.53,228.29Z"/><path class="cls-4" d="M208.8,219.11c-8.75,13.45-21.09,12.65-21.09,12.65s-13.13-3.44-2.07-5.43a20.8,20.8,0,0,0,15-11.69Z"/><path class="cls-6" d="M55.07,19.65C39.79,7.9,9.51,40.64,27.34,53.38,40.38,64.1,68.11,30.37,55.07,19.65Z"/><path class="cls-6" d="M33,5.59C21.65-2.94-7.77,27.79,6.54,37.73,17.16,46.22,43.35,13.86,33,5.59Z"/><path class="cls-4" d="M68.16,28.2l-.31-11.89A47,47,0,0,0,48.29,0c-1.37,5.89-6.95,10.2-6.95,10.2C46.66,16.46,56,17.62,68.16,28.2Z"/><path class="cls-6" d="M275.35,189c-4,8.34-18.68,11.05-18.68,11.05L68.16,28.2h0l-.31-11.89A47,47,0,0,0,48.29,0c-.08.32-.19.62-.29.93,4,2.69,15.31,10.6,16.7,14.8,1.68,5.1,0,13.94,0,13.94L256,201.14s17.31-1.34,19.68-10.88c0,0,7.92,2.54,12.33,8,.13-.19.27-.37.4-.57A20.3,20.3,0,0,0,275.35,189Z"/><path class="cls-7" d="M358.63,290.78l-83.32-54.29c-1.29-11.35-2.35-19.8-12.78-24.93,6.65,10.44,10.38,17.84,7.42,27.77l83,54.29c5.52,3.49,8,8.41,6.64,11.7q1.21-1.89,2.41-3.81C363.6,298.74,363.44,294.09,358.63,290.78Z"/></g></g></g></svg>