<svg xmlns="http://www.w3.org/2000/svg" width="188.79" height="168.93" viewBox="0 0 188.79 168.93"><defs><style>.cls-1{isolation:isolate;}.cls-2,.cls-3,.cls-4{fill:#f20f2b;}.cls-3{mix-blend-mode:multiply;opacity:0.57;}.cls-4{mix-blend-mode:screen;opacity:0.46;}.cls-5{fill:none;stroke:#fff;stroke-linecap:round;stroke-miterlimit:10;stroke-width:9px;}.cls-5,.cls-6{opacity:0.36;}.cls-6{fill:#fff;}</style></defs><g class="cls-1"><g id="Layer_2" data-name="Layer 2"><g id="Layer_21" data-name="Layer 21"><path class="cls-2" d="M168.78,94.47,94.32,168.93,19.86,94.47C-36.13,38.48,38.33-36,94.32,20,150.57-36.24,225,38.22,168.78,94.47Z"/><path class="cls-3" d="M14,16.4C-3.68,35.18-7.57,67,19.86,94.47l74.46,74.46,1.16-1.16C79.44,151.74-2.77,66.36,14,16.4Z"/><path class="cls-4" d="M181.88,77.16C210.28,24.61,144.94-30.61,94.32,20,130.84-10.87,197.73,13,181.88,77.16Z"/><path class="cls-5" d="M112.45,130.57S144,104.82,163.77,66.74"/><circle class="cls-6" cx="101.54" cy="137.38" r="4.23"/></g></g></g></svg>