<svg xmlns="http://www.w3.org/2000/svg" width="94.39" height="81.81" viewBox="0 0 94.39 81.81"><defs><style>.cls-1{isolation:isolate;}.cls-2,.cls-9{fill:#d0b149;}.cls-3{fill:#d39636;}.cls-4{opacity:0.1;}.cls-5{fill:#e8cb5b;}.cls-6{fill:#c19d46;}.cls-7,.cls-8{fill:#f5d269;}.cls-8,.cls-9{mix-blend-mode:multiply;}.cls-8{opacity:0.28;}</style></defs><g class="cls-1"><g id="Layer_2" data-name="Layer 2"><g id="Layer_21" data-name="Layer 21"><circle cx="59.21" cy="53.23" r="0.81"/><circle cx="57.55" cy="52.9" r="0.81"/><circle cx="60.83" cy="54.19" r="0.81"/><circle cx="62.45" cy="55.15" r="0.81"/><circle cx="64.06" cy="56.1" r="0.81"/><circle cx="65.68" cy="57.06" r="0.81"/><circle cx="67.3" cy="58.02" r="0.81"/><circle cx="68.92" cy="58.98" r="0.81"/><circle cx="70.53" cy="59.93" r="0.81"/><circle cx="71.91" cy="60.65" r="1.05"/><circle cx="60.04" cy="51.63" r="0.81"/><circle cx="58.38" cy="51.3" r="0.81"/><circle cx="61.66" cy="52.59" r="0.81"/><circle cx="63.28" cy="53.54" r="0.81"/><circle cx="64.9" cy="54.5" r="0.81"/><circle cx="66.51" cy="55.46" r="0.81"/><circle cx="68.13" cy="56.42" r="0.81"/><circle cx="69.75" cy="57.37" r="0.81"/><circle cx="71.36" cy="58.33" r="0.81"/><circle cx="72.74" cy="59.05" r="1.05"/><circle cx="61.32" cy="49.88" r="0.81"/><circle cx="59.66" cy="49.55" r="0.81"/><circle cx="62.94" cy="50.84" r="0.81"/><circle cx="64.56" cy="51.79" r="0.81"/><circle cx="66.17" cy="52.75" r="0.81"/><circle cx="67.79" cy="53.71" r="0.81"/><circle cx="69.41" cy="54.67" r="0.81"/><circle cx="71.02" cy="55.62" r="0.81"/><circle cx="72.64" cy="56.58" r="0.81"/><circle cx="74.02" cy="57.3" r="1.05"/><circle cx="62.43" cy="48.44" r="0.81"/><circle cx="60.76" cy="48.11" r="0.81"/><circle cx="64.04" cy="49.4" r="0.81"/><circle cx="65.66" cy="50.36" r="0.81"/><circle cx="67.28" cy="51.32" r="0.81"/><circle cx="68.89" cy="52.27" r="0.81"/><circle cx="70.51" cy="53.23" r="0.81"/><circle cx="72.13" cy="54.19" r="0.81"/><circle cx="73.74" cy="55.15" r="0.81"/><circle cx="75.12" cy="55.86" r="1.05"/><circle cx="55.93" cy="53.71" r="0.81"/><circle cx="57.55" cy="54.67" r="0.81"/><circle cx="59.17" cy="55.62" r="0.81"/><circle cx="60.79" cy="56.58" r="0.81"/><circle cx="62.4" cy="57.54" r="0.81"/><circle cx="64.02" cy="58.5" r="0.81"/><circle cx="65.64" cy="59.45" r="0.81"/><circle cx="67.25" cy="60.41" r="0.81"/><circle cx="68.87" cy="61.37" r="0.81"/><circle cx="70.49" cy="62.33" r="0.81"/><circle cx="54.27" cy="55.15" r="0.81"/><circle cx="53.02" cy="53.65" r="0.81"/><circle cx="55.89" cy="56.1" r="0.81"/><circle cx="57.51" cy="57.06" r="0.81"/><circle cx="59.12" cy="58.02" r="0.81"/><circle cx="60.74" cy="58.98" r="0.81"/><circle cx="62.36" cy="59.93" r="0.81"/><circle cx="63.97" cy="60.89" r="0.81"/><circle cx="65.59" cy="61.85" r="0.81"/><circle cx="67.21" cy="62.81" r="0.81"/><circle cx="68.83" cy="63.76" r="0.81"/><circle cx="52.61" cy="56.58" r="0.81"/><circle cx="54.23" cy="57.54" r="0.81"/><circle cx="55.84" cy="58.5" r="0.81"/><circle cx="57.46" cy="59.45" r="0.81"/><circle cx="59.08" cy="60.41" r="0.81"/><circle cx="60.7" cy="61.37" r="0.81"/><circle cx="62.31" cy="62.33" r="0.81"/><circle cx="63.93" cy="63.28" r="0.81"/><circle cx="65.55" cy="64.24" r="0.81"/><circle cx="67.16" cy="65.2" r="0.81"/><circle cx="50.95" cy="58.02" r="0.81"/><circle cx="52.57" cy="58.98" r="0.81"/><circle cx="54.18" cy="59.93" r="0.81"/><circle cx="55.8" cy="60.89" r="0.81"/><circle cx="57.42" cy="61.85" r="0.81"/><circle cx="59.03" cy="62.81" r="0.81"/><circle cx="60.65" cy="63.76" r="0.81"/><circle cx="62.27" cy="64.72" r="0.81"/><circle cx="63.89" cy="65.68" r="0.81"/><circle cx="65.5" cy="66.63" r="0.81"/><circle cx="49.29" cy="59.45" r="0.81"/><circle cx="50.9" cy="60.41" r="0.81"/><circle cx="52.52" cy="61.37" r="0.81"/><circle cx="54.14" cy="62.33" r="0.81"/><circle cx="55.76" cy="63.28" r="0.81"/><circle cx="57.37" cy="64.24" r="0.81"/><circle cx="58.99" cy="65.2" r="0.81"/><circle cx="60.61" cy="66.16" r="0.81"/><circle cx="62.22" cy="67.11" r="0.81"/><circle cx="63.84" cy="68.07" r="0.81"/><circle cx="47.63" cy="60.89" r="0.81"/><circle cx="49.24" cy="61.85" r="0.81"/><circle cx="50.86" cy="62.81" r="0.81"/><circle cx="52.48" cy="63.76" r="0.81"/><circle cx="54.09" cy="64.72" r="0.81"/><circle cx="55.71" cy="65.68" r="0.81"/><circle cx="57.33" cy="66.63" r="0.81"/><circle cx="58.94" cy="67.59" r="0.81"/><circle cx="60.56" cy="68.55" r="0.81"/><circle cx="62.18" cy="69.51" r="0.81"/><circle cx="45.96" cy="62.33" r="0.81"/><circle cx="47.58" cy="63.28" r="0.81"/><circle cx="49.2" cy="64.24" r="0.81"/><circle cx="50.81" cy="65.2" r="0.81"/><circle cx="52.43" cy="66.16" r="0.81"/><circle cx="54.05" cy="67.11" r="0.81"/><circle cx="55.67" cy="68.07" r="0.81"/><circle cx="57.28" cy="69.03" r="0.81"/><circle cx="58.9" cy="69.99" r="0.81"/><circle cx="60.52" cy="70.94" r="0.81"/><circle cx="44.3" cy="63.76" r="0.81"/><circle cx="42.59" cy="65.05" r="0.81"/><circle cx="45.92" cy="64.72" r="0.81"/><circle cx="47.54" cy="65.68" r="0.81"/><circle cx="49.15" cy="66.63" r="0.81"/><circle cx="50.77" cy="67.59" r="0.81"/><circle cx="52.39" cy="68.55" r="0.81"/><circle cx="54" cy="69.51" r="0.81"/><circle cx="55.62" cy="70.46" r="0.81"/><circle cx="57.24" cy="71.42" r="0.81"/><circle cx="58.85" cy="72.38" r="0.81"/><circle cx="44.26" cy="66.16" r="0.81"/><circle cx="45.87" cy="67.11" r="0.81"/><circle cx="47.49" cy="68.07" r="0.81"/><circle cx="49.11" cy="69.03" r="0.81"/><circle cx="50.72" cy="69.99" r="0.81"/><circle cx="52.34" cy="70.94" r="0.81"/><circle cx="53.96" cy="71.9" r="0.81"/><circle cx="55.58" cy="72.86" r="0.81"/><circle cx="57.19" cy="73.82" r="0.81"/><circle cx="40.98" cy="66.63" r="0.81"/><circle cx="42.59" cy="67.59" r="0.81"/><circle cx="44.21" cy="68.55" r="0.81"/><circle cx="45.83" cy="69.51" r="0.81"/><circle cx="47.45" cy="70.46" r="0.81"/><circle cx="49.06" cy="71.42" r="0.81"/><circle cx="50.68" cy="72.38" r="0.81"/><circle cx="52.3" cy="73.34" r="0.81"/><circle cx="53.91" cy="74.29" r="0.81"/><circle cx="55.53" cy="75.25" r="0.81"/><circle cx="39.32" cy="68.07" r="0.81"/><circle cx="40.93" cy="69.03" r="0.81"/><circle cx="42.55" cy="69.99" r="0.81"/><circle cx="44.17" cy="70.94" r="0.81"/><circle cx="45.78" cy="71.9" r="0.81"/><circle cx="47.4" cy="72.86" r="0.81"/><circle cx="49.02" cy="73.82" r="0.81"/><circle cx="50.63" cy="74.77" r="0.81"/><circle cx="52.25" cy="75.73" r="0.81"/><circle cx="53.87" cy="76.69" r="0.81"/><circle cx="37.65" cy="69.51" r="0.81"/><circle cx="39.27" cy="70.46" r="0.81"/><circle cx="40.89" cy="71.42" r="0.81"/><circle cx="42.5" cy="72.38" r="0.81"/><circle cx="44.12" cy="73.34" r="0.81"/><circle cx="45.74" cy="74.29" r="0.81"/><circle cx="47.36" cy="75.25" r="0.81"/><circle cx="48.97" cy="76.21" r="0.81"/><circle cx="50.59" cy="77.17" r="0.81"/><circle cx="52.21" cy="78.12" r="0.81"/><circle cx="35.99" cy="70.94" r="0.81"/><circle cx="37.61" cy="71.9" r="0.81"/><circle cx="39.23" cy="72.86" r="0.81"/><circle cx="40.84" cy="73.82" r="0.81"/><circle cx="42.46" cy="74.77" r="0.81"/><circle cx="44.08" cy="75.73" r="0.81"/><circle cx="45.69" cy="76.69" r="0.81"/><circle cx="47.31" cy="77.65" r="0.81"/><circle cx="48.93" cy="78.6" r="0.81"/><circle cx="50.54" cy="79.56" r="0.81"/><circle cx="34.33" cy="72.38" r="0.81"/><circle cx="51.58" cy="55" r="0.81"/><circle cx="49.92" cy="56.43" r="0.81"/><circle cx="48.25" cy="57.87" r="0.81"/><circle cx="46.59" cy="59.31" r="0.81"/><circle cx="44.93" cy="60.74" r="0.81"/><circle cx="43.27" cy="62.18" r="0.81"/><circle cx="41.56" cy="63.46" r="0.81"/><circle cx="39.94" cy="65.05" r="0.81"/><circle cx="38.28" cy="66.49" r="0.81"/><circle cx="36.62" cy="67.92" r="0.81"/><circle cx="34.96" cy="69.36" r="0.81"/><circle cx="33.3" cy="70.79" r="0.81"/><circle cx="50.33" cy="53.38" r="0.81"/><circle cx="48.67" cy="54.82" r="0.81"/><circle cx="47.01" cy="56.25" r="0.81"/><circle cx="45.35" cy="57.69" r="0.81"/><circle cx="43.68" cy="59.12" r="0.81"/><circle cx="42.02" cy="60.56" r="0.81"/><circle cx="40.32" cy="61.85" r="0.81"/><circle cx="38.7" cy="63.43" r="0.81"/><circle cx="37.04" cy="64.87" r="0.81"/><circle cx="35.37" cy="66.31" r="0.81"/><circle cx="33.71" cy="67.74" r="0.81"/><circle cx="32.05" cy="69.18" r="0.81"/><circle cx="48.81" cy="51.91" r="0.81"/><circle cx="47.42" cy="53.2" r="0.81"/><circle cx="45.76" cy="54.63" r="0.81"/><circle cx="44.1" cy="56.07" r="0.81"/><circle cx="42.44" cy="57.51" r="0.81"/><circle cx="40.78" cy="58.94" r="0.81"/><circle cx="39.07" cy="60.23" r="0.81"/><circle cx="37.45" cy="61.82" r="0.81"/><circle cx="35.79" cy="63.25" r="0.81"/><circle cx="34.13" cy="64.69" r="0.81"/><circle cx="32.47" cy="66.12" r="0.81"/><circle cx="30.8" cy="67.56" r="0.81"/><circle cx="47.84" cy="50.15" r="0.81"/><circle cx="46.18" cy="51.58" r="0.81"/><circle cx="44.52" cy="53.02" r="0.81"/><circle cx="42.85" cy="54.45" r="0.81"/><circle cx="41.19" cy="55.89" r="0.81"/><circle cx="39.53" cy="57.33" r="0.81"/><circle cx="37.82" cy="58.61" r="0.81"/><circle cx="36.21" cy="60.2" r="0.81"/><circle cx="34.54" cy="61.63" r="0.81"/><circle cx="32.88" cy="63.07" r="0.81"/><circle cx="31.22" cy="64.51" r="0.81"/><circle cx="29.56" cy="65.94" r="0.81"/><circle cx="46.59" cy="48.53" r="0.81"/><circle cx="44.93" cy="49.96" r="0.81"/><circle cx="43.27" cy="51.4" r="0.81"/><circle cx="41.61" cy="52.84" r="0.81"/><circle cx="39.94" cy="54.27" r="0.81"/><circle cx="38.28" cy="55.71" r="0.81"/><circle cx="36.58" cy="57" r="0.81"/><circle cx="34.96" cy="58.58" r="0.81"/><circle cx="33.3" cy="60.02" r="0.81"/><circle cx="31.64" cy="61.45" r="0.81"/><circle cx="29.97" cy="62.89" r="0.81"/><circle cx="28.31" cy="64.33" r="0.81"/><circle cx="45.35" cy="46.91" r="0.81"/><circle cx="43.68" cy="48.35" r="0.81"/><circle cx="42.02" cy="49.78" r="0.81"/><circle cx="40.36" cy="51.22" r="0.81"/><circle cx="38.7" cy="52.66" r="0.81"/><circle cx="37.04" cy="54.09" r="0.81"/><circle cx="35.33" cy="55.38" r="0.81"/><circle cx="33.71" cy="56.96" r="0.81"/><circle cx="32.05" cy="58.4" r="0.81"/><circle cx="30.39" cy="59.84" r="0.81"/><circle cx="28.73" cy="61.27" r="0.81"/><circle cx="27.07" cy="62.71" r="0.81"/><circle cx="35.95" cy="73.34" r="0.81"/><circle cx="37.56" cy="74.29" r="0.81"/><circle cx="39.18" cy="75.25" r="0.81"/><circle cx="40.8" cy="76.21" r="0.81"/><circle cx="42.41" cy="77.17" r="0.81"/><circle cx="44.03" cy="78.12" r="0.81"/><circle cx="45.65" cy="79.08" r="0.81"/><circle cx="47.27" cy="80.04" r="0.81"/><circle cx="48.88" cy="81" r="0.81"/><path class="cls-2" d="M75.37,56.9,81,46.06a4.29,4.29,0,0,0,.17-2.88c-.56,1.09-5.18-.7-9.39-2.88s-8.33-4.92-7.77-6a4.3,4.3,0,0,0-2.25,1.8L56.13,46.93c-2.78,1.53-5.53,5.93-5.53,5.93"/><path class="cls-3" d="M92.24.74C89.52-.67,78.49,6.12,73.4,16.11l-11,21.15L71,41.71l8.58,4.44L90.57,25C95.79,15.08,95,2.15,92.24.74Z"/><path class="cls-4" d="M79.61,46.15,90.57,25c4.87-9.25,4.48-21.12,2.19-23.82,3.66,14-11.74,37.25-12.35,38.19C73.16,41,67,35.45,64.74,32.83l-2.29,4.43L71,41.71Z"/><path class="cls-5" d="M75.37,56.9,81,46.06a4.29,4.29,0,0,0,.17-2.88c-.56,1.09-5.18-.7-9.39-2.88s-8.33-4.92-7.77-6a4.3,4.3,0,0,0-2.25,1.8L56.13,46.93c-2.78,1.53-5.53,5.93-5.53,5.93"/><path class="cls-4" d="M75.37,56.9,81,46.06a4.29,4.29,0,0,0,.17-2.88c-.2.38-.9.4-1.91.18h0c-3.07,8.85-7.93,13-7.93,13"/><path class="cls-2" d="M50.94,53.44s1.34-2.5,2.72-4.5a27.74,27.74,0,0,0-3.06,3.92l.54,1.33,2.23-.4.86,1.36,3.23-.63,1.66,1.58,3.35-.62,1.82,1.4,4-.61,3,2.41L74,58l1.37-1.28L50.77,52.9"/><ellipse class="cls-6" cx="12.61" cy="8.71" rx="13.76" ry="6.74" transform="translate(-2.59 6.77) rotate(-27.38)"/><ellipse class="cls-7" cx="12.92" cy="9.06" rx="13.33" ry="6.28" transform="translate(-2.72 6.96) rotate(-27.38)"/><ellipse class="cls-8" cx="12.99" cy="9.23" rx="13.02" ry="5.87" transform="translate(-2.79 7.01) rotate(-27.38)"/><path class="cls-2" d="M32.62,70.71C30,69.44,27.5,65.56,27.5,65.56L1.72,15.76c-.29-.56-2.09-5.31,8.94-11,10.75-5.57,13.88-1.51,14.17-1L50.62,53.6"/><path class="cls-5" d="M50.62,53.6c-1.55-3-24.66,9-23.12,12,0,0,2.49,3.88,5.12,5.15l3.15-.87.57-2.5,2.87-1.58-.29-1.46L43.25,62l0-1.39L46.86,59l-1.48-1.1,5.38-4.07"/><path class="cls-4" d="M50.62,53.6,24.83,3.79C24.58,3.32,22.28.31,15,2.85c7.51,8,20.18,21.75,31.41,54.74"/><path class="cls-9" d="M2.21,15.48,27.86,65a42.64,42.64,0,0,0,2.45,4,22,22,0,0,1-2.81-3.43L1.72,15.76c-.29-.56-2.09-5.31,8.94-11,.57-.3,1.12-.56,1.65-.8C7.71,6.7,2.1,11,2.21,15.48Z"/></g></g></g></svg>