<svg xmlns="http://www.w3.org/2000/svg" width="179.83" height="258.41" viewBox="0 0 179.83 258.41"><defs><style>.cls-1{fill:#fff;}.cls-2{fill:#eee;}.cls-3{fill:#7a7a7a;}.cls-4{fill:#ccc;}</style></defs><g id="Layer_2" data-name="Layer 2"><g id="Layer_15" data-name="Layer 15"><path class="cls-1" d="M26.21,184.46l93.15-37.32s17.07,6.51,28.49,19,11,27,11,32.25a141.64,141.64,0,0,1-4.78,33.27c-4,15.77-26.18,22.13-26.18,22.13s-8.82.87-22,2-12.15-8.1-12.15-8.1-12.44,3.76-21.85,3.76a20.51,20.51,0,0,1-14.6-5.79s.28,2.31-13.75,1.3-5.35-16.49-5.35-16.49c-12.87-11.57-12-46-12-46"/><path class="cls-2" d="M28.69,188.39s2.89,30.39,12.42,39c1.25,1,1.29,3,0,6.28,0,0-2.58,5.38-1.3,7.17.48.82,1.6,2.33,2.54,2.33,0,0,12.38-.07,14-.89,0,0-.41,3.14-.52,3.18S41,245.08,41,245.08l-3.67-2.54c-.11-.07-.11-8.47-.11-8.47l.5-4.27-6.25-11.19-3.43-14-.27-16.75Z"/><path class="cls-2" d="M61,235.52l-.47,7.79c5.67,5.84,16.9,5.23,31.51.68v2.26s-27.77,9.9-33.6-2l.61-9.51Z"/><path class="cls-2" d="M111.5,205.63c-17.08,13.44-6.56,24.87.07,30.31,1.87,1.41,2,4.08,0,6.07-1.13,1.2-10.88-1.26-13,2.19-2.26,3.62,1,6.42,1,6.42,1.17,1.46,32.62,5.25,53-20.19,0,0-4.5,21.46-33.74,23.16,0,0-28.2,5.65-23.58-7.15s12.33-7.05,12.33-7.05C95.69,224,95.48,212.24,111.5,205.63Z"/><path class="cls-3" d="M106.13,258.3c13-1.14,21.92-2,22-2a3.4,3.4,0,0,0,.46-.09c1-.28,23.58-7,27.94-23.95,4.51-17.53,4.86-30.38,4.86-33.9v-.54c0-5.66,0-20.68-11.67-33.44S121,145,120.27,144.76a2.54,2.54,0,0,0-1.86,0L25.26,182.09a2.56,2.56,0,0,0-1.6,2.3c0,1.4-.69,33.35,11.45,46.57-1.34,3-3.41,9-1,13.52,1.62,3,4.73,4.68,9.24,5,7.91.57,11.72.16,13.74-.58A23.69,23.69,0,0,0,71.92,254c7,0,15.32-1.93,19.66-3.06A9.39,9.39,0,0,0,93.94,255c2.21,2.26,5.5,3.4,9.79,3.4C104.5,258.41,105.3,258.38,106.13,258.3ZM93,245.22c-.12,0-12.2,3.66-21.1,3.66a17.9,17.9,0,0,1-12.72-4.95,2.56,2.56,0,0,0-3-.61,2.5,2.5,0,0,0-1,.83c-.78.25-3.53.82-11.49.25-2.66-.19-4.38-1-5.11-2.34-1.6-2.95.82-8.61,1.8-10.36a2.56,2.56,0,0,0-.52-3.14c-10.31-9.27-11.14-35.5-11.17-42.38l90.6-36.29c3.61,1.51,17.22,7.68,26.63,17.92,10.37,11.29,10.33,24.38,10.32,30v.56c0,3.37-.34,15.68-4.7,32.63-3.43,13.39-22,19.58-24.21,20.26-1.53.15-9.92,1-21.71,2-3.79.33-6.58-.27-8.06-1.74a4.89,4.89,0,0,1-1.33-3.55,2.53,2.53,0,0,0-2.53-2.82A2.64,2.64,0,0,0,93,245.22ZM54.78,246h0Zm0,0h0Zm0,0Zm0,0Zm0,0h0Zm0,0Z"/><path class="cls-1" d="M79.88,110.83a39.51,39.51,0,0,1-.11-8.83c.48-4.8,1.77-8.59,5.13-16.31,5.34-12.22,5.88-11.35,7.86-17.07C95,62.11,95.7,57,96.51,50.85c1.25-9.51,1.94-14.74.77-21.66-1.06-6.34-2.47-14.69-9.55-20.38-6.27-5-13.49-5.18-16-5.23-15-.74-23.17,7.15-20.29,22.92,1.27,9,5.25,10.3,8.73,23a44.15,44.15,0,0,1,2.11,12c.06,4-.56,6.48-3.84,18.43-3.47,12.64-4,14.19-4.8,17.86A148.62,148.62,0,0,0,50.9,114"/><path class="cls-2" d="M54.32,101c4-12.63,7.08-21.48,9.53-28.14A35.37,35.37,0,0,0,66,64.57a38.82,38.82,0,0,0-1.69-16.15c-.43-1.5-.44-1.27-6-14.68C56,28.36,54.86,25.6,54.78,22.53a18.39,18.39,0,0,1,2.61-10.32C61.14,6.54,69.21,4,77.71,5.49l-11.62-1L57.72,7.16,51.37,13.5,51,23.56l2.06,8.93,4,8.84L60,48.82,62.43,63.6,53.69,99.89l-.09,1.24Z"/><path class="cls-4" d="M78.19,97.23c.06-.53-2.15-1.3-1.13-7.07a61.27,61.27,0,0,1,4.41-11.29A132.14,132.14,0,0,0,88,63.79c4.12-11.63,2.39-22,2.32-25.5-.13-5.55-1.2-13.27-6-19.37C76.08,8.51,58,10.82,54.6,10.52l7.61-6,16.48.06,9.4,5.12,6.15,9.66,2,7.65.53,15.79L94.33,59.44,91,70.5,85.7,82.93,79.76,97.62Z"/><path class="cls-3" d="M80.42,110.76a39.25,39.25,0,0,1,2-15.14c1.75-4.8,4.09-9.55,6.29-14.27,1.64-3.61,3.81-7,5.24-10.77,2.45-6.27,3.6-13,4.45-19.63.68-5.21,1.55-10.48,1.43-16A49.1,49.1,0,0,0,99,26.78c-.92-5.41-2.49-11-5.94-15.51C86.57,2.76,76.36.69,66.24,1.59,53.79,2.87,47.61,11.57,49,23.75c.1.64.33,2.39.44,3.06a33.07,33.07,0,0,0,4.29,11.65A60.89,60.89,0,0,1,59.05,52.8a36,36,0,0,1,1.28,7.39,25,25,0,0,1-.57,7.35c-1.08,5-2.56,10.13-3.82,15.22L54,90.42A118.05,118.05,0,0,0,50.4,114l1,.11q1.34-7.75,3.3-15.36c2-7.53,4.56-15.11,6.63-22.69,1-3.88,2.31-7.76,2.71-11.86.57-7-1.39-13.57-3.54-20.11-1.55-4.94-4.84-9.54-6.29-14.32-3-11.73-1.35-22.46,12.46-24,11.76-1,22.19,2.39,26.39,14.37A57.44,57.44,0,0,1,95.84,35c.17,5-.6,10.18-1.23,15.41-.94,7.77-2.11,15.29-5.53,22.27a158.58,158.58,0,0,0-6.56,14.49,73.1,73.1,0,0,0-2.65,7.59,34.7,34.7,0,0,0-.53,16.1l1.08-.14Z"/><path class="cls-3" d="M68.84,92.17A133.72,133.72,0,0,0,81.06,28.83a7,7,0,1,0-14,.67,131.41,131.41,0,0,1,3,31.07,128.59,128.59,0,0,1-4.61,30.36,1.81,1.81,0,0,0,3.39,1.24Z"/><path class="cls-1" d="M16.37,113.58c-19.82,20.68-16.63,45-.87,61.91q24.86,23.7,56.7,23.14c33,1.69,66.1-63.35,32.69-92.43C89.27,92.9,55.57,73.66,16.37,113.58Z"/><path class="cls-4" d="M4.33,151.15C-5,110.84,56.72,77,72.93,94.81c-2.85-.3-62.62,3.56-68,56.34"/><path class="cls-2" d="M18.27,174.61s42.29,24.4,70.28,9.53,23.1-68,23.1-68,23.22,29-14,68.15S18.27,174.61,18.27,174.61Z"/><path class="cls-3" d="M116.15,164.07c7.43-18.41,8.82-43.78-9.61-59.81-17.2-14.65-52-33.16-92,7.53l0,0c-19,19.87-19.39,45.55-.89,65.41l.1.1c17,16.2,36.65,24.21,58.42,23.85.42,0,.84,0,1.27,0C89.83,201.21,107.23,186.17,116.15,164.07Zm-44,32c-20.42.35-38.86-7.16-54.84-22.39C.87,156,1.21,133.1,18.2,115.35c37.06-37.73,69.19-20.71,85-7.22,16.38,14.25,15,37.25,8.2,54-8.23,20.4-24.65,34.68-39.09,33.92h-.17Z"/><ellipse cx="23.79" cy="129.15" rx="4.47" ry="4.72"/><ellipse cx="39.41" cy="141.74" rx="3.28" ry="4.72" transform="translate(-106.74 124.94) rotate(-67.9)"/><ellipse cx="75.35" cy="143.36" rx="5.66" ry="5.37" transform="translate(-85.04 165.87) rotate(-70.26)"/><path d="M41.86,152a.94.94,0,0,1-.36-.08c-3-1.42-4-3.46-4.28-5.13a5,5,0,0,1-1.48.79c-1.61.52-3.52.2-5.84-1a.85.85,0,0,1,.78-1.51c1.89,1,3.37,1.26,4.54.88a3.91,3.91,0,0,0,2.23-2.17l1.56.68c0,.15-1.27,3.79,3.22,5.91a.85.85,0,0,1,.4,1.13A.84.84,0,0,1,41.86,152Z"/><path class="cls-3" d="M57.52,246.14H57.4a1.67,1.67,0,0,1-1.54-1.77l.73-10.2a1.66,1.66,0,0,1,3.31.24l-.73,10.19A1.66,1.66,0,0,1,57.52,246.14Z"/><path class="cls-3" d="M63.68,235.93c-8,0-14-2.11-18.37-6.37a1.66,1.66,0,0,1,2.32-2.37c5.85,5.75,15.75,6.92,30.25,3.58a1.66,1.66,0,0,1,.75,3.23A67.12,67.12,0,0,1,63.68,235.93Z"/><path class="cls-3" d="M93.79,249a2.54,2.54,0,0,1-2.54-2.31,9.78,9.78,0,0,1,2.86-7.41,13,13,0,0,1,7-3.41,19.49,19.49,0,0,1-5.69-12.91c-.29-7.81,4.28-15.42,12.55-20.89a2.55,2.55,0,0,1,2.81,4.26c-6.75,4.46-10.49,10.45-10.27,16.44.19,5.27,3.48,10.06,9,13.16a2.55,2.55,0,0,1-1.46,4.77c-4.93-.42-8.5.33-10.33,2.18a4.74,4.74,0,0,0-1.4,3.35A2.54,2.54,0,0,1,94,249Z"/><path class="cls-1" d="M160.51,196.24c22-4.41,23.5,32-2.39,25.61"/><path class="cls-4" d="M158.12,220.31c21.72,4.33,16.54-14.68,16.54-14.68.85,15.25-16.23,11.58-16.23,11.58Z"/><path class="cls-3" d="M163.85,225.14a26.4,26.4,0,0,1-6.34-.82,2.55,2.55,0,1,1,1.23-4.95c6.37,1.59,11.36.4,14-3.35a12,12,0,0,0,0-13c-2.44-3.78-6.64-5.28-11.81-4.25a2.55,2.55,0,1,1-1-5c7.26-1.45,13.49.91,17.09,6.48a17,17,0,0,1-.17,18.76C174,223,169.44,225.14,163.85,225.14Z"/><g id="EAR_1" data-name="EAR 1"><path class="cls-1" d="M93.67,112.37c0-1.14.58-2.88,2-6.44,1.92-4.69,4.35-8.13,10.06-14.9,9-10.72,9.31-9.68,13-14.85,4.22-5.88,6.43-10.84,9.09-16.78,4.11-9.22,6.37-14.28,7.27-21.61.82-6.7,1.9-15.54-3.54-23.39-4.81-6.95-12-9.26-14.56-10.06-14.94-5.26-25.49.26-27.31,17-1.4,9.42,2.21,11.94,1.92,25.77-.09,4.52-.17,8.1-1.48,12.77C89,64,87.68,66.29,80.8,77.35,73.52,89,72.56,90.46,70.62,93.91c-1.29,2.3-4,7.44-4.91,9.49"/><path class="cls-4" d="M93.13,112.64s-5.14-5.3,12.46-28.9C116,72.52,121.22,59,123.28,53.32c3.92-9.92,7.41-20.7,3.33-32C121.22,7.78,101.75,4.75,101.75,4.75l5.8-1.89,16.58,6,7,6.44,3.55,11.1L133,42.4l-2.9,9.21L124,64.93,118.19,75.5l-5.13,6.15-5.87,5.82-3.51,5.39-4,5.56L96.26,104Z"/><path class="cls-3" d="M94.41,112.33a12.51,12.51,0,0,1,1.14-3.49,40.78,40.78,0,0,1,5.84-10.11,233,233,0,0,1,16-17.74C123,74.85,126.7,67.26,130,59.88c2.17-4.87,4.53-9.76,6.07-15.18,2.59-10.76,4-23.54-3.34-32.85C126.45,3.53,111.61-2.06,101.28.72,90.4,3.68,87,16.06,86.94,26.07c.09,4.1,1.36,8.29,1.85,12.15.78,7.43,1,15.55-1.36,22.72-1.74,4.64-4.9,9.22-7.44,13.62C78,78,73.9,85,71.94,88.44a128.6,128.6,0,0,0-6.79,14.7.62.62,0,0,0,1.1.57c2.92-4.49,5.41-9.16,8.5-13.54,2.27-3.3,6.73-10,8.91-13.33,2.88-4.67,6.17-9.14,8.14-14.35,2.72-7.93,2.61-16.64,1.81-24.91-.6-5-2.12-9.41-1.57-14.33.63-7,3-15.69,10.62-17.73,4.69-1.3,9.58-.2,14.25,1.37a24.41,24.41,0,0,1,12,7.89c4.83,5.94,5.12,13.84,4.18,21.21-.6,7.92-3.74,14.85-7,22.19s-6.48,14.32-11.57,20.27c-3.57,3.81-7.27,8-10.54,12.16-4.3,5.23-8.3,11-10.22,17.57a11.91,11.91,0,0,0-.87,4.22.74.74,0,0,0,.78.69.75.75,0,0,0,.69-.76Z"/></g><path class="cls-3" d="M92.18,90.22a140.73,140.73,0,0,0,28.88-61.35,7.35,7.35,0,1,0-14.4-2.95,138.94,138.94,0,0,1-5,32.42A134.83,134.83,0,0,1,89.05,88.08a1.9,1.9,0,0,0,3.13,2.14Z"/><ellipse class="cls-4" cx="62.66" cy="217.12" rx="9.88" ry="19.24" transform="translate(-158.52 263.44) rotate(-85.73)"/><ellipse class="cls-1" cx="22.34" cy="128.56" rx="2.04" ry="1.34" transform="translate(-106.21 106.17) rotate(-70.26)"/><ellipse class="cls-1" cx="72.93" cy="142.2" rx="2.04" ry="1.34" transform="translate(-85.54 162.83) rotate(-70.26)"/></g></g></svg>