<svg xmlns="http://www.w3.org/2000/svg" xmlns:xlink="http://www.w3.org/1999/xlink" width="751.52" height="118.51" viewBox="0 0 751.52 118.51"><defs><style>.cls-1{isolation:isolate;}.cls-2,.cls-4{fill:none;stroke-miterlimit:10;}.cls-2{stroke-width:11px;stroke:url(#linear-gradient);}.cls-3,.cls-5,.cls-6{fill:#e8cb5b;}.cls-4{stroke:#e8cb5b;stroke-linecap:round;stroke-width:2px;}.cls-5,.cls-8{mix-blend-mode:multiply;}.cls-6{mix-blend-mode:screen;}.cls-10,.cls-7,.cls-8{fill:#b2b2c1;}.cls-9{fill:#e8e8e8;}.cls-10{mix-blend-mode:overlay;}</style><linearGradient id="linear-gradient" x1="134.75" y1="60.49" x2="653.47" y2="60.49" gradientUnits="userSpaceOnUse"><stop offset="0" stop-color="#e8cb5b"/><stop offset="1" stop-color="#b2b2c1"/></linearGradient></defs><g class="cls-1"><g id="Layer_2" data-name="Layer 2"><g id="Layer_21" data-name="Layer 21"><rect class="cls-2" x="140.25" y="27.72" width="507.71" height="65.53" rx="12"/><circle class="cls-3" cx="59.26" cy="59.26" r="36.64"/><line class="cls-4" x1="59.26" y1="1" x2="59.26" y2="15.47"/><line class="cls-4" x1="30.13" y1="8.8" x2="37.36" y2="21.33"/><line class="cls-4" x1="8.8" y1="30.13" x2="21.33" y2="37.36"/><line class="cls-4" x1="1" y1="59.26" x2="15.47" y2="59.26"/><line class="cls-4" x1="8.8" y1="88.38" x2="21.33" y2="81.15"/><line class="cls-4" x1="30.13" y1="109.71" x2="37.36" y2="97.18"/><line class="cls-4" x1="59.26" y1="117.51" x2="59.26" y2="103.04"/><line class="cls-4" x1="88.38" y1="109.71" x2="81.15" y2="97.18"/><line class="cls-4" x1="109.71" y1="88.38" x2="97.18" y2="81.15"/><line class="cls-4" x1="117.51" y1="59.26" x2="103.04" y2="59.26"/><line class="cls-4" x1="109.71" y1="30.13" x2="97.18" y2="37.36"/><line class="cls-4" x1="88.38" y1="8.8" x2="81.15" y2="21.33"/><path class="cls-5" d="M94.89,50.74c-7.07,34.29-42.57,38.59-56,39a36.64,36.64,0,0,0,56-39Z"/><path class="cls-6" d="M22.62,59.26a36.55,36.55,0,0,0,2.83,14.13c-.8-11-.38-48.74,42.79-49.66A36.67,36.67,0,0,0,22.62,59.26Z"/><path class="cls-7" d="M700.9,60.49A36.59,36.59,0,0,1,726,25.75a36.6,36.6,0,1,0,0,69.49A36.61,36.61,0,0,1,700.9,60.49Z"/><path class="cls-8" d="M699.54,41.06a11.93,11.93,0,0,0,3.16,8.08,36.69,36.69,0,0,1,14-18.78,11.93,11.93,0,0,0-17.2,10.7Z"/><path class="cls-8" d="M695.58,51.79a5.94,5.94,0,1,0-5.93,5.93A5.93,5.93,0,0,0,695.58,51.79Z"/><path class="cls-8" d="M696.51,92.34a7,7,0,1,0-8.71-6.85A36.72,36.72,0,0,0,696.51,92.34Z"/><path class="cls-8" d="M714.35,91.81a3.82,3.82,0,0,0-3.83,3.83,3.7,3.7,0,0,0,.23,1.25,36.18,36.18,0,0,0,3.77.2c1.15,0,2.3-.06,3.42-.17a3.64,3.64,0,0,0,.24-1.28A3.83,3.83,0,0,0,714.35,91.81Z"/><polygon class="cls-9" points="738.85 25.54 740.59 29.07 744.48 29.63 741.66 32.38 742.33 36.25 738.85 34.42 735.37 36.25 736.03 32.38 733.22 29.63 737.11 29.07 738.85 25.54"/><polygon class="cls-9" points="715.55 56.9 716.56 58.95 718.82 59.28 717.19 60.88 717.57 63.13 715.55 62.06 713.53 63.13 713.91 60.88 712.28 59.28 714.54 58.95 715.55 56.9"/><polygon class="cls-9" points="746.53 80.01 748.08 83.13 751.52 83.63 749.03 86.06 749.62 89.5 746.53 87.88 743.45 89.5 744.04 86.06 741.55 83.63 744.99 83.13 746.53 80.01"/><polygon class="cls-9" points="672.3 83.6 674.22 87.48 678.51 88.1 675.4 91.13 676.14 95.4 672.3 93.38 668.47 95.4 669.2 91.13 666.1 88.1 670.39 87.48 672.3 83.6"/><polygon class="cls-9" points="677.69 22.86 679.18 25.88 682.52 26.37 680.11 28.72 680.67 32.04 677.69 30.47 674.71 32.04 675.28 28.72 672.87 26.37 676.2 25.88 677.69 22.86"/><path class="cls-10" d="M714.52,23.89a36.59,36.59,0,0,0-33.83,50.56C671.08,25.12,720,25.26,725.23,25.51A36.44,36.44,0,0,0,714.52,23.89Z"/></g></g></g></svg>