<svg id="sky" xmlns="http://www.w3.org/2000/svg" xmlns:xlink="http://www.w3.org/1999/xlink" width="1920" height="1080" viewBox="0 0 1920 1080"><defs><style>.cls-1{fill:url(#linear-gradient);}.cls-2{fill:url(#linear-gradient-2);}.cls-3{fill:url(#linear-gradient-3);}.cls-4{fill:url(#linear-gradient-4);}.cls-5{fill:url(#linear-gradient-5);}.cls-6{fill:url(#linear-gradient-6);}.cls-7{fill:url(#linear-gradient-7);}.cls-8{fill:url(#linear-gradient-8);}</style><linearGradient id="linear-gradient" x1="306.56" y1="19.47" x2="306.56" y2="117.64" gradientUnits="userSpaceOnUse"><stop offset="0.46" stop-color="#fff" stop-opacity="0"/><stop offset="1" stop-color="#fff" stop-opacity="0.2"/></linearGradient><linearGradient id="linear-gradient-2" x1="968.25" y1="424.44" x2="968.25" y2="497.44" xlink:href="#linear-gradient"/><linearGradient id="linear-gradient-3" x1="1529.45" y1="1.57" x2="1529.45" y2="160.63" xlink:href="#linear-gradient"/><linearGradient id="linear-gradient-4" x1="337.2" y1="290.98" x2="337.2" y2="378.03" xlink:href="#linear-gradient"/><linearGradient id="linear-gradient-5" x1="219.15" y1="548.58" x2="219.15" y2="615.77" xlink:href="#linear-gradient"/><linearGradient id="linear-gradient-6" x1="1576.23" y1="399.03" x2="1576.23" y2="474.49" xlink:href="#linear-gradient"/><linearGradient id="linear-gradient-7" x1="881.78" y1="141.66" x2="881.78" y2="260.62" gradientUnits="userSpaceOnUse"><stop offset="0.46" stop-color="#fff" stop-opacity="0"/><stop offset="1" stop-color="#fff" stop-opacity="0.1"/></linearGradient><linearGradient id="linear-gradient-8" x1="740.56" y1="597.51" x2="740.56" y2="666.07" xlink:href="#linear-gradient-7"/></defs><path class="cls-1" d="M32.7,85c5.74,27.21,31,48.91,57.12,54.27,36.08,7.4,44.72-22.36,92.82-23.57,43.07-1.08,50.81,22.42,90,15,29.71-5.63,34.43-20.9,58.55-18.57,27,2.61,29,22.53,57.12,26.42,28.45,3.95,31.71-15.72,65-13.56,27.24,1.76,36.59,15.69,60.69,10,5-1.18,12.38-5.07,27.14-12.85,27.27-14.38,40.9-21.7,40.69-27.85-.34-10-24.13-22.22-45-18.56-19.55,3.44-22,18.27-37.84,18.56-19,.35-21.44-20.86-43.55-25.7-25.76-5.64-38,19.75-63.55,14.28C372.67,78.8,375.62,63.71,354,52.2c-17.3-9.21-46.28-6-103.53.71-23.91,2.82-35.32,5-47.84-2.14-18.16-10.34-15.45-27.05-28.56-31.42-24.89-8.29-50.35,46.74-81.39,40.7-21.86-4.25-25.85-34.77-40-32.84C39.06,29.07,27.31,59.54,32.7,85Z"/><path class="cls-2" d="M764.61,473.2c4.27,20.23,23.06,36.37,42.47,40.35,26.83,5.51,33.26-16.62,69-17.52,32-.81,37.78,16.67,66.89,11.15,22.09-4.19,25.61-15.54,43.54-13.8,20.08,1.94,21.57,16.74,42.47,19.64,21.16,2.93,23.58-11.69,48.31-10.09,20.25,1.31,27.21,11.67,45.13,7.43,3.72-.87,9.2-3.77,20.17-9.55,20.28-10.7,30.42-16.14,30.26-20.71-.25-7.45-17.94-16.53-33.44-13.8-14.54,2.56-16.36,13.59-28.14,13.8-14.13.26-15.94-15.51-32.38-19.11-19.16-4.19-28.23,14.69-47.25,10.62-14.26-3.05-12.06-14.27-28.14-22.83-12.87-6.85-34.41-4.48-77,.53-17.78,2.09-26.27,3.71-35.57-1.59-13.51-7.69-11.49-20.11-21.24-23.36-18.51-6.17-37.44,34.75-60.52,30.26C793,451.46,790,428.76,779.48,430.2,769.34,431.58,760.61,454.24,764.61,473.2Z"/><path class="cls-3" d="M1175.59,92.71c9.93,47.71,53.22,91.52,93.45,90.38,32.25-.91,40.36-30.08,73.53-27.57,31.85,2.41,34.78,30.1,62.81,32.17,46.77,3.46,85.54-70.15,104.17-59.74,8,4.49,3.56,19.76,13.79,24.51,11.22,5.2,21.13-11.07,38.3-10.73,21.82.43,24.24,27.09,47.49,35.24,30.6,10.72,48.65-27.71,88.85-24.51,33.54,2.66,34.17,30.47,73.53,41.36,41.41,11.45,99-3.22,111.83-38.3,9.28-25.36-8.09-52.41-13.79-61.28-13.13-20.43-41.38-47-70.47-42.89-25.37,3.6-25.54,26.91-53.61,33.7-34,8.23-68.67-17.49-78.13-24.51C1633.39,35.36,1626.88,6,1612.19,8.46c-15.46,2.6-10,35.43-32.17,49-21.43,13.15-53.73-.94-102.64-23-51.73-23.31-71.18-41-85.79-32.17-18,10.93-4,47.27-21.44,56.68-14.62,7.88-32.22-13.46-75.07-32.17-28.21-12.32-75.87-33.13-102.64-13.79C1164,33.62,1174.7,88.4,1175.59,92.71Z"/><path class="cls-4" d="M143.54,340.86c5.44,26.11,29.13,50.08,51.15,49.46,17.65-.5,22.09-16.46,40.24-15.09,17.43,1.32,19,16.47,34.37,17.61,25.6,1.89,46.82-38.4,57-32.7,4.41,2.46,1.95,10.82,7.55,13.41,6.14,2.85,11.56-6.05,21-5.86,11.95.23,13.27,14.82,26,19.28,16.75,5.87,26.63-15.17,48.63-13.42,18.35,1.46,18.7,16.68,40.24,22.64,22.66,6.27,54.17-1.76,61.2-21,5.08-13.88-4.43-28.68-7.54-33.53-7.19-11.19-22.65-25.74-38.57-23.48-13.88,2-14,14.73-29.34,18.44-18.61,4.51-37.58-9.57-42.76-13.41-18.58-13.78-22.14-29.86-30.18-28.51-8.47,1.43-5.5,19.4-17.61,26.83-11.73,7.2-29.41-.51-56.17-12.57-28.31-12.76-39-22.47-46.95-17.61-9.85,6-2.2,25.87-11.74,31-8,4.32-17.63-7.37-41.08-17.6-15.44-6.75-41.53-18.13-56.17-7.55C137.18,308.52,143.05,338.5,143.54,340.86Z"/><path class="cls-5" d="M69.67,587.08c4.2,20.15,22.48,38.66,39.48,38.18,13.62-.38,17-12.71,31.06-11.65,13.46,1,14.69,12.72,26.53,13.59,19.76,1.46,36.14-29.63,44-25.24,3.4,1.9,1.5,8.35,5.82,10.36,4.74,2.2,8.93-4.68,16.18-4.53,9.22.18,10.25,11.44,20.06,14.88,12.93,4.53,20.56-11.7,37.54-10.35,14.17,1.12,14.44,12.87,31.06,17.47,17.49,4.84,41.82-1.36,47.24-16.18,3.92-10.71-3.42-22.14-5.82-25.88-5.55-8.64-17.49-19.87-29.77-18.12-10.72,1.52-10.79,11.36-22.65,14.23-14.36,3.48-29-7.39-33-10.35-14.34-10.64-17.09-23-23.29-22-6.53,1.1-4.25,15-13.59,20.71-9.05,5.55-22.7-.4-43.36-9.71-21.85-9.85-30.07-17.34-36.24-13.59-7.6,4.62-1.69,20-9.06,23.94-6.17,3.33-13.61-5.68-31.71-13.59-11.92-5.2-32.05-14-43.36-5.82C64.76,562.12,69.29,585.26,69.67,587.08Z"/><path class="cls-6" d="M1372.27,442.27c5.72,22.64,30.67,43.42,53.86,42.88,18.59-.43,23.26-14.27,42.38-13.08,18.36,1.14,20,14.28,36.21,15.26,27,1.64,49.3-33.28,60-28.34,4.64,2.13,2,9.37,8,11.63,6.46,2.46,12.18-5.25,22.07-5.09,12.58.2,14,12.85,27.37,16.71,17.64,5.09,28-13.14,51.22-11.62,19.33,1.26,19.7,14.45,42.38,19.62,23.87,5.43,57-1.53,64.46-18.17,5.35-12-4.67-24.87-8-29.07-7.57-9.7-23.85-22.31-40.62-20.35-14.62,1.71-14.72,12.76-30.9,16-19.6,3.9-39.58-8.3-45-11.63-19.57-11.95-23.32-25.89-31.79-24.71-8.91,1.23-5.79,16.81-18.54,23.25-12.35,6.25-31-.44-59.16-10.9-29.82-11.06-41-19.47-49.45-15.26-10.37,5.19-2.31,22.43-12.36,26.89-8.43,3.74-18.57-6.39-43.27-15.26-16.26-5.84-43.73-15.72-59.16-6.54C1365.57,414.24,1371.75,440.23,1372.27,442.27Z"/><path class="cls-7" d="M659.38,180.89c-46.12,35-53.65,37.85-53.07,45.3C607.62,243.3,650,263,687.85,256c40.55-7.52,61.12-43,75.08-35,10.74,6.16-.8,27.5,10.35,41.42,15.78,19.7,60.32,3.8,143.68-14.23,114.81-24.84,140.6-18.55,147.56-6.48,7.18,12.44-8.14,26.67,0,37.54,14.15,18.88,83.62,7,91.91-24.59,4.63-17.69-10.15-40.56-28.48-53.07-49.18-33.55-104.09,21-161.8-10.36-34.62-18.83-30.93-47.21-59.54-50.48-34-3.88-49.4,35-97.08,33.66-8.19-.24-20.13-3.18-44-9.07-39.79-9.8-47.39-16.07-63.43-12.94C692.7,154.25,690.32,157.37,659.38,180.89Z"/><path class="cls-8" d="M612.37,620.11c-26.58,20.2-30.92,21.82-30.59,26.12.76,9.86,25.19,21.2,47,17.16,23.37-4.34,35.23-24.76,43.28-20.15,6.19,3.55-.47,15.85,6,23.88,9.1,11.35,34.77,2.18,82.82-8.21,66.17-14.32,81-10.69,85-3.73,4.13,7.17-4.7,15.37,0,21.63,8.15,10.89,48.19,4.06,53-14.17,2.67-10.2-5.85-23.38-16.42-30.59-28.34-19.33-60,12.12-93.25-6-20-10.85-17.83-27.21-34.32-29.09-19.59-2.24-28.48,20.17-56,19.39-4.72-.13-11.6-1.83-25.36-5.22-22.93-5.65-27.31-9.27-36.56-7.46C631.58,604.76,630.21,606.56,612.37,620.11Z"/></svg>