<svg xmlns="http://www.w3.org/2000/svg" xmlns:xlink="http://www.w3.org/1999/xlink" width="1920" height="1080" viewBox="0 0 1920 1080"><defs><style>.cls-1{isolation:isolate;}.cls-2{fill:url(#linear-gradient);}.cls-10,.cls-3,.cls-4,.cls-5,.cls-6,.cls-7,.cls-8,.cls-9{fill:#2b160b;}.cls-3,.cls-6,.cls-7{mix-blend-mode:screen;}.cls-3,.cls-4{opacity:0.14;}.cls-10,.cls-4{mix-blend-mode:overlay;}.cls-5,.cls-8,.cls-9{mix-blend-mode:multiply;}.cls-5{opacity:0.09;}.cls-6{opacity:0.21;}.cls-7,.cls-8{opacity:0.15;}.cls-9{opacity:0.12;}.cls-10{opacity:0.17;}</style><linearGradient id="linear-gradient" x1="960" y1="814.44" x2="960" y2="1062.18" gradientUnits="userSpaceOnUse"><stop offset="0.42" stop-color="#1e0e07"/><stop offset="0.7" stop-color="#180d05"/><stop offset="1" stop-color="#0b0a00"/></linearGradient></defs><g class="cls-1"><g id="FRONT2_ground" data-name="FRONT2 ground"><path class="cls-2" d="M0,833c49.87-6.48,125.23-14.75,217.17-18.63,409-17.27,483.08,80.3,805.79,71.84,262.65-6.87,309.33-74,646.47-69.23,105.28,1.49,192.07,9.34,250.57,16v247.51H0Z"/><path class="cls-3" d="M495.25,845.6c47.75-11.94,48.51-18.34,64.34-18.9,25.35-.89,26.25,15.43,62.3,18.39,14.14,1.16,14.71-1.3,35.23-1.53,25.08-.3,68.08,2.86,68.94,10.72,1,9-52.22,32.88-110.8,30.38-47-2-61.52-19.47-90.39-7.4-29.91,12.5-35.19,40-58.22,38.81-17-.86-33.87-16.8-33.7-30.13.28-21.12,43.39-35.21,50-37.28C486.6,847.54,486.29,847.84,495.25,845.6Z"/><path class="cls-4" d="M1574.78,896c-46.65,15.68-46.9,22.13-62.64,23.94-25.2,2.9-27.39-13.29-63.56-13.38-14.19,0-14.56,2.45-35,4.32-25,2.28-68.09,2.55-69.57-5.22-1.69-8.89,49.45-36.92,108-39.08,47-1.73,62.87,14.53,90.7.21,28.82-14.84,31.9-42.64,55-43.3,17-.5,35.1,14,36,27.35,1.4,21.08-40.45,38.54-46.92,41.13C1583.25,893.36,1583.54,893,1574.78,896Z"/><path class="cls-5" d="M230.6,836.33c33.93,5.47,36.18,1.57,46.49,5.57C293.61,848.3,289.7,859,312,870.83c8.76,4.63,9.8,3.21,23,8.7,16.17,6.71,42.91,20.56,41.3,25.85-1.84,6-42.56,6.74-79.48-11-29.62-14.22-34.13-29.42-56-29.61-22.64-.2-33.58,16-48,8.9-10.66-5.22-17.12-20.1-13.34-28.61,6-13.48,37.53-10.67,42.37-10.16C224.51,835.2,224.23,835.3,230.6,836.33Z"/><path class="cls-6" d="M1177.3,924.62c.2,2.34-31.09,13.53-45.44.49-8.9-8.09-4.64-19.46-12.7-23.45-5.23-2.6-11.44,0-35.66,13.68-27.7,15.63-31.61,19-33.23,17.58-4.28-3.83,10.56-38.94,42-56.18,5.07-2.78,31.27-17.14,57.65-6.84,12,4.71,27.67,15.94,26.38,26.38-1.6,12.92-28.17,17.48-27,23.2S1177.11,922.48,1177.3,924.62Z"/><path class="cls-7" d="M775.45,883.18c1.53-11.06,26.54-17.87,46-16.85,29.42,1.55,52.12,21.41,50.55,25s-24.51-11.78-48-2c-13,5.39-16.12,14.29-26.55,13.79C786.14,902.56,774.31,891.42,775.45,883.18Z"/><path class="cls-7" d="M1585.46,822c1.53-11.06,26.54-17.87,46-16.85,29.42,1.55,52.12,21.41,50.55,25s-24.51-11.79-48-2c-13,5.39-16.12,14.28-26.55,13.79C1596.15,841.34,1584.32,830.2,1585.46,822Z"/><path class="cls-8" d="M999.34,902.1C1001,916.9,970.94,934,945.52,939c-38.53,7.72-74.41-10.45-73.58-15.64.81-5,35.57,7.14,62.69-13.2,15-11.25,16.12-23.78,29.76-26.58C979.13,880.59,998.09,891.08,999.34,902.1Z"/><path class="cls-9" d="M321.85,821.51c-.54-12.71,43.76-31.92,60.77-18.38,9,7.16,6.13,20.14,15.32,23.49,9.48,3.46,16.5-8.92,27.57-6.64,12.8,2.63,23.73,23.36,18.38,33.19-7.8,14.34-49.47,4.08-55.66,2.55-12.61-3.1-22.7-8.19-42.89-18.38C322.57,825.85,321.91,822.89,321.85,821.51Z"/><path class="cls-10" d="M1391.38,863.38c10.18-5.79,17.54-19.55,13.79-27.57-5.39-11.54-32.65-8.91-59-6.13-56,5.91-94.53,10-114.89,39.83-14.67,21.51-17.68,53.16-6.9,60.51,8.83,6,28.36-3.22,39.58-15.57,14.19-15.64,6.78-27.17,18.89-39.83,18-18.85,55-14.85,67.15-13.53C1371.11,863.36,1380.2,869.75,1391.38,863.38Z"/></g></g></svg>