<svg xmlns="http://www.w3.org/2000/svg" xmlns:xlink="http://www.w3.org/1999/xlink" width="1920" height="1080" viewBox="0 0 1920 1080"><defs><style>.cls-1{fill:none;}.cls-2{isolation:isolate;}.cls-3{fill:#182a06;}.cls-14,.cls-4{mix-blend-mode:screen;}.cls-5{clip-path:url(#clip-path);}.cls-12,.cls-16,.cls-6{mix-blend-mode:multiply;}.cls-6{opacity:0.5;}.cls-7{clip-path:url(#clip-path-2);}.cls-8{fill:#1e0f08;}.cls-9{clip-path:url(#clip-path-3);}.cls-10{clip-path:url(#clip-path-4);}.cls-11,.cls-12{fill:#162605;}.cls-12{opacity:0.39;}.cls-13{fill:#4c5147;}.cls-14{opacity:0.41;}.cls-15{clip-path:url(#clip-path-5);}.cls-16{opacity:0.54;}.cls-17{clip-path:url(#clip-path-6);}.cls-18{clip-path:url(#clip-path-7);}</style><clipPath id="clip-path"><path class="cls-1" d="M-151.13,4.5c112.05-36.24,184.47-22.71,231-1.77s61.86,46.92,154.2,99c72.58,40.92,86.17,37.89,111.51,57.64,44.74,34.86,70.49,181.33,54.5,361.52L484.86,311,304-29.26,68.75-87.49Z"/></clipPath><clipPath id="clip-path-2"><path class="cls-1" d="M410.83,479.62c-35.27,15.31-129.95,57.21-171.93,37.8-29-13.43-27.58-29.66-52.46-38.33-60.1-20.95-106.07,60.64-167.75,45.2C-27.71,512.68-22,461.4-67.93,451c-40.29-9.09-67.75,25.25-152.7,73.15a870.54,870.54,0,0,1-117.87,55.3l23.31,103.76,576.75-59.42,161.52-45.06Z"/></clipPath><clipPath id="clip-path-3"><path class="cls-1" d="M1933.17-19.27c-72.78-10.24-127.9-6.78-163.37-2.1-19.94,2.64-37.56,6.17-47.17,20.06-13.71,19.83-1.84,47.38,12,90.79,6.75,21.07,25.72,80.32,30.77,119.18,8.84,67.94-18.33,123.53-43.15,174.29A457.8,457.8,0,0,1,1618,521l23.49-645.37,274.52,34.77Z"/></clipPath><clipPath id="clip-path-4"><path class="cls-1" d="M2035,723.45l-418-80.28,22.13-132.32c16,10.92,41,28.63,70.64,52.33,39.41,31.54,43.07,38.58,61.86,46.68,32.2,13.9,45.92,3.78,105.44,9.23,61.81,5.65,65.86,18.29,92.32,15,29.28-3.64,70.45-24.85,114.08-111.17"/></clipPath><clipPath id="clip-path-5"><path class="cls-1" d="M229,985.9c95-9.2,152.59,56.86,166,126.89,3,15.47,5.55,44.44-9.19,81.7l55.66-9.19L426.59,935.09l-190.47-8.68Z"/></clipPath><clipPath id="clip-path-6"><path class="cls-1" d="M206,1122c126.63-17.36,184.34-108.76,184.34-108.76L378.08,997.9c-87.83,92.93-201.7,99.57-201.7,99.57Z"/></clipPath><clipPath id="clip-path-7"><path class="cls-1" d="M294.34,1118.92s73-24,109.78-87.55l14.05,11s-17.11,59.75-48.77,76.6Z"/></clipPath></defs><g class="cls-2"><g id="Layer_7" data-name="Layer 7"><path class="cls-3" d="M23.08,588.46c47.58,19,77.58-24.7,132.84-7.3,36.49,11.5,36.77,34.78,62.86,41.84C276,638.48,369.85,552.37,405.35,460.81,472.63,287.27,352.22,37.2,170.76-30.68c-13.79-5.15-66.5-23.68-135.46-18C-140.8-34.09-242.23,123.57-266.25,164.41c0,0-95.07,161.63-42.51,357.86,21.44,80.05,51.6,96.05,64,100.89,51,19.85,118.62-25.77,125.89-30.79,41.62-28.77,48-57.31,73.71-56.66C-16,536.45-15.32,573.08,23.08,588.46Z"/><g class="cls-4"><g class="cls-5"><path class="cls-3" d="M23.08,588.46c47.58,19,77.58-24.7,132.84-7.3,36.49,11.5,36.77,34.78,62.86,41.84C276,638.48,369.85,552.37,405.35,460.81,472.63,287.27,352.22,37.2,170.76-30.68c-13.79-5.15-66.5-23.68-135.46-18C-140.8-34.09-242.23,123.57-266.25,164.41c0,0-95.07,161.63-42.51,357.86,21.44,80.05,51.6,96.05,64,100.89,51,19.85,118.62-25.77,125.89-30.79,41.62-28.77,48-57.31,73.71-56.66C-16,536.45-15.32,573.08,23.08,588.46Z"/></g></g><g class="cls-6"><g class="cls-7"><path class="cls-3" d="M23.08,588.46c47.58,19,77.58-24.7,132.84-7.3,36.49,11.5,36.77,34.78,62.86,41.84C276,638.48,369.85,552.37,405.35,460.81,472.63,287.27,352.22,37.2,170.76-30.68c-13.79-5.15-66.5-23.68-135.46-18C-140.8-34.09-242.23,123.57-266.25,164.41c0,0-95.07,161.63-42.51,357.86,21.44,80.05,51.6,96.05,64,100.89,51,19.85,118.62-25.77,125.89-30.79,41.62-28.77,48-57.31,73.71-56.66C-16,536.45-15.32,573.08,23.08,588.46Z"/></g></g><path class="cls-8" d="M-68.9,846.33c-1.51-1,62-5.94,84.28-18.93-.49,1.38,76.1-166.89,73.71-303.89,0,0,95-88.17,46.2-277.66,0,0-.65,175.55-42.31,218.74,0,0-31.88-220-140.24-306.32,0,0,174.45,252.28,68.88,524.06,0,0-43.47-101.89-17.07-264.28,0,0-59.65,112.38-7.89,303.72C-3.34,721.77,3.37,775.8-68.9,846.33Z"/><path class="cls-3" d="M1873.14,679.74c-87.87-4.63-145.74-52.21-166-69.37-28.14-23.83-53-44.9-60.58-79.58-7.1-32.61,7.06-49.95,40.49-133.71,31.35-78.57,47-118.51,43.88-150.64-5-51.66-31.94-53.32-46.94-118.76-4.76-20.76-23.89-105.39,16.1-146.72,40.94-42.31,134.48-29.51,196.19,5.83,100.48,57.54,121,179.65,162.19,423.87,23,136.59,15.69,182-12.4,215.37C1995.38,686.19,1899,681.11,1873.14,679.74Z"/><g class="cls-4"><g class="cls-9"><path class="cls-3" d="M1873.14,679.74c-87.87-4.63-145.74-52.21-166-69.37-28.14-23.83-53-44.9-60.58-79.58-7.1-32.61,7.06-49.95,40.49-133.71,31.35-78.57,47-118.51,43.88-150.64-5-51.66-31.94-53.32-46.94-118.76-4.76-20.76-23.89-105.39,16.1-146.72,40.94-42.31,134.48-29.51,196.19,5.83,100.48,57.54,121,179.65,162.19,423.87,23,136.59,15.69,182-12.4,215.37C1995.38,686.19,1899,681.11,1873.14,679.74Z"/></g></g><g class="cls-6"><g class="cls-10"><path class="cls-3" d="M1873.14,679.74c-87.87-4.63-145.74-52.21-166-69.37-28.14-23.83-53-44.9-60.58-79.58-7.1-32.61,7.06-49.95,40.49-133.71,31.35-78.57,47-118.51,43.88-150.64-5-51.66-31.94-53.32-46.94-118.76-4.76-20.76-23.89-105.39,16.1-146.72,40.94-42.31,134.48-29.51,196.19,5.83,100.48,57.54,121,179.65,162.19,423.87,23,136.59,15.69,182-12.4,215.37C1995.38,686.19,1899,681.11,1873.14,679.74Z"/></g></g><path class="cls-8" d="M1929.76,875.35c-1,6.69-50.43-6.39-50.43-6.39s34.08-190.73,18.31-248.92c0,0-87.76-103.13-72.74-247.79,0,0,2.94,63.74,68.78,183.37-.19,2.88-22.4-321.16-65.22-443.11C1852.4,151.91,1992.29,440.4,1929.76,875.35Z"/><path class="cls-11" d="M1990,822.69c-16.19-18.76-35.15-29.08-54.92-27.69-15.57,1.09-29.88,9.32-42.15,23-33.64-49.25-75.19-78.57-111.12-72.83-40.46,6.46-63,55.66-61.74,122-33.25-25.8-65.82-38.53-89.89-32.08-16.5,4.43-26.86,17.29-31.24,36-45.24-40.64-85.45-63.62-105.22-56.85-27.85,9.53-6,74.91,48.5,153.51-34-27.34-64.35-41.8-81-36.08-22.1,7.56-14.19,48.31,16,100.23-16.46-6.21-31.74-8-44.19-4.19-38.64,11.7-35.73,72.11,6,136-31.42,5.51-48.38,10.06-48.11,13.35l650.36-28.65"/><path class="cls-12" d="M2002.87,836.35c-15.9-17.32-45-39.2-64.51-37.82-23.36,2.28-29.7,8.17-46,25.53-33-45.54-61.75-54.45-97.26-48.95-40,6.19-62.44,52-61.56,113.5-32.7-23.78-64.8-35.43-88.6-29.33-16.31,4.18-26.61,16.17-31,33.53-44.47-37.49-84.07-58.62-103.63-52.24-27.54,9-6.31,69.55,47.15,142.21-33.49-25.2-63.33-38.47-79.85-33.08-21.85,7.12-14.24,44.89,15.27,92.93-16.23-5.68-46.66-7.49-59-3.93-38.21,11-30.35,66.54,10.52,125.62-31.05,5.27-37.74,10.38-37.5,13.43,1,11.9,260.58,1,617.83-24.64"/><path class="cls-13" d="M418.17,1103.85l-214.47,4.6a163.2,163.2,0,0,1,6.89-75.83c3.07-8.93,23.14-67.38,61.28-77.37C312.12,944.71,389.42,1021.83,418.17,1103.85Z"/><g class="cls-14"><g class="cls-15"><path class="cls-13" d="M418.17,1103.85l-214.47,4.6a163.2,163.2,0,0,1,6.89-75.83c3.07-8.93,23.14-67.38,61.28-77.37C312.12,944.71,389.42,1021.83,418.17,1103.85Z"/></g></g><g class="cls-16"><g class="cls-17"><path class="cls-13" d="M418.17,1103.85l-214.47,4.6a163.2,163.2,0,0,1,6.89-75.83c3.07-8.93,23.14-67.38,61.28-77.37C312.12,944.71,389.42,1021.83,418.17,1103.85Z"/></g></g><g class="cls-16"><g class="cls-18"><path class="cls-13" d="M418.17,1103.85l-214.47,4.6a163.2,163.2,0,0,1,6.89-75.83c3.07-8.93,23.14-67.38,61.28-77.37C312.12,944.71,389.42,1021.83,418.17,1103.85Z"/></g></g><path class="cls-11" d="M-81.27,1085.67c-32.43-162.79-26-190,8.84-206.37C-24.59,866.61,2,928.39,2.73,974.35c1.56,2.65-38-72.86,3.32-144.51,9-15.57,35.16-61,88.34-71,4.51-.84,53.48-9.29,88.85,20.43,41.31,34.7,49.75,109.39,9.2,174.63,5.24-36.9,25.81-65,53.1-72.51,4.76-1.3,22.57-6.19,36.77,3.07C318.08,907.82,310,1007.42,258.82,1054a107.67,107.67,0,0,1-16.34,12.25c1.92-1.33,22.7-15.43,31.66-8.93,8,5.8,6.05,27.61-9.19,52.85"/><path class="cls-12" d="M-75.82,1089.07c-29.84-143.73-17.44-168.26,14.65-182.75,44-11.21,68.44,43.35,69.15,83.93,1.43,2.33-34.93-64.34,3-127.6C19.29,848.9,43.37,808.78,92.31,800c4.14-.75,49.19-8.21,81.74,18,38,30.64,45.77,96.59,8.46,154.2,4.82-32.59,28.39-64.43,53.5-71.05,4.37-1.15,22.34-4.09,35.4,4.08,32.92,20.61,19.26,114.21-27.83,155.34-6.26,5.47-8.62,9.69-11.66,11.47,1.78-1.17,26.15-10.51,34.39-4.76,7.34,5.12,8.92,27.23-7.15,42.89"/></g></g></svg>